<svg xmlns="http://www.w3.org/2000/svg" xmlns:xlink="http://www.w3.org/1999/xlink" viewBox="0 0 222.66748 223.17672"><defs><style>.a{fill:#cab192;}.b{fill:#747c58;}.c{fill:#ededed;}.d{fill:#cecece;}.e{fill:#54593e;}.f,.o,.q,.s{fill:none;}.f,.s{stroke:#000;}.f,.o,.p,.q{stroke-linecap:round;}.f,.o,.s{stroke-miterlimit:10;}.g{fill:#080808;}.h{fill:#27421d;}.i{clip-path:url(#a);}.j{fill:#271d1d;}.k{clip-path:url(#b);}.l{fill:#707171;}.m{clip-path:url(#c);}.n{fill:#525222;}.o,.p,.q{stroke:#27421d;stroke-width:2px;}.p{fill:#284220;}.p,.q{stroke-linejoin:round;}.r{fill:#231f20;}</style><clipPath id="a"><polygon class="a" points="122.417 82.497 122.121 72.047 123.634 69.737 127.619 67.14 130.413 59.955 126.821 57.161 125.054 41.995 111.87 37.604 98.882 41.596 96.522 57.157 94.494 59.123 96.049 66.69 97.638 67.699 97.691 71.929 100.884 75.92 100.679 84.785 96.088 90.718 100.878 107.052 110.856 111.442 124.027 97.074 130.413 87.495 122.417 82.497"/></clipPath><clipPath id="b"><polygon class="b" points="142.08 123.424 141.585 159.941 134.677 162.711 116.962 161.371 95.179 159.678 94.117 158.032 95.18 154.418 84.632 117.411 77.016 105.24 80.432 93.728 96.152 86.086 100.922 80.936 101.23 84 100.89 89.324 109.324 103.66 122.606 85.597 122.793 81.636 122.718 80.216 122.163 76.139 127.113 80.993 149.481 89.569 151.474 112.18 142.08 123.424"/></clipPath><clipPath id="c"><path class="b" d="M142.50433,170.29645c-.02317-.07133-.09821-4.31633-.17062-4.29674l-2.1931.99359c-.017.00461-1.28733-.05585-1.30478-.05776L93.19,161.94837c-.06051-.00661-.11842,4.23078-.14353,4.28624l-1.33918,2.9599-.00617.01619-1.601,5.14525H143.8227Z"/></clipPath></defs><circle class="c" cx="111.3335" cy="111.84301" r="108.83386"/><path class="d" d="M111.3335,5.50933c58.48339,0,106.334,47.85008,106.334,106.33358v.00023c0,58.48346-47.85059,106.33358-106.334,106.33358S5,170.3266,5,111.84314v-.00023C5,53.35941,52.8501,5.50933,111.3335,5.50933m0-5A111.20485,111.20485,0,0,0,32.7002,190.47672,111.20489,111.20489,0,1,0,189.96729,33.2093a110.54262,110.54262,0,0,0-78.63379-32.7Z"/><polygon class="a" points="59.28 101.163 63.145 96.082 69.493 92.701 74.268 86.454 70.208 81.759 63.12 78.539 59.261 81.297 57.226 91.788 59.28 101.163"/><polygon class="b" points="92.771 92.185 87.661 92.525 78.987 92.878 47.954 127.678 46.984 135.391 53.288 139.395 89.112 116.664 95.241 98.372 92.771 92.185"/><path d="M54.68732,120.76479a18.21979,18.21979,0,0,1,4.31564,2.35753.50361.50361,0,0,0,.6841-.17937.51152.51152,0,0,0-.17938-.6841,19.13916,19.13916,0,0,0-4.55452-2.45833.50408.50408,0,0,0-.61506.34921.51108.51108,0,0,0,.34922.61506Z"/><path d="M66.78428,119.30179a12.5607,12.5607,0,0,1-1.50844-1.57194q-.23-.268-.45213-.54261c-.0776-.096-.15323-.19358-.2303-.29-.05853-.07324.04545.059.04511.05861a.81.81,0,0,1-.05137-.06722c-.03939-.05213-.07886-.10419-.11783-.15663a10.2524,10.2524,0,0,1-.72212-1.08692c-.05226-.0931-.10233-.18752-.14818-.284-.01664-.035-.08459-.18983-.02064-.0405.06287.1468.00319.00339-.00957-.03308a1.6608,1.6608,0,0,0-.06226-.22637c-.01421-.02592.01993.24788.016.10486-.00226-.08276.0252-.21273-.02335.10794a.86579.86579,0,0,0-.58888-1.03715.8527.8527,0,0,0-1.03714.58888,3.57482,3.57482,0,0,0,.93073,2.46888,22.6755,22.6755,0,0,0,1.99184,2.42238,8.57411,8.57411,0,0,0,.79613.77722.86313.86313,0,0,0,1.19237,0,.85272.85272,0,0,0,0-1.19236Z"/><polygon class="e" points="80.605 117.265 81.861 121.95 54.932 138.218 54.158 131.752 54.514 129.931 56.505 135.541 56.211 121.177 60.267 132.371 64.088 123.299 66.188 129.578 76.91 122.746 80.605 117.265"/><path d="M54.3885,120.535a41.15215,41.15215,0,0,1,2.56047,4.64644,13.71962,13.71962,0,0,1,1.587,4.97538c.02947.64082,1.02964.64443,1,0a14.48438,14.48438,0,0,0-1.60232-5.21974A40.79067,40.79067,0,0,0,55.252,120.0303c-.34569-.54053-1.21157-.03958-.86347.50471Z"/><path class="f" d="M63.43156,121.00247s1.38489,7.37072.41085,11.214"/><path class="f" d="M54.31506,129.72769a22.01814,22.01814,0,0,1,1.525,7.48083"/><polygon class="a" points="73.544 87.767 74.785 85.298 75.627 81.626 77.733 78.515 76.377 78.022 73.876 79.16 72.284 82.119 71.75 75.187 72.04 69.441 71.229 68.109 69.89 68.571 69.295 74.66 69.016 79.473 69.184 68.565 68.418 66.991 67.413 66.735 66.63 69.118 66.217 78.509 66.168 69.191 65.871 66.852 64.451 66.666 63.845 69.268 63.195 78.245 62.752 69.694 61.433 69.319 59.905 74.349 59.081 83.018 73.544 87.767"/><polygon class="b" points="68.908 92.929 66.913 100.929 68.115 104.758 62.456 127.454 53.46 138.278 44.274 134.215 43.033 131.467 42.667 128.449 52.489 99.335 56.636 97.165 58.348 90.297 66.311 93.702 68.908 92.929"/><polygon class="a" points="166.884 97.009 163.019 91.927 156.671 88.546 151.895 82.299 155.956 77.604 163.044 74.385 166.903 77.143 168.937 87.633 166.884 97.009"/><polygon class="b" points="133.393 88.03 138.503 88.371 147.176 88.723 178.209 123.524 179.18 131.237 172.875 135.241 137.052 112.51 130.922 94.217 133.393 88.03"/><path d="M171.21029,115.64592a19.13936,19.13936,0,0,0-4.55452,2.45834.515.515,0,0,0-.17938.6841.50375.50375,0,0,0,.6841.17937,18.21943,18.21943,0,0,1,4.31564-2.35753.51415.51415,0,0,0,.34922-.61506.50389.50389,0,0,0-.61506-.34922Z"/><path d="M160.57153,116.33956a13.04334,13.04334,0,0,0,1.61711-1.69946,13.47624,13.47624,0,0,0,1.77692-2.47169,2.38336,2.38336,0,0,0,.32468-1.49733.84577.84577,0,0,0-1.03715-.58888.869.869,0,0,0-.58887,1.03715c-.00248-.01634-.04066-.26486-.02278-.13259.00329.02433-.00933.05254-.00451.076-.01171-.057.05349-.25068.008-.09907-.0105.035-.01826.07074-.02908.10567-.01.03241-.02218.064-.033.09617a.68391.68391,0,1,0,.03027-.06582c-.04307.07486-.0735.15953-.11341.23651a8.68738,8.68738,0,0,1-.69121,1.0853q-.09771.13489-.19824.2677c-.01845.02441-.13029.16982-.05406.07152.07493-.09661-.052.0659-.074.09376q-.22916.28974-.46779.57182-.43.50929-.8874.99488a8.25032,8.25032,0,0,1-.74784.726.84587.84587,0,0,0,0,1.19236.86679.86679,0,0,0,1.19236,0Z"/><path class="g" d="M148.36508,103.529a13.61353,13.61353,0,0,0-3.674,10.48872c.0896.94,1.57069.94931,1.4802,0a12.18491,12.18491,0,0,1,3.24043-9.44207c.64581-.69872-.3984-1.748-1.04665-1.04665Z"/><path class="g" d="M146.70954,111.14367c.75363-2.25816,2.05556-4.31893,2.9066-6.56936a.85.85,0,0,0-.58887-1.03715.86178.86178,0,0,0-1.03715.58888c-.04068.10757-.08323.21428-.12675.32073.06339-.15506-.06482.14812-.08272.18851-.10548.23791-.21518.47394-.32625.70929-.269.57-.5466,1.136-.81879,1.70452a31.9311,31.9311,0,0,0-1.5521,3.6463.84335.84335,0,0,0,1.626.44828Z"/><polygon class="e" points="145.559 113.111 144.302 117.796 171.231 134.063 172.006 127.598 171.649 125.776 169.658 131.386 169.952 117.022 165.896 128.217 162.076 119.144 159.975 125.424 149.253 118.591 145.559 113.111"/><path class="g" d="M145.49038,107.30293c-.62889,2.92954-1.1487,5.88164-1.77759,8.81117a.84392.84392,0,0,0,1.626.44828c1.77817-4.26029,3.0697-8.71379,4.84786-12.97408a.849.849,0,0,0-.58887-1.03715.8637.8637,0,0,0-1.03715.58888c-1.77817,4.26029-3.0697,8.71378-4.84786,12.97407l1.626.44828c.6289-2.92954,1.1487-5.88164,1.7776-8.81117.22717-1.05822-1.398-1.51043-1.626-.44828Z"/><path d="M170.91147,115.8757a40.79212,40.79212,0,0,0-2.68168,4.9068,14.48253,14.48253,0,0,0-1.60232,5.21974c-.02959.64336.97048.64188,1,0a13.72012,13.72012,0,0,1,1.587-4.97538,41.15215,41.15215,0,0,1,2.56047-4.64644c.34776-.54375-.5174-1.04583-.86347-.50472Z"/><path class="f" d="M162.73189,116.84788s-1.3849,7.37072-.41086,11.214"/><path class="f" d="M171.84838,125.5731a22.01826,22.01826,0,0,0-1.525,7.48083"/><path class="h" d="M147.54763,135.197a37.30683,37.30683,0,0,0-2.81755-23.40285c-.41164-.87244-1.70524-.112-1.2952.75708a35.57911,35.57911,0,0,1,2.66633,22.247c-.19256.94231,1.253,1.34536,1.44642.39876Z"/><polygon class="a" points="122.417 82.497 122.121 72.047 123.634 69.737 127.619 67.14 130.413 59.955 126.821 57.161 125.054 41.995 111.87 37.604 98.882 41.596 96.522 57.157 94.494 59.123 96.049 66.69 97.638 67.699 97.691 71.929 100.884 75.92 100.679 84.785 96.088 90.718 100.878 107.052 110.856 111.442 124.027 97.074 130.413 87.495 122.417 82.497"/><g class="i"><polygon class="j" points="124.036 63.936 130.432 47.141 87.075 0 97.507 62.875 99.025 51.535 100.234 48.623 101.514 43.47 110.417 45.247 120.543 43.843 121.746 48.6 123.965 51.967 123.644 61.339 124.036 63.936"/></g><polygon points="119.503 53.722 119.605 51.684 114.271 50.593 113.088 51.969 119.503 53.722"/><polygon points="107.144 52.445 106.933 50.364 102.2 51.507 101.422 53.026 107.144 52.445"/><path d="M114.09022,65.32567a11.78783,11.78783,0,0,1-7.10951,1.16649.8925.8925,0,0,0-1.06405.60415.8716.8716,0,0,0,.60415,1.064,13.78277,13.78277,0,0,0,8.44258-1.34089c.99119-.50775.11688-2.001-.87317-1.4938Z"/><path d="M119.78618,74.52328l-7.45817,4.683-6.0706.01391-4.3591-2.69152,3.451,7.3451a4.16352,4.16352,0,0,0,1.89181,2.11957h0a4.16356,4.16356,0,0,0,1.97392.49766h.20589a4.16353,4.16353,0,0,0,2.68187-.9788l1.54035-1.29714a4.16346,4.16346,0,0,0,.96627-1.17824l3.44233-6.25878Z"/><path d="M120.9451,72.27094c-2.03443,1.68717-4.04858,3.399-6.07339,5.09768q-.61867.519-1.239,1.036a.87223.87223,0,0,0,0,1.22439.88492.88492,0,0,0,1.22439,0c2.03443-1.68717,4.04859-3.399,6.07339-5.09768q.61868-.519,1.239-1.03605a.87224.87224,0,0,0,0-1.22439.88494.88494,0,0,0-1.2244,0Z"/><path d="M103.78118,53.02517a4.65711,4.65711,0,0,1,.2163.75878q.01149.05969.02139.11964.02209.14483-.00478-.04972a.6693.6693,0,0,1,.019.18134q.01661.19691.01661.39467,0,.19755-.01667.39466c-.00508.05915-.01774.12211-.019.18134.00528-.24155.00077-.02383-.0111.04a4.65287,4.65287,0,0,1-.222.78862l1.447-.382a.5602.5602,0,0,0-.06838-.07815c.02647.01937.10693.15029.04176.05331-.04242-.06313-.08409-.12618-.12112-.19271-.02067-.03716-.10962-.23321-.05576-.1.05437.13445-.02389-.06973-.03668-.109a3.003,3.003,0,0,1-.103-.42235c-.00584-.034-.00929-.06879-.01606-.10262.00671.03352.02188.19513.01205.07438-.00644-.07905-.01366-.15779-.01754-.23706a7.02539,7.02539,0,0,1,.01972-.8844c.01094-.14158.02469-.28294.03973-.42414.00412-.03869.02352-.20093.00214-.03089-.01938.15415-.00673.04434.00628.01112q.02021-.06447-.0206.04583-.10959.36182-.66139.047-.55224.2713-.66826-.09756a.71247.71247,0,0,1,.16448-.81863l.382-.22265.18494-.02787a.86853.86853,0,0,0-.86578.86577.88949.88949,0,0,0,.86578.86578.93745.93745,0,0,0,.90469-1.201.98912.98912,0,0,0-1.19284-.70926c-.81361.21295-.835,1.12291-.88052,1.80375a4.09988,4.09988,0,0,0,.86,3.11579.86073.86073,0,0,0,.84235.22265.90125.90125,0,0,0,.6047-.60469,5.40256,5.40256,0,0,0,.00026-3.73.93471.93471,0,0,0-.39787-.51742.86592.86592,0,0,0-1.27183.97773Z"/><path d="M115.65925,52.69192a4.65826,4.65826,0,0,1,.21631.75879q.01148.05967.02138.11964.0221.14481-.00478-.04973a.6693.6693,0,0,1,.019.18134q.0166.19691.01661.39467,0,.19755-.01667.39466c-.00508.05915-.01774.12212-.019.18134.00529-.24155.00077-.02383-.0111.04a4.65287,4.65287,0,0,1-.222.78862l1.44705-.382a.5602.5602,0,0,0-.06838-.07815c.02647.01937.10694.15029.04176.05331-.04242-.06313-.08409-.12618-.12112-.19271-.02067-.03716-.10962-.23321-.05575-.1.05437.13445-.0239-.06973-.03669-.109a3.00409,3.00409,0,0,1-.103-.42235c-.00584-.034-.00929-.06879-.016-.10262.0067.03352.02187.19513.012.07438-.00644-.07905-.01366-.15779-.01754-.23706a7.02727,7.02727,0,0,1,.01972-.8844c.01094-.14158.02469-.28293.03973-.42414.00412-.03869.02352-.20093.00214-.03089-.01938.15415-.00673.04434.00628.01112q.02022-.06447-.0206.04583-.10959.36182-.66138.047-.55225.2713-.66827-.09756a.71247.71247,0,0,1,.16448-.81863l.382-.22265.18494-.02787a.86853.86853,0,0,0-.86578.86577.88948.88948,0,0,0,.86578.86578.93745.93745,0,0,0,.90469-1.201.98912.98912,0,0,0-1.19284-.70926c-.81361.21295-.835,1.12291-.88052,1.80375a4.1,4.1,0,0,0,.86,3.11579.86073.86073,0,0,0,.84235.22265.90125.90125,0,0,0,.6047-.60469,5.40262,5.40262,0,0,0,.00027-3.73.93473.93473,0,0,0-.39788-.51742.86592.86592,0,0,0-1.27183.97773Z"/><path d="M126.78586,61.92432l-2.08936,1.06126a.86592.86592,0,0,0,.87395,1.49515l2.08936-1.06126a.86592.86592,0,0,0-.87395-1.49515Z"/><path d="M125.58939,61.09051l-1.29064,2.36865a.86591.86591,0,1,0,1.49514.874l1.29065-2.36865a.86592.86592,0,1,0-1.49515-.874Z"/><path d="M129.33987,59.72952a6.21045,6.21045,0,0,0-3.57285,1.19913.94654.94654,0,0,0-.39788.51742.88482.88482,0,0,0,.08728.66713.8749.8749,0,0,0,1.18455.3106,5.43841,5.43841,0,0,1,.67457-.43394c.12577-.068.25462-.1286.38439-.18845q.12752-.05532-.059.02457.04959-.02017.09957-.03936.08746-.03357.17607-.064a5.39847,5.39847,0,0,1,.77572-.20445,1.09389,1.09389,0,0,0,.18475-.03095q-.21279.02733-.071.00964.05314-.00629.10642-.01151c.14216-.0139.28463-.02128.42741-.02423a.86578.86578,0,1,0,0-1.73156Z"/><polygon points="94.396 173.495 142.275 167.886 142.49 156.556 95.089 156.515 94.396 173.495"/><polygon class="b" points="142.08 123.424 141.585 159.941 134.677 162.711 116.962 161.371 95.179 159.678 94.117 158.032 95.18 154.418 84.632 117.411 77.016 105.24 80.432 93.728 96.152 86.086 100.922 80.936 101.23 84 100.89 89.324 109.324 103.66 122.606 85.597 122.793 81.636 122.718 80.216 122.163 76.139 127.113 80.993 149.481 89.569 151.474 112.18 142.08 123.424"/><g class="k"><polyline class="e" points="94.494 161.948 98.389 154.927 85.864 119.855"/></g><polygon class="e" points="141.191 160.099 140.715 139.798 140.72 125.702 141.627 125.969 141.867 159.893 141.191 160.099"/><path d="M87.9213,118.26511a31.04709,31.04709,0,0,1,.71188,5.22156c.04921.85262.07745,1.70629.10462,2.55983a8.4683,8.4683,0,0,0,.15741,2.44206,2.78744,2.78744,0,0,0,.84743,1.10969,3.30277,3.30277,0,0,0,1.82544.49731c1.63409.23183,3.26445.45823,4.90707.625a32.9544,32.9544,0,0,0,5.66015.18287,2.40641,2.40641,0,0,0,2.38168-1.60773,37.12511,37.12511,0,0,0,.8055-6.63393,55.324,55.324,0,0,1,.902-7.74694c.21888-.93915-1.22705-1.34-1.44642-.39876-.94449,4.0525-.86146,8.334-1.38568,12.45083-.07975.6263-.05545,1.72177-.5092,2.1824-.40724.4134-1.2037.28786-1.74543.30207-.88846.0233-1.77782-.00439-2.66458-.06082-1.68311-.1071-3.37118-.28871-5.0409-.52557-.57427-.08146-1.14714-.1724-1.72169-.25187-.52613-.07277-1.12737-.01716-1.37924-.58979a3.93818,3.93818,0,0,1-.06912-1.20358c-.01323-.41067-.0254-.82137-.03915-1.232-.02844-.84923-.0612-1.69844-.11754-2.54635a32.53391,32.53391,0,0,0-.73777-5.17507c-.21722-.94016-1.66383-.54221-1.44642.39876Z"/><path d="M117.82916,117.09209q.35649,2.79588.68437,5.5954c.16134,1.37535.319,2.75133.45652,4.12929a2.40313,2.40313,0,0,0,1.86306,2.29137,46.09721,46.09721,0,0,0,5.038.36153c1.87588.09362,3.75721.15019,5.63451.06392,1.44783-.06654,3.14586.05908,4.14127-1.16282.68529-.84122.59083-2.3951.65735-3.42711.21155-3.28186-.03385-6.67346.57221-9.91718.17629-.94353-1.26907-1.34795-1.44642-.39875a49.00333,49.00333,0,0,0-.50338,7.48316c-.04067,1.31636-.08249,2.63571-.21049,3.94707a3.47417,3.47417,0,0,1-.25541,1.39947c-.3651.56454-1.31463.46484-1.90175.51131a58.13282,58.13282,0,0,1-9.63677-.20265,6.90024,6.90024,0,0,1-1.96879-.18137c-.523-.24821-.48444-.78659-.53464-1.27077-.12544-1.20986-.26355-2.41842-.40529-3.62647q-.32845-2.79931-.68437-5.5954c-.12044-.94452-1.622-.95655-1.5,0Z"/><polygon class="b" points="109.942 160.805 109.942 173.205 106.999 173.205 106.999 158.913 109.942 158.913 109.942 160.805"/><polygon class="b" points="100.935 160.805 100.935 173.205 97.992 173.205 97.992 158.913 100.935 158.913 100.935 160.805"/><polygon class="b" points="123.183 159.057 123.183 173.139 126.422 173.139 126.422 157.166 123.183 157.166 123.183 159.057"/><rect class="b" x="137.19814" y="156.51519" width="2.94246" height="14.08176"/><path d="M93.94525,99.17457a6.2359,6.2359,0,0,1,2.68034-3.476,12.84921,12.84921,0,0,1,3.56177-1.20316l-1.02974-.419a13.78445,13.78445,0,0,1,1.21364,3.69731c.14512.88443,1.082,1.46485,1.7224,2.01047,1.08734.9264,2.18938,1.83562,3.26456,2.77626.47473.41533.94885.83388,1.39726,1.27779.15.14854.29586.30029.43621.458.14975.16829-.01336.04692.0532.06681a.89149.89149,0,0,1,.04746.08021q-.28539-.52622.30976-1.05652c-.96182.65979-.05074,2.24088.92043,1.57467.97422-.6683.3-1.61435-.30256-2.23664-.75193-.77662-1.589-1.4756-2.41-2.17692-.91395-.78069-1.84055-1.54657-2.75136-2.33094-.295-.254-.58779-.51025-.87059-.77781-.04273-.04043-.08148-.08578-.12495-.12524-.11016-.1-.00495-.06216-.02311-.01663.007-.01766.115.4469.15284.303a1.63536,1.63536,0,0,0-.06929-.57074,15.34728,15.34728,0,0,0-1.39119-3.87356.92625.92625,0,0,0-1.02973-.419,13.15,13.15,0,0,0-4.31107,1.57043,8.40545,8.40545,0,0,0-3.20475,4.38245c-.40868,1.10186,1.35327,1.5774,1.75851.4848Z"/><path d="M100.73382,95.87444a20.80923,20.80923,0,0,0-3.98739.47A25.443,25.443,0,0,0,93.042,97.54812a.93948.93948,0,0,0-.63685,1.12166.9183.9183,0,0,0,1.12165.63685,25.83012,25.83012,0,0,1,3.59349-1.1782,17.93669,17.93669,0,0,1,3.61351-.43034c1.171-.034,1.17586-1.85781,0-1.82365Z"/><path d="M97.80307,83.81089c-2.507,2.21677-3.788,5.60876-4.59337,8.77351a33.09674,33.09674,0,0,0-.97433,5.76878c-.08341,1.17109,1.74062,1.16585,1.82365,0a29.744,29.744,0,0,1,.87109-5.13272c.73-2.92755,1.84151-6.06777,4.16248-8.12005.881-.779-.41278-2.06476-1.28952-1.28952Z"/><path d="M143.80556,126.49848a14.211,14.211,0,0,0-2.84534-4.52044,7.35733,7.35733,0,0,0-4.20807-2.13031.83231.83231,0,0,0-.98919.56165.80971.80971,0,0,0,.56165.98918,6.94887,6.94887,0,0,1,1.10374.23541,4.016,4.016,0,0,1,.883.35933,5.59629,5.59629,0,0,1,1.57018,1.18111,13.388,13.388,0,0,1,2.5353,4.1358.80918.80918,0,0,0,1.10021.28849.82523.82523,0,0,0,.28849-1.10022Z"/><path class="g" d="M80.03232,111.5228a13.15738,13.15738,0,0,1,4.82081,9.66024c.03042,1.02782,1.63135,1.03216,1.6008,0a14.71739,14.71739,0,0,0-5.28967-10.79218c-.78354-.65918-1.92158.46762-1.13194,1.13194Z"/><path class="g" d="M140.02026,122.4842c-.92955,1.56477-1.45617,3.33167-2.38572,4.89645a.80427.80427,0,0,0,1.3887.81173c.92955-1.56478,1.45617-3.33168,2.38572-4.89645a.80427.80427,0,1,0-1.3887-.81173Z"/><path class="g" d="M143.80556,126.49848a5.002,5.002,0,0,0-2.98062-2.038,1.44053,1.44053,0,0,0-.78225.015,2.1088,2.1088,0,0,0-.70673.4545,6.647,6.647,0,0,0-.966,1.2109,12.6898,12.6898,0,0,0-.73537,1.23982.80427.80427,0,0,0,1.3887.81173,12.70905,12.70905,0,0,1,.719-1.21535q.114-.17155.23442-.33882c.02519-.03484.18614-.24442.04716-.068.04578-.05812.09185-.116.13948-.17259.07706-.09162.15695-.18111.24205-.26537.033-.03271.06828-.06311.1014-.09566.14889-.14635-.10252.05118.00092-.00421a.52728.52728,0,0,0,.1093-.06571c.03172-.03312-.214.06246-.05946.03051q-.25127.0247-.13131.019.10239.00619-.09869-.01665a.51842.51842,0,0,1,.14193.02612,3.07837,3.07837,0,0,1,.39141.115c.04127.01488.24719.10409.06.01965.07727.03485.15418.0701.22983.1084q.20718.10487.40376.22912.10043.06356.19748.13214c.16331.11529-.03471-.03956.08189.05967a4.53054,4.53054,0,0,1,.3479.32077q.09139.09588.1745.19917c-.12177-.15129.04093.0695.06067.10063a.80427.80427,0,1,0,1.3887-.81173Z"/><path class="g" d="M142.328,124.44293a1.43161,1.43161,0,0,0-.5862-.32778,2.433,2.433,0,0,0-.53249-.0727c-.24456-.01165-.49079.00733-.73416-.02529l.21378.02873a.96247.96247,0,0,1-.2296-.05985l.1921.08107a.56769.56769,0,0,1-.11492-.0677l.16274.12574-.02486-.02145-1.13723,1.13723a3.34467,3.34467,0,0,0,.46159.35153,1.08862,1.08862,0,0,0,.89053.11784.85625.85625,0,0,0,.48058-.36955.79822.79822,0,0,0,.08106-.61963l-.39635-1.12181-1.344.78238.91909,1.1038a.80806.80806,0,0,0,.56861.23553.81833.81833,0,0,0,.56861-.23553.80913.80913,0,0,0,.23553-.56861l-.02872-.21378a.80342.80342,0,0,0-.20681-.35484l-.91909-1.10379-.16275-.12574a.59849.59849,0,0,0-.299-.09543.76893.76893,0,0,0-.51275.09543.96065.96065,0,0,0-.28848.28849.80658.80658,0,0,0-.08107.61963l.39635,1.12181.56165-.98919a.30538.30538,0,0,1-.06084.01738l.21377-.02872a.34469.34469,0,0,1-.06229-.00029l.21377.02872a.45142.45142,0,0,1-.08432-.02309l.1921.08107a.9242.9242,0,0,1-.18838-.115l.16275.12574c-.05906-.04587-.11589-.09444-.17391-.14159a.89469.89469,0,0,0-.56862-.23553.81833.81833,0,0,0-.56861.23553.80414.80414,0,0,0,0,1.13723,1.43161,1.43161,0,0,0,.5862.32778,2.433,2.433,0,0,0,.5325.07269c.24455.01166.49078-.00733.73415.02529l-.21377-.02872a.96238.96238,0,0,1,.22959.05984l-.19209-.08106a.56734.56734,0,0,1,.11491.0677l-.16274-.12574.02487.02145a.8477.8477,0,0,0,.56861.23552.81832.81832,0,0,0,.56861-.23552.80414.80414,0,0,0,0-1.13723Z"/><path class="g" d="M136.5669,155.82926c-1.14574.62875-2.22,1.37673-3.36644,2.0035a38.83267,38.83267,0,0,1-6.07665,2.49745c-1.10326.3795-.62925,2.14172.4848,1.75851a42.35694,42.35694,0,0,0,6.44513-2.64474c1.17128-.63459,2.26557-1.39907,3.43359-2.04005,1.02914-.56478.11-2.14016-.92043-1.57467Z"/><path d="M135.48524,106.57736q-10.02759,1.3885-20.121,2.18522c-1.16233.09114-1.17215,1.91556,0,1.82365q10.33713-.81053,20.60581-2.25036c1.15745-.16027.66481-1.91769-.48479-1.75851Z"/><path d="M114.5803,109.51082a10.57778,10.57778,0,0,0-.92328,3.43987,31.07437,31.07437,0,0,1-.43766,3.20728.93152.93152,0,0,0,.63685,1.12165.922.922,0,0,0,1.12166-.63685,29.474,29.474,0,0,0,.46339-3.35588,8.90935,8.90935,0,0,1,.71371-2.85563.93534.93534,0,0,0-.32712-1.24756.92031.92031,0,0,0-1.24755.32712Z"/><path d="M135.02581,107.81119a20.70067,20.70067,0,0,1-.11558,7.90626.93383.93383,0,0,0,.63686,1.12165.921.921,0,0,0,1.12165-.63685,23.08753,23.08753,0,0,0,.11558-8.87586.91988.91988,0,0,0-1.12166-.63686.93194.93194,0,0,0-.63685,1.12166Z"/><path d="M135.6351,115.197l-1.99285.42554a.912.912,0,0,0-.21781,1.66659.99681.99681,0,0,0,.70261.09192l1.99285-.42554a.912.912,0,0,0,.21782-1.66659.99679.99679,0,0,0-.70262-.09192Z"/><path class="g" d="M108.70139,159.92024a14.09513,14.09513,0,0,1,.93469-4.39323,24.49872,24.49872,0,0,0,1.132-5.2808c.27637-3.08176.255-6.20966.27851-9.30107.05673-7.456-.08294-14.91312-.22671-22.36743-.06739-3.49393-.14408-6.98779-.19275-10.48206a.91238.91238,0,0,0-1.82366,0c.189,13.56689.896,27.1993.229,40.76088a23.90771,23.90771,0,0,1-1.15488,6.18568,15.62828,15.62828,0,0,0-.99983,4.878.91237.91237,0,0,0,1.82365,0Z"/><path d="M104.73263,110.87431a10.82041,10.82041,0,0,1-1.5318,6.86387c-.5668,1.02857,1.0075,1.94967,1.57467.92043a12.80371,12.80371,0,0,0,1.71564-8.26909.91839.91839,0,0,0-1.12165-.63686.93435.93435,0,0,0-.63686,1.12165Z"/><path d="M104.98585,109.89737a62.87807,62.87807,0,0,0-17.16243,1.73357c-1.14.27637-.65727,2.03537.4848,1.75851a61.00386,61.00386,0,0,1,16.67763-1.66843c1.17368.044,1.17183-1.77975,0-1.82365Z"/><path d="M87.476,112.46133a12.94048,12.94048,0,0,1-.74979,5.41016.91719.91719,0,0,0,.63685,1.12166.935.935,0,0,0,1.12166-.63686,14.70368,14.70368,0,0,0,.81493-5.895.91183.91183,0,1,0-1.82365,0Z"/><path d="M104.068,117.1378c-.0972.02123-.3101.05037-.07455.01794-.16388.02257-.329.03755-.49363.05389-.49042.04869-.98192.087-1.47327.12481-1.36921.10525-2.73962.19518-4.10992.28477-3.0151.19712-6.032.37381-9.045.60127a19.95822,19.95822,0,0,0-2.73175.27742c-1.14605.25024-.66107,2.00871.4848,1.75851.09762-.02131.31-.04739.07454-.01794.16426-.02054.32891-.03753.49363-.05389.49042-.04868.98192-.087,1.47328-.12481,1.36921-.10524,2.73961-.19518,4.10992-.28476,3.0151-.19712,6.032-.37381,9.045-.60127a19.95682,19.95682,0,0,0,2.73175-.27743c1.14605-.25023.66106-2.0087-.4848-1.75851Z"/><line class="l" x1="101.21211" y1="96.82573" x2="97.00709" y2="97.58377"/><path d="M100.21114,93.69111a7.60964,7.60964,0,0,0-6.72521,3.831l.07007.795,6.61286-1.70148.88553.2394Z"/><path d="M128.21184,92.55292c-1.42836.06131-2.85028.23219-4.27132.38164-.7036.074-1.40754.1462-2.11289.2016-.32924.02586-.659.0493-.989.06313a.72946.72946,0,0,0-.21534.00652c.21519-.12251.33766,1.0008.527.42175.07032-.2151.14433-.42908.21647-.64356l-1.79108-.2424a1.90677,1.90677,0,0,0,.70771,1.73527,1.43159,1.43159,0,0,0,1.96063-.392,1.40865,1.40865,0,0,0-.4537-1.93953,1.12283,1.12283,0,0,0-1.65385,1.07751,1.50158,1.50158,0,0,0,1.49479,1.34747,4.15755,4.15755,0,0,0,1.36034-.15217c.473-.11352.93653-.263,1.40884-.37925.0971-.0239.19454-.04684.29248-.06707.0354-.00731.39288-.05607.21638-.04045.08392-.00743.16741-.0107.25166-.01228q.07794.00041.15551.00808-.18049-.02544-.03042.00774a.91262.91262,0,0,0,.48479-1.75851c-1.20763-.40065-2.55357-.07257-3.795-.12363-1.17353-.04827-1.17131,1.77547,0,1.82365.57934.02383,1.16045-.02922,1.73932-.04793.30971-.01.62026-.01566.92991-.00078a1.63977,1.63977,0,0,1,.641.1072l.48479-1.75851a4.62089,4.62089,0,0,0-2.35877.23819c-.36438.1013-.72756.21022-1.09771.28906-.09174.01955-.18471.039-.27762.05233.17887-.02559-.08549.00315-.10106.00371a1.80189,1.80189,0,0,1-.23248-.00449l.10155.01166q-.5677-.20589-.104.91218h-.92043q-.04107-.09143-.07793-.18466-.21175-.33618.2657-.59118l.31711.05514a.24457.24457,0,0,1,.12983.144,1.176,1.176,0,0,1-.01567-.36078.91626.91626,0,0,0-1.79108-.2424,2.96757,2.96757,0,0,0-.305,1.5293,1.28353,1.28353,0,0,0,1.26687.99763,17.15221,17.15221,0,0,0,2.45332-.1739c1.7275-.17033,3.453-.40117,5.18845-.47566a.93056.93056,0,0,0,.91182-.91182.921.921,0,0,0-.91182-.91183Z"/><path class="b" d="M142.50433,170.29645c-.02317-.07133-.09821-4.31633-.17062-4.29674l-2.1931.99359c-.017.00461-1.28733-.05585-1.30478-.05776L93.19,161.94837c-.06051-.00661-.11842,4.23078-.14353,4.28624l-1.33918,2.9599-.00617.01619-1.601,5.14525H143.8227Z"/><g class="m"><rect class="e" x="70.1676" y="152.86487" width="24.88459" height="23.35537"/></g><path class="b" d="M143.7229,206.65461h0a.14076.14076,0,0,0,.24158.133l.03335-.03917.00025-.05145A.14075.14075,0,0,0,143.7229,206.65461Z"/><path d="M109.16123,173.89136c.74557-2.85875,1.61508-5.68177,2.51082-8.49643.35673-1.12095-1.40337-1.60078-1.75851-.4848-.89574,2.81467-1.76525,5.63768-2.51082,8.49643a.91261.91261,0,0,0,1.75851.4848Z"/><path d="M106.16343,174.01475c.39031-1.62486.67-3.25127,1.16181-4.85437.13365-.43566.27568-.86886.43053-1.29747.15829-.43809.25364-.68771.42032-1.04739a8.20211,8.20211,0,0,1,.50162-.91711c.03079-.049.16747-.20474.01393-.02743.03874-.04474.07881-.08852.11747-.13326.03519-.04071.081-.07047.11731-.10947-.16112.17328-.082.06254.01.0172a.92087.92087,0,0,0,.32712-1.24755.93051.93051,0,0,0-1.24756-.32712,3.44328,3.44328,0,0,0-1.33854,1.66367,19.60287,19.60287,0,0,0-1.0162,2.63816c-.54,1.70129-.841,3.4285-1.25633,5.15734-.274,1.14057,1.48408,1.62726,1.75851.4848Z"/><path class="g" d="M79.45818,111.0486a13.13631,13.13631,0,0,1,.97938,1.01913q.11857.13784.23326.279c.034.04182.06752.084.1011.12609.16074.20163-.04771-.06487.04162.05357q.219.29037.42235.592a12.91226,12.91226,0,0,1,.72319,1.2145q.15922.30429.30214.61675c.028.06125.05522.12283.0826.18436.02222.04992.045.10459.01045.02214.05206.12422.101.24971.14914.37551a.8603.8603,0,0,0,1.0341.58714.8501.8501,0,0,0,.58714-1.0341,13.9725,13.9725,0,0,0-3.47761-5.22491.84065.84065,0,0,0-1.18886,1.18886Z"/><path d="M81.023,96.65783c4.2214-.01718,8.39616-.97747,12.61756-.99465a.75045.75045,0,0,0,0-1.5c-4.2214.01718-8.39616.97747-12.61756.99465a.75045.75045,0,0,0,0,1.5Z"/><path d="M81.74616,96.10722c.0577-.15349-.08722.18949-.01886.04256.02353-.05058.04721-.101.07216-.15093.05793-.11592.11969-.22993.18284-.34308.15307-.27425.315-.54354.47962-.811.30463-.49493.61979-.98341.94012-1.46829q.10335-.15646.20775-.31224a.7549.7549,0,0,0-.26906-1.02614.76806.76806,0,0,0-1.02615.26906c-.557.82768-1.10592,1.66684-1.59629,2.53594a6.23556,6.23556,0,0,0-.41855.86534.75347.75347,0,0,0,.52383.92259.7705.7705,0,0,0,.92259-.52383Z"/><path d="M131.04186,88.93006l7.10351,1.70036c.86364.20672,1.23217-1.12428.367-1.33137L131.4089,87.5987c-.86363-.20673-1.23216,1.12427-.367,1.33136Z"/><polygon class="n" points="127.088 93.643 131.884 95.465 131.186 91.861 138.093 92.742 136.098 97.721 135.721 105.507 132.269 105.038 130.056 103.917 127.878 101.937 126.915 98.893 127.088 93.643"/><path d="M139.68922,92.65955c-1.35484,3.57339-2.84,5.60788-1.9742,9.33013a14.82771,14.82771,0,0,1,.60457,2.99628c-.05815.67564-2.35591,1.45691-2.59847.521-1.01614-3.92052-.706-9.4177,1.37438-12.89261"/><path d="M131.78651,100.46381a20.33107,20.33107,0,0,0,2.72548-2.26818c.8391-.78322,1.65195-1.59448,2.49622-2.37212a.75.75,0,0,0-1.06066-1.06066c-.8261.7609-1.62186,1.55429-2.44208,2.32153-.44712.41825-.89908.83178-1.36471,1.22942-.21151.18064-.42587.35808-.6455.52878.09934-.07721.01994-.01588-.03424.02452q-.067.04994-.13479.09878-.146.10493-.2968.20272a.76648.76648,0,0,0-.26907,1.02614.75806.75806,0,0,0,1.02615.26907Z"/><polygon class="n" points="132.504 85.059 137.425 86.491 141.768 88.013 140.077 85.304 133.632 84.416 130.922 84.407 132.504 85.059"/><path d="M126.46784,81.63734c2.99383,3.70784,3.815,9.20728,4.24765,13.81069l1.55658-.64475c-3.14-3.05291-7.68347-2.70139-11.65333-3.69515a.92669.92669,0,0,0-1.02973.419,18.30624,18.30624,0,0,0-1.42576,6.93134l1.15423-.87926c-3.767-.75605-7.0492,3.28608-9.68035,5.35862-.92131.72572.37707,2.00824,1.28951,1.28952,1.28522-1.01236,2.465-2.15321,3.77282-3.1379,1.09316-.82306,2.66932-2.04554,4.13322-1.75173a.92788.92788,0,0,0,1.15423-.87925,15.99423,15.99423,0,0,1,1.17677-6.01091l-1.02973.419c3.56053.8913,8.03821.49374,10.8486,3.22615.52336.50884,1.63382.177,1.55659-.64476-.48425-5.15235-1.44032-10.96182-4.78179-15.10021-.73739-.91326-2.02056.38412-1.28951,1.28952Z"/><path d="M131.0024,92.10607a57.49752,57.49752,0,0,0,5.72134,1.03515c1.37575.20277,2.8102.30284,4.16263.63622.93719.231,1.337-1.21513.39876-1.44642-1.35243-.33337-2.7869-.43343-4.16263-.63622a57.50328,57.50328,0,0,1-5.72134-1.03515.75065.75065,0,0,0-.39876,1.44642Z"/><path d="M129.48448,85.13033c2.03138.554,4.03392,1.23128,6.028,1.90482a52.09708,52.09708,0,0,1,5.8804,2.18738c.866.41619,1.62777-.87677.75708-1.29521a53.92886,53.92886,0,0,0-6.09159-2.28883c-2.04241-.69175-4.0939-1.387-6.17512-1.95458a.75064.75064,0,0,0-.39876,1.44642Z"/><path d="M114.35753,117.83608a130.176,130.176,0,0,0,19.313-.51686c1.1561-.11852,1.16831-1.94342,0-1.82366a130.17328,130.17328,0,0,1-19.313.51686c-1.17326-.05433-1.17052,1.76945,0,1.82366Z"/><path d="M108.99066,53.08353a2.35576,2.35576,0,0,1-.1197,1.65857,8.87951,8.87951,0,0,1-.656,1.43034,32.17637,32.17637,0,0,1-1.87117,2.88429.65426.65426,0,0,0,.23265.8873.662.662,0,0,0,.8873-.23266,28.89741,28.89741,0,0,0,2.02762-3.17584c.57108-1.09615,1.2359-2.5602.75-3.79681a.66807.66807,0,0,0-.79775-.453.65317.65317,0,0,0-.453.79776Z"/><path d="M107.08737,58.06291A2.21905,2.21905,0,0,0,106.0766,59.989a2.42676,2.42676,0,0,0,1.14722,2.11488,4.718,4.718,0,0,0,2.76033.91516,5.04338,5.04338,0,0,0,1.49791-.3303,3.12888,3.12888,0,0,0,1.27374-.73381,1.75573,1.75573,0,0,0,.45714-1.50469.97621.97621,0,0,0-1.0157-.96083.66314.66314,0,0,0-.64852.64851.6544.6544,0,0,0,.64852.64852q.30021.00326-.263-.21145-.03546-.09988-.0145-.02735a.74619.74619,0,0,1,.02026.09279q-.00823-.08527.00689.045a.39381.39381,0,0,1-.07709.31476,1.6683,1.6683,0,0,1-.83158.47327,3.53465,3.53465,0,0,1-1.26351.24933,3.092,3.092,0,0,1-1.10452-.29864,3.46062,3.46062,0,0,1-.86868-.5034,1.50382,1.50382,0,0,1-.3226-.36618q-.03507-.05613-.06454-.11547.04009.10435.0014-.00483a1.43437,1.43437,0,0,1-.04282-.18051c.01977.12036-.00176-.08494-.00194-.09141-.0019-.06949.0001-.139.00446-.20832a.41254.41254,0,0,1,.01993-.14411c.01786-.08075.03673-.16073.062-.23959a.75477.75477,0,0,1,.13156-.27042c.07761-.11921-.04056.025.05234-.05874q.08457-.07583.00275-.00613a.68687.68687,0,0,1,.09793-.0521.65446.65446,0,0,0,.23266-.88729.66243.66243,0,0,0-.8873-.23266Z"/><path class="o" d="M121.73538,117.09209s6.55147,25.05976,15.29159,23.43768,7.59019-10.21345,7.59019-10.21345"/><path class="o" d="M140.93256,92.7416s3.38376-5.12448,3.55531-5.14653"/><path class="o" d="M140.41822,92.9295s1.008-5.43657,2.70749-5.79344"/><ellipse class="p" cx="141.13959" cy="100.81645" rx="1.59659" ry="0.85499" transform="translate(-26.5461 145.15436) rotate(-50.34902)"/><ellipse class="p" cx="141.28216" cy="103.03039" rx="1.59659" ry="0.85499" transform="translate(-28.19912 146.06533) rotate(-50.34902)"/><ellipse class="p" cx="141.37089" cy="105.3984" rx="1.59659" ry="0.85499" transform="translate(-29.99024 146.99061) rotate(-50.34902)"/><ellipse class="p" cx="141.44772" cy="107.99591" rx="1.59659" ry="0.85499" transform="translate(-31.96238 147.98978) rotate(-50.34902)"/><ellipse class="p" cx="141.31294" cy="110.54389" rx="1.59659" ry="0.85499" transform="translate(-33.97297 148.8081) rotate(-50.34902)"/><ellipse class="p" cx="141.31865" cy="112.96446" rx="1.59659" ry="0.85499" transform="translate(-35.8346 149.68848) rotate(-50.34902)"/><ellipse class="p" cx="141.57585" cy="115.52838" rx="1.59659" ry="0.85499" transform="translate(-37.71561 150.81437) rotate(-50.34902)"/><ellipse class="p" cx="141.66662" cy="118.12843" rx="1.59659" ry="0.85499" transform="translate(-39.68466 151.82519) rotate(-50.34902)"/><ellipse class="p" cx="142.16417" cy="120.85741" rx="1.59659" ry="0.85499" transform="translate(-41.60576 153.19586) rotate(-50.34902)"/><ellipse class="p" cx="142.52505" cy="123.3363" rx="1.59659" ry="0.85499" transform="translate(-43.38377 154.37081) rotate(-50.34902)"/><ellipse class="p" cx="143.08038" cy="125.96872" rx="1.59659" ry="0.85499" transform="translate(-45.20963 155.75103) rotate(-50.34902)"/><path class="p" d="M144.80532,127.36088c.21385.45919-.12744,1.30472-.7623,1.88856s-1.32287.6849-1.53672.22571.51536-1.60193,1.15022-2.18577S144.59147,126.9017,144.80532,127.36088Z"/><ellipse class="p" cx="144.6799" cy="130.56094" rx="1.59659" ry="0.85499" transform="translate(-48.16654 158.64446) rotate(-50.34902)"/><ellipse class="p" cx="145.72123" cy="132.69205" rx="1.59659" ry="0.85499" transform="translate(-49.43053 160.21745) rotate(-50.34902)"/><ellipse class="p" cx="146.68181" cy="134.44243" rx="1.59659" ry="0.85499" transform="translate(-50.4306 161.59049) rotate(-50.34902)"/><path class="q" d="M140.41822,99.74205l.47942-8.533.93758.104c.26259.05044.48847.43844.483.82964l-.87317,6.83769Z"/><path d="M140.17371,100.55758c.025.029.04928.05824.07312.08817l-.11727-.15179a1.5945,1.5945,0,0,1,.204.34326l-.0756-.17916a1.20735,1.20735,0,0,1,.0741.273l-.02679-.19938a1.12708,1.12708,0,0,1,.00118.25929l.02679-.19938a1.26954,1.26954,0,0,1-.08551.31386l.0756-.17916a1.83468,1.83468,0,0,1-.2299.38484l.11728-.15179a8.2888,8.2888,0,0,1-.71859.70276.75.75,0,1,0,1.06066,1.06066c.11952-.1205.25752-.22278.38157-.33869a3.35054,3.35054,0,0,0,.58146-.70056,1.94132,1.94132,0,0,0,.29687-1.07253,2.1616,2.1616,0,0,0-.57831-1.314.75381.75381,0,0,0-1.06066,0,.76888.76888,0,0,0,0,1.06066Z"/><path d="M140.58128,102.94079c.025.029.04927.05823.07312.08817l-.11727-.15179a1.59508,1.59508,0,0,1,.204.34325l-.07561-.17915a1.20715,1.20715,0,0,1,.07411.273l-.02679-.19938a1.12708,1.12708,0,0,1,.00118.25929l.02679-.19938a1.26933,1.26933,0,0,1-.08552.31386l.07561-.17916a1.83518,1.83518,0,0,1-.2299.38485l.11727-.15179a8.29025,8.29025,0,0,1-.71859.70276.75.75,0,1,0,1.06066,1.06066c.11953-.1205.25753-.22279.38158-.3387a3.34992,3.34992,0,0,0,.58145-.70056,1.94113,1.94113,0,0,0,.29687-1.07253,2.16156,2.16156,0,0,0-.5783-1.314.7538.7538,0,0,0-1.06066,0,.76888.76888,0,0,0,0,1.06066Z"/><path d="M140.80745,105.77784c.03848.04193.07518.08493.11022.12977l-.11727-.15179a1.37006,1.37006,0,0,1,.164.27855l-.07561-.17915a1.0451,1.0451,0,0,1,.06612.24354l-.02679-.19938a.9861.9861,0,0,1-.00069.23271l.02679-.19938a1.13,1.13,0,0,1-.07245.26279l.07561-.17916a1.63929,1.63929,0,0,1-.21271.3549l.11727-.1518a7.05217,7.05217,0,0,1-.76671.71693.75673.75673,0,0,0,0,1.06066.76536.76536,0,0,0,1.06066,0c.21642-.2047.4623-.36993.663-.59331a2.0077,2.0077,0,0,0,.59585-1.604,1.98257,1.98257,0,0,0-.5466-1.08251.75571.75571,0,0,0-1.06066,0,.76646.76646,0,0,0,0,1.06066Z"/><path d="M140.96227,108.767a1.41087,1.41087,0,0,1,.15815.16839l-.11727-.15179a.92628.92628,0,0,1,.10936.18426l-.07561-.17916a.72374.72374,0,0,1,.04548.16229l-.02679-.19938a.6854.6854,0,0,1-.00047.17526l.02679-.19938a.81639.81639,0,0,1-.05272.1852l.0756-.17916a1.20751,1.20751,0,0,1-.15163.25193l.11727-.15179a2.517,2.517,0,0,1-.44129.42319l.15179-.11727c-.1977.15253-.40819.2863-.60292.443a.75081.75081,0,0,0-.21967.53033.76325.76325,0,0,0,.21967.53033.75465.75465,0,0,0,.53033.21967l.19938-.02679a.7494.7494,0,0,0,.331-.19288l.01236-.00983-.15179.11727a10.27267,10.27267,0,0,0,.82965-.63626,2.22143,2.22143,0,0,0,.432-.54265,1.45388,1.45388,0,0,0,.1958-.81124,1.52261,1.52261,0,0,0-.18487-.623,1.75617,1.75617,0,0,0-.34891-.43117.7874.7874,0,0,0-.53033-.21967.76325.76325,0,0,0-.53033.21967.75.75,0,0,0,0,1.06066Z"/><path d="M140.943,111.07417a1.26955,1.26955,0,0,1,.16353.16581l-.11727-.15179a.81552.81552,0,0,1,.09981.16405l-.07561-.17916a.634.634,0,0,1,.04154.14521l-.0268-.19938a.6019.6019,0,0,1-.00065.15763l.02679-.19938a.72779.72779,0,0,1-.049.16759l.07561-.17916a1.088,1.088,0,0,1-.13081.21612l.11727-.15179a2.25692,2.25692,0,0,1-.40314.38617l.15179-.11727c-.1703.1306-.35759.237-.528.36677a.824.824,0,0,0-.34467.44822.76655.76655,0,0,0,.07561.57792.75705.75705,0,0,0,.44822.34467.72556.72556,0,0,0,.57792-.07561c.0901-.06864.1883-.127.28207-.19041a5.58977,5.58977,0,0,0,.54477-.4139,2.28316,2.28316,0,0,0,.44665-.52378,1.53959,1.53959,0,0,0,.16554-.37976,1.18943,1.18943,0,0,0,.046-.41807,1.41791,1.41791,0,0,0-.17872-.605,1.60784,1.60784,0,0,0-.34786-.41631.79928.79928,0,0,0-.53033-.21967.76325.76325,0,0,0-.53033.21967.75467.75467,0,0,0-.21967.53033.74136.74136,0,0,0,.21967.53033Z"/><path d="M141.10616,113.21667a1.37157,1.37157,0,0,1,.15524.16094l-.11728-.15179a.89191.89191,0,0,1,.108.1765l-.07561-.17916a.67638.67638,0,0,1,.048.17288l-.02679-.19938a.66031.66031,0,0,1-.0014.15153l.02679-.19938a.77373.77373,0,0,1-.0501.17865l.0756-.17916a1.15518,1.15518,0,0,1-.14682.24391l.11727-.15179a2.40934,2.40934,0,0,1-.41918.402l.15179-.11728c-.20863.161-.43163.30062-.63887.46373a.74915.74915,0,0,0-.21967.53033.76325.76325,0,0,0,.21967.53033.75463.75463,0,0,0,.53033.21967l.19938-.02679a.74925.74925,0,0,0,.331-.19288l.00593-.00466-.1518.11727c.27388-.21067.5696-.38666.82659-.62111a2.26615,2.26615,0,0,0,.43906-.534,1.42182,1.42182,0,0,0,.20448-.81029,1.46975,1.46975,0,0,0-.181-.61285,1.68459,1.68459,0,0,0-.34987-.4278.79187.79187,0,0,0-.53033-.21967.76325.76325,0,0,0-.53033.21967.75.75,0,0,0,0,1.06066Z"/><path d="M141.35547,115.92915a1.13076,1.13076,0,0,1,.18122.18115l-.11728-.1518a.731.731,0,0,1,.08025.13488l-.0756-.17916a.57156.57156,0,0,1,.038.13321l-.02679-.19938a.55075.55075,0,0,1,.00066.13079l.02679-.19938a.65115.65115,0,0,1-.04275.15548l.07561-.17916a.98119.98119,0,0,1-.12017.20194l.11727-.15179a2.05636,2.05636,0,0,1-.36962.35608l.15179-.11728c-.189.14541-.39836.25932-.59025.39975a.81443.81443,0,0,0-.34467.44823.7665.7665,0,0,0,.0756.57792.757.757,0,0,0,.44823.34467.73289.73289,0,0,0,.57792-.07561c.09072-.0664.189-.12275.2832-.18406a5.7335,5.7335,0,0,0,.54694-.40371,1.62018,1.62018,0,0,0,.66528-1.28921,1.33376,1.33376,0,0,0-.17683-.59369,1.5323,1.5323,0,0,0-.34413-.40053.80969.80969,0,0,0-.53033-.21967.76325.76325,0,0,0-.53033.21967.75465.75465,0,0,0-.21967.53033.73077.73077,0,0,0,.21967.53033Z"/><path d="M141.56075,118.03488a1.91491,1.91491,0,0,1,.12626.14638l-.11727-.15179a1.27835,1.27835,0,0,1,.14169.23859l-.07561-.17916a.97269.97269,0,0,1,.06549.23057l-.02679-.19938a.9132.9132,0,0,1,.00049.221l.0268-.19938a1.05437,1.05437,0,0,1-.06939.25054l.07561-.17916a1.53906,1.53906,0,0,1-.193.32265l.11727-.1518a2.99879,2.99879,0,0,1-.45593.45611c-.113.09369-.23553.17764-.34393.27668a.75555.75555,0,0,0,0,1.06066.76661.76661,0,0,0,1.06066,0c.21885-.2.4659-.3607.66935-.57953a1.94368,1.94368,0,0,0,.61209-1.47781,1.84408,1.84408,0,0,0-.18977-.65623,2.06746,2.06746,0,0,0-.36334-.48964.75691.75691,0,0,0-1.06066,0,.76519.76519,0,0,0,0,1.06066Z"/><path d="M142.22046,121.17665a1.52245,1.52245,0,0,1,.14751.15949l-.11727-.1518a1.0094,1.0094,0,0,1,.11817.196l-.0756-.17916a.76735.76735,0,0,1,.05308.1911l-.02679-.19938a.74247.74247,0,0,1-.00036.16673l.02679-.19938a.85913.85913,0,0,1-.05957.21283l.07561-.17916a1.28882,1.28882,0,0,1-.15935.26339l.11727-.15179a2.70753,2.70753,0,0,1-.48216.45954l.15179-.11727c-.17859.137-.36742.26-.54092.4037a.75319.75319,0,0,0-.21967.53033.76321.76321,0,0,0,.21967.53033.75461.75461,0,0,0,.53033.21967.85108.85108,0,0,0,.53033-.21967l.02675-.02141-.15179.11727a8.10135,8.10135,0,0,0,.83013-.65541,1.75917,1.75917,0,0,0,.59175-1.45939,1.64717,1.64717,0,0,0-.525-.97725.78191.78191,0,0,0-.53033-.21967.75.75,0,0,0-.53033,1.28033Z"/><path d="M142.46623,123.4166a1.55721,1.55721,0,0,1,.14914.164l-.11727-.15179a1.03707,1.03707,0,0,1,.1192.20134l-.07561-.17916a.793.793,0,0,1,.05318.196l-.02679-.19938a.76892.76892,0,0,1-.00089.17076l.0268-.19938a.8885.8885,0,0,1-.06092.21763l.07561-.17916a1.32239,1.32239,0,0,1-.16172.26871l.11728-.15179a2.78326,2.78326,0,0,1-.50009.4776l.15179-.11727c-.17032.13084-.35048.24938-.515.38776a.75451.75451,0,0,0-.21967.53033.76321.76321,0,0,0,.21967.53033.75469.75469,0,0,0,.53033.21967.84455.84455,0,0,0,.53033-.21967l.03459-.02783-.15179.11727a7.47331,7.47331,0,0,0,.82679-.66231,2.17967,2.17967,0,0,0,.41689-.5607,1.65524,1.65524,0,0,0,.14656-.3947,1.61513,1.61513,0,0,0,.00664-.60663,1.6539,1.6539,0,0,0-.5144-.89234.75.75,0,1,0-1.06066,1.06066Z"/><path d="M143.05738,126.23183a1.28178,1.28178,0,0,1,.16484.16885l-.11728-.15179a.82566.82566,0,0,1,.10025.16692l-.07561-.17916a.64371.64371,0,0,1,.04131.14763l-.02679-.19938a.61971.61971,0,0,1,.00074.14431l.02679-.19938a.72415.72415,0,0,1-.04608.17069l.0756-.17916a1.085,1.085,0,0,1-.13949.23412l.11727-.15179a2.2935,2.2935,0,0,1-.40717.39l.1518-.11727c-.16725.1284-.351.2336-.518.36177a.83906.83906,0,0,0-.34467.44823.7665.7665,0,0,0,.0756.57792.757.757,0,0,0,.44823.34467.72422.72422,0,0,0,.57792-.07561c.0908-.06971.18991-.129.28442-.19342a5.56963,5.56963,0,0,0,.54039-.41291,2.2782,2.2782,0,0,0,.4483-.52924,1.39932,1.39932,0,0,0,.21028-.79671,1.50205,1.50205,0,0,0-.528-1.02994.79741.79741,0,0,0-.53033-.21967.76325.76325,0,0,0-.53033.21967.75463.75463,0,0,0-.21967.53033.74345.74345,0,0,0,.21967.53033Z"/><path d="M143.5213,128.44118a1.55869,1.55869,0,0,1,.15018.16576l-.11727-.15179a1.03825,1.03825,0,0,1,.11953.20339l-.07561-.17916a.81184.81184,0,0,1,.0501.1784l-.02679-.19938a.76247.76247,0,0,1,.00056.19182l.02679-.19938a.89478.89478,0,0,1-.05541.20167l.0756-.17916a1.31484,1.31484,0,0,1-.17237.28839l.11727-.15179a2.80127,2.80127,0,0,1-.49021.46791l.15179-.11728c-.17132.13212-.35294.25148-.5185.391a.7547.7547,0,0,0-.21967.53033.76325.76325,0,0,0,.21967.53033.75471.75471,0,0,0,.53033.21967.84363.84363,0,0,0,.53033-.21967l.03489-.02812-.15179.11728a7.47541,7.47541,0,0,0,.82521-.662,1.78772,1.78772,0,0,0,.58212-1.48075,1.67878,1.67878,0,0,0-.52609-.97819.75.75,0,1,0-1.06066,1.06066Z"/><path d="M144.3894,130.78312a1.41219,1.41219,0,0,1,.15818.16851l-.11728-.15179a.92718.92718,0,0,1,.10939.18439l-.07561-.17916a.72486.72486,0,0,1,.04551.1624l-.02679-.19938a.6858.6858,0,0,1-.00046.17537l.02679-.19938a.81656.81656,0,0,1-.05269.18531l.07561-.17916a1.209,1.209,0,0,1-.15161.25208l.11727-.1518a2.51678,2.51678,0,0,1-.44124.4234l.15179-.11727c-.19768.1526-.40819.28638-.60289.4431a.75083.75083,0,0,0-.21967.53033.76321.76321,0,0,0,.21967.53033.75461.75461,0,0,0,.53033.21967l.19938-.02679a.74921.74921,0,0,0,.331-.19288l.01236-.00983-.15179.11727a10.27072,10.27072,0,0,0,.8296-.6365,2.22217,2.22217,0,0,0,.432-.54285,1.45476,1.45476,0,0,0,.19575-.8115,1.52387,1.52387,0,0,0-.18491-.62316,1.7573,1.7573,0,0,0-.349-.43137.78726.78726,0,0,0-.53033-.21967.76321.76321,0,0,0-.53033.21967.75.75,0,0,0,0,1.06066Z"/><path d="M145.36507,132.85554a1.53594,1.53594,0,0,1,.14776.16069l-.11727-.15179a1.01994,1.01994,0,0,1,.11846.19741l-.0756-.17916a.77756.77756,0,0,1,.05335.19238l-.02679-.19938a.75173.75173,0,0,1-.00014.16777l.02679-.19938a.86724.86724,0,0,1-.0593.2141l.07561-.17916a1.29494,1.29494,0,0,1-.159.26484l.11727-.15179a2.70572,2.70572,0,0,1-.48169.46179l.15179-.11727c-.17833.1375-.36746.26072-.54065.405a.75368.75368,0,0,0-.21967.53033.76325.76325,0,0,0,.21967.53033.75461.75461,0,0,0,.53033.21967.84866.84866,0,0,0,.53033-.21967l.02673-.02151-.15179.11727a8.08364,8.08364,0,0,0,.82961-.6579,1.768,1.768,0,0,0,.59076-1.4641,1.65959,1.65959,0,0,0-.52585-.98112.75.75,0,0,0-1.06066,1.06066Z"/><path d="M146.20169,134.465a1.874,1.874,0,0,1,.12388.141l-.11727-.1518a1.21187,1.21187,0,0,1,.14957.25282l-.0756-.17916a.94583.94583,0,0,1,.05609.20023l-.02679-.19938a.87946.87946,0,0,1,.00251.2141l.02679-.19938a1.01145,1.01145,0,0,1-.0655.2433l.0756-.17916a1.479,1.479,0,0,1-.18645.3146l.11727-.15179a3.38039,3.38039,0,0,1-.6178.58342l.15179-.11727c-.11713.09037-.23983.17542-.35.2744a.755.755,0,0,0,0,1.06066.76724.76724,0,0,0,1.06066,0c.03632-.03265.0752-.06236.11382-.09219l-.15179.11727a3.91973,3.91973,0,0,0,1.08644-1.08856,1.66411,1.66411,0,0,0,.2407-.9467,1.86307,1.86307,0,0,0-.55329-1.15709.75.75,0,0,0-1.06066,1.06066Z"/><polygon class="e" points="141.744 166.267 141.744 170.597 143.295 174.356 143.823 174.356 142.461 169.235 142.334 166 141.744 166.267"/><path class="r" d="M119.89111,108.18714l-.459.04834.13672-.64331.17187-.01806a.965.965,0,0,0,.39356-.11146.53782.53782,0,0,0,.21-.23071.87422.87422,0,0,0,.07519-.36181c.00293-.1438.001-.36353-.00293-.65955l-.00586-.04883a.49968.49968,0,0,0-.07031-.22681.29714.29714,0,0,0-.14453-.12243.64357.64357,0,0,0-.29492-.01685l-1.22949.12915-.18457-1.75732.78418-.0824.11914,1.135.55468-.05835a1.28037,1.28037,0,0,1,.874.15125.92982.92982,0,0,1,.35644.70727l.00977.13916.01074.66712a1.32954,1.32954,0,0,1-.31152.95788A1.55157,1.55157,0,0,1,119.89111,108.18714Z"/><path class="r" d="M122.48486,104.30763l-.15527,1.1073-.668.07019.3457-1.12745Zm1.01075-.10633-.16211,1.108-.66114.06946.34961-1.12768Z"/><path class="r" d="M127.231,107.41578l-.78516.0824-.17383-1.65479a.80213.80213,0,0,0-.22656-.51794.69443.69443,0,0,0-.57715-.14221,3.839,3.839,0,0,0-.44629.07531q-.23583.05292-.77734.21546l-.00293-.64344a5.94689,5.94689,0,0,1,1.3291-.30188,1.21851,1.21851,0,0,1,1.4834,1.20276Zm-1.917.20154-.78808.08276-.17969-1.71094.748-.46411Z"/><path class="r" d="M127.771,106.71546l1.48828-.15637-1.73438-1.90649.67969-.4303,1.10937,1.22253a.92034.92034,0,0,0,.09864-.29162,1.56529,1.56529,0,0,0-.00293-.40625l-.05957-.57373.77246-.08118.0664.63208a1.30032,1.30032,0,0,1-.06835.60278,1.8513,1.8513,0,0,1-.41016.59473l.5459.62341-.06836.55982-2.4961.26245Z"/><polygon class="a" points="152.62 83.613 151.379 81.144 150.536 77.472 148.431 74.36 149.786 73.868 152.287 75.005 153.88 77.964 154.413 71.033 154.124 65.286 154.935 63.954 156.274 64.416 156.869 70.505 157.147 75.319 156.98 64.41 157.745 62.837 158.751 62.58 159.534 64.964 159.946 74.355 159.996 65.036 160.292 62.697 161.713 62.511 162.319 65.114 162.969 74.091 163.411 65.54 164.73 65.165 166.258 70.194 167.082 78.864 152.62 83.613"/><polygon class="b" points="157.256 88.775 159.25 96.774 158.049 100.604 163.707 123.3 172.703 134.123 181.889 130.061 183.13 127.312 183.497 124.294 173.674 95.181 169.528 93.01 167.816 86.142 159.853 89.548 157.256 88.775"/><polyline class="s" points="59.335 131.947 62.509 129.005 68.439 106.771"/><polyline class="s" points="171.932 133.998 164.095 124.568 158.341 101.488"/><polyline class="s" points="56.294 96.661 62.193 100.025 66.023 100.328"/><path class="s" d="M73.59685,78.81288s-4.25374,1.893-4.1398,3.82055"/><path class="s" d="M153.6014,75.56409s3.8721-.50389,4.73984,2.22505"/></svg>