<svg xmlns="http://www.w3.org/2000/svg" xmlns:xlink="http://www.w3.org/1999/xlink" viewBox="0 0 222.66748 222.66739"><defs><style>.a{fill:#cab192;}.b{fill:#747c58;}.c{fill:#ededed;}.d{fill:#cecece;}.e{fill:#c9b092;}.f,.i,.j,.p,.r,.s,.u{fill:none;}.f,.i,.j,.u{stroke:#000;}.f,.i,.j,.q,.r,.s,.u{stroke-linecap:round;}.f,.i,.j,.s,.u{stroke-miterlimit:10;}.f{stroke-width:0.5px;}.g{fill:#27421d;}.h{fill:#54593e;}.i{stroke-width:1.38334px;}.j{stroke-width:1.10591px;}.k{fill:#080808;}.l{clip-path:url(#a);}.m{fill:#271d1d;}.n{clip-path:url(#b);}.o{fill:#707171;}.q{fill:#284220;}.q,.r,.s{stroke:#27421d;stroke-width:2px;}.q,.r{stroke-linejoin:round;}.t{fill:#525222;}</style><clipPath id="a"><polygon class="a" points="147.324 81.739 145.087 71.466 146.235 69.464 150.011 66.591 151.607 59.454 147.839 57.346 142.306 43.632 130.074 41.279 119.412 46.732 119.419 61.665 117.797 63.798 120.336 70.674 121.589 71.452 122.242 75.412 125.807 78.7 127.26 86.987 123.8 93.207 130.623 107.844 140.609 110.538 150.913 95.182 155.536 85.286 147.324 81.739"/></clipPath><clipPath id="b"><polygon class="b" points="165.534 158.474 158.98 161.102 142.172 159.831 121.506 158.225 120.498 156.662 121.506 153.234 111.498 118.123 104.272 106.574 107.514 95.652 122.429 88.402 126.954 83.516 127.246 86.423 126.924 91.474 134.926 105.075 147.527 87.938 147.392 79.759 151.803 83.569 168.648 90.696 169.912 114.246 167.863 121.518 165.534 158.474"/></clipPath></defs><circle class="c" cx="111.3335" cy="111.33368" r="108.83386"/><path class="d" d="M111.3335,5c58.48339,0,106.334,47.85008,106.334,106.33358v.00023c0,58.48346-47.85059,106.33358-106.334,106.33358S5,169.81727,5,111.33381v-.00023C5,52.85008,52.8501,5,111.3335,5m0-5A111.20485,111.20485,0,0,0,32.7002,189.96739,111.20489,111.20489,0,1,0,189.96729,32.7,110.54262,110.54262,0,0,0,111.3335,0Z"/><path class="e" d="M30.48075,141.06708c.43584-2.69734,4.717-3.318,4.717-3.318l3.42151-2.70477,3.69748-.981,3.01976-1.7768c8.46337,4.95168,5.30519,7.02633,5.30519,7.02633l-2.52278,1.22305-1.21934.74355.38132,2.45306-.3325,3.67842s-.42271,1.436-1.12041,1.657-3.97352,3.80222-3.97352,3.80222-2.20022,4.45433-4.64874,2.03139a13.0213,13.0213,0,0,0-5.0512-3.15612s-4.32371-2.91744-4.37957-3.68794S30.48075,141.06708,30.48075,141.06708Z"/><path class="f" d="M37.12427,152.87548s-2.26863,2.36922-3.46974-.61424l.47512-1.96712"/><path class="f" d="M31.13624,148.44348s-2.26862,2.36922-3.46974-.61424l.47512-1.96713"/><path class="f" d="M33.7563,150.77364s-2.26862,2.36923-3.46973-.61424l.47512-1.96712"/><path class="e" d="M37.12427,149.505l-1.19009,12.78873,1.74818,3.642s2.03954-1.6025,2.11238-2.03954,1.73528-14.722,1.73528-14.722l4.529-1.77111,1.02932-5.80366Z"/><path class="g" d="M168.53385,131.07177a35.10428,35.10428,0,0,0-5.3494-21.45891c-.4757-.74963-1.67334-.05643-1.19447.6982a33.853,33.853,0,0,1,5.16053,20.76071c-.06874.88776,1.31494.88331,1.38334,0Z"/><polygon class="b" points="168.198 158.105 181.518 142.729 183.784 138.339 174.404 135.951 165.762 140.11 151.136 158.955 151.142 161.288 162.37 161.356 162.938 160.751 168.198 158.105"/><polygon class="b" points="169.551 90.267 183.784 138.339 178.741 144.108 172.655 143.082 154.585 116.141 156.1 99.416 159.305 91.914 165.259 88.316 169.551 90.267"/><polygon class="h" points="164.398 142.046 164.618 143.809 166.444 140.796 168.039 140.212 170.293 142.502 170.536 140.052 172.957 140.823 171.433 138.498 173.09 137.58 169.302 136.96 167.24 132.576 162.13 125.028 162.648 128.162 165.889 134.104 167.812 137.147 168.713 138.533 165.741 140.033 164.398 142.046"/><path class="i" d="M169.48631,138.43645s2.69932,3.46112,6.09463,2.34122"/><path class="j" d="M169.28662,138.76624s.33231,4.02037,2.67779,3.98126"/><path class="j" d="M169.57869,137.8239s3.955.795,4.56747-1.46941"/><polygon class="b" points="130.285 105.723 126.46 109.327 120.138 115.601 72.304 114.627 65.828 109.971 67.221 102.435 109.326 91.378 127.359 99.545 130.285 105.723"/><path d="M164.89307,129.72013c-1.55434-3.63907-5.05418-5.64309-8.82575-6.29883a.86758.86758,0,0,0-1.03715.58888.8502.8502,0,0,0,.58887,1.03715,12.33589,12.33589,0,0,1,4.765,1.767,8.385,8.385,0,0,1,3.053,3.75686.84831.84831,0,0,0,1.15356.30248.86543.86543,0,0,0,.30247-1.15356Z"/><path class="k" d="M160.28463,126.67061l-3.629,3.88688a.84313.84313,0,0,0,1.19236,1.19236l3.629-3.88688a.84313.84313,0,0,0-1.19236-1.19236Z"/><path class="k" d="M164.70063,129.72013a3.57512,3.57512,0,0,0-1.441-1.35338,4.72192,4.72192,0,0,0-1.76972-.402,7.25312,7.25312,0,0,0-1.72051.14122,2.6654,2.6654,0,0,0-1.5084.73213.84313.84313,0,0,0,1.19236,1.19237.79479.79479,0,0,1,.08918-.09248c.00692.00617-.19555.12224-.04035.03454.03625-.02049.07108-.0434.10793-.063.15759-.08383.003-.0294-.00542-.00443.03017-.08976.55323-.16184.64451-.17935.05317-.0102.1066-.01887.16-.028.10285-.01757.11265-.01376.00315-.00193.11908-.01287.23793-.02556.35745-.03374a6.51424,6.51424,0,0,1,.66576-.01316c.09395.00319.18733.01013.281.01749.03106.00244.16535.02678.033.00277-.14814-.02688.04666.00926.07763.01468a4.33745,4.33745,0,0,1,.6713.17745c-.09332-.03218-.106-.05143-.00818.00015.04461.02351.08966.046.13327.0714.05321.031.10377.06547.15509.09936.16717.1104-.11923-.11795.02929.02606.0824.07991.16546.15686.24121.24349.01055.01207.151.19753.05623.06562.04807.06688.0941.135.13928.20383a.84326.84326,0,1,0,1.456-.85108Z"/><path class="k" d="M163.17465,127.87488a1.37014,1.37014,0,0,0-.51324-.20582,3.90559,3.90559,0,0,0-.62788-.06723,8.69759,8.69759,0,0,1-.91007-.0299l.22414.03012a1.197,1.197,0,0,1-.27412-.06929l.20141.085a.66679.66679,0,0,1-.1175-.06473l-.85109,1.456a1.61982,1.61982,0,0,0,1.34471.33413.836.836,0,0,0,.54638-.48818.635.635,0,0,0,.07261-.32484.83917.83917,0,0,0-.11511-.42554l-.48351-1.06435-1.3242,1.02173,1.12121,1.04726a.88117.88117,0,0,0,.59618.24694.858.858,0,0,0,.59618-.24694.84836.84836,0,0,0,.24695-.59619.85708.85708,0,0,0-.24695-.59618l-1.12121-1.04726a.84872.84872,0,0,0-1.107-.06592.80442.80442,0,0,0-.30215.438l-.03012.22413a.8392.8392,0,0,0,.11511.42555l.48351,1.06435.50388-1.23856a.31718.31718,0,0,1-.05522.014l.22414-.03012a.48719.48719,0,0,1-.11341-.00005l.22414.03012a.75441.75441,0,0,1-.14431-.04143l.2014.085a2.81173,2.81173,0,0,1-.38208-.22165.84333.84333,0,0,0-1.23855.95215.947.947,0,0,0,.38746.50388,1.37021,1.37021,0,0,0,.51324.20582,3.90571,3.90571,0,0,0,.62789.06723,8.69748,8.69748,0,0,1,.91006.0299l-.22414-.03012a1.197,1.197,0,0,1,.27412.06929l-.2014-.085a.66635.66635,0,0,1,.11749.06473.84334.84334,0,0,0,1.23856-.95215.9471.9471,0,0,0-.38747-.50388Z"/><polygon class="b" points="48.284 141.487 54.745 136.026 58.814 135.397 77.145 119.904 83.034 106.718 75.132 100.102 72.039 100.205 69.094 101.235 46.742 123.469 46.622 128.27 41.076 132.958 47.819 138.746 48.284 141.487"/><path d="M83.1407,114.76337a19.66447,19.66447,0,0,0,1.30492-5.14865.50292.50292,0,0,0-.5-.5.512.512,0,0,0-.5.5,18.74719,18.74719,0,0,1-1.2692,4.88281.50323.50323,0,0,0,.34922.61506.51237.51237,0,0,0,.61506-.34922Z"/><polygon class="a" points="147.324 81.739 145.087 71.466 146.235 69.464 150.011 66.591 151.607 59.454 147.839 57.346 142.306 43.632 130.074 41.279 119.412 46.732 119.419 61.665 117.797 63.798 120.336 70.674 121.589 71.452 122.242 75.412 125.807 78.7 127.26 86.987 123.8 93.207 130.623 107.844 140.609 110.538 150.913 95.182 155.536 85.286 147.324 81.739"/><g class="l"><polygon class="m" points="144.955 63.073 151.344 49.922 107.564 9.655 119.782 63.371 120.407 48.184 128.25 48.697 136.216 46.137 137.323 49.261 141.762 51.423 144.955 63.073"/></g><polygon points="137.997 53.693 137.706 51.779 132.541 51.772 131.701 53.275 137.997 53.693"/><polygon points="125.639 54.762 125.041 52.87 120.865 54.846 120.436 56.408 125.639 54.762"/><path d="M135.44459,68.18857a11.39364,11.39364,0,0,1-6.71093,2.17618.801.801,0,0,0,0,1.6011,12.856,12.856,0,0,0,7.519-2.39477.82354.82354,0,0,0,.28719-1.09531.80687.80687,0,0,0-1.0953-.2872Z"/><path d="M142.196,74.86621,135.86851,80.323l-5.57641,1.64025-4.48517-3.26335,4.18159,6.99692a3.95018,3.95018,0,0,0,2.07692,1.71819l0,0a3.95035,3.95035,0,0,0,1.92253.18515l.19311-.02938A3.95028,3.95028,0,0,0,136.557,86.27l1.25975-1.43649a3.95018,3.95018,0,0,0,.73823-1.243l2.33583-6.36184Z"/><path d="M141.429,75.041c-1.1241,1.25642-2.311,2.45836-3.464,3.68817-.23681.25261-.47462.50457-.70551.76264a.54964.54964,0,0,0,0,.76.5427.5427,0,0,0,.76,0c1.12409-1.25643,2.311-2.45836,3.464-3.68818.23681-.2526.47462-.50457.70551-.76263a.54964.54964,0,0,0,0-.76.54269.54269,0,0,0-.76,0Z"/><path d="M123.54092,56.83059c.06254.11155.11924.22532.17391.34085.0698.1475-.06055-.15839.01448.03558q.03451.08923.06514.1799a5.40662,5.40662,0,0,1,.17574.71617q.01426.09259-.00922-.07747.00688.05425.01242.10868.00825.08161.01357.1635.01241.19095.0079.38257c-.003.12781-.01378.25449-.02575.38171-.01788.18993.03458-.18358-.0014.00378-.01376.07165-.026.14341-.04121.21482l1.338-.35326c-.10741-.08818-.18928-.19713-.29087-.28907.02034.01841.10359.14353.0436.0547-.021-.031-.04237-.0616-.06244-.09324q-.05425-.0855-.10086-.17555-.02079-.04015-.04016-.081c-.01324-.0279-.0704-.15522-.01453-.02931.0524.11813.00822.01556-.00151-.01084q-.01992-.054-.03791-.10877a3.88639,3.88639,0,0,1-.108-.40678q-.01964-.09292-.03555-.18659c-.00672-.03921-.012-.07872-.01883-.11789-.0182-.10405.02093.17559.009.07043-.01621-.14316-.03144-.28615-.042-.42986-.01041-.142-.01791-.28421-.02408-.42646-.00156-.03591.00029-.074-.00386-.10953-.01211-.10374-.014.06682-.01944.09169.02282-.10514-.0351.06785-.04276.08371q-.98623.52717-1.20915-.08652a.581.581,0,0,1-.03513-.436l.20588-.35325.13235-.10349.40406-.1093-.02418.00126a.80055.80055,0,1,0,0,1.6011.869.869,0,0,0,.82247-1.12191.91782.91782,0,0,0-1.31083-.55827c-.62393.34722-.5375,1.09346-.48278,1.69422a3.89975,3.89975,0,0,0,1.15531,2.76868.83362.83362,0,0,0,.7789.20588.79468.79468,0,0,0,.55913-.55914,5.274,5.274,0,0,0-.547-3.68383.80068.80068,0,0,0-1.38251.80811Z"/><path d="M134.50792,55.1623c.06253.11156.11923.22533.1739.34085.06981.1475-.06054-.15839.01449.03558q.03451.08923.06514.17991a5.4045,5.4045,0,0,1,.17573.71616q.01426.09259-.00921-.07747.00689.05427.01242.10868.00825.08162.01357.1635.01239.191.00789.38258c-.003.1278-.01377.25449-.02575.3817-.01788.18993.03459-.18358-.00139.00378-.01376.07166-.026.14341-.04121.21482l1.338-.35326c-.10741-.08818-.18929-.19712-.29087-.28907.02034.01841.10359.14354.0436.05471-.021-.031-.04237-.06161-.06245-.09324q-.05426-.08552-.10085-.17556-.02079-.04015-.04016-.081c-.01324-.02789-.0704-.15522-.01454-.02931.05241.11813.00823.01556-.00151-.01084q-.01992-.054-.03791-.10877a3.89133,3.89133,0,0,1-.108-.40678q-.01962-.09291-.03555-.18659c-.00672-.03921-.012-.07871-.01882-.11789-.0182-.104.02093.1756.009.07043-.01621-.14315-.03143-.28615-.042-.42986-.01041-.142-.01792-.2842-.02409-.42645-.00155-.03591.0003-.074-.00385-.10954-.01211-.10373-.014.06683-.01944.09169.02281-.10513-.0351.06786-.04276.08371q-.98623.52717-1.20915-.08652a.581.581,0,0,1-.03513-.436l.20587-.35326.13236-.10349.40405-.1093-.02417.00126a.80055.80055,0,0,0,0,1.6011.869.869,0,0,0,.82246-1.12191.91781.91781,0,0,0-1.31082-.55827c-.62394.34722-.5375,1.09346-.48279,1.69422a3.89976,3.89976,0,0,0,1.15532,2.76868.83358.83358,0,0,0,.77889.20588.7947.7947,0,0,0,.55914-.55914,5.27393,5.27393,0,0,0-.547-3.68382.80068.80068,0,1,0-1.3825.8081Z"/><path d="M148.59844,61.76586l-1.80837,1.29357a.864.864,0,0,0-.3679.47843.81818.81818,0,0,0,.0807.61687.808.808,0,0,0,.47844.3679.78689.78689,0,0,0,.61687-.0807l1.80836-1.29357a.86407.86407,0,0,0,.36791-.47844.81815.81815,0,0,0-.08071-.61687.808.808,0,0,0-.47843-.3679.78693.78693,0,0,0-.61687.08071Z"/><path d="M147.23631,61.29725l-.87263,2.40592a.80092.80092,0,0,0,.55913.98477.82138.82138,0,0,0,.98477-.55913l.87264-2.40593a.80092.80092,0,0,0-.55913-.98477.82141.82141,0,0,0-.98478.55914Z"/><path d="M150.47913,59.43526a5.86494,5.86494,0,0,0-3.14044,1.66722.80055.80055,0,1,0,1.13215,1.13215c.09075-.09246.18423-.182.28157-.26754q.06867-.06034.1395-.11813c.0405-.033.14483-.10475-.03653.026.0247-.01781.04859-.0368.07311-.05486a5.12222,5.12222,0,0,1,.6583-.41148,1.44305,1.44305,0,0,1,.32965-.15815c-.05467.01117-.16528.06769-.04362.019q.04244-.017.08518-.03318.08547-.03243.17206-.06176a5.13989,5.13989,0,0,1,.77471-.1954.804.804,0,0,0,.47843-.3679.80067.80067,0,0,0-.90407-1.176Z"/><path d="M166.15592,113.42668a13.39915,13.39915,0,0,0-3.79532-3.44654,7.15594,7.15594,0,0,0-4.52582-.8288.748.748,0,0,0-.51933.91466.76378.76378,0,0,0,.91466.51933c2.92234-.39362,5.19195,1.79439,6.87426,3.8929a.74823.74823,0,0,0,1.05155,0,.76136.76136,0,0,0,0-1.05155Z"/><path class="k" d="M161.70738,110.689c-.45419,1.666-.49081,3.41456-.945,5.08061a.74374.74374,0,1,0,1.434.39533c.45419-1.666.49081-3.41457.945-5.08061a.74374.74374,0,0,0-1.434-.39533Z"/><path class="k" d="M166.15592,113.42668a4.71672,4.71672,0,0,0-3.227-1.11286,1.38909,1.38909,0,0,0-.83807.31025,1.91037,1.91037,0,0,0-.39568.4859,6.41,6.41,0,0,0-.57938,1.35776,12.03137,12.03137,0,0,0-.35344,1.30183.74374.74374,0,1,0,1.434.39533,12.03057,12.03057,0,0,1,.35344-1.30182q.06363-.1933.13478-.384c.02344-.06237.04837-.1241.07262-.18615.04913-.12575-.06716.14785.02009-.04428.04907-.10806.10153-.2148.16048-.31785.02648-.04628.05617-.09039.08346-.1361.09657-.16171-.08852.08428-.00955.00705.02885-.02822.06043-.05974.08689-.09015.07474-.08591-.17806.11091-.04049.0387q-.21315.08152-.11111.04914a.56271.56271,0,0,1,.05977-.01108q-.19914.025-.0778.0126.04269-.00357.0855-.0055a2.98534,2.98534,0,0,1,.37936.00853q.0513.00418.10246.00978.12414.01482-.03963-.00613a.87063.87063,0,0,1,.217.038,4.57233,4.57233,0,0,1,.4454.113q.11241.0346.22292.07508.05545.02032.11033.04219-.12975-.05644-.01452-.00583a4.11576,4.11576,0,0,1,.41283.21861c.06482.04034.127.08395.18924.12807-.15676-.11109.03536.035.06451.06146a.74356.74356,0,0,0,1.05155-1.05155Z"/><path class="k" d="M164.291,111.92085a1.35361,1.35361,0,0,0-.61185-.15369,2.23571,2.23571,0,0,0-.50428.06649c-.227.051-.44775.13076-.67893.1626l.19767-.02656a.9346.9346,0,0,1-.218.00431l.19767.02656a.54483.54483,0,0,1-.1284-.03331l.17762.07495-.0295-.01389-.75057,1.28407a3.10727,3.10727,0,0,0,.50967.20639,1.016,1.016,0,0,0,.82827-.11017.79237.79237,0,0,0,.34171-.44437.73582.73582,0,0,0-.075-.573l-.64584-.92582-1.01732,1.01733,1.11936.7773a.74374.74374,0,0,0,1.09228-.8397.83389.83389,0,0,0-.34171-.44438l-1.11936-.7773-.17762-.075a.56335.56335,0,0,0-.2965-.01328.7067.7067,0,0,0-.42694.2045.88486.88486,0,0,0-.19122.32811.74453.74453,0,0,0,.075.573l.64584.92582.26676-1.01732a.2883.2883,0,0,1-.05545.033l.17762-.075a.33483.33483,0,0,1-.062.01488l.19766-.02656a.46364.46364,0,0,1-.09037-.00317l.19767.02656a1.02985,1.02985,0,0,1-.21763-.069l.17762.075c-.05421-.02339-.1078-.04817-.16187-.07187a.5534.5534,0,0,0-.27645-.08824.56325.56325,0,0,0-.2965.01328.75829.75829,0,0,0-.44437.34171.75049.75049,0,0,0-.075.57295.73954.73954,0,0,0,.34171.44437,1.35356,1.35356,0,0,0,.61184.15369,2.23572,2.23572,0,0,0,.50429-.06649c.227-.05105.44775-.13076.67893-.1626l-.19767.02656a.93515.93515,0,0,1,.218-.00431l-.19767-.02656a.54544.54544,0,0,1,.1284.03331l-.17762-.075.0295.0139a.7921.7921,0,0,0,.573.075.75825.75825,0,0,0,.44437-.34171.75049.75049,0,0,0,.075-.573.73954.73954,0,0,0-.34171-.44437Z"/><path d="M134.9048,68.93745a2.141,2.141,0,0,1-.2746.81908c-.08205.14557-.17294.28605-.26831.42321-.05707.08206-.11609.16284-.176.24283.05338-.07124.01966-.02394-.01512.01871a8.72177,8.72177,0,0,1-1.24423,1.24574c-.11851.09677-.10411.08652-.26468.20223q-.18885.13611-.38445.26241a8.88392,8.88392,0,0,1-.82269.47138,7.37864,7.37864,0,0,1-1.76815.61.84334.84334,0,1,0,.44827,1.626,9.48813,9.48813,0,0,0,3.98407-1.9797,8.50059,8.50059,0,0,0,1.31877-1.34036,4.69822,4.69822,0,0,0,1.09316-2.1533.87131.87131,0,0,0-.58887-1.03715.84925.84925,0,0,0-1.03715.58887Z"/><polygon class="b" points="165.534 158.474 158.98 161.102 142.172 159.831 121.506 158.225 120.498 156.662 121.506 153.234 111.498 118.123 104.272 106.574 107.514 95.652 122.429 88.402 126.954 83.516 127.246 86.423 126.924 91.474 134.926 105.075 147.527 87.938 147.392 79.759 151.803 83.569 168.648 90.696 169.912 114.246 167.863 121.518 165.534 158.474"/><g class="n"><polygon class="h" points="164.164 111.307 169.493 115.161 167.863 120.947 166.233 143.628 157.112 125.435 164.164 111.307"/></g><path d="M120.31349,100.81423a5.94008,5.94008,0,0,1,2.55317-3.31112,12.21049,12.21049,0,0,1,3.38458-1.14374l-.95215-.38747a13.20882,13.20882,0,0,1,1.15447,3.519c.13811.83039,1.02628,1.37952,1.62773,1.89194,1.03166.87894,2.07725,1.7416,3.09735,2.63406.45042.394.90025.79117,1.3257,1.21234.1421.14067.283.28323.41387.43457.137.15843-.00815.04524.05391.06784a.84561.84561,0,0,1,.045.07609q-.26227-.48429.286-.97231c-.88935.61008-.04692,2.07206.85109,1.456.91-.62425.26913-1.50849-.29151-2.08754-.71342-.73684-1.50762-1.4-2.2866-2.06541-.86715-.7407-1.74628-1.46736-2.61044-2.21155-.27985-.241-.55783-.484-.826-.738a1.39782,1.39782,0,0,0-.11854-.11882c-.10992-.08046-.00035-.07525-.02365-.018.00733-.018.10282.41094.14028.27417a1.51655,1.51655,0,0,0-.06495-.53567,14.52971,14.52971,0,0,0-1.31771-3.6699.85646.85646,0,0,0-.95215-.38746,12.4597,12.4597,0,0,0-4.085,1.48777,7.95046,7.95046,0,0,0-3.03049,4.14484c-.37789,1.01884,1.25131,1.45856,1.626.44827Z"/><path d="M126.77556,97.711a19.71135,19.71135,0,0,0-3.77731.44513,24.14064,24.14064,0,0,0-3.51467,1.142.86869.86869,0,0,0-.58887,1.03715.84912.84912,0,0,0,1.03715.58887,24.50567,24.50567,0,0,1,3.40943-1.11785,17.19683,17.19683,0,0,1,3.43427-.40909c1.08276-.03145,1.08727-1.71784,0-1.68625Z"/><path d="M124.01048,86.25889c-2.37587,2.10083-3.58918,5.31524-4.35245,8.31442a31.36849,31.36849,0,0,0-.92363,5.46746c-.07713,1.08286,1.60947,1.078,1.68626,0a28.314,28.314,0,0,1,.82725-4.87568c.69349-2.78109,1.75012-5.76427,3.95493-7.71384.81459-.72028-.38168-1.9092-1.19236-1.19236Z"/><path class="k" d="M106.62045,112.52218A12.50222,12.50222,0,0,1,111.2,121.70127c.02813.95038,1.50844.95439,1.4802,0a13.94474,13.94474,0,0,0-5.01308-10.22575c-.7245-.60952-1.77681.43239-1.04666,1.04666Z"/><path d="M159.75284,107.86491q-9.5169,1.3178-19.09626,2.07407c-1.07475.08427-1.08384,1.77124,0,1.68626q9.80471-.76878,19.54453-2.13431c1.07024-.14819.61472-1.77321-.44827-1.626Z"/><path d="M139.93181,110.638a10.00453,10.00453,0,0,0-.873,3.25257,29.66432,29.66432,0,0,1-.416,3.04885.86135.86135,0,0,0,.58887,1.03715.85256.85256,0,0,0,1.03715-.58888c.45035-1.95713.22589-4.07884,1.119-5.89861a.86487.86487,0,0,0-.30247-1.15356.851.851,0,0,0-1.15356.30248Z"/><path d="M139.70146,118.50374a123.50632,123.50632,0,0,0,18.32381-.49038c1.069-.10959,1.08028-1.797,0-1.68626a123.50764,123.50764,0,0,1-18.32381.49039c-1.08487-.05024-1.08233,1.63614,0,1.68625Z"/><path d="M159.3323,109.00848a19.66907,19.66907,0,0,1-.10966,7.513.86349.86349,0,0,0,.58888,1.03714.85162.85162,0,0,0,1.03715-.58887,21.87622,21.87622,0,0,0,.10965-8.40954.85055.85055,0,0,0-1.03714-.58888.86173.86173,0,0,0-.58888,1.03715Z"/><path d="M159.895,116.043l-1.89078.40375a.84326.84326,0,0,0-.2014,1.541.92173.92173,0,0,0,.64968.085l1.89077-.40374a.84326.84326,0,0,0,.20141-1.541.92174.92174,0,0,0-.64968-.085Z"/><path class="k" d="M134.313,158.45433a13.47078,13.47078,0,0,1,.89042-4.18282,23.15441,23.15441,0,0,0,1.08661-5.17331c.23485-2.8828.22678-5.79937.24834-8.68966.05272-7.06519-.07944-14.13136-.21567-21.19494-.06384-3.30972-.13642-6.61935-.18258-9.92938a.84364.84364,0,0,0-1.68626,0c.17931,12.85874.84668,25.77858.21922,38.63242a22.79647,22.79647,0,0,1-1.09569,5.9066,14.89766,14.89766,0,0,0-.95065,4.63109.84364.84364,0,0,0,1.68626,0Z"/><path d="M130.59076,111.91471a10.29008,10.29008,0,0,1-1.45556,6.52925c-.5241.95107.93159,1.80278,1.456.85108a12.12381,12.12381,0,0,0,1.62555-7.8286.84922.84922,0,0,0-1.03715-.58888.864.864,0,0,0-.58887,1.03715Z"/><path d="M130.8098,111.01565a59.63515,59.63515,0,0,0-16.27752,1.644c-1.05414.25555-.60775,1.882.44828,1.626a57.9016,57.9016,0,0,1,15.82924-1.58375c1.08526.04065,1.08355-1.64567,0-1.68626Z"/><path d="M114.21878,113.42629a12.35876,12.35876,0,0,1-.71217,5.1389.84809.84809,0,0,0,.58887,1.03715.86458.86458,0,0,0,1.03715-.58888,13.93407,13.93407,0,0,0,.77241-5.58717.84313.84313,0,1,0-1.68626,0Z"/><path d="M129.94482,117.88444c-.08716.019-.29411.0479-.07658.01781-.15547.0215-.3122.03562-.46834.05112-.46531.0462-.93163.08259-1.39782.11842-1.29908.09986-2.59929.18519-3.89941.27018-2.86066.187-5.723.35466-8.5817.57047a18.89287,18.89287,0,0,0-2.586.26243c-1.05971.23139-.61126,1.85737.44827,1.626.08756-.01912.294-.04511.07658-.01781.15583-.01957.31206-.03561.46834-.05113.4653-.04619.93163-.08258,1.39782-.11842,1.29908-.09985,2.59929-.18518,3.8994-.27018,2.86067-.187,5.723-.35466,8.58171-.57046a18.89289,18.89289,0,0,0,2.586-.26244c1.05971-.23138.61126-1.85737-.44827-1.626Z"/><line class="o" x1="127.22935" y1="98.59155" x2="123.23971" y2="99.31076"/><path d="M126.27965,95.61749a7.21988,7.21988,0,0,0-6.38074,3.63478l.06648.75431,6.27415-1.61433.84017.22714Z"/><path d="M152.84614,94.55959c-1.3552.05817-2.70428.22029-4.05254.36209-.66756.0702-1.33544.13871-2.00466.19127-.31238.02454-.62525.04678-.93835.0599a.68646.68646,0,0,0-.20431.00619c.19335-.11735.30225.91225.47876.3723.06672-.20408.13694-.40709.20539-.61059l-1.65614-.22414a1.78912,1.78912,0,0,0,.66056,1.6274,1.336,1.336,0,0,0,1.83012-.364,1.3142,1.3142,0,0,0-.42257-1.8101,1.04331,1.04331,0,0,0-1.53605,1.00333,1.40257,1.40257,0,0,0,1.39623,1.25646,3.92,3.92,0,0,0,1.28482-.14359c.44878-.10771.88856-.24953,1.33668-.35983.09212-.02267.18458-.04444.2775-.06363.03245-.0067.36237-.05291.21114-.03916.0796-.00724.15886-.01024.23877-.01166q.07395.00039.14755.00767-.16257-.02254-.023.00813a.84386.84386,0,0,0,.44827-1.626c-1.14366-.37943-2.419-.06816-3.59479-.11652-1.08511-.04463-1.08306,1.64171,0,1.68626.54967.02261,1.101-.02772,1.65023-.04547.29385-.0095.5885-.01486.88229-.00075a1.62778,1.62778,0,0,1,.614.1025l.44827-1.626a4.36342,4.36342,0,0,0-2.22626.226c-.34572.09612-.6903.19945-1.04149.27426-.087.01854-.17527.03721-.2634.04965.15745-.02222-.09091.00391-.10173.00431a1.64178,1.64178,0,0,1-.22057-.00426l.0905.01027q-.51885-.19026-.10395.82526h-.85109q-.02914-.08353-.06626-.164-.19005-.30223.23916-.53192l.28392.0501a.21182.21182,0,0,1,.11418.1261,1.07663,1.07663,0,0,1-.01675-.35078.84723.84723,0,0,0-1.65615-.22414,2.80508,2.80508,0,0,0-.28938,1.43928,1.19538,1.19538,0,0,0,1.18077.93039,16.21938,16.21938,0,0,0,2.32766-.165c1.639-.16162,3.27617-.38063,4.92269-.4513,1.081-.0464,1.08684-1.73291,0-1.68626Z"/><path class="k" d="M102.96713,108.15143c2.23263,2.61151,4.48733,5.20407,6.72,7.81557a.85041.85041,0,0,0,1.19237,0,.86048.86048,0,0,0,0-1.19237c-2.23263-2.6115-4.48733-5.20406-6.72-7.81556a.8504.8504,0,0,0-1.19237,0,.86047.86047,0,0,0,0,1.19236Z"/><path class="k" d="M111.79747,118.18124c-1.06692-2.22531-2.65086-4.14144-3.8007-6.3156a.84326.84326,0,0,0-1.456.85109c1.14984,2.17416,2.73378,4.09029,3.8007,6.3156a.85079.85079,0,0,0,1.15356.30247.86132.86132,0,0,0,.30247-1.15356Z"/><path d="M169.6248,114.19a14.02125,14.02125,0,0,0-4.33913-2.89127,7.019,7.019,0,0,0-4.51484-.18083.74419.74419,0,0,0,.39533,1.434c2.85764-.83791,5.37527.8275,7.4071,2.68966.70446.64564,1.75893-.40323,1.05154-1.05155Z"/><path class="k" d="M164.72065,112.17326c-.19508,1.71578.03391,3.44946-.16117,5.16524a.748.748,0,0,0,.74355.74355.76111.76111,0,0,0,.74356-.74355c.19508-1.71578-.03391-3.44946.16117-5.16524a.748.748,0,0,0-.74355-.74355.76111.76111,0,0,0-.74356.74355Z"/><path class="k" d="M169.47432,114.07375a4.25738,4.25738,0,0,0-1.8451-.61315,4.11394,4.11394,0,0,0-1.59958.08161c-.96695.27171-1.17184,1.49662-1.30712,2.34934a13.945,13.945,0,0,0-.163,1.447.74842.74842,0,0,0,.74355.74355.76012.76012,0,0,0,.74356-.74355c.00747-.1417.0188-.28317.03227-.42441q.01188-.12448.02609-.24872.00817-.07168.01707-.14328c.00261-.021.00571-.042.008-.06309.01049-.096-.02413.16623-.00935.06923a9.2837,9.2837,0,0,1,.24392-1.21306c.024-.08223.05-.16394.07955-.24438.01242-.03387.03039-.06809.03982-.1028-.058.21355-.03848.08948-.00413.02308.01655-.032.03492-.06276.053-.09388.05527-.09535.07713-.02187-.04408.04891.0197-.0115.03171-.04041.05078-.05428.07043-.05126-.18568.11231-.06109.052-.061.02956-.20519.06982-.07148.03745.04383-.0106.087-.02329.13106-.033a.87042.87042,0,0,0,.1432-.02675c.00392-.00164-.17044.0169-.08841.01159.038-.00246.07615-.00845.11409-.01167a4.16866,4.16866,0,0,1,.68086.00079c.04213.00334.24693.02448.14269.01254-.10391-.01191-.01034-.00138.00931.002.04512.0079.09036.015.13538.0235a4.11343,4.11343,0,0,1,.40207.09652q.10508.03105.20823.06829c.0255.00926.05064.02.0763.02881.09674.03306-.16132-.0777-.004-.00129a3.1264,3.1264,0,0,1,.366.20518.74884.74884,0,0,0,1.01733-.26676.76094.76094,0,0,0-.26675-1.01732Z"/><path class="k" d="M167.39085,112.88618a2.22936,2.22936,0,0,0-1.53027.32648l.17762-.075a1.55671,1.55671,0,0,1-.37634.11508l.19767-.02656a.65484.65484,0,0,1-.14482.00183l.19767.02656a.52145.52145,0,0,1-.08457-.01916l-.39533,1.434a3.09629,3.09629,0,0,0,.5449.10576.9942.9942,0,0,0,.77371-.29122.75742.75742,0,0,0,0-1.05155l-.77916-.8168-.901,1.16781,1.22457.598a.7945.7945,0,0,0,.573.075.75825.75825,0,0,0,.44437-.34171.75049.75049,0,0,0,.075-.573.73657.73657,0,0,0-.34171-.44437l-1.22457-.598a.77909.77909,0,0,0-.57295-.075.77038.77038,0,0,0-.38624.26647.74664.74664,0,0,0,.05813.9763l.77915.81681v-1.05155a.20324.20324,0,0,1-.03079.02842l.15049-.11626a.30769.30769,0,0,1-.05374.02906l.17762-.075a.41005.41005,0,0,1-.06125.01492l.19767-.02656a.60869.60869,0,0,1-.138-.00292l.19767.02656a2.92727,2.92727,0,0,1-.31138-.07524.77276.77276,0,0,0-.57295.075.74367.74367,0,0,0,.17762,1.359,2.22935,2.22935,0,0,0,1.53027-.32648l-.17762.075a1.55657,1.55657,0,0,1,.37634-.11509l-.19767.02657a.65423.65423,0,0,1,.14482-.00184l-.19767-.02656a.52145.52145,0,0,1,.08457.01916.75008.75008,0,0,0,.91466-.51933.75982.75982,0,0,0-.51933-.91466Z"/><path d="M126.78114,57.11764c.61512.86151.25759,2.23022.01571,3.16836a31.79873,31.79873,0,0,1-1.1786,3.44906.65357.65357,0,0,0,.453.79775.66323.66323,0,0,0,.79776-.453,28.39344,28.39344,0,0,0,1.26407-3.799c.27475-1.196.53281-2.74675-.23194-3.81784a.66672.66672,0,0,0-.8873-.23266.6538.6538,0,0,0-.23265.8873Z"/><path d="M126.10527,62.56441a2.26243,2.26243,0,0,0-.51746,2.151,2.466,2.466,0,0,0,1.66134,1.80672,4.26825,4.26825,0,0,0,4.28831-.422,3.454,3.454,0,0,0,1.13862-1.05929,1.74841,1.74841,0,0,0,.12639-1.56323c-.22229-.54807-.634-.95557-1.2736-.756-.79419.24784-.45519,1.50036.3448,1.2507q.29525-.07068-.30808-.13105-.06636-.09279-.00426.01029c-.022-.10279.04791.11835.04665.11432a.416.416,0,0,1-.0077.3393,1.9314,1.9314,0,0,1-.80241.73022,3.324,3.324,0,0,1-1.12808.51005,3.2612,3.2612,0,0,1-1.1841-.03249,3.44563,3.44563,0,0,1-1.01332-.30324,1.86671,1.86671,0,0,1-.41861-.30783c-.10973-.10251.00006.02758-.05772-.07226a1.461,1.461,0,0,1-.08568-.16381c.04122.09809-.02671-.10292-.03305-.12634a1.94193,1.94193,0,0,1-.05085-.23829c.01334.09579-.00519-.113-.00507-.11027-.00295-.0707-.00293-.14161.00051-.21229q.00332-.06963.01108-.13889-.0099.08909.01008-.02826a1.49568,1.49568,0,0,1,.05384-.187c-.04142.10845.03223-.05255.03969-.06456q.06312-.09437.0033-.00446a.70245.70245,0,0,1,.08253-.07393.65331.65331,0,0,0,0-.91715.663.663,0,0,0-.91715,0Z"/><path class="p" d="M115.09462,119.57753c.84146,3.53939-.09979,4.47012.04344,8.10534a2.12318,2.12318,0,0,0,.98659,1.15263c1.60465.1846,2.4629.36921,4.06755.55381a39.07043,39.07043,0,0,0,8.53416.35385,2.13791,2.13791,0,0,0,.98918-.8913c.77409-3.22036,1.009-11.669,1.78309-14.88939"/><path d="M141.059,117.809q.05945,2.49326.12881,4.98627.05525,2.00412.1187,4.008c.03854,1.18972-.18225,2.72083.59924,3.69462.60416.75284,1.65947-.31449,1.06066-1.06066-.23375-.29127-.10888-1.13385-.12167-1.49783q-.03046-.86739-.0573-1.73489-.06049-1.93057-.112-3.86142-.0617-2.267-.11643-4.5341a.75046.75046,0,0,0-1.5,0Z"/><path d="M156.04256,132.3692c1.096-.18716,2.36842-.6476,2.71075-1.8274a29.62987,29.62987,0,0,0,.72016-4.28088,86.52146,86.52146,0,0,1,1.36891-9.20554c.23111-.93718-1.215-1.337-1.44642-.39876a74.65144,74.65144,0,0,0-1.26077,8.37359c-.1783,1.38761-.35964,2.77773-.62332,4.15221-.09682.50469-.09912,1.02764-.5511,1.33545a3.4962,3.4962,0,0,1-1.317.40492c-.94959.16215-.547,1.60791.39876,1.44641Z"/><polygon points="126.828 97.858 124.73 97.103 122.498 97.46 121.381 98.298 120.249 99.643 121.096 100.273 127.444 97.995 127.444 97.995 126.828 97.858"/><path d="M108.14907,102.04362a27.87865,27.87865,0,0,0,4.97745-.8632,25.04171,25.04171,0,0,1,7.96924-.1574c.9546.12341.94558-1.37776,0-1.5a26.19518,26.19518,0,0,0-8.087.1584,28.90516,28.90516,0,0,1-4.85971.8622.75045.75045,0,0,0,0,1.5Z"/><path d="M108.63121,101.42654c.92025-2.47553,1.94069-4.91715,2.92039-7.36966l-.34922.34922,5.2456-1.83687a2.2657,2.2657,0,0,0,.37038-.1297c.00453-.0026.09752-.0306.097-.034.009.061-.34212-.07124-.20862.00358a4.4716,4.4716,0,0,0,1.21083.21766l2.71224.48756c.62926.11311.89924-.85042.26584-.96428-1.25593-.22577-2.51051-.46122-3.76812-.67737a1.53227,1.53227,0,0,0-.87864.10886l-2.039.714-2.26558.79334a5.31674,5.31674,0,0,0-1.12721.4033c-.29038.191-.41607.76535-.53688,1.06813q-.414,1.03762-.82726,2.07555c-.59944,1.50577-1.22127,3.00555-1.786,4.52481-.22453.604.74165.86474.96428.26583Z"/><path d="M111.17634,95.45153a1.76551,1.76551,0,0,0-.45918,1.42646,2.54821,2.54821,0,0,0,.57366,1.46413.75.75,0,0,0,1.28033-.53033.83663.83663,0,0,0-.21967-.53033c-.01252-.01461-.02464-.02938-.03656-.04449l.11727.15179a1.44031,1.44031,0,0,1-.17584-.31173l.07561.17916a2.07848,2.07848,0,0,1-.13222-.49538l.02679.19938a1.817,1.817,0,0,1-.00451-.45977l-.02679.19938a1.17014,1.17014,0,0,1,.07441-.28384l-.0756.17916a.79819.79819,0,0,1,.097-.16641l-.11727.15179a.72684.72684,0,0,1,.06321-.06831.75688.75688,0,0,0,0-1.06066.76522.76522,0,0,0-1.06066,0Z"/><path d="M155.20832,93.27231c1.87148.4737,3.789.76847,5.69528,1.06215,1.35549.20883,2.76258.32314,4.09593.65282.93708.23169,1.33687-1.21447.39876-1.44642-1.33336-.32968-2.74044-.444-4.09593-.65281-1.90629-.29368-3.8238-.58845-5.69528-1.06216a.75065.75065,0,0,0-.39876,1.44642Z"/><path d="M153.30211,86.31821c2.33713.63618,4.65,1.37447,6.95638,2.11275a54.6012,54.6012,0,0,1,6.82295,2.40626c.86641.41508,1.62823-.87785.75708-1.29521a55.17861,55.17861,0,0,0-7.017-2.50482c-2.36053-.75739-4.72814-1.51413-7.12068-2.1654a.75064.75064,0,0,0-.39876,1.44642Z"/><path d="M154.95982,91.12892h8.84607a.75045.75045,0,0,0,0-1.5h-8.84607a.75045.75045,0,0,0,0,1.5Z"/><ellipse class="q" cx="162.00951" cy="102.92697" rx="1.63824" ry="0.87729" transform="translate(-28.85746 123.19625) rotate(-38.49024)"/><ellipse class="q" cx="161.68584" cy="105.18024" rx="1.63824" ry="0.87729" transform="translate(-30.33018 123.48441) rotate(-38.49024)"/><ellipse class="q" cx="161.27563" cy="107.57687" rx="1.63824" ry="0.87729" transform="translate(-31.91093 123.74985) rotate(-38.49024)"/><ellipse class="q" cx="160.80507" cy="110.20145" rx="1.63824" ry="0.87729" transform="translate(-33.64666 124.02727) rotate(-38.49024)"/><ellipse class="q" cx="160.13245" cy="112.73168" rx="1.63824" ry="0.87729" transform="translate(-35.36758 124.15843) rotate(-38.49024)"/><ellipse class="q" cx="159.62779" cy="115.16358" rx="1.63824" ry="0.87729" transform="translate(-36.99081 124.37275) rotate(-38.49024)"/><ellipse class="q" cx="159.34544" cy="117.79246" rx="1.63824" ry="0.87729" transform="translate(-38.68833 124.76824) rotate(-38.49024)"/><ellipse class="q" cx="158.88833" cy="120.42254" rx="1.63824" ry="0.87729" transform="translate(-40.42456 125.05522) rotate(-38.49024)"/><ellipse class="q" cx="158.81253" cy="123.26784" rx="1.63824" ry="0.87729" transform="translate(-42.21189 125.62629) rotate(-38.49024)"/><ellipse class="q" cx="158.65222" cy="125.8332" rx="1.63824" ry="0.87729" transform="matrix(0.78271, -0.62238, 0.62238, 0.78271, -43.84336, 126.08394)"/><ellipse class="q" cx="158.65481" cy="128.59374" rx="1.63824" ry="0.87729" transform="translate(-45.56091 126.68537) rotate(-38.49024)"/><path class="q" d="M160.09341,130.35545c.11792.5062-.40309,1.28331-1.16371,1.73573s-1.47282.40882-1.59075-.09738.8553-1.5,1.61593-1.95238S159.97548,129.84926,160.09341,130.35545Z"/><ellipse class="q" cx="159.2927" cy="133.54246" rx="1.63824" ry="0.87729" transform="translate(-48.50228 128.15767) rotate(-38.49024)"/><ellipse class="q" cx="159.88902" cy="135.90206" rx="1.63824" ry="0.87729" transform="translate(-49.84129 129.04151) rotate(-38.49024)"/><ellipse class="q" cx="160.48453" cy="137.86231" rx="1.63824" ry="0.87729" transform="translate(-50.93191 129.83808) rotate(-38.49024)"/><path class="r" d="M161.51168,101.696l2.2807-8.46763.91957.30209a.84949.84949,0,0,1,.31006.935l-2.31862,6.68219Z"/><path class="s" d="M138.8433,118.30192s1.54368,23.42331,10.66241,23.63739,9.77556-8.65572,9.77556-8.65572"/><path class="s" d="M163.4757,93.17557s4.50705-2.83332,4.684-2.81929"/><path class="s" d="M163.4757,93.17557s1.631-3.56744,3.41291-3.56744"/><path d="M160.94113,105.26682a1.5989,1.5989,0,0,1,.102.19723l-.07561-.17916a1.06056,1.06056,0,0,1,.0703.25245l-.02679-.19938a.82678.82678,0,0,1,.00108.19535l.02679-.19938a.7871.7871,0,0,1-.05127.19082l.07561-.17916a.9269.9269,0,0,1-.11475.19469l.11727-.15179a1.36351,1.36351,0,0,1-.23385.22987l.15179-.11728a2.92615,2.92615,0,0,1-.6535.36212l.17916-.0756c-.18982.07984-.3866.14668-.572.23655a.75738.75738,0,0,0-.34467.44823.76647.76647,0,0,0,.07561.57792.757.757,0,0,0,.44822.34467.8373.8373,0,0,0,.57792-.07561c.01733-.00841.035-.01615.05267-.0237l-.17916.07561a7.1322,7.1322,0,0,0,.9872-.44731,2.19766,2.19766,0,0,0,.54726-.44492,1.73153,1.73153,0,0,0,.24385-.34887,1.65,1.65,0,0,0,.16581-.59686,1.7176,1.7176,0,0,0-.27577-1.02357.78033.78033,0,0,0-.44822-.34467.75019.75019,0,0,0-.847,1.10175Z"/><path d="M161.84836,102.49643q.02668.05424.05091.10951l-.07561-.17916a1.61552,1.61552,0,0,1,.11041.38015l-.02679-.19938a1.20326,1.20326,0,0,1,.0024.31319l.02679-.19938a1.12708,1.12708,0,0,1-.07711.27532l.07561-.17916a1.30339,1.30339,0,0,1-.15127.25557l.11728-.15179a1.861,1.861,0,0,1-.33776.331l.15179-.11728a3.46351,3.46351,0,0,1-.52216.32082c-.12164.06223-.24972.115-.36735.18467a.75012.75012,0,0,0,.75708,1.2952c.2669-.15814.55547-.26713.811-.44773a2.876,2.876,0,0,0,.68534-.65776,1.84508,1.84508,0,0,0,.33077-.90943,2.16235,2.16235,0,0,0-.26612-1.18139.75853.75853,0,0,0-.44822-.34467.75019.75019,0,0,0-.847,1.10175Z"/><path d="M161.11907,107.84267c.0255.048.0492.09664.071.14646l-.07561-.17916a1.37405,1.37405,0,0,1,.09585.33687l-.02679-.19938a1.04366,1.04366,0,0,1,.00037.25961l.02679-.19938a.99.99,0,0,1-.06348.23119l.0756-.17916a1.14838,1.14838,0,0,1-.1476.24786l.11728-.15179a1.68028,1.68028,0,0,1-.28831.27971l.1518-.11728a3.19185,3.19185,0,0,1-.55488.33023c-.13131.06321-.26954.11513-.39729.18541a.75725.75725,0,0,0-.26906,1.02614.76546.76546,0,0,0,1.02614.26906c.26709-.14692.5536-.24625.81039-.415a2.04783,2.04783,0,0,0,.99923-1.40725,2.00331,2.00331,0,0,0-.25619-1.22117.75628.75628,0,0,0-1.02614-.26906.76655.76655,0,0,0-.26907,1.02614Z"/><path d="M160.495,110.84981a1.40383,1.40383,0,0,1,.11347.209l-.07561-.17916a.913.913,0,0,1,.06185.22207l-.02679-.19938a.71465.71465,0,0,1,0,.1725l.02679-.19938a.69.69,0,0,1-.04741.16919l.0756-.17916a.82511.82511,0,0,1-.097.16266l.11727-.15179a1.21544,1.21544,0,0,1-.21278.2085l.15179-.11727a2.576,2.576,0,0,1-.567.31462l.17916-.0756c-.23053.09683-.46859.17254-.69687.2752a.752.752,0,0,0-.34467.44822.76655.76655,0,0,0,.07561.57792.75705.75705,0,0,0,.44822.34467l.19938.02679a.74657.74657,0,0,0,.37854-.10239l.01687-.00741-.17916.07561c.326-.13732.66506-.2396.97762-.40947a1.77541,1.77541,0,0,0,.97122-1.16153,1.52553,1.52553,0,0,0-.01776-.66363,1.77832,1.77832,0,0,0-.23312-.51787.7915.7915,0,0,0-.44823-.34467.76647.76647,0,0,0-.57792.07561.74995.74995,0,0,0-.26906,1.02614Z"/><path d="M159.8755,113.13479a1.24824,1.24824,0,0,1,.12326.21663l-.0756-.17916a.7915.7915,0,0,1,.05469.19654l-.02679-.19938a.62229.62229,0,0,1-.001.1532l.02679-.19938a.60983.60983,0,0,1-.03923.13976l.07561-.17916a.72572.72572,0,0,1-.08668.14688l.11727-.15179a1.08659,1.08659,0,0,1-.194.18969l.15179-.11728a2.2992,2.2992,0,0,1-.49586.27572l.17916-.07561c-.20385.086-.4186.14267-.6223.22785a.839.839,0,0,0-.44822.34467.74995.74995,0,0,0,.26906,1.02614.72207.72207,0,0,0,.57792.07561c.10817-.04524.222-.07773.33249-.11665a5.79981,5.79981,0,0,0,.63335-.26173,2.34191,2.34191,0,0,0,.58373-.404,1.36385,1.36385,0,0,0,.394-1.36915,1.65058,1.65058,0,0,0-.23423-.49651.80429.80429,0,0,0-.44822-.34467.7665.7665,0,0,0-.57792.07561.757.757,0,0,0-.34467.44822.74234.74234,0,0,0,.0756.57792Z"/><path d="M159.48,115.30378a1.33044,1.33044,0,0,1,.11917.21643l-.0756-.17915a.8727.8727,0,0,1,.05584.1973l-.02679-.19938a.67409.67409,0,0,1,.00035.179l.02679-.19938a.65979.65979,0,0,1-.04218.14981l.0756-.17916a.78045.78045,0,0,1-.09236.15695l.11727-.15179a1.1571,1.1571,0,0,1-.20517.20173l.15179-.11727a2.46172,2.46172,0,0,1-.54228.30107l.17915-.07561c-.24333.10211-.49486.18027-.73687.286a.7502.7502,0,0,0-.34467.44822.76645.76645,0,0,0,.07561.57792.757.757,0,0,0,.44822.34467l.19938.02679a.74648.74648,0,0,0,.37854-.1024l.01081-.00466-.17916.0756c.32423-.13537.66046-.23321.97375-.39716a2.31855,2.31855,0,0,0,.572-.413,1.58209,1.58209,0,0,0,.258-.33611,1.26375,1.26375,0,0,0,.14905-.39285,1.48912,1.48912,0,0,0-.01875-.66653,1.74078,1.74078,0,0,0-.23222-.50416.79628.79628,0,0,0-.44822-.34467.7665.7665,0,0,0-.57792.0756.75.75,0,0,0-.26907,1.02615Z"/><path d="M159.02165,118.0609a1.1391,1.1391,0,0,1,.132.22515l-.07561-.17916a.71756.71756,0,0,1,.04668.16589l-.02679-.19938a.565.565,0,0,1,.00075.14019l.02679-.19938a.55152.55152,0,0,1-.03479.1283l.0756-.17916a.6613.6613,0,0,1-.086.14446l.11727-.15179a1.01026,1.01026,0,0,1-.17234.16677l.15179-.11728a2.11614,2.11614,0,0,1-.45677.254l.17916-.07561c-.2244.09459-.46089.1525-.68666.24183a.83906.83906,0,0,0-.44823.34467.75.75,0,0,0,.26907,1.02614.72914.72914,0,0,0,.57792.07561c.10607-.042.21715-.07192.32536-.1078a5.92286,5.92286,0,0,0,.64345-.25544,2.33028,2.33028,0,0,0,.57668-.38469,1.325,1.325,0,0,0,.41326-.70013,1.34285,1.34285,0,0,0-.018-.63755,1.56109,1.56109,0,0,0-.23543-.48272.83906.83906,0,0,0-.44823-.34467.76648.76648,0,0,0-.57791.0756.757.757,0,0,0-.34467.44823.732.732,0,0,0,.0756.57791Z"/><path d="M159.24807,120.20435c.02877.05192.05522.1046.07913.15893l-.07561-.17916a1.26558,1.26558,0,0,1,.08951.31275l-.02679-.19938a.96354.96354,0,0,1,.00013.2417l.02679-.19938a.91907.91907,0,0,1-.06.21591l.07561-.17916a1.07082,1.07082,0,0,1-.12929.21889l.11727-.15179a1.55417,1.55417,0,0,1-.2714.26669l.15179-.11728a3.04144,3.04144,0,0,1-.57315.33617c-.13714.0639-.28146.11539-.41531.186a.75611.75611,0,0,0-.26906,1.02614.76674.76674,0,0,0,1.02614.26906c.26419-.13943.54662-.23291.80175-.3926a1.98518,1.98518,0,0,0,1.00547-1.379,1.908,1.908,0,0,0-.25776-1.19161.75745.75745,0,0,0-1.02614-.26906.76526.76526,0,0,0-.26907,1.02614Z"/><path d="M159.08539,123.49436a1.49505,1.49505,0,0,1,.10818.20441l-.0756-.17916a.98321.98321,0,0,1,.0658.23733l-.02679-.19938a.76858.76858,0,0,1,.00014.184l.02679-.19938a.7379.7379,0,0,1-.04987.18l.07561-.17916a.876.876,0,0,1-.10191.17257l.11727-.15179a1.2774,1.2774,0,0,1-.2227.22024l.15179-.11727a2.73,2.73,0,0,1-.61159.34l.17916-.0756c-.21112.08868-.42921.16035-.63689.25737a.75456.75456,0,0,0-.34467.44823.7665.7665,0,0,0,.0756.57792.757.757,0,0,0,.44823.34467l.19938.02679a.74658.74658,0,0,0,.37854-.1024l.037-.01635-.17916.07561a8.13474,8.13474,0,0,0,.98583-.43014,2.232,2.232,0,0,0,.55369-.43188,1.61758,1.61758,0,0,0,.25077-.3485,1.58089,1.58089,0,0,0,.16713-.59092,1.64763,1.64763,0,0,0-.27653-1.00424.78554.78554,0,0,0-.44822-.34467.7665.7665,0,0,0-.57792.0756.757.757,0,0,0-.34467.44823.766.766,0,0,0,.07561.57792Z"/><path d="M158.74649,125.78156a1.568,1.568,0,0,1,.10124.1919l-.07561-.17916a1.0365,1.0365,0,0,1,.07079.24584l-.0268-.19938a.79321.79321,0,0,1,.00071.20549l.02679-.19938a.768.768,0,0,1-.04673.17117l.0756-.17916a.89481.89481,0,0,1-.111.19028l.11727-.15179a1.32049,1.32049,0,0,1-.22822.22517l.15179-.11727a2.82554,2.82554,0,0,1-.63263.35129l.17916-.0756c-.20053.08429-.408.15364-.60456.24724a.756.756,0,0,0-.34467.44823.76655.76655,0,0,0,.07561.57792.75705.75705,0,0,0,.44822.34467.843.843,0,0,0,.57792-.07561l.04461-.0199-.17916.07561a7.65347,7.65347,0,0,0,.98327-.43687,2.22731,2.22731,0,0,0,.55149-.43773,1.53306,1.53306,0,0,0,.41623-.9458,1.6806,1.6806,0,0,0-.27609-1.01424.7828.7828,0,0,0-.44823-.34467.75019.75019,0,0,0-.847,1.10175Z"/><path d="M158.60071,128.72962a1.26124,1.26124,0,0,1,.12362.21977l-.07561-.17916a.81778.81778,0,0,1,.0526.18573l-.02679-.19938a.64.64,0,0,1,.00181.15647l.02679-.19938a.6157.6157,0,0,1-.04191.154l.07561-.17916a.74014.74014,0,0,1-.08809.14875l.11727-.15179a1.10489,1.10489,0,0,1-.19634.19194l.15179-.11728a2.3475,2.3475,0,0,1-.51225.28384l.17916-.07561c-.25708.1078-.52353.18841-.78043.297a.74827.74827,0,0,0-.34467.44823.7665.7665,0,0,0,.0756.57792.75705.75705,0,0,0,.44822.34467l.19938.02679a.74653.74653,0,0,0,.37854-.1024l.00515-.00217-.17916.0756c.10947-.0452.22392-.07878.33539-.11862a5.64884,5.64884,0,0,0,.63682-.26658,2.30961,2.30961,0,0,0,.57813-.40675,1.54607,1.54607,0,0,0,.2579-.33057,1.22078,1.22078,0,0,0,.14862-.38665,1.43179,1.43179,0,0,0-.01744-.65122,1.66624,1.66624,0,0,0-.2345-.50108.80233.80233,0,0,0-.44822-.34467.76645.76645,0,0,0-.57792.07561.75692.75692,0,0,0-.34467.44822.74438.74438,0,0,0,.0756.57792Z"/><path d="M154.79449,101.37892c.68959-.26023,1.40024-.44233,2.10577-.65174a9.5424,9.5424,0,0,0,2.13308-.91.75012.75012,0,1,0-.75708-1.29521c-.174.10239-.3504.2-.53119.28987q-.118.05864-.238.11312c-.03876.01759-.07789.03434-.11673.05177-.1034.04642.11062-.04206.00644-.0033-.31482.11715-.62837.22912-.95094.32372-.68761.20166-1.37871.382-2.05009.63532a.76708.76708,0,0,0-.52383.92259.75862.75862,0,0,0,.92259.52383Z"/><polygon class="t" points="158.198 87.148 164.466 88.637 168.898 90.775 167.139 88.667 160.854 86.416 157.399 86.908 158.198 87.148"/><rect class="p" x="140.80504" y="105.18077" width="13.42165" height="6.58405" transform="translate(-10.53039 16.01383) rotate(-6)"/><polygon class="t" points="150.251 96.022 152.846 95.866 156.518 97.577 155.843 92.275 161.383 93.566 159.159 99.598 157.139 107.338 153.771 106.139 151.785 104.547 150.016 102.099 149.69 98.84 150.251 96.022"/><path d="M162.7372,94.17334c-2.114,3.30267-3.54379,5.63475-3.45927,9.55513a15.21439,15.21439,0,0,1-.0247,3.1363c-.20086.6662-2.673.96624-2.71921-.0247-.1937-4.15119,1.42216-10.72133,4.244-13.77211"/><polygon class="h" points="102.934 97.354 100.289 93.137 69.254 102.021 73.573 107.118 75.192 108.123 72.365 102.708 82.958 112.96 77.375 102.094 86.863 105.557 83.609 99.593 96.234 96.304 102.934 97.354"/><path class="k" d="M109.40761,115.42933c1.01574,2.9018,1.92277,5.84074,2.93851,8.74253l1.541-.64968c-2.35652-4.10914-4.241-8.47812-6.59753-12.58726a.84376.84376,0,0,0-1.456.85108c2.35652,4.10914,4.241,8.47813,6.59753,12.58727.4634.808,1.8637.27214,1.541-.64968-1.01574-2.9018-1.92277-5.84073-2.93851-8.74253-.35621-1.01764-1.98588-.57978-1.626.44827Z"/><path d="M83.1407,114.49753a41.89892,41.89892,0,0,0-1.81527-5.44114,14.8361,14.8361,0,0,0-2.79229-4.84441c-.45166-.45989-1.15862.24737-.70711.7071a14.0927,14.0927,0,0,1,2.6449,4.67294,42.16142,42.16142,0,0,1,1.70549,5.17135.50043.50043,0,0,0,.96428-.26584Z"/><path class="u" d="M88.13118,107.65408s-4.57389-6.1885-8.14334-8.1402"/><path class="u" d="M75.20532,108.41424a22.59278,22.59278,0,0,0-4.55883-6.37072"/><path d="M155.4882,97.63a42.80615,42.80615,0,0,0,6.224-3.54852.75056.75056,0,0,0-.75708-1.29521c-.98807.589-1.95281,1.21649-2.93633,1.813-.54142.32837-1.08678.65092-1.6427.95424-.237.12933-.476.25518-.7184.37418-.11447.0562-.22963.111-.3459.16338-.01785.008-.2194.09349-.056.02631q-.0828.03405-.16633.0662a.772.772,0,0,0-.52383.92259.75557.75557,0,0,0,.92259.52383Z"/><path d="M151.207,84.16556c2.8446,3.523,3.62541,8.74473,4.03652,13.11886l1.43931-.59618c-2.97531-2.89276-7.285-2.55857-11.04673-3.50023a.85688.85688,0,0,0-.95215.38747,17.34091,17.34091,0,0,0-1.34973,6.56522l1.06727-.813c-3.563-.7151-6.675,3.11858-9.16312,5.07849-.85191.671.34866,1.85694,1.19236,1.19236,1.22086-.96166,2.34159-2.04533,3.584-2.98061,1.04361-.78561,2.54181-1.94453,3.93845-1.66422a.858.858,0,0,0,1.06727-.813,15.20259,15.20259,0,0,1,1.1195-5.71413l-.95215.38747c3.38321.84691,7.63208.47011,10.30264,3.06656.48393.4705,1.51073.16369,1.43931-.59618-.45884-4.882-1.3642-10.38987-4.53042-14.31122-.68183-.84445-1.86833.35517-1.19236,1.19236Z"/><path class="e" d="M42.12564,152.57655l4.96272.35859.35465-.90428s.80125-.4797.87409-.8439a15.7132,15.7132,0,0,0,.07284-2.6951,12.02962,12.02962,0,0,0-.58273-3.642,7.02963,7.02963,0,0,1-.60894-1.64861l-.10991-.70708"/></svg>