<svg xmlns="http://www.w3.org/2000/svg" viewBox="0 0 222.66742 222.66748"><defs><style>.a{fill:#ededed;}.b{fill:#cecece;}.c,.d{fill:#c9b092;}.d,.h{stroke:#000;}.d,.h,.i,.j{stroke-miterlimit:10;}.d{stroke-width:0.3775px;}.e{fill:#747c58;}.f{fill:#54593e;}.g{fill:#080808;}.h,.i,.j{fill:none;}.h{stroke-linecap:round;stroke-width:0.56566px;}.i,.j{stroke:#231f20;}.i{stroke-width:2.83691px;}.j{stroke-width:2.8283px;}</style></defs><circle class="a" cx="111.3338" cy="111.33362" r="108.83356" transform="translate(-46.11584 111.33375) rotate(-45)"/><path class="b" d="M111.3338,5c58.48352,0,106.33362,47.8501,106.33362,106.3335v.00048c0,58.4834-47.8501,106.3335-106.33362,106.3335h-.00018C52.85013,217.66748,5,169.81738,5,111.334v-.00048C5,52.8501,52.85013,5,111.33362,5h.00018m0-5A111.205,111.205,0,0,0,32.7,189.96729,111.20493,111.20493,0,1,0,189.96747,32.7002,110.54189,110.54189,0,0,0,111.3338,0Z"/><path class="c" d="M186.67283,113.94991s-4.27724,2.20376-4.66992,2.81385-1.87633.6415-1.87633.6415l-3.60563-.63746-2.24785-1.00206-1.02813.97342-1.82548,2.0959s-2.8053,2.48258-5.34414-6.9009l2.48438-2.42751,1.89907-3.28265,3.47656-2.57083s1.70592-3.93465,4.39976-3.65093"/><path class="d" d="M181.26589,113.53879l2.50639-.97419s-.19452-3.38047.22682-3.5353,2.15828-2.23406,2.62156-.25733a17.86161,17.86161,0,0,1-.02756,5.23689"/><path class="d" d="M178.0992,99.8814s1.68787-2.55364,3.5071-1.46108.5573,1.5861.5573,1.5861a1.27083,1.27083,0,0,0-1.17757.19139c-.42592.43486-1.61951,1.39741-1.61951,1.39741s-.65318.64287-.79623.50887-1.15436.28224-1.06857-.37473A9.8017,9.8017,0,0,1,178.0992,99.8814Z"/><path class="d" d="M182.41525,99.85122s1.71578.25895,1.93324.79086a3.6073,3.6073,0,0,1-.10752,1.67808l-2.115.23184s-1.7677,1.5736-2.07029,1.95722-.99663,1.11-1.124.93774-.42156.22272-1.06137-.32537a2.08408,2.08408,0,0,1-.64755-1.43066l1.34752-1.58684,2.90375-2.14725Z"/><path class="d" d="M184.241,102.32016s1.90772.401,1.87435.69212.783,1.71226.13809,2.02932a9.66067,9.66067,0,0,1-2.73656.26519,15.22264,15.22264,0,0,0-1.88117,1.49764c.03852.13137-1.42722.607-1.42722.607l-1.15279-.6174-.36381-1.1164,1.36383-1.16837L182.126,102.552Z"/><path class="d" d="M186.06819,105.18754s1.77509.11711,1.91057,1.40236-.1614,3.58293-.61536,3.91862a4.17515,4.17515,0,0,0-.81931.87229l.08952-3.05021s-.21746-.53191-.48276-.33572-1.15009.74389-1.15009.74389l-.34173.09284-1.80849.3249s-1.725.05-1.917-.44744-1.03476-1.31472.08718-1.584a4.246,4.246,0,0,0,2.02162-1.62176Z"/><polygon class="e" points="141.73 78.644 137.806 82.071 131.007 87.705 127.362 134.996 131.333 141.834 138.903 141.185 153.866 100.705 147.544 82.126 141.73 78.644"/><path d="M128.43073,125.0513a18.75782,18.75782,0,0,1,4.99768-.77687.283.283,0,0,0,0-.56567,19.35419,19.35419,0,0,0-5.14805.79709.28307.28307,0,0,0,.15037.54545Z"/><polygon class="f" points="147.355 106.437 151.26 109.452 139.506 139.219 134.893 134.466 134.058 132.773 139.128 136.083 130.032 124.644 140.217 131.199 137.713 121.504 143.284 125.288 147.745 113.149 147.355 106.437"/><path class="g" d="M142.97141,102.71634c2.31551,1.98195,4.55615,4.05,6.87165,6.032l.57795-.749c-4.06617-2.34921-7.85646-5.15722-11.92262-7.50643a.47728.47728,0,0,0-.48143.82363c4.06617,2.3492,7.85646,5.15722,11.92263,7.50642.45483.26278,1.00044-.38742.57795-.749-2.31551-1.98194-4.55615-4.05-6.87166-6.032-.464-.39716-1.14175.27451-.67447.67448Z"/><path d="M128.28036,125.0513a41.14361,41.14361,0,0,1,4.99869,2.2191,14.114,14.114,0,0,1,4.37613,3.0966c.23385.27951.63217-.12246.4-.4a14.52913,14.52913,0,0,0-4.49061-3.185,42.16389,42.16389,0,0,0-5.13382-2.27612c-.34244-.12516-.49008.4213-.15037.54545Z"/><path class="h" d="M135.766,120.05056s5.66568,5.10885,7.2477,8.81868"/><path class="h" d="M133.77134,132.73109a22.39753,22.39753,0,0,1,5.84692,5.11152"/><polygon class="e" points="173.479 117.765 166.567 122.514 164.901 126.241 145.289 139.715 131.14 141.894 126.881 132.607 127.789 129.676 129.544 127.13 156.654 111.576 161.276 112.718 167.21 108.64 170.98 116.603 173.479 117.765"/><path d="M164.478,119.95736a12.7612,12.7612,0,0,1,1.59605-1.52751,13.69,13.69,0,0,1,2.21616-1.62149c.08915-.04964.17953-.09724.27167-.14109.02112-.01005.13644-.06094.08816-.04094-.04967.02057.06031-.02248.08051-.02956.07644-.02679.1561-.03957.23251-.06407.00821-.00264-.10051-.00071-.00437.00256.04385.00149.15341.01459-.00765-.01a.49225.49225,0,0,0,.58667-.3331.48054.48054,0,0,0-.3331-.58668,3.379,3.379,0,0,0-2.21384.9017,22.3484,22.3484,0,0,0-2.38732,1.95949,8.77037,8.77037,0,0,0-.79993.81624.49067.49067,0,0,0,0,.67447.4806.4806,0,0,0,.67448,0Z"/><path class="c" d="M49.54818,87.73581s2.74543,3.95144,3.40174,4.26077.88191,1.776.88191,1.776l-.1593,3.65808-.69876,2.35981,1.09979.89165,2.31711,1.535s2.82889,2.45567-6.14081,6.20263l-2.73224-2.14472-3.50326-1.45238L41.01,101.71312s-4.12432-1.17543-4.19617-3.88322"/><path class="d" d="M49.84939,93.15l-1.29434-2.35706s-3.32581.636-3.53453.23857-2.4977-1.84681-.59876-2.56521a17.86143,17.86143,0,0,1,5.19532-.65916"/><path class="d" d="M36.725,98.07963s-2.75286-1.33856-1.90821-3.28531,1.49937-.76041,1.49937-.76041a1.27079,1.27079,0,0,0,.3441,1.14232c.48693.36525,1.59764,1.42235,1.59764,1.42235s.72294.56328.60885.72267.43113,1.10739-.23142,1.10846A9.80165,9.80165,0,0,1,36.725,98.07963Z"/><path class="d" d="M36.12926,93.80478s.0318-1.73492.53061-2.02023a3.60731,3.60731,0,0,1,1.6777-.11338l.50709,2.06635s1.79173,1.54617,2.21171,1.79587,1.231.84252,1.077.99137.27607.38873-.18343,1.09486a2.08406,2.08406,0,0,1-1.33343.8295L38.8667,97.32125,36.35734,94.724Z"/><path class="d" d="M38.33757,91.67117s.14748-1.94383.44045-1.9489,1.59484-1.00073,1.9937-.40291a9.66044,9.66044,0,0,1,.62162,2.67818,15.22228,15.22228,0,0,0,1.73132,1.66861c.12519-.05541.7888,1.33535.7888,1.33535l-.461,1.22377-1.05907.507-1.33707-1.1989-2.21171-1.79587Z"/><path class="d" d="M40.94068,89.48384s-.11659-1.77512,1.13981-2.07791,3.57318-.30966,3.96548.09638a4.175,4.175,0,0,0,.97216.69789l-3.03562.31109s-.49882.28531-.26955.52261.88823,1.04265.88823,1.04265l.13684.32661.55917,1.7503s.27571,1.70356-.1923,1.95909-1.16773,1.19817-1.58175.12121a4.246,4.246,0,0,0-1.87277-1.79159Z"/><polygon class="e" points="120.96 83.741 115.846 84.734 107.137 86.192 80.236 125.256 80.236 133.164 87.108 136.404 120.376 108.913 124.239 89.672 120.96 83.741"/><polygon class="e" points="54.955 99.555 62.061 104.008 66.144 104.054 86.307 116.688 93.935 128.803 87.108 136.404 84.058 136.737 81.024 136.139 55.969 117.454 55.178 112.759 49.077 108.936 54.883 102.31 54.955 99.555"/><path d="M86.15111,117.1926a18.73563,18.73563,0,0,1,4.71446,1.83846c.31844.17709.604-.31129.2855-.48843a19.30927,19.30927,0,0,0-4.84958-1.89548c-.35371-.0854-.50464.45992-.15038.54545Z"/><path d="M60.49841,106.9253a8.1747,8.1747,0,0,1-1.07783-.41577q-.83561-.36915-1.64247-.80017a13.30655,13.30655,0,0,1-1.53188-.93119,3.53554,3.53554,0,0,1-.459-.38776c-.03471-.03529-.06723-.07225-.10055-.1088-.05621-.06166.03838.077-.02585-.03433-.01922-.0333-.03895-.067-.05862-.1-.0431-.0724.03528.11348.004-.00449a.47733.47733,0,0,0-.91978.25357,1.77023,1.77023,0,0,0,.59149.82324,8.25389,8.25389,0,0,0,1.15255.82059,21.4778,21.4778,0,0,0,2.67514,1.36565,9.55463,9.55463,0,0,0,1.13924.43925.47733.47733,0,0,0,.25357-.91978Z"/><path class="g" d="M103.46875,97.81226c2.21336,2.589,4.4486,5.15915,6.662,7.74812.39951.4673,1.07151-.21007.67448-.67448-2.21336-2.589-4.44861-5.15915-6.662-7.74811-.39951-.4673-1.0715.21007-.67447.67447Z"/><polygon class="f" points="111.867 110.6 113.73 115.169 88.617 135.007 87.015 128.58 87.143 126.696 89.865 132.105 87.744 117.646 93.259 128.429 95.963 118.787 98.88 124.858 108.834 116.6 111.867 110.6"/><path class="g" d="M109.946,105.18573c1.007,2.87676,1.90617,5.79033,2.91314,8.66708l.8717-.3675c-2.33618-4.07367-4.2044-8.40495-6.54058-12.47863a.47728.47728,0,0,0-.82362.48143c2.33618,4.07367,4.2044,8.405,6.54058,12.47863.26213.45708,1.05422.15394.8717-.3675-1.007-2.87675-1.90617-5.79032-2.91314-8.66708-.2015-.57563-1.12334-.328-.91978.25357Z"/><path d="M86.02631,117.11986a41.15717,41.15717,0,0,1,3.20815,4.43061,14.10677,14.10677,0,0,1,2.228,4.87487c.06167.358.60688.20624.54546-.15038a14.5363,14.5363,0,0,0-2.285-5.01,42.15249,42.15249,0,0,0-3.29661-4.54509c-.23315-.28-.63142.122-.4.4Z"/><path class="h" d="M95.00886,116.55268s2.33386,7.26315,1.83891,11.26573"/><path class="h" d="M86.916,126.51662a22.39768,22.39768,0,0,1,2.48924,7.35648"/><polyline class="i" points="105.156 66.96 96.044 66.289 96.748 56.731"/><path class="j" d="M154.08693,66.07719s-27.74325-31.1965-57.69737-.07048"/><polyline class="i" points="144.409 155.707 153.521 156.378 152.817 165.936"/><path class="j" d="M95.47865,156.59028s27.74325,31.19649,57.69737.07047"/></svg>