<svg xmlns="http://www.w3.org/2000/svg" viewBox="0 0 2399.5 2881.7439"><defs><style>.a{fill:#ffd68d;}.b,.c,.d{fill:#f4b54e;}.b{opacity:0.13;}.c{opacity:0.24;}.d{opacity:0.17;}</style></defs><path class="a" d="M2269.21881,2881.7439H130.28119C58.62654,2881.7439,0,2819.19519,0,2742.74676V138.99714C0,62.54871,58.62654,0,130.28119,0H2269.21881C2340.87346,0,2399.5,62.54871,2399.5,138.99714V2742.74676C2399.5,2819.19519,2340.87346,2881.7439,2269.21881,2881.7439Z"/><path class="b" d="M186.05749,2325.93011s343.88556,16.428,343.88556,282.0139-228.40161,188.92192-277.1615,183.44593S186.05749,2325.93011,186.05749,2325.93011Z"/><path class="b" d="M2000.43877,2347.83411s343.88556,16.428,343.88556,282.01389-228.4016,188.92193-277.1615,183.44593S2000.43877,2347.83411,2000.43877,2347.83411Z"/><path class="b" d="M860.99706,1375.84448s343.88556,16.428,343.88556,282.01389S976.481,1846.7803,927.72112,1841.3043,860.99706,1375.84448,860.99706,1375.84448Z"/><path class="b" d="M1967.07674,932.28864s343.88556,16.428,343.88556,282.0139-228.4016,188.92193-277.1615,183.44593S1967.07674,932.28864,1967.07674,932.28864Z"/><path class="b" d="M1240.506,1916.10889s-243.43145,259.666-427.13394,80.43754,23.46-307.3205,60.15293-342.01532S1240.506,1916.10889,1240.506,1916.10889Z"/><path class="b" d="M2197.73965,489.61144s-243.43145,259.666-427.13394,80.43753,23.46-307.3205,60.15293-342.01532S2197.73965,489.61144,2197.73965,489.61144Z"/><path class="b" d="M660.16619,2413.56059s323.97495-124.12149,418.50135,121.57158S934.614,2802.43629,887.55734,2817.12464,660.16619,2413.56059,660.16619,2413.56059Z"/><path class="b" d="M1543.63556,945.97864s343.88556,16.428,343.88556,282.01389-228.4016,188.92193-277.16149,183.44593S1543.63556,945.97864,1543.63556,945.97864Z"/><path class="c" d="M606.93235,1786.54432s-89.82085-481.88782,59.02514-621.52576,210.43743-35.594,218.13636-232.72992,74.423-232.72991-74.423-314.86988S442.6885,318.97688,378.53075,499.68481,198.889,1058.2366,288.70989,1129.42457s192.47327,30.118,166.81016,243.68191-25.6631,372.36786-25.6631,372.36786,125.7492,271.06189,151.4123,156.06594Z"/><path class="d" d="M134.73128,1479.88844c146.27968-19.166,179.64171-84.878,213.00375-87.616s82.12192-35.594,82.12192,87.616-76.9893,73.926-100.08609,221.77791,125.74919,314.86988-46.19359,260.1099-218.13636-8.214-195.03957-123.20995,110.35134-65.712,28.22941-172.49393S134.73128,1479.88844,134.73128,1479.88844Z"/><path class="d" d="M440.06258,613.882C296.856,651.03,270.86711,720.42871,238.02831,727.2789s-77.69538,45.52136-91.09733-76.85611,68.42794-82.95885,75.28634-232.67152S63.06833,120.5784,239.80577,153.67943s217.556-18.84989,207.12371,98.22879-102.458,78.931-9.27594,174.82365S440.06258,613.882,440.06258,613.882Z"/><path class="d" d="M1061.10964,507.10008c-143.20657,37.148-169.19548,106.54667-202.03427,113.39686S781.38,666.0183,767.978,543.64083,836.406,460.682,843.26437,310.96931,684.11539,13.79644,860.85283,46.89747s217.556-18.84989,207.12371,98.22879-102.458,78.931-9.27594,174.82365S1061.10964,507.10008,1061.10964,507.10008Z"/><path class="d" d="M912.32326,2219.14815c146.27968-19.166,179.64171-84.878,213.00375-87.616s82.12192-35.594,82.12192,87.616-76.9893,73.926-100.0861,221.77792,125.7492,314.86988-46.19358,260.1099-218.13636-8.214-195.03957-123.20995,110.35134-65.712,28.22941-172.49394S912.32326,2219.14815,912.32326,2219.14815Z"/><path class="d" d="M1376.8254,1835.8283c146.27968-19.166,179.64171-84.878,213.00374-87.616s82.12193-35.594,82.12193,87.616-76.98931,73.926-100.0861,221.77792,125.7492,314.86988-46.19358,260.1099-218.13636-8.214-195.03957-123.21,110.35134-65.712,28.22941-172.49393S1376.8254,1835.8283,1376.8254,1835.8283Z"/><path class="d" d="M1931.1484,2084.98621c146.27967-19.166,179.64171-84.878,213.00374-87.616s82.12192-35.594,82.12192,87.616-76.9893,73.926-100.08609,221.77791,125.7492,314.86988-46.19358,260.1099-218.13637-8.214-195.03958-123.21,110.35134-65.712,28.22941-172.49394S1931.1484,2084.98621,1931.1484,2084.98621Z"/><path class="d" d="M582.83833,2189.66722c10.4317,156.844,70.22941,195.76418,71.07981,231.45179s29.10259,89.32756-86.22912,83.003-65.247-85.82642-202.45949-118.02542S64.038,2503.91884,124.12268,2323.52567s18.88609-232.00145,125.34342-201.489,55.84572,120.95185,160.01533,38.93269S582.83833,2189.66722,582.83833,2189.66722Z"/><path class="d" d="M1932.71747,2507.2751c10.4317,156.844,70.22942,195.76418,71.07981,231.45179s29.1026,89.32756-86.22911,83.003-65.247-85.82642-202.45949-118.02542-301.19152,117.82227-241.10686-62.5709,18.88609-232.00145,125.34343-201.489,55.84572,120.95185,160.01532,38.93269S1932.71747,2507.2751,1932.71747,2507.2751Z"/><path class="d" d="M1381.958,94.461C1528.2377,75.295,1561.59973,9.583,1594.96176,6.845s82.12193-35.594,82.12193,87.616-76.9893,73.926-100.0861,221.77792,125.7492,314.86988-46.19358,260.1099-218.13636-8.214-195.03957-123.21,110.35134-65.712,28.22941-172.49394S1381.958,94.461,1381.958,94.461Z"/><path class="d" d="M2262.0152,284.70019c-31.916,153.5071,14.99874,209.00174,6.27675,243.46674s4.0229,94.47258-104.83155,53.32762S2123.85768,479.383,2000.94532,406.78164s-320.17651,21.312-214.37787-133.31634,80.10181-216.62675,173.98631-154.99741,21.20479,132.91926,142.96925,85.992S2262.0152,284.70019,2262.0152,284.70019Z"/><path class="d" d="M2089.80428,795.02635c60.75766,143.25491,129.49448,157.63953,141.89032,190.7986s56.32794,73.02-53.9044,109.75263-89.09226-56.36509-228.25693-35.80735-244.21522,221.93323-246.48443,30.50386S1645.3646,865.67869,1755.134,854.9163s91.68967,92.78929,162.74133-22.67729S2089.80428,795.02635,2089.80428,795.02635Z"/></svg>