<svg xmlns="http://www.w3.org/2000/svg" viewBox="0 0 585 790.72172"><defs><style>.a{fill:#112d4d;}.b{fill:none;stroke:#112d4d;stroke-miterlimit:10;stroke-width:71px;}.c,.d{fill:#f2f7fa;}.d{opacity:0.4;}.e{fill:#c12d2d;}.f{fill:#39bf2e;}.g{fill:#505bb5;}.h{fill:#747c58;}.i{fill:#999;}.j{fill:#9fa0a6;}.k{fill:gray;}.l{fill:#ccc;}</style></defs><rect class="a" x="60" width="75" height="316.30435"/><path class="b" d="M60,334.65217H419s28,4,28,28v420"/><rect class="c" x="110" y="320.65217" width="9" height="29" transform="translate(449.65217 220.65217) rotate(90)"/><rect class="c" x="150" y="320.65217" width="9" height="29" transform="translate(489.65217 180.65217) rotate(90)"/><rect class="c" x="189" y="320.65217" width="9" height="29" transform="translate(528.65217 141.65217) rotate(90)"/><rect class="c" x="229" y="320.65217" width="9" height="29" transform="translate(568.65217 101.65217) rotate(90)"/><rect class="c" x="269" y="320.65217" width="9" height="29" transform="translate(608.65217 61.65217) rotate(90)"/><rect class="c" x="307" y="320.65217" width="9" height="29" transform="translate(646.65217 23.65217) rotate(90)"/><rect class="c" x="347" y="320.65217" width="9" height="29" transform="translate(686.65217 -16.34783) rotate(90)"/><rect class="c" x="387" y="320.65217" width="9" height="29" transform="translate(726.65217 -56.34783) rotate(90)"/><rect class="c" x="425" y="320.65217" width="9" height="29" transform="translate(764.65217 -94.34783) rotate(90)"/><rect class="c" x="442" y="355.65217" width="9" height="29" transform="translate(893 740.30435) rotate(180)"/><rect class="c" x="442" y="394.65217" width="9" height="29" transform="translate(893 818.30435) rotate(180)"/><rect class="c" x="442" y="433.65217" width="9" height="29" transform="translate(893 896.30435) rotate(180)"/><rect class="c" x="442" y="472.65217" width="9" height="29" transform="translate(893 974.30435) rotate(180)"/><rect class="c" x="442" y="511.65217" width="9" height="29" transform="translate(893 1052.30435) rotate(180)"/><rect class="c" x="442" y="550.65217" width="9" height="29" transform="translate(893 1130.30435) rotate(180)"/><rect class="c" x="442" y="589.65217" width="9" height="29" transform="translate(893 1208.30435) rotate(180)"/><rect class="c" x="442" y="628.65217" width="9" height="29" transform="translate(893 1286.30435) rotate(180)"/><rect class="c" x="93.47267" y="289.15217" width="9" height="29"/><rect class="c" x="93.4819" y="249.15217" width="9" height="29"/><rect class="c" x="93.49112" y="209.15217" width="9" height="29"/><rect class="c" x="93.50012" y="170.15217" width="9" height="29"/><rect class="c" x="93.50934" y="130.15217" width="9" height="29"/><rect class="c" x="93.51856" y="90.15218" width="9" height="29"/><rect class="c" x="93.52733" y="52.15218" width="9" height="29"/><polyline class="d" points="80 369.652 97 362.652 94.555 356.946 94 355.652 116 348.652 97 356.652 98 361.652"/><polyline class="d" points="57 240.652 74 233.652 71.555 227.946 71 226.652 93 219.652 74 227.652 75 232.652"/><polyline class="d" points="98 32.652 115 25.652 112.555 19.946 112 18.652 134 11.652 115 19.652 116 24.652"/><polyline class="d" points="328 318.652 345 311.652 342.555 305.946 342 304.652 364 297.652 345 305.652 346 310.652"/><polyline class="d" points="399 370.652 416 363.652 413.555 357.946 413 356.652 435 349.652 416 357.652 417 362.652"/><polyline class="d" points="411 696.652 419.028 689.652 417.873 683.946 417.611 682.652 428 675.652 419.028 683.652 419.5 688.652"/><polyline class="d" points="483 465.652 474.972 458.652 476.127 452.946 476.389 451.652 466 444.652 474.972 452.652 474.5 457.652"/><polyline class="d" points="428 522.652 419.972 515.652 421.127 509.946 421.389 508.652 411 501.652 419.972 509.652 419.5 514.652"/><circle class="e" cx="12.5" cy="349.15217" r="12.5"/><circle class="e" cx="12.5" cy="397.15217" r="12.5"/><circle class="e" cx="12.5" cy="445.15217" r="12.5"/><circle class="e" cx="572.5" cy="650.15217" r="12.5"/><circle class="e" cx="320.5" cy="650.15217" r="12.5"/><circle class="f" cx="547.5" cy="410.15217" r="12.5"/><circle class="f" cx="522.5" cy="650.15217" r="12.5"/><circle class="f" cx="376.5" cy="650.15217" r="12.5"/><circle class="f" cx="345.5" cy="410.15217" r="12.5"/><circle class="g" cx="208.5" cy="145.15217" r="12.5"/><circle class="g" cx="337.5" cy="230.15217" r="12.5"/><circle class="g" cx="522.5" cy="762.15217" r="12.5"/><rect class="h" x="411.45937" y="707.0114" width="69.75859" height="83.71031" rx="12"/><rect class="i" x="429.05067" y="720.35653" width="35.1826" height="55.20028" rx="12"/><rect class="j" x="475.75859" y="709.7411" width="11.24141" height="18.19788" rx="5.6207"/><rect class="j" x="475.75859" y="729.75878" width="11.24141" height="18.19788" rx="5.6207"/><rect class="j" x="475.75859" y="770.40074" width="11.24141" height="18.19788" rx="5.6207"/><rect class="j" x="406" y="709.7411" width="11.24141" height="18.19788" rx="5.6207"/><rect class="j" x="406" y="729.75878" width="11.24141" height="18.19788" rx="5.6207"/><rect class="j" x="406" y="749.77646" width="11.24141" height="18.19788" rx="5.6207"/><rect class="k" x="444.21558" y="670.61561" width="4.85277" height="67.93881" rx="2.42638"/><rect class="k" x="442.39579" y="667.58263" width="8.49235" height="5.45937" rx="2.72968"/><rect class="k" x="442.39579" y="704.58502" width="8.49235" height="27.90344" rx="4.24617"/><rect class="l" x="436.93642" y="727.63568" width="19.41109" height="38.82217" rx="9.70553"/><rect class="j" x="406" y="770.40074" width="11.24141" height="18.19788" rx="5.6207"/><rect class="j" x="475.75859" y="749.77646" width="11.24141" height="18.19788" rx="5.6207"/></svg>