<svg xmlns="http://www.w3.org/2000/svg" xmlns:xlink="http://www.w3.org/1999/xlink" viewBox="0 0 222.66748 222.67"><defs><style>.a{fill:#cab192;}.b{fill:#747c58;}.c{fill:#ededed;}.d{fill:#cecece;}.e{fill:#080808;}.f,.o,.q,.s,.t{fill:none;}.f,.s{stroke:#000;}.f,.o,.p,.q{stroke-linecap:round;}.f,.o,.s,.t{stroke-miterlimit:10;}.g{fill:#27421d;}.h{clip-path:url(#a);}.i{fill:#271d1d;}.j{clip-path:url(#b);}.k{fill:#54593e;}.l{fill:#707171;}.m{clip-path:url(#c);}.n{fill:#525222;}.o,.p,.q{stroke:#27421d;stroke-width:2px;}.p{fill:#284220;}.p,.q{stroke-linejoin:round;}.r{fill:#231f20;}.t{stroke:#080808;}</style><clipPath id="a"><polygon class="a" points="121.156 83.941 120.853 73.264 122.399 70.903 126.471 68.249 129.326 60.908 125.655 58.053 123.85 42.556 110.379 38.069 97.108 42.148 94.696 58.049 92.624 60.057 94.213 67.79 95.837 68.821 95.891 73.143 99.153 77.221 98.944 86.279 94.253 92.342 99.147 109.031 109.342 113.517 122.801 98.836 129.326 89.048 121.156 83.941"/></clipPath><clipPath id="b"><polygon class="b" points="141.248 125.761 140.742 163.074 133.683 165.904 115.582 164.535 93.324 162.805 92.239 161.123 93.324 157.431 82.547 119.617 74.764 107.179 78.255 95.417 94.319 87.608 99.192 82.346 99.506 85.477 99.159 90.917 107.778 105.565 121.349 87.109 121.54 83.061 121.464 81.61 120.897 77.445 125.954 82.404 148.81 91.167 150.846 114.272 141.248 125.761"/></clipPath><clipPath id="c"><path class="b" d="M141.68117,173.655c-.02368-.07288-.10036-4.41045-.17435-4.39044l-2.24093,1.01527c-.01731.0047-1.3154-.05707-1.33322-.059l-46.64119-5.09593c-.06183-.00675-.121,4.323-.14665,4.37971L89.77644,172.529l-.0063.01655-1.6359,5.25745h54.894Z"/></clipPath></defs><circle class="c" cx="111.3335" cy="111.69128" r="108.83386"/><path class="d" d="M111.3335,5.3576c58.48339,0,106.334,47.85008,106.334,106.33358v.00023c0,58.48346-47.85059,106.33358-106.334,106.33358S5,170.17487,5,111.69141v-.00023C5,53.20768,52.8501,5.3576,111.3335,5.3576m0-5A111.20485,111.20485,0,0,0,32.7002,190.325,111.20489,111.20489,0,1,0,189.96729,33.05757,110.54262,110.54262,0,0,0,111.3335.3576Z"/><polygon class="b" points="145.234 87.921 149.374 91.122 156.529 96.364 163.015 143.565 159.442 150.66 151.813 150.462 134.386 110.768 139.613 91.761 145.234 87.921"/><polygon class="b" points="134.296 87.566 138.436 90.767 145.591 96.009 152.077 143.21 148.505 150.304 140.876 150.107 123.448 110.412 128.675 91.405 134.296 87.566"/><path d="M161.18646,121.93849a19.653,19.653,0,0,0-5.20682.93791c-.60938.19821-.34861,1.16414.26584.96428a18.61956,18.61956,0,0,1,4.941-.90219c.641-.0284.64449-1.02856,0-1Z"/><path d="M155.51769,118.372a13.32754,13.32754,0,0,0,1.65237-1.73653,13.74835,13.74835,0,0,0,1.8128-2.52187,2.41552,2.41552,0,0,0,.3299-1.51581.84576.84576,0,0,0-1.03714-.58888.869.869,0,0,0-.58888,1.03715c-.00277-.01831-.04217-.26318-.02262-.13059.00365.02475-.00982.05385-.00461.07764-.01286-.05871.05331-.24916.00749-.09634-.01071.03572-.01865.07228-.02971.108-.01026.03311-.02266.06543-.03368.09826-.04263.127-.00588-.00336.02907-.06286-.04456.07586-.0752.16322-.11588.24167a8.87826,8.87826,0,0,1-.70628,1.109q-.09984.13784-.20257.27354c-.01834.02427-.13123.1712-.05667.07494.073-.09416-.05492.06967-.07706.09766q-.23415.29607-.478.5843-.43942.52039-.90674,1.01657a8.43085,8.43085,0,0,1-.76415.74184.84588.84588,0,0,0,0,1.19237.8668.8668,0,0,0,1.19236,0Z"/><path class="e" d="M147.68112,105.443a13.89463,13.89463,0,0,0-3.74936,10.706c.0896.94,1.57068.94931,1.48019,0a12.45463,12.45463,0,0,1,3.31583-9.65938c.64581-.69872-.39841-1.748-1.04666-1.04665Z"/><path class="e" d="M145.96034,113.20744c.77294-2.316,2.10163-4.41641,2.97-6.71261a.85005.85005,0,0,0-.58888-1.03715.86178.86178,0,0,0-1.03715.58887q-.06234.16488-.12951.32773c.06058-.14788-.06887.15752-.08638.197-.10778.2431-.21987.48428-.33336.72475-.27491.58247-.55852,1.16078-.83664,1.7417a32.5867,32.5867,0,0,0-1.5841,3.72142.84335.84335,0,0,0,1.626.44828Z"/><path class="e" d="M144.75006,109.29273c-.64261,2.99341-1.17375,6.00989-1.81636,9.00331a.84392.84392,0,0,0,1.626.44827c1.81694-4.35319,3.13664-8.90381,4.95358-13.257a.849.849,0,0,0-.58888-1.03715.86369.86369,0,0,0-1.03714.58888c-1.81695,4.35319-3.13664,8.9038-4.95358,13.257l1.626.44827c.64261-2.99342,1.17375-6.00989,1.81636-9.00331.22717-1.05822-1.398-1.51043-1.626-.44827Z"/><path d="M159.98407,124.163a41.57713,41.57713,0,0,0-4.1523,3.88594,14.7458,14.7458,0,0,0-3.22277,4.57134c-.22819.60244.73814.86287.96428.26584a13.9646,13.9646,0,0,1,3.12975-4.30495,41.97,41.97,0,0,1,3.98815-3.71106c.49921-.40656-.212-1.11032-.70711-.70711Z"/><path class="f" d="M152.76709,119.94158s-1.4151,7.53144-.41981,11.4585"/><path class="g" d="M146.81867,137.78586a38.10161,38.10161,0,0,0-2.87734-23.90057c-.41164-.87245-1.70524-.112-1.29521.75708a36.37368,36.37368,0,0,1,2.72613,22.74473c-.19256.94231,1.253,1.34537,1.44642.39876Z"/><polygon class="a" points="121.156 83.941 120.853 73.264 122.399 70.903 126.471 68.249 129.326 60.908 125.655 58.053 123.85 42.556 110.379 38.069 97.108 42.148 94.696 58.049 92.624 60.057 94.213 67.79 95.837 68.821 95.891 73.143 99.153 77.221 98.944 86.279 94.253 92.342 99.147 109.031 109.342 113.517 122.801 98.836 129.326 89.048 121.156 83.941"/><g class="h"><polygon class="i" points="122.81 64.975 129.346 47.814 85.043 -0.355 95.703 63.891 97.253 52.304 98.489 49.328 99.797 44.062 108.894 45.879 119.241 44.444 120.47 49.305 122.738 52.745 122.41 62.321 122.81 64.975"/></g><polygon points="118.179 54.539 118.282 52.456 112.832 51.341 111.624 52.747 118.179 54.539"/><polygon points="105.55 53.234 105.334 51.107 100.498 52.275 99.702 53.828 105.55 53.234"/><path d="M112.657,66.41148a12.06643,12.06643,0,0,1-7.27907,1.19383.89251.89251,0,0,0-1.064.60415.8716.8716,0,0,0,.60415,1.06406,14.06153,14.06153,0,0,0,8.61214-1.36823.86514.86514,0,0,0-.87317-1.49381Z"/><path d="M118.46761,75.79338l-7.6208,4.78515-6.203.01421-4.45416-2.75021,3.52622,7.50527a4.25435,4.25435,0,0,0,1.93306,2.16579h0a4.25433,4.25433,0,0,0,2.017.50851h.21038a4.25432,4.25432,0,0,0,2.74035-1.00014l1.57395-1.32543a4.25432,4.25432,0,0,0,.98734-1.20393l3.51739-6.39526Z"/><path d="M119.66516,73.50527c-2.0788,1.724-4.13688,3.47311-6.20584,5.20885q-.63216.53034-1.26605,1.05863a.87224.87224,0,0,0,0,1.2244.88494.88494,0,0,0,1.22439,0c2.0788-1.724,4.13688-3.47311,6.20584-5.20885q.63216-.53034,1.266-1.05863a.87224.87224,0,0,0,0-1.2244.88492.88492,0,0,0-1.22439,0Z"/><path d="M102.1318,53.82146a4.75813,4.75813,0,0,1,.221.77532q.01175.061.02186.12225.02217.14547-.00422-.04579a.88136.88136,0,0,1,.01942.1853q.017.20119.017.40327,0,.20187-.017.40327c-.00508.05921-.0199.126-.01945.18529-.00177-.23324.00036-.02071-.012.04593a4.7545,4.7545,0,0,1-.22682.80581l1.44705-.382a.52653.52653,0,0,0-.06987-.07986c.02805.01953.1051.14789.03972.05066-.04337-.06449-.08593-.12893-.12376-.19692-.02074-.03726-.11072-.23537-.05793-.10443.0533.1322-.02562-.07428-.03843-.11361a3.06918,3.06918,0,0,1-.1053-.43156c-.006-.03476-.0094-.07032-.01641-.10486.00726.03574.02145.19146.01163.071-.00657-.08078-.014-.16124-.01791-.24223a7.1787,7.1787,0,0,1,.02014-.90369c.01118-.14467.02523-.2891.0406-.43339.00408-.03834.02375-.20332.00253-.03407-.01923.15332-.00637.0416.00675.00885q.02029-.06471-.0201.04457-.109.36-.65855.04574-.54995.26972-.66559-.09744a.71.71,0,0,1,.16416-.81585l.382-.22266.184-.0278a.86854.86854,0,0,0-.86578.86577.88948.88948,0,0,0,.86578.86578.93892.93892,0,0,0,.90621-1.20331.99157.99157,0,0,0-1.19563-.71154c-.82116.21473-.84,1.1385-.88586,1.82488a4.17179,4.17179,0,0,0,.8732,3.17038.86075.86075,0,0,0,.84236.22265.90122.90122,0,0,0,.60469-.60469,5.504,5.504,0,0,0,.00028-3.80129.88536.88536,0,0,0-1.065-.60469.87579.87579,0,0,0-.6047,1.065Z"/><path d="M114.26889,53.48094a4.75824,4.75824,0,0,1,.221.77533q.01175.061.02186.12225.02217.14547-.00422-.04579a.88127.88127,0,0,1,.01942.18529q.017.20119.017.40327,0,.20187-.017.40327c-.00508.05921-.0199.126-.01945.1853-.00177-.23325.00036-.02072-.012.04592a4.75461,4.75461,0,0,1-.22682.80582l1.44705-.382a.52605.52605,0,0,0-.06987-.07986c.02805.01952.1051.14788.03972.05065-.04337-.06449-.08593-.12893-.12376-.19691-.02074-.03726-.11072-.23537-.05793-.10444.0533.13221-.02562-.07427-.03843-.1136a3.06932,3.06932,0,0,1-.1053-.43157c-.006-.03476-.0094-.07032-.01641-.10486.00726.03574.02145.19147.01163.071-.00658-.08078-.014-.16124-.01792-.24223a7.18043,7.18043,0,0,1,.02015-.90368c.01118-.14467.02523-.28911.0406-.43339.00408-.03835.02375-.20333.00252-.03408-.01922.15332-.00636.0416.00676.00886q.02029-.06473-.0201.04457-.10905.36-.65855.04573-.54995.26972-.66559-.09743a.71.71,0,0,1,.16416-.81586l.382-.22265.18395-.02781a.86854.86854,0,0,0-.86577.86578.88949.88949,0,0,0,.86577.86578.93893.93893,0,0,0,.90622-1.20332.99157.99157,0,0,0-1.19563-.71153c-.82116.21472-.84,1.13849-.88586,1.82488a4.17174,4.17174,0,0,0,.8732,3.17037.86076.86076,0,0,0,.84236.22266.90121.90121,0,0,0,.60469-.6047,5.504,5.504,0,0,0,.00028-3.80129.88536.88536,0,0,0-1.065-.60469.87579.87579,0,0,0-.6047,1.065Z"/><path d="M125.62945,62.936l-2.13492,1.0844a.86592.86592,0,0,0,.874,1.49515l2.13492-1.0844a.86592.86592,0,1,0-.87395-1.49515Z"/><path d="M124.41367,62.07722l-1.31879,2.4203a.86592.86592,0,1,0,1.49515.874l1.31879-2.4203a.86592.86592,0,0,0-1.49515-.874Z"/><path d="M128.22963,60.6959a6.32872,6.32872,0,0,0-3.64123,1.2227.94654.94654,0,0,0-.39788.51742.88482.88482,0,0,0,.08728.66713.8749.8749,0,0,0,1.18455.3106,5.55779,5.55779,0,0,1,.68927-.4434c.12852-.0695.26018-.1314.39278-.19256q.12805-.05556-.05575.0232.05067-.02061.10174-.04021.08937-.03432.17991-.06545a5.51579,5.51579,0,0,1,.79264-.2089.84989.84989,0,0,0,.18877-.03163q-.20991.02694-.06755.00918.05431-.00643.10874-.01176c.14526-.01421.29084-.02175.43673-.02477a.86578.86578,0,1,0,0-1.73155Z"/><polygon points="92.524 176.924 141.447 171.192 141.667 159.615 93.232 159.573 92.524 176.924"/><polygon class="b" points="141.248 125.761 140.742 163.074 133.683 165.904 115.582 164.535 93.324 162.805 92.239 161.123 93.324 157.431 82.547 119.617 74.764 107.179 78.255 95.417 94.319 87.608 99.192 82.346 99.506 85.477 99.159 90.917 107.778 105.565 121.349 87.109 121.54 83.061 121.464 81.61 120.897 77.445 125.954 82.404 148.81 91.167 150.846 114.272 141.248 125.761"/><g class="j"><polyline class="k" points="92.624 165.125 96.603 157.95 83.806 122.114"/></g><polygon class="k" points="140.339 163.236 139.852 142.491 139.858 128.088 140.785 128.361 141.03 163.025 140.339 163.236"/><path d="M85.92364,120.48471a31.75076,31.75076,0,0,1,.728,5.33978c.05028.8712.07914,1.74349.1069,2.61564a8.65163,8.65163,0,0,0,.15943,2.489,2.83278,2.83278,0,0,0,.86254,1.12862,3.3689,3.3689,0,0,0,1.858.504c1.66828.23669,3.33275.46779,5.00973.63809a33.6725,33.6725,0,0,0,5.78358.18686,2.442,2.442,0,0,0,2.41784-1.63078,37.88606,37.88606,0,0,0,.82249-6.77424,56.56053,56.56053,0,0,1,.92221-7.92022c.21888-.93915-1.227-1.34-1.44642-.39876-.96475,4.13942-.87992,8.51279-1.41531,12.718-.082.64427-.05721,1.76706-.5251,2.24156-.42009.426-1.23652.29879-1.795.31344-.90784.02382-1.81659-.00448-2.72269-.06214-1.72128-.10953-3.44759-.29537-5.15518-.53761-.58678-.08324-1.17214-.17617-1.75923-.25737-.54236-.075-1.15852-.02129-1.41909-.61016a4.01436,4.01436,0,0,1-.07285-1.23809c-.01353-.41962-.026-.83928-.04-1.25888-.02906-.86775-.06253-1.73547-.1201-2.60187a33.21479,33.21479,0,0,0-.75328-5.28358c-.21722-.94016-1.66383-.54221-1.44642.39876Z"/><path d="M116.48427,119.29046q.36426,2.85686.69929,5.71742c.16486,1.40533.326,2.81132.46647,4.21933a2.439,2.439,0,0,0,1.88734,2.325,46.93383,46.93383,0,0,0,5.14788.36941c1.91679.09566,3.83914.15347,5.75738.06531,1.4495-.06661,3.23655.07243,4.22-1.18337.68718-.87748.5982-2.42454.6669-3.49029.21625-3.355-.03429-6.8218.58526-10.13778.17629-.94353-1.26907-1.34795-1.44641-.39876a50.04418,50.04418,0,0,0-.51378,7.642c-.04155,1.34507-.08429,2.69319-.21508,4.03314a3.53046,3.53046,0,0,1-.26577,1.44155c-.37831.57994-1.34867.47928-1.95478.52725a59.39894,59.39894,0,0,1-9.84691-.20707,6.97845,6.97845,0,0,1-2.02164-.18883c-.538-.259-.50075-.80987-.55274-1.31133-.12817-1.23624-.2693-2.47115-.41413-3.70554q-.33561-2.86037-.69929-5.71742c-.12044-.94452-1.622-.95655-1.5,0Z"/><polygon class="b" points="108.408 163.956 108.408 176.627 105.402 176.627 105.402 162.023 108.408 162.023 108.408 163.956"/><polygon class="b" points="99.205 163.956 99.205 176.627 96.198 176.627 96.198 162.023 99.205 162.023 99.205 163.956"/><polygon class="b" points="121.938 162.171 121.938 176.56 125.248 176.56 125.248 160.238 121.938 160.238 121.938 162.171"/><rect class="b" x="136.25927" y="159.57323" width="3.00662" height="14.38883"/><path d="M92.044,100.97693a6.39318,6.39318,0,0,1,2.74793-3.5637,13.14679,13.14679,0,0,1,3.64418-1.23139l-1.02973-.419a14.203,14.203,0,0,1,1.24281,3.788c.14868.89582,1.10531,1.48747,1.75414,2.04025,1.11105.94659,2.23713,1.87565,3.33574,2.83679.48509.42439.96955.85207,1.42774,1.30566.15329.15176.30254.30665.44572.468.151.17012-.0112.04823.05747.07229a.90946.90946,0,0,1,.04849.08195q-.28392-.52415.30939-1.05235c-.96182.65979-.05075,2.24088.92043,1.57467.98252-.674.29252-1.62859-.31318-2.25418-.76833-.79356-1.62366-1.50778-2.4626-2.22439-.93389-.79771-1.88068-1.5803-2.81136-2.38177-.3014-.25955-.60074-.52125-.88957-.79477a1.509,1.509,0,0,0-.12768-.128c-.11871-.08691,0-.081-.02517-.019.0078-.0192.11182.44487.1519.29758a1.63919,1.63919,0,0,0-.07008-.57791,15.65388,15.65388,0,0,0-1.41952-3.95327.92627.92627,0,0,0-1.02974-.419A13.42174,13.42174,0,0,0,93.551,96.026a8.56662,8.56662,0,0,0-3.26549,4.46614c-.40868,1.10185,1.35326,1.5774,1.75851.48479Z"/><path d="M98.99979,97.63a21.23406,21.23406,0,0,0-4.06906.47954,25.99841,25.99841,0,0,0-3.78519,1.22993.93948.93948,0,0,0-.63685,1.12166.9183.9183,0,0,0,1.12165.63685,26.3931,26.3931,0,0,1,3.67185-1.2039,18.49009,18.49009,0,0,1,3.6976-.44043c1.171-.034,1.17586-1.85781,0-1.82365Z"/><path d="M96.01919,85.29758C93.46,87.56052,92.15294,91.023,91.33076,94.25363a33.78846,33.78846,0,0,0-.99486,5.88929c-.08341,1.1711,1.74062,1.16585,1.82365,0a30.47784,30.47784,0,0,1,.8908-5.24993c.74671-2.99455,1.88432-6.20669,4.25836-8.30589.881-.779-.41278-2.06477-1.28952-1.28952Z"/><path d="M142.99562,128.91082a14.50913,14.50913,0,0,0-2.90464-4.61547,7.50254,7.50254,0,0,0-4.29209-2.17225.8323.8323,0,0,0-.98919.56165.8097.8097,0,0,0,.56164.98918,7.1007,7.1007,0,0,1,1.12781.24054,4.21018,4.21018,0,0,1,.90648.36894,5.79281,5.79281,0,0,1,1.608,1.20961,13.67545,13.67545,0,0,1,2.59332,4.22953.80919.80919,0,0,0,1.10022.28849.82523.82523,0,0,0,.28848-1.10022Z"/><path class="e" d="M77.8592,113.58738a13.46124,13.46124,0,0,1,4.931,9.88323c.03042,1.02783,1.63135,1.03217,1.6008,0a15.02131,15.02131,0,0,0-5.39991-11.01517c-.78353-.65918-1.92158.46762-1.13194,1.13194Z"/><path class="e" d="M139.15806,124.809c-.94982,1.59889-1.48792,3.40433-2.43774,5.00322a.80427.80427,0,1,0,1.3887.81173c.94982-1.59889,1.48792-3.40433,2.43774-5.00322a.80427.80427,0,1,0-1.3887-.81173Z"/><path class="e" d="M142.99562,128.91082a5.09364,5.09364,0,0,0-3.03513-2.07441,1.45312,1.45312,0,0,0-.79.0153,2.13726,2.13726,0,0,0-.7144.4599,6.77333,6.77333,0,0,0-.98438,1.23376,12.96819,12.96819,0,0,0-.7514,1.26685.80427.80427,0,1,0,1.3887.81173,12.9847,12.9847,0,0,1,.7347-1.24185q.11654-.17529.23953-.3462c.0244-.03375.18734-.24653.05093-.073.04672-.05944.09386-.1185.14252-.17636.07874-.09362.16037-.18506.24733-.27116.03376-.03342.06976-.06449.10361-.09774.14995-.14733-.09892.0482.00449-.007a.52645.52645,0,0,0,.11169-.06715c.0298-.03195-.21185.06115-.05657.02941q-.24974.02452-.12952.01874.10229.00623-.09617-.01638a.54069.54069,0,0,1,.145.02669,3.14506,3.14506,0,0,1,.39994.11752c.04.01441.24914.10431.06546.02185.079.03547.15755.07163.23484.11075q.21169.10716.41257.23412.10261.06494.20178.135.04286.02993.08479.06112-.10507-.08336.00244.00259a4.58646,4.58646,0,0,1,.35548.32776c.06224.06529.12192.13311.17831.20352-.11819-.14759.04583.07656.06473.10637a.80427.80427,0,1,0,1.3887-.81173Z"/><path class="e" d="M141.48857,126.814a1.72314,1.72314,0,0,0-1.13069-.40408c-.24989-.01191-.50149.00749-.75017-.02584l.21378.02873a.98341.98341,0,0,1-.2346-.06116l.19209.08107a.57951.57951,0,0,1-.11742-.06918l.16274.12574-.02541-.02191-1.13722,1.13722a3.39116,3.39116,0,0,0,.46811.35646,1.09535,1.09535,0,0,0,.89643.11865.85626.85626,0,0,0,.48058-.36955.79825.79825,0,0,0,.08106-.61964l-.405-1.14627-1.344.78238.93914,1.12787a.80806.80806,0,0,0,.56861.23553.81833.81833,0,0,0,.56861-.23553.80913.80913,0,0,0,.23553-.56861l-.02872-.21378a.80342.80342,0,0,0-.20681-.35484l-.93913-1.12786-.16275-.12574a.59859.59859,0,0,0-.299-.09543.76892.76892,0,0,0-.51275.09543.96068.96068,0,0,0-.28849.28849.80658.80658,0,0,0-.08106.61963l.405,1.14627.56165-.98918a.31277.31277,0,0,1-.06217.01775l.21377-.02872a.35149.35149,0,0,1-.06365-.0003l.21378.02873a.46127.46127,0,0,1-.08616-.0236l.19209.08107a.9438.9438,0,0,1-.19248-.1175l.16275.12574c-.06035-.04686-.11842-.0965-.17771-.14467a.86829.86829,0,0,0-.56861-.23553.81829.81829,0,0,0-.56861.23553.80413.80413,0,0,0,0,1.13722,1.72315,1.72315,0,0,0,1.13069.40408c.24988.01191.50149-.00749.75016.02584l-.21377-.02873a.98364.98364,0,0,1,.2346.06115l-.1921-.08106a.57986.57986,0,0,1,.11743.06918l-.16275-.12574.02541.02191a.84775.84775,0,0,0,.56861.23553.81836.81836,0,0,0,.56862-.23553.80415.80415,0,0,0,0-1.13722Z"/><path class="e" d="M135.62429,158.88951c-1.17072.64247-2.26841,1.40676-3.43985,2.0472a39.8295,39.8295,0,0,1-6.21391,2.55391c-1.10326.3795-.62924,2.14172.4848,1.75851a43.24806,43.24806,0,0,0,6.58093-2.70041c1.19682-.64842,2.315-1.42957,3.50846-2.08454,1.02914-.56477.11-2.14016-.92043-1.57467Z"/><path d="M134.51429,108.56562q-10.24888,1.41915-20.56507,2.23358c-1.16232.09113-1.17215,1.91556,0,1.82365q10.55988-.828,21.04987-2.29872c1.15744-.16027.6648-1.9177-.4848-1.75851Z"/><path d="M113.16538,111.55391a10.78,10.78,0,0,0-.9407,3.50484,31.91415,31.91415,0,0,1-.44792,3.2825.93153.93153,0,0,0,.63686,1.12166.922.922,0,0,0,1.12165-.63686c.48537-2.10934.24392-4.394,1.20478-6.35171a.93533.93533,0,0,0-.32712-1.24755.92031.92031,0,0,0-1.24755.32712Z"/><path d="M134.05873,109.80189a21.178,21.178,0,0,1-.1181,8.08924.93385.93385,0,0,0,.63686,1.12165.921.921,0,0,0,1.12165-.63685,23.5649,23.5649,0,0,0,.1181-9.05884.91986.91986,0,0,0-1.12165-.63686.932.932,0,0,0-.63686,1.12166Z"/><path d="M134.66743,117.37316l-2.03631.43483a.912.912,0,0,0-.21782,1.66659.9969.9969,0,0,0,.70262.09192l2.03631-.43483a.912.912,0,0,0,.21781-1.66659.99686.99686,0,0,0-.70261-.09192Z"/><path class="e" d="M107.12122,163.05253a14.4192,14.4192,0,0,1,.95578-4.49431,24.85475,24.85475,0,0,0,1.1757-5.61081c.25149-3.16895.2448-6.37205.26675-9.54878.05229-7.56819-.0896-15.13732-.23572-22.70377-.06822-3.53225-.14558-7.06443-.19476-10.597a.91238.91238,0,0,0-1.82366,0c.19254,13.82807.90323,27.71895.23911,41.54208a24.36849,24.36849,0,0,1-1.13881,6.28575,16.54231,16.54231,0,0,0-1.068,5.12686.91238.91238,0,0,0,1.82366,0Z"/><path d="M103.105,112.93181a11.07789,11.07789,0,0,1-1.56721,7.02886c-.5668,1.02857,1.0075,1.94967,1.57467.92044a13.06118,13.06118,0,0,0,1.751-8.4341.91839.91839,0,0,0-1.12165-.63685.93435.93435,0,0,0-.63686,1.12165Z"/><path d="M103.34454,111.95873a64.229,64.229,0,0,0-17.5314,1.77066c-1.14.27637-.65726,2.03538.4848,1.75851a62.35487,62.35487,0,0,1,17.0466-1.70552c1.17368.044,1.17183-1.77975,0-1.82365Z"/><path d="M85.47272,114.55872a13.29592,13.29592,0,0,1-.76685,5.53342.91719.91719,0,0,0,.63686,1.12166.935.935,0,0,0,1.12165-.63686,15.00939,15.00939,0,0,0,.832-6.01822.91183.91183,0,1,0-1.82365,0Z"/><path d="M102.412,119.35634c-.09473.02069-.3168.05158-.08146.019-.16744.02314-.33623.03837-.50439.05506-.50112.04975-1.00334.08894-1.50541.12753-1.39907.10755-2.79935.19944-4.19954.291-3.08085.20141-6.1635.382-9.24223.61438a20.35306,20.35306,0,0,0-2.786.28276c-1.14605.25024-.66106,2.00871.4848,1.75851.09516-.02078.31672-.04856.08145-.019.16783-.02106.33609-.03835.5044-.05506.50111-.04975,1.00333-.08894,1.5054-.12754,1.39907-.10754,2.79936-.19943,4.19954-.291,3.08085-.20142,6.1635-.382,9.24223-.61438a20.35305,20.35305,0,0,0,2.786-.28277c1.14605-.25023.66106-2.0087-.4848-1.75851Z"/><line class="l" x1="99.4885" y1="98.58216" x2="95.19179" y2="99.35673"/><path d="M98.46571,95.37919a7.77561,7.77561,0,0,0-6.87187,3.91455l.0716.81236,6.75707-1.73858.90484.24463Z"/><path d="M127.077,94.23606c-1.4595.06265-2.91243.23726-4.36446.39-.71894.07561-1.43823.14939-2.159.206-.33642.02642-.67337.05037-1.01057.0645a.7405.7405,0,0,0-.22.00667c.21018-.12622.32863.989.51928.40577.07186-.21978.14748-.43842.2212-.65759l-1.79108-.2424a1.93026,1.93026,0,0,0,.71329,1.75594,1.4427,1.4427,0,0,0,1.97618-.39337,1.4192,1.4192,0,0,0-.45646-1.95462,1.12742,1.12742,0,0,0-1.66,1.08383,1.51436,1.51436,0,0,0,1.5075,1.357,4.22587,4.22587,0,0,0,1.38473-.15478c.48332-.116.95694-.26874,1.43955-.38752.09922-.02442.19879-.04787.29886-.06853.0351-.00725.39214-.05705.22639-.042.08572-.00777.17108-.011.25714-.01255q.07965.00041.15891.00826-.17658-.02457-.02581.00861a.91262.91262,0,0,0,.4848-1.75851c-1.23205-.40875-2.60589-.07352-3.87249-.12562-1.17352-.04827-1.1713,1.77548,0,1.82366.592.02435,1.18577-.02986,1.77725-.049.31647-.01022.63379-.016.95019-.0008a1.74033,1.74033,0,0,1,.66025.11025l.4848-1.75851a4.703,4.703,0,0,0-2.39964.24338c-.37232.10352-.74343.21481-1.12164.29537-.0937.02-.18876.04-.28368.05347.17173-.02429-.09622.00406-.10855.0045a1.77837,1.77837,0,0,1-.23755-.00458l.09848.0112q-.56222-.20578-.11105.89573h-.92043q-.03315-.09054-.07269-.17855-.20655-.32838.2598-.57786l.30871.05433a.23167.23167,0,0,1,.12453.13762c.02293.00971-.01921-.123-.0147-.05466-.00707-.10722-.00569-.2143-.003-.32165a.91626.91626,0,0,0-1.79108-.2424,3.02281,3.02281,0,0,0-.31167,1.55208,1.29127,1.29127,0,0,0,1.27532,1.00479,17.475,17.475,0,0,0,2.50682-.17769c1.76517-.174,3.52834-.40992,5.30159-.486,1.16911-.05019,1.17539-1.87411,0-1.82366Z"/><path class="b" d="M141.68117,173.655c-.02368-.07288-.10036-4.41045-.17435-4.39044l-2.24093,1.01527c-.01731.0047-1.3154-.05707-1.33322-.059l-46.64119-5.09593c-.06183-.00675-.121,4.323-.14665,4.37971L89.77644,172.529l-.0063.01655-1.6359,5.25745h54.894Z"/><g class="m"><rect class="k" x="67.76703" y="155.84331" width="25.42723" height="23.86466"/></g><path class="b" d="M142.9263,210.806h0a.14383.14383,0,0,0,.24684.13593l.03408-.04.00025-.05257A.14382.14382,0,0,0,142.9263,210.806Z"/><path d="M107.5918,177.323c.76182-2.92108,1.6503-5.80567,2.56556-8.68171.35673-1.12095-1.40336-1.60077-1.75851-.4848-.91526,2.876-1.80374,5.76062-2.56556,8.68171a.91261.91261,0,0,0,1.75851.4848Z"/><path d="M104.52862,177.44911c.39883-1.66029.68466-3.32217,1.18715-4.96023.13656-.44515.28169-.88781.43992-1.32575.15871-.43929.26162-.70843.43149-1.075a8.31938,8.31938,0,0,1,.51256-.93711c.03005-.04774.16812-.20724.01734-.032.03955-.046.08015-.09057.12-.13616a1.38275,1.38275,0,0,1,.11987-.11186c-.19463.17533-.06026.05116.01425.01447a.92087.92087,0,0,0,.32712-1.24755.9305.9305,0,0,0-1.24756-.32712,3.50292,3.50292,0,0,0-1.3606,1.69281,19.99551,19.99551,0,0,0-1.03635,2.69094c-.55183,1.73839-.85938,3.50326-1.28372,5.2698-.274,1.14057,1.48407,1.62727,1.7585.4848Z"/><path class="e" d="M77.27317,113.10222a13.42908,13.42908,0,0,1,1.00074,1.04135q.12114.14085.23834.285c.0347.04273.069.08578.10331.12884.16433.20625-.04591-.0625.04539.05844q.22391.29661.43156.60492a13.19468,13.19468,0,0,1,.739,1.241q.16271.31094.30873.6302c.02862.06258.05646.1255.08441.18838.01985.04467.04738.11006.01252.027.05326.1269.10324.25516.1524.3837a.86029.86029,0,0,0,1.0341.58714.8501.8501,0,0,0,.58714-1.0341,14.25713,14.25713,0,0,0-3.54873-5.33076.84065.84065,0,0,0-1.18886,1.18886Z"/><path d="M78.85909,98.39425c4.31346-.01756,8.57926-.99878,12.89271-1.01634a.75045.75045,0,0,0,0-1.5c-4.31345.01756-8.57925.99878-12.89271,1.01634a.75045.75045,0,0,0,0,1.5Z"/><path d="M79.5823,97.84364c.05833-.15515-.08672.18808-.01762.03958.02405-.05168.04824-.10323.07373-.15423.05919-.11844.1223-.23494.18683-.35055.15641-.28023.32189-.55539.49009-.82867.31126-.50572.6333-1.00485.96061-1.50031q.10561-.15987.21228-.319a.75491.75491,0,0,0-.26906-1.02615.768.768,0,0,0-1.02614.26907c-.56912.84573-1.13,1.70318-1.6311,2.59123a6.34448,6.34448,0,0,0-.426.88031.75349.75349,0,0,0,.52383.92259.7705.7705,0,0,0,.92259-.52383Z"/><path d="M129.97274,90.4998l7.25841,1.73744c.86364.20672,1.23217-1.12428.367-1.33137l-7.25841-1.73743c-.86364-.20673-1.23217,1.12428-.367,1.33136Z"/><polygon class="n" points="125.928 95.33 130.829 97.192 130.116 93.509 137.174 94.409 135.135 99.497 134.75 107.453 131.223 106.973 128.961 105.828 126.736 103.804 125.752 100.695 125.928 95.33"/><path d="M138.80467,94.32514c-1.38439,3.65131-2.90191,5.73016-2.01726,9.53358a15.15111,15.15111,0,0,1,.61775,3.06161c-.05941.69038-2.40728,1.48869-2.65513.53241-1.03829-4.006-.7214-9.62307,1.40435-13.17376"/><path d="M130.72137,102.28545a20.74994,20.74994,0,0,0,2.7816-2.31508c.8574-.8003,1.688-1.62925,2.55065-2.42385a.75.75,0,1,0-1.06066-1.06066c-.84411.7775-1.65723,1.58819-2.49532,2.37216-.45688.42736-.91869.84991-1.39447,1.25623-.21612.18457-.43509.366-.65958.54031.10028-.07787.01218-.01-.0383.02761q-.06843.051-.13773.10094-.14917.10721-.30327.20714a.76648.76648,0,0,0-.26907,1.02614.75806.75806,0,0,0,1.02615.26906Z"/><polygon class="n" points="131.463 86.559 136.491 88.022 140.929 89.577 139.201 86.809 132.615 85.901 129.847 85.893 131.463 86.559"/><path d="M125.309,83.04851c3.06284,3.79331,3.90345,9.41623,4.3461,14.12592l1.55658-.64476c-3.205-3.11607-7.84661-2.75627-11.89867-3.77062a.92669.92669,0,0,0-1.02973.419,18.68026,18.68026,0,0,0-1.45413,7.07246l1.15422-.87926c-3.83912-.77052-7.191,3.35848-9.8721,5.47036-.92131.72571.37708,2.00824,1.28952,1.28952,1.31458-1.03549,2.52132-2.20235,3.85912-3.20944,1.12282-.84526,2.73585-2.09355,4.23866-1.79193a.92788.92788,0,0,0,1.15423-.87925,16.368,16.368,0,0,1,1.20515-6.152l-1.02974.419c3.64275.91188,8.21856.506,11.094,3.30162.52335.50884,1.63382.177,1.55658-.64475-.49426-5.25885-1.4696-11.19139-4.88023-15.41544-.7374-.91326-2.02057.38412-1.28952,1.28952Z"/><path d="M129.93277,93.74382a58.75192,58.75192,0,0,0,5.84609,1.05772c1.40575.20719,2.87148.30944,4.2534.65009.9372.231,1.337-1.21513.39876-1.44642-1.38191-.34064-2.84766-.44288-4.2534-.65009a58.76,58.76,0,0,1-5.84609-1.05772.75065.75065,0,0,0-.39876,1.44642Z"/><path d="M128.38174,86.616c2.07568.56609,4.12189,1.25813,6.15944,1.94635a52.98494,52.98494,0,0,1,6.01254,2.23673c.866.4162,1.62777-.87677.75708-1.29521a55.0715,55.0715,0,0,0-6.22052-2.33709c-2.087-.70684-4.18317-1.41722-6.30978-1.9972a.75064.75064,0,0,0-.39876,1.44642Z"/><path d="M112.92058,120.03079a133.01513,133.01513,0,0,0,19.73418-.52813c1.1561-.11852,1.1683-1.94342,0-1.82366a133.01238,133.01238,0,0,1-19.73418.52813c-1.17326-.05433-1.17052,1.76945,0,1.82366Z"/><path d="M107.45031,53.88234a2.41879,2.41879,0,0,1-.1223,1.70226,9.09525,9.09525,0,0,1-.67174,1.46491,32.882,32.882,0,0,1-1.912,2.94719.65426.65426,0,0,0,.23266.8873.662.662,0,0,0,.88729-.23266,29.52731,29.52731,0,0,0,2.07184-3.24509c.58187-1.11687,1.26-2.60871.76494-3.86871a.66807.66807,0,0,0-.79776-.453.65317.65317,0,0,0-.453.79775Z"/><path d="M105.499,58.98628a2.25331,2.25331,0,0,0-1.02581,1.95585,2.46506,2.46506,0,0,0,1.16523,2.14878,4.80819,4.80819,0,0,0,2.81339.93319,5.14068,5.14068,0,0,0,1.5268-.337,3.18162,3.18162,0,0,0,1.29528-.74617,1.77974,1.77974,0,0,0,.46322-1.52563.98369.98369,0,0,0-1.02395-.96952.66314.66314,0,0,0-.64852.64852.65441.65441,0,0,0,.64852.64852q.2997.00377-.25653-.20906-.03432-.09693-.01339-.02457c-.01134.1.02056.05364.02824.1445a.42292.42292,0,0,1-.0807.32876,1.712,1.712,0,0,1-.85817.4901,3.61271,3.61271,0,0,1-1.29482.25527,3.18212,3.18212,0,0,1-1.13405-.30637,3.54538,3.54538,0,0,1-.89217-.51731,1.55044,1.55044,0,0,1-.33185-.377q-.03583-.05736-.06594-.118.03891.10153,0-.00831a1.41029,1.41029,0,0,1-.04375-.18446c.01853.11472-.00238-.09323-.00249-.09716-.002-.071,0-.142.00456-.21286a.491.491,0,0,1,.02087-.151c.018-.08255.03754-.16427.06337-.24482a.80453.80453,0,0,1,.13586-.2797c.07706-.11751-.03594.02015.05569-.06288q.085-.07632.00567-.00848a.70256.70256,0,0,1,.10008-.05323.65447.65447,0,0,0,.23265-.8873.66242.66242,0,0,0-.88729-.23265Z"/><path class="o" d="M120.45931,119.29046s6.69434,25.60623,15.62505,23.94877,7.7557-10.43617,7.7557-10.43617"/><path class="o" d="M140.07512,94.409s3.45754-5.23622,3.63284-5.25875"/><path class="o" d="M139.54957,94.601s1.02993-5.55512,2.76653-5.91977"/><ellipse class="p" cx="140.28666" cy="102.65991" rx="1.63141" ry="0.87363" transform="translate(-28.27413 145.16478) rotate(-50.34902)"/><ellipse class="p" cx="140.43234" cy="104.92213" rx="1.63141" ry="0.87363" transform="translate(-29.9632 146.09562) rotate(-50.34902)"/><ellipse class="p" cx="140.52301" cy="107.34177" rx="1.63141" ry="0.87363" transform="translate(-31.79338 147.04107) rotate(-50.34902)"/><ellipse class="p" cx="140.60151" cy="109.99592" rx="1.63141" ry="0.87363" transform="translate(-33.80852 148.06203) rotate(-50.34902)"/><ellipse class="p" cx="140.46379" cy="112.59947" rx="1.63141" ry="0.87363" transform="matrix(0.63811, -0.76995, 0.76995, 0.63811, -35.86295, 148.89819)"/><ellipse class="p" cx="140.46963" cy="115.07282" rx="1.63141" ry="0.87363" transform="translate(-37.76518 149.79777) rotate(-50.34902)"/><ellipse class="p" cx="140.73244" cy="117.69265" rx="1.63141" ry="0.87363" transform="translate(-39.6872 150.94821) rotate(-50.34902)"/><ellipse class="p" cx="140.82518" cy="120.3494" rx="1.63141" ry="0.87363" transform="translate(-41.69919 151.98107) rotate(-50.34902)"/><ellipse class="p" cx="141.33358" cy="123.13788" rx="1.63141" ry="0.87363" transform="translate(-43.66219 153.38164) rotate(-50.34902)"/><ellipse class="p" cx="141.70233" cy="125.67083" rx="1.63141" ry="0.87363" transform="translate(-45.47897 154.58221) rotate(-50.34902)"/><ellipse class="p" cx="142.26977" cy="128.36066" rx="1.63141" ry="0.87363" transform="translate(-47.34464 155.99253) rotate(-50.34902)"/><path class="p" d="M144.03232,129.78318c.21852.4692-.13022,1.33317-.77892,1.92974s-1.35171.69983-1.57023.23063.5266-1.63686,1.1753-2.23343S143.81381,129.314,144.03232,129.78318Z"/><ellipse class="p" cx="143.90417" cy="133.05302" rx="1.63141" ry="0.87363" transform="translate(-50.36603 158.94905) rotate(-50.34902)"/><ellipse class="p" cx="144.96821" cy="135.2306" rx="1.63141" ry="0.87363" transform="translate(-51.65758 160.55635) rotate(-50.34902)"/><ellipse class="p" cx="145.94973" cy="137.01915" rx="1.63141" ry="0.87363" transform="translate(-52.67946 161.95933) rotate(-50.34902)"/><path class="q" d="M139.54957,101.56208l.48987-8.71909.958.10623c.26833.05154.49913.448.49351.84773l-.89221,6.9868Z"/><path d="M139.31128,102.38383c.02553.02962.05036.05951.07472.09009l-.11727-.15179a1.62967,1.62967,0,0,1,.20845.35075l-.07561-.17916a1.23331,1.23331,0,0,1,.07573.27892l-.02679-.19938a1.1519,1.1519,0,0,1,.0012.26494l.02679-.19938a1.297,1.297,0,0,1-.08738.3207l.07561-.17916a1.87477,1.87477,0,0,1-.23492.39324l.11727-.15179a8.46847,8.46847,0,0,1-.73425.71808.75.75,0,0,0,1.06066,1.06066c.12213-.12312.26313-.22764.38989-.34608a3.40729,3.40729,0,0,0,.59158-.71252,1.968,1.968,0,0,0,.30111-1.08766,2.19068,2.19068,0,0,0-.58613-1.33112.7538.7538,0,0,0-1.06066,0,.7689.7689,0,0,0,0,1.06066Z"/><path d="M139.72774,104.819c.02553.02962.05035.05951.07471.0901l-.11727-.15179a1.6292,1.6292,0,0,1,.20845.35074l-.0756-.17916a1.234,1.234,0,0,1,.07572.27892l-.02679-.19938a1.15135,1.15135,0,0,1,.0012.26494l.0268-.19938a1.29747,1.29747,0,0,1-.08738.32071l.0756-.17916a1.87534,1.87534,0,0,1-.23491.39323l.11727-.15179a8.47015,8.47015,0,0,1-.73426.71809.75.75,0,0,0,1.06066,1.06066c.12213-.12313.26314-.22764.3899-.34608a3.40736,3.40736,0,0,0,.59157-.71253,1.96778,1.96778,0,0,0,.30111-1.08766,2.1907,2.1907,0,0,0-.58612-1.33112.75381.75381,0,0,0-1.06066,0,.76888.76888,0,0,0,0,1.06066Z"/><path d="M139.95884,107.71792c.03933.04285.07683.08678.11263.1326l-.11727-.15179a1.39972,1.39972,0,0,1,.16755.28463l-.07561-.17916a1.06851,1.06851,0,0,1,.06757.24886l-.02679-.19938a1.00715,1.00715,0,0,1-.00072.23779l.02679-.19938a1.15422,1.15422,0,0,1-.074.26851l.07561-.17916a1.67524,1.67524,0,0,1-.21735.36264l.11727-.15179a7.20754,7.20754,0,0,1-.78343.73256.75673.75673,0,0,0,0,1.06066.76537.76537,0,0,0,1.06066,0c.22114-.20917.47238-.378.67745-.60625a2.03512,2.03512,0,0,0,.60434-1.62527,2.00932,2.00932,0,0,0-.554-1.09673.75572.75572,0,0,0-1.06067,0,.76647.76647,0,0,0,0,1.06066Z"/><path d="M140.117,110.77224a1.44082,1.44082,0,0,1,.1616.17206l-.11727-.15179a.947.947,0,0,1,.11174.18827l-.07561-.17916a.74.74,0,0,1,.04648.16583l-.02679-.19938a.7002.7002,0,0,1-.00049.17908l.02679-.19938a.83357.83357,0,0,1-.05387.18925l.07561-.17916a1.23483,1.23483,0,0,1-.15494.25742l.11727-.15179a2.57232,2.57232,0,0,1-.45092.43242l.1518-.11728c-.2009.155-.41488.29087-.61276.45006a.75083.75083,0,0,0-.21967.53034.76321.76321,0,0,0,.21967.53033.75469.75469,0,0,0,.53033.21967l.19938-.0268a.74929.74929,0,0,0,.331-.19287l.01263-.01-.15179.11728a10.45686,10.45686,0,0,0,.84443-.64759,2.25662,2.25662,0,0,0,.43888-.55116,1.46976,1.46976,0,0,0,.19784-.82068,1.53817,1.53817,0,0,0-.18667-.62832,1.78083,1.78083,0,0,0-.354-.43726.78742.78742,0,0,0-.53033-.21967.76321.76321,0,0,0-.53033.21967.75.75,0,0,0,0,1.06066Z"/><path d="M140.09734,113.12975a1.29714,1.29714,0,0,1,.16709.16942l-.11727-.15179a.83367.83367,0,0,1,.102.16762l-.07561-.17915a.64738.64738,0,0,1,.04244.14838l-.02679-.19938a.61511.61511,0,0,1-.00067.16107l.02679-.19938a.74336.74336,0,0,1-.05.17124l.0756-.17916a1.11152,1.11152,0,0,1-.13366.22083l.11728-.15179a2.306,2.306,0,0,1-.41194.39459l.1518-.11727c-.174.13345-.3654.24213-.5395.37477a.82393.82393,0,0,0-.34467.44822.76645.76645,0,0,0,.07561.57792.757.757,0,0,0,.44822.34467.72556.72556,0,0,0,.57792-.07561c.09206-.07014.19241-.12977.28822-.19456a5.6796,5.6796,0,0,0,.55334-.42037,2.31853,2.31853,0,0,0,.45383-.53189,1.38683,1.38683,0,0,0,.214-.807,1.43132,1.43132,0,0,0-.18039-.61,1.63,1.63,0,0,0-.35288-.42208.79923.79923,0,0,0-.53033-.21967.76321.76321,0,0,0-.53033.21967.75461.75461,0,0,0-.21967.53033.74128.74128,0,0,0,.21967.53033Z"/><path d="M140.26407,115.319a1.40186,1.40186,0,0,1,.15862.16445l-.11727-.15179a.91223.91223,0,0,1,.11035.18034l-.07561-.17916a.6909.6909,0,0,1,.049.17666l-.02679-.19938a.67431.67431,0,0,1-.00143.15483l.02679-.19938a.79089.79089,0,0,1-.0512.18255l.07561-.17916a1.18035,1.18035,0,0,1-.15.24922l.11727-.15179a2.46168,2.46168,0,0,1-.42832.41074l.15179-.11728c-.21207.16368-.43885.30549-.64949.47129a.74913.74913,0,0,0-.21967.53033.76321.76321,0,0,0,.21967.53033.75469.75469,0,0,0,.53033.21967l.19938-.02679a.7494.7494,0,0,0,.331-.19288l.006-.00477-.15179.11728c.27874-.21443.57974-.39349.8413-.6321a2.30139,2.30139,0,0,0,.44607-.54239,1.437,1.437,0,0,0,.20671-.8197,1.48473,1.48473,0,0,0-.18273-.618,1.70822,1.70822,0,0,0-.35494-.43382.79185.79185,0,0,0-.53033-.21967.76321.76321,0,0,0-.53033.21967.75.75,0,0,0,0,1.06066Z"/><path d="M140.51882,118.0906a1.15523,1.15523,0,0,1,.18516.18509l-.11727-.15179a.74711.74711,0,0,1,.082.13782l-.07561-.17916a.58375.58375,0,0,1,.03883.13611l-.02679-.19938a.56309.56309,0,0,1,.00066.13364l.0268-.19938a.66491.66491,0,0,1-.04369.15887l.07561-.17916a1.002,1.002,0,0,1-.12279.20635l.11728-.1518a2.10128,2.10128,0,0,1-.37768.36385l.15179-.11727c-.19317.14857-.407.265-.60313.40846a.81447.81447,0,0,0-.34467.44823.76646.76646,0,0,0,.07561.57792.757.757,0,0,0,.44822.34467.73289.73289,0,0,0,.57792-.07561c.0927-.06784.19317-.12543.28938-.18807a5.82438,5.82438,0,0,0,.55556-.41,1.64082,1.64082,0,0,0,.675-1.30575,1.346,1.346,0,0,0-.17845-.59839,1.5531,1.5531,0,0,0-.34907-.406.80966.80966,0,0,0-.53033-.21967.76319.76319,0,0,0-.53033.21967.75461.75461,0,0,0-.21967.53033.73071.73071,0,0,0,.21967.53033Z"/><path d="M140.72857,120.24225a1.95671,1.95671,0,0,1,.129.14956l-.11727-.15179a1.30629,1.30629,0,0,1,.14478.2438l-.0756-.17916a.99367.99367,0,0,1,.06691.23559l-.02679-.19937a.93356.93356,0,0,1,.00051.22585l.02679-.19938a1.07751,1.07751,0,0,1-.0709.256l.07561-.17916a1.57265,1.57265,0,0,1-.19723.32968l.11727-.15179a3.06426,3.06426,0,0,1-.46588.46606c-.11548.09573-.24065.1815-.35143.28271a.75557.75557,0,0,0,0,1.06066.76661.76661,0,0,0,1.06066,0c.22363-.20432.47606-.36857.684-.59218a1.97,1.97,0,0,0,.62065-1.49846,1.86544,1.86544,0,0,0-.19167-.66229,2.09782,2.09782,0,0,0-.36871-.497.75689.75689,0,0,0-1.06066,0,.76519.76519,0,0,0,0,1.06066Z"/><path d="M141.40267,123.45252a1.55979,1.55979,0,0,1,.15073.163l-.11728-.15179a1.03089,1.03089,0,0,1,.12075.20029l-.07561-.17916a.78434.78434,0,0,1,.05425.19528l-.02679-.19938a.75878.75878,0,0,1-.00037.17036l.02679-.19938a.87837.87837,0,0,1-.06087.21748l.07561-.17916a1.31735,1.31735,0,0,1-.16283.26913l.11728-.15179a2.76732,2.76732,0,0,1-.49268.46956l.15179-.11728c-.18137.13911-.37321.264-.54941.41a.75323.75323,0,0,0-.21967.53033.76325.76325,0,0,0,.21967.53033.75463.75463,0,0,0,.53033.21967.851.851,0,0,0,.53033-.21967l.02734-.02188-.15179.11728a8.24794,8.24794,0,0,0,.84493-.66715,1.78182,1.78182,0,0,0,.60015-1.47747,1.66786,1.66786,0,0,0-.532-.98918.75.75,0,1,0-1.06066,1.06066Z"/><path d="M141.6538,125.74132a1.59261,1.59261,0,0,1,.15239.16761l-.11727-.15179a1.05975,1.05975,0,0,1,.12179.20574l-.0756-.17916a.811.811,0,0,1,.05434.20028l-.02679-.19938a.786.786,0,0,1-.00091.17448l.02679-.19938a.90754.90754,0,0,1-.06224.22238l.0756-.17915a1.35044,1.35044,0,0,1-.16524.27456l.11728-.15179a2.84369,2.84369,0,0,1-.511.488l.15179-.11727c-.17293.13284-.35589.25316-.52292.39365a.75455.75455,0,0,0-.21967.53033.76325.76325,0,0,0,.21967.53033.75463.75463,0,0,0,.53033.21967.84447.84447,0,0,0,.53033-.21967l.03536-.02844-.15179.11728a7.60641,7.60641,0,0,0,.8415-.67419,2.21353,2.21353,0,0,0,.42342-.56963,1.67368,1.67368,0,0,0,.14811-.39939,1.63187,1.63187,0,0,0,.00679-.61117,1.67521,1.67521,0,0,0-.52141-.90458.75.75,0,1,0-1.06066,1.06066Z"/><path d="M142.25783,128.61794a1.30906,1.30906,0,0,1,.16844.17254l-.11728-.15179a.84327.84327,0,0,1,.10244.17055l-.07561-.17916a.6581.6581,0,0,1,.04221.15085l-.02679-.19938a.633.633,0,0,1,.00075.14746l.02679-.19938a.73978.73978,0,0,1-.04708.17441l.0756-.17916a1.1092,1.1092,0,0,1-.14253.23923l.11727-.15179a2.3442,2.3442,0,0,1-.416.39849l.15179-.11728c-.17089.13121-.35866.23871-.52924.36967a.82587.82587,0,0,0-.34467.44823.76647.76647,0,0,0,.07561.57792.757.757,0,0,0,.44822.34467.72422.72422,0,0,0,.57792-.07561c.09278-.07123.19405-.13177.29063-.19764a5.65909,5.65909,0,0,0,.54886-.41935,2.3141,2.3141,0,0,0,.45552-.53747,1.41425,1.41425,0,0,0,.21263-.80583,1.519,1.519,0,0,0-.53477-1.04084.79739.79739,0,0,0-.53033-.21967.76325.76325,0,0,0-.53033.21967.75471.75471,0,0,0-.21967.53033.74345.74345,0,0,0,.21967.53033Z"/><path d="M142.73187,130.87547a1.59271,1.59271,0,0,1,.15346.16937l-.11727-.15179a1.06069,1.06069,0,0,1,.12213.20783l-.07561-.17916a.82929.82929,0,0,1,.0512.18229l-.02679-.19938a.77879.77879,0,0,1,.00056.196l.02679-.19938a.91409.91409,0,0,1-.05661.20606l.0756-.17916a1.34347,1.34347,0,0,1-.17613.29468l.11727-.15179a2.86239,2.86239,0,0,1-.5009.47811l.15179-.11728c-.17394.13414-.3584.25532-.52649.397a.75472.75472,0,0,0-.21967.53033.76321.76321,0,0,0,.21967.53033.75469.75469,0,0,0,.53033.21967.84368.84368,0,0,0,.53033-.21967l.03565-.02873-.1518.11727a7.6061,7.6061,0,0,0,.8399-.67384,1.81077,1.81077,0,0,0,.59031-1.4993,1.69983,1.69983,0,0,0-.53306-.99013.75.75,0,0,0-1.06066,1.06066Z"/><path d="M143.6189,133.26847a1.443,1.443,0,0,1,.16163.17219l-.11727-.15179a.94849.94849,0,0,1,.11177.18841l-.07561-.17916a.74091.74091,0,0,1,.0465.16594l-.02679-.19938a.70113.70113,0,0,1-.00047.1792l.02679-.19938a.83431.83431,0,0,1-.05384.18935l.0756-.17916a1.23446,1.23446,0,0,1-.15491.25757l.11728-.15179a2.57216,2.57216,0,0,1-.45087.43263l.15179-.11727c-.20087.15506-.41488.291-.61273.45021a.75085.75085,0,0,0-.21967.53033.76325.76325,0,0,0,.21967.53033.75465.75465,0,0,0,.53033.21967l.19938-.02679a.7494.7494,0,0,0,.331-.19288l.01263-.01005-.15179.11727a10.45479,10.45479,0,0,0,.84438-.64782,2.25684,2.25684,0,0,0,.43884-.55138,1.47053,1.47053,0,0,0,.19778-.82094,1.53936,1.53936,0,0,0-.1867-.6285,1.78261,1.78261,0,0,0-.354-.43747.78728.78728,0,0,0-.53033-.21967.76325.76325,0,0,0-.53033.21967.75.75,0,0,0,0,1.06066Z"/><path d="M144.61585,135.38609a1.57033,1.57033,0,0,1,.151.16419l-.11727-.15179a1.043,1.043,0,0,1,.121.20172l-.07561-.17916a.79451.79451,0,0,1,.05452.19657l-.02679-.19938a.76891.76891,0,0,1-.00014.17143l.02679-.19938a.88663.88663,0,0,1-.0606.21877l.07561-.17916a1.32266,1.32266,0,0,1-.16252.27061l.11727-.15179a2.764,2.764,0,0,1-.49219.47186l.15179-.11727c-.18111.13965-.37325.26475-.54913.41127a.75368.75368,0,0,0-.21967.53033.76325.76325,0,0,0,.21967.53033.75461.75461,0,0,0,.53033.21967.84868.84868,0,0,0,.53033-.21967l.02731-.022-.15179.11727a8.22677,8.22677,0,0,0,.8444-.66969,1.79083,1.79083,0,0,0,.59914-1.48229,1.68046,1.68046,0,0,0-.53282-.99312.75.75,0,0,0-1.06066,1.06066Z"/><path d="M145.47071,137.03064a1.91348,1.91348,0,0,1,.12658.14409l-.11727-.15179a1.23848,1.23848,0,0,1,.15284.25833l-.07561-.17916a.96569.96569,0,0,1,.05731.20459l-.02679-.19938a.89866.89866,0,0,1,.00257.21877l.02679-.19938a1.0333,1.0333,0,0,1-.06693.24861l.07561-.17916a1.51132,1.51132,0,0,1-.19053.32145l.11728-.15179a3.454,3.454,0,0,1-.63128.59615l.15179-.11727c-.11858.09148-.24278.17761-.35429.27782a.75505.75505,0,0,0,0,1.06066.76724.76724,0,0,0,1.06066,0c.03712-.03335.07684-.06371.11631-.0942l-.1518.11727a3.98544,3.98544,0,0,0,1.10427-1.10642,1.68492,1.68492,0,0,0,.24372-.9591,1.88649,1.88649,0,0,0-.56057-1.17075.75.75,0,0,0-1.06066,1.06066Z"/><polygon class="k" points="140.904 169.538 140.904 173.962 142.489 177.803 143.028 177.803 141.637 172.571 141.507 169.265 140.904 169.538"/><path class="r" d="M118.57568,110.19152l-.4707.04944.13965-.65747.17578-.01855a.98609.98609,0,0,0,.40234-.114.54726.54726,0,0,0,.21387-.23584.89125.89125,0,0,0,.07813-.36975q.00292-.21954-.00391-.67371l-.00586-.0498a.5193.5193,0,0,0-.07031-.23193.32134.32134,0,0,0-.14942-.12513.65609.65609,0,0,0-.30078-.01745l-1.25683.13208-.18848-1.79517L117.94189,106l.1211,1.15943.5664-.05957a1.31023,1.31023,0,0,1,.89356.1549.94765.94765,0,0,1,.36328.72254l.00977.14221.01171.68152a1.34842,1.34842,0,0,1-.31933.97864A1.58425,1.58425,0,0,1,118.57568,110.19152Z"/><path class="r" d="M121.22412,106.22729l-.15723,1.13122-.68359.0719.35352-1.152Zm1.0332-.10864-.165,1.13208-.67579.071.35547-1.1521Z"/><path class="r" d="M126.07471,109.40319l-.80176.08435-.17774-1.69116a.82117.82117,0,0,0-.23144-.5293.71017.71017,0,0,0-.58984-.14514,3.92051,3.92051,0,0,0-.45606.07691q-.24024.054-.79394.22009l-.00391-.65747a6.09884,6.09884,0,0,1,1.35937-.30872A1.24479,1.24479,0,0,1,125.894,107.682Zm-1.959.20593-.80468.0846-.1836-1.74829.76367-.47449Z"/><path class="r" d="M126.62744,108.68713l1.51953-.15979-1.77051-1.94776.69434-.43945,1.13184,1.24939a1.03245,1.03245,0,0,0,.10351-.29834,1.70054,1.70054,0,0,0-.00488-.41528l-.06152-.58618.79-.083.06835.64575a1.34324,1.34324,0,0,1-.06933.61621,1.90148,1.90148,0,0,1-.41992.60791l.55957.6366-.07129.57238-2.54981.26807Z"/><path class="f" d="M160.58464,146.07088a22.49833,22.49833,0,0,0-3.87026,6.77342"/><polygon class="b" points="81.408 92.316 77.268 95.518 70.113 100.76 63.627 147.961 67.2 155.055 74.829 154.858 92.256 115.163 87.029 96.156 81.408 92.316"/><path d="M65.45556,127.33377a18.61861,18.61861,0,0,1,4.941.90219c.61342.19952.87621-.76575.26584-.96428a19.65246,19.65246,0,0,0-5.20681-.93791c-.64342-.02852-.642.97155,0,1Z"/><path d="M72.31669,121.57493a12.83541,12.83541,0,0,1-1.54133-1.60622q-.235-.27387-.462-.55444c-.0793-.09812-.15656-.19782-.23532-.29635-.05868-.07341.04274.05563.04321.05616-.01883-.02135-.03532-.046-.05249-.06869-.04025-.05326-.08058-.10646-.1204-.16a10.47537,10.47537,0,0,1-.73786-1.11063c-.0534-.09512-.10456-.19161-.15141-.29015-.01656-.03484-.08559-.19186-.022-.04358.0625.14579.002.0003-.01071-.036a1.62319,1.62319,0,0,0-.06361-.23131c-.01406-.02509.0195.24628.01572.10226-.00218-.08285.02517-.2141-.0232.10541a.86578.86578,0,0,0-.58888-1.03715.85271.85271,0,0,0-1.03715.58887,3.63966,3.63966,0,0,0,.94918,2.50855,23.13586,23.13586,0,0,0,2.0324,2.47149,8.76179,8.76179,0,0,0,.81349.79417.86314.86314,0,0,0,1.19237,0,.85272.85272,0,0,0,0-1.19236Z"/><path d="M65.95084,129.26534a41.86968,41.86968,0,0,1,3.98814,3.71105,13.974,13.974,0,0,1,3.12976,4.30495c.22577.59607,1.19286.33764.96428-.26584a14.73607,14.73607,0,0,0-3.22277-4.57133,41.67575,41.67575,0,0,0-4.15231-3.88594c-.49488-.403-1.20653.30037-.7071.70711Z"/><path class="f" d="M66.81918,147.273a22.49849,22.49849,0,0,1,3.87026,6.77342"/><path class="f" d="M149.7887,130.88412s-5.3053-5.52983-9.07917-7.003"/><polyline class="a" points="114.168 104.98 112.231 106.177 106.738 109.079 105.985 109.906 106.305 112.111 107.526 113.164 106.874 114.237 107.529 115.68 107.996 117.279 109.757 118.532 109.867 120.087 111.921 122.036 116.355 121.57 118.386 123.138 120.229 123.243 122.249 122.482 126.711 128.584 130.063 133.618 136.074 133.434 139.59 127.693 139.381 122.425 135.852 118.61 125.729 111.426 120.278 104.893 118.22 103.422"/><path class="e" d="M115.914,111.59381c-.89722.34354-1.86212.43192-2.76577.7503a14.25689,14.25689,0,0,0-1.76939.91051c-.55991.28862-1.13212.55371-1.70915.80611-.04142.01811-.17692.07618-.06835.03029q-.11025.0466-.22131.09128c-.13365.05405-.26792.10682-.40351.15584-.109.0394-.21866.07836-.33029.10964-.03581.01-.07511.01566-.10961.0288-.169.06435.18975-.01406.07408-.00627a.86054.86054,0,0,0-.84065.84064.84787.84787,0,0,0,.84065.84065,4.84846,4.84846,0,0,0,1.51347-.47136c.647-.27213,1.28635-.56255,1.91366-.87754.48538-.24372.94137-.59657,1.44248-.79552.92789-.36838,1.9466-.43449,2.88065-.79213a.86492.86492,0,0,0,.58714-1.0341.847.847,0,0,0-1.0341-.58714Z"/><path class="e" d="M107.7491,113.358c1.22878-.46508,2.41633-1.05976,3.59892-1.629,1.39289-.67051,2.78284-1.35235,4.1429-2.08769.95212-.51477.10424-1.9669-.84858-1.45175-1.33015.71916-2.6891,1.38667-4.0509,2.04336-.68132.32855-1.36483.65274-2.05276.96724-.26016.11893-.52095.23657-.78323.35079-.05754.02506-.11525.04975-.17287.07463-.082.03542.17215-.06907-.00628.00239-.09132.03657-.18215.074-.27416.10882a.86445.86445,0,0,0-.58714,1.0341.84719.84719,0,0,0,1.0341.58714Z"/><path class="e" d="M110.7344,119.0743a10.86069,10.86069,0,0,0,2.7645-.781,15.3245,15.3245,0,0,1,1.60626-.58635,8.23807,8.23807,0,0,0,1.99094-.73186.84078.84078,0,1,0-.84858-1.45175,6.81233,6.81233,0,0,1-1.64.57616,7.84685,7.84685,0,0,0-.918.30194c-.15868.06508-.31566.134-.47205.20431-.07776.035-.05892.02378.0081-.00324-.05781.02331-.11556.04676-.17359.06955-.44712.17557-.90277.33088-1.36255.46981-.20433.06174-.40972.1203-.61686.17188-.09151.02279-.18334.04463-.27576.06343-.04322.00879-.08923.01264-.13142.02473-.10238.02935.22048-.02491.069-.00892a.86506.86506,0,0,0-.84065.84065.84626.84626,0,0,0,.84065.84065Z"/><path class="e" d="M120.22268,107.25985c.079.15123.15691.30306.2297.4574.00965.02047.11469.248.06372.13578-.05069-.11164.04573.11716.05386.1391a3.65257,3.65257,0,0,1,.14548.48578.83477.83477,0,0,1,.0339.1831c.0055-.24388-.00534.03013-.00472.08109a.71975.71975,0,0,1-.012.242q.02423-.16955.006-.07352-.00864.04507-.0205.08942-.01563.05987-.03567.11839-.05066.13508.01747-.03422c.007.0451-.0872.16679-.1106.20561-.15211.25238-.34319.47877-.5085.72226a.84587.84587,0,0,0,.30158,1.15016.86123.86123,0,0,0,1.15017-.30158,9.75829,9.75829,0,0,0,.56659-.82359,2.66749,2.66749,0,0,0,.32676-1.29491,5.2839,5.2839,0,0,0-.75149-2.33083.84722.84722,0,0,0-1.15017-.30158.85977.85977,0,0,0-.30158,1.15016Z"/><path class="e" d="M122.06152,111.80091a17.28926,17.28926,0,0,1,.01,1.86234,3.64887,3.64887,0,0,1-.04338.46024c.04312-.21888-.002.00131-.00789.03674q-.02152.12936-.04883.25769a5.01162,5.01162,0,0,1-.27271.87615.8411.8411,0,0,0,.08474.64777.84061.84061,0,0,0,1.15017.30159.99259.99259,0,0,0,.38633-.5024,9.20484,9.20484,0,0,0,.42289-3.94012.84065.84065,0,0,0-1.6813,0Z"/><path class="e" d="M121.91487,116.6846l-2.32008,1.81979-.33508.26283a.83137.83137,0,0,0-.24622.59442.86836.86836,0,0,0,.1805.50936.84264.84264,0,0,0,1.08444.21652c.46259-.26409.92689-.52541,1.38764-.79269a4.51974,4.51974,0,0,0,1.2205-.93876,3.1074,3.1074,0,0,0,.59377-2.97663.84086.84086,0,1,0-1.62124.447,2.31342,2.31342,0,0,1,.07843.275c.00628.02954.03446.19666.01318.05741-.02167-.14173.00043.0424.0013.059a2.26322,2.26322,0,0,1-.00145.25745c-.01112.18016.02547-.00864.00912-.02413.01289.01221-.02246.12525-.0258.14088a2.29767,2.29767,0,0,1-.06779.24857q-.01347.04078-.029.08084-.034.0884.03018-.06857a.50657.50657,0,0,0-.04978.103c-.044.08531-.09646.16368-.14738.24479-.081.129.07938-.082.009-.01165-.03652.03652-.06884.07809-.105.11511-.06675.06829-.14059.12786-.21059.19241-.07383.06811.12426-.084-.006.00436-.044.02984-.08689.06121-.13111.09075-.16858.11261-.344.21444-.5198.31518q-.63784.36543-1.27678.72893l1.01872,1.3203,2.32007-1.81978.33508-.26283a.83939.83939,0,0,0,.24622-.59443.85549.85549,0,0,0-.24622-.59443.86644.86644,0,0,0-1.18885,0Z"/><path class="e" d="M122.5393,123.11559l1.18078,1.91985a.87762.87762,0,0,0,.5024.38633.8591.8591,0,0,0,.64777-.08474.84854.84854,0,0,0,.38632-.5024.86334.86334,0,0,0-.08474-.64777l-1.18078-1.91985a.87762.87762,0,0,0-.5024-.38633.8591.8591,0,0,0-.64777.08474.84855.84855,0,0,0-.38633.5024.86334.86334,0,0,0,.08475.64777Z"/><path class="e" d="M123.63209,121.35136l-1.20293.50484a.94037.94037,0,0,0-.50239.38633.62551.62551,0,0,0-.09976.31255.63673.63673,0,0,0,.015.33521.8503.8503,0,0,0,.38633.5024l.20081.08475a.84657.84657,0,0,0,.447,0l1.20292-.50484a.94057.94057,0,0,0,.5024-.38633.62574.62574,0,0,0,.09976-.31255.63677.63677,0,0,0-.015-.33522.85035.85035,0,0,0-.38632-.5024l-.20082-.08474a.84653.84653,0,0,0-.447,0Z"/><path class="e" d="M117.36679,102.92093a8.1833,8.1833,0,0,0-3.41723,1.13821.84078.84078,0,1,0,.84858,1.45175,7.31671,7.31671,0,0,1,.65242-.35738q.07187-.03459.14447-.06755.04841-.022.09714-.04322.12452-.0536-.05393.02263c.03514.00513.11685-.04677.14824-.05882q.08687-.03336.17457-.06439a7.24915,7.24915,0,0,1,1.41811-.34448l-.22347.03q.10543-.01395.2111-.02548a.91274.91274,0,0,0,.59443-.24622.84065.84065,0,0,0-.59443-1.43508Z"/><polyline class="a" points="115.312 104.078 117.2 105.245 122.553 108.074 123.288 108.879 122.976 111.029 121.786 112.055 122.421 113.101 121.783 114.507 121.328 116.065 119.611 117.287 119.504 118.802 117.502 120.702 113.181 120.247 111.201 121.776 109.405 121.879 107.436 121.136 103.087 127.083 99.82 131.99 93.962 131.811 90.534 126.215 90.739 121.081 94.178 117.363 104.044 110.361 109.357 103.993 111.363 102.56"/><path class="e" d="M113.17467,112.10456c.91007.34846,1.90486.4098,2.80758.772.48847.196.93219.53757,1.40588.77533.61144.30691,1.23452.59009,1.86511.85528a4.72548,4.72548,0,0,0,1.47508.4594.81932.81932,0,0,0,0-1.63864c-.11637-.00783.20847.07043.09185.01071a.801.801,0,0,0-.12648-.03267c-.10878-.03056-.21572-.06845-.32191-.10685-.12042-.04355-.23972-.09023-.35855-.13793q-.10728-.04306-.21391-.08769c-.07443-.03115.06454.02822-.06506-.02823-.57544-.25061-1.14588-.51456-1.70385-.80219a14.67277,14.67277,0,0,0-1.66853-.867c-.89607-.327-1.8588-.40981-2.75159-.75165a.82577.82577,0,0,0-1.00786.57224.83778.83778,0,0,0,.57224,1.00787Z"/><path class="e" d="M122.0037,110.6638c-.08172-.03093-.16267-.06362-.24368-.09635-.10192-.04117-.10819-.046-.00274-.00054-.05536-.02389-.11084-.04749-.16615-.0715-.26549-.11528-.52937-.23429-.7926-.35463-.67048-.30653-1.33663-.62252-2.00068-.9427-1.32729-.64-2.65174-1.29061-3.94814-1.99152-.92774-.5016-1.756.91266-.827,1.41492,1.32555.71668,2.6802,1.38132,4.0378,2.03472,1.15263.55476,2.31,1.13442,3.50762,1.58771a.826.826,0,0,0,1.00787-.57225.83746.83746,0,0,0-.57225-1.00786Z"/><path class="e" d="M118.65852,116.17652c-.1163-.01228.09069.00933.0913.01277-.00062-.0035-.11222-.02027-.12544-.02287-.08824-.01738-.17592-.0377-.26326-.0591-.2001-.049-.39846-.10512-.59577-.16427-.46093-.1382-.91764-.29327-1.36559-.46918-.04544-.01784-.09058-.03643-.136-.05429-.11859-.04663.11465.05087.005.00277-.14663-.06434-.29241-.13025-.44045-.19141a7.6847,7.6847,0,0,0-.8952-.30166,6.93452,6.93452,0,0,1-1.64786-.575.81945.81945,0,1,0-.827,1.41492,7.78216,7.78216,0,0,0,1.89108.70008,15.11287,15.11287,0,0,1,1.61486.58469,10.58456,10.58456,0,0,0,2.69438.76118.82468.82468,0,0,0,.81932-.81932.83794.83794,0,0,0-.81932-.81933Z"/><path class="e" d="M107.996,105.47338a5.14959,5.14959,0,0,0-.73242,2.2717,2.60628,2.60628,0,0,0,.3053,1.23684,8.64673,8.64673,0,0,0,.56538.82791.81946.81946,0,1,0,1.41493-.827c-.16112-.23731-.34735-.458-.4956-.70393-.02281-.03784-.11465-.15645-.1078-.2004q.0664.165.017.03335-.01951-.057-.03476-.11538l-.014-.058q-.02545-.13746-.00013.04254a.702.702,0,0,1-.01166-.23584q.00079-.05935.005-.11856.01351-.13868-.00958.03952a1.1076,1.1076,0,0,0,.033-.17845,3.53591,3.53591,0,0,1,.1418-.47346c.02168-.05856.04268-.1187.069-.17544-.09185.198.02859-.0564.0456-.09246.07094-.15043.14687-.29841.22387-.4458a.81945.81945,0,1,0-1.41492-.827Z"/><path class="e" d="M105.9801,110.72629a8.971,8.971,0,0,0,.41216,3.84017.90287.90287,0,0,0,.37652.48965.83661.83661,0,0,0,.63134.08259.82736.82736,0,0,0,.57225-1.00786,4.871,4.871,0,0,1-.26579-.85393q-.02669-.125-.0476-.25115c-.008-.04791-.04836-.24231-.00769-.03581a3.566,3.566,0,0,1-.04228-.44856,16.84878,16.84878,0,0,1,.00973-1.8151.82538.82538,0,0,0-.81932-.81932.83673.83673,0,0,0-.81932.81932Z"/><path class="e" d="M106.603,116.64479l2.26121,1.77362.32658.25616.99288-1.28681q-.6087-.3475-1.21738-.695c-.17143-.098-.34278-.19662-.50774-.30534q-.06492-.04278-.12834-.08775c-.08021-.057-.09645-.04708-.0073-.00253a1.06016,1.06016,0,0,1-.22909-.20721c-.02892-.02959-.05578-.061-.08427-.09093-.124-.13033.062.09915.00692.01274-.05029-.0789-.10269-.15376-.1468-.23663a.64962.64962,0,0,0-.06161-.125c.04934.04876.05455.141.01037.01439a2.23831,2.23831,0,0,1-.06942-.24131c-.01034-.04553-.01727-.09138-.02651-.13705-.02039-.10077.00834.178.00613.02382-.00133-.09337-.008-.18526-.00314-.27878a.57319.57319,0,0,0,.00868-.11116q-.02586.17447-.01012.07982.00434-.02754.01013-.0548a2.23156,2.23156,0,0,1,.08187-.29539.82473.82473,0,0,0-.57225-1.00786.83936.83936,0,0,0-1.00786.57225,3.03118,3.03118,0,0,0,.5787,2.90112,4.38,4.38,0,0,0,1.18954.91494c.449.26059.90158.5152,1.35244.77258a.82252.82252,0,0,0,1.05693-.211.80944.80944,0,0,0-.06406-1.07579l-2.26121-1.77362-.32659-.25616a.89334.89334,0,0,0-.57934-.24.81932.81932,0,0,0-.57935,1.39867Z"/><path class="e" d="M105.73816,120.92688l-1.15082,1.87115a.81946.81946,0,0,0,1.41492.82706l1.15082-1.87115a.81946.81946,0,1,0-1.41492-.82706Z"/><path class="e" d="M105.6524,121.61457l1.17241.492a.62056.62056,0,0,0,.32671.01464.60984.60984,0,0,0,.30462-.09723.81928.81928,0,0,0,.29394-1.121l-.12812-.16582a.81856.81856,0,0,0-.36154-.21071l-1.1724-.492a.62067.62067,0,0,0-.32671-.01463.60971.60971,0,0,0-.30463.09723.81926.81926,0,0,0-.29393,1.121l.12811.16583a.8185.8185,0,0,0,.36154.2107Z"/><path class="e" d="M112.19437,103.71023q.103.01125.20575.02483l-.2178-.02927a7.06525,7.06525,0,0,1,1.38213.33575c.10563.03743.20856.08441.31462.12008-.23364-.07859-.00922-.00324.04212.02007q.07076.03213.1408.06583a7.12842,7.12842,0,0,1,.63587.34832.81946.81946,0,0,0,.82706-1.41492,7.97567,7.97567,0,0,0-3.33055-1.10934.81846.81846,0,0,0-.57935.24.81934.81934,0,0,0,0,1.1587.94192.94192,0,0,0,.57935.24Z"/><polygon class="b" points="109.841 120.375 102.989 126.789 101.77 131.193 82.331 149.39 67.04 154.176 60.77 144.613 61.283 141.218 62.798 138.107 63.974 137.173 90.186 116.349 95.491 116.837 101.374 111.331 106.88 119.509 109.841 120.375"/><polygon class="b" points="117.961 121.628 124.111 127.385 125.205 131.337 142.654 147.671 156.379 151.966 162.006 143.384 161.546 140.336 160.186 137.543 135.603 118.014 130.841 118.452 125.561 113.51 120.618 120.85 117.961 121.628"/><polyline class="s" points="82.07 148.902 101.851 131.549 102.442 126.834"/><polyline class="t" points="63.627 147.961 60.77 144.613 62.798 138.107 85.585 120.335"/></svg>