<svg xmlns="http://www.w3.org/2000/svg" xmlns:xlink="http://www.w3.org/1999/xlink" viewBox="0 0 274.41184 663.26178"><defs><style>.a{fill:#757d5a;}.b,.n,.r,.s{fill:none;}.c{fill:#cab192;}.d{fill:#080808;}.e{opacity:0.15;}.f{fill:#2c2829;}.g{clip-path:url(#a);}.h{fill:#54593e;}.i{clip-path:url(#b);}.j{clip-path:url(#c);}.k{fill:#747c58;}.l{clip-path:url(#d);}.m{fill:#271d1d;}.n{stroke:#000;stroke-width:1.27321px;}.n,.s{stroke-miterlimit:10;}.o{fill:#27421d;}.p{fill:#525222;}.q{fill:#284220;}.q,.r,.s{stroke:#27421d;stroke-linecap:round;stroke-width:2.12202px;}.q,.r{stroke-linejoin:round;}.t{fill:#707171;}.u{fill:#231f20;}</style><clipPath id="a"><path class="a" d="M209.42183,469.8031l9.98107,36.83022v62.69154s-4.90307,4.28228-6.27195,4.28228l-31.42916.82764c-.96912,0-7.82784-4.143-7.82784-4.143l-4.3272-33.79085-5.027-13.706L146.94081,422.65661l-14.66695,38.894-.30747,26.16495-9.35746,44.34018-2.99545,13.10858-6.1816,21.96624-5.2216,1.09714-4.97851,1.59237L87.118,569.32486,69.542,567.13058l-5.41411-18.03367,8.53809-13.764,1.34-28.64554,7.15357-22.199L84.30772,467.323,82.101,450.84564l14.58011-54.83857-4.06987-4.06987,9.67185-37.15134-3.16353-4.06065L108.1583,338.031l2.5612-10.5666,4.15709-12.48215,9.513,3.64124,67.72736,2.93355,6.08715-2.08645,4.05681,20.38289,7.28575,11.92079-2.54012,2.1342,5.57559,37.71891-5.79137,4.97609,2.7559,6.37232,1.98293,3.97324-2.90671.6917.7476,6.71791,2.26086,31.04789-4.009,2.08191"/></clipPath><clipPath id="b"><polygon class="b" points="188.023 622.258 209.354 620.538 209.354 539.607 179.83 539.607 188.023 622.258"/></clipPath><clipPath id="c"><polygon class="b" points="65.119 617.629 76.678 622.24 85.486 568.205 69.52 569.82 65.119 617.629"/></clipPath><clipPath id="d"><polygon class="c" points="182.446 157.406 181.88 137.467 184.768 133.059 192.371 128.103 197.701 114.395 190.848 109.065 187.477 80.127 162.321 71.75 137.54 79.365 133.038 109.057 129.167 112.807 132.136 127.246 135.167 129.171 135.268 137.241 141.36 144.857 140.97 161.771 132.21 173.092 141.348 204.256 160.386 212.633 185.517 185.218 197.701 166.941 182.446 157.406"/></clipPath></defs><path class="d" d="M190.76048,299.10866a90.64333,90.64333,0,0,1-18.90022,7.01355.96829.96829,0,0,0,.51437,1.8658,92.947,92.947,0,0,0,19.36244-7.20861c1.112-.561.13351-2.2308-.97659-1.67074Z"/><path d="M212.72062,648.30212c-2.18357,1.27244-5.07558,1.28764-7.524,1.62177a35.91322,35.91322,0,0,1-8.59661.52336c-1.01756-.10635-1.0101,1.48594,0,1.59151a37.72414,37.72414,0,0,0,9.01969-.58021c2.62136-.35772,5.56476-.41894,7.9042-1.78221a.79635.79635,0,0,0-.80327-1.37422Z"/><polygon points="115.435 342.265 197.173 342.852 197.436 306.313 117.111 303.829 115.435 342.265"/><ellipse class="e" cx="127.28772" cy="642.47951" rx="20.32137" ry="127.36137" transform="translate(-519.19584 747.55611) rotate(-88.02558)"/><path class="f" d="M213.11712,571.755c-.00514,1.4632-1.30524,47.80055-1.30524,47.80055l3.54028,33.49877-9.85527,2.12508H189.45256l-6.76893-1.39556-.94173-6.68848,3.03266-16.77.95578-11.398-5.90721-41.17687,2.4527-1.82881-4.30752-7.262Z"/><path class="f" d="M99.11714,570.678l1.83378-2.19144,3.79138,2.21662L93.55413,625.95884l.86109,16.06432c-.82364,0-12.17666,1.923-12.17666,1.923s-4.1109-.16253-5.23394-.101c-14.06182.77053-32.26188,2.5563-43.41161,2.90527l-8.05912-1.51108-4.62984-4.14939L23.15793,630.767l4.909-4.62194,11.69732-2.71468,2.81341.825.4119.69615,22.2217-8.75476L69.986,566.39758l.79205-1.04973Z"/><path class="a" d="M209.42183,469.8031l9.98107,36.83022v62.69154s-4.90307,4.28228-6.27195,4.28228l-31.42916.82764c-.96912,0-7.82784-4.143-7.82784-4.143l-4.3272-33.79085-5.027-13.706L146.94081,422.65661l-14.66695,38.894-.30747,26.16495-9.35746,44.34018-2.99545,13.10858-6.1816,21.96624-5.2216,1.09714-4.97851,1.59237L87.118,569.32486,69.542,567.13058l-5.41411-18.03367,8.53809-13.764,1.34-28.64554,7.15357-22.199L84.30772,467.323,82.101,450.84564l14.58011-54.83857-4.06987-4.06987,9.67185-37.15134-3.16353-4.06065L108.1583,338.031l2.5612-10.5666,4.15709-12.48215,9.513,3.64124,67.72736,2.93355,6.08715-2.08645,4.05681,20.38289,7.28575,11.92079-2.54012,2.1342,5.57559,37.71891-5.79137,4.97609,2.7559,6.37232,1.98293,3.97324-2.90671.6917.7476,6.71791,2.26086,31.04789-4.009,2.08191"/><g class="g"><polygon class="h" points="140.692 361.527 146.835 425.577 127.016 510.467 128.93 480.958 124.39 455.483 140.692 361.527"/><polygon class="h" points="202.697 452.737 214.107 448.201 211.631 445.407 191.148 450.327 202.697 452.737"/><path class="h" d="M185.63362,395.07082,216.8744,388.901a3.7738,3.7738,0,0,1,4.23387,2.29777h0l-41.7129,11.777Z"/><polygon class="h" points="182.683 358.103 216.357 352.312 216.357 352.312 208.072 358.103 182.683 358.103"/><polygon class="h" points="113.012 592.545 83.426 569.82 94.611 563.975 116.04 566.462 113.012 592.545"/><polygon class="h" points="219.403 569.325 188.582 604.628 181.702 574.435 199.769 572.684 219.403 569.325"/><path class="h" d="M226.40249,446.399l-22.15983,5.31545s-.83864,26.63063,4.11771,34.03728,8.493,25.79747,8.493,25.79747-1.02806,24.12183-1.50125,27.97,0,25.84361,0,25.84361l-2.36409,11.59867,11.2924,1.29816Z"/></g><polygon class="a" points="139.325 313.31 139.325 336.97 133.711 336.97 133.711 309.701 139.325 309.701 139.325 313.31"/><polygon class="a" points="118.208 313.751 118.208 337.411 115.303 337.798 115.303 307.131 118.208 306.744 118.208 313.751"/><polygon class="a" points="160.345 313.839 160.345 340.707 166.526 340.707 166.526 310.23 160.345 310.23 160.345 313.839"/><rect class="a" x="185.77468" y="310.98782" width="5.61425" height="26.86818"/><path d="M198.42658,473.26529q2.75809,5.57112,5.04874,11.35473c.37215.94143,1.91191.53123,1.53466-.42309q-2.361-5.97265-5.20918-11.7349c-.45443-.91791-1.8276-.11252-1.37422.80326Z"/><path d="M197.38967,479.28547l2.212,8.40676a.79644.79644,0,0,0,1.53467-.42309l-2.212-8.40676a.79644.79644,0,0,0-1.53466.42309Z"/><path d="M147.63091,420.47213l-2.24126-21.50471-3.587-34.41722-.82024-7.87019c-.10511-1.00851-1.69775-1.0193-1.59152,0l2.24127,21.5047,3.587,34.41723.82025,7.87019c.10511,1.00851,1.69774,1.0193,1.59151,0Z"/><path d="M140.5746,356.18078l-10.95318-2.98868a.79644.79644,0,0,0-.42309,1.53466l10.95318,2.98868a.79643.79643,0,0,0,.42309-1.53466Z"/><path d="M141.11983,369.92858c-2.81159,4.99922-6.33111,9.57394-9.14269,14.57315a.79635.79635,0,0,0,1.37422.80327c2.81159-4.99921,6.3311-9.57394,9.14269-14.57315a.79635.79635,0,0,0-1.37422-.80327Z"/><path d="M142.57427,368.8839a23.67154,23.67154,0,0,0-5.22059-9.55516,21.53911,21.53911,0,0,0-7.73226-6.13664c-.94251-.39693-1.35422,1.14252-.42309,1.53466a20.03375,20.03375,0,0,1,7.03,5.72735,21.92975,21.92975,0,0,1,4.8113,8.85288c.23793.99573,1.77295.57414,1.53466-.42309Z"/><path d="M136.16865,357.83623c.15545.16222.3065.32831.45145.5q.10228.12115.20071.24541c.08276.104-.05889-.07909.02105.02705q.04769.06331.09453.12725a10.31669,10.31669,0,0,1,.72191,1.13678q.15217.27819.28711.56534.06742.14349.13041.289c.03194.074-.02258-.06048.02661.06594.01916.04925.039.09824.05788.14759a10.43964,10.43964,0,0,1,.39774,1.28644.80318.80318,0,0,0,.97887.55579.8124.8124,0,0,0,.55579-.97888,11.19276,11.19276,0,0,0-2.79869-5.09309.80339.80339,0,0,0-1.12537,0,.8116.8116,0,0,0,0,1.12537Z"/><path d="M138.11867,358.45079c.0441.00746.09219.02936.13573.033.12463.01035-.155-.0953-.05644-.0218.00982.00732.13.0832.13123.08228-.036.02587-.14617-.1349-.0326-.01987.07481.07577.14545.153.217.23175-.15949-.17562-.0089-.00909.0236.03853q.04432.065.08569.13188c.06836.11.13113.22336.18985.33873q.053.10415.10157.2105c.03475.07585.0659.15354.01586.03074a8.16189,8.16189,0,0,1,.2966.86217,8.46957,8.46957,0,0,1,.19746.87029c.01228.07163.023.14345.03394.2153-.03244-.21372.0005.01521.00521.06057.01411.13565.02429.27168.02928.408.00466.12722.00511.25457-.0006.38176-.00268.05963-.00814.11894-.012.17848q-.00453.04889-.01058.09762.0264-.18712.01128-.0944c-.02707.09727-.045.19886-.07113.29686-.0498.187.01758-.02406.01573-.02656.00848.01144-.06183.11173-.0703.125a.79589.79589,0,0,0,1.37423.80327,3.082,3.082,0,0,0,.356-1.73373,8.41952,8.41952,0,0,0-.34143-2.0671,6.79849,6.79849,0,0,0-.80353-1.84962,2.31518,2.31518,0,0,0-1.39848-1.11827.81935.81935,0,0,0-.97887.55579.80226.80226,0,0,0,.55578.97887Z"/><path d="M137.25754,356.51432a9.81762,9.81762,0,0,1-4.88951-1.99407.8004.8004,0,0,0-1.08875.28548.81585.81585,0,0,0,.28548,1.08874,11.23727,11.23727,0,0,0,5.69278,2.21136.79808.79808,0,0,0,.79575-.79575.81794.81794,0,0,0-.79575-.79576Z"/><path d="M106.722,343.07952l-2.62147,14.49374L99.917,380.70341l-.96728,5.348c-.18112,1.00141,1.35236,1.431,1.53466.42309l2.62147-14.49374,4.18352-23.13016.96728-5.34795c.18113-1.00141-1.35236-1.431-1.53466-.42309Z"/><path d="M174.7954,355.71725c2.49622,12.5676,5.686,24.97762,7.3314,37.703.12951,1.00161,1.72269,1.01452,1.59151,0-1.66412-12.87-4.86367-25.4157-7.38825-38.126-.19936-1.00372-1.73366-.57885-1.53466.42308Z"/><path d="M171.25221,347.75353q3.19173,21.84262,5.96944,43.745.71884,5.735,1.378,11.47724c.11427,1.00607,1.7071,1.01766,1.59151,0-1.66948-14.69887-3.67182-29.36214-5.73566-44.01011q-.82-5.81964-1.66859-11.63521c-.14754-1.00968-1.68129-.5804-1.53466.42309Z"/><path d="M180.1627,401.06515c.06528-.17474-.04127.07552-.0107.0218.02511-.04411.04418-.09276.06763-.13791.04407-.08488.09182-.16784.14143-.2496.12264-.20216.25771-.39667.397-.58766.07663-.10509.15644-.20773.23393-.31216q.05227-.06812-.02993.03865l.07713-.09872q.05868-.07476.1178-.14916c.17421-.21942.3508-.43694.52687-.65486a9.98257,9.98257,0,0,0,1.767-2.6297.79955.79955,0,0,0-.55578-.97888.81732.81732,0,0,0-.97888.55579c-.06528.17474.04127-.07552.0107-.0218-.02511.04412-.04418.09276-.06763.13791-.04407.08488-.09183.16785-.14143.2496-.12264.20216-.25771.39668-.397.58766-.07663.10509-.15644.20773-.23393.31216q-.05228.06811.02993-.03865l-.07713.09872q-.05868.07476-.11781.14916c-.1742.21942-.35079.43694-.52687.65486a9.98242,9.98242,0,0,0-1.767,2.62971.79954.79954,0,0,0,.55578.97887.81732.81732,0,0,0,.97888-.55579Z"/><path d="M179.797,353.163c-.18783-.12544-.36873-.26076-.54869-.39715-.06521-.04942-.1561-.12063-.03731-.02816q-.09474-.07375-.18912-.148-.206-.16224-.41013-.32685c-.62584-.50374-1.24308-1.01819-1.85776-1.53547q-1.76725-1.48725-3.5083-3.00539-.37463-.32541-.74823-.652a.81506.81506,0,0,0-1.12537,0,.80315.80315,0,0,0,0,1.12536c1.96721,1.7227,3.9456,3.43791,5.97832,5.08309.535.433,1.07043.87616,1.64332,1.25875a.79588.79588,0,1,0,.80327-1.37422Z"/><path d="M179.797,353.163a22.23282,22.23282,0,0,0-5.34482-2.94067,4.68252,4.68252,0,0,0-1.89442-.33469l.79576.79575c-.006-.04807-.00583-.09729-.01228-.14505-.02353-.17408-.01121.03429-.01082.03251.03415-.15339-.066.12926-.03091.06736a.53928.53928,0,0,1-.11351.12476c-.01663.01316-.19578.09441-.13023.07638.11993-.033-.20625-.01707-.0707.00819a.46971.46971,0,0,0,.12048.00218c.13324-.01777-.17942-.0501-.03283-.00388.21539.06791.42918.11793.6398.2044-.17293-.071.01328.00765.05059.02528.06257.02957.12522.05889.18729.08946.14213.07.2823.14392.42112.22025a17.78044,17.78044,0,0,1,1.63125,1.02844q.36521.256.71959.527c-.13217-.1014.0247.01966.05277.04209.04994.03989.1.07961.14961.11994q.156.12682.30773.25863l.77423-1.33a2.0997,2.0997,0,0,1-.24964-.06969c-.04285-.01464-.08454-.03239-.12723-.04733-.18075-.06327.15246.078-.03-.01394-.21913-.11037-.44018-.21507-.65637-.33158-.51671-.27844-1.02324-.57536-1.5409-.85209-.82766-.44245-2.08118-1.1847-3.05634-.80066a.81985.81985,0,0,0-.55579.97888.80143.80143,0,0,0,.97888.55578c.0337-.01327.06757-.02216.10149-.034.12224-.04276.00561.01-.05386.00386.08112.00835.30056.02491.09835-.0113a3.64422,3.64422,0,0,1,.63961.17966q.08374.03141.16647.06546c-.107-.04411.002.00157.0502.02363.11893.05447.23717.11018.35439.16827.25916.12843.51414.26513.7676.40443a10.53452,10.53452,0,0,0,2.69,1.31531.82127.82127,0,0,0,.89865-.3657.80222.80222,0,0,0-.12442-.96432,17.04511,17.04511,0,0,0-3.63567-2.4606,3.748,3.748,0,0,0-1.79248-.51474,1.23553,1.23553,0,0,0-1.16768,1.42274c.04944.39855.32529.83488.79575.79576.14312-.0119.28161.00153.42422.00181.12972.00026-.147-.03428.08.01075.08209.01629.16415.03149.24572.05038a7.50958,7.50958,0,0,1,1.06581.34429q.07006.02778.13978.05648-.10944-.04711.0212.009.14265.06174.28388.12669.25144.11539.49892.23922c.37763.1883.74907.38892,1.11581.59757a29.95274,29.95274,0,0,1,2.56062,1.62184.80232.80232,0,0,0,1.08875-.28548.8129.8129,0,0,0-.28548-1.08874Z"/><path d="M97.80537,392.62349c-.17908-.304-.33895-.61942-.491-.93769-.1007-.21078-.19555-.424-.28969-.63777-.06769-.15369.05453.13549-.01519-.03543-.01947-.04771-.03926-.0953-.05857-.14308q-.0699-.173-.13572-.34749a9.69937,9.69937,0,0,1-.40377-1.30474c-.021-.0945-.03709-.18969-.0557-.28463-.03294-.168.01153.17.001.016-.00318-.04648-.00966-.09274-.01272-.13928-.00567-.086-.00445-.17092-.0035-.25693.00039-.03609.01894-.16024-.00371-.01012-.02417.16016.004-.0034.01184-.036a.796.796,0,1,0-1.53466-.42308,5.04414,5.04414,0,0,0,.44479,2.80359,15.96333,15.96333,0,0,0,1.1724,2.53987.79589.79589,0,0,0,1.37423-.80327Z"/><path d="M86.5553,562.64008a13.1506,13.1506,0,0,1-6.82192,2.96175.82048.82048,0,0,0-.79576.79575.80062.80062,0,0,0,.79576.79576,15.059,15.059,0,0,0,7.94729-3.42789.802.802,0,0,0,0-1.12537.81289.81289,0,0,0-1.12537,0Z"/><path d="M107.70214,475.76417l-11.6209,16.28165c-.59606.83512.78361,1.63076,1.37423.80327l11.62089-16.28165c.59606-.83512-.78361-1.63075-1.37422-.80327Z"/><path d="M103.97323,487.314l-4.9433,10.42624c-.43646.92057.93522,1.7292,1.37422.80327l4.9433-10.42625c.43646-.92056-.93522-1.72919-1.37422-.80326Z"/><path d="M141.40308,357.60829c-.44329-11.18367-1.22-22.35651-2.058-33.51673q-.1077-1.43424-.21906-2.86821c-.07963-1.01435-1.67182-1.02293-1.59151,0q1.01485,12.92709,1.7585,25.87529c.19985,3.50181.37969,7.00486.51861,10.50965.04046,1.02071,1.63218,1.0259,1.59151,0Z"/><path d="M138.46609,355.9929c-3.2838-1.58572-3.39864-6.57654-3.71959-9.68783a72.783,72.783,0,0,1-.20177-12.64219,96.94631,96.94631,0,0,0-.06-12.43953c-.05765-1.0183-1.64954-1.025-1.59151,0q.15971,2.82093.244,5.646c.08627,2.94384-.16618,5.80007-.296,8.73785a73.62851,73.62851,0,0,0,.6325,13.32644c.42962,3.10838,1.043,6.91422,4.18911,8.43344.91825.44342,1.7263-.9285.80326-1.37422Z"/><g class="i"><path d="M203.38739,578.05092a86.73956,86.73956,0,0,1-19.72026.53338c-1.02031-.08777-1.01444,1.50424,0,1.59151a88.4908,88.4908,0,0,0,20.14335-.59023c1.00986-.14454.58032-1.67828-.42309-1.53466Z"/><path d="M203.38739,583.049a86.73956,86.73956,0,0,1-19.72026.53338c-1.02031-.08777-1.01444,1.50424,0,1.59151a88.49023,88.49023,0,0,0,20.14335-.59023c1.00986-.14454.58032-1.67828-.42309-1.53466Z"/><path d="M203.38739,588.047a86.73956,86.73956,0,0,1-19.72026.53338c-1.02031-.08777-1.01444,1.50424,0,1.59151a88.49023,88.49023,0,0,0,20.14335-.59023c1.00986-.14454.58032-1.67828-.42309-1.53466Z"/><path d="M203.38739,608.03916a86.73842,86.73842,0,0,1-19.72026.53338c-1.02031-.08777-1.01444,1.50425,0,1.59151a88.49023,88.49023,0,0,0,20.14335-.59022c1.00986-.14455.58032-1.67829-.42309-1.53467Z"/><path d="M203.38739,613.0372a86.73842,86.73842,0,0,1-19.72026.53338c-1.02031-.08777-1.01444,1.50425,0,1.59151a88.49023,88.49023,0,0,0,20.14335-.59022c1.00986-.14455.58032-1.67829-.42309-1.53467Z"/><path d="M203.38739,618.03524a86.73842,86.73842,0,0,1-19.72026.53338c-1.02031-.08777-1.01444,1.50425,0,1.59151a88.49023,88.49023,0,0,0,20.14335-.59022c1.00986-.14455.58032-1.67829-.42309-1.53467Z"/><path d="M203.38739,623.03328a86.73842,86.73842,0,0,1-19.72026.53338c-1.02031-.08777-1.01444,1.50425,0,1.59151a88.49023,88.49023,0,0,0,20.14335-.59022c1.00986-.14455.58032-1.67829-.42309-1.53467Z"/><path d="M203.38739,593.045a86.73956,86.73956,0,0,1-19.72026.53338c-1.02031-.08777-1.01444,1.50425,0,1.59151a88.49023,88.49023,0,0,0,20.14335-.59023c1.00986-.14454.58032-1.67828-.42309-1.53466Z"/><path d="M203.38739,598.04308a86.73842,86.73842,0,0,1-19.72026.53338c-1.02031-.08777-1.01444,1.50425,0,1.59151a88.49023,88.49023,0,0,0,20.14335-.59023c1.00986-.14454.58032-1.67828-.42309-1.53466Z"/><path d="M203.38739,603.04112a86.73842,86.73842,0,0,1-19.72026.53338c-1.02031-.08777-1.01444,1.50425,0,1.59151a88.49023,88.49023,0,0,0,20.14335-.59023c1.00986-.14454.58032-1.67828-.42309-1.53466Z"/></g><g class="j"><path d="M80.8971,577.2639a86.67913,86.67913,0,0,1-19.60085-2.36683c-.99561-.23768-1.42047,1.29656-.42309,1.53467a88.63664,88.63664,0,0,0,20.02394,2.42367.79623.79623,0,0,0,0-1.59151Z"/><path d="M80.157,582.21114a86.67969,86.67969,0,0,1-19.60085-2.36683c-.99561-.23768-1.42047,1.29656-.42309,1.53466A88.63608,88.63608,0,0,0,80.157,583.80265a.79623.79623,0,0,0,0-1.59151Z"/><path d="M79.417,587.15838a86.68026,86.68026,0,0,1-19.60085-2.36683c-.99561-.23769-1.42047,1.29655-.42309,1.53466A88.63608,88.63608,0,0,0,79.417,588.74989a.79623.79623,0,0,0,0-1.59151Z"/><path d="M76.45668,606.94733a86.67969,86.67969,0,0,1-19.60085-2.36683c-.99561-.23768-1.42047,1.29656-.42309,1.53466a88.63608,88.63608,0,0,0,20.02394,2.42368.79623.79623,0,0,0,0-1.59151Z"/><path d="M75.71661,611.89457a86.68026,86.68026,0,0,1-19.60085-2.36683c-.99561-.23769-1.42047,1.29655-.42309,1.53466a88.63608,88.63608,0,0,0,20.02394,2.42368.79623.79623,0,0,0,0-1.59151Z"/><path d="M74.97653,616.8418c-6.52419-.07973-12.36117-3.34931-18.581-4.87985-.99444-.24471-1.41871,1.28966-.42309,1.53466,6.37476,1.56868,12.31221,4.85492,19.00406,4.93671a.79624.79624,0,0,0,0-1.59152Z"/><path d="M73.9409,622.031a86.67954,86.67954,0,0,1-19.60084-2.36683c-.99561-.23768-1.42047,1.29656-.42309,1.53467a88.63662,88.63662,0,0,0,20.02393,2.42367.79623.79623,0,0,0,0-1.59151Z"/><path d="M78.67689,592.10561A86.67968,86.67968,0,0,1,59.076,589.73879c-.99561-.23769-1.42047,1.29655-.42309,1.53466a88.63665,88.63665,0,0,0,20.02394,2.42368.79624.79624,0,0,0,0-1.59152Z"/><path d="M77.93682,597.05285A86.67968,86.67968,0,0,1,58.336,594.686c-.99561-.23769-1.42047,1.29655-.42309,1.53466a88.63607,88.63607,0,0,0,20.02394,2.42367.79623.79623,0,0,0,0-1.59151Z"/><path d="M77.19675,602.00009a86.67969,86.67969,0,0,1-19.60085-2.36683c-.99561-.23768-1.42047,1.29656-.42309,1.53467a88.63664,88.63664,0,0,0,20.02394,2.42367.79623.79623,0,0,0,0-1.59151Z"/></g><path d="M211.69382,638.35859a22.63267,22.63267,0,0,0-26.521-6.4964c-.93384.41588-.12519,1.7877.80327,1.37422a21.06016,21.06016,0,0,1,24.59237,6.24755c.62987.80634,1.74895-.32707,1.12537-1.12537Z"/><path d="M51.06583,640.00933a35.78527,35.78527,0,0,0-1.26828-7.89724,13.21175,13.21175,0,0,0-6.04084-7.39586.79635.79635,0,0,0-.80327,1.37422,11.61513,11.61513,0,0,1,5.41624,6.77489,35.82774,35.82774,0,0,1,1.10464,7.144c.102,1.0093,1.69456,1.01982,1.59151,0Z"/><path d="M98.04667,568.6944a91.025,91.025,0,0,1-20.83051-.6321c-1.00188-.14745-1.4343,1.38584-.42309,1.53466a92.77564,92.77564,0,0,0,21.2536.68895c1.0133-.08467,1.02232-1.67693,0-1.59151Z"/><path d="M68.85493,567.53221l1.68,2.19429a.87549.87549,0,0,0,.47557.36569.81324.81324,0,0,0,.61318-.08021.8032.8032,0,0,0,.36569-.47557.76887.76887,0,0,0-.08022-.61318l-1.68-2.19429a.87553.87553,0,0,0-.47557-.36569.81324.81324,0,0,0-.61318.08022.80321.80321,0,0,0-.3657.47556.769.769,0,0,0,.08022.61318Z"/><path d="M77.07968,568.47859a3.89,3.89,0,0,0-4.30835.773,9.02581,9.02581,0,0,0-2.20473,4.144.796.796,0,1,0,1.53466.42309,7.963,7.963,0,0,1,1.62382-3.27935,2.867,2.867,0,0,1,1.26394-.75527c.06247-.01753.12539-.03354.18884-.04719.01128-.00243.25443-.04057.09307-.02156a2.61639,2.61639,0,0,1,.41913-.01448c.05717.00249.1698.0124.05246-.00333a2.037,2.037,0,0,1,.22288.04456c.07417.01861.14619.04189.21853.06653.15521.05289-.06938-.03728.09248.04422a.81515.81515,0,0,0,1.08875-.28547.80358.80358,0,0,0-.28548-1.08875Z"/><path d="M199.557,574.70387l-19.89534,2.78852c-1.01.14156-.58023,1.67528.42309,1.53466l19.89534-2.78852c1.01-.14157.58024-1.67529-.42309-1.53466Z"/><path d="M198.24632,574.33075l-6.88489-.04718-1.7504-.012a4.758,4.758,0,0,0-1.54148.10131,2.78273,2.78273,0,0,0-1.03224.76283q-.628.6279-1.25331,1.25857a.80475.80475,0,0,0,.56268,1.35844,17.01749,17.01749,0,0,0,3.22464-.45828,9.5608,9.5608,0,0,0,2.92111-.785.80643.80643,0,0,0-.19009-1.45444,5.96,5.96,0,0,0-2.91238-.40738c-1.00721.11008-1.01844,1.70282,0,1.59152a4.95129,4.95129,0,0,1,2.4893.35052l-.19009-1.45444a8.535,8.535,0,0,1-2.54093.62451,14.76286,14.76286,0,0,1-2.80156.40144l.56269,1.35844,1.09665-1.10125c.30039-.30165.46676-.53214.90485-.56011,1.03819-.06629,2.11017.01445,3.15071.02158l6.18474.04238a.79623.79623,0,0,0,0-1.59151Z"/><path d="M89.22306,626.33113c-2.95168.94228-5.4094,3.58024-7.09944,6.07895a43.41288,43.41288,0,0,0-4.078,8.46831c-.37757.95222,1.161,1.36552,1.53466.42309a43.70425,43.70425,0,0,1,3.65554-7.69121,17.56833,17.56833,0,0,1,2.73195-3.30339,10.20276,10.20276,0,0,1,3.6784-2.44109c.972-.3103.55655-1.8474-.42309-1.53466Z"/><path d="M50.71436,640.77183c-2.268.29121-4.54982.4981-6.8303.65982a50.83383,50.83383,0,0,1-11.4835-.06136c-1.002-.15977-1.43334,1.37357-.42309,1.53466a51.86129,51.86129,0,0,0,11.67736.13426c2.35709-.16275,4.71563-.37491,7.05953-.67587,1.00188-.12864,1.01471-1.72181,0-1.59151Z"/><path d="M100.92673,569.60384c-2.4062,1.15333-5.13213.82413-7.67524.393-2.65751-.45052-5.30961-.93552-7.964-1.40416a.80285.80285,0,0,0-.77423,1.33,6.56441,6.56441,0,0,0,5.5768,2.20156c.83588-.08156,1.14768-1.34092.21154-1.56308L82.2102,568.641l-.42308,1.53466,5.77584.90508V569.546c-2.2307.54633-4.33048-.6732-6.501-.99531a5.61733,5.61733,0,0,0-4.57554,1.03391c-.56567.45589-.07035,1.345.56268,1.35844,2.45668.05223,4.7567,1.02916,7.19076,1.26465a23.28673,23.28673,0,0,0,7.3074-.85038c.99873-.22509.576-1.75984-.42309-1.53466a19.94325,19.94325,0,0,1-7.5254.70715c-2.20421-.35176-4.297-1.13038-6.54967-1.17827l.56269,1.35844c1.459-1.17586,3.526-.59288,5.1393-.12524a9.90108,9.90108,0,0,0,5.23492.49593c.7215-.17671.79506-1.41007,0-1.53466L82.2102,568.641c-.98679-.15463-1.44127,1.293-.42308,1.53466l8.09141,1.92023.21155-1.56309a5.08205,5.08205,0,0,1-4.45143-1.73542l-.77423,1.33c3.06346.54087,6.12481,1.15894,9.20441,1.6a12.9874,12.9874,0,0,0,7.66117-.74932c.92323-.44252.11683-1.81524-.80327-1.37422Z"/><path d="M206.05127,570.32119a12.70112,12.70112,0,0,0-4.10286.307c-1.31557.37149-2.60613.85421-3.90213,1.28844-.96622.32373-.55191,1.86134.42309,1.53466,1.25-.41882,2.49424-.87372,3.7587-1.24693a11.33057,11.33057,0,0,1,3.8232-.29169c1.02388.04794,1.02144-1.54369,0-1.59152Z"/><path d="M171.139,349.69841c.09431,1.21247,1.75688,1.748,2.69357,2.14565.76017.32273,1.52854.62514,2.29366.93582q.26022.10566.51963.21331l.10153.04242c.117.049-.105-.04484.01011.00432q.14614.0624.2918.12593c.29425.129.5869.26257.87272.40946.13695.07038.27261.14355.4047.22273.06153.03689.12129.07619.18187.11457.10265.065.12647.10515.0111-.00024.08768.08009.2653.31887.11458.07642.07954.128.003-.00636-.01915-.07741.0046.01477.00905.02885.01259.04385a.54948.54948,0,0,1,.00031-.31672.819.819,0,0,0,.55578.97888.80238.80238,0,0,0,.97888-.55579c.22675-1.31721-1.52249-1.931-2.47089-2.3398-.7543-.32513-1.51809-.62712-2.27968-.93456q-.263-.10618-.52549-.21384-.13683-.0563-.27338-.11332c-.00755-.00315-.11892-.05006-.039-.01627.08965.03791-.08635-.03695-.10305-.04415-.31356-.13523-.62584-.27384-.93174-.42574-.27439-.13626-.52472-.30323-.78978-.45328-.078-.04418.13339.12985-.01066-.01a.88092.88092,0,0,0-.1089-.10673c-.07151-.04651.11009.174.04007.04629a.5179.5179,0,0,1,.06033.24824.81572.81572,0,0,0-.79576-.79576.80215.80215,0,0,0-.79576.79576Z"/><path d="M205.51813,395.92887c-8.60805,1.3803-16.85106,4.15463-25.34757,6.0085-1.00019.21824-.57693,1.75286.42309,1.53466,8.49653-1.85387,16.73947-4.62819,25.34756-6.0085,1.00858-.16173.58051-1.69559-.42308-1.53466Z"/><path d="M209.145,351.62447c-8.13866,3.92806-17.59224,4.77126-26.46154,5.68292-1.00887.1037-1.01954,1.69631,0,1.59151,9.17148-.94272,18.85226-1.84,27.2648-5.90021.92213-.44505.11594-1.81787-.80326-1.37422Z"/><path d="M202.04936,340.27189c-9.50856,1.35761-19.22052,2.25618-28.50427,4.81861a.79643.79643,0,0,0,.42309,1.53466c9.28374-2.56243,18.9957-3.461,28.50426-4.8186,1.00988-.14419.58032-1.67793-.42308-1.53467Z"/><path d="M101.25244,351.28789c2.09338-2.10445,4.31414-4.07872,6.40747-6.1851a.79621.79621,0,0,0-1.12537-1.12536c-2.09333,2.10637-4.31408,4.08064-6.40747,6.1851a.79621.79621,0,0,0,1.12537,1.12536Z"/><path d="M92.84332,516.55683a56.21929,56.21929,0,0,1-6.75381,8.18,53.69507,53.69507,0,0,1-5.41207,3.90335c-2.03188,1.43755-3.99678,2.96754-5.92887,4.53594-.79545.64572.33658,1.76568,1.12537,1.12537,2.80561-2.2775,5.71723-4.36345,8.69821-6.39949a24.70562,24.70562,0,0,0,5.04732-4.60765c1.60865-1.91615,3.10514-3.92777,4.59807-5.93421.61177-.8222-.76907-1.61658-1.37422-.80327Z"/><path d="M186.11072,414.42514a9.44106,9.44106,0,0,0,3.572-.32724c2.03879-.40778,4.054-.93824,6.05974-1.483,4.18292-1.136,8.3341-2.39061,12.47041-3.6851q1.42289-.44531,2.84269-.9006c.97074-.31331.55555-1.85052-.42309-1.53466-6.604,2.13143-13.272,4.24554-20.04229,5.78262-1.16816.26521-3.07978.81-4.05639.61327-1-.2015-1.42793,1.3322-.42309,1.53467Z"/><path d="M179.18161,405.26148a59.13439,59.13439,0,0,0,4.33089,7.56142,7.0607,7.0607,0,0,0,1.58411,1.77248.80243.80243,0,0,0,1.08874-.28548.81275.81275,0,0,0-.28548-1.08875c-.10254-.07272.12427.12567.0024.00082-.04116-.04217-.089-.0795-.13157-.12043-.09923-.09547-.19235-.19736-.28289-.301a6.74665,6.74665,0,0,1-.55317-.71319c-.5126-.72048-.97931-1.47367-1.43176-2.233-.8626-1.44757-1.6688-2.92912-2.44727-4.4234-.16842-.32328-.33608-.647-.49977-.97276-.46-.9153-1.8334-.11038-1.37423.80326Z"/><path d="M178.51,406.00578l1.98154,15.76751,2.67525,21.28757a15.76881,15.76881,0,0,0,.20553,1.63546c.18351.77751,1.04429,1.09258,1.66672,1.52475a16.81537,16.81537,0,0,1,3.71143,3.29026c.633.80425,1.75225-.32889,1.12537-1.12537a19.88717,19.88717,0,0,0-5.30613-4.37675l.39413.68711-4.2594-33.89293-.60293-4.79761c-.126-1.00268-1.7191-1.01529-1.59151,0Z"/><path d="M184.034,421.87691l2.70647,19.47006.38427,2.76438c.14041,1.01009,1.67413.5802,1.53466-.42308l-2.70647-19.47007-.38426-2.76438c-.14041-1.01008-1.67413-.5802-1.53467.42309Z"/><path d="M191.35949,451.0948c6.477-1.3263,12.96741-2.65291,19.3832-4.25232a.79644.79644,0,0,0-.42309-1.53466c-6.41579,1.59941-12.90624,2.926-19.3832,4.25232-1.00268.20532-.57832,1.73972.42309,1.53466Z"/><path d="M106.57387,455.91281l15.38253,2.66345,2.22165.38468c1.00171.17344,1.43194-1.36.42309-1.53467l-15.38253-2.66344-2.22165-.38468c-1.00172-.17344-1.432,1.36-.42309,1.53466Z"/><path d="M192.00118,461.771c2.15729-.72281,4.36829-1.2582,6.48567-2.10366,2.03859-.814,4.48869-1.89418,5.36249-4.07219a.802.802,0,0,0-.55579-.97888.814.814,0,0,0-.97887.55579,4.3411,4.3411,0,0,1-1.743,1.72029,16.9648,16.9648,0,0,1-3.03209,1.44359c-1.95553.73763-3.98246,1.23733-5.96145,1.9004-.96623.32373-.55192,1.86134.42308,1.53466Z"/><path d="M148.1452,432.60439c1.00342,1.59044,2.9677,2.18586,4.72375,2.47787a34.118,34.118,0,0,0,7.95788.18311,120.71813,120.71813,0,0,0,16.70728-2.55309c1.2788-.2729,2.55709-.55371,3.82648-.868a.79644.79644,0,0,0-.42308-1.53466c-3.12313.77335-6.28675,1.40734-9.45383,1.96939-5.42471.96271-11.09145,1.866-16.61612,1.44834-1.674-.12655-4.3405-.32908-5.34814-1.92618-.54514-.86405-1.92288-.06635-1.37422.80326Z"/><path d="M147.1289,423.90271c.38,1.47229,2.01808,2.0042,3.35,2.23158a28.09038,28.09038,0,0,0,7.00812.06511,140.28612,140.28612,0,0,0,17.078-2.72927c1.844-.38582,3.6818-.79849,5.51974-1.21181.99884-.22462.57612-1.75937-.42309-1.53466-3.78673.85157-7.57918,1.6709-11.3987,2.3642-5.10841.92725-10.42368,1.89662-15.63745,1.67091-1.048-.04537-3.66005-.10947-3.96192-1.27915a.79644.79644,0,0,0-1.53466.42309Z"/><path d="M142.37972,383.90968q-2.64593,10.45668-5.32606,20.9047c-3.1196,12.17927-6.24883,24.357-9.49125,36.50422-1.14688,4.29666-2.25548,8.61543-3.5764,12.863-.30485.98025,1.231,1.39953,1.53466.42309,2.90261-9.33362,5.18689-18.88707,7.64606-28.34338Q137.639,409.064,142.00835,391.84q.95493-3.75313,1.906-7.50723a.79645.79645,0,0,0-1.53467-.42309Z"/><path d="M123.59384,455.48284c-.80177,8.65937-2.1962,17.284-3.45521,25.88606q-.207,1.41422-.41663,2.828c-.14914,1.00191,1.38416,1.43419,1.53466.42309,1.12263-7.54219,2.21006-15.09191,3.17857-22.65553.2762-2.157.54961-4.31606.75012-6.48165.09439-1.01941-1.49772-1.013-1.59151,0Z"/><path d="M117.90516,497.93028c-2.1496,11.61418-4.12934,23.259-6.55692,34.82024-1.25291,5.96689-2.59969,11.92172-4.23944,17.79559a67.34086,67.34086,0,0,1-4.71736,13.14212,10.36255,10.36255,0,0,1-2.61681,3.59017,1.72245,1.72245,0,0,1-2.41113-.01475c-.81747-.61721-1.61141.76406-.80327,1.37423,5.78747,4.3697,9.935-10.56758,10.87437-13.5689,3.83163-12.24229,6.18295-24.96877,8.52356-37.56245,1.18573-6.37982,2.3007-12.77249,3.48166-19.15316.18531-1.0012-1.34822-1.43043-1.53466-.42309Z"/><path d="M201.80387,451.71449l1.608,16.89292.23148,2.43176c.0962,1.0107,1.68867,1.02073,1.59151,0l-1.608-16.89291-.23147-2.43177c-.09621-1.0107-1.68868-1.02072-1.59152,0Z"/><path d="M203.6718,471.25071c2.64424,13.40518,8.86725,25.96391,10.12922,39.64532A205.0313,205.0313,0,0,1,214.194,531.675l-.20641,21.7947c-.03652,3.85555-.014,7.717-.11469,11.57141-.0731,2.79815-.38148,6.26457-3.03935,7.848a.79635.79635,0,0,0,.80327,1.37422c4.92839-2.93615,3.84516-10.53866,3.89068-15.345l.21344-22.5377c.0692-7.30663.31-14.64176-.09047-21.94221a79.3608,79.3608,0,0,0-1.22431-10.535,95.56765,95.56765,0,0,0-2.72-10.20629c-2.33786-7.57743-4.96188-15.07335-6.49971-22.86948-.198-1.00394-1.73232-.579-1.53466.42308Z"/><path d="M125.29016,427.2363c2.34988.38512,4.70677.7244,7.068,1.032a.79976.79976,0,0,0,.79576-.79576.816.816,0,0,0-.79576-.79576q-3.33011-.43377-6.64492-.97512a.82.82,0,0,0-.97887.55579.80211.80211,0,0,0,.55579.97888Z"/><path d="M109.81863,416.87492c8.13345,2.36939,16.55819,3.35131,24.93553,4.42878,1.013.13028,1.00346-1.46245,0-1.59152-8.238-1.05954-16.51473-2.04207-24.51244-4.37192a.79644.79644,0,0,0-.42309,1.53466Z"/><path d="M90.67609,417.35976c.16392,1.24879,1.52034,2.0565,2.48882,2.6871a25.50319,25.50319,0,0,0,4.57425,2.20186,54.0644,54.0644,0,0,0,11.92487,2.90194c1.002.15158,1.434-1.38172.42309-1.53466a57.4201,57.4201,0,0,1-10.52745-2.3798,31.40168,31.40168,0,0,1-4.667-2.00265,14.75583,14.75583,0,0,1-1.45851-.923,7.68256,7.68256,0,0,1-.74913-.59093c-.10541-.09682-.44039-.53454-.41746-.35982-.13139-1.001-1.72462-1.01409-1.59151,0Z"/><path d="M93.00386,410.71284a5.52353,5.52353,0,0,0,2.30566,1.7794c1.0401.47994,2.11536.9135,3.19162,1.3044a71.21935,71.21935,0,0,0,7.475,2.114c.99479.24265,1.41924-1.29169.42308-1.53467-2.291-.55882-4.5864-1.11879-6.81955-1.883-1.00924-.34536-1.99558-.746-2.97817-1.16018a4.96661,4.96661,0,0,1-2.2234-1.42323c-.58521-.831-1.96575-.0367-1.37422.80327Z"/><path d="M152.93916,458.74788a6.42454,6.42454,0,0,0,3.65349,6.16124c2.7083,1.42224,6.0111,1.47623,8.99839,1.55524a65.28261,65.28261,0,0,0,20.25412-2.70547.79644.79644,0,0,0-.42308-1.53466,63.8862,63.8862,0,0,1-17.47013,2.6665,35.50886,35.50886,0,0,1-8.365-.58085c-2.66415-.62345-5.39531-2.49837-5.05625-5.562.1125-1.01649-1.47989-1.0085-1.59151,0Z"/><path d="M83.379,446.80067a5.44812,5.44812,0,0,0,2.9109,2.32289c1.43634.55433,2.9094,1.00021,4.34719,1.55967,3.58143,1.39358,7.37136,2.178,10.91186,3.68519.93176.39664,1.74368-.9739.80326-1.37422-3.25058-1.38374-6.67809-2.20624-10.00485-3.37125-1.4658-.51331-2.87456-1.15068-4.35963-1.60948-1.28166-.396-2.5209-.79545-3.23451-2.01606a.79635.79635,0,0,0-1.37422.80326Z"/><polyline class="k" points="266.089 265.839 265.785 241.332 259.554 238.045 254.428 230.122 254.709 226.772 242.737 208.751 232.362 175.635 220.829 171.89 211.157 222.997 266.089 265.839"/><polyline class="k" points="56.201 265.125 60.963 239.929 64.534 238.045 69.661 230.122 69.253 225.259 81.352 208.751 94.067 174.875 103.259 171.89 112.932 222.997 57.999 265.839"/><polygon class="c" points="182.446 157.406 181.88 137.467 184.768 133.059 192.371 128.103 197.701 114.395 190.848 109.065 187.477 80.127 162.321 71.75 137.54 79.365 133.038 109.057 129.167 112.807 132.136 127.246 135.167 129.171 135.268 137.241 141.36 144.857 140.97 161.771 132.21 173.092 141.348 204.256 160.386 212.633 185.517 185.218 197.701 166.941 182.446 157.406"/><g class="l"><polygon class="m" points="185.535 121.991 197.738 89.946 115.012 0 134.918 119.966 137.812 98.329 140.12 92.774 142.563 82.94 159.549 86.332 178.87 83.653 181.165 92.73 185.399 99.153 184.787 117.035 185.535 121.991"/></g><path class="n" d="M157.68978,104.04844l-1.30593,5.74609a2.3755,2.3755,0,0,1-.11916.37634l-2.533,6.1651a2.37577,2.37577,0,0,0,1.91425,3.26168l3.58141.2406,3.87932-1.061s3.11671-2.2878,1.39257-3.31565"/><polygon points="178.047 99.866 178.417 95.989 168.345 93.448 165.972 95.969 178.047 99.866"/><polygon points="152.19 96.056 150.661 92.368 142.64 97.055 142.052 100.259 152.19 96.056"/><path d="M166.895,128.39974a23.31395,23.31395,0,0,1-14.1164,2.29745c-1.15664-.17919-1.655,1.59082-.4884,1.77157a25.43138,25.43138,0,0,0,15.53207-2.48266c1.05261-.53921.12413-2.125-.92727-1.58636Z"/><path d="M177.42576,142.19139l-14.23028,8.93529-11.58278.02654-8.31723-5.13545,6.5845,14.01454a7.944,7.944,0,0,0,3.60959,4.04416h0a7.94405,7.94405,0,0,0,3.76628.94955h.39282a7.94405,7.94405,0,0,0,5.11705-1.86756l2.939-2.475a7.944,7.944,0,0,0,1.84366-2.24811l6.568-11.94182Z"/><path d="M180.15554,138.41243c-3.88173,3.21915-7.72476,6.48532-11.58812,9.72645q-1.18042.99032-2.36409,1.97678c-.91091.75543.395,2.04887,1.29909,1.29909,3.88173-3.21915,7.72476-6.48531,11.58812-9.72644q1.18042-.99032,2.36409-1.97678c.91091-.75543-.395-2.04887-1.29909-1.2991Z"/><path d="M148.20732,100.8009a7.99109,7.99109,0,0,1-.00051,5.723l1.53533-.40535a3.454,3.454,0,0,1-.643-1.13069,5.70534,5.70534,0,0,1-.19576-.80234c-.01112-.06475-.02209-.1298-.0305-.195.01288.0998-.00011-.01592-.00306-.05172-.01239-.15016-.02595-.29977-.03332-.45034a13.35027,13.35027,0,0,1,.03745-1.68009c.02079-.269.04692-.5375.07549-.80574.00288-.0271.04617-.28573.017-.1552-.02557.11455.02687-.059.0249-.07539q.02429-.07767-.00254.00032-.09152.31323-.59285.0025-.49635.22695-.60592-.09861a.65936.65936,0,0,1,.16233-.76195l.40534-.23623.1583-.027a.925.925,0,0,0-.9186.9186.93885.93885,0,0,0,.9186.9186,1.05148,1.05148,0,0,0,1.01846-1.36244,1.14423,1.14423,0,0,0-1.37282-.84021c-1.13746.28909-1.078,1.80413-1.13964,2.7264a7.11743,7.11743,0,0,0,1.421,5.4056.92912.92912,0,0,0,1.53533-.40535,9.63529,9.63529,0,0,0,.00051-6.69979.9443.9443,0,0,0-1.13-.64158.92584.92584,0,0,0-.64158,1.13Z"/><path d="M170.25865,100.34194a8.03354,8.03354,0,0,1-.00051,5.75018l1.53533-.40535a3.4657,3.4657,0,0,1-.64685-1.13741,5.729,5.729,0,0,1-.19662-.80586,5.37787,5.37787,0,0,1-.06732-.70113,13.40669,13.40669,0,0,1,.03762-1.68745c.02088-.27014.04712-.53985.07581-.80927.00287-.027.04608-.2863.01718-.15641-.02531.11382.027-.06.02508-.07625q.0243-.07776-.00235-.00016-.09118.31255-.59176.002-.49547.22635-.60491-.09856a.65842.65842,0,0,1,.16221-.76089l.40535-.23624.15792-.027a.925.925,0,0,0-.9186.91859.93885.93885,0,0,0,.9186.9186,1.052,1.052,0,0,0,1.019-1.36331A1.14518,1.14518,0,0,0,170.21,98.825c-1.14006.28968-1.07992,1.81031-1.14167,2.73446a7.1449,7.1449,0,0,0,1.42607,5.42642.92912.92912,0,0,0,1.53533-.40535,9.67394,9.67394,0,0,0,.00051-6.727.9443.9443,0,0,0-1.13-.64159.92586.92586,0,0,0-.64159,1.13Z"/><path d="M191.15136,118.78561l-3.98653,2.0249a.92491.92491,0,0,0-.32954,1.25681.94059.94059,0,0,0,1.25681.32955l3.98652-2.02489a.92492.92492,0,0,0,.32955-1.25682.9406.9406,0,0,0-1.25681-.32955Z"/><path d="M189.13156,116.93161,186.669,121.451a.91874.91874,0,1,0,1.58636.92727l2.46257-4.51942a.91875.91875,0,0,0-1.58637-.92727Z"/><path d="M195.65433,114.698a11.18352,11.18352,0,0,0-6.44693,2.18784.94756.94756,0,0,0-.32955,1.25682.92506.92506,0,0,0,1.25682.32955,9.4444,9.4444,0,0,1,5.51966-1.937.9186.9186,0,0,0,0-1.8372Z"/><polygon class="k" points="215.406 240.785 205.708 301.235 191.421 313.219 117.537 309.63 112.934 301.477 103.891 218.737 91.454 194.327 99.875 173.02 131.035 161.129 140.962 152.139 141.034 158.014 139.497 168.077 153.126 196.736 181.395 164.631 182.414 157.133 182.51 154.422 182.139 146.581 190.732 156.634 231.81 176.682 231.81 219.992 215.406 240.785"/><path class="o" d="M210.96143,261.29122a69.944,69.944,0,0,0,3.89311-44.11864c-.23861-.99556-1.77364-.574-1.53466.42309A68.13171,68.13171,0,0,1,209.5872,260.488c-.4044.92985.96634,1.74113,1.37423.80327Z"/><polygon class="p" points="190.807 180.675 196.915 183.128 197.297 174.219 211.461 176.482 206.608 186.763 202.868 201.092 196.633 198.873 192.956 195.925 189.681 191.393 189.077 185.359 190.807 180.675"/><path d="M216.28644,177.19993c-3.91388,6.11456-8.4947,10.87328-8.33822,18.1315.02776,1.288.32614,4.57313-.04573,5.80655s-4.94875,1.78891-5.03436-.04572c-.35862-7.68554,3.36837-18.96176,8.59269-24.61"/><path d="M197.28249,189.59574a37.74672,37.74672,0,0,0,5.80452-3.06818c1.86936-1.13032,3.70063-2.3233,5.57705-3.44181a.79635.79635,0,0,0-.80327-1.37422c-1.82931,1.09042-3.61543,2.2522-5.43633,3.35658a36.2263,36.2263,0,0,1-5.56506,2.993c-.94522.36553-.53446,1.90495.42309,1.53467Z"/><polygon class="p" points="202.295 161.938 206.25 163.558 215.254 167.815 210.278 164.579 204.017 161.344 197.071 159.628 202.295 161.938"/><ellipse class="q" cx="213.04928" cy="195.12219" rx="3.03304" ry="1.62422" transform="translate(-75.14782 174.99516) rotate(-38.49024)"/><ellipse class="q" cx="212.45004" cy="199.2939" rx="3.03304" ry="1.62422" transform="translate(-77.87442 175.52866) rotate(-38.49024)"/><ellipse class="q" cx="211.69057" cy="203.73103" rx="3.03304" ry="1.62422" transform="translate(-80.80103 176.0201) rotate(-38.49024)"/><ellipse class="q" cx="210.81938" cy="208.59019" rx="3.03304" ry="1.62422" transform="translate(-84.01458 176.53371) rotate(-38.49024)"/><ellipse class="q" cx="209.57408" cy="213.27467" rx="3.03304" ry="1.62422" transform="translate(-87.20069 176.77653) rotate(-38.49024)"/><ellipse class="q" cx="208.63975" cy="217.7771" rx="3.03304" ry="1.62422" transform="translate(-90.20594 177.17334) rotate(-38.49024)"/><ellipse class="q" cx="208.117" cy="222.64424" rx="3.03304" ry="1.62422" transform="translate(-93.34874 177.90555) rotate(-38.49024)"/><ellipse class="q" cx="207.27072" cy="227.51357" rx="3.03304" ry="1.62422" transform="translate(-96.5632 178.43687) rotate(-38.49024)"/><ellipse class="q" cx="207.13037" cy="232.78138" rx="3.03304" ry="1.62422" transform="translate(-99.87229 179.49414) rotate(-38.49024)"/><ellipse class="q" cx="206.83358" cy="237.53091" rx="3.03304" ry="1.62422" transform="translate(-102.89279 180.34143) rotate(-38.49024)"/><ellipse class="q" cx="206.83836" cy="242.64178" rx="3.03304" ry="1.62422" transform="translate(-106.07267 181.45493) rotate(-38.49024)"/><path class="q" d="M209.5018,245.90342c.21832.93718-.74628,2.37592-2.1545,3.21353s-2.72679.75689-2.94511-.18029,1.58351-2.777,2.99172-3.61465S209.28347,244.96624,209.5018,245.90342Z"/><ellipse class="q" cx="208.01936" cy="251.80385" rx="3.03304" ry="1.62422" transform="translate(-111.51835 184.18074) rotate(-38.49024)"/><ellipse class="q" cx="209.12339" cy="256.17243" rx="3.03304" ry="1.62422" transform="translate(-113.99738 185.81711) rotate(-38.49024)"/><ellipse class="q" cx="210.22593" cy="259.80165" rx="3.03304" ry="1.62422" transform="translate(-116.01658 187.29188) rotate(-38.49024)"/><path class="r" d="M212.12759,192.8431l4.2225-15.677,1.70251.5593a1.57274,1.57274,0,0,1,.574,1.731l-4.29272,12.37145Z"/><path class="s" d="M170.15924,223.58744s2.858,43.366,19.74044,43.76238,18.09853-16.02524,18.09853-16.02524"/><path class="s" d="M215.76379,177.0684s8.34438-5.24563,8.67194-5.21965"/><path class="s" d="M215.76379,177.0684s3.01966-6.60479,6.31867-6.60479"/><path d="M211.86051,193.88655c.03345.06032.06611.12094.09665.18282.01319.02674.0877.19177.0411.08293-.048-.11209.02778.07877.036.10295q.02828.08316.051.16806c.01447.05408.02731.1086.038.16355.00434.02234.006.04679.01218.06864.02251.08-.01263-.10067-.01285-.09888-.01151.09568.01505.20483.01129.30319-.00139.03649-.02316.21263.00045.05938.02266-.14708-.00138.00073-.00809.03438a1.96444,1.96444,0,0,1-.07341.26719c-.00648.01841-.01411.03656-.02019.0551-.03759.11467.03033-.0766.03522-.08227a.57033.57033,0,0,0-.05063.10478,2.37161,2.37161,0,0,1-.13791.23285c-.0251.03747-.05328.0729-.07827.11036-.027.04052.1261-.15027.02849-.0397-.05983.06778-.11862.13576-.18217.20017-.12161.12327-.26431.22313-.38708.34354.00174-.00171.16907-.12578.07129-.05548l-.04512.03345q-.04489.033-.09045.065-.10371.073-.21039.14176c-.12714.08214-.257.16-.38833.23526-.21268.12182-.43721.228-.64186.36328a.79589.79589,0,0,0,.80327,1.37423c.19172-.1267.40163-.22688.60131-.34019a7.95947,7.95947,0,0,0,.99581-.66869,3.05532,3.05532,0,0,0,.87887-4.211.8037.8037,0,0,0-1.08875-.28548.81193.81193,0,0,0-.28548,1.08875Z"/><path d="M211.00081,203.83921c.06248.10488.11721.212.17155.32113.06279.12617-.059-.17135.00158.00787.01682.04978.03463.099.04935.14953q.021.07212.037.14556c.00583.02685.00844.05514.016.08146.02265.07936-.01366-.12076-.01356-.11144.001.09667.01553.19115.01132.28856-.00183.04236-.01206.08683-.01037.12883-.00342-.08518.03332-.19776.0012-.05139a2.298,2.298,0,0,1-.07038.23726c-.05288.15783.07719-.15008.01859-.04506-.01984.03555-.03635.073-.05614.10872-.04279.07716-.09314.14784-.14132.22146-.06652.10163.13736-.16212.02731-.03572-.02323.02668-.04557.0541-.06914.08051-.05913.06629-.12136.12979-.186.19076q-.09063.08553-.187.16467c-.02681.02212-.152.12017-.03061.0261.11792-.09142-.00366.00139-.03258.02231a6.8937,6.8937,0,0,1-.79979.48947c-.21281.11352-.43645.21185-.642.33844a.79588.79588,0,0,0,.80326,1.37422c.4789-.295.99783-.50436,1.456-.83827a3.2622,3.2622,0,0,0,1.504-2.3199,3.03326,3.03326,0,0,0-.484-1.77835.79588.79588,0,1,0-1.37422.80327Z"/><path d="M210.12172,209.45691a2.68871,2.68871,0,0,1,.173.26815c.02349.04232.04421.08579.0659.129.05459.10878-.07413-.19834-.01611-.0335a2.19833,2.19833,0,0,1,.0628.23987c.02192.095-.01527-.23551-.01242-.06818.00071.04173.00222.083.00006.12474-.00889.17122.00754-.092.0159-.09072.00172.00027-.01947.09683-.02129.10407-.00859.03419-.01975.06739-.03023.101-.04914.15765.08782-.17545.025-.05619a2.01707,2.01707,0,0,1-.10588.18472c-.01756.02622-.03736.051-.05487.07714.15774-.23592.07248-.093.01947-.034a1.4801,1.4801,0,0,1-.33432.3078c-.0102.00564.18289-.1351.09151-.07162-.016.0111-.03146.02306-.04727.03437q-.04174.02983-.08429.05852-.10345.06991-.21082.1338a7.28346,7.28346,0,0,1-.80548.40718c-.06554.02887-.1314.057-.19725.08514-.14464.06182.14022-.05905.08016-.03374q-.12752.05375-.255.10761c-.08857.03755-.1778.07433-.26355.11807a.80135.80135,0,0,0-.28548,1.08875.81468.81468,0,0,0,1.08875.28548c.08-.04084.1632-.07522.24577-.11055.11094-.04746-.23079.09731-.08811.03716q.12493-.05267.24982-.10545.09716-.04119.19394-.08324a7.35815,7.35815,0,0,0,.85226-.42975,2.77065,2.77065,0,0,0,1.5074-2.04793,2.34,2.34,0,0,0-.48509-1.531.861.861,0,0,0-.47557-.3657.81324.81324,0,0,0-.61318.08022.80489.80489,0,0,0-.28548,1.08874Z"/><path d="M209.3096,213.89987c-.15915-.206-.05-.063-.01491-.01064.02566.03825.05024.07726.07336.1171.02437.042.04531.08544.06791.12833.06807.12915-.06693-.20279-.017-.038.02134.07043.03655.14083.05486.21184-.065-.252-.01914-.17373-.01495-.08466.00193.04105-.00022.08168-.00149.12269-.00487.15617.04112-.20088.01285-.093-.008.03048-.01327.06153-.022.0919-.00869.03024-.02091.05927-.03.0893-.0255.08425.05293-.12487.05275-.12479a.40225.40225,0,0,0-.03151.06387c-.03034.05732-.06688.10939-.10239.16341-.04788.07284.15167-.17843.04811-.06395-.02821.03119-.05544.06308-.08474.0933-.048.04953-.09859.09656-.15091.1415-.02673.023-.05488.04425-.08156.06721.22172-.19081.09384-.07167.03234-.02794a4.16116,4.16116,0,0,1-.39371.24578c-.12989.072-.26281.13848-.39747.20109q-.09946.04624-.20015.08983c-.064.0278-.201.08267.07621-.03162l-.09913.0411c-.26825.11-.54418.20619-.806.33112a.79978.79978,0,0,0-.28548,1.08875.817.817,0,0,0,1.08875.28547c.01552-.0074.03255-.01351.04756-.02186.11342-.06308-.18818.07729-.12053.05058.04911-.01939.09788-.03965.147-.05908.121-.0479.24221-.09529.3626-.14475a9.08054,9.08054,0,0,0,1.02576-.4765,2.6231,2.6231,0,0,0,1.49983-1.96475,2.33451,2.33451,0,0,0-.61063-1.608.79345.79345,0,0,0-.56268-.23307.80981.80981,0,0,0-.56269.23307.80073.80073,0,0,0-.23307.56269.93765.93765,0,0,0,.23307.56268Z"/><path d="M208.65212,217.78576a2.61618,2.61618,0,0,1,.17049.25669c.02317.04042.04507.08161.06532.12358.08051.16683-.05325-.16255-.011-.0253.02354.07643.04227.15169.061.22932.02117.08793-.02078-.21821-.017-.12869.00075.01809.00328.03618.00428.0543a1.13069,1.13069,0,0,1,.00038.11946c-.00451.08862-.05276.17079.01435-.08321-.00863.03265-.01286.06659-.02155.09937-.00867.03269-.02008.06427-.03016.09649-.04805.1535.08869-.17684.02555-.0621-.03317.06026-.06509.11987-.10412.17673-.08946.1303.05717-.05085.05436-.06648.00319.01774-.0734.08669-.08656.101-.04911.05352-.1011.10439-.1551.153-.08129.07313-.26324.1973-.0448.04362-.12889.09068-.25788.17884-.39434.25805a7.62033,7.62033,0,0,1-.80355.39481c-.13955.06039.18071-.07538.08011-.03367l-.10408.04323-.16937.06964c-.14712.06077-.29652.11834-.43919.18921a.8007.8007,0,0,0-.28548,1.08875.8156.8156,0,0,0,1.08875.28548c.03544-.01761.07168-.03325.10771-.04957.11761-.05326-.19478.08105-.11533.04844l.08417-.03487c.17449-.07194.34887-.144.52245-.21811a7.56127,7.56127,0,0,0,.84944-.41634,2.7203,2.7203,0,0,0,1.51157-2.00591,2.25114,2.25114,0,0,0-.484-1.51018.86738.86738,0,0,0-.47557-.3657.81329.81329,0,0,0-.61318.08022.80437.80437,0,0,0-.28548,1.08875Z"/><path d="M208.18114,223.08705c.086.10571-.12954-.17959-.01812-.02263q.02833.03991.05485.08113c.03815.05954.07068.12106.103.1838.05762.11171-.07252-.19962-.03636-.08849.01081.0332.02374.0655.03345.09912a1.16059,1.16059,0,0,1,.03472.1676l-.02842-.21155a1.02762,1.02762,0,0,1-.002.24853l.02842-.21154a1.01568,1.01568,0,0,1-.034.1489.25312.25312,0,0,0-.02165.06165c.0003.00724.09707-.20656.05456-.12972-.00706.01276-.01261.02653-.01925.03953a1.21619,1.21619,0,0,1-.07378.1246.37224.37224,0,0,0-.04627.06468c-.00467.01341.12846-.15786.08866-.11591-.01329.014-.025.02982-.03777.04432a2.50113,2.50113,0,0,1-.24557.2326c-.08367.07228.17241-.12762.08192-.06271-.02409.01728-.0477.0352-.07193.05229q-.0737.052-.15014.09993a5.25553,5.25553,0,0,1-.64471.33955c-.04973.0224-.09992.04368-.14984.06563.29777-.13094.07343-.03114-.00006-.00162-.096.03856-.19247.07573-.28921.1123-.215.08127-.4305.16-.64.25509a.79853.79853,0,0,0-.3657.47557.81324.81324,0,0,0,.08022.61318.8032.8032,0,0,0,.47557.3657.91174.91174,0,0,0,.61317-.08022c.11832-.05368-.21577.0875-.12714.053l.04979-.02c.0494-.01957.09917-.03824.1489-.057.12-.04515.24016-.08977.3596-.13635a9.33682,9.33682,0,0,0,1.0327-.45973,2.52458,2.52458,0,0,0,1.49784-1.89561,2.20609,2.20609,0,0,0-.61012-1.561.79757.79757,0,0,0-.56269-.23307.80978.80978,0,0,0-.56268.23307.80061.80061,0,0,0-.23307.56268.91165.91165,0,0,0,.23307.56269Z"/><path d="M207.6163,226.921a3.273,3.273,0,0,1,.16874.30289.60235.60235,0,0,0,.03863.08382c.00087.00118-.05717-.16336-.03779-.087.01381.05437.0391.107.05522.16108.0135.04529.02567.091.03594.13712.00865.03884.0331.19952.01266.04638-.0203-.15214-.00213.00293-.00032.04207.00221.04766.0024.09547.00034.14314-.00174.04028-.01968.18987.00177.03273.0214-.15686-.00054-.01031-.00919.02856-.01838.08265-.04793.15953-.07363.23978-.01293.0404.09377-.193.01963-.05344-.0182.03428-.03563.06886-.055.10252-.04036.07011-.10463.13665-.13814.209,0,.0001.13778-.16637.06216-.0815-.01121.01259-.02159.026-.03252.03889q-.03849.04521-.079.08865c-.0582.0625-.11937.12223-.18261.17963-.05938.0539-.12341.10221-.18329.15535-.06016.05338.10884-.08189.09334-.07174-.0189.01238-.03643.02782-.05484.04107-.03695.02656-.07367.05341-.11108.07933a6.98569,6.98569,0,0,1-.79773.46847c-.21169.10846-.43353.20217-.63835.32348a.79588.79588,0,1,0,.80327,1.37422c.4821-.28553,1.00219-.48644,1.464-.81143a3.14329,3.14329,0,0,0,1.49648-2.25645,2.86807,2.86807,0,0,0-.48448-1.71986.79588.79588,0,0,0-1.37422.80326Z"/><path d="M207.6163,233.01959a2.79282,2.79282,0,0,1,.17642.28429c.0209.03934.0387.08014.059.11974.04318.08437-.06493-.17856-.03793-.08964.0084.02767.02054.05472.02963.0822.026.07857.04067.15775.05879.23815.01125.0499-.01512-.23093-.01323-.07454.00053.04431.00284.08823.00082.13259-.00087.01917-.00356.0384-.00394.05754-.00181.09057.03712-.215.01771-.12681-.007.032-.01166.06453-.01942.09648q-.01317.0542-.03106.10711c-.00592.01757-.01295.03476-.01887.05232-.0362.10749.08467-.17846.04206-.10054-.03374.06169-.06358.12429-.10181.18364-.0137.02127-.04146.08223-.06459.09334-.01918.00922.13005-.15877.08073-.10433-.01608.01774-.03036.03734-.046.05555a2.98731,2.98731,0,0,1-.34136.32709c-.09078.07715.18219-.13282.0414-.032-.02882.02064-.05731.04168-.08638.062q-.09971.0696-.2032.13351a7.15313,7.15313,0,0,1-.8.41988c-.21361.09768-.436.181-.64382.29084a.80229.80229,0,0,0-.28548,1.08874.81348.81348,0,0,0,1.08875.28548c.48042-.25389.99276-.42876,1.45669-.71871a2.85469,2.85469,0,0,0,1.50318-2.08512,2.44823,2.44823,0,0,0-.48388-1.58206.79588.79588,0,1,0-1.37422.80327Z"/><path d="M207.19877,237.28a2.87244,2.87244,0,0,1,.16869.275c.01505.0284.09533.20982.036.06344-.05576-.13757.00639.02064.019.05884.02675.08087.0371.16507.06121.24591-.06884-.23086-.01626-.14772-.0117-.05476.002.0404.00219.08094.00047.12136-.00083.01963-.00352.03968-.00387.05934-.00179.10286.01366-.12158.0177-.12418-.01176.00757-.01871.09579-.02312.1134-.00812.03247-.01759.06459-.02813.09635-.006.01793-.01458.03564-.01916.05389-.01717.06841.09853-.20109.04156-.09782-.03246.05884-.06016.11954-.09593.17675-.02058.03291-.04346.06411-.06489.09641-.06026.09083.14961-.181.02449-.03384a2.898,2.898,0,0,1-.33538.3261.25572.25572,0,0,1-.04786.03866.9758.9758,0,0,1,.10009-.07719c-.03371.02368-.06615.04929-.09977.07315q-.1009.07161-.20577.13737a7.1422,7.1422,0,0,1-.79654.4251c-.213.09917-.43506.184-.64214.29537a.8028.8028,0,0,0-.28547,1.08875.81287.81287,0,0,0,1.08874.28548c.47849-.25746.98974-.43566,1.45173-.72869a2.89464,2.89464,0,0,0,1.50844-2.11572,2.51643,2.51643,0,0,0-.48418-1.60174.79588.79588,0,1,0-1.37422.80327Z"/><path d="M207.19877,242.74467a2.54324,2.54324,0,0,1,.16726.24345c.02283.03835.04448.07745.06457.11731.00959.019.01819.03852.02772.05757.05774.11542-.06555-.19792-.03361-.07713.01921.07263.04126.14431.05954.21736.02347.09376-.022-.1303-.01707-.13294-.00133.00071.00433.0446.0044.05153.00041.042.00038.08383.00034.1258a.31662.31662,0,0,0-.004.04912c-.00017-.00021.03949-.22714.01824-.13914-.00756.0313-.01265.063-.02116.09417-.00848.031-.02015.06081-.02939.0915-.03046.10114.10583-.225.02718-.06862a1.73011,1.73011,0,0,1-.10787.1781c-.08559.12905.10854-.12771.04774-.0617-.026.02823-.05012.05809-.07649.086-.048.05087-.09861.09913-.15114.14526-.02686.02358-.05459.046-.08193.069-.105.0883.1806-.13144.04263-.03348a4.58687,4.58687,0,0,1-.39626.25313c-.135.07643-.27358.14661-.414.21261q-.0948.04457-.19073.08665l-.09269.0402c-.097.04238.13968-.05725.12213-.0514-.0223.00743-.04468.01868-.06641.02768-.2675.11065-.54318.20708-.80407.33277a.8.8,0,0,0-.28547,1.08875.81666.81666,0,0,0,1.08874.28547c.074-.03563.2445-.0996-.07142.02758.04688-.01888.09355-.03828.14048-.05705.11839-.04735.237-.09412.35483-.14286a9.1861,9.1861,0,0,0,1.02187-.47618,3.81816,3.81816,0,0,0,.91766-.69212,2.01108,2.01108,0,0,0,.11257-2.75167.87535.87535,0,0,0-.47557-.3657.81326.81326,0,0,0-.61317.08022.80318.80318,0,0,0-.3657.47557.769.769,0,0,0,.08022.61318Z"/><path d="M207.19877,247.03329a2.89214,2.89214,0,0,1,.16955.27735c.02133.04037.03778.08576.0613.12481-.12329-.20467-.0331-.08256-.006,0,.0146.04455.08323.20649.06085.24784-.0064.01181-.01935-.23462-.01645-.11608.0005.02075.00333.04176.00426.06249.00183.04071.00185.08154,0,.12225-.00484.10322-.05811.15236.013-.06381-.01033.03137-.01257.0679-.02041.10007q-.012.0492-.02767.09742c-.006.01825-.01322.03616-.019.05445-.03482.10953.083-.176.04157-.09691-.03379.06448-.06456.12915-.1036.19091-.01829.02893-.03838.05656-.05736.085-.07832.11737.14022-.16339.02423-.03256a3.02563,3.02563,0,0,1-.33726.329c-.11465.09469.01713.01055.05161-.03775a.4756.4756,0,0,1-.1004.07376q-.10152.07218-.20709.13845a7.16548,7.16548,0,0,1-.80082.42775c-.21081.09822-.43043.18244-.63526.29293a.80287.80287,0,0,0-.28547,1.08875.81279.81279,0,0,0,1.08874.28548c.48225-.26014.99752-.43989,1.4623-.73734a2.8988,2.8988,0,0,0,1.49714-2.10631A2.52093,2.52093,0,0,0,208.573,246.23a.79588.79588,0,0,0-1.37422.80326Z"/><path d="M207.89843,251.72621a2.69112,2.69112,0,0,1,.173.26832c.02349.04235.04421.08585.0659.1291.05455.10881-.07411-.19829-.01611-.0334a2.19939,2.19939,0,0,1,.0628.24c.0219.09509-.01526-.23547-.01242-.06809.00071.04176.00222.08306,0,.12483-.00888.1713.00778-.092.01591-.09064.00185.0003-.01947.09689-.02129.10414-.00859.03421-.01975.06743-.03023.10107-.04912.15771.08779-.17543.025-.05611a2.01538,2.01538,0,0,1-.10588.18484c-.01756.02624-.03737.051-.05487.07719.15744-.23587.07252-.093.01947-.03391a1.46619,1.46619,0,0,1-.33432.308c-.01022.0056.18286-.13513.09151-.07158-.016.01111-.03146.02307-.04728.03439q-.04173.02985-.08428.05856-.10345.07-.21082.13389a7.28018,7.28018,0,0,1-.80548.40745q-.09831.04332-.19725.0852c-.06715.02855-.20689.08739.08016-.03372q-.1275.05381-.255.10763c-.08857.03757-.17781.07438-.26355.11815a.80136.80136,0,0,0-.28548,1.08875.81463.81463,0,0,0,1.08874.28547c.08-.04085.16317-.07539.24577-.11061.14579-.06215-.18927.07982-.08811.03713q.12493-.05272.24983-.10547.09717-.04119.19394-.08329a7.35777,7.35777,0,0,0,.85226-.43,2.77206,2.77206,0,0,0,1.5074-2.04882,2.34217,2.34217,0,0,0-.48509-1.53173.86082.86082,0,0,0-.47557-.36569.81324.81324,0,0,0-.61318.08022.80489.80489,0,0,0-.28548,1.08874Z"/><path d="M208.9033,255.96006a2.83267,2.83267,0,0,1,.16784.27025c.02444.0455.04444.09327.06861.13878.03686.06939-.056-.11049-.0443-.10519a.45779.45779,0,0,1,.036.09994c.02345.07185.02786.15658.056.2253-.07118-.174-.01865-.193-.01591-.11835.00075.02028.00361.04072.0047.061a1.29775,1.29775,0,0,1,.00026.13407c-.001.01924-.00471.039-.00424.05818.00177.072.0081-.15716.01957-.14.01.015-.01814.09444-.02239.11163-.00906.03664-.02125.07209-.03184.10824-.04537.15487.07871-.1594.028-.05951-.03218.06338-.06367.126-.10192.18617-.02043.0321-.045.0622-.06474.09462-.04157.06843.091-.12932.08068-.10351a.35986.35986,0,0,1-.05572.06738,2.96529,2.96529,0,0,1-.33368.32024c-.11972.10166.14774-.10675.05295-.04-.03337.0235-.06573.04844-.09915.07191q-.10031.07041-.20449.13508a7.16982,7.16982,0,0,1-.80418.42412c-.21142.09716-.43153.18032-.63708.28966a.80247.80247,0,0,0-.28548,1.08875.81328.81328,0,0,0,1.08875.28548c.47952-.25507.9911-.43109,1.45421-.72191a2.87145,2.87145,0,0,0,1.50664-2.10394,2.46639,2.46639,0,0,0-.48486-1.58172.79589.79589,0,1,0-1.37423.80327Z"/><path d="M209.8304,259.27888a3.198,3.198,0,0,1,.16692.29348.51815.51815,0,0,0,.03835.08124c.00366.00461-.063-.16717-.038-.09017.01915.059.04338.1159.06113.17547q.01956.06559.03438.13247c.02249.10164-.02213.14951.00016-.04614-.00946.08309.01415.17782.01024.26326-.00076.01669-.00354.0342-.00308.05086.00342.1235.01362-.1245.01713-.11168a.31014.31014,0,0,1-.02128.11345c-.01771.07816-.05788.15488-.0723.23243.0374-.20111.06276-.14177.02059-.05765q-.02537.05059-.05385.09953-.03269.0561-.0691.10995c-.04692.06957-.1435.13509.02785-.02918-.11571.11092-.21119.24056-.33222.34833q-.0439.03911-.08915.07671c-.0288.024-.14384.11392-.02457.02187.123-.09494.00158-.00226-.027.01848q-.05423.0393-.10959.077a6.98819,6.98819,0,0,1-.80135.46242c-.21233.1068-.43461.19883-.64025.31834a.79589.79589,0,1,0,.80327,1.37423c.47918-.2785.99515-.474,1.45537-.79022a3.09008,3.09008,0,0,0,1.505-2.23045,2.80334,2.80334,0,0,0-.48434-1.6973.79588.79588,0,1,0-1.37422.80327Z"/><line class="s" x1="224.43573" y1="171.84875" x2="226.73959" y2="173.766"/><line class="s" x1="222.08245" y1="170.46361" x2="224.38631" y2="172.38085"/><path d="M197.03971,174.05753c4.13618,1.04686,8.386,1.68747,12.59228,2.37921,3.18492.52377,6.48138.84235,9.61819,1.618.99424.24586,1.41842-1.28853.42309-1.53466-3.13679-.77565-6.43332-1.09425-9.61819-1.618-4.20627-.69173-8.4561-1.33234-12.59228-2.3792a.79644.79644,0,0,0-.42309,1.53466Z"/><path d="M100.37573,178.93142c8.05448-.03279,16.02-1.865,24.07447-1.89782a.79623.79623,0,0,0,0-1.59151c-8.05449.03279-16.02,1.865-24.07447,1.89782a.79623.79623,0,0,0,0,1.59151Z"/><path d="M101.14306,178.34722a.63715.63715,0,0,0,.038-.09779c-.038.20674-.04841.10961-.01.02724.045-.09647.09008-.19275.13768-.288.11053-.22118.22837-.4387.34887-.65459.292-.52327.601-1.03708.91513-1.54737.58122-.94432,1.18256-1.87635,1.79374-2.80152q.19722-.29851.3964-.59575a.79588.79588,0,1,0-1.37422-.80326c-1.06271,1.57922-2.11012,3.18035-3.04575,4.8386a10.85307,10.85307,0,0,0-.73456,1.49933.80238.80238,0,0,0,.55578.97887.81319.81319,0,0,0,.97888-.55578Z"/><path d="M191.4313,159.18172a85.95092,85.95092,0,0,1,11.58549,4.6448c3.78629,1.67644,7.562,3.387,11.28763,5.19512.9176.44533,1.7255-.92665.80327-1.37422-3.81323-1.85062-7.67844-3.60053-11.5551-5.31343a87.256,87.256,0,0,0-11.6982-4.68693.79643.79643,0,0,0-.42309,1.53466Z"/><path d="M196.8916,166.81c2.92022.04277,5.787,1.789,8.335,3.0364,2.56065,1.25361,5.36944,2.79648,8.293,2.83931a.79624.79624,0,0,0,0-1.59152c-2.92022-.04277-5.787-1.789-8.335-3.0364-2.56065-1.25361-5.36944-2.79648-8.293-2.83931a.79624.79624,0,0,0,0,1.59152Z"/><path d="M106.98142,172.63141a5.01454,5.01454,0,0,0,7.98021.14622.80117.80117,0,0,0-.28548-1.08874.81453.81453,0,0,0-1.08874.28548c.07654-.10313-.07266.08572-.07386.0871q-.078.08857-.162.17156c-.04644.04587-.09492.08941-.14321.13328-.03052.02774-.1358.11462-.05052.04808a3.42456,3.42456,0,0,1-.739.4317c.1308-.05671-.09724.0342-.101.03554q-.11106.03933-.22432.07242-.18921.05535-.383.09336c-.02748.0054-.24.0411-.101.02168-.07826.01093-.158.01758-.23677.02327q-.21784.01573-.43651.0107a2.504,2.504,0,0,1-.73108-.09019q-.21123-.04953-.417-.11921c-.07429-.02535-.1485-.052-.2209-.08228.10164.04259-.02167-.01187-.0604-.03123-.12822-.06411-.25409-.13149-.37548-.2079q-.09889-.06225-.19382-.13056c-.109-.0785.00669.00873-.05385-.04326a3.7661,3.7661,0,0,1-.3111-.29609c-.05321-.05743-.106-.11689-.15425-.17856.07952.10157-.05457-.08363-.06268-.09564a.81521.81521,0,0,0-1.08875-.28547.80336.80336,0,0,0-.28548,1.08874Z"/><path d="M110.6117,224.98352a59.85931,59.85931,0,0,1,1.38329,10.17219c.09024,1.57848.14364,3.1588.194,4.739.04383,1.37574-.20973,3.2466.26231,4.55546a4.71341,4.71341,0,0,0,1.51845,1.91759c.944.74258,2.31907.62276,3.45784.78811,2.9721.43157,5.94218.82714,8.93089,1.13046a63.08116,63.08116,0,0,0,10.58824.357,4.32178,4.32178,0,0,0,2.72182-.75916,3.50647,3.50647,0,0,0,1.43652-2.0993,102.74376,102.74376,0,0,0,1.50065-12.70548c.417-4.807.59779-9.77575,1.70351-14.4881.23376-.99621-1.30041-1.4214-1.53466-.42308a80.04065,80.04065,0,0,0-1.433,11.15675c-.37819,4.23583-.67293,8.48617-1.22316,12.70442-.19077,1.4625-.1507,3.5596-1.35866,4.55251-.9456.77725-2.815.53868-3.97644.558-1.68656.028-3.37319-.03555-5.05564-.15153-3.10767-.21423-6.22283-.55059-9.30708-.98768-1.17714-.16682-2.35132-.35375-3.52928-.51491-1.16212-.159-2.08563-.13-2.74426-1.2363a4.72831,4.72831,0,0,1-.30012-2.26272c-.0256-.77392-.04873-1.54791-.0737-2.32184-.05331-1.65213-.11131-3.30441-.213-4.95439a61.41522,61.41522,0,0,0-1.41381-10.15c-.23182-.99721-1.76671-.5751-1.53466.42309Z"/><path d="M123.85193,185.51587c1.31232-2.77392,3.13281-5.36249,5.99326-6.677a23.99991,23.99991,0,0,1,7.13636-1.7954l-.9329-.71026a34.94406,34.94406,0,0,1,1.67385,5.84447,10.80088,10.80088,0,0,0,.29436,2.59593,5.11765,5.11765,0,0,0,.85657,1.06732c2.64853,2.92224,5.56832,5.59579,8.27051,8.46886.67468.71736,1.35027,1.44009,1.97179,2.20462.18958.2332.37026.4693.537.71945.04379.06569.12178.28368.18386.32-.14608-.0855.08664-.75712.31631-.8866a.96818.96818,0,0,0,.97659,1.67074c1.40428-.79168-.01763-2.425-.64556-3.19179-1.31307-1.60351-2.79033-3.07943-4.24111-4.5566-1.54907-1.57724-3.12147-3.1315-4.66542-4.71376-.53792-.55127-1.07762-1.103-1.58557-1.68234-.17244-.19667-.15847-.28322-.26868-.3345-.08142-.03789-.00584.379.08233.24858.10687-.15806.01311-.67493-.00044-.867a27.30266,27.30266,0,0,0-1.89058-7.42173.98811.98811,0,0,0-.9329-.71027,26.619,26.619,0,0,0-8.11294,2.05957c-3.131,1.45552-5.24521,4.32268-6.68741,7.37115-.52964,1.11952,1.138,2.10271,1.67073.97659Z"/><path d="M137.94986,181.266a38.06681,38.06681,0,0,0-7.443.23808,49.22727,49.22727,0,0,0-7.24781,1.66777.96828.96828,0,0,0,.51437,1.86579,48.52177,48.52177,0,0,1,7.022-1.63642,36.28475,36.28475,0,0,1,7.15444-.20031c1.24387.07315,1.23963-1.862,0-1.93491Z"/><path d="M135.177,157.98986c-3.93562,2.9029-6.55889,7.19806-8.49716,11.61623a64.252,64.252,0,0,0-3.84285,11.95128c-.18427.83384-.36153,1.67186-.49673,2.51535-.19526,1.21816,1.66893,1.74253,1.86579.51438a60.278,60.278,0,0,1,2.52907-9.80345c1.8779-5.51867,4.59236-11.56333,9.41846-15.12305.99141-.73126.0274-2.41127-.97658-1.67074Z"/><path d="M189.89686,157.12238c2.73168,4.01516,4.02439,8.85521,4.86061,13.58524a83.631,83.631,0,0,1,1.16667,14.15744l1.65155-.6841c-5.23743-6.20647-14.0993-6.20668-21.23129-8.711a.97907.97907,0,0,0-1.09256.44461c-2.3035,3.71181-2.96949,8.0746-3.65478,12.31244l1.19009-.67571c-3.1874-1.00164-6.5939.64433-9.30014,2.2215-3.15,1.83576-5.96518,4.15949-9.01646,6.14218-1.04035.676-.07166,2.35189.97659,1.67074,2.76288-1.79529,5.32849-3.87492,8.13291-5.61048,2.43616-1.50765,5.72236-3.49158,8.69272-2.55815a.97223.97223,0,0,0,1.19008-.67571c.65718-4.06393,1.24975-8.28912,3.45973-11.85023l-1.09256.44461c6.77652,2.37948,15.4091,2.32573,20.37748,8.21337a.97683.97683,0,0,0,1.65155-.68409,86.887,86.887,0,0,0-1.23579-14.67182c-.86043-4.88028-2.23807-9.906-5.05567-14.04745-.69641-1.02363-2.3737-.05666-1.67073.97659Z"/><path class="d" d="M95.64816,206.301a25.76308,25.76308,0,0,1,7.64645,19.68272c-.06314,1.09195,1.63553,1.08832,1.69846,0A27.439,27.439,0,0,0,96.84916,205.1a.84972.84972,0,0,0-1.201,1.201Z"/><path d="M202.67324,207.40852q-19.52436.9742-39.07514.80406a.968.968,0,0,0,0,1.93491q19.54814.19259,39.07514-.80406c1.23926-.06183,1.24667-1.99711,0-1.93491Z"/><path d="M162.71954,209.25611c-2.26219,3.73459-2.26633,8.17806-3.5865,12.2384-.38592,1.18695,1.48179,1.69543,1.8658.51438,1.2623-3.88238,1.23283-8.21261,3.39144-11.77619a.96818.96818,0,0,0-1.67074-.97659Z"/><path d="M160.2131,223.72368a248.63029,248.63029,0,0,0,37.051,2.28741.968.968,0,0,0,0-1.93491,245.266,245.266,0,0,1-36.53662-2.21829c-1.21762-.1649-1.74455,1.6992-.51438,1.86579Z"/><path d="M202.02422,208.61889a41.01486,41.01486,0,0,1-1.59073,15.67189.96829.96829,0,0,0,1.86579.51438,42.51287,42.51287,0,0,0,1.65985-16.18627c-.11236-1.22985-2.04835-1.24164-1.93491,0Z"/><path d="M201.51419,223.8164l-3.859.475a1.05909,1.05909,0,0,0-.6841.28336.98316.98316,0,0,0-.28336.6841c.02111.47114.42948,1.03367.96746.96745l3.859-.475a1.05907,1.05907,0,0,0,.68409-.28336.98306.98306,0,0,0,.28336-.6841c-.0211-.47114-.42947-1.03367-.96745-.96745Z"/><path class="d" d="M144.81675,309.41906c-.15735-8.68036,1.52355-17.08327,2.73956-25.63449.80914-5.69007,1.39589-11.41145,1.93481-17.13254,1.31755-13.98688,2.28873-28.00554,3.251-42.02047.444-6.46654.87142-12.93443,1.3513-19.39844.09222-1.24216-1.84312-1.23628-1.93491,0-.93131,12.54464-1.71438,25.09988-2.64413,37.64472-.96538,13.02558-1.89873,26.09538-3.63749,39.04556-1.23206,9.1763-3.16381,18.18784-2.99509,27.49566a.968.968,0,0,0,1.93491,0Z"/><path d="M143.93453,209.36626c.33862,4.99818-1.47259,9.53106-4.22153,13.62091-.69653,1.03629.97892,2.00586,1.67073.97659,2.92128-4.34626,4.84528-9.29006,4.48571-14.5975-.08372-1.23571-2.01926-1.245-1.93491,0Z"/><path d="M143.68241,208.63089a118.62651,118.62651,0,0,0-32.70111.43319c-1.22707.18606-.70574,2.0508.51438,1.8658a116.89746,116.89746,0,0,1,32.18673-.36408c1.23208.15595,1.22072-1.78039,0-1.93491Z"/><path d="M110.8912,209.95805a25.558,25.558,0,0,1-2.3018,10.12416.9961.9961,0,0,0,.34708,1.32367.97529.97529,0,0,0,1.32366-.34708,27.93029,27.93029,0,0,0,2.566-11.10075.968.968,0,0,0-1.93491,0Z"/><path d="M141.19121,222.21733a29.72869,29.72869,0,0,1-4.1386.05572c-2.61263-.02706-5.225-.08516-7.837-.14394-5.80812-.1307-11.616-.30115-17.42525-.37665a34.62209,34.62209,0,0,0-4.90193.04672c-1.21683.16033-1.23278,2.09734,0,1.93491a29.72869,29.72869,0,0,1,4.1386-.05572c2.61263.02706,5.225.08517,7.837.14395,5.80812.1307,11.616.30114,17.42525.37664a34.62209,34.62209,0,0,0,4.90193-.04672c1.21683-.16032,1.23278-2.09733,0-1.93491Z"/><line class="t" x1="138.85229" y1="182.38858" x2="130.73307" y2="183.12494"/><path d="M137.78164,176.39017a14.456,14.456,0,0,0-13.36551,6.128v1.51616l12.79772-2.11689,1.63581.60073Z"/><path d="M190.73222,179.55593c-2.72507-.12274-5.45625-.03615-8.18219.00985-1.34969.02278-2.69972.0421-4.04962.02923-.63009-.006-1.2608-.01651-1.89031-.04568a1.8687,1.8687,0,0,0-.35438-.01962l.12675.30838a1.68,1.68,0,0,1,.11394-.32376c.15382-.39578.34087-.78207.511-1.17105l-1.80282-.48829a2.8688,2.8688,0,0,0,.75652,2.64912,1.9363,1.9363,0,0,0,2.70573-.27234,1.88351,1.88351,0,0,0-.24124-2.55648,1.3654,1.3654,0,0,0-2.2365,1.09646c-.11033,2.21937,2.81853,2.13815,4.27387,1.92966.93876-.13449,1.86431-.34529,2.80088-.49272a4.511,4.511,0,0,1,2.17942.02064c1.02016.36036,1.75565-1.33132.74548-1.76827-2.25609-.97587-4.84153-.591-7.22531-.90028-.52257-.06779-.96251.49328-.96745.96746a.99087.99087,0,0,0,.96745.96745c1.06166.13774,2.13892.13722,3.20673.19434a9.09254,9.09254,0,0,1,3.042.44177l.74549-1.76827a8.19732,8.19732,0,0,0-4.11149.138c-.7002.13-1.40108.2834-2.11.35739a5.69846,5.69846,0,0,1-.94935.03953,1.63581,1.63581,0,0,1-.33423-.04126l-.132-.03579q-.3744-.257-.48533.378l-.74548-.09753c.15014.08531.02921-.26061.04037-.22078a2.7787,2.7787,0,0,1,.00935-1.02612.97412.97412,0,0,0-1.80282-.48829,6.52406,6.52406,0,0,0-.87892,2.52281,1.63311,1.63311,0,0,0,1.48473,1.5365,27.903,27.903,0,0,0,4.72486.101c3.35313-.0327,6.71276-.18712,10.06484-.03614,1.24492.05608,1.24214-1.879,0-1.93491Z"/><polygon class="c" points="82.816 242.376 101.703 228.972 111.874 216.782 115.714 214.038 118.259 209.506 117.8 207.035 117.148 199.752 119.598 199.624 123.273 202.833 124.306 210.112 123.273 216.945 126.886 219.178 137.134 224.594 138.54 226.136 137.943 230.25 135.665 232.214 136.881 234.217 135.659 236.908 134.788 239.892 131.503 242.23 131.298 245.13 127.465 248.767 119.193 247.897 115.403 250.824 111.965 251.02 108.196 249.599 99.871 260.983 93.617 270.376 82.402 270.032 75.842 259.321 76.233 249.492 82.816 242.376"/><path class="d" d="M119.36094,231.65728c1.74343.66755,3.63732.803,5.37446,1.47789.99827.38786,1.89157,1.0699,2.85282,1.5524q1.677.84172,3.40874,1.569a8.61837,8.61837,0,0,0,2.64386.85526c1.146.07712,1.14123-1.70707,0-1.78387-.16659-.01121.18523.04151-.004-.00366-.0813-.01941-.16162-.03993-.24212-.06254-.20822-.05849-.41294-.131-.61622-.20454-.46668-.16878-.92643-.35751-1.382-.55413-1.10279-.476-2.19392-.98521-3.26163-1.5356a26.82374,26.82374,0,0,0-3.03242-1.59153c-1.71533-.62592-3.55824-.78448-5.26729-1.43887-1.073-.41084-1.53727,1.31312-.47422,1.72015Z"/><path class="d" d="M135.90242,230.2039c-2.09616-.79339-4.23107-1.87718-6.29845-2.874-2.5408-1.22506-5.07616-2.47058-7.55781-3.81232-1.01-.546-1.91166.99355-.90036,1.54032,2.53747,1.37192,5.13064,2.64422,7.72946,3.895,2.15372,1.03657,4.31506,2.12409,6.55294,2.97112,1.07479.4068,1.53939-1.317.47422-1.72015Z"/><path class="d" d="M129.67867,240.78091c-.076-.008-.08713-.013-.00506.00027-.08035-.013-.16027-.02805-.24012-.04378-.16892-.03328-.33675-.07217-.504-.11313-.383-.09382-.76275-.20122-1.14045-.31447-.88236-.26455-1.75662-.56139-2.61412-.89812a28.27557,28.27557,0,0,0-2.80756-1.0425,13.90361,13.90361,0,0,1-3.31605-1.16887.8926.8926,0,0,0-.90035,1.54032,14.20692,14.20692,0,0,0,3.45846,1.272,29.00936,29.00936,0,0,1,3.09128,1.11924,19.69084,19.69084,0,0,0,4.97793,1.433.89776.89776,0,0,0,.89194-.89194.9122.9122,0,0,0-.89194-.89193Z"/><path class="d" d="M109.85186,219.95714a9.12361,9.12361,0,0,0-1.3097,4.00723,4.26759,4.26759,0,0,0,.49207,2.02623,16.556,16.556,0,0,0,1.0823,1.58484.914.914,0,0,0,1.22033.32.90033.90033,0,0,0,.32-1.22033c-.60021-.88408-1.34383-1.63622-1.33082-2.71072a7.30712,7.30712,0,0,1,1.06615-3.10688.91188.91188,0,0,0-.32-1.22033.90144.90144,0,0,0-1.22033.32Z"/><path class="d" d="M106.08521,229.67122a16.707,16.707,0,0,0,.76482,7.17128.92148.92148,0,0,0,1.09718.623.89756.89756,0,0,0,.623-1.09719,15.47576,15.47576,0,0,1-.7011-6.697.89194.89194,0,1,0-1.78387,0Z"/><path class="d" d="M107.07944,240.52249l4.32858,3.39519.62516.49036,1.08087-1.40086q-1.1652-.66521-2.3304-1.33043a7.96359,7.96359,0,0,1-1.807-1.25977,3.30292,3.30292,0,0,1-.7057-3.41522.89216.89216,0,1,0-1.72014-.47422,5.12182,5.12182,0,0,0,.93382,4.89536,7.79205,7.79205,0,0,0,2.14019,1.64567c.85952.49884,1.72588.98622,2.58893,1.47893a.89357.89357,0,0,0,1.1506-.22972.88236.88236,0,0,0-.06973-1.17113l-4.32858-3.39519-.62517-.49036a.9208.9208,0,0,0-1.26138,0,.8979.8979,0,0,0,0,1.26139Z"/><path class="d" d="M105.52972,249.53933l-2.203,3.58189a.89208.89208,0,1,0,1.54032.90036l2.203-3.58189a.89208.89208,0,0,0-1.54032-.90036Z"/><path class="d" d="M104.96127,249.862l2.24431.94188a.89179.89179,0,0,0,.68728-.08991.89189.89189,0,0,0,.32-1.22034l-.13947-.18052a.89114.89114,0,0,0-.39358-.22938l-2.2443-.94188a.89182.89182,0,0,0-.68729.08991.89188.89188,0,0,0-.32,1.22034l.13946.18052a.8912.8912,0,0,0,.39358.22938Z"/><path class="d" d="M117.30454,215.5641c.27389.02989.31112.03446.59787.08345q.36661.06262.72934.14571a13.38782,13.38782,0,0,1,1.33486.38021,12.18226,12.18226,0,0,1,2.47172,1.17829.89208.89208,0,0,0,.90036-1.54032,14.49589,14.49589,0,0,0-6.03415-2.03121.89423.89423,0,0,0-.89193.89193.91741.91741,0,0,0,.89193.89194Z"/><path class="k" d="M97.52738,229.81113l-3.2166.99667c-.95955.29464-2.07046-1.97027-2.07046-1.97027L88.432,232.70389,82.728,240.316l-3.56085,2.85166a13.06411,13.06411,0,0,1-2.04151.03943L71.4,246.556l-9.86175,6.96057-3.2133,1.1613-3.4423,5.47029c-2.68676,4.917-1.76719,9.04854-4.45395,13.96549l-.752,2.36569a6.02386,6.02386,0,0,0,.61814,1.65447l3.24777,6.96083c.8232.74607,4.69322,4.02608,4.69322,4.02608l1.30195,2.555,6.13127,2.412,1.77538.2526,23.004-12.40933,3.02769-3.411,2.59077-4.55527,4.8547-8.32476,8.16656-9.12511-1.79271-6.62893-9.26085,13.49327-4.77693-2.55663c-.29993-.52661,2.57723-18.825,2.2807-19.34568-.5576-.97908-.182-8.1384-.182-8.1384l2.78786-2.20929,2.25793-1.80871"/><path class="d" d="M93.43657,208.648a23.90811,23.90811,0,0,1,6.1687,8.74765.92015.92015,0,0,0,1.09719.623.89792.89792,0,0,0,.623-1.09718,25.85558,25.85558,0,0,0-6.62747-9.53481c-.85064-.76707-2.11614.4906-1.26138,1.26138Z"/><path class="d" d="M100.26051,224.20551a30.61952,30.61952,0,0,0-17.57565,2.42983c-1.042.47864-.13664,2.01667.90035,1.54032a28.47333,28.47333,0,0,1,16.20108-2.25c1.12308.17578,1.60687-1.54287.47422-1.72015Z"/><path class="d" d="M97.05617,227.94221a78.44771,78.44771,0,0,0-6.31177,6.72644q-1.36776,1.64581-2.64564,3.364a15.69288,15.69288,0,0,1-2.93658,3.43293,7.48082,7.48082,0,0,1-4.15552,1.08078,18.5679,18.5679,0,0,0-3.824.62358,17.10583,17.10583,0,0,0-6.97014,4.00692c-.83885.78732.42444,2.04693,1.26138,1.26139a15.17682,15.17682,0,0,1,7.555-3.87411c2.64505-.50532,5.30383-.09152,7.51913-1.93294,2.12283-1.76455,3.56677-4.41412,5.31387-6.528a78.5563,78.5563,0,0,1,6.45566-6.89957c.834-.79232-.42886-2.05232-1.26139-1.26139Z"/><path class="d" d="M94.71953,268.95449a28.06817,28.06817,0,0,0-8.088,8.41442.88279.88279,0,0,0,0,.90035,2.62486,2.62486,0,0,0,2.9782,1.00707,4.026,4.026,0,0,0,2.5134-2.44182,26.651,26.651,0,0,1,1.51161-3.35714,11.24163,11.24163,0,0,1,2.43461-2.76805.89848.89848,0,0,0,0-1.26138.91179.91179,0,0,0-1.26138,0,13.00886,13.00886,0,0,0-3.84112,5.48668,5.26668,5.26668,0,0,1-1.30465,2.3739,1.54126,1.54126,0,0,1-.88519.30189.74294.74294,0,0,1-.4228-.07228c.15957.06556-.17472-.12411-.0984-.06561a.33614.33614,0,0,1-.084-.10361v.90035a25.94949,25.94949,0,0,1,7.448-7.77445.914.914,0,0,0,.32-1.22033.90033.90033,0,0,0-1.22033-.32Z"/><path d="M96.24869,231.86587c.3903.13255,7.2768-3.09556,8.18307-6.79161l-2.179-10.46389c-.02038.53346-3.641-.05721-3.86117-.30162.56844,1.1941,2.31212,2.95075,1.63184,6.26176-.91981,4.47644-2.564,2.99709-7.56916,4.2799,2.80071.396,4.56612.66627,5.20563,2.4731.91876,2.5958-7.22468,7.78752-7.083,7.87893C90.68779,235.27408,95.28179,231.5375,96.24869,231.86587Z"/><path class="d" d="M224.30223,225.92566a28.47341,28.47341,0,0,1,16.20108,2.25c1.036.47589,1.94345-1.06116.90036-1.54032a30.61946,30.61946,0,0,0-17.57566-2.42983c-1.13085.177-.65068,1.89621.47422,1.72015Z"/><path class="d" d="M228.46864,270.49481a25.94949,25.94949,0,0,1,7.448,7.77445v-.90035a.37635.37635,0,0,1-.20367.1774.81985.81985,0,0,1-.35232.06366,1.5805,1.5805,0,0,1-.93435-.30145,5.2685,5.2685,0,0,1-1.30465-2.3739,13.00934,13.00934,0,0,0-3.84112-5.48668.9172.9172,0,0,0-1.26139,0,.89892.89892,0,0,0,0,1.26138,11.23734,11.23734,0,0,1,2.3997,2.71128,26.03116,26.03116,0,0,1,1.54652,3.41391,4.04974,4.04974,0,0,0,2.46445,2.42739,2.63047,2.63047,0,0,0,3.02715-.99264.88276.88276,0,0,0,0-.90035,28.068,28.068,0,0,0-8.088-8.41442.89208.89208,0,0,0-.90036,1.54032Z"/><path d="M228.91993,236.78112,227.85218,250.341c-.04524.57452.279,1.09655.06549,1.63183l-.4687,2.02043c.03589,3.36636-2.32815,5.39841-6.88591,1.73129l1.29228,1.80147,4.19859,5.85329,4.77693-2.55663Z"/><path d="M95.16859,236.78112,96.23635,250.341c.04524.57452-.279,1.09655-.0655,1.63183l.4687,2.02043c-.03589,3.36636,2.32816,5.39841,6.88591,1.73129l-1.29227,1.80147-4.1986,5.85329-4.77693-2.55663Z"/><path d="M163.75154,225.71266q.49982,7.26176.91614,14.5293c.08552,1.52109.167,3.04246.23608,4.56439a3.99841,3.99841,0,0,0,1.56757,3.24995c1.232,1.041,3.22832.85469,4.75452,1.072q3.10536.44226,6.22223.76852a92.59481,92.59481,0,0,0,13.34619.63266c1.71978-.072,3.07427-.04676,4.364-1.27522a3.95025,3.95025,0,0,0,1.10585-2.508,162.73442,162.73442,0,0,0,1.53719-16.21374c.24493-3.39688.4823-6.795.79458-10.18656a49.58818,49.58818,0,0,1,.99034-7.28663c.24448-.99449-1.28988-1.41878-1.53466-.42309-1.07476,4.3718-1.18846,9.06644-1.52354,13.5361-.41986,5.60061-.73315,11.21672-1.347,16.80069-.17383,1.58119-.06337,4.25731-1.36465,5.35014a3.31866,3.31866,0,0,1-2.178.57245c-1.07152.06379-2.14519.08863-3.21851.08782-2.14441-.00163-4.28787-.108-6.42595-.26742-4.02271-.29995-8.0093-.81824-12.00531-1.3534a6.328,6.328,0,0,1-2.39189-.43174,2.41791,2.41791,0,0,1-1.07764-1.58873c-.20347-1.39333-.13746-2.88254-.21478-4.28985q-.42155-7.67315-.96121-15.33969c-.07-1.01621-1.662-1.024-1.59152,0Z"/><polygon class="c" points="241.312 242.036 222.409 228.62 212.23 216.421 208.387 213.674 205.839 209.138 206.299 206.665 206.951 199.376 204.499 199.248 200.821 202.46 199.787 209.744 200.821 216.583 197.205 218.819 186.948 224.239 185.541 225.782 186.139 229.9 188.418 231.866 187.201 233.87 188.424 236.563 189.296 239.55 192.584 241.89 192.789 244.793 196.625 248.433 204.904 247.561 208.697 250.491 212.138 250.687 215.91 249.265 224.242 260.659 230.502 270.059 241.726 269.716 248.292 258.995 247.901 249.158 241.312 242.036"/><path class="d" d="M204.26174,229.58742c-1.67537.6415-3.47712.80652-5.1645,1.401a25.44743,25.44743,0,0,0-3.14207,1.63186c-1.04523.5388-2.1131,1.03659-3.19147,1.50523-.47981.20852-.96419.40843-1.45627.58635-.20347.07357-.4083.14631-.61675.20472-.068.019-.13619.03662-.20467.05377-.23659.05927.0934.0034-.04186.01251-1.13935.07667-1.14788,1.86112,0,1.78387a8.62506,8.62506,0,0,0,2.64591-.856q1.73037-.72912,3.41145-1.5703c.96153-.48281,1.85591-1.16841,2.85543-1.55379,1.74063-.67112,3.63387-.81093,5.379-1.47915,1.06132-.40637.60062-2.1317-.47423-1.72015Z"/><path class="d" d="M188.65506,231.57456c2.23969-.84771,4.40292-1.936,6.55833-2.97356,2.60094-1.252,5.19638-2.52523,7.736-3.89832,1.0102-.54618.11059-2.0869-.90036-1.54032-2.48377,1.34289-5.02133,2.58931-7.56423,3.81556-2.06877.99761-4.20592,2.08239-6.304,2.87649-1.06343.40251-.60241,2.12766.47423,1.72015Z"/><path class="d" d="M194.40967,242.22431a19.7086,19.7086,0,0,0,4.982-1.43414,28.69894,28.69894,0,0,1,2.99935-1.09489,14.69021,14.69021,0,0,0,3.55577-1.29826.8926.8926,0,0,0-.90035-1.54032,13.37017,13.37017,0,0,1-3.22435,1.14418,28.39465,28.39465,0,0,0-2.90464,1.06914c-.8349.32785-1.68574.61785-2.54428.87728-.38153.11528-.76506.22464-1.15186.321-.17087.04254-.34234.08333-.51492.11843-.0816.01659-.16341.03173-.2454.04619-.16286.02871.1893-.01785-.05128.00756a.91781.91781,0,0,0-.89193.89193.8979.8979,0,0,0,.89193.89194Z"/><path class="d" d="M212.71235,220.499a7.3094,7.3094,0,0,1,1.06716,3.10989c.013,1.0754-.73158,1.82894-1.332,2.71341a.89208.89208,0,0,0,1.54032.90035,18.22716,18.22716,0,0,0,1.058-1.53788,4.26927,4.26927,0,0,0,.51761-2.07588,9.13085,9.13085,0,0,0-1.31071-4.01025.89208.89208,0,0,0-1.54032.90036Z"/><path class="d" d="M216.23854,229.32055a15.48916,15.48916,0,0,1-.70171,6.703.89728.89728,0,0,0,.623,1.09718.91475.91475,0,0,0,1.09718-.623,16.72083,16.72083,0,0,0,.76544-7.17717.91018.91018,0,0,0-.89193-.89193.90092.90092,0,0,0-.89194.89193Z"/><path class="d" d="M216.55367,231.62875c-.08083.19682.08359-.1823-.00547.01088-.02548.05528-.05033.11075-.07655.16569q-.072.151-.15126.29836-.1653.30822-.35963.59962-.10123.15184-.20988.29859c-.01783.02408-.13162.15848-.04085.05495.09315-.10622-.04567.05458-.06335.076q-.22279.26986-.47.51823-.23606.23726-.49277.45277c-.0466.03914-.09416.07707-.1412.11568-.16345.13419.15853-.11564-.01205.00933-.09819.07194-.19666.14319-.29768.21115a7.35621,7.35621,0,0,1-1.22867.66468.89031.89031,0,0,0-.40989.53305.89215.89215,0,0,0,1.31025,1.00727,8.3333,8.3333,0,0,0,4.36914-4.542.89317.89317,0,0,0-.08991-.68728.909.909,0,0,0-.53305-.4099.9195.9195,0,0,0-1.09719.623Z"/><path class="d" d="M215.76618,238.91911l-4.33226,3.39808-.62569.49078a.88308.88308,0,0,0-.06974,1.17112.89544.89544,0,0,0,1.15061.22973c.86378-.49313,1.73077-.98109,2.59113-1.48019a7.85527,7.85527,0,0,0,2.14185-1.647,5.12,5.12,0,0,0,.93442-4.89878.91365.91365,0,0,0-1.09718-.623.90029.90029,0,0,0-.623,1.09719,3.307,3.307,0,0,1-.70649,3.41886,7.77435,7.77435,0,0,1-1.757,1.2314q-1.191.68235-2.38412,1.36112l1.08087,1.40085,4.33226-3.39807.6257-.49078a.89691.89691,0,0,0,0-1.26139.91437.91437,0,0,0-1.26139,0Z"/><path class="d" d="M217.03816,250.10628l2.20486,3.58493a.89208.89208,0,1,0,1.54032-.90035l-2.20486-3.58493a.89208.89208,0,1,0-1.54032.90035Z"/><path class="d" d="M218.67364,247.80763l-2.24621.94269a.98508.98508,0,0,0-.533.40989.89189.89189,0,0,0,.32,1.22034.85814.85814,0,0,0,.68728.08991l2.24621-.94268a.98505.98505,0,0,0,.53305-.4099.89187.89187,0,0,0-.32-1.22033.85817.85817,0,0,0-.68729-.08992Z"/><path class="d" d="M206.79431,213.41682a14.50728,14.50728,0,0,0-6.03889,2.03283.89208.89208,0,0,0,.90036,1.54032,12.17485,12.17485,0,0,1,2.474-1.17937,13.35259,13.35259,0,0,1,1.336-.38052,11.8231,11.8231,0,0,1,1.32853-.22939.91342.91342,0,0,0,.89193-.89194.90109.90109,0,0,0-.89193-.89193Z"/><path class="k" d="M226.56114,229.81113l3.21661.99667c.95955.29464,2.07046-1.97027,2.07046-1.97027l3.80832,3.86636,5.704,7.61209,3.56084,2.85166a13.06411,13.06411,0,0,0,2.04151.03943l5.72557,3.34888,9.86176,6.96057,3.2133,1.1613,3.44229,5.47029c2.68677,4.917,1.76719,9.04854,4.454,13.96549l.752,2.36569a6.02386,6.02386,0,0,1-.61814,1.65447l-3.24777,6.96083c-.82319.74607-4.69322,4.02608-4.69322,4.02608l-1.30194,2.555-6.13127,2.412-1.77539.2526-23.004-12.40933-3.02768-3.411-2.59078-4.55527L223.16694,265.64l-8.16657-9.12511,1.93133-5.853,9.12223,12.71737,4.77693-2.55663c.29993-.52661-2.57722-18.825-2.2807-19.34568.55761-.97908.182-8.1384.182-8.1384l-2.78785-2.20929-2.25793-1.80871"/><path class="d" d="M225.798,228.852a78.51532,78.51532,0,0,1,6.31714,6.73216c1.8005,2.16653,3.28407,4.89379,5.46238,6.70681,2.16452,1.80153,4.73344,1.43952,7.32708,1.89653a15.18218,15.18218,0,0,1,7.75982,3.91545c.83658.7852,2.10059-.47373,1.26138-1.26139a17.11383,17.11383,0,0,0-6.78255-3.952,17.69451,17.69451,0,0,0-3.81472-.66779c-1.53375-.11236-3.07589-.14511-4.36489-1.09617a14.64986,14.64986,0,0,1-2.80473-3.25546q-1.27536-1.7203-2.63838-3.374a78.62389,78.62389,0,0,0-6.46114-6.90544c-.83217-.79059-2.09573.46873-1.26139,1.26139Z"/><path d="M228.55929,242.24954l1.47916,11.25225c-.04524.57452.279,1.09655.06549,1.63184l-.4687,2.02043c.03589,3.36636-2.32815,5.39841-6.88591,1.73128l1.29228,1.80147,4.19859,5.8533,4.77693-2.55663Z"/><path class="d" d="M227.6106,271.52292a25.94926,25.94926,0,0,1,7.448,7.77445V278.397a.37637.37637,0,0,1-.20367.17741.82015.82015,0,0,1-.35232.06366,1.58064,1.58064,0,0,1-.93435-.30145,5.26854,5.26854,0,0,1-1.30465-2.37391,13.00934,13.00934,0,0,0-3.84112-5.48668.91721.91721,0,0,0-1.26139,0,.89893.89893,0,0,0,0,1.26139,11.2373,11.2373,0,0,1,2.3997,2.71127,26.03116,26.03116,0,0,1,1.54652,3.41391,4.04968,4.04968,0,0,0,2.46445,2.42739,2.63046,2.63046,0,0,0,3.02715-.99263.88278.88278,0,0,0,0-.90036,28.06787,28.06787,0,0,0-8.08795-8.41441.89208.89208,0,0,0-.90036,1.54032Z"/><path class="h" d="M219.65677,225.07426s6.50175-15.31939,9.6622-17.78074-6.56964-11.78626-6.56964-11.78626a9.45481,9.45481,0,0,0-4.941,8.21637c-.15915,5.96876-1.14377,18.02807-1.14377,18.02807"/><path class="d" d="M229.39057,207.43174a25.85579,25.85579,0,0,0-6.62746,9.53482.89783.89783,0,0,0,.623,1.09718.91382.91382,0,0,0,1.09719-.623,23.90811,23.90811,0,0,1,6.1687-8.74765c.85439-.77045-.41038-2.02878-1.26139-1.26139Z"/><path d="M227.83984,231.86587c-.3903.13255-7.2768-3.09556-8.18307-6.79161,0,0,3.33594-9.65,4.40835-9.32621,0,0,4.15176-6.36517,4.372-6.60959-.56844,1.1941-5.49417,10.80157-4.8139,14.11258.91981,4.47644,8.54417,1.266,13.54929,2.5488,0,0-8.75785-2.75418-9.72639.97259-.69261,2.66507,6.20725,8.3386,6.06562,8.43C233.40073,235.27408,228.80673,231.5375,227.83984,231.86587Z"/><path d="M188.51472,301.42556c-2.9299,2.47149-5.39855,5.42878-8.32845,7.90027a.97529.97529,0,0,0,0,1.36819.988.988,0,0,0,1.36819,0c2.9299-2.4715,5.39855-5.42878,8.32845-7.90027a.97529.97529,0,0,0,0-1.36819.988.988,0,0,0-1.36819,0Z"/><path class="h" d="M107.96743,253.241c.48719,3.66489,1.86344,32.15426,4.35024,47.27829a21.63979,21.63979,0,0,0,3.11743,8.02971h0l2.10174,1.08069,7.29625.35443-5.192-62.5119a48.01407,48.01407,0,0,0-4.24965,3.01862l-3.44124.19624-3.69539-1.29534a.82509.82509,0,0,1-.13262.86207c-.35367.33156-.61764.40531-.6333.34741s.47856,2.54826.47856,2.54826"/><polygon class="h" points="108.154 257.905 103.547 263.053 100.946 265.96 100.49 265.009 107.314 250.219 109.105 251.78 109.105 257.653 108.154 257.905"/><path class="u" d="M172.447,206.30766h-.88184l.38672-1.19336h.33105a1.84318,1.84318,0,0,0,.76758-.13281,1.036,1.036,0,0,0,.44532-.39649,1.6664,1.6664,0,0,0,.21386-.67187q.05127-.40723.126-1.25195v-.09278a.98516.98516,0,0,0-.08594-.44531.60926.60926,0,0,0-.25195-.26172,1.23654,1.23654,0,0,0-.55664-.09082h-2.35938v-3.37109h1.50586v2.17773h1.0625a2.44309,2.44309,0,0,1,1.62989.46192,1.765,1.765,0,0,1,.53417,1.4121l-.00976.26661-.11133,1.26757a2.52328,2.52328,0,0,1-.7832,1.75586A2.96194,2.96194,0,0,1,172.447,206.30766Z"/><path class="u" d="M178.14036,199.46293l-.51368,2.07032h-1.28222l.88183-2.07032Zm1.93945,0-.52734,2.07032h-1.26758l.88574-2.07032Z"/><path class="u" d="M186.52805,206.30766h-1.50683v-3.1748a1.53334,1.53334,0,0,0-.32618-1.02833,1.32741,1.32741,0,0,0-1.06738-.38476,7.331,7.331,0,0,0-.8623.05371q-.457.05274-1.51563.25391l.1211-1.22168a11.35372,11.35372,0,0,1,2.583-.30762,2.3247,2.3247,0,0,1,2.57422,2.57812Zm-3.67871,0H181.3386v-3.28223l1.51074-.73242Z"/><path class="u" d="M187.69309,205.086h2.85352l-2.90918-3.96289,1.375-.68066,1.86035,2.541a1.82771,1.82771,0,0,0,.24707-.53418,3.06778,3.06778,0,0,0,.07519-.77148v-1.10059h1.48243v1.21192a2.48858,2.48858,0,0,1-.249,1.13085,3.55221,3.55221,0,0,1-.89746,1.04688l.91309,1.292-.24219,1.04883h-4.78809Z"/></svg>