<svg xmlns="http://www.w3.org/2000/svg" xmlns:xlink="http://www.w3.org/1999/xlink" viewBox="0 0 231.10472 445.45183"><defs><style>.a,.v{fill:#cab192;}.b{fill:#747c58;}.c{fill:#27421d;}.d{clip-path:url(#a);}.e{fill:#271d1d;}.f{clip-path:url(#b);}.g{fill:#54593e;}.h{fill:#080808;}.i{fill:#707171;}.j{clip-path:url(#c);}.k{fill:#525222;}.l,.m,.n,.p,.r,.t,.u{fill:none;}.l,.m,.t,.u{stroke:#000;}.l,.m,.n,.o,.p,.s,.t,.u{stroke-linecap:round;}.l,.m,.n,.r,.s,.t,.u,.v{stroke-miterlimit:10;}.l{stroke-width:1.79638px;}.m{stroke-width:1.43612px;}.n,.o,.p{stroke:#27421d;stroke-width:2.39518px;}.o{fill:#284220;}.o,.p{stroke-linejoin:round;}.q,.s{fill:#231f20;}.r{stroke:#080808;}.r,.s{stroke-width:1.19759px;}.s,.v{stroke:#231f20;}.t{stroke-width:0.95807px;}.u{stroke-width:0.87301px;}.v{stroke-width:0.23952px;}</style><clipPath id="a"><polygon class="a" points="144.592 177.668 143.954 155.163 147.213 150.188 155.795 144.593 161.812 129.121 154.076 123.104 150.271 90.441 121.877 80.986 93.906 89.582 88.824 123.096 84.456 127.328 87.806 143.626 91.228 145.799 91.342 154.908 98.218 163.504 97.777 182.596 87.889 195.373 98.204 230.55 119.693 240.005 148.059 209.061 161.812 188.431 144.592 177.668"/></clipPath><clipPath id="b"><polygon class="b" points="186.939 265.81 185.873 344.454 170.996 350.418 132.843 347.534 85.932 343.887 83.645 340.341 85.933 332.559 63.217 252.86 46.814 226.647 54.172 201.855 88.028 185.398 98.299 174.306 98.962 180.904 98.231 192.371 116.395 223.244 144.998 184.344 145.401 175.813 145.241 172.756 144.046 163.976 154.704 174.428 202.878 192.899 207.17 241.595 186.939 265.81"/></clipPath><clipPath id="c"><path class="b" d="M187.85252,366.75506c-.04991-.15361-.21152-9.29575-.36745-9.25357l-4.72314,2.13984c-.0365.00991-2.77243-.12029-2.81-.1244L81.64786,348.77642c-.13031-.01424-.255,9.11153-.30909,9.231l-2.88411,6.37451a.29855.29855,0,0,0-.01327.03487l-3.44794,11.081H190.69178Z"/></clipPath></defs><polyline class="b" points="53.679 204.957 36.988 230.09 36.926 280.056 49.057 273.925 65.039 264.085"/><path class="c" d="M198.02249,290.9734a78.92873,78.92873,0,0,0-2.54815-41.398,81.10289,81.10289,0,0,0-3.44752-8.45054c-.49475-1.04409-2.044-.13348-1.55112.90667a77.1966,77.1966,0,0,1,5.81457,48.46427c-.23275,1.1283,1.49844,1.61081,1.73222.47755Z"/><polygon class="b" points="190.325 351.884 224.747 320.922 231.105 311.648 210.596 303.607 189.905 310.559 151.554 348.984 150.908 354.254 176.244 357.58 177.699 356.374 190.325 351.884"/><polygon class="a" points="144.592 177.668 143.954 155.163 147.213 150.188 155.795 144.593 161.812 129.121 154.076 123.104 150.271 90.441 121.877 80.986 93.906 89.582 88.824 123.096 84.456 127.328 87.806 143.626 91.228 145.799 91.342 154.908 98.218 163.504 97.777 182.596 87.889 195.373 98.204 230.55 119.693 240.005 148.059 209.061 161.812 188.431 144.592 177.668"/><g class="d"><polygon class="e" points="148.079 137.694 161.854 101.525 68.478 0 90.946 135.409 94.213 110.987 96.819 104.716 99.576 93.617 118.748 97.445 140.557 94.421 143.147 104.667 147.926 111.917 147.234 132.1 148.079 137.694"/></g><polygon points="138.317 115.698 138.535 111.308 127.049 108.958 124.501 111.922 138.317 115.698"/><polygon points="111.699 112.948 111.244 108.465 101.051 110.927 99.375 114.199 111.699 112.948"/><path d="M127.0765,141.4012a26.33929,26.33929,0,0,1-15.94846,2.59555c-1.30436-.20208-1.86643,1.794-.55077,1.99783a28.72718,28.72718,0,0,0,17.54493-2.80442c1.187-.60807.14-2.39633-1.0457-1.789Z"/><path d="M138.92608,160.49536,122.864,170.58087l-13.0738.02995-9.38789-5.79652,7.4321,15.8186a8.96672,8.96672,0,0,0,4.07425,4.56476h0a8.96664,8.96664,0,0,0,4.25109,1.07178h.4434a8.96663,8.96663,0,0,0,5.77575-2.108l3.31735-2.79355a8.96684,8.96684,0,0,0,2.081-2.5375l7.41349-13.47907Z"/><path d="M142.00726,156.23c-4.38141,3.63354-8.71915,7.32015-13.07983,10.97851q-1.33237,1.11779-2.66842,2.23125c-1.02817.85267.44585,2.31261,1.46632,1.46632,4.38142-3.63355,8.71915-7.32016,13.07983-10.97851q1.33238-1.11778,2.66842-2.23125c1.02817-.85267-.44585-2.31261-1.46632-1.46632Z"/><path d="M105.25543,113.97642a9.06763,9.06763,0,0,1-.00058,6.49038l1.733-.45752a3.91172,3.91172,0,0,1-.73012-1.28383,6.46976,6.46976,0,0,1-.22193-.90959,6.07014,6.07014,0,0,1-.076-.79139,15.13167,15.13167,0,0,1,.04246-1.90467c.02357-.30492.05319-.60934.08557-.91344.00325-.03044.052-.32316.0194-.17655-.02858.12848.03042-.06766.0283-.08607q.02743-.08777-.00265-.00017-.10293.35279-.66794.00229-.55924.25548-.68277-.11125a.74318.74318,0,0,1,.18308-.85884l.45753-.26665.17825-.03046a1.04406,1.04406,0,0,0-1.03685,1.03685,1.0597,1.0597,0,0,0,1.03685,1.03684,1.18746,1.18746,0,0,0,1.15022-1.5388,1.29261,1.29261,0,0,0-1.55074-.94936c-1.28682.327-1.21894,2.04335-1.28864,3.08646-.14521,2.17294.09784,4.44131,1.60964,6.12495a1.04872,1.04872,0,0,0,1.733-.45753,10.91932,10.91932,0,0,0,.00058-7.59292,1.06586,1.06586,0,0,0-1.27544-.72418,1.045,1.045,0,0,0-.72418,1.27545Z"/><path d="M130.83637,113.25872a9.06766,9.06766,0,0,1-.00058,6.49039l1.733-.45753a3.91178,3.91178,0,0,1-.73012-1.28382,6.46817,6.46817,0,0,1-.22193-.9096,6.07,6.07,0,0,1-.076-.79139,15.13155,15.13155,0,0,1,.04246-1.90466c.02356-.30492.05318-.60935.08557-.91345.00324-.03043.052-.32315.0194-.17654-.02858.12847.03042-.06767.0283-.08607q.02742-.08778-.00265-.00018-.10293.35278-.66794.00229-.55925.25549-.68278-.11125a.74316.74316,0,0,1,.18309-.85883l.45753-.26665.17825-.03046a1.04406,1.04406,0,0,0-1.03685,1.03684,1.05971,1.05971,0,0,0,1.03685,1.03685,1.18746,1.18746,0,0,0,1.15021-1.53881,1.29259,1.29259,0,0,0-1.55074-.94935c-1.28681.327-1.21893,2.04334-1.28863,3.08646-.14521,2.17294.09783,4.44131,1.60964,6.12495a1.04873,1.04873,0,0,0,1.733-.45753,10.91934,10.91934,0,0,0,.00058-7.59293,1.06586,1.06586,0,0,0-1.27544-.72417,1.045,1.045,0,0,0-.72418,1.27544Z"/><path d="M154.41854,134.07661l-4.49969,2.28556a1.044,1.044,0,0,0-.372,1.4186,1.06167,1.06167,0,0,0,1.4186.372l4.4997-2.28555a1.044,1.044,0,0,0,.372-1.41861,1.0617,1.0617,0,0,0-1.41861-.372Z"/><path d="M152.13875,131.984l-2.77957,5.1012a1.037,1.037,0,0,0,1.79057,1.04663l2.77957-5.1012a1.037,1.037,0,0,0-1.79057-1.04663Z"/><path d="M159.50118,129.46284a12.62312,12.62312,0,0,0-7.27684,2.46947,1.06956,1.06956,0,0,0-.372,1.41861,1.04414,1.04414,0,0,0,1.41861.372,10.66016,10.66016,0,0,1,6.2302-2.18636,1.03685,1.03685,0,0,0,0-2.07369Z"/><polygon class="b" points="212.54 199.068 231.105 311.648 218.088 323.253 204.634 319.216 171.435 253.271 179.58 215.93 188.936 199.894 203.399 193.45 212.54 199.068"/><polygon points="84.246 373.645 187.359 361.564 187.822 337.163 85.738 337.075 84.246 373.645"/><polygon class="b" points="186.939 265.81 185.873 344.454 170.996 350.418 132.843 347.534 85.932 343.887 83.645 340.341 85.933 332.559 63.217 252.86 46.814 226.647 54.172 201.855 88.028 185.398 98.299 174.306 98.962 180.904 98.231 192.371 116.395 223.244 144.998 184.344 145.401 175.813 145.241 172.756 144.046 163.976 154.704 174.428 202.878 192.899 207.17 241.595 186.939 265.81"/><g class="f"><polyline class="g" points="84.456 348.776 92.844 333.655 65.87 258.124"/></g><polygon class="g" points="185.023 344.795 183.998 301.073 184.01 270.714 185.963 271.29 186.48 344.35 185.023 344.795"/><path d="M70.99243,254.50835a67.6393,67.6393,0,0,1,1.568,11.59935c.09356,1.66715.15144,3.33606.20514,5.00489.03018.938.0582,1.87606.08962,2.814a8.73934,8.73934,0,0,0,.19964,2.52324,5.37367,5.37367,0,0,0,1.76913,2.22694c1.10972.84878,2.83711.70728,4.171.90323,3.41579.50178,6.83344.9427,10.27012,1.28082a68.9353,68.9353,0,0,0,11.6282.34081,4.58682,4.58682,0,0,0,3.26212-1.15092,3.81064,3.81064,0,0,0,1.3074-2.30941,123.64908,123.64908,0,0,0,1.65149-14.2033c.46707-5.38756.67088-10.96356,1.91341-16.24482.26453-1.12435-1.46714-1.60421-1.73221-.47755a90.10078,90.10078,0,0,0-1.61971,12.61788c-.42693,4.78657-.76011,9.58966-1.38374,14.3561-.20432,1.56162-.1648,3.89512-1.40688,4.99087-1.07166.94541-3.05035.70548-4.41151.73332-1.85905.038-3.71894-.025-5.574-.14618-3.60821-.23574-7.22608-.62667-10.80635-1.13237-1.26077-.17808-2.51824-.3787-3.77949-.55352-1.42594-.19764-2.58849-.112-3.37756-1.49653a4.81556,4.81556,0,0,1-.2847-2.25861c-.03141-.938-.0595-1.876-.08962-2.814-.06322-1.96854-.13268-3.93733-.25893-5.903a68.50872,68.50872,0,0,0-1.57838-11.17878c-.26226-1.12544-1.99474-.649-1.73221.47755Z"/><path d="M135.42841,252.17271q.736,5.77044,1.41483,11.54814c.34354,2.91564.67857,5.83257.97734,8.75319a5.16951,5.16951,0,0,0,.91287,3.17221,4.08464,4.08464,0,0,0,2.921,1.715c7.65962.52944,15.30565,1.26881,22.99447.86581,2.83856-.14878,6.31966.13252,8.10441-2.49985a7.30146,7.30146,0,0,0,.72789-3.204c.169-1.42289.27171-2.8534.35214-4.28373.38517-6.85032-.07611-13.93956,1.20738-20.70586.2143-1.12978-1.51668-1.61384-1.73222-.47755-1.02906,5.425-.90138,11.06915-1.07857,16.56664-.091,2.82224-.189,5.65264-.49506,8.46132-.10388.95327-.06378,2.19962-.72128,2.94374-1.09168,1.23553-2.642,1.1211-4.191,1.25423a122.59643,122.59643,0,0,1-21.14269-.40438c-.76544-.06744-1.53086-.13524-2.297-.194a7.108,7.108,0,0,1-2.21588-.2282c-1.28818-.5907-1.42578-1.76583-1.55012-2.98135-.27588-2.6969-.58322-5.39059-.89862-8.08311q-.716-6.11271-1.49355-12.21822c-.14427-1.13114-1.94249-1.14555-1.79639,0Z"/><polygon class="b" points="117.725 346.313 117.725 373.019 111.388 373.019 111.388 342.239 117.725 342.239 117.725 346.313"/><polygon class="b" points="98.327 346.313 98.327 373.019 91.99 373.019 91.99 342.239 98.327 342.239 98.327 346.313"/><polygon class="b" points="146.241 342.55 146.241 372.877 153.217 372.877 153.217 338.477 146.241 338.477 146.241 342.55"/><rect class="b" x="176.42497" y="337.07537" width="6.33696" height="30.32686"/><path d="M82.43375,213.3533c1.19931-3.25783,3.07374-6.31108,6.18786-8.017a28.43042,28.43042,0,0,1,7.86418-2.669l-1.2332-.50183a36.79493,36.79493,0,0,1,2.41285,6.3682,12.08965,12.08965,0,0,0,.53178,2.71794,5.43273,5.43273,0,0,0,1.11433,1.1741c3.32356,3.04381,6.90435,5.80034,10.26031,8.80934.78668.70535,1.57089,1.41841,2.3056,2.1784.26319.27224.50529.55855.755.84234-.13773-.15651.074.148.09619.15813.21442.09778-.13163-.04815-.02046-.08-.2031.05813.7608-1.15994.41792-.92473-1.15187.79016-.06078,2.68366,1.1023,1.88581,1.59149-1.09174-.15315-2.77156-1.03288-3.65577-1.68576-1.69434-3.52772-3.2394-5.346-4.78772-1.89083-1.6101-3.80493-3.19313-5.68493-4.81593-.61041-.5269-1.23167-1.05-1.80388-1.619a2.08373,2.08373,0,0,0-.26237-.267c-.21373-.14055-.01251-.21027-.02937-.02011-.02337.26349.1098.64866.09676.05134a7.35489,7.35489,0,0,0-.13528-1.0743,31.88947,31.88947,0,0,0-2.89209-8.0434,1.1096,1.1096,0,0,0-1.2332-.50184,28.12445,28.12445,0,0,0-8.965,3.2241c-3.30478,2.032-5.30192,5.42736-6.61245,8.98733-.48626,1.3209,1.62369,1.89067,2.106.58059Z"/><path d="M97.89441,207.34954a43.56727,43.56727,0,0,0-8.35562.98106,54.79327,54.79327,0,0,0-7.97791,2.59229c-1.29246.50974-.72947,2.62266.58059,2.106a55.62749,55.62749,0,0,1,7.739-2.53741,40.303,40.303,0,0,1,8.0139-.95792c1.40235-.04074,1.40819-2.2249,0-2.184Z"/><path d="M92.19908,181.11383c-4.15839,3.66493-6.64015,8.91548-8.37281,14.08583a72.62965,72.62965,0,0,0-3.05583,13.75707c-.123.94992-.23891,1.90358-.30679,2.85936-.0996,1.40252,2.08484,1.39626,2.184,0a58.14126,58.14126,0,0,1,5.76293-22.01347,23.92108,23.92108,0,0,1,5.33282-7.14448c1.05652-.93114-.493-2.47086-1.54431-1.54431Z"/><path d="M189.99105,272.8186a30.08893,30.08893,0,0,0-6.00758-9.57976,15.17616,15.17616,0,0,0-8.72338-4.39017.99834.99834,0,0,0-1.18464.67261.96881.96881,0,0,0,.67262,1.18464,13.55065,13.55065,0,0,1,7.99959,4.02223,29.10945,29.10945,0,0,1,5.5803,9.06257.97013.97013,0,0,0,1.3176.34548.987.987,0,0,0,.34549-1.3176Z"/><path class="h" d="M53.85217,239.63745a29.08057,29.08057,0,0,1,10.60636,21.34564c.03643,1.23091,1.95368,1.2361,1.9171,0a30.94919,30.94919,0,0,0-11.16786-22.70124c-.93835-.78942-2.30126.56-1.3556,1.3556Z"/><path class="h" d="M183.16657,264.17332c-2.00191,3.36994-3.136,7.1752-5.13794,10.54513a.96374.96374,0,0,0,1.66309.97212c2.00191-3.36994,3.136-7.1752,5.13795-10.54513a.96375.96375,0,0,0-1.6631-.97212Z"/><path class="h" d="M189.99105,272.8186a9.50729,9.50729,0,0,0-5.95969-4.03584,2.64469,2.64469,0,0,0-2.45871.81334,13.45731,13.45731,0,0,0-1.96031,2.45225,27.32666,27.32666,0,0,0-1.58371,2.6701c-.56632,1.10029,1.09505,2.07576,1.66309.97212a27.36771,27.36771,0,0,1,1.5485-2.6174,15.45562,15.45562,0,0,1,1.027-1.40335c.166-.19731.338-.39005.52128-.5715.07121-.07051.14508-.13777.21837-.206q.07013-.06259.143-.122-.11613.08755.01463-.00722c.077-.05088.156-.0951.2354-.14152q.09887-.049-.06867.02547a1.05648,1.05648,0,0,1,.12426-.03727q-.23379.02148-.07843.01336.11744.00913-.00815-.00839c.09724.0266.20677.03484.30565.05626a6.905,6.905,0,0,1,1.6507.601,7.464,7.464,0,0,1,3.00273,2.51882c.6619,1.044,2.32938.07886,1.66309-.97212Z"/><path class="h" d="M186.9291,268.5473a3.32244,3.32244,0,0,0-2.32244-.64694c-.3325-.00162-.66661.00467-.99785-.02953-.0851-.00878-.21782-.05438.0883.013-.03984-.00876-.081-.01346-.121-.02171a1.93953,1.93953,0,0,1-.19078-.04886c-.03615-.01139-.07106-.02651-.10709-.038.275.08743.17639.07825.097.03506-.03157-.01718-.06124-.037-.09176-.05591-.12335-.07637.19818.16441.08431.06229l-1.36193,1.36193c.5916.48069,1.3319,1.14149,2.164.81315a1.02539,1.02539,0,0,0,.57553-.44256.956.956,0,0,0,.09708-.74207l-.85359-2.416-1.60959.937,1.97939,2.37717a.96672.96672,0,0,0,1.36193,0,.98915.98915,0,0,0,0-1.36193l-1.97939-2.37716a.9663.9663,0,0,0-1.167-.15059.97705.97705,0,0,0-.44257,1.08756l.85359,2.416.67262-1.18464a.46388.46388,0,0,1-.087.02947l.1675-.02272c-.16032.01324.23569.05759.07573.01144-.16843-.0486.20822.11472.04789.02409-.046-.026-.09155-.05059-.13611-.0791a.78843.78843,0,0,0-.13429-.09339l.107.08332q-.04341-.0342-.08619-.06921c-.082-.06672-.16257-.13508-.24459-.20173a1.03992,1.03992,0,0,0-.681-.28206.963.963,0,0,0-.681,1.644,3.32244,3.32244,0,0,0,2.32244.64694c.3325.00162.66661-.00467.99785.02953.0851.00878.21782.05439-.0883-.013.03984.00876.081.01346.121.02171a1.939,1.939,0,0,1,.19079.04886c.03615.01139.07106.02651.10708.038-.275-.08743-.17639-.07825-.097-.03506.03157.01718.06124.037.09176.05591.12335.07637-.19818-.16441-.0843-.06229a.963.963,0,0,0,1.36192-1.36193Z"/><path class="h" d="M175.50548,336.35085c-2.46749,1.35411-4.78106,2.965-7.25005,4.31481a85.35162,85.35162,0,0,1-13.29509,5.46645c-1.32125.45449-.75357,2.5649.58059,2.106a89.82329,89.82329,0,0,0,13.67217-5.6079c2.52251-1.36667,4.87919-3.01307,7.39468-4.39352,1.23249-.67637.13175-2.563-1.1023-1.88581Z"/><path d="M172.96774,230.36851q-21.71034,3.01082-43.56492,4.73728c-1.392.10883-1.40379,2.29373,0,2.184q22.14489-1.73112,44.14551-4.8153c1.38613-.19223.79617-2.2969-.58059-2.106Z"/><path d="M128.46729,236.28547c-2.17835,4.43837-1.75922,9.39688-2.84309,14.10724-.31477,1.368,1.79042,1.95192,2.106.58059,1.02989-4.47574.55875-9.37978,2.62293-13.58553.617-1.25712-1.26593-2.36529-1.88581-1.1023Z"/><path d="M172.58716,231.95336a45.72194,45.72194,0,0,1-.24891,17.49063c-.28727,1.37133,1.81752,1.95759,2.106.58059a48.58605,48.58605,0,0,0,.24891-18.65181c-.24979-1.38092-2.355-.79586-2.106.58059Z"/><path d="M173.2905,248.93188l-4.29186.91646a1.09981,1.09981,0,0,0-.76269,1.34328,1.11777,1.11777,0,0,0,1.34328.76269l4.29186-.91646a1.0998,1.0998,0,0,0,.7627-1.34328,1.11778,1.11778,0,0,0-1.34329-.76269Z"/><path class="h" d="M114.18184,344.40857c-.05381-3.265.95594-6.31474,1.94526-9.386a52.13652,52.13652,0,0,0,2.55142-11.96619c.51411-6.59624.50957-13.25931.55665-19.87129.11454-16.08526-.18844-32.17258-.49937-48.25415-.14265-7.37753-.30486-14.75492-.4066-22.13317a1.09265,1.09265,0,0,0-2.184,0c.19926,14.44967.57129,28.89645.76793,43.34626.20188,14.83485.455,29.72293-.28026,44.5475a50.77889,50.77889,0,0,1-2.37818,13.02172c-1.11284,3.50255-2.31824,6.97023-2.25685,10.69535a1.09265,1.09265,0,0,0,2.184,0Z"/><path d="M107.347,238.5502c.85234,5.45034-.773,10.71077-3.38681,15.45394-.6788,1.2318,1.20657,2.3349,1.88581,1.10229,2.92606-5.30986,4.55675-11.06341,3.607-17.13682a1.10093,1.10093,0,0,0-1.34328-.76269,1.11773,1.11773,0,0,0-.76269,1.34328Z"/><path d="M107.0517,237.54971A133.82554,133.82554,0,0,0,70.322,241.252c-1.365.33208-.787,2.43867.58059,2.106a131.59266,131.59266,0,0,1,36.14915-3.62431c1.40555.0538,1.40324-2.13028,0-2.184Z"/><path d="M70.21369,242.19978a29.38719,29.38719,0,0,1-1.6459,11.88322c-.47268,1.32639,1.63675,1.89727,2.106.58059a31.01763,31.01763,0,0,0,1.72392-12.46381c-.094-1.39488-2.27866-1.40533-2.184,0Z"/><path d="M105.30675,253.11177c-.235.0526-.509.08492-.40757.07169-.35323.04605-.7081.08079-1.06258.11565-.99064.09743-1.98316.17646-2.97559.25326-2.9985.232-5.99976.42893-9.00079.62515-6.52329.42653-13.05043.80838-19.56918,1.30133a39.50807,39.50807,0,0,0-5.59476.56206c-1.371.30683-.79078,2.41288.58059,2.106.235-.05261.509-.08492.40756-.0717.35323-.04605.7081-.08079,1.06258-.11565.99065-.09743,1.98317-.17646,2.97559-.25326,2.99851-.232,5.99977-.42893,9.00079-.62515,6.52329-.42653,13.05043-.80837,19.56918-1.30133a39.50689,39.50689,0,0,0,5.59477-.56206c1.371-.30683.79077-2.41288-.58059-2.106Z"/><line class="i" x1="98.92445" y1="208.52653" x2="89.86841" y2="210.15906"/><path d="M96.76876,201.77574a16.38831,16.38831,0,0,0-14.48362,8.25056l.15091,1.71219,14.24165-3.66435,1.90709.51558Z"/><path d="M157.07181,200.19623c-3.07615.132-6.13842.5-9.19883.8219-1.51529.15936-3.03131.31487-4.55037.43417-.70906.05569-1.41924.10617-2.12994.136a4.56112,4.56112,0,0,0-.46377.014l.171.191q.0566-.19472.12324-.3862c.15144-.46323.31082-.92406.4662-1.386l-2.145-.29029a3.331,3.331,0,0,0,1.09238,2.9844,2.20406,2.20406,0,0,0,3.02976-.53139,2.14568,2.14568,0,0,0-.66437-2.98432,1.54873,1.54873,0,0,0-2.25,1.56783c.06345,2.5153,3.448,2.117,5.04541,1.73364,1.01869-.24449,2.01693-.56642,3.03411-.81678a5.02956,5.02956,0,0,1,2.37075-.22392,1.093,1.093,0,0,0,.58059-2.106c-2.51679-.835-5.35152-.12859-7.94131-.23512-1.4054-.0578-1.40275,2.12629,0,2.184,2.37788.09781,5.05848-.6067,7.36072.15711l.58059-2.106a9.13289,9.13289,0,0,0-4.61644.513c-.78473.21817-1.5669.45273-2.364.62254a6.0837,6.0837,0,0,1-1.0473.15182,4.82377,4.82377,0,0,0-.50068-.00967l-.013-.006q-.42006-.23663-.43228.37117h-1.1023c.29.13259.12731-.08263.13029-.15342.01427-.339-.11786-.74877-.10882-1.11286a1.0973,1.0973,0,0,0-2.145-.2903,6.16894,6.16894,0,0,0-.65688,2.83006,1.873,1.873,0,0,0,1.88776,1.50853,34.50085,34.50085,0,0,0,5.28354-.37451c3.72039-.36684,7.43656-.864,11.174-1.02439,1.40012-.0601,1.40764-2.24441,0-2.184Z"/><path class="b" d="M187.85252,366.75506c-.04991-.15361-.21152-9.29575-.36745-9.25357l-4.72314,2.13984c-.0365.00991-2.77243-.12029-2.81-.1244L81.64786,348.77642c-.13031-.01424-.255,9.11153-.30909,9.231l-2.88411,6.37451a.29855.29855,0,0,0-.01327.03487l-3.44794,11.081H190.69178Z"/><g class="j"><rect class="g" x="32.06616" y="329.21394" width="53.59213" height="50.29876"/></g><path class="b" d="M190.47685,445.057h0a.30314.30314,0,0,0,.52027.28649l.07183-.08435.00053-.1108A.30312.30312,0,0,0,190.47685,445.057Z"/><path d="M115.20331,374.26542c1.60567-6.15667,3.47828-12.23641,5.40736-18.29814.42721-1.34244-1.68066-1.91707-2.106-.58059-1.92907,6.06174-3.80168,12.14147-5.40736,18.29814a1.09293,1.09293,0,0,0,2.106.58059Z"/><path d="M108.74716,374.53117c.84059-3.49936,1.443-7.002,2.50211-10.45452a41.202,41.202,0,0,1,1.92029-5.25819,13.1434,13.1434,0,0,1,1.08031-1.97511,2.56943,2.56943,0,0,1,.86991-.85752c1.26082-.621.15539-2.50523-1.1023-1.8858-1.23842.60993-1.99612,2.08833-2.57,3.27019a40.651,40.651,0,0,0-2.10063,5.47336c-1.16307,3.66394-1.81128,7.38371-2.70566,11.107-.32812,1.36593,1.77731,1.94878,2.106.58059Z"/><path class="h" d="M52.64291,238.589a26.97412,26.97412,0,0,1,6.765,10.00937,1.03575,1.03575,0,0,0,1.23842.70316,1.01442,1.01442,0,0,0,.70316-1.23843,29.20245,29.20245,0,0,0-7.2828-10.89786c-.945-.88542-2.37176.53551-1.42376,1.42376Z"/><path class="h" d="M59.9776,260.51832a34.567,34.567,0,0,0-19.885,2.37911c-1.18473.517-.16088,2.25228,1.01626,1.7386a32.14483,32.14483,0,0,1,18.33345-2.17613c1.26719.223,1.8112-1.717.53526-1.94158Z"/><path d="M57.15256,269.13194c.43762.158,8.27858-3.337,9.38078-7.48858l-2.23415-11.85559c-.03447.60159-2.008-4.4963-2.22423-3.51055-.42729,1.94806-.88269-1.55523-2.0999-1.21286-1.28107.36038-2.76471-1.3131-3.008-1.59366a13.16006,13.16006,0,0,1,.961,8.23446c-1.13425,5.032-5.50129,9.04043-11.17725,10.38052,3.15216.50706,6.054,1.50963,6.73682,3.56242.981,2.94917-2.96554,7.02111-2.80767,7.12732C50.80371,272.85866,56.06846,268.74058,57.15256,269.13194Z"/><path d="M55.44454,207.44792c9.09127-.03423,18.08225-2.10789,27.17352-2.14212a.89873.89873,0,0,0,0-1.79639c-9.09127.03423-18.08225,2.10789-27.17352,2.14212a.89873.89873,0,0,0,0,1.79639Z"/><path d="M56.31064,206.78851a.71917.71917,0,0,0,.04295-.11037c-.04287.23335-.05463.12371-.01129.03074.05077-.10889.10169-.21756.15541-.32505.12476-.24965.25777-.49518.39377-.73885.32965-.59063.67843-1.17058,1.03294-1.74656.656-1.06589,1.33479-2.11789,2.02465-3.16215q.2226-.337.44742-.67244a.89834.89834,0,1,0-1.55112-.90667c-1.19951,1.78252-2.38175,3.58975-3.43782,5.46146a12.25014,12.25014,0,0,0-.82912,1.69234.90567.90567,0,0,0,.62733,1.10488.91787.91787,0,0,0,1.10488-.62733Z"/><path d="M163.34208,190.88578l15.29831,3.66193c1.03428.24758,1.47563-1.34642.43957-1.59442l-15.29832-3.66194c-1.03428-.24757-1.47563,1.34643-.43956,1.59443Z"/><polygon class="k" points="154.651 201.673 164.98 205.596 163.478 197.835 178.353 199.731 174.055 210.454 173.244 227.223 165.809 226.213 161.043 223.799 156.353 219.533 154.278 212.98 154.651 201.673"/><path d="M181.78982,199.55414c-2.91783,7.69575-6.11626,12.07727-4.2517,20.09362.33086,1.42249,1.42725,4.99777,1.302,6.45285s-5.07374,3.13765-5.59613,1.12213c-2.18837-8.44335-1.52047-20.28222,2.95991-27.76589"/><path d="M164.40842,215.74246a42.73151,42.73151,0,0,0,5.72456-4.77269c1.80711-1.68678,3.55768-3.43392,5.37592-5.10867.85218-.78493-.42067-2.05276-1.27024-1.27024-1.7791,1.6387-3.49289,3.34737-5.25931,4.99972a40.78391,40.78391,0,0,1-5.4776,4.60076c-.96659.62671-.06717,2.18253.90667,1.55112Z"/><polygon class="k" points="166.316 183.185 176.913 186.269 186.267 189.547 182.624 183.712 168.744 181.8 162.909 181.781 166.316 183.185"/><path d="M153.9323,175.2c3.44,4.19944,5.33136,9.56064,6.71119,14.74127a94.60605,94.60605,0,0,1,2.692,15.61824l1.86415-.77216c-6.52232-6.49292-16.41465-5.61258-24.71225-7.73379a1.1101,1.1101,0,0,0-1.2332.50184c-2.27438,4.49109-2.59348,9.553-2.95153,14.48754l1.38229-1.053c-3.77907-.84286-7.48734,1.36722-10.44119,3.48286-3.3575,2.40475-6.31107,5.294-9.55853,7.83342-1.10612.865.44918,2.40067,1.54431,1.54431,2.91846-2.28215,5.57753-4.8783,8.55806-7.085,2.50067-1.85141,5.99869-4.40967,9.31676-3.66963a1.10984,1.10984,0,0,0,1.38228-1.053c.32844-4.52638.56476-9.261,2.65335-13.38524l-1.2332.50184c7.81171,1.997,17.61709,1.0683,23.74853,7.17212.62367.62086,1.95463.20429,1.86415-.77215a97.37482,97.37482,0,0,0-2.86662-16.55829c-1.4819-5.45055-3.56183-10.93315-7.17623-15.34553-.89116-1.08791-2.42835.4651-1.54431,1.54431Z"/><path d="M163.27226,197.67073a123.82993,123.82993,0,0,0,12.32162,2.22933c2.96286.43669,6.05212.6522,8.96476,1.37017,1.12237.27667,1.60122-1.45522.47755-1.73221-2.91262-.718-6.00194-.93345-8.96476-1.37018a123.84486,123.84486,0,0,1-12.32162-2.22933.899.899,0,0,0-.47755,1.73222Z"/><path d="M160.00322,182.64759c4.37744,1.19345,8.69262,2.65335,12.98952,4.10481a112.63526,112.63526,0,0,1,12.828,4.78053c1.03708.49866,1.9493-1.04979.90667-1.55112a114.48391,114.48391,0,0,0-12.95523-4.85952c-4.39606-1.48884-8.81171-2.98558-13.29141-4.20692a.899.899,0,0,0-.47755,1.73222Z"/><path d="M127.2348,252.90324a278.38657,278.38657,0,0,0,41.59307-1.11312c1.38434-.14271,1.399-2.32821,0-2.184a278.38653,278.38653,0,0,1-41.59307,1.11312c-1.40505-.06578-1.4017,2.11836,0,2.184Z"/><path d="M116.27442,114.15731c.90354,2.29956-.63517,5.13905-1.73309,7.13013a69.3,69.3,0,0,1-4.02981,6.21168c-.5746.82063.77146,1.59774,1.34125.784a62.2364,62.2364,0,0,0,4.36674-6.83957c1.157-2.22078,2.5377-5.1924,1.55274-7.69916-.36144-.91988-1.86415-.51937-1.49783.41293Z"/><path d="M111.89052,125.58122c-1.29694.6237-1.80093,2.28218-1.86975,3.61265a4.58566,4.58566,0,0,0,2.1636,4.01931,9.60741,9.60741,0,0,0,5.6318,1.88628,10.32468,10.32468,0,0,0,3.06111-.68921,6.06432,6.06432,0,0,0,2.46958-1.4209,3.15135,3.15135,0,0,0,.814-2.71973c-.12469-.88731-.59-1.58977-1.5785-1.53167-.99352.05839-1.00022,1.6121,0,1.55332q.33528.03063-.03105-.14832a.19188.19188,0,0,1,.03128.0892,2.26471,2.26471,0,0,0,.08061.46146,1.45839,1.45839,0,0,1-.25067.99081,4.0968,4.0968,0,0,1-2.16146,1.30419,7.8847,7.8847,0,0,1-2.88594.55911,7.467,7.467,0,0,1-2.6176-.69656c-1.25339-.54025-2.92494-1.4208-3.15275-2.92238-.14695-.96862.098-2.53417,1.07975-3.00631.90056-.43308.11362-1.7729-.784-1.34125Z"/><polygon class="g" points="186.278 314.544 186.278 318.587 191.251 312.3 195.02 311.431 199.462 317.24 200.703 311.776 205.953 314.2 203.168 308.519 207.17 306.915 198.789 304.445 195.373 293.962 185.963 275.472 186.248 282.696 191.889 297.03 195.373 304.445 197.015 307.831 189.88 310.379 186.278 314.544"/><path class="l" d="M198.78927,307.83061s5.11832,8.5786,13.10225,7.00849"/><path class="m" d="M198.24518,308.519s-.385,9.17306,4.92277,9.74717"/><path class="m" d="M199.1709,306.47338s8.707,2.9124,10.72972-2.02835"/><path class="n" d="M143.12393,252.17271s14.10943,53.96939,32.9324,50.476,16.34642-21.996,16.34642-21.996"/><path class="n" d="M184.46751,199.73083s7.28734-11.03622,7.65682-11.0837"/><path class="n" d="M183.35982,200.1355s2.17076-11.70834,5.83092-12.47691"/><ellipse class="o" cx="184.91336" cy="217.12105" rx="3.43846" ry="1.84133" transform="translate(-100.25301 220.94734) rotate(-50.34902)"/><ellipse class="o" cx="185.22041" cy="221.88906" rx="3.43846" ry="1.84133" transform="translate(-103.813 222.90924) rotate(-50.34902)"/><ellipse class="o" cx="185.41151" cy="226.98886" rx="3.43846" ry="1.84133" transform="translate(-107.67041 224.90195) rotate(-50.34902)"/><ellipse class="o" cx="185.57698" cy="232.58292" rx="3.43846" ry="1.84133" transform="translate(-111.91766 227.05379) rotate(-50.34902)"/><ellipse class="o" cx="185.28669" cy="238.07034" rx="3.43846" ry="1.84133" transform="translate(-116.24772 228.81613) rotate(-50.34902)"/><ellipse class="o" cx="185.29901" cy="243.28333" rx="3.43846" ry="1.84133" transform="translate(-120.25699 230.71215) rotate(-50.34902)"/><ellipse class="o" cx="185.85292" cy="248.80507" rx="3.43846" ry="1.84133" transform="translate(-124.30797 233.13689) rotate(-50.34902)"/><ellipse class="o" cx="186.04839" cy="254.40461" rx="3.43846" ry="1.84133" transform="translate(-128.54857 235.31382) rotate(-50.34902)"/><ellipse class="o" cx="187.11992" cy="260.2818" rx="3.43846" ry="1.84133" transform="translate(-132.68591 238.26574) rotate(-50.34902)"/><ellipse class="o" cx="187.89713" cy="265.62041" rx="3.43846" ry="1.84133" transform="translate(-136.51509 240.79614) rotate(-50.34902)"/><ellipse class="o" cx="189.09311" cy="271.28967" rx="3.43846" ry="1.84133" transform="translate(-140.4473 243.76863) rotate(-50.34902)"/><path class="o" d="M192.808,274.28787c.46056.98891-.27446,2.80988-1.6417,4.06725s-2.849,1.475-3.30953.48609,1.1099-3.45,2.47714-4.70732S192.34742,273.299,192.808,274.28787Z"/><ellipse class="o" cx="192.53787" cy="281.17959" rx="3.43846" ry="1.84133" transform="translate(-146.81538 249.99998) rotate(-50.34902)"/><ellipse class="o" cx="194.78051" cy="285.76921" rx="3.43846" ry="1.84133" transform="translate(-149.53754 253.38763) rotate(-50.34902)"/><ellipse class="o" cx="196.84924" cy="289.53887" rx="3.43846" ry="1.84133" transform="translate(-151.69132 256.34465) rotate(-50.34902)"/><path class="p" d="M183.35982,214.8072l1.03248-18.37693,2.01919.2239c.56554.10862,1.052.94423,1.04015,1.78672l-1.88049,14.72584Z"/><path d="M183.34024,216.05653q.05482.06237.10723.1268-.08621-.115.00372.00684c.042.062.0853.123.12486.18661.04955.07974.09579.16156.13777.24554q.02276.045.0433.091.04176.0923-.02719-.064c.08032.07547.09143.30481.11731.41253.03823.15912-.01158-.21.00229.04734q.00453.08393.00259.168c-.00235.10254-.07314.267.00882.0349a1.37332,1.37332,0,0,0-.02924.16022,3.42891,3.42891,0,0,1-.10774.3616c-.05579.1662.09719-.18844-.00444.00834-.02886.05587-.05541.11278-.08555.168-.06016.11032-.12639.21731-.1971.32116-.03022.04438-.06233.08735-.09307.13135-.09031.12926.13424-.16336-.02324.02835q-.11611.14135-.24114.275c-.15517.16674-.319.32521-.48751.47839-.23616.21467-.49473.40865-.71957.63531a.8982.8982,0,0,0,1.27024,1.27024c.25741-.2595.5546-.47979.82177-.72942a6.522,6.522,0,0,0,1.14011-1.36363,3.494,3.494,0,0,0,.54146-1.94793,3.86364,3.86364,0,0,0-1.03545-2.32291.90274.90274,0,0,0-1.27023,0,.92081.92081,0,0,0,0,1.27024Z"/><path d="M184.218,221.18906q.05484.06238.10723.12681-.0862-.115.00373.00683c.042.062.0853.123.12485.18661.04955.07974.0958.16156.13777.24554q.02277.045.04331.091.04174.09228-.0272-.064c.08032.07547.09144.30481.11732.41253.03823.15911-.01158-.21.00229.04734q.00453.08391.00259.168c-.00235.10254-.07314.267.00882.03491a1.37294,1.37294,0,0,0-.02924.16022,3.43032,3.43032,0,0,1-.10774.3616c-.05579.1662.09719-.18845-.00445.00833-.02886.05588-.0554.11278-.08554.168-.06016.11032-.12639.21732-.19711.32117-.03021.04438-.06233.08735-.09306.13134-.09031.12926.13424-.16335-.02325.02836q-.1161.14133-.24113.275c-.15518.16673-.319.32521-.48752.47839-.23615.21467-.49472.40864-.71956.63531a.89819.89819,0,1,0,1.27023,1.27023c.25742-.2595.55461-.47979.82177-.72942a6.52228,6.52228,0,0,0,1.14012-1.36362,3.49411,3.49411,0,0,0,.54146-1.94793,3.86364,3.86364,0,0,0-1.03545-2.32291.90275.90275,0,0,0-1.27024,0,.9208.9208,0,0,0,0,1.27023Z"/><path d="M184.70508,227.299c.06687.07287.13185.14691.194.2239-.14189-.17591.03357.057.05723.09447.03376.05344.066.108.096.16365q.0288.05342.055.10818.061.13415-.02113-.05375c-.00733.00758.09486.32512.10481.368.03679.15833-.01435-.23232-.00242.01732q.0036.0753.00124.15077c-.00316.10168-.07125.25631.00875.00739-.01951.0607-.02383.12982-.0397.19209q-.01812.07116-.041.14111c-.02608.08022-.13251.24535.00295.01471-.12253.20862-.22366.41929-.36363.61954-.12277.17564.11427-.13475.00322-.0043-.04291.05041-.08462.10172-.12843.15139q-.11331.12846-.23425.24992c-.15654.15794-.32108.30776-.48992.45242-.24183.2072-.50508.39341-.73652.61232a.90626.90626,0,0,0,0,1.27023.9166.9166,0,0,0,1.27024,0c.46608-.44086.99561-.79668,1.42783-1.27777a3.60691,3.60691,0,0,0,1.086-2.85216,3.54437,3.54437,0,0,0-.98-1.91962.905.905,0,0,0-1.27024,0,.91791.91791,0,0,0,0,1.27023Z"/><path d="M185.03851,233.7365a3.15892,3.15892,0,0,1,.24132.24224c.01722.01955.03292.04175.05118.06026.06434.06527-.06251-.0822-.0623-.08163a1.14866,1.14866,0,0,0,.10545.15936c.02292.03882.04206.07951.06412.11872.07177.12761-.0643-.19342-.02406-.05746.01158.03914.02589.07726.03625.11683.01134.04333.03782.21268.01449.03487-.02291-.17458-.00527-.02763-.00367.01419q.00216.05665-.00051.11326c-.002.042-.01981.18789.00324.01121.02338-.17916-.00157-.01551-.01232.02787-.01061.04278-.02323.085-.03729.1268-.01273.03781-.06837.17387-.00251.01751.066-.15681.00656-.02012-.01145.01555q-.03095.0613-.06568.12061c-.04037.06911-.08436.13612-.13082.20128-.08244.11563-.01157.00572.04219-.05163-.03265.03483-.06094.07482-.09219.111a4.66607,4.66607,0,0,1-.37911.38759c-.12617.1158-.25863.22333-.39119.33159-.109.089.19317-.14529.04158-.032-.03068.02293-.06116.04611-.09193.06892q-.09545.07077-.1923.13964c-.26574.18943-.53694.369-.7915.57381a.90061.90061,0,0,0,0,1.27023.92435.92435,0,0,0,1.27024,0c.08377-.06739-.22231.16519-.11732.09055.02037-.01448.04031-.02962.06059-.04422.04822-.03471.09707-.06854.14585-.10245.12282-.0854.246-.17026.36763-.25739a9.99787,9.99787,0,0,0,.99925-.79677,3.09431,3.09431,0,0,0,1.17255-2.43735,2.76659,2.76659,0,0,0-.93954-1.76324.89819.89819,0,1,0-1.27024,1.27023Z"/><path d="M184.997,238.70535a2.85689,2.85689,0,0,1,.24516.23241c.02584.028.13088.16045.0361.03376-.0955-.12764.011.01824.032.051.02583.04027.04774.08216.0715.12354l.02614.05276c-.00938.005-.07-.19877-.05351-.127.00936.0409.02886.08113.03979.122.01187.04431.03563.20081.01182.01884-.02338-.17879-.00645-.04234-.00482.00053.00151.03971-.00045.0791-.00143.11877-.00426.17145-.00175-.10446.016-.10455-.00122,0-.02323.10618-.02586.116-.0104.03882-.0239.07629-.03585.11457-.04919.15768.044-.072.03785-.08554.01529.03347-.09868.18763-.119.22044-.01936.03122-.03956.06193-.06033.09223-.02269.0331-.12522.16831-.0181.02973.10306-.13333.01214-.01736-.01309.01257q-.04336.05148-.08871.10124a4.6161,4.6161,0,0,1-.37922.36805q-.09589.0837-.19521.16338c-.01315.01058-.0764.07481-.09112.07209a1.17808,1.17808,0,0,1,.10581-.08207c-.02057.01465-.04038.03052-.06063.04562-.12963.09667-.26193.1897-.39568.28057-.21085.14325-.4323.27429-.63519.42886a.98672.98672,0,0,0-.41277.53679.91793.91793,0,0,0,.09054.69211.90734.90734,0,0,0,1.2289.32223c.53812-.41,1.12239-.74159,1.63558-1.18934a2.95966,2.95966,0,0,0,1.20758-2.33926,2.53219,2.53219,0,0,0-.924-1.6926.89819.89819,0,0,0-1.27023,1.27024Z"/><path d="M185.3484,243.31949a3.07747,3.07747,0,0,1,.23671.23145.4895.4895,0,0,0,.06656.07682c.00332.00188-.11291-.16033-.06577-.086.02872.04526.06194.08753.08991.13346.02261.03713.04124.07648.06342.11376.07368.12381-.067-.19678-.02448-.06391.01661.05188.09211.20615.06787.26035-.01351.03023-.01039-.24256-.02176-.147-.00206.01734.0034.0372.00312.05479-.00058.03622-.00077.07258-.00116.10881-.00186.17366.02288-.08881.01645-.09539.01267.013-.02468.119-.0307.14133-.00951.03528-.02147.06966-.03223.10454-.00534.0173-.01473.03424-.019.05176-.02218.09082.05531-.15735.05519-.129-.00026.065-.09031.17973-.1233.23415-.04052.06683-.08645.12938-.13033.1939-.08.11759.13661-.16477.0429-.0563-.03069.03552-.06023.072-.09136.10714a4.662,4.662,0,0,1-.37493.37465q-.09819.08828-.2001.17229-.04635.03831-.09334.07583c-.01549.01239-.03138.02437-.04667.037-.08038.06633.17192-.1292.0887-.06825-.12932.0947-.25712.19109-.38856.28291-.26791.18714-.53871.36561-.79575.56792a.89716.89716,0,0,0-.26307.63512.91406.91406,0,0,0,.26307.63512.92557.92557,0,0,0,1.27024,0c-.01053.00828-.23042.17037-.11816.09222.02-.014.03969-.02858.05965-.04267.04742-.03348.09546-.06608.14342-.09877.1207-.08225.24179-.16393.36145-.24771a10.09744,10.09744,0,0,0,1.01966-.7982,3.0296,3.0296,0,0,0,1.17591-2.38819,2.67314,2.67314,0,0,0-.93331-1.73415.89819.89819,0,0,0-1.27023,1.27023Z"/><path d="M185.88532,249.16116a2.747,2.747,0,0,1,.23515.21152c.03589.03679.06873.07581.10329.11372.08365.09175-.13183-.19221-.02025-.01978.02044.03159.03881.06422.05748.09685.00889.01552.01513.0332.02464.04829.05408.08584-.0766-.21436-.04867-.11825.00937.03226.02277.06343.032.09588.01246.044.039.21394.01379.02348-.02545-.19244-.0094.0402-.008.10025.00274.12038.054-.2604.01343-.09962-.009.03562-.01571.07162-.026.107s-.02674.07021-.03564.10579c-.015.0601.05472-.14005.05977-.13976-.00122-.00007-.03006.06359-.02781.05933-.03685.06959-.07407.138-.1173.20394-.019.02894-.04011.05649-.05893.08549-.06831.10526.15353-.18451.04344-.05591-.05508.06436-.10982.12855-.16836.18986a4.65515,4.65515,0,0,1-.3828.35507q-.0432.03609-.08706.07136c-.01943.01564-.0393.03076-.05857.04658-.06669.05473.12535-.08982.10819-.08334a1.12943,1.12943,0,0,0-.20654.15272c-.13064.0936-.26384.18361-.39835.27157-.21146.13827-.43281.26465-.63682.41394a.97543.97543,0,0,0-.41277.53679.91793.91793,0,0,0,.09055.69211.90818.90818,0,0,0,1.22889.32223c.19539-.143.40714-.26437.60992-.3964a10.79648,10.79648,0,0,0,1.03279-.75733,2.85313,2.85313,0,0,0,1.22275-2.26944,2.37728,2.37728,0,0,0-.91194-1.63418.96968.96968,0,0,0-.63512-.26307.89819.89819,0,0,0-.63511,1.53331Z"/><path d="M186.3274,253.69612c.06521.06859.12664.13966.18908.21069q.09439.11716-.019-.02516.037.051.07163.1037.05761.08776.10782.18.021.03779.04.07657.06166.1322-.02233-.06258a1.1419,1.1419,0,0,0,.06843.20016,1.35621,1.35621,0,0,0,.0441.19713c-.03465-.073-.01993-.21344-.01076-.04488a1.77946,1.77946,0,0,1,.00009.19046c-.01284.24267.039-.15935.00469-.00585-.01022.0457-.01833.09141-.02994.13684-.01543.06041-.03368.12007-.05432.1789-.0791.22539.07175-.13613.00165.003-.05008.09942-.09977.19761-.15818.29263q-.05027.08179-.10523.16056c-.01779.0256-.14709.19691-.0441.0644.10314-.13268-.031.03576-.051.05942q-.06213.07359-.12716.14463-.11231.123-.23177.2392c-.16043.1568-.32891.30518-.50159.44832-.2434.20177-.50722.38255-.74069.59586a.90485.90485,0,0,0,0,1.27024.91809.91809,0,0,0,1.27023,0c.47134-.43063,1.00338-.77682,1.44154-1.24811a3.48285,3.48285,0,0,0,1.1082-2.67563,3.398,3.398,0,0,0-.98118-1.96076.90646.90646,0,0,0-1.27024,0,.9164.9164,0,0,0,0,1.27024Z"/><path d="M187.74818,260.46232c.05906.05584.11712.1125.17225.17227q.03889.04208.076.08574.09138.11162-.03868-.05371a1.06032,1.06032,0,0,0,.11368.16961c.03155.0526.05369.11937.08968.16815q-.08836-.21788-.03828-.08952.01518.041.028.0828c.0166.05422.02768.109.04028.16418.03324.14557-.00464-.25888-.00961-.03645-.00116.05227-.00433.1072-.00278.15932.00433.145.05925-.256.00471-.0431-.01314.05133-.02392.1028-.03949.15355a1.05855,1.05855,0,0,0-.05377.15069q.09857-.228.0416-.10352-.01755.03686-.03644.073a2.61637,2.61637,0,0,1-.17285.2838c-.04319.06217-.18255.20566.01359-.01166-.03819.04232-.07239.08876-.1099.1318a5.2084,5.2084,0,0,1-.48842.48525q-.12548.11041-.25594.215c-.04173.0336-.0859.065-.12651.09994.23281-.20012.08573-.06652.02751-.023-.29765.22279-.61023.42657-.89681.664a.90149.90149,0,0,0,0,1.27024.92281.92281,0,0,0,1.27024,0c.13392-.111-.20883.15347-.06324.04843.04918-.03548.09808-.07132.14741-.10659.12506-.08939.25054-.17819.37428-.26942a9.78889,9.78889,0,0,0,.99838-.817,3.17884,3.17884,0,0,0,1.15493-2.48171,2.8993,2.8993,0,0,0-.94958-1.81232.8982.8982,0,1,0-1.27024,1.27024Z"/><path d="M188.27748,265.28634c.05976.05748.11849.11578.17421.17724q.03933.04329.07681.08818.09115.11257-.03764-.05013c.00306.04267.09133.13452.11474.17427.032.05432.05425.12182.09039.17266q-.08761-.21529-.038-.08624.01526.04209.02812.085c.01666.05561.02781.11179.04029.16836.03233.1466-.00376-.25629-.01-.03143-.00147.05349-.00474.1098-.00332.16316.00388.14592.05915-.25374.00376-.03851-.0135.05247-.02451.10512-.04043.157a.88878.88878,0,0,0-.05485.154q.09769-.22611.04073-.10114-.01785.03764-.037.07458a2.68338,2.68338,0,0,1-.17542.28953c-.04206.06089-.18267.21105.01195-.00842-.03361.03791-.064.07907-.097.11761a5.16916,5.16916,0,0,1-.47484.48095q-.126.11316-.25726.22025c-.04213.03452-.08487.06825-.12734.10236-.1727.1387.14417-.10748.0264-.02013-.301.22324-.61557.43455-.90248.67587a.90194.90194,0,0,0,0,1.27024.922.922,0,0,0,1.27023,0c.01641-.0138.03264-.02844.0501-.04088.04292-.03058-.21933.16442-.11253.08734.0498-.03594.09889-.0729.14862-.109.1211-.0878.24262-.175.36247-.26451a9.76864,9.76864,0,0,0,1.00221-.82941,3.24507,3.24507,0,0,0,1.15278-2.505,2.9482,2.9482,0,0,0-.95551-1.84414.89819.89819,0,1,0-1.27023,1.27024Z"/><path d="M189.55059,271.3493a2.88279,2.88279,0,0,1,.24723.23671c.02528.02771.13235.16164.03685.036-.09571-.12589.01168.02052.0326.05355.02592.04092.04811.08351.07178.1257l.02619.05366c-.01107.00958-.06912-.20174-.0535-.12547.00728.03553.025.07109.03476.10634.0125.045.04128.226.01637.03876-.02478-.18624-.007.04878-.00641.10593.00166.16554.04445-.2034.01427-.08532-.01.039-.01614.0788-.02671.11772-.00914.03367-.02121.06632-.031.09972-.043.14648.06442-.13006.03819-.08344-.0415.07377-.07453.15136-.1189.224-.0414.06772-.10217.13092-.13725.20108.03023-.06047.13844-.1736.04509-.06165q-.04357.05224-.08927.10268a4.614,4.614,0,0,1-.38141.37326q-.0891.0783-.1812.15309c-.03535.02879-.07154.05657-.10691.08533-.07215.05865.12431-.09455.10536-.0813-.02085.01458-.04052.031-.061.04615q-.18948.14016-.38344.27388c-.21254.14562-.436.27866-.6405.43565a.98908.98908,0,0,0-.41278.53679.918.918,0,0,0,.09055.69211.90718.90718,0,0,0,1.22889.32223c.53621-.41168,1.12005-.74441,1.63123-1.19369a3.00021,3.00021,0,0,0,1.20833-2.34859,2.54578,2.54578,0,0,0-.9272-1.71109.89819.89819,0,0,0-1.27023,1.27024Z"/><path d="M190.5497,276.10741c.06024.05808.11943.117.17554.17911q.0396.04374.07733.0891.09117.11292-.03706-.04876c-.00142.03532.09509.1417.11518.17606.03226.05517.0546.1223.0905.1744q-.08738-.21435-.03809-.085.01518.0425.02794.08579c.01631.05544.02205.11547.03973.17-.08128-.25059-.01413-.13782-.011-.02949.00159.055-.00515.10986-.00439.16465.002.1462.05984-.25238.00218-.03676-.01414.05287-.02545.106-.04186.15836a.58574.58574,0,0,0-.041.11675q.09771-.2253.04193-.09962-.01747.03813-.03637.07557a2.63844,2.63844,0,0,1-.17361.29341c-.03249.04795-.06883.09323-.10137.141.166-.2439.04976-.06624.00267-.01115a5.225,5.225,0,0,1-.49469.49963q-.11139.09942-.22682.19417c-.04247.035-.08561.06912-.12839.10371-.17313.14.14278-.10654.025-.01855-.3028.2262-.62033.4386-.90946.6823a.902.902,0,0,0,0,1.27023.92192.92192,0,0,0,1.27024,0c.14846-.12513-.14639.107-.0614.04549.05028-.03638.09987-.07375.15009-.11022.12234-.08885.24508-.17714.36609-.26782a9.64664,9.64664,0,0,0,1.00839-.83854,3.222,3.222,0,0,0,1.13747-2.50878,2.97889,2.97889,0,0,0-.95454-1.83535.8982.8982,0,0,0-1.27024,1.27024Z"/><path d="M192.41927,281.15107a3.16166,3.16166,0,0,1,.24135.24242c.01723.01957.03294.04176.05119.06031.0643.06536-.06249-.08213-.06228-.08156a1.13659,1.13659,0,0,0,.10547.15948c.02293.03884.04208.07956.06414.1188.07175.12767-.06427-.19337-.024-.05735.01159.03916.02591.07731.03627.11691.01134.04332.03784.21274.01451.035-.02291-.17456-.00526-.02753-.00365.01428q.00217.05669-.0005.11333c-.002.04205-.0198.18793.00327.01128.02339-.17914-.00157-.0154-.01231.028-.0106.0428-.02322.08508-.03727.12687-.01273.03783-.06839.17389-.0025.01758.0661-.15678.00656-.02-.01143.01563q-.03094.06133-.06567.12067c-.04036.06915-.08435.1362-.1308.20139-.08238.11563-.01152.00593.04221-.05157-.03262.03491-.06092.07486-.09218.1111a4.66634,4.66634,0,0,1-.37907.38778c-.12616.11586-.25863.2234-.39115.33175-.109.0891.19314-.14531.04158-.032-.03067.02294-.06115.04613-.09191.069q-.09546.0708-.1923.1397c-.2657.18951-.53693.36914-.79145.574a.90061.90061,0,0,0,0,1.27023.92432.92432,0,0,0,1.27023,0c.08377-.06742-.22229.16521-.11731.09052.02036-.01449.04029-.02963.06058-.04424.04821-.03472.09706-.06856.14583-.10249.12282-.08543.246-.17033.36761-.2575a9.99673,9.99673,0,0,0,.99919-.79708,3.09585,3.09585,0,0,0,1.17234-2.43837,2.769,2.769,0,0,0-.93972-1.764.89819.89819,0,1,0-1.27023,1.27024Z"/><path d="M194.5205,285.6143c.05916.05628.11731.11337.17252.17358q.039.04241.07613.08639.09126.11189-.03849-.05278a.92721.92721,0,0,0,.11393.17084c.03164.053.05381.12017.08993.16932q-.08814-.21718-.03809-.08867.01522.0413.02812.08336c.01668.05458.02781.10976.0405.16528.03336.14588-.00469-.25834-.00932-.03515-.00109.05255-.00433.10792-.00257.16031.00488.14527.05891-.25561.005-.0419-.013.05164-.02379.1034-.0393.15446a.92966.92966,0,0,0-.05359.15157q.09841-.22762.04173-.10288-.0175.03705-.03635.07345a2.628,2.628,0,0,1-.17252.28536c-.04207.061-.18132.21057.01378-.01076-.03784.04293-.07225.08916-.10976.13248a5.207,5.207,0,0,1-.48791.48767q-.12536.11092-.25573.216c-.04152.03361-.08679.06463-.12641.1004.22416-.20239.08781-.0677.02762-.02241-.29728.22367-.61021.428-.89631.66633a.90164.90164,0,0,0,0,1.27024.92252.92252,0,0,0,1.27023,0c.13372-.1114-.20864.15362-.06333.048.04911-.03569.098-.07165.14732-.10707.125-.08979.25038-.179.374-.27063a9.76269,9.76269,0,0,0,.99772-.82021,3.19516,3.19516,0,0,0,1.15273-2.49216,2.92456,2.92456,0,0,0-.95133-1.82064.89819.89819,0,0,0-1.27023,1.27024Z"/><path d="M196.32226,289.08045c.06387.066.12338.13532.18541.20293q.09426.11592-.02112-.03083.03639.0492.07051.1a2.75345,2.75345,0,0,0,.19271.34554q-.08238-.20074-.03233-.06877.01689.04776.03115.09636a1.91533,1.91533,0,0,0,.04474.19062q-.02872-.24036-.01317-.09774.00427.04644.006.093.00255.069-.0005.13806c-.01041.23809.04543-.16257.00751-.01294-.01481.05843-.02353.11824-.03937.17661-.0159.05858-.03665.11513-.05529.1728-.0517.16.09044-.18744.02081-.04579a3.5068,3.5068,0,0,1-.1769.32467q-.04989.07921-.10422.1555c-.12229.1723.05088-.05615.013-.01265a7.92455,7.92455,0,0,1-.97068.95073c-.07608.06207-.15323.12275-.23038.18347-.16658.13112.15275-.11718.04116-.03161l-.09037.06948c-.15515.11944-.31735.23583-.46345.36714a.90423.90423,0,0,0,0,1.27023.91882.91882,0,0,0,1.27023,0c.03124-.02807.06343-.05492.096-.08145.02313-.01886.04678-.03708.07011-.0557.1148-.09161-.03233.02532-.0786.06044q.25937-.19686.51493-.39881a7.89962,7.89962,0,0,0,.84864-.76177,3.42518,3.42518,0,0,0,1.1097-2.63178,3.29836,3.29836,0,0,0-.97594-1.938.89819.89819,0,0,0-1.27024,1.27023Z"/><polygon class="g" points="186.214 358.077 186.214 367.402 189.555 375.498 190.692 375.498 187.759 364.47 187.485 357.501 186.214 358.077"/><path class="q" d="M139.13793,232.97609l-.98926.10449.29394-1.38672.3711-.03906a2.05831,2.05831,0,0,0,.8457-.23926,1.15835,1.15835,0,0,0,.45313-.49609,1.87189,1.87189,0,0,0,.16113-.7793c.00683-.30957.00391-.78418-.00586-1.4209l-.01074-.10351a1.12734,1.12734,0,0,0-.14942-.49122.69322.69322,0,0,0-.31347-.26367,1.40219,1.40219,0,0,0-.63672-.03515l-2.64844.27832-.39746-3.78418,1.69043-.17774.25684,2.44434,1.19335-.126a2.76182,2.76182,0,0,1,1.88379.3252,1.99562,1.99562,0,0,1,.76563,1.52343l.02148.29981.02344,1.4375a2.83749,2.83749,0,0,1-.67187,2.06152A3.334,3.334,0,0,1,139.13793,232.97609Z"/><path class="q" d="M144.72093,224.62159l-.33105,2.38477-1.43945.15039.74511-2.42773Zm2.17774-.22949-.34766,2.38672-1.42383.14942.751-2.42872Z"/><path class="q" d="M154.94457,231.315l-1.69043.17774-.375-3.56445a1.72822,1.72822,0,0,0-.48731-1.11524,1.49791,1.49791,0,0,0-1.24414-.30566,8.2109,8.2109,0,0,0-.96191.16211q-.50683.11279-1.6709.46386l-.00781-1.38574a12.81806,12.81806,0,0,1,2.86328-.65039,2.624,2.624,0,0,1,3.19336,2.58984Zm-4.12989.43457-1.69531.17774-.38769-3.68457,1.60937-1Z"/><path class="q" d="M156.10863,229.80616l3.20312-.33593-3.73339-4.10645,1.46386-.92676,2.3877,2.63379a2.10409,2.10409,0,0,0,.21484-.62988,3.4829,3.4829,0,0,0-.00683-.874l-.12989-1.23535,1.66407-.17481.14355,1.36133a2.8044,2.8044,0,0,1-.14746,1.29785,4.01231,4.01231,0,0,1-.88379,1.28223l1.17871,1.34082-.14941,1.207-5.375.56445Z"/><path class="r" d="M39.64149,233.10137s7.97452,14.89141,0,39.53413"/><path class="s" d="M18.43684,186.58239s11.87707,6.11417,16.368,6.35046,7.77558-2.608,8.90269-2.75769-25.27072-3.59277-25.27072-3.59277"/><path class="t" d="M13.65322,134.70545s5.05255-1.0171,4.19166-2.37056"/><path class="u" d="M11.258,130.43615s4.1952-1.0171,3.4804-2.37056"/><path class="t" d="M17.94361,150.42382s3.34424.14969,3.79334-2.24548,9.28132-1.34729,9.28132-1.34729,5.43991,4.12034,6.46242,7.52417.62418,4.15232,0,4.15232"/><path class="t" d="M17.94361,155.95109h2.74545s4.491-3.353,9.58072-1.59587,5.7943,3.25413,7.83721,6.6972-1.999,6.96955-4.54384,5.43086-4.19157-3.33508-3.59277-5.13146.74849,1.04789-.5988,1.79638-4.04186-.19716-4.04186-.19716"/><path class="t" d="M19.49147,166.85437s8.49351-.7615,8.81257-3.43142"/><path class="t" d="M17.76582,147.77914s5.31842-10.24269,8.61179-8.96361,6.28734.80412,9.431,3.28708,5.53885,2.73245,4.491,5.67653-.87531,8.16042-1.63512,8.17195"/><path class="t" d="M39.56889,176.1608s-4.70836-10.23462-6.00574-9.67752"/><path class="t" d="M37.48069,174.9245s-5.55491-7.9636-4.41654-8.07013"/><path class="t" d="M23.89775,163.42295s-4.20668-.77374-3.90728-2.17093"/><path class="s" d="M17.94361,187.1s11.87707,6.11417,16.368,6.35045,7.77558-2.608,8.9027-2.75768c.58348-.07749-6.20616-.02006-12.89467-.92817A95.16546,95.16546,0,0,1,17.94361,187.1"/><path class="b" d="M17.44559,191.69075s-6.83624,32.24843-6.18755,33.28967S5.32,242.82455,5.32,242.82455s-3.23754,19.71078.67661,27.50151,12.92806,12.90249,12.92806,12.90249,18.6364-.31336,19.18232-4.80834S43.21434,254.793,43.21434,254.793L36.566,214.42946l4.93116-19.14594,2.71952-4.81531-15.72662,1.11837L17.32084,187.1Z"/><path class="v" d="M42.41484,182.50923s5.22-18.16344,1.228-32.53451-4.54-20.95782-6.16217-21.75621-7.15979-3.34932-5.28917,12.09762c-5.51451-2.66456-6.7121-1.5006-6.7121-1.5006l-2.8425,1.5006s-13.52456-23.89359-16.91773-21.788C.92883,115.878.13044,118.39674.13044,118.39674s11.1775,18.708,12.17549,19.25483,5.45989,10.12757,5.45989,10.12757-3.71846,2.79437-4.09018,4.19156-2.3677,1.996-1.5693,3.39317-1.79639.79839.39919,4.59076.5988,1.87982,2.39518,6.52866,5.988,18.42112,5.988,18.42112l-1.19759,6.74787s16.20305,4.948,19.87782,1.99424S42.41484,182.50923,42.41484,182.50923Z"/><path class="t" d="M17.94361,150.42382s3.34424.14969,3.79334-2.24548,9.28132-1.34729,9.28132-1.34729,5.43991,4.12034,6.46242,7.52417.62418,4.15232,0,4.15232"/><path class="t" d="M17.94361,155.95109h2.74545s4.491-3.353,9.58072-1.59587,5.7943,3.25413,7.83721,6.6972-1.999,6.96955-4.54384,5.43086-4.19157-3.33508-3.59277-5.13146.74849,1.04789-.5988,1.79638-4.04186-.19716-4.04186-.19716"/><path class="t" d="M19.49147,166.85437s8.49351-.7615,8.81257-3.43142"/><path class="t" d="M17.76582,147.77914s5.31842-10.24269,8.61179-8.96361,6.28734.80412,9.431,3.28708,5.53885,2.73245,4.491,5.67653-.87531,8.16042-1.63512,8.17195"/><path class="t" d="M39.56889,176.1608s-4.70836-10.23462-6.00574-9.67752"/><path class="t" d="M37.48069,174.9245s-5.55491-7.9636-4.41654-8.07013"/><path class="t" d="M23.89775,163.42295s-4.20668-.77374-3.90728-2.17093"/></svg>