<svg xmlns="http://www.w3.org/2000/svg" viewBox="0 0 497 586"><defs><style>.a{fill:#505bb5;}.b{fill:#c12d2d;}.c{fill:#39bf2e;}.d,.f{fill:none;stroke-miterlimit:10;}.d{stroke:#112d4d;stroke-width:71px;}.e,.g{fill:#f2f7fa;}.f{stroke:#f9c521;stroke-width:20px;}.g{opacity:0.4;}</style></defs><circle class="a" cx="484.5" cy="573.5" r="12.5"/><circle class="a" cx="484.5" cy="478.5" r="12.5"/><circle class="b" cx="484.5" cy="347.5" r="12.5"/><circle class="b" cx="484.5" cy="384.5" r="12.5"/><circle class="b" cx="484.5" cy="309.5" r="12.5"/><circle class="b" cx="447.5" cy="13.5" r="12.5"/><circle class="b" cx="484.5" cy="13.50001" r="12.5"/><circle class="b" cx="409.5" cy="13.49999" r="12.5"/><circle class="a" cx="484.5" cy="212.5" r="12.5"/><circle class="c" cx="484.5" cy="120.5" r="12.5"/><circle class="c" cx="284.5" cy="212.5" r="12.5"/><circle class="a" cx="142.5" cy="12.5" r="12.5"/><circle class="a" cx="285.5" cy="13.5" r="12.5"/><circle class="c" cx="12.5" cy="12.5" r="12.5"/><circle class="c" cx="12.5" cy="212.5" r="12.5"/><path class="d" d="M0,108H359s28,4,28,28V556"/><rect class="e" x="10" y="94" width="9" height="29" transform="translate(123 94) rotate(90)"/><rect class="e" x="50" y="94" width="9" height="29" transform="translate(163 54) rotate(90)"/><rect class="e" x="90" y="94" width="9" height="29" transform="translate(203 14) rotate(90)"/><rect class="e" x="129" y="94" width="9" height="29" transform="translate(242 -25) rotate(90)"/><rect class="e" x="169" y="94" width="9" height="29" transform="translate(282 -65) rotate(90)"/><rect class="e" x="209" y="94" width="9" height="29" transform="translate(322 -105) rotate(90)"/><rect class="e" x="247" y="94" width="9" height="29" transform="translate(360 -143) rotate(90)"/><rect class="e" x="287" y="94" width="9" height="29" transform="translate(400 -183) rotate(90)"/><rect class="e" x="327" y="94" width="9" height="29" transform="translate(440 -223) rotate(90)"/><rect class="e" x="365" y="94" width="9" height="29" transform="translate(478 -261) rotate(90)"/><rect class="e" x="382" y="129" width="9" height="29" transform="translate(773 287) rotate(180)"/><rect class="e" x="382" y="168" width="9" height="29" transform="translate(773 365) rotate(180)"/><rect class="e" x="382" y="207" width="9" height="29" transform="translate(773 443) rotate(180)"/><rect class="e" x="382" y="246" width="9" height="29" transform="translate(773 521) rotate(180)"/><rect class="e" x="382" y="285" width="9" height="29" transform="translate(773 599) rotate(180)"/><rect class="e" x="382" y="324" width="9" height="29" transform="translate(773 677) rotate(180)"/><rect class="e" x="382" y="363" width="9" height="29" transform="translate(773 755) rotate(180)"/><rect class="e" x="382" y="402" width="9" height="29" transform="translate(773 833) rotate(180)"/><polyline class="f" points="154.937 71.375 118.812 107.5 154.937 143.625"/><polyline class="f" points="422 406.563 385.875 370.438 349.75 406.563"/><polyline class="g" points="20 143 37 136 34.555 130.294 34 129 56 122 37 130 38 135"/><polyline class="g" points="268 92 285 85 282.555 79.294 282 78 304 71 285 79 286 84"/><polyline class="g" points="339 144 356 137 353.555 131.294 353 130 375 123 356 131 357 136"/><polyline class="g" points="351 470 359.028 463 357.873 457.294 357.611 456 368 449 359.028 457 359.5 462"/><polyline class="g" points="423 239 414.972 232 416.127 226.294 416.389 225 406 218 414.972 226 414.5 231"/><polyline class="g" points="368 296 359.972 289 361.127 283.294 361.389 282 351 275 359.972 283 359.5 288"/></svg>