<svg xmlns="http://www.w3.org/2000/svg" xmlns:xlink="http://www.w3.org/1999/xlink" viewBox="0 0 222.66742 222.66699"><defs><style>.a{fill:#cab192;}.b{fill:#747c58;}.c{fill:#ededed;}.d{fill:#cecece;}.e,.f{fill:#c9b092;}.f,.h{stroke:#000;}.f,.h,.p{stroke-miterlimit:10;}.f{stroke-width:0.16938px;}.g{fill:#54593e;}.h,.o,.p{fill:none;}.h,.n,.o,.p{stroke-linecap:round;}.h{stroke-width:0.25381px;}.i{fill:#080808;}.j{clip-path:url(#a);}.k{fill:#271d1d;}.l{clip-path:url(#b);}.m{fill:#707171;}.n{fill:#284220;}.n,.o,.p{stroke:#27421d;stroke-width:0.44565px;}.n,.o{stroke-linejoin:round;}.q{fill:#525222;}</style><clipPath id="a"><polygon class="a" points="120.893 95.06 119.264 87.578 120.1 86.119 122.851 84.027 124.013 78.827 121.268 77.292 117.237 67.302 108.327 65.589 100.561 69.56 100.566 80.438 99.384 81.992 101.234 87.001 102.147 87.567 102.623 90.452 105.219 92.847 106.278 98.883 103.758 103.414 108.728 114.076 116.002 116.039 123.507 104.853 126.875 97.644 120.893 95.06"/></clipPath><clipPath id="b"><polygon class="b" points="134.158 150.957 129.384 152.871 117.14 151.945 102.086 150.775 101.352 149.637 102.086 147.14 94.797 121.564 89.533 113.152 91.894 105.196 102.759 99.914 106.055 96.355 106.268 98.472 106.033 102.152 111.862 112.06 121.041 99.576 120.943 93.619 124.156 96.394 136.426 101.585 137.346 118.74 135.854 124.037 134.158 150.957"/></clipPath></defs><circle class="c" cx="111.33374" cy="111.33325" r="108.83322" transform="translate(-22.60038 194.10974) rotate(-76.71755)"/><path class="d" d="M111.3338,5c58.48346,0,106.33362,47.84961,106.33362,106.333S169.81726,217.667,111.3338,217.667h-.00024C52.8501,217.667,5,169.81641,5,111.333S52.8501,5,111.33356,5h.00024m0-5A111.20461,111.20461,0,0,0,32.7,189.9668,111.20508,111.20508,0,1,0,189.96741,32.69922,110.54476,110.54476,0,0,0,111.3338,0Z"/><polygon class="a" points="151.059 88.966 148.368 85.025 143.759 82.258 140.434 77.412 143.645 74.063 149.059 71.931 151.834 74.138 152.951 82.046 151.059 88.966"/><polyline class="a" points="140.093 76.53 140.925 78.42 151.902 75.429 151.619 68.926 150.671 65.114 149.672 65.343 149.014 71.709 148.873 64.983 148.52 63.017 147.453 63.102 147.142 64.836 146.748 71.79 146.8 64.764 146.307 62.955 145.547 63.108 144.915 64.253 144.622 72.403 144.599 68.799 144.388 64.231 143.406 63.835 142.75 64.798 142.745 69.098 142.082 74.252"/><polygon class="a" points="144.12 74.795 140.727 75.12 138.354 74.295 136.402 74.933 135.905 75.889 138.637 76.539 140.956 78.135 142.887 78.867 144.12 74.795"/><path class="e" d="M30.76655,102.29109a22.62072,22.62072,0,0,0,3.72931,1.4632c.53129-.044,1.21332.8067,1.21332.8067l1.24147,2.38684.42152,1.75852,1.02734.16381,2.03833.12641s2.70205.52455-1.63165,6.20224l-2.52638-.36212-2.763.3616-3.05378-.87633s-3.05662.76587-4.09638-.93125"/><path class="f" d="M32.94579,105.62663l-1.68911-1.02512s-1.88341,1.62569-2.16214,1.44936-2.26774-.25859-1.32279-1.41294a13.12394,13.12394,0,0,1,3.06483-2.32674"/><path class="f" d="M26.40178,113.58228s-2.24357.15858-2.4206-1.39059.6752-1.03441.6752-1.03441.19435.547.63836.60076,1.539.31884,1.539.31884.66693.09313.65282.23646.68094.54659.25962.79049A7.20148,7.20148,0,0,1,26.40178,113.58228Z"/><path class="f" d="M24.45334,111.08s-.61665-1.11595-.40389-1.48066a2.6507,2.6507,0,0,1,1.02623-.688L26.157,110.0404s1.708.32639,2.067.33115,1.09284.08435,1.04943.23565.31841.14608.28517.76421a1.53134,1.53134,0,0,1-.54422,1.01748l-1.52778-.07555L24.936,111.5814Z"/><path class="f" d="M25.07568,108.91132s-.6197-1.29137-.43509-1.40215.64775-1.22243,1.12108-.98834a7.0983,7.0983,0,0,1,1.37881,1.47646,11.18538,11.18538,0,0,0,1.71453.42651c.05934-.08122.99227.56038.99227.56038l.15585.94814-.488.7115-1.29116-.27227-2.067-.33115Z"/><path class="f" d="M25.92959,106.5635s-.72585-1.08706-.0373-1.741,2.16064-1.5088,2.55939-1.39437a3.06776,3.06776,0,0,0,.875.08733l-1.818,1.31238s-.21276.36471.02028.43159.94811.33757.94811.33757l.207.15766.99843.90879s.80086.9831.59679,1.31755-.30342,1.1913-.96229.6578a3.11984,3.11984,0,0,0-1.8497-.45285Z"/><polygon class="b" points="120.996 105.854 124.155 103.693 129.414 99.892 163.726 105.999 167.86 110.082 166.006 115.347 134.456 118.545 122.403 110.63 120.996 105.854"/><polygon class="b" points="146.04 83.914 148.066 89.733 147.432 92.665 153.181 109.175 160.611 116.622 167.173 112.976 167.911 110.846 167.98 108.574 158.695 87.569 155.462 86.234 153.722 81.238 148.025 84.313 146.04 83.914"/><path d="M156.16515,104.76227a14.10316,14.10316,0,0,0-1.50585,3.49422.127.127,0,0,0,.24474.06747,13.84432,13.84432,0,0,1,1.48026-3.43359.127.127,0,0,0-.21915-.1281Z"/><path d="M150.97626,89.07508a11.38071,11.38071,0,0,0-.47458-2.38567,9.14534,9.14534,0,0,0-.45823-1.31355,1.49012,1.49012,0,0,0-.54979-.73841c-.24335-.12861-.45988.24066-.216.36955.19247.10171.33432.4378.42878.6586a9.45518,9.45518,0,0,1,.40913,1.23383,10.69272,10.69272,0,0,1,.43272,2.17565c.015.27391.44312.27566.428,0Z"/><polygon class="g" points="139.732 114.967 141.159 118.3 164.496 115.415 161.963 111.259 160.913 110.353 162.335 114.569 155.871 105.994 158.66 114.445 152.224 110.88 153.891 115.54 144.435 116.48 139.732 114.967"/><path d="M156.14782,104.82632a30.89516,30.89516,0,0,0,.67147,4.05117,10.6337,10.6337,0,0,0,1.43145,3.76189c.09412.13179.31435.00518.21915-.1281A10.4467,10.4467,0,0,1,157.064,108.81a30.38243,30.38243,0,0,1-.6624-3.9837c-.01576-.16109-.26972-.16272-.25381,0Z"/><path class="h" d="M151.54812,109.22808s2.592,4.97023,4.94,6.7781"/><polygon class="b" points="106.674 107.099 103.125 105.663 97.176 103.075 64.962 116.374 61.797 121.246 64.733 125.994 96.237 122.374 106.32 112.066 106.674 107.099"/><path d="M133.34524,130.21354a6.85568,6.85568,0,0,0-2.45385-2.98855,9.486,9.486,0,0,0-3.736-1.41581c-.26937-.04683-.385.36553-.11377.4127a9.26572,9.26572,0,0,1,3.56653,1.32749,6.46818,6.46818,0,0,1,2.36749,2.88018c.10785.25251.47664.03471.36955-.216Z"/><path class="i" d="M130.6168,128.07316l-2.64348,2.83132c-.18782.20117.11418.50447.30263.30263l2.64348-2.83132c.18782-.20116-.11418-.50447-.30263-.30263Z"/><path class="i" d="M133.20506,130.21354a2.20369,2.20369,0,0,0-.90615-.84228,2.96289,2.96289,0,0,0-1.08714-.23821,4.82653,4.82653,0,0,0-1.14689.08857,1.61442,1.61442,0,0,0-.92219.4304c-.17862.20791.12278.512.30263.30263a1.29956,1.29956,0,0,1,.7563-.32488,4.38491,4.38491,0,0,1,.97054-.07026,2.61818,2.61818,0,0,1,.88065.169,1.7354,1.7354,0,0,1,.7827.701c.15046.22937.5212.01519.36955-.216Z"/><path class="i" d="M132.23705,129.013a1.41939,1.41939,0,0,0-.80356-.14636c-.13961-.0004-.2798.00146-.419-.01163l-.04388-.00471c-.02753-.00251.03861.00753-.00246-.00086-.02924-.006-.05843-.011-.08729-.0188l-.037-.011c-.02717-.009-.03336-.01461-.004.00029a.591.591,0,0,1-.07229-.04139l-.216.36955a.82889.82889,0,0,0,.67116.203.21779.21779,0,0,0,.12789-.31435l-.3522-.7753-.33609.25932.81672.76285a.214.214,0,0,0,.30263-.30263l-.81672-.76285a.215.215,0,0,0-.281-.01673.2181.2181,0,0,0-.05511.276l.3522.7753.12789-.31435c-.05768.0174.03511.00267-.02436.00567-.03736.00189.00523.004-.01615-.00168-.01774-.00475-.03538-.00945-.05262-.01582.02778.01025-.03289-.01611-.03273-.016-.07489-.0387-.14439-.087-.21552-.132a.214.214,0,0,0-.216.36955,1.41943,1.41943,0,0,0,.80355.14636c.13961.0004.2798-.00146.419.01163l.04388.00471c.02754.0025-.03861-.00753.00247.00086.02923.006.05843.011.08728.0188l.037.011c.02717.009.03336.01461.004-.00029a.59061.59061,0,0,1,.0723.04139.21593.21593,0,0,0,.29278-.07677.21839.21839,0,0,0-.07677-.29278Z"/><polygon class="b" points="37.936 107.972 44.013 108.99 46.796 107.871 64.039 110.762 72.63 116.833 70.139 123.915 68.163 125 65.936 125.45 43.669 119.831 41.809 116.869 36.591 115.994 38.664 109.862 37.936 107.972"/><path d="M71.901,113.72585A13.81784,13.81784,0,0,1,74.08,116.7649c.07642.14443.29557.01632.21915-.1281a14.0692,14.0692,0,0,0-2.21876-3.09042c-.11252-.11886-.29178.06084-.17946.17947Z"/><path d="M47.47468,120.12313a10.8906,10.8906,0,0,1-2.16532-.4822,9.19741,9.19741,0,0,1-1.22394-.43757c-.22043-.10118-.54858-.24791-.6472-.445-.12327-.24634-.49257-.02985-.36955.216a1.496,1.496,0,0,0,.72775.56437,9.16042,9.16042,0,0,0,1.30353.48616,11.36929,11.36929,0,0,0,2.37473.5262c.27466.02121.27329-.40688,0-.428Z"/><polygon class="a" points="120.893 95.06 119.264 87.578 120.1 86.119 122.851 84.027 124.013 78.827 121.268 77.292 117.237 67.302 108.327 65.589 100.561 69.56 100.566 80.438 99.384 81.992 101.234 87.001 102.147 87.567 102.623 90.452 105.219 92.847 106.278 98.883 103.758 103.414 108.728 114.076 116.002 116.039 123.507 104.853 126.875 97.644 120.893 95.06"/><g class="j"><polygon class="k" points="119.167 81.464 123.821 71.884 91.931 42.552 100.83 81.68 101.286 70.618 106.999 70.992 112.802 69.127 113.608 71.402 116.841 72.978 119.167 81.464"/></g><polygon points="114.099 74.631 113.887 73.237 110.125 73.232 109.513 74.327 114.099 74.631"/><polygon points="105.097 75.41 104.661 74.031 101.62 75.471 101.307 76.609 105.097 75.41"/><path d="M112.43138,85.5182a8.64586,8.64586,0,0,1-5.08022,1.63706.20331.20331,0,0,0,0,.40637,9.01728,9.01728,0,0,0,5.28532-1.69255c.2102-.15154.00757-.5042-.2051-.35088Z"/><path d="M117.15752,90.0543l-4.60912,3.97491-4.062,1.19481-3.26714-2.37713,3.046,5.09677a2.87746,2.87746,0,0,0,1.51289,1.25159h0a2.87757,2.87757,0,0,0,1.40043.13487l.14067-.0214a2.87748,2.87748,0,0,0,1.73069-.94752l.91764-1.04638a2.87761,2.87761,0,0,0,.53775-.90548l1.70148-4.63415Z"/><path d="M116.77917,90.362c-.81883.91521-1.68343,1.79074-2.52327,2.68658-.17251.184-.34574.36754-.51392.55552-.11674.13049.07554.324.19288.19288.81883-.91521,1.68343-1.79074,2.52328-2.68658.1725-.184.34573-.36754.51391-.55552.11674-.13049-.07554-.324-.19288-.19288Z"/><path d="M103.8967,76.72484a2.99615,2.99615,0,0,1,.31917,2.0775l.3396-.08966a1.68442,1.68442,0,0,1-.544-.998,4.36435,4.36435,0,0,1-.07718-.58462c-.00758-.10345-.013-.207-.01754-.31064-.00162-.03741.00182-.07726-.0034-.114-.00121-.00853.00861-.02163.00716-.02979-.01569-.08828-.27.07641-.2119-.08781l.05225-.08965.01951-.016.10255-.02774-.01761.00092c-.26018.01353-.26179.42,0,.40637.44-.02289.20648-.70913-.164-.51585a.43415.43415,0,0,0-.19311.42248c.00335.16117.015.323.02962.48356A2.456,2.456,0,0,0,104.26812,79a.20566.20566,0,0,0,.3396-.08965,3.43359,3.43359,0,0,0-.36014-2.39063.20333.20333,0,0,0-.35088.2051Z"/><path d="M111.88539,75.50961a2.99615,2.99615,0,0,1,.31917,2.0775l.3396-.08966a1.68453,1.68453,0,0,1-.544-.998,4.36591,4.36591,0,0,1-.07718-.58463c-.00758-.10344-.01305-.207-.01754-.31064-.00162-.0374.00182-.07725-.0034-.114-.00121-.00853.00861-.02163.00716-.02979-.01569-.08828-.27.07641-.2119-.08781l.05225-.08965.01952-.016.10255-.02774-.01761.00092c-.26019.01353-.26179.42,0,.40637.44-.02289.20647-.70913-.164-.51585a.43415.43415,0,0,0-.19311.42248c.00336.16117.015.323.02963.48355a2.45594,2.45594,0,0,0,.73028,1.74812.20566.20566,0,0,0,.3396-.08966,3.43368,3.43368,0,0,0-.36014-2.39062.20334.20334,0,0,0-.35089.2051Z"/><path d="M122.013,80.83969l-1.31727.94228a.2089.2089,0,0,0-.07289.278.20482.20482,0,0,0,.278.0729l1.31727-.94228a.20889.20889,0,0,0,.07289-.278.20482.20482,0,0,0-.278-.0729Z"/><path d="M121.19544,80.27127l-.63565,1.75255a.20506.20506,0,0,0,.14191.24994.2074.2074,0,0,0,.24994-.14191l.63566-1.75255a.20506.20506,0,0,0-.14192-.24994.20741.20741,0,0,0-.24994.14191Z"/><path d="M123.29223,79.18032a3.92869,3.92869,0,0,0-2.11993,1.11674c-.18334.18679.10378.47436.28735.28734a3.56182,3.56182,0,0,1,1.94061-1.01223.20486.20486,0,0,0,.14191-.24994.20783.20783,0,0,0-.24994-.14191Z"/><path d="M134.36112,118.39247a9.51882,9.51882,0,0,0-2.6932-2.45539,4.81219,4.81219,0,0,0-3.0248-.56814c-.2396.03227-.13756.396.10033.364,2.27475-.3064,4.026,1.27394,5.35079,2.92647.15192.1895.41745-.07907.26688-.26689Z"/><path class="i" d="M131.71052,116.24249c-.33085,1.2136-.35752,2.48727-.68837,3.70087a.18888.18888,0,0,0,.364.10034c.33085-1.2136.35752-2.48728.68837-3.70087a.18888.18888,0,0,0-.364-.10034Z"/><path class="i" d="M134.36112,118.39247a2.93326,2.93326,0,0,0-2.10107-.70728.7258.7258,0,0,0-.594.40515,4.26414,4.26414,0,0,0-.38647.90473,8.76491,8.76491,0,0,0-.25746.94829c-.04943.237.31431.33835.364.10034a8.76032,8.76032,0,0,1,.25746-.94829,2.83809,2.83809,0,0,1,.4272-.92885.29851.29851,0,0,1,.10523-.09265c-.03452.01447.04165-.007.0469-.00785a.94926.94926,0,0,1,.09943-.00744,2.367,2.367,0,0,1,.574.04916,2.5054,2.5054,0,0,1,1.19791.55158c.17944.163.44714-.10314.26688-.26689Z"/><path class="i" d="M133.07409,117.35075a.95094.95094,0,0,0-.68234.00782c-.10295.02786-.20568.05838-.311.07628-.01018.00173-.05656.00459-.00607.00137l-.03428.00323a.62369.62369,0,0,1-.07273.00135l-.01277-.00072q-.02529-.00248.00008.00077.02511.00378.00056-.00025l-.012-.00244c-.01149-.00256-.02334-.00759-.03484-.00961-.03477-.00614.03531.01735.00132.00048l-.1905.3259c.18447.08087.42787.21237.61835.0701a.19187.19187,0,0,0,.06771-.25821l-.47045-.67439-.25821.2582.81538.56621a.18973.18973,0,0,0,.2582-.0677.19355.19355,0,0,0-.0677-.2582l-.81538-.56621a.19.19,0,0,0-.2582.2582l.47045.67439.0677-.2582c-.01167.00872-.04481.02078-.00989.01-.03176.00983.01432.00487-.00455.00014-.01474-.00369-.03511-.00584-.00874.00038-.01776-.00419-.03514-.00832-.05259-.01374-.015-.00466-.02977-.01-.04444-.01561-.0086-.00326-.0401-.01652-.01678-.00645-.03363-.01452-.06681-.03007-.10036-.04478a.19379.19379,0,0,0-.25821.0677.19129.19129,0,0,0,.06771.2582.95089.95089,0,0,0,.68234-.00781c.103-.02786.20568-.05838.311-.07628.01018-.00173.05656-.00459.00607-.00137l.03428-.00323a.62369.62369,0,0,1,.07273-.00135l.01277.00072q.02529.00247-.00008-.00077-.02511-.00378-.00056.00025l.012.00244c.01149.00256.02334.00758.03484.00961.03477.00614-.03531-.01735-.00132-.00048a.18875.18875,0,1,0,.1905-.32591Z"/><path d="M112.23228,85.842a3.88968,3.88968,0,0,1-1.544,2.17945,6.02848,6.02848,0,0,1-2.53668,1.2291c-.26916.05772-.15525.47039.11378.41269a6.48393,6.48393,0,0,0,2.72553-1.33916,6.14357,6.14357,0,0,0,.96064-.97636,3.02582,3.02582,0,0,0,.69338-1.39195c.03888-.2694-.37344-.38575-.4127-.11377Z"/><polygon class="b" points="134.158 150.957 129.384 152.871 117.14 151.945 102.086 150.775 101.352 149.637 102.086 147.14 94.797 121.564 89.533 113.152 91.894 105.196 102.759 99.914 106.055 96.355 106.268 98.472 106.033 102.152 111.862 112.06 121.041 99.576 120.943 93.619 124.156 96.394 136.426 101.585 137.346 118.74 135.854 124.037 134.158 150.957"/><g class="l"><polygon class="g" points="133.16 116.599 137.042 119.406 135.854 123.621 134.667 140.143 128.023 126.89 133.16 116.599"/></g><path d="M100.83178,108.84925a4.75484,4.75484,0,0,1,2.0437-2.65107,9.24711,9.24711,0,0,1,2.561-.87348l-.24166-.09834c.176.369.33143.7491.47591,1.13139.11455.3031.22221.61.30631.9231.0622.23157.05332.48753.11337.71085.11966.445.739.81444,1.06848,1.09519.75149.64025,1.51313,1.26863,2.2562,1.91872.3281.287.65577.57632.96568.88311a4.17446,4.17446,0,0,1,.30147.31655c.01792.02193.07554.12042.10185.13041.16254.06173-.27418.14969.09757-.10532-.22572.15484-.01191.5259.216.36955.65234-.4475-1.68127-2.15943-1.959-2.39664-.63166-.53955-1.272-1.06887-1.90152-1.611-.20347-.17522-.40988-.34942-.60169-.53756-.18359-.18008-.10581-.18856-.15161-.46674a9.97011,9.97011,0,0,0-.91952-2.57766.21739.21739,0,0,0-.24167-.09835,8.76463,8.76463,0,0,0-2.88,1.04341,5.34522,5.34522,0,0,0-2.0236,2.78007c-.09591.25858.31759.37019.41269.11377Z"/><path d="M105.92482,107.0953a13.78536,13.78536,0,0,0-2.64513.31,17.58459,17.58459,0,0,0-2.56019.83189c-.25327.0999-.14294.514.11378.4127a17.85154,17.85154,0,0,1,2.48353-.81428,13.12289,13.12289,0,0,1,2.608-.31228c.27481-.008.276-.436,0-.428Z"/><path d="M104.19361,98.636a11.47361,11.47361,0,0,0-3.06754,5.87989,22.23609,22.23609,0,0,0-.65851,3.87628c-.01957.27484.4085.27361.428,0a21.54909,21.54909,0,0,1,.6169-3.658,11.17986,11.17986,0,0,1,2.9838-5.79558c.20675-.18281-.09687-.48457-.30263-.30263Z"/><path class="i" d="M91.49161,117.23567a9.44876,9.44876,0,0,1,3.43876,6.93471c.00714.24121.38285.24223.37568,0A9.815,9.815,0,0,0,91.75726,116.97c-.18388-.1547-.451.10975-.26565.26565Z"/><path d="M130.05285,114.47743q-6.98573.9673-14.01667,1.52512c-.27278.02138-.27509.44955,0,.428q7.08832-.5558,14.13044-1.54041c.27164-.03761.156-.45-.11377-.41269Z"/><path d="M115.85377,116.31354c-.692,1.41-.55413,2.99744-.89862,4.49455-.06169.26807.35085.38251.41269.11378.334-1.45141.18577-3.0278.85548-4.39232.1209-.24635-.24808-.46351-.36955-.216Z"/><path d="M115.34044,121.441a89.96847,89.96847,0,0,0,13.34762-.35721c.27131-.02782.27418-.45609,0-.428a89.96847,89.96847,0,0,1-13.34762.35721c-.27535-.01275-.27471.41526,0,.428Z"/><path d="M130.026,114.81819a14.85059,14.85059,0,0,1-.07987,5.68545c-.0563.26873.35616.38362.41269.11378a15.41377,15.41377,0,0,0,.07988-5.913c-.04895-.27061-.46149-.156-.4127.11378Z"/><path d="M130.15643,120.4346l-1.3773.2941a.21552.21552,0,0,0-.14946.26323.219.219,0,0,0,.26323.14946l1.3773-.2941a.21552.21552,0,0,0,.14946-.26323.219.219,0,0,0-.26323-.14946Z"/><path class="i" d="M111.01517,150.94242a15.31518,15.31518,0,0,1,.94685-4.08625,18.58961,18.58961,0,0,0,.57551-4.31351c.11837-2.98778.1166-5.98075.10008-8.97034-.034-6.15-.20515-12.29766-.29151-18.44689a.21412.21412,0,0,0-.428,0c.08636,6.14923.25754,12.29686.29151,18.44689.01652,2.98958.01828,5.98256-.10008,8.97034a18.483,18.483,0,0,1-.74083,4.8067,12.15058,12.15058,0,0,0-.78153,3.59306.21412.21412,0,0,0,.428,0Z"/><path d="M109.0898,116.93518a7.93064,7.93064,0,0,1-1.10061,5.06445c-.133.24139.23644.45755.36955.216a8.39372,8.39372,0,0,0,1.14376-5.39424c-.04243-.27131-.4549-.15611-.4127.11378Z"/><path d="M108.86348,116.78682a43.02673,43.02673,0,0,0-11.75065,1.18324c-.26755.06486-.15425.47767.11377.41269a42.58964,42.58964,0,0,1,11.63688-1.168c.27545.01032.275-.41768,0-.428Z"/><path d="M97.17825,118.14264a9.53306,9.53306,0,0,1-.53306,3.8497c-.09263.25993.32074.3718.41269.11378a9.85173,9.85173,0,0,0,.54835-3.96348c-.01841-.27335-.44653-.2754-.428,0Z"/><path d="M108.33978,121.776a11.232,11.232,0,0,1-1.52153.15077c-.94628.07274-1.8934.13489-2.84044.19681-2.0838.13623-4.16881.25834-6.25117.41554a12.98228,12.98228,0,0,0-1.77733.17687c-.269.05873-.15514.47141.11377.4127a11.23212,11.23212,0,0,1,1.52153-.15077c.94629-.07274,1.8934-.13489,2.84045-.19681,2.0838-.13623,4.16881-.25834,6.25117-.41554a12.98228,12.98228,0,0,0,1.77733-.17687c.269-.05873.15514-.47141-.11378-.4127Z"/><line class="m" x1="106.25537" y1="107.33656" x2="103.3492" y2="107.86046"/><path d="M105.56359,105.17017a5.25915,5.25915,0,0,0-4.64793,2.64768l.04842.54946,4.57029-1.17593.612.16546Z"/><path d="M124.91542,104.79973c-.98716.04237-1.96988.16047-2.952.26376-.48627.05114-.97278.101-1.46026.13933-.22754.01787-.45545.03407-.68352.04363-.17208.00721-.24656-.04546-.18595-.23085.04859-.14866.09974-.29654.1496-.44478l-.42033-.05688a.95624.95624,0,0,0,.283.83991.57007.57007,0,0,0,.7856-.12158.55009.55009,0,0,0-.16425-.771c-.27162-.16281-.53478.107-.51676.38531.04434.68494,1.01417.52852,1.44641.42478.3269-.07846.64725-.18177.97367-.26211a1.7487,1.7487,0,0,1,.83334-.07186.21418.21418,0,0,0,.11377-.41269,9.1756,9.1756,0,0,0-2.51217-.07058c-.27541-.01133-.27488.41667,0,.428a8.83608,8.83608,0,0,1,2.3984.05529l.11377-.41269a2.80494,2.80494,0,0,0-1.40891.16461c-.25183.07-.50284.14529-.75865.19978a2.16794,2.16794,0,0,1-.37236.0536.97052.97052,0,0,1-.16067-.00311c-.02722-.00358-.29347-.09875-.21177-.13707h-.216c.23212.10611-.03045.35677-.15174.12114a.87025.87025,0,0,1-.04667-.40969.215.215,0,0,0-.42034-.05689c-.14408.42836-.45938,1.16967.26343,1.21958a10.43908,10.43908,0,0,0,1.69554-.12018c1.19391-.11772,2.38647-.27726,3.58584-.32874.27437-.01178.27585-.43982,0-.428Z"/><path class="i" d="M88.865,114.01731c1.62632,1.9023,3.26871,3.79079,4.895,5.69309.17926.20968.48078-.09425.30263-.30263-1.62631-1.90229-3.2687-3.79079-4.895-5.69309-.17925-.20967-.48077.09426-.30263.30263Z"/><path class="i" d="M94.66879,121.80826c-.77718-1.621-1.931-3.01675-2.76854-4.60047-.12882-.24357-.49836-.02755-.36955.216.83758,1.58372,1.99136,2.97949,2.76854,4.60047.119.24826.48817.03141.36955-.216Z"/><path d="M136.888,118.9485c-1.676-1.53607-3.76-2.835-6.10614-2.147a.18888.18888,0,0,0,.10034.364c2.21028-.64809,4.16423.6068,5.73892,2.05.17879.16386.44642-.10234.26688-.26689Z"/><path class="i" d="M133.91809,117.22989c-.14211,1.24983.0247,2.51269-.11741,3.76252-.02739.24093.35027.239.37744,0,.1421-1.24983-.0247-2.51269.1174-3.76252.0274-.24093-.35026-.239-.37743,0Z"/><path class="i" d="M136.84977,118.919a3.1074,3.1074,0,0,0-2.23727-.35161.77436.77436,0,0,0-.48179.541,4.49353,4.49353,0,0,0-.22387.92384,9.24821,9.24821,0,0,0-.10616.96019c-.01279.24273.36468.242.37744,0a6.925,6.925,0,0,1,.24425-1.56767,1.77917,1.77917,0,0,1,.11952-.32039c.01205-.02328.025-.046.03859-.06838.00508-.00841.03621-.0519.02307-.0358a.32271.32271,0,0,1,.037-.03955c.01828-.01589-.00975-.00077.02693-.01733-.03961.01788.01863-.00456.03223-.00829.0317-.00869.06336-.017.09547-.024a1.66644,1.66644,0,0,1,.21684-.03215,3.03609,3.03609,0,0,1,.49595.00058,2.42951,2.42951,0,0,1,1.15131.36548c.203.13462.39224-.19213.1905-.32591Z"/><path class="i" d="M135.41641,118.08951a.97186.97186,0,0,0-.66938.12606c-.05028.02224-.1003.04507-.15088.06664-.02783.01188.041-.01577-.00729.00282l-.0371.01456c-.02418.0092-.04855.0179-.07322.02574-.02357.00749-.04737.01425-.07148.0198l-.035.0072c-.03532.00772.02491.00048.00232-.00034a.558.558,0,0,0-.066.00093c-.0206.00194.03729.012.0059.00089-.01172-.00416-.0246-.0061-.03652-.00988l-.10034.364c.20387.05429.4469.12963.61715-.04434a.19223.19223,0,0,0,0-.26689l-.56756-.595-.22869.29639.892.4356a.19363.19363,0,0,0,.2582-.06771.19045.19045,0,0,0-.0677-.2582l-.892-.43559a.189.189,0,0,0-.22869.29639l.56756.595v-.26689c-.0352.036.022-.02887-.00967.00654q.02972-.01246.00959-.00672-.02051.00455.01146-.00071c-.01383-.00005-.02755.00089-.04143.00028l-.02575-.00192q.027.00382.00611.00033c-.0678-.01258-.13369-.0328-.20024-.05053a.18877.18877,0,1,0-.10034.364.97194.97194,0,0,0,.66939-.12606c.05028-.02224.1003-.04508.15087-.06665.02784-.01187-.041.01577.00729-.00281l.03711-.01456c.02418-.0092.04855-.01791.07321-.02574.02358-.00749.04737-.01425.07148-.0198l.035-.0072c.03533-.00772-.0249-.00048-.00231.00034a.56026.56026,0,0,0,.066-.00094c.0206-.00193-.0373-.012-.00591-.00088.01172.00415.0246.0061.03653.00987a.18876.18876,0,0,0,.10033-.364Z"/><path d="M106.19466,76.97035a3.22719,3.22719,0,0,1,.04248,2.54512,23.16683,23.16683,0,0,1-.85853,2.51239c-.07609.19789.24206.28354.31743.08751a20.68086,20.68086,0,0,0,.92079-2.76732,3.246,3.246,0,0,0-.13792-2.54385c-.12206-.17095-.40769-.00674-.28425.16615Z"/><path d="M105.65421,81.311a1.33829,1.33829,0,0,0-.29778,1.26737,1.48016,1.48016,0,0,0,.99519,1.10109,2.82177,2.82177,0,0,0,2.88656-.27636,2.17655,2.17655,0,0,0,.719-.66119.98186.98186,0,0,0,.061-.90153c-.10188-.25065-.25958-.426-.5491-.33568-.20157.06291-.11553.3808.08751.31744.12111-.0378.15237.11066.1851.21028a.61154.61154,0,0,1-.02112.44758,1.69293,1.69293,0,0,1-.71044.6791,2.69093,2.69093,0,0,1-.89526.40257,2.75825,2.75825,0,0,1-1.02619-.02367c-.48588-.0859-1.11629-.25944-1.33146-.75853a1.143,1.143,0,0,1,.12975-1.23569c.1634-.13512-.07062-.36687-.23278-.23278Z"/><path d="M97.23251,122.674a9.16158,9.16158,0,0,1,.1775,3.08737c-.0497.46069-.108.92018-.13716,1.38284a4.57717,4.57717,0,0,0,.00928,1.51805c.28017.8954,1.09167.91249,1.86156,1.023,1.19661.17168,2.39162.33259,3.59493.45259a23.97506,23.97506,0,0,0,4.14762.12193,1.39288,1.39288,0,0,0,1.39576-.97,29.96506,29.96506,0,0,0,.58881-4.92521,41.12591,41.12591,0,0,1,.678-5.78072c.05564-.23835-.31134-.34008-.3671-.1012-.69675,2.98483-.637,6.1416-1.01834,9.17477-.07149.56866-.05967,1.50627-.49317,1.92592-.40091.38809-1.063.32136-1.58941.33442-.65344.01621-1.30712-.004-1.95933-.04508-1.26276-.07958-2.52829-.21808-3.78128-.39319-.46073-.06438-.92008-.13821-1.38094-.2017-.5079-.07-1.05759-.11923-1.28481-.66425a4.48507,4.48507,0,0,1,.00435-1.8037c.036-.42108.09329-.8399.13405-1.26048a9.19282,9.19282,0,0,0-.2132-2.97654c-.0545-.23876-.42165-.1377-.36711.10121Z"/><path d="M116.68526,121.3351q.04331,1.81617.09383,3.63215.04023,1.45986.08646,2.91956.02114.65216.04511,1.30421a1.69006,1.69006,0,0,0,.28713,1.13535c.15334.19108.42119-.07982.2692-.2692-.26515-.3304-.17866-.938-.19288-1.34277q-.0222-.63183-.04174-1.26375-.04407-1.40629-.08159-2.81278-.04494-1.65132-.08482-3.30277a.19047.19047,0,0,0-.3807,0Z"/><polygon points="105.963 106.802 104.435 106.252 102.809 106.512 101.995 107.123 101.171 108.102 101.787 108.561 106.412 106.902 106.412 106.902 105.963 106.802"/><path d="M92.35672,109.49519a19.78875,19.78875,0,0,0,3.5311-.61607,18.5226,18.5226,0,0,1,5.89966-.12737c.24228.03132.24-.34968,0-.38071a18.79222,18.79222,0,0,0-5.79617.10267,21.60012,21.60012,0,0,1-3.63459.64077.19047.19047,0,0,0,0,.38071Z"/><path d="M92.47909,109.33857c.33331-.89662.69894-1.78213,1.05231-2.67094q.3342-.84057.66932-1.68077a5.0808,5.0808,0,0,0,.38649-.96855c.01212-.078-.10921.01474-.01344.021a1.52912,1.52912,0,0,0,.42857-.15007l1.47231-.51557,1.57817-.55263c.16384-.05737.33736-.10417.49639-.17382a.6257.6257,0,0,1,.11092-.03884c.07981-.01736-.0912-.0064-.00664-.0041a10.5774,10.5774,0,0,1,1.50288.27016l1.3548.24354c.15971.02871.22823-.21584.06748-.24474-.91392-.16428-1.82682-.35424-2.74482-.49341a.89836.89836,0,0,0-.51385.07929l-1.48529.52011-1.65032.5779a2.71058,2.71058,0,0,0-.7644.26985c-.15044.12943-.21214.46109-.282.63623q-.30159.75583-.6026,1.5119c-.43665,1.09684-.88961,2.18933-1.301,3.296-.057.1533.18823.21948.24474.06747Z"/><path d="M94.81358,105.301a.96212.96212,0,0,0-.23022.78737,1.44713,1.44713,0,0,0,.31362.81481.192.192,0,0,0,.2692,0,.19425.19425,0,0,0,0-.2692c-.00587-.00685-.03182-.04367-.0055-.00527l-.021-.02972c-.01552-.023-.0299-.04668-.0433-.07093q-.01909-.03455-.03561-.07044c-.002-.00432-.0193-.04516-.00988-.022.00949.02337-.007-.01888-.0086-.02328a1.44381,1.44381,0,0,1-.05338-.1789q-.00969-.042-.017-.08462c-.00073-.00428-.00853-.06073-.00326-.01773l-.00461-.04277a1.306,1.306,0,0,1-.0049-.17746c.00117-.02732.004-.05438.00644-.0816-.0041.04606.00135-.00543.00265-.01249l.00794-.03822a.76538.76538,0,0,1,.02295-.08024l.01031-.02767c-.01568.04389.00045.001.00466-.00714.01075-.02091.02346-.04022.036-.06.023-.03629-.02651.025.00416-.00439l.0285-.0289a.19036.19036,0,0,0-.2692-.26921Z"/><path d="M126.73073,103.11861c1.36325.34506,2.76.55978,4.14862.77371.98738.15211,2.01235.23538,2.9836.47553.23784.0588.3393-.30824.10121-.36711-.97126-.24015-1.99622-.32342-2.9836-.47553-1.3886-.21393-2.78537-.42865-4.14862-.7737a.19051.19051,0,0,0-.10121.3671Z"/><path d="M125.34219,98.053c1.70244.46342,3.38721,1.00121,5.06724,1.539a39.58222,39.58222,0,0,1,5.05508,1.78868c.2199.10535.41326-.2228.19215-.32873a39.53665,39.53665,0,0,0-5.02634-1.7887c-1.71948-.55171-3.44412-1.10294-5.18692-1.57735a.19052.19052,0,0,0-.10121.36711Z"/><path d="M126.45509,101.54459h6.44375a.19047.19047,0,0,0,0-.38071h-6.44375a.19047.19047,0,0,0,0,.38071Z"/><ellipse class="n" cx="98.68115" cy="113.81037" rx="0.56104" ry="1.04767" transform="translate(-50.54667 93.27198) rotate(-41.23609)"/><ellipse class="n" cx="98.62781" cy="115.26517" rx="0.56104" ry="1.04767" transform="translate(-51.51885 93.59762) rotate(-41.23609)"/><ellipse class="n" cx="98.61259" cy="116.82005" rx="0.56104" ry="1.04767" transform="translate(-52.54755 93.97319) rotate(-41.23609)"/><ellipse class="n" cx="98.60934" cy="118.52526" rx="0.56104" ry="1.04767" transform="translate(-53.67237 94.39394) rotate(-41.23609)"/><ellipse class="n" cx="98.74401" cy="120.19414" rx="0.56104" ry="1.04767" transform="translate(-54.73904 94.89659) rotate(-41.23609)"/><ellipse class="n" cx="98.78419" cy="121.78199" rx="0.56104" ry="1.04767" transform="translate(-55.77572 95.31687) rotate(-41.23609)"/><ellipse class="n" cx="98.66202" cy="123.46844" rx="0.56104" ry="1.04767" transform="translate(-56.91767 95.65458) rotate(-41.23609)"/><ellipse class="n" cx="98.64968" cy="125.17557" rx="0.56104" ry="1.04767" transform="translate(-58.046 96.06981) rotate(-41.23609)"/><ellipse class="n" cx="98.37286" cy="126.97465" rx="0.56104" ry="1.04767" transform="translate(-59.30054 96.33351) rotate(-41.23609)"/><ellipse class="n" cx="98.18113" cy="128.6072" rx="0.56104" ry="1.04767" transform="translate(-60.42421 96.61201) rotate(-41.23609)"/><ellipse class="n" cx="97.86465" cy="130.344" rx="0.56104" ry="1.04767" transform="translate(-61.64753 96.83412) rotate(-41.23609)"/><path class="n" d="M96.75847,131.28848c-.13194.30508.10727.85351.5343,1.225s.88015.42524,1.01209.12016-.36712-1.04142-.79415-1.41286S96.8904,130.9834,96.75847,131.28848Z"/><ellipse class="n" cx="96.89882" cy="133.38525" rx="0.56104" ry="1.04767" transform="translate(-63.89174 96.95171) rotate(-41.23609)"/><ellipse class="n" cx="96.25445" cy="134.80204" rx="0.56104" ry="1.04767" transform="translate(-64.98544 96.87833) rotate(-41.23609)"/><ellipse class="n" cx="95.65614" cy="135.96762" rx="0.56104" ry="1.04767" transform="translate(-65.90213 96.77301) rotate(-41.23609)"/><path class="o" d="M99.13482,113.09253l-.46936-5.58845-.61311.08521c-.17133.03785-.31245.29646-.30174.553l.69686,4.46927Z"/><path class="p" d="M98.87075,107.507s-2.51294-2.297-2.62587-2.3083"/><path class="p" d="M98.87075,107.507s-.61943-2.43087-1.74071-2.63411"/><path d="M126.24,109.02371c.50232-.18956,1.02-.32221,1.53391-.47475a6.54939,6.54939,0,0,0,1.46876-.627.1905.1905,0,0,0-.19215-.32873,6.208,6.208,0,0,1-1.41838.60055c-.50088.1469-1.0043.27823-1.49335.46278-.22707.08569-.12866.45386.10121.36711Z"/><polygon class="q" points="128.814 99.001 133.38 100.085 136.608 101.642 135.327 100.107 130.749 98.467 128.232 98.826 128.814 99.001"/><polygon class="q" points="123.025 105.465 124.915 105.351 127.59 106.598 127.099 102.735 131.134 103.676 129.514 108.07 128.042 113.708 125.589 112.834 124.143 111.675 122.854 109.891 122.616 107.517 123.025 105.465"/><path d="M132.12037,104.11821c-1.5399,2.40576-2.58141,4.10451-2.51984,6.96024a11.08249,11.08249,0,0,1-.018,2.28457c-.14631.48529-1.94707.70384-1.98075-.018-.1411-3.02385,1.03594-7.80973,3.09144-10.032"/><polygon class="g" points="90.319 120.007 89.637 123.568 66.223 125.737 67.808 121.136 68.641 120.026 68.153 124.449 72.635 114.691 71.716 123.542 77.242 118.684 76.609 123.593 86.048 122.49 90.319 120.007"/><path class="i" d="M93.65936,119.49533c.73989,2.11376,1.4006,4.25457,2.14049,6.36833l.39112-.1649c-1.71656-2.99322-3.08928-6.17572-4.80584-9.16894a.21415.21415,0,0,0-.36954.216c1.71655,2.99322,3.08927,6.17572,4.80583,9.16894.11762.20509.473.06907.39112-.16489-.73989-2.11376-1.4006-4.25457-2.14049-6.36832-.09041-.25828-.504-.14715-.41269.11377Z"/><path d="M71.8638,113.63611a30.7882,30.7882,0,0,1,.20871,3.9531A10.58845,10.58845,0,0,1,71.5,121.58778c-.06356.14851.155.278.21916.1281a10.51593,10.51593,0,0,0,.60369-3.89862,30.45877,30.45877,0,0,0-.20523-4.18115c-.019-.16023-.273-.16214-.2538,0Z"/><path class="h" d="M77.5489,116.9259s-1.46978,5.40938-3.37714,7.67734"/><path class="h" d="M68.57367,119.82508a16.45709,16.45709,0,0,1-1.41141,5.5291"/><path d="M126.74535,106.29289a14.68041,14.68041,0,0,0,2.25445-1.19479c.7355-.44472,1.456-.9141,2.19428-1.35417a.1905.1905,0,0,0-.19215-.32873c-.71974.429-1.42248.88612-2.13892,1.32064a14.42149,14.42149,0,0,1-2.21887,1.18994c-.22611.08744-.12785.45569.10121.36711Z"/><path d="M124.0044,96.54527c2.14712,2.6592,2.74692,6.53433,3.05753,9.83914l.36531-.15131c-2.09644-2.03827-5.21821-1.7829-7.8702-2.44676a.21747.21747,0,0,0-.24166.09834,12.12457,12.12457,0,0,0-.92854,4.58033l.27087-.20635a4.261,4.261,0,0,0-3.16278,1.045c-1.10267.77413-2.06626,1.71939-3.12257,2.55144-.21621.17031.0885.4713.30263.30263.9162-.72169,1.7578-1.53357,2.6917-2.23375.87408-.65533,2.02313-1.48424,3.17725-1.25261a.21775.21775,0,0,0,.27088-.20634,11.57491,11.57491,0,0,1,.87011-4.36432l-.24166.09834c2.55594.63982,5.66145.37285,7.68134,2.33669.12282.11942.38343.04155.3653-.15131-.32315-3.4383-.951-7.37757-3.18288-10.14177-.17306-.21432-.4742.09015-.30263.30263Z"/></svg>