<svg xmlns="http://www.w3.org/2000/svg" xmlns:xlink="http://www.w3.org/1999/xlink" viewBox="0 0 222.66748 222.66739"><defs><style>.a,.e{fill:#cab192;}.b{fill:#747c58;}.c{fill:#ededed;}.d{fill:#cecece;}.e{stroke:#231f20;stroke-width:0.2px;}.e,.f,.i,.j,.r,.u{stroke-miterlimit:10;}.f,.i,.j,.q,.r,.u{fill:none;}.f,.i,.j,.u{stroke:#000;}.f,.i,.j,.p,.q,.r,.u{stroke-linecap:round;}.f{stroke-width:0.8px;}.g{fill:#27421d;}.h{fill:#54593e;}.i{stroke-width:1.38334px;}.j{stroke-width:1.10591px;}.k{fill:#080808;}.l{clip-path:url(#a);}.m{fill:#271d1d;}.n{clip-path:url(#b);}.o{fill:#707171;}.p{fill:#284220;}.p,.q,.r{stroke:#27421d;stroke-width:2px;}.p,.q{stroke-linejoin:round;}.s{fill:#525222;}.t{fill:#231f20;}</style><clipPath id="a"><polygon class="a" points="149.278 91.935 146.875 82.23 148.108 80.338 152.166 77.624 153.88 70.882 149.832 68.89 143.886 55.934 130.744 53.712 119.289 58.863 119.296 72.971 117.554 74.985 120.281 81.482 121.628 82.216 122.33 85.957 126.16 89.064 127.722 96.892 124.004 102.769 131.335 116.597 142.064 119.142 153.135 104.634 158.102 95.285 149.278 91.935"/></clipPath><clipPath id="b"><polygon class="b" points="168.844 164.428 161.802 166.911 143.743 165.71 121.539 164.192 120.456 162.717 121.539 159.478 110.787 126.307 103.023 115.397 106.505 105.079 122.531 98.23 127.392 93.613 127.706 96.36 127.36 101.132 135.958 113.981 149.497 97.791 149.352 90.064 154.091 93.664 172.189 100.397 173.547 122.645 171.346 129.514 168.844 164.428"/></clipPath></defs><circle class="c" cx="111.3335" cy="111.33368" r="108.83386"/><path class="d" d="M111.3335,5c58.48339,0,106.334,47.85008,106.334,106.33358v.00023c0,58.48346-47.85059,106.33358-106.334,106.33358S5,169.81727,5,111.33381v-.00023C5,52.85008,52.8501,5,111.3335,5m0-5A111.20485,111.20485,0,0,0,32.7002,189.96739,111.20489,111.20489,0,1,0,189.96729,32.7,110.54262,110.54262,0,0,0,111.3335,0Z"/><polygon class="e" points="32.343 98.094 31.402 92.438 38.069 97.14 32.343 98.094"/><path class="f" d="M33.10365,75.4928s1.59921.54138,2.20616-.41691,4.72454.75006,4.72454.75006,1.97183,2.53552,1.91552,4.13447-.37124,1.86159-.67426,1.77247"/><path class="f" d="M32.20614,77.85218l1.33282.392a6.43663,6.43663,0,0,1,4.91025.6867c2.18558,1.47676,2.28453,2.21636,2.71721,3.97775s-2.10214,2.68963-3.08774,1.66947-1.49331-2.02208-.91092-2.70339.19321.55417-.58239.68131a3.57085,3.57085,0,0,1-1.93018-.66125"/><path class="f" d="M33.44679,74.3385s4.24511-3.61286,5.63624-2.59665,2.92172,1.24094,4.04468,2.74967,2.24523,1.9572,1.25846,3.0643-1.75,3.3584-2.12076,3.25483"/><path class="f" d="M33.88339,81.89175s-1.91656-.9309-1.54434-1.48456"/><path class="e" d="M42.45077,93.24968S46.867,85.6813,46.28168,78.98762s-.20992-9.6503-.94582-10.14382-3.26534-2.10115-3.85178,4.88342c-2.50659-1.65581-3.22311-1.24578-3.22311-1.24578l-1.576.41582S32.25235,61.17,30.34,61.80514c-2.14428-1.58657-2.79413-.54351-2.79413-.54351s3.76606,9.23324,4.21331,9.56144,1.74188,4.94707,1.74188,4.94707-2.14377.91112-2.4685,1.4959-1.38643.67584-1.12345,1.36226-.98116.19656-.253,2.06216.115.88223.55808,3.09142S31.402,92.43763,31.402,92.43763s6.3815,6.46888,8.51907,5.48357S42.45077,93.24968,42.45077,93.24968Z"/><path class="f" d="M33.3291,76.9536s1.665.35661,2.12715-.6622,4.79492.21119,4.79492.21119,2.32531,2.29227,2.50263,3.88438-.0967,1.88808-.41021,1.83386"/><path class="f" d="M32.78306,79.39469l1.379.23849a6.45907,6.45907,0,0,1,4.96986.12742c2.38289,1.21815,2.58888,1.94049,3.27485,3.63856S40.71419,86.3036,39.588,85.403s-1.77586-1.837-1.29763-2.57837.27243.52781-.47823.74135a3.66821,3.66821,0,0,1-2.01067-.43817"/><path class="f" d="M32.48338,84.34454s4.34134.40147,4.76536-.75"/><path class="f" d="M33.50107,75.77014s3.68321-4.06165,5.21105-3.21068,3.07856.90129,4.41227,2.27095,2.51211,1.68791,1.69493,2.89712-1.24582,3.528-1.6286,3.46708"/><path class="f" d="M41.64847,90.1987S40.29464,85.26964,39.588,85.403"/><path class="f" d="M40.72175,89.47131s-2.0034-3.99962-1.42109-3.94778"/><path class="f" d="M35.03555,83.21181s-2.03649-.70713-1.74808-1.29818"/><path class="g" d="M172.01532,138.5405a30.261,30.261,0,0,0-5.74048-20.292c-.51619-.71525-1.71675-.02549-1.19447.6982A29.0916,29.0916,0,0,1,170.632,138.5405c-.07808.88662,1.30572.88136,1.38333,0Z"/><polygon class="b" points="171.706 164.079 186.017 149.553 188.452 145.406 178.373 143.15 169.088 147.079 153.374 164.882 153.38 167.086 165.444 167.151 166.055 166.579 171.706 164.079"/><polygon class="b" points="173.16 99.991 188.452 145.406 183.034 150.856 176.495 149.887 157.08 124.435 158.707 108.635 162.151 101.547 168.548 98.148 173.16 99.991"/><polygon class="h" points="167.623 148.908 167.86 150.573 169.821 147.727 171.536 147.175 173.957 149.339 174.218 147.025 176.819 147.753 175.182 145.556 176.962 144.689 172.892 144.104 170.677 139.962 165.186 132.831 165.743 135.791 169.225 141.405 171.291 144.28 172.259 145.589 169.066 147.007 167.623 148.908"/><path class="i" d="M173.09015,145.49807s2.9002,3.26978,6.54821,2.21179"/><path class="j" d="M172.8756,145.80962s.357,3.79813,2.87707,3.76118"/><path class="j" d="M173.1894,144.91938s4.24931.75106,4.9074-1.38818"/><polygon class="b" points="128.306 107.548 123.072 105.686 114.297 102.329 66.782 119.577 62.113 125.896 66.444 132.053 112.912 127.359 127.784 113.99 128.306 107.548"/><path d="M168.10089,137.24005c-1.77236-3.645-5.61719-5.38617-9.44509-5.972a.87018.87018,0,0,0-1.03715.58887.84951.84951,0,0,0,.58888,1.03715c3.42572.52432,6.8424,1.917,8.43733,5.19711a.85114.85114,0,0,0,1.15356.30247.86083.86083,0,0,0,.30247-1.15356Z"/><path class="k" d="M163.248,134.34968l-3.89909,3.672a.85053.85053,0,0,0,0,1.19237.86058.86058,0,0,0,1.19236,0l3.8991-3.672a.85052.85052,0,0,0,0-1.19236.86057.86057,0,0,0-1.19237,0Z"/><path class="k" d="M167.89413,137.24005a3.844,3.844,0,0,0-1.71243-1.37442,5.30546,5.30546,0,0,0-1.75087-.30925,8.74243,8.74243,0,0,0-1.80352.14431,2.86052,2.86052,0,0,0-1.55357.69665.84313.84313,0,0,0,1.19236,1.19236c.11249-.115-.02705-.02053-.035.01511.00295-.01324.07028-.04691.083-.05295.04661-.02219.09583-.04847.14132-.0729-.08265.04438-.12813.04717-.01382.00967a4.79211,4.79211,0,0,1,.66829-.16813c.0463-.00812.09275-.01523.13916-.02272.2341-.03776-.17839.016.05931-.007.11872-.01152.23719-.02363.35622-.03165.23461-.01578.47-.02234.70509-.01788.09691.00184.19379.00553.29051.01207.04315.00292.08619.00672.12927.01045.0027.00023.15431.01808.06135.006-.104-.01349.10105.01622.12057.01953.07384.01252.14752.02623.22077.04189.11646.02489.23218.05437.34567.09057.05492.01752.10838.04117.16346.05751.09221.02736-.11712-.06683.01869.01125.10079.058.20022.114.29882.176.17726.11147-.09693-.105.058.04663.04553.04458.09418.08586.13927.131q.07093.0711.13727.14649c.01519.01723.15546.19506.08476.10045a.86951.86951,0,0,0,1.15356.30247.8491.8491,0,0,0,.30248-1.15356Z"/><path class="k" d="M166.27709,135.48008a2.40241,2.40241,0,0,0-1.20846-.26462,9.3626,9.3626,0,0,1-.98864-.03115l.22414.03012a1.267,1.267,0,0,1-.3083-.07761l.2014.085a.756.756,0,0,1-.08753-.0458l-.85108,1.456a4.40081,4.40081,0,0,0,.58159.28275,1.34719,1.34719,0,0,0,.81484.0376.82247.82247,0,0,0,.54637-.48818.84748.84748,0,0,0-.04249-.75038l-.5195-1.00551-1.3242,1.02172,1.20465.98937a.90788.90788,0,0,0,.59619.24695.858.858,0,0,0,.59618-.24695.84838.84838,0,0,0,.24695-.59618.82372.82372,0,0,0-.24695-.59618l-1.20465-.98937a.88768.88768,0,0,0-.59619-.24695.871.871,0,0,0-.51086.181.85038.85038,0,0,0-.21715,1.08764l.51949,1.00552.50388-1.23856a.3798.3798,0,0,1-.06183.01357l.22414-.03012a.60569.60569,0,0,1-.12706-.00142l.22413.03011a.95455.95455,0,0,1-.19378-.05611l.20141.085a4.01727,4.01727,0,0,1-.36408-.19138.84327.84327,0,0,0-.85108,1.456,2.40237,2.40237,0,0,0,1.20845.26462,9.36243,9.36243,0,0,1,.98864.03115l-.22413-.03011a1.26653,1.26653,0,0,1,.3083.0776l-.20141-.085a.75275.75275,0,0,1,.08753.04579.84327.84327,0,0,0,.85109-1.456Z"/><polygon class="b" points="41.461 91.237 47.369 97.311 51.576 98.516 68.337 115.747 72.302 128.937 62.778 133.905 59.516 133.339 56.572 131.932 36.712 107.803 37.415 103.308 32.343 98.094 40.494 93.722 41.461 91.237"/><path d="M76.795,116.37938a17.849,17.849,0,0,1,3.16518,3.87354.50037.50037,0,0,0,.86347-.50472,18.81877,18.81877,0,0,0-3.32154-4.07593c-.47112-.43748-1.17991.26806-.70711.70711Z"/><path d="M56.50587,122.89045c-.10127-.03241-.201-.06889-.30027-.107-.06279-.02413-.12484-.05-.18744-.07461-.09292-.03647-.242-.03907.05813.02539a4.87806,4.87806,0,0,1-.95252-.43185q-1.20042-.57039-2.36106-1.22084a24.43321,24.43321,0,0,1-2.29517-1.42869q-.098-.07011-.19476-.1419-.06261-.0465-.12459-.09381.18918.14687.04857.03605c-.14054-.1201-.28511-.23421-.4202-.36077-.10208-.09563-.196-.19773-.292-.29921-.19029-.20109.088.17078.016.025-.026-.05267-.06623-.10153-.09509-.15332a1.12156,1.12156,0,1,0-1.93655,1.132,5.808,5.808,0,0,0,1.73585,1.69778,23.123,23.123,0,0,0,2.344,1.47737,24.25694,24.25694,0,0,0,4.361,2.08109,1.12166,1.12166,0,0,0,.59622-2.16264Z"/><polygon class="a" points="149.278 91.935 146.875 82.23 148.108 80.338 152.166 77.624 153.88 70.882 149.832 68.89 143.886 55.934 130.744 53.712 119.289 58.863 119.296 72.971 117.554 74.985 120.281 81.482 121.628 82.216 122.33 85.957 126.16 89.064 127.722 96.892 124.004 102.769 131.335 116.597 142.064 119.142 153.135 104.634 158.102 95.285 149.278 91.935"/><g class="l"><polygon class="m" points="146.733 74.3 153.597 61.876 106.56 23.835 119.686 74.582 120.358 60.235 128.785 60.719 137.344 58.301 138.533 61.252 143.302 63.295 146.733 74.3"/></g><polygon points="139.257 65.439 138.945 63.631 133.395 63.625 132.493 65.045 139.257 65.439"/><polygon points="125.98 66.449 125.337 64.661 120.851 66.529 120.389 68.004 125.98 66.449"/><path d="M136.54505,79.09524a13.44154,13.44154,0,0,1-7.24044,2.04984.801.801,0,0,0,0,1.6011,15.01661,15.01661,0,0,0,8.04854-2.26844c.868-.55011.06563-1.93626-.8081-1.3825Z"/><path d="M143.76882,85.442l-6.79838,5.15516L130.979,92.14669l-4.819-3.083,4.49278,6.61013a4.16561,4.16561,0,0,0,2.2315,1.62322h0A4.79551,4.79551,0,0,0,134.95,97.472l.20748-.02775a4.43309,4.43309,0,0,0,2.55273-1.22886l1.35351-1.35708a3.66832,3.66832,0,0,0,.79317-1.17434l2.50966-6.01016Z"/><path d="M142.973,85.58609c-1.21382,1.19295-2.48767,2.32669-3.72886,3.49094-.25185.23623-.50464.47178-.75094.71384-.49409.48559.266,1.2454.76.76,1.21382-1.193,2.48767-2.32669,3.72886-3.49094.25185-.23624.50465-.47178.75094-.71384.49409-.48559-.266-1.2454-.76-.76Z"/><path d="M123.77686,68.42567c.06459.10126.12566.20449.18116.311.03148.06045.05964.12229.08942.18355.07384.15191-.05483-.1507-.00164-.004a4.26851,4.26851,0,0,1,.19843.70187q.00682.037.01264.07409.01956.131-.008-.06407a.82821.82821,0,0,0,.01621.17421q.01215.17444.00754.34939-.00232.08737-.00878.17456c-.00208.02763-.03162.239-.0066.09242.02526-.148-.01221.06564-.01708.09137-.01248.06581-.02726.131-.043.19614l1.176-.47843c-.11262-.08121.1084.0938.03675.02924-.02187-.01971-.04493-.03812-.06675-.05794q-.07224-.06562-.1378-.13815c-.02389-.0265-.04585-.05442-.06925-.08127-.05914-.06784.11882.17082.03611.04349-.03449-.05312-.06957-.10521-.10112-.16024q-.0471-.08217-.08749-.16791c-.0138-.0292-.06611-.15026-.01049-.02032.05262.12293.01174.02462.00159-.00284a3.34027,3.34027,0,0,1-.11612-.38875c-.03-.1266-.05166-.25437-.07259-.38269-.01936-.11875.004.07745.01093.08355a.42825.42825,0,0,1-.01261-.108q-.01058-.09713-.01862-.1945c-.01132-.13549-.01942-.27123-.02609-.407-.00134-.02731-.0019-.05473-.00351-.082-.00775-.13108-.0109.04028-.01925.07976.03054-.14429-.14792.23208-.14205.22441q-.79462.40365-1.03646-.15078a.52851.52851,0,0,1-.08942-.51167l.20588-.35326-.01275.01288.35326-.20588.16771-.0198a.80055.80055,0,0,0,0,1.6011.86478.86478,0,0,0,.82981-.60941.9074.9074,0,0,0-.08428-.69773.92731.92731,0,0,0-1.27513-.34541c-.601.36326-.51458,1.086-.44785,1.68093a5.10626,5.10626,0,0,0,.38084,1.52868,2.91218,2.91218,0,0,0,.99864,1.184.80551.80551,0,0,0,1.176-.47843,4.56281,4.56281,0,0,0-.58169-3.51429.80068.80068,0,1,0-1.3825.80811Z"/><path d="M135.56,66.8496c.06459.10126.12566.20449.18116.311.03148.06045.05964.1223.08942.18356.07384.15191-.05483-.15071-.00164-.004a4.26981,4.26981,0,0,1,.19844.70187q.00681.037.01264.0741.01954.131-.008-.06408a.82751.82751,0,0,0,.01622.17421q.01214.17445.00753.34939-.00231.08739-.00878.17457c-.00208.02762-.03162.239-.0066.09242.02526-.148-.01221.06564-.01708.09136-.01248.06582-.02726.13105-.043.19615l1.176-.47843c-.11262-.08121.1084.0938.03675.02923-.02187-.0197-.04493-.03812-.06674-.05793q-.07226-.06564-.13781-.13816c-.02389-.02649-.04585-.05442-.06925-.08127-.05914-.06784.11882.17082.03611.04349-.03449-.05311-.06957-.10521-.10112-.16024q-.0471-.08216-.08748-.1679c-.0138-.0292-.06612-.15027-.0105-.02033.05262.12294.01174.02462.00159-.00284a3.33911,3.33911,0,0,1-.11612-.38875c-.03-.1266-.05166-.25437-.07259-.38269-.01936-.11874.004.07745.01093.08355a.42817.42817,0,0,1-.01261-.108q-.01057-.09713-.01862-.19451c-.01132-.13549-.01942-.27122-.02609-.407-.00134-.02731-.0019-.05472-.00351-.082-.00775-.13108-.0109.04027-.01925.07976.03054-.14429-.14791.23207-.14205.2244q-.79463.40365-1.03645-.15078a.52849.52849,0,0,1-.08943-.51167l.20588-.35325-.01275.01287.35326-.20588.16771-.01979a.80055.80055,0,1,0,0,1.6011.86481.86481,0,0,0,.82981-.60941.90735.90735,0,0,0-.08428-.69773.9273.9273,0,0,0-1.27513-.34542c-.601.36326-.51458,1.086-.44785,1.68093a5.1064,5.1064,0,0,0,.38084,1.52869,2.91231,2.91231,0,0,0,.99864,1.184.8055.8055,0,0,0,1.176-.47844,4.56278,4.56278,0,0,0-.58169-3.51428.80068.80068,0,1,0-1.3825.8081Z"/><path d="M150.67783,73.02757l-1.94295,1.22206a.83931.83931,0,0,0-.3679.47843.80075.80075,0,0,0,1.176.90407l1.94295-1.22206a.83939.83939,0,0,0,.3679-.47843.80076.80076,0,0,0-1.176-.90407Z"/><path d="M149.24171,72.61131l-.93758,2.27293a.80146.80146,0,0,0,.0807.61687.80052.80052,0,0,0,1.09531.2872l.162-.12518a.79983.79983,0,0,0,.20588-.35326l.93758-2.27293a.80146.80146,0,0,0-.0807-.61687.8005.8005,0,0,0-1.09531-.28719l-.162.12517a.79993.79993,0,0,0-.20588.35326Z"/><path d="M152.68426,70.82134a6.51976,6.51976,0,0,0-3.34787,1.58644.80581.80581,0,0,0,0,1.13215.81908.81908,0,0,0,1.13214,0c.04732-.04238.095-.08428.14373-.12508.02444-.02046.04932-.04037.07386-.0607.08183-.06775-.02132.01776-.04882.03646.11309-.07692.2206-.16126.33562-.23571a5.66746,5.66746,0,0,1,.70668-.3884c.02988-.01377.06-.027.09-.04056.098-.04435-.02126.01173-.05472.02259.06247-.02027.12311-.04936.18475-.0723q.18675-.06951.3779-.12643a6.15354,6.15354,0,0,1,.83238-.18455.80023.80023,0,0,0,.47844-.3679.80052.80052,0,0,0-.2872-1.09531.92906.92906,0,0,0-.61687-.0807Z"/><path d="M169.47277,121.84176c-2.26613-2.48461-5.1746-4.49072-8.68891-4.07613a.76652.76652,0,0,0-.74355.74355.74814.74814,0,0,0,.74355.74356,6.91464,6.91464,0,0,1,4.02179.68579,13.12338,13.12338,0,0,1,3.61558,2.95478c.64632.70863,1.69562-.34538,1.05154-1.05155Z"/><path class="k" d="M164.78566,119.2735c-.48581,1.56689-.52953,3.23287-1.01534,4.79976a.75048.75048,0,0,0,.51933.91466.7594.7594,0,0,0,.91466-.51933c.48581-1.56688.52953-3.23287,1.01533-4.79975a.75048.75048,0,0,0-.51932-.91466.7594.7594,0,0,0-.91466.51932Z"/><path class="k" d="M169.47277,121.84176a5.18527,5.18527,0,0,0-3.30679-1.06951,1.70718,1.70718,0,0,0-.78485.16752,1.81634,1.81634,0,0,0-.56458.543,5.324,5.324,0,0,0-.64265,1.29765,10.28838,10.28838,0,0,0-.40358,1.29287.74374.74374,0,1,0,1.434.39533,10.28889,10.28889,0,0,1,.40358-1.29287c.02591-.06777.05421-.13462.08017-.20236-.07011.183-.004.01042.00994-.02082.05617-.12589.116-.25028.18208-.3713.05233-.09583.11716-.18411.17036-.27889.06226-.11094-.12411.12417.01025-.01162.02891-.02921.06465-.059.09042-.0907.03231-.03969-.17052.10543-.03261.03068.10492-.05687-.20568.06107-.04519.02724-.23173.04884-.06491.00991-.0022.00583.0562-.00367.11249-.00545.16881-.00586a4.06131,4.06131,0,0,1,.43034.02123c.04312.00427.21986.03124.03455.00206.08.0126.1599.02532.23946.04067a5.902,5.902,0,0,1,.90962.26032c.16378.05985-.08778-.04719.054.02335.07385.03674.14852.07108.221.11052.0706.03838.13994.07912.20742.12277.03052.01974.23426.17373.08489.05447a.76253.76253,0,0,0,1.05154,0,.75156.75156,0,0,0,0-1.05155Z"/><path class="k" d="M167.48027,120.41274a1.50127,1.50127,0,0,0-.63295-.15087,2.6532,2.6532,0,0,0-.51045.06178c-.24114.04655-.47659.12072-.72042.15348l.19766-.02656a1.14873,1.14873,0,0,1-.26659.00557l.19766.02656a.6265.6265,0,0,1-.143-.03623l.17762.075-.01647-.00717-.573,1.359A2.21952,2.21952,0,0,0,165.56,122a1.1028,1.1028,0,0,0,.83445-.11072.74558.74558,0,0,0,.355-.54321.56325.56325,0,0,0-.01328-.2965.74287.74287,0,0,0-.19122-.3281l-.69391-.87464L164.95,121.0146l1.20267.73433a.74367.74367,0,1,0,.75057-1.28407l-1.20267-.73434a.74394.74394,0,0,0-.95919.19151.70864.70864,0,0,0-.15965.45053l.02656.19767a.7428.7428,0,0,0,.19123.3281l.6939.87464.15049-1.16781a.22318.22318,0,0,1-.03885.02281l.17762-.075a.366.366,0,0,1-.06449.01945l.19767-.02656a.49321.49321,0,0,1-.12,0l.19767.02656a2.00776,2.00776,0,0,1-.40774-.13312.74135.74135,0,0,0-.57295.075.76969.76969,0,0,0-.30423.35556.73031.73031,0,0,0,.30423.92851,1.50127,1.50127,0,0,0,.63295.15087,2.654,2.654,0,0,0,.51045-.06177c.24114-.04656.47659-.12072.72042-.15349l-.19766.02656a1.14928,1.14928,0,0,1,.26659-.00557l-.19766-.02656a.626.626,0,0,1,.143.03624l-.17762-.075.01647.00717a.55339.55339,0,0,0,.27645.08823.56314.56314,0,0,0,.2965-.01328.75833.75833,0,0,0,.44438-.3417.75056.75056,0,0,0,.075-.573.71824.71824,0,0,0-.34171-.44437Z"/><path d="M135.99552,79.82854a4.71281,4.71281,0,0,1-2.06571,2.51244,9.08,9.08,0,0,1-3.58472,1.51317.851.851,0,0,0-.58887,1.03715.861.861,0,0,0,1.03714.58887,10.35735,10.35735,0,0,0,4.14323-1.79443,9.46751,9.46751,0,0,0,1.49693-1.32054,4.35753,4.35753,0,0,0,1.188-2.08838.86857.86857,0,0,0-.58887-1.03715.84992.84992,0,0,0-1.03715.58887Z"/><polygon class="b" points="168.844 164.428 161.802 166.911 143.743 165.71 121.539 164.192 120.456 162.717 121.539 159.478 110.787 126.307 103.023 115.397 106.505 105.079 122.531 98.23 127.392 93.613 127.706 96.36 127.36 101.132 135.958 113.981 149.497 97.791 149.352 90.064 154.091 93.664 172.189 100.397 173.547 122.645 171.346 129.514 168.844 164.428"/><g class="n"><polygon class="h" points="167.372 119.868 173.097 123.509 171.346 128.975 169.594 150.403 159.795 133.215 167.372 119.868"/></g><path d="M120.11229,110.16938a5.98819,5.98819,0,0,1,3.0397-3.38657,15.549,15.549,0,0,1,3.46877-.99088l-.95216-.38747c.25552.47185.487.96016.69884,1.453a10.27534,10.27534,0,0,1,.41388,1.11625c.09524.31932.07993.64528.16636.95592.20314.7301,1.28488,1.28854,1.83636,1.70207,1.09883.824,2.212,1.629,3.30046,2.46673.44957.346.89773.69631,1.32531,1.06942.14764.12884.28815.264.43081.39813.0514.04831.09967.13609.15851.17213q-.11195-.15161-.04361-.0507.269.50759.29032-.97307a.84376.84376,0,0,0,.85109,1.456c1.24815-.75286-.20021-1.95722-.83593-2.48319-1.152-.95314-2.36542-1.83355-3.5662-2.7235-.54332-.40267-1.09029-.80141-1.62478-1.21581-.10874-.08431-.27176-.2108-.3974-.31789a1.54147,1.54147,0,0,0-.18482-.16116c-.14249-.084-.02074-.16714.01126.03954.111.717.07019-.07276.0498-.1911a5.09008,5.09008,0,0,0-.14152-.59182,11.60049,11.60049,0,0,0-.4291-1.15552c-.25785-.61639-.53523-1.22858-.8536-1.8165a.86631.86631,0,0,0-.95216-.38747,15.84682,15.84682,0,0,0-4.05427,1.24581,7.3853,7.3853,0,0,0-3.462,3.90658c-.41852.98765,1.03357,1.84805,1.456.85109Z"/><path d="M127.20078,106.97727a23.82668,23.82668,0,0,0-4.04081.4221,28.58489,28.58489,0,0,0-3.77717,1.079.86372.86372,0,0,0-.58887,1.03714.851.851,0,0,0,1.03714.58888,29.01033,29.01033,0,0,1,3.66228-1.05579,21.06721,21.06721,0,0,1,3.70743-.38508.84364.84364,0,0,0,0-1.68625Z"/><path d="M124.27428,96.1719c-2.45563,1.90831-3.8172,4.96117-4.66084,7.87714a26.46253,26.46253,0,0,0-.98951,5.17583c-.08759,1.08172,1.59913,1.076,1.68625,0,.01034-.12762.02444-.255.03883-.3822q.02337-.20668.051-.41286c-.02895.21788.01657-.11239.0221-.14917.0171-.11375.03419-.22749.05232-.34108a28.72757,28.72757,0,0,1,.72719-3.31c.76913-2.71175,1.98412-5.49272,4.26506-7.26528a.84845.84845,0,0,0,0-1.19236.86367.86367,0,0,0-1.19237,0Z"/><path class="k" d="M105.73442,121.161c.05053.03737.2902.22048.18252.1364q.15491.121.30637.24623.36074.298.70166.61885a12.48083,12.48083,0,0,1,1.55421,1.73948,10.40834,10.40834,0,0,1,2.042,5.78605c.032.95,1.51232.95432,1.48019,0a12.83751,12.83751,0,0,0-5.51981-9.80512.74524.74524,0,0,0-1.0126.26551.75745.75745,0,0,0,.26551,1.0126Z"/><path d="M162.87311,116.54144q-10.3533,1.26056-20.75826,1.98788c-1.07668.07423-1.0849,1.761,0,1.68625q10.40523-.71738,20.75826-1.98787c1.06357-.12949,1.07658-1.81734,0-1.68626Z"/><path d="M141.39032,119.21278c-1.04852,1.8777-.86383,3.998-1.37862,5.96422a.84334.84334,0,1,0,1.626.44827,23.45332,23.45332,0,0,0,.46957-3.01741c.01691-.13367.05016-.35765.08642-.56277.04027-.22785.0871-.45465.14428-.67888a5.12364,5.12364,0,0,1,.50837-1.30234.84327.84327,0,0,0-1.456-.85109Z"/><path d="M141.08865,126.71384a150.813,150.813,0,0,0,19.6875-.46328c1.0721-.09664,1.08226-1.78381,0-1.68626a150.81293,150.81293,0,0,1-19.6875.46328c-1.08513-.04418-1.08312,1.64216,0,1.68626Z"/><path d="M162.241,117.70925a16.33348,16.33348,0,0,1-.11781,7.0729c-.25134,1.055,1.37423,1.50515,1.626.44827a18.34218,18.34218,0,0,0,.11782-7.96945.84335.84335,0,0,0-1.626.44828Z"/><path d="M162.80175,124.29756l-2.0315.38143a.84987.84987,0,0,0-.50388.38747.84308.84308,0,0,0,.30248,1.15356.94365.94365,0,0,0,.64968.085l2.03149-.38142a.84991.84991,0,0,0,.50388-.38747.84309.84309,0,0,0-.30247-1.15356.94371.94371,0,0,0-.64968-.085Z"/><path class="k" d="M135.23646,164.40937a10.912,10.912,0,0,1,.90911-3.80312,20.178,20.178,0,0,0,1.19147-4.81057c.29348-2.77694.2661-5.613.29017-8.40194.05754-6.66607-.08415-13.33344-.23022-19.99756-.069-3.14618-.14749-6.29226-.19744-9.43882a.84363.84363,0,0,0-1.68625,0c.1932,12.17084.91742,24.41917.23059,36.58364a18.96549,18.96549,0,0,1-1.17277,5.47561,12.61853,12.61853,0,0,0-1.02092,4.39276.84364.84364,0,0,0,1.68626,0Z"/><path d="M131.36042,120.45483a8.71251,8.71251,0,0,1-1.57021,6.13239c-.57806.92212.88034,1.76943,1.456.85109a12.8534,12.8534,0,0,0,1.60473-3.543,9.024,9.024,0,0,0,.13547-3.88878.85039.85039,0,0,0-1.03715-.58887.862.862,0,0,0-.58887,1.03715Z"/><path d="M131.53526,119.54646a72.41045,72.41045,0,0,0-17.47225,1.55478c-1.06077.22606-.61187,1.852.44828,1.626a70.49343,70.49343,0,0,1,17.024-1.49454c1.08539.03571,1.0841-1.65059,0-1.68626Z"/><path d="M113.77225,121.87045a10.255,10.255,0,0,1-.76742,4.84243.84565.84565,0,0,0,.58888,1.03715.8687.8687,0,0,0,1.03715-.58887,11.76583,11.76583,0,0,0,.82765-5.29071.84313.84313,0,0,0-1.68626,0Z"/><path d="M130.62258,126.03722c-.22844.04385.14439-.01193-.099.01515-.16747.01864-.33533.03365-.5032.04831-.50008.04365-1.001.078-1.50184.11187-1.39593.09435-2.79281.175-4.18961.25524-3.07354.17668-6.14847.33494-9.22037.53894a22.69741,22.69741,0,0,0-2.76175.24959c-1.06457.20438-.61382,1.82993.44827,1.626.22837-.04384-.14439.01131.099-.01516.16754-.01822.33533-.03365.50321-.0483.50008-.04365,1.001-.078,1.50184-.11187,1.39593-.09435,2.79281-.17495,4.18961-.25525,3.07354-.17668,6.14847-.33493,9.22037-.53893a22.6994,22.6994,0,0,0,2.76175-.24959c1.06457-.20439.61382-1.82993-.44827-1.626Z"/><line class="o" x1="127.68834" y1="107.85577" x2="123.40179" y2="108.53522"/><path d="M126.668,105.04612a8.714,8.714,0,0,0-4.27717,1.06032,7.30554,7.30554,0,0,0-2.57845,2.37353l.07143.71261,6.74109-1.52509.9027.21458Z"/><path d="M155.21158,104.00009c-1.34214.05065-2.67995.1861-4.01673.3107-.68344.06371-1.367.12712-2.05136.17985-.32834.0253-.65688.04827-.98569.06651a2.16535,2.16535,0,0,1-.76246-.00281l.37205.21683q.05145.62347.13788.28894l.07355-.19228.17163-.44866-1.65614-.22414a1.68992,1.68992,0,0,0,.76157,1.62806,1.40608,1.40608,0,0,0,1.79755-.411,1.24887,1.24887,0,0,0-.39239-1.74665,1.05636,1.05636,0,0,0-1.59977.918,1.34282,1.34282,0,0,0,1.22139,1.24694,4.16356,4.16356,0,0,0,1.54671-.0997c.46862-.097.92977-.22648,1.39671-.33083.20888-.04668.4497-.09627.58487-.10942.08973-.00872.18079-.0143.271-.01413q.08372-.00034.16714.00635-.14026-.022.00291.007a.84386.84386,0,0,0,.44828-1.626,15.68663,15.68663,0,0,0-3.84564-.11174c-1.0853-.03926-1.08371,1.64706,0,1.68626.59067.02136,1.18275-.02619,1.773-.043.31578-.009.63222-.01405.948-.00071a2.09528,2.09528,0,0,1,.67637.09517l.44828-1.626a5.30054,5.30054,0,0,0-2.408.22566c-.38669.095-.77281.19558-1.16532.26413a1.70821,1.70821,0,0,1-.37955.03366q-.06178.00115-.12341-.00292-.09705-.007.0333.00871c-.16215.06117-.1185-.18192-.01544.05107l.11511.42555-.13958.291-.37205.21683.08388-.0346h-.44828l-.299-.40154.26834-.42607c.12055-.06044.32755.16469.33954.16026a1.3644,1.3644,0,0,1-.00924-.28025.83934.83934,0,0,0-.73106-.82807.85693.85693,0,0,0-.92508.60394,2.46333,2.46333,0,0,0-.31093,1.38449,1.21688,1.21688,0,0,0,1.20814.91317,18.74708,18.74708,0,0,0,2.50089-.15587c1.76146-.15271,3.52136-.35963,5.28905-.42635,1.08173-.04082,1.08705-1.72728,0-1.68625Z"/><path class="k" d="M101.66485,116.92015c2.39964,2.468,4.82043,4.91546,7.22007,7.38352.75784.77944,1.94962-.41353,1.19237-1.19237-2.39964-2.46805-4.82043-4.91546-7.22007-7.38352-.75784-.77944-1.94962.41353-1.19237,1.19237Z"/><path class="k" d="M111.05381,126.339c-1.15893-2.1265-2.84053-3.89874-4.08355-5.96648a.84327.84327,0,0,0-1.456.85109c1.243,2.06774,2.92463,3.84,4.08356,5.96648a.84326.84326,0,0,0,1.456-.85109Z"/><path d="M173.19982,122.56289a15.38983,15.38983,0,0,0-4.63766-2.74175,8.41438,8.41438,0,0,0-4.82141-.17109.74419.74419,0,0,0,.39533,1.434c2.99739-.77159,5.72922.6912,8.01219,2.5304a.76609.76609,0,0,0,1.05155,0,.749.749,0,0,0,0-1.05155Z"/><path class="k" d="M168.02516,120.68669c-.20954,1.61929.03636,3.26042-.17317,4.87971a.74461.74461,0,0,0,.74355.74355.76667.76667,0,0,0,.74356-.74355c.20953-1.61929-.03637-3.26042.17317-4.87971a.74461.74461,0,0,0-.74356-.74355.76666.76666,0,0,0-.74355.74355Z"/><path class="k" d="M173.04933,122.44663a5.30551,5.30551,0,0,0-3.5116-.5375,1.44591,1.44591,0,0,0-1.07888.84122,5.48751,5.48751,0,0,0-.42217,1.37572,11.67433,11.67433,0,0,0-.18469,1.44033.748.748,0,0,0,.74355.74355.7607.7607,0,0,0,.74356-.74355c.00851-.14136.02155-.28241.03711-.42316q.00666-.06025.014-.12045l.00781-.06273c.00923-.08253-.014.09955-.01242.09018.01683-.09755.02806-.19625.044-.294a6.68635,6.68635,0,0,1,.27944-1.16713.83358.83358,0,0,0,.04486-.119c-.01445.08014-.06278.13345-.011.03085.0349-.06913.08064-.13408.11437-.20307.03713-.07595-.12067.12735-.05906.074.01107-.00959.0179-.02488.02963-.03386.09567-.07321-.03165.01788-.06783.04257a.54853.54853,0,0,1,.06542-.03868c-.00843.00419-.17475.049-.11392.05236a.33291.33291,0,0,0,.07635-.02027c.041-.01007.08224-.01882.12369-.02673.02977-.00567.18147-.02411.05852-.01193-.12541.01242.04032-.00323.06984-.0059q.08953-.00807.17936-.01236a5.28579,5.28579,0,0,1,.72994.01682q.0441.004.08813.00873c.01845.00195.14954.01755.04873.00462-.09726-.01248.00333.00079.01946.00348.03941.00658.07888.01273.11822.01978q.20606.03691.40858.091c.14213.03832.27849.08834.41709.137.07979.028-.04024-.01716-.046-.02.03359.01657.06823.03106.10188.04757.0659.03233.13.06769.19339.10465a.74368.74368,0,0,0,.75057-1.28408Z"/><path class="k" d="M170.824,121.32057a1.731,1.731,0,0,0-1.05962.09734,3.68075,3.68075,0,0,1-.755.24735l.19767-.02656a.78467.78467,0,0,1-.184.00158l.19767.02656a.65847.65847,0,0,1-.07611-.0163l-.39534,1.434a3.63353,3.63353,0,0,0,.57177.10156,1.067,1.067,0,0,0,.79114-.28735.74953.74953,0,0,0,0-1.05154l-.83714-.77165-.90106,1.16781,1.3157.56493a.81522.81522,0,0,0,.573.075.75839.75839,0,0,0,.44437-.34171.75055.75055,0,0,0,.075-.57295.7164.7164,0,0,0-.34171-.44438l-1.31571-.56493a.79589.79589,0,0,0-.57295-.075.7703.7703,0,0,0-.38624.26646.74049.74049,0,0,0,.05813.9763l.83714.77165V121.8472l-.01659.01485.15048-.11627a.32316.32316,0,0,1-.05705.03317l.17763-.075a.44468.44468,0,0,1-.06632.01806l.19766-.02656a.70532.70532,0,0,1-.179-.00222l.19767.02656c-.10841-.016-.214-.04433-.32054-.06929a.78209.78209,0,0,0-.573.075.74368.74368,0,0,0,.17762,1.359,1.73109,1.73109,0,0,0,1.05963-.09734,3.68006,3.68006,0,0,1,.755-.24735l-.19766.02656a.78459.78459,0,0,1,.184-.00158l-.19766-.02657a.659.659,0,0,1,.07611.01631.74374.74374,0,1,0,.39533-1.434Z"/><path d="M127.34985,68.82386a1.80314,1.80314,0,0,1,.231,1.25385,7.195,7.195,0,0,1-.30044,1.54562,25.9181,25.9181,0,0,1-1.21111,3.13834.66955.66955,0,0,0,.23265.8873.65329.65329,0,0,0,.8873-.23266,25.38756,25.38756,0,0,0,1.43066-3.77133c.31977-1.23747.5099-2.67955-.35288-3.73827a.653.653,0,0,0-.91714,0,.66348.66348,0,0,0,0,.91715Z"/><path d="M126.646,73.69344a2.06419,2.06419,0,0,0-.66442,2.21412,2.51353,2.51353,0,0,0,1.83435,1.71794,5.75777,5.75777,0,0,0,3.06217.181,5.65209,5.65209,0,0,0,1.41462-.61506,3.55322,3.55322,0,0,0,1.15549-.94372,1.60668,1.60668,0,0,0,.14332-1.66882,1.03167,1.03167,0,0,0-1.27085-.6447.64907.64907,0,0,0,.3448,1.2507c-.04591.01236-.29342-.06248-.29152-.14831-.00131.0594.08516.13351.09761.197a.33148.33148,0,0,1-.064.24313,2.163,2.163,0,0,1-.81515.62092,4.1816,4.1816,0,0,1-1.16356.483,3.74849,3.74849,0,0,1-1.26259.01018,5.17734,5.17734,0,0,1-1.09729-.24686,2.105,2.105,0,0,1-.4411-.21733,1.23165,1.23165,0,0,1-.15955-.12085c.00234.0021-.149-.17266-.084-.08067a1.11569,1.11569,0,0,1-.18464-.63534.78381.78381,0,0,1,.05134-.36485c.01115-.03339.09734-.14651.04962-.11147a.668.668,0,0,0,.23265-.8873.65335.65335,0,0,0-.88729-.23265Z"/><path d="M113.92731,127.881a10.55192,10.55192,0,0,1,.21383,4.11515c-.07863.61856-.15788,1.2362-.1904,1.85934a4.11961,4.11961,0,0,0,.15808,2.0345c.62454,1.20144,1.68769,1.27937,2.887,1.42734,1.72107.21235,3.4383.42516,5.16577.58261a45.177,45.177,0,0,0,5.60886.22944c1.17513-.03935,2.51565-.05426,3.19185-1.218a7.98648,7.98648,0,0,0,.57877-2.74985c.16847-1.22183.29725-2.44858.42-3.6757a50.72582,50.72582,0,0,1,1.03748-7.90947.75064.75064,0,0,0-1.44642-.39876c-1.06787,4.03763-.92228,8.35211-1.58716,12.46239-.11972.74011-.08989,1.68783-.91233,1.91657a9.37726,9.37726,0,0,1-2.30142.0894c-.85085.00007-1.70136-.03294-2.55049-.08588-1.67717-.10455-3.35568-.26554-5.02431-.46369-.63512-.07542-1.26858-.16371-1.90306-.24416-.5281-.067-1.31952.02144-1.67092-.45652-.36483-.49624-.16825-1.43806-.11674-2.0502.04973-.591.13941-1.177.20752-1.76586a11.03222,11.03222,0,0,0-.3195-4.09739.75064.75064,0,0,0-1.44642.39876Z"/><path d="M142.603,126.01085q.06388,2.35545.1384,4.71063.05935,1.89336.12754,3.78645c.04135,1.12249-.177,2.63829.62748,3.5197.65217.71455,1.71058-.34857,1.06066-1.06066-.21405-.23453-.13154-.99717-.14707-1.38572q-.03274-.81942-.06156-1.639-.065-1.82382-.12035-3.648-.06629-2.14161-.1251-4.28345a.75046.75046,0,0,0-1.5,0Z"/><path d="M158.631,139.80619a3.52922,3.52922,0,0,0,2.76274-1.45082,7.24513,7.24513,0,0,0,.46022-1.84075c.14405-.738.26556-1.48034.38059-2.22335a76.45417,76.45417,0,0,1,1.51449-8.98131.75064.75064,0,0,0-1.44642-.39876,66.60632,66.60632,0,0,0-1.3979,8.21187c-.19846,1.33445-.39858,2.675-.70947,3.98879-.10944.4625-.18714.76133-.67812.96415a5.74676,5.74676,0,0,1-1.28489.28376c-.95192.13385-.54688,1.57939.39876,1.44642Z"/><polygon points="127.257 107.163 125.003 106.449 122.605 106.787 121.405 107.579 120.189 108.849 121.098 109.444 127.919 107.292 127.919 107.292 127.257 107.163"/><path d="M107.18807,111.15847a33.75274,33.75274,0,0,0,5.33305-.817,30.60425,30.60425,0,0,1,8.57716-.14722c.95753.10884.94976-1.392,0-1.5a31.88317,31.88317,0,0,0-8.674.15112,35.11922,35.11922,0,0,1-5.23622.81306.75045.75045,0,0,0,0,1.5Z"/><path d="M107.61981,110.66084c.99132-2.34294,2.0855-4.64617,3.13773-6.96228l-.29882.22978,5.65932-1.74251a1.54463,1.54463,0,0,0,.40758-.12549c.169-.12592-.17067-.03833-.13309-.01857a4.97464,4.97464,0,0,0,1.30094.20563l2.9141.46061c.62957.09951.9007-.86394.26584-.96428l-3.86951-.61163a6.35421,6.35421,0,0,0-2.788.59327c-1.30029.40036-2.693.70294-3.95314,1.21718-.354.14446-.41254.34778-.55931.67109q-.458,1.00894-.91517,2.01829c-.68163,1.505-1.38807,3.00245-2.03193,4.52419-.24785.58578.61327,1.09605.86347.50472Z"/><path d="M110.4801,104.86a1.42105,1.42105,0,0,0-.41563.686,1.84016,1.84016,0,0,0-.06141.69093,2.32633,2.32633,0,0,0,.6,1.41251.75.75,0,1,0,1.06066-1.06066c-.02689-.02757-.05206-.05631-.07611-.0864l.11727.15179a1.43133,1.43133,0,0,1-.17669-.30487l.07561.17916a1.801,1.801,0,0,1-.12233-.447l.02679.19938a1.514,1.514,0,0,1-.002-.38664l-.02679.19938a1.04741,1.04741,0,0,1,.0674-.25009l-.07561.17916a.79491.79491,0,0,1,.0842-.147l-.11727.15179a.6789.6789,0,0,1,.10254-.10671.75388.75388,0,0,0,.21967-.53033.76321.76321,0,0,0-.21967-.53033.75469.75469,0,0,0-.53033-.21967l-.19938.02679a.7494.7494,0,0,0-.331.19288Z"/><path d="M157.7644,102.87056c2.017.4489,4.07291.72625,6.11913,1.00343,1.45806.19751,2.96109.30374,4.40076.61673.941.20459,1.3431-1.24112.39876-1.44642-1.44028-.31312-2.94171-.41908-4.40076-.61673-2.04622-.27718-4.10212-.55453-6.11913-1.00343-.94047-.20931-1.34213,1.23646-.39876,1.44642Z"/><path d="M155.71632,96.30087c2.53653.60714,5.05239,1.31353,7.56236,2.02082a63.37523,63.37523,0,0,1,7.43495,2.31981c.88829.37414,1.27633-1.07679.39876-1.44642a63.37771,63.37771,0,0,0-7.435-2.31981c-2.51-.70729-5.02583-1.41368-7.56236-2.02082-.93827-.22458-1.33865,1.22145-.39876,1.44642Z"/><path d="M157.48257,100.84713H166.987a.75045.75045,0,0,0,0-1.5h-9.50441a.75045.75045,0,0,0,0,1.5Z"/><ellipse class="p" cx="165.05691" cy="111.95153" rx="1.68585" ry="0.86533" transform="translate(-34.28821 105.75042) rotate(-32.36573)"/><ellipse class="p" cx="164.70916" cy="114.08024" rx="1.68585" ry="0.86533" transform="translate(-35.48178 105.89496) rotate(-32.36573)"/><ellipse class="p" cx="164.26841" cy="116.34438" rx="1.68585" ry="0.86533" transform="translate(-36.76229 106.01076) rotate(-32.36573)"/><ellipse class="p" cx="163.76284" cy="118.82388" rx="1.68585" ry="0.86533" transform="matrix(0.84465, -0.53532, 0.53532, 0.84465, -38.16816, 106.1253)"/><ellipse class="p" cx="163.04016" cy="121.21424" rx="1.68585" ry="0.86533" transform="translate(-39.56004 106.10979) rotate(-32.36573)"/><ellipse class="p" cx="162.49794" cy="123.51171" rx="1.68585" ry="0.86533" transform="translate(-40.87416 106.17644) rotate(-32.36573)"/><ellipse class="p" cx="162.19457" cy="125.99527" rx="1.68585" ry="0.86533" transform="translate(-42.25079 106.39987) rotate(-32.36573)"/><ellipse class="p" cx="161.70345" cy="128.47995" rx="1.68585" ry="0.86533" transform="translate(-43.65719 106.52296) rotate(-32.36573)"/><ellipse class="p" cx="161.622" cy="131.16797" rx="1.68585" ry="0.86533" transform="translate(-45.1088 106.89695) rotate(-32.36573)"/><ellipse class="p" cx="161.44977" cy="133.59152" rx="1.68585" ry="0.86533" transform="translate(-46.43294 107.18125) rotate(-32.36573)"/><ellipse class="p" cx="161.45254" cy="136.19946" rx="1.68585" ry="0.86533" transform="translate(-47.82859 107.58788) rotate(-32.36573)"/><path class="p" d="M162.99821,137.86378c.12669.47822-.43309,1.21237-1.25032,1.63978s-1.58243.38622-1.70913-.092.91895-1.41705,1.73618-1.84445S162.87151,137.38557,162.99821,137.86378Z"/><ellipse class="p" cx="162.13791" cy="140.87461" rx="1.68585" ry="0.86533" transform="translate(-50.22483 108.68106) rotate(-32.36573)"/><ellipse class="p" cx="162.77861" cy="143.10377" rx="1.68585" ry="0.86533" transform="translate(-51.31862 109.37035) rotate(-32.36573)"/><ellipse class="p" cx="163.41844" cy="144.95567" rx="1.68585" ry="0.86533" transform="translate(-52.21058 110.00056) rotate(-32.36573)"/><path class="q" d="M164.522,110.78858l2.45043-7.99955.988.2854a.75507.75507,0,0,1,.33314.88326l-2.49119,6.31281Z"/><path class="r" d="M140.16662,126.47656s1.65857,22.12848,11.45593,22.33073,10.50308-8.17724,10.50308-8.17724"/><path class="r" d="M166.63222,102.73918s4.84247-2.6767,5.03256-2.66344"/><path class="r" d="M166.63222,102.73918s1.75239-3.37024,3.6669-3.37024"/><path d="M163.95722,114.183a1.3624,1.3624,0,0,1,.12494.2202l-.0756-.17916a.873.873,0,0,1,.06178.21611l-.02679-.19938a.68518.68518,0,0,1,.00017.16865l.02679-.19938a.66985.66985,0,0,1-.042.154l.07561-.17916a.80036.80036,0,0,1-.10244.17289l.11727-.15179a1.21047,1.21047,0,0,1-.20316.19865l.15179-.11728a2.56077,2.56077,0,0,1-.56825.31684l.17916-.07561c-.26941.11338-.54875.19837-.8177.31316a.74884.74884,0,0,0-.34467.44823.76646.76646,0,0,0,.07561.57792.757.757,0,0,0,.44822.34467l.19938.02679a.74658.74658,0,0,0,.37854-.1024l.00557-.00238-.17916.07561c.11675-.0487.23879-.08519.35771-.12817a6.04069,6.04069,0,0,0,.67469-.28418,1.813,1.813,0,0,0,1.0383-1.17565,1.50016,1.50016,0,0,0-.016-.6708,1.71581,1.71581,0,0,0-.2445-.52546.80136.80136,0,0,0-.44822-.34467.76645.76645,0,0,0-.57792.07561.757.757,0,0,0-.34467.44822.74537.74537,0,0,0,.07561.57792Z"/><path d="M164.932,111.56571a1.933,1.933,0,0,1,.09341.18927l-.0756-.17916a1.29676,1.29676,0,0,1,.08454.30459l-.02679-.19938a1.00016,1.00016,0,0,1-.00043.25377l.02679-.19938a.96192.96192,0,0,1-.06431.22719l.07561-.17916a1.13387,1.13387,0,0,1-.13812.23091l.11728-.15179a1.66451,1.66451,0,0,1-.28993.28238l.15179-.11727a3.29735,3.29735,0,0,1-.62192.36184c-.149.06887-.30571.12431-.45133.20026a.75582.75582,0,0,0-.26906,1.02614.76711.76711,0,0,0,1.02614.26906c.28818-.15029.59557-.25119.87352-.42432a2.079,2.079,0,0,0,1.03675-1.32648,1.85215,1.85215,0,0,0-.01412-.73617,2.16279,2.16279,0,0,0-.239-.58937.75012.75012,0,1,0-1.2952.75707Z"/><path d="M164.1484,116.61642a1.67124,1.67124,0,0,1,.10829.20932l-.07561-.17916a1.11031,1.11031,0,0,1,.07386.26829l-.02679-.19938a.87172.87172,0,0,1-.00015.20792l.02679-.19938a.83886.83886,0,0,1-.05639.2034l.07561-.17916a.99988.99988,0,0,1-.12464.2079l.11727-.15179a1.48414,1.48414,0,0,1-.25288.24605l.15179-.11727a3.20082,3.20082,0,0,1-.70478.38929l.17916-.0756c-.1999.08414-.40714.15468-.60241.24924a.75722.75722,0,0,0-.34467.44822.7665.7665,0,0,0,.0756.57792.757.757,0,0,0,.44823.34467.83765.83765,0,0,0,.57792-.07561c.01868-.009.03766-.0174.05676-.02553l-.17916.07561a7.70239,7.70239,0,0,0,1.05011-.476,2.34963,2.34963,0,0,0,.579-.46835,1.81406,1.81406,0,0,0,.25464-.36231,1.69573,1.69573,0,0,0,.172-.61128,1.76536,1.76536,0,0,0-.28439-1.06407.78068.78068,0,0,0-.44823-.34467.75019.75019,0,0,0-.847,1.10175Z"/><path d="M163.47785,119.45732a1.19018,1.19018,0,0,1,.14035.23858l-.07561-.17916a.75018.75018,0,0,1,.04906.17609l-.02679-.19938a.59461.59461,0,0,1-.00012.149l.02679-.19938a.58641.58641,0,0,1-.03826.1366l.07561-.17916a.70838.70838,0,0,1-.08574.14437l.11727-.15179a1.0688,1.0688,0,0,1-.18328.1798l.15179-.11727a2.28084,2.28084,0,0,1-.50326.28091l.17916-.0756c-.24177.10185-.49639.16483-.73961.26111a.839.839,0,0,0-.44822.34467.74995.74995,0,0,0,.26906,1.02614.72915.72915,0,0,0,.57792.07561c.11427-.04524.23386-.07773.3504-.11651a6.35151,6.35151,0,0,0,.67936-.26951,1.73379,1.73379,0,0,0,1.04241-1.12876,1.37164,1.37164,0,0,0-.01772-.65252,1.59636,1.59636,0,0,0-.24536-.50094.81695.81695,0,0,0-.44823-.34467.7665.7665,0,0,0-.57792.0756.757.757,0,0,0-.34467.44823.73083.73083,0,0,0,.07561.57791Z"/><path d="M162.92956,121.76779l.0217.02769-.11727-.15179a1.04453,1.04453,0,0,1,.1256.20972l-.07561-.17916a.65516.65516,0,0,1,.04423.15537l-.02679-.19938a.51868.51868,0,0,1,.00018.132l.02679-.19938a.51536.51536,0,0,1-.03419.12144l.0756-.17916a.62847.62847,0,0,1-.07732.12893l.11728-.15179a.96382.96382,0,0,1-.16674.16169l.15179-.11727a2.08,2.08,0,0,1-.45471.25136l.17916-.0756c-.26541.11086-.54479.17361-.81367.27259a.80662.80662,0,0,0-.44823.34467.75.75,0,0,0,.26907,1.02614.73887.73887,0,0,0,.57792.0756c.1172-.04314.23932-.07366.35855-.1106a6.52087,6.52087,0,0,0,.67124-.25338,2.422,2.422,0,0,0,.61649-.39088,1.28917,1.28917,0,0,0,.42258-.69446,1.26422,1.26422,0,0,0-.024-.64742,1.91205,1.91205,0,0,0-.359-.61757.74978.74978,0,0,0-.53033-.21967.76317.76317,0,0,0-.53033.21967.75461.75461,0,0,0-.21967.53033l.02679.19937a.74919.74919,0,0,0,.19288.331Z"/><path d="M162.38732,123.66508a1.13869,1.13869,0,0,1,.1441.24047l-.07561-.17916a.708.708,0,0,1,.04637.1668l-.02679-.19938a.562.562,0,0,1-.00031.14142l.02679-.19938a.55667.55667,0,0,1-.03661.12986l.0756-.17916a.67528.67528,0,0,1-.082.13755l.11728-.15179a1.02424,1.02424,0,0,1-.1758.17187l.15179-.11728a2.19962,2.19962,0,0,1-.48671.27048l.17916-.0756c-.25068.105-.51459.16788-.76744.26513a.81323.81323,0,0,0-.44823.34467.75.75,0,0,0,.26907,1.02615.73293.73293,0,0,0,.57792.0756c.1143-.044.23368-.07539.35014-.113a6.42854,6.42854,0,0,0,.67913-.26385,1.71241,1.71241,0,0,0,1.04044-1.105,1.416,1.416,0,0,0-.263-1.14345.83909.83909,0,0,0-.44822-.34467.76645.76645,0,0,0-.57792.07561.757.757,0,0,0-.34467.44822.72578.72578,0,0,0,.0756.57792Z"/><path d="M162.01216,126.42159q.02075.02478.04055.05029l-.11727-.15179a.93229.93229,0,0,1,.11347.18959l-.0756-.17916a.58644.58644,0,0,1,.03955.14085l-.02679-.19938a.47281.47281,0,0,1,.00067.11032l.02679-.19938a.4646.4646,0,0,1-.02975.11145l.0756-.17916a.56566.56566,0,0,1-.06973.11875l.11727-.15179a.87294.87294,0,0,1-.153.14971l.15179-.11727a1.89766,1.89766,0,0,1-.41453.23053l.17916-.0756c-.28568.12009-.58667.18258-.87791.284a.79928.79928,0,0,0-.44822.34467.74995.74995,0,0,0,.26906,1.02614.74651.74651,0,0,0,.57792.07561c.28719-.1.58393-.16223.86618-.27909a4.0995,4.0995,0,0,0,.41695-.18914,2.43253,2.43253,0,0,0,.35794-.25315,1.231,1.231,0,0,0,.42485-.6777,1.205,1.205,0,0,0-.02428-.6356,1.83367,1.83367,0,0,0-.36-.60438.75413.75413,0,0,0-.53033-.21967.76325.76325,0,0,0-.53033.21967.75464.75464,0,0,0-.21967.53033l.02679.19938a.74919.74919,0,0,0,.19288.331Z"/><path d="M162.13816,128.29475a1.55639,1.55639,0,0,1,.11446.21482l-.07561-.17916a1.02377,1.02377,0,0,1,.06938.24987l-.02679-.19938a.80419.80419,0,0,1-.00029.19408l.02679-.19938a.77828.77828,0,0,1-.0535.19032l.07561-.17916a.93291.93291,0,0,1-.10893.18292l.11727-.15179a1.37268,1.37268,0,0,1-.238.23423l.15179-.11727a2.94684,2.94684,0,0,1-.65535.36418l.17916-.07561c-.22615.09517-.45993.17171-.68265.27518a.75419.75419,0,0,0-.34467.44822.7665.7665,0,0,0,.0756.57792.757.757,0,0,0,.44823.34467l.19938.02679a.74657.74657,0,0,0,.37854-.10239l.03237-.01438-.17916.07561a9.54811,9.54811,0,0,0,1.04259-.45137,1.892,1.892,0,0,0,1.0081-1.22931,1.62868,1.62868,0,0,0-.01963-.69677,1.91666,1.91666,0,0,0-.23953-.53992.78681.78681,0,0,0-.44822-.34467.75019.75019,0,0,0-.847,1.10175Z"/><path d="M161.96336,131.40289a1.25653,1.25653,0,0,1,.13621.238l-.07561-.17916a.80617.80617,0,0,1,.05189.18763l-.02679-.19938a.63856.63856,0,0,1,0,.15853l.02679-.19938a.62686.62686,0,0,1-.04008.145l.07561-.17916a.75078.75078,0,0,1-.08978.153l.11727-.15179a1.13307,1.13307,0,0,1-.20245.19852l.15179-.11727a2.44518,2.44518,0,0,1-.53633.29719l.17916-.07561c-.22393.09381-.45957.15522-.68363.24735a.83921.83921,0,0,0-.44822.34467.75.75,0,0,0,.26906,1.02615.72419.72419,0,0,0,.57792.0756c.11422-.047.23409-.08091.35073-.12128a6.24483,6.24483,0,0,0,.6797-.27726,1.77616,1.77616,0,0,0,1.04378-1.15375,1.43159,1.43159,0,0,0-.01693-.6616,1.65691,1.65691,0,0,0-.24489-.513.80876.80876,0,0,0-.44822-.34467.7665.7665,0,0,0-.57792.0756.757.757,0,0,0-.34467.44823.73794.73794,0,0,0,.0756.57792Z"/><path d="M161.59925,133.56366a1.30775,1.30775,0,0,1,.131.23019l-.07561-.17916a.8467.8467,0,0,1,.05558.19491l-.02679-.19938a.6651.6651,0,0,1,.0016.16453l.02679-.19938a.64569.64569,0,0,1-.04494.16229l.07561-.17916a.78432.78432,0,0,1-.09416.15709l.11728-.15179a1.172,1.172,0,0,1-.19833.19452l.15179-.11727a2.49994,2.49994,0,0,1-.55985.31148l.17916-.07561c-.21534.09018-.44188.15078-.65679.24088a.83906.83906,0,0,0-.44823.34467.75.75,0,0,0,.26907,1.02614.72173.72173,0,0,0,.57792.07561c.11655-.04886.23908-.08418.35814-.12634a6.21,6.21,0,0,0,.66857-.27674,2.50887,2.50887,0,0,0,.618-.42549,1.44877,1.44877,0,0,0,.42926-.73549,1.54865,1.54865,0,0,0-.25985-1.19358.8048.8048,0,0,0-.44822-.34467.7665.7665,0,0,0-.57792.0756.757.757,0,0,0-.34467.44823.74171.74171,0,0,0,.07561.57792Z"/><path d="M161.55989,136.50054l.01107.01409-.11727-.15179a1.06958,1.06958,0,0,1,.13656.22665l-.07561-.17916a.66394.66394,0,0,1,.04393.1575l-.02679-.19938a.52789.52789,0,0,1-.00044.13374l.0268-.19938a.52594.52594,0,0,1-.03506.123l.07561-.17916a.64133.64133,0,0,1-.07855.13056l.11727-.15179a.97941.97941,0,0,1-.16871.16362l.15179-.11727a2.10417,2.10417,0,0,1-.45833.254l.17916-.0756c-.263.11026-.54.1733-.80623.27236a.8081.8081,0,0,0-.44822.34467.74995.74995,0,0,0,.26906,1.02614.73747.73747,0,0,0,.57792.07561c.11613-.04321.23719-.07386.35538-.11083a6.45159,6.45159,0,0,0,.67953-.25849,1.667,1.667,0,0,0,1.03413-1.08744,1.28032,1.28032,0,0,0-.02306-.65076,1.92679,1.92679,0,0,0-.35928-.62158.749.749,0,0,0-.53033-.21967.76321.76321,0,0,0-.53033.21967.75461.75461,0,0,0-.21967.53033l.02679.19938a.7494.7494,0,0,0,.19288.331Z"/><path d="M157.29009,110.529c.744-.2468,1.50588-.4182,2.2634-.616a10.96127,10.96127,0,0,0,2.27759-.86361.75561.75561,0,0,0,.26906-1.02614.76737.76737,0,0,0-1.02614-.26907q-.2733.1414-.55408.26663c-.046.02046-.09407.03865-.0194.0087-.04336.01739-.08659.03507-.13011.05208q-.12707.04966-.25567.09533c-.33518.11912-.67732.21686-1.02166.30565-.73752.19016-1.478.35989-2.20175.6a.75019.75019,0,0,0,.39876,1.44642Z"/><polygon class="s" points="160.962 97.045 167.696 98.451 172.458 100.471 170.568 98.48 163.816 96.353 160.103 96.818 160.962 97.045"/><path class="t" d="M144.74072,118.113l-.50683.04687.15039-.62366.18945-.01745a1.16017,1.16017,0,0,0,.43262-.10791.55166.55166,0,0,0,.23242-.22388.78024.78024,0,0,0,.084-.35059c.002-.13916.001-.35241-.00488-.6394l-.00586-.04687a.45389.45389,0,0,0-.07617-.22046.33729.33729,0,0,0-.16016-.11853.80928.80928,0,0,0-.32617-.01661l-1.35547.12537-.2041-1.70312.86719-.08.13086,1.1001.61035-.05652a1.57821,1.57821,0,0,1,.96484.14661.87034.87034,0,0,1,.39063.68554l.01269.13477.01172.64685a1.18805,1.18805,0,0,1-.34375.92847A1.83793,1.83793,0,0,1,144.74072,118.113Z"/><path class="t" d="M147.59619,114.3526l-.16894,1.07312-.73633.068.38086-1.09265Zm1.11621-.10315-.17871,1.074-.72851.06726.38378-1.0929Z"/><path class="t" d="M152.83057,117.3653l-.86524.07995L151.773,115.841a.74221.74221,0,0,0-.249-.50207.84486.84486,0,0,0-.63672-.1377,4.85762,4.85762,0,0,0-.49219.07288q-.25927.05127-.85547.20911l-.00488-.62391a7.3626,7.3626,0,0,1,1.46582-.2926,1.65063,1.65063,0,0,1,1.13574.23438,1.25879,1.25879,0,0,1,.499.93164Zm-2.11328.19543-.86817.08008-.19824-1.65845.82324-.44971Z"/><path class="t" d="M153.42627,116.68622l1.63965-.15149-1.91016-1.848.749-.417,1.22167,1.18519a.867.867,0,0,0,.11036-.283,1.328,1.328,0,0,0-.00391-.39356l-.06641-.55615.85157-.07874.07324.61255a1.12554,1.12554,0,0,1-.07422.58448,1.80591,1.80591,0,0,1-.45215.57641l.60352.60413-.07715.543-2.751.25415Z"/><polygon class="s" points="152.423 105.429 155.212 105.28 159.157 106.898 158.432 101.888 164.384 103.108 161.994 108.807 159.824 116.119 156.205 114.986 154.072 113.482 152.171 111.169 151.821 108.09 152.423 105.429"/><path d="M165.83876,103.6818c-2.27133,3.12009-3.80753,5.32326-3.71672,9.02693a12.64867,12.64867,0,0,1-.02654,2.96292c-.2158.62938-2.8719.91283-2.92158-.02333-.20811-3.92172,1.528-10.12866,4.55983-13.0108"/><polygon class="h" points="104.182 124.289 103.177 128.907 68.641 131.72 70.98 125.753 72.208 124.314 71.488 130.049 78.099 117.394 76.744 128.874 84.894 122.573 83.961 128.939 97.883 127.508 104.182 124.289"/><path class="k" d="M108.60078,123.77516c1.09015,2.73842,2.067,5.52083,3.15719,8.25925l1.541-.64968c-2.521-3.86482-4.56753-8.02664-7.08852-11.89145-.59064-.90548-2.05125-.0614-1.456.85109,2.521,3.86481,4.56753,8.02663,7.08853,11.89144.49088.75256,1.913.28457,1.541-.64968-1.09015-2.73841-2.067-5.52083-3.1572-8.25924a.87032.87032,0,0,0-1.03715-.58888.84835.84835,0,0,0-.58887,1.03715Z"/><path d="M76.66641,116.15874a34.24822,34.24822,0,0,1,.28888,5.06792,11.87447,11.87447,0,0,1-.80065,4.9426c-.28053.5763.58155,1.08387.86347.50472a12.75267,12.75267,0,0,0,.93461-5.29943,35.789,35.789,0,0,0-.322-5.48165c-.08548-.63479-1.04915-.36444-.96428.26584Z"/><path class="u" d="M85.3468,120.29243s-2.16791,7.01558-4.98122,9.957"/><path class="u" d="M72.1085,124.05246a19.22854,19.22854,0,0,1-2.08181,7.17083"/><path d="M158.03543,106.98736a23.71128,23.71128,0,0,0,3.43594-1.59954c1.08424-.57649,2.15035-1.1869,3.23795-1.757.85531-.44833.09793-1.74338-.75708-1.29521-1.05933.55528-2.09808,1.14922-3.15344,1.712-.57622.30727-1.15585.60868-1.74443.89169a11.32114,11.32114,0,0,1-1.4177.60163.76776.76776,0,0,0-.52383.92259.75726.75726,0,0,0,.92259.52383Z"/><path d="M153.49485,94.2602c2.95361,3.2205,3.9048,8.15131,4.3553,12.3607l1.43931-.59618c-3.29032-2.81654-7.84846-2.43887-11.84116-3.31873a.86594.86594,0,0,0-.95215.38747,14.92235,14.92235,0,0,0-1.44161,6.22582l1.06726-.813c-3.67041-.64372-6.86654,2.77469-9.61337,4.67791-.886.61389-.0439,2.07615.85109,1.456,1.32333-.9169,2.55882-1.95391,3.89771-2.84966,1.22434-.81912,2.86233-1.9308,4.4163-1.65826a.85981.85981,0,0,0,1.06727-.813,12.89878,12.89878,0,0,1,1.21138-5.37473L147,104.332c3.589.79088,8.14512.35817,11.09707,2.88506.49123.4205,1.52418.19678,1.43931-.59618-.50169-4.68767-1.56194-9.96877-4.8492-13.55306-.73509-.80152-1.92507.39345-1.19236,1.19236Z"/><path class="f" d="M31.79475,68.19413s2.618.28722,2.41984-.41343"/></svg>