<svg xmlns="http://www.w3.org/2000/svg" xmlns:xlink="http://www.w3.org/1999/xlink" viewBox="0 0 222.66748 222.67"><defs><style>.a{fill:#cab192;}.b{fill:#747c58;}.c{fill:#ededed;}.d{fill:#cecece;}.e,.f,.r,.s,.v{fill:none;}.e,.f,.j,.k,.v{stroke:#000;}.e,.f,.q,.r,.s,.v{stroke-linecap:round;}.e,.f,.j,.k,.s,.v{stroke-miterlimit:10;}.e{stroke-width:1.38334px;}.f{stroke-width:1.10591px;}.g,.j,.k{fill:#c9b092;}.h{fill:#27421d;}.i{fill:#54593e;}.j{stroke-width:0.43302px;}.k{stroke-width:0.66735px;}.l{fill:#080808;}.m{clip-path:url(#a);}.n{fill:#271d1d;}.o{clip-path:url(#b);}.p{fill:#707171;}.q{fill:#284220;}.q,.r,.s{stroke:#27421d;stroke-width:2px;}.q,.r{stroke-linejoin:round;}.t{fill:#525222;}.u{fill:#231f20;}</style><clipPath id="a"><polygon class="a" points="158.771 89.061 156.32 77.801 157.578 75.606 161.717 72.458 163.466 64.634 159.336 62.324 153.271 47.292 139.863 44.713 128.177 50.689 128.184 67.058 126.406 69.396 129.189 76.933 130.564 77.786 131.28 82.126 135.187 85.73 136.78 94.813 132.987 101.631 140.466 117.675 151.411 120.629 162.706 103.796 167.773 92.949 158.771 89.061"/></clipPath><clipPath id="b"><polygon class="b" points="178.732 173.172 171.549 176.052 153.125 174.659 130.472 172.898 129.367 171.186 130.472 167.428 119.503 128.942 111.582 116.284 115.135 104.312 131.484 96.365 136.444 91.009 136.764 94.195 136.411 99.732 145.182 114.641 158.994 95.856 158.846 86.891 163.681 91.068 182.145 98.879 183.53 124.693 181.285 132.663 178.732 173.172"/></clipPath></defs><circle class="c" cx="111.3335" cy="111.33499" r="108.83386"/><path class="d" d="M111.3335,5.00131c58.48339,0,106.334,47.85008,106.334,106.33358v.00023c0,58.48346-47.85059,106.33357-106.334,106.33357S5,169.81858,5,111.33512v-.00023C5,52.85139,52.8501,5.00131,111.3335,5.00131m0-5A111.20484,111.20484,0,0,0,32.7002,189.96869,111.20489,111.20489,0,1,0,189.96729,32.70127a110.54265,110.54265,0,0,0-78.63379-32.7Z"/><path class="e" d="M183.06411,151.20809s2.95875,3.79377,6.6804,2.56624"/><path class="f" d="M182.84523,151.56957s.36425,4.40679,2.93515,4.36391"/><path class="f" d="M183.16537,150.53667s4.33509.87142,5.00646-1.61064"/><path class="g" d="M25.81057,108.25154c-.93528-.59781-4.59532-3.86863-4.52547-4.97645"/><path class="g" d="M23.26362,101.1208l-6.10493,2.56174,1.65405,3.64571,5.48882,3.25615s3.034-.85367,3.11382-1.2005S23.26362,101.1208,23.26362,101.1208Z"/><path class="h" d="M181.95363,143.13558a38.41807,38.41807,0,0,0-5.85447-23.48781c-.47569-.74964-1.67334-.05644-1.19447.69819a37.16671,37.16671,0,0,1,5.6656,22.78962c-.06874.88776,1.31494.88331,1.38334,0Z"/><polygon class="b" points="181.652 172.767 196.252 155.913 198.736 151.101 188.454 148.484 178.981 153.043 162.95 173.698 162.957 176.256 175.263 176.33 175.887 175.667 181.652 172.767"/><polygon class="b" points="183.135 98.409 198.736 151.101 193.209 157.425 186.538 156.3 166.731 126.769 168.391 108.437 171.904 100.214 178.431 96.271 183.135 98.409"/><polygon class="i" points="177.486 155.164 177.728 157.097 179.729 153.795 181.478 153.154 183.948 155.665 184.215 152.979 186.869 153.824 185.198 151.275 187.014 150.27 182.862 149.59 180.602 144.785 175 136.511 175.568 139.946 179.121 146.459 181.229 149.794 182.216 151.314 178.959 152.958 177.486 155.164"/><path class="g" d="M23.1533,99.94141s4.81225,2.268,5.61171,2.20177,1.82575,1.21388,1.82575,1.21388l1.86812,3.59162.63429,2.64616,1.5459.24648,3.06718.19022s4.06593.78932-2.45523,9.33287l-3.80159-.5449-4.15762.54413L22.6966,118.045s-4.59948,1.15245-6.16406-1.40131"/><path class="j" d="M27.64583,103.41762l-1.07178-.91914a4.22481,4.22481,0,0,1-1.37165-4.14857c.26123-1.1396.44873-2.29585.19666-2.50495-.52185-.43288-2.20514-4.17617-3.47628-1.7338s-1.66353,7.133-1.66353,7.133"/><path class="k" d="M16.58537,116.93193s-3.376.23862-3.64241-2.09251,1.016-1.55654,1.016-1.55654.29244.82316.96058.904,2.31588.47977,2.31588.47977,1.00356.14014.98234.35582,1.02464.82248.39066,1.18949A10.83691,10.83691,0,0,1,16.58537,116.93193Z"/><path class="k" d="M13.65343,113.16664s-.92789-1.67923-.60774-2.228a3.98855,3.98855,0,0,1,1.54422-1.03534l1.62712,1.699s2.57017.49114,3.11034.4983,1.64447.12692,1.57914.35459.47914.21982.42911,1.15a2.30431,2.30431,0,0,1-.81892,1.53105l-2.29893-.11368-3.83809-1.1014Z"/><path class="k" d="M14.58991,109.90326s-.9325-1.94321-.65471-2.1099.97471-1.83945,1.687-1.48721a10.68118,10.68118,0,0,1,2.07479,2.22172,16.83092,16.83092,0,0,0,2.57994.64179c.08929-.12223,1.49313.84323,1.49313.84323l.23451,1.42672-.73428,1.07064-1.94288-.40969-3.11034-.4983Z"/><path class="k" d="M15.87485,106.37036s-1.09224-1.63577-.05614-2.6198S19.07,101.48018,19.67,101.65237a4.6162,4.6162,0,0,0,1.31662.13141L18.251,103.75859s-.32016.5488.03052.64944,1.42667.508,1.42667.508l.31148.23723,1.50241,1.36751s1.2051,1.47933.898,1.9826-.45657,1.79262-1.448.98983a4.69459,4.69459,0,0,0-2.78335-.68143Z"/><polygon class="b" points="137.375 107.177 132.036 105.016 123.084 101.121 74.61 121.133 69.846 128.464 74.265 135.608 121.671 130.162 136.843 114.65 137.375 107.177"/><path d="M177.95944,141.69493c-1.69648-3.97184-5.50944-6.15133-9.62559-6.867a.86758.86758,0,0,0-1.03715.58888.8502.8502,0,0,0,.58887,1.03715,13.57848,13.57848,0,0,1,5.24229,1.945,9.26381,9.26381,0,0,1,3.37554,4.147.84831.84831,0,0,0,1.15356.30248.86543.86543,0,0,0,.30248-1.15356Z"/><path class="l" d="M173.03534,138.36871l-3.97781,4.26046a.84313.84313,0,0,0,1.19236,1.19237l3.97781-4.26046a.84313.84313,0,0,0-1.19236-1.19237Z"/><path class="l" d="M177.7485,141.69493a3.8385,3.8385,0,0,0-1.55048-1.45438,5.07825,5.07825,0,0,0-1.89891-.4296,7.85755,7.85755,0,0,0-1.86433.1519,2.85477,2.85477,0,0,0-1.61762.78166.86468.86468,0,0,0,0,1.19236.85052.85052,0,0,0,1.19236,0c.00787-.00915.08489-.10484.09775-.10136-.01421-.00385-.1798.11239-.02782.02518.06082-.0349.34232-.1538.13171-.08207a5.24069,5.24069,0,0,1,.70645-.19659c.05829-.01118.11683-.02078.17535-.03068.08357-.01414.14541-.01874.025-.005.13042-.01487.26083-.028.3918-.037a7.14382,7.14382,0,0,1,.72975-.01442c.103.00349.20537.01079.308.01917.028.00229.17372.02461.04694.00448-.14219-.02257.06761.0126.09586.01754a4.37143,4.37143,0,0,1,.73582.19451c-.105-.03792-.07231-.03488.01039.00833.049.0256.09828.05041.14608.07827.05835.034.11346.0722.17.1089.17263.11206-.1014-.10974.0485.04124.0886.08924.18132.17187.2644.26689.0024.00274.15305.19587.0743.08833.05332.07281.10318.148.15266.22342a.86224.86224,0,0,0,1.15357.30248.8519.8519,0,0,0,.30247-1.15356Z"/><path class="l" d="M176.10492,139.7014a2.23551,2.23551,0,0,0-1.20989-.28823,9.53433,9.53433,0,0,1-.99754-.03277l.22414.03012a1.31212,1.31212,0,0,1-.30047-.076l.20141.085a.73038.73038,0,0,1-.12879-.07095l-.85108,1.456a1.702,1.702,0,0,0,1.4115.35807.836.836,0,0,0,.54638-.48818.8712.8712,0,0,0-.0425-.75038l-.53-1.16664-1.3242,1.02172,1.229,1.14792a.88117.88117,0,0,0,.59618.24694.84313.84313,0,0,0,.59619-1.43931l-1.229-1.14791a.8487.8487,0,0,0-1.107-.06592.8044.8044,0,0,0-.30215.438l-.03012.22414a.83937.83937,0,0,0,.11511.42554l.53,1.16665.50388-1.23856a.348.348,0,0,1-.06053.01535l.22413-.03012a.53386.53386,0,0,1-.1243-.00006l.22413.03012a.82647.82647,0,0,1-.15818-.04541l.20141.085a3.08222,3.08222,0,0,1-.41881-.24295.84333.84333,0,0,0-1.23855.95215.94709.94709,0,0,0,.38747.50388,2.23548,2.23548,0,0,0,1.20989.28822,9.53434,9.53434,0,0,1,.99754.03278l-.22414-.03012a1.31262,1.31262,0,0,1,.30047.076l-.20141-.085a.73038.73038,0,0,1,.12879.071.84333.84333,0,0,0,1.23855-.95215.94705.94705,0,0,0-.38747-.50388Z"/><polygon class="b" points="33.942 108.489 43.086 110.022 47.274 108.338 73.22 112.687 86.147 121.823 82.4 132.48 79.427 134.113 76.075 134.79 42.568 126.335 39.769 121.877 31.918 120.561 35.036 111.333 33.942 108.489"/><path d="M84.83214,117.36648a20.48561,20.48561,0,0,1,3.23065,4.5105c.30111.569,1.16457.06431.86347-.50472a21.47749,21.47749,0,0,0-3.387-4.71288c-.44335-.4683-1.14962.23969-.7071.7071Z"/><path d="M48.295,126.25319c-.04252-.00328-.08484-.00817-.12731-.01185-.15018-.013.01814-.00485.07262.01107a2.90574,2.90574,0,0,0-.31755-.04978c-.267-.04579-.53274-.09941-.7975-.15683q-.98364-.21333-1.95-.49958c-.33054-.0981-.65916-.203-.98417-.3181q-.23018-.08156-.45755-.17074c-.062-.02447-.12373-.04962-.18537-.075.20645.085-.05219-.02462-.09016-.04205a6.24588,6.24588,0,0,1-.67095-.36469c-.13365-.08228-.03013.03307.02678.02644-.02193.00256-.08769-.07684-.10535-.09222-.00894-.00779-.08344-.093-.08541-.092.043-.0205.13261.20892.048.03986a.84326.84326,0,0,0-1.456.85109,2.65186,2.65186,0,0,0,1.282,1.03618,14.67033,14.67033,0,0,0,2.086.7841,17.72523,17.72523,0,0,0,3.71193.81041.85035.85035,0,0,0,.84313-.84313.85981.85981,0,0,0-.84313-.84313Z"/><path d="M25.30138,108.03458a14.06454,14.06454,0,0,1-1.62922-1.799c-.34259-.42323-.60913-.77165-.94121-1.24786a11.40434,11.40434,0,0,1-.77462-1.24724c-.05289-.10163-.101-.20511-.14935-.30891-.0303-.065.01772.04261.01871.04517-.01037-.02694-.02191-.05345-.03164-.08063-.01607-.0449-.03261-.08953-.04693-.135-.01324-.04207-.02437-.08454-.036-.127-.00751-.02737-.03738-.16852-.01495-.05087.02164.11345.00458-.01045.00033-.03925-.00829-.0561.03053-.19637-.01093.03257a.64248.64248,0,0,0-.43652-.76883.63043.63043,0,0,0-.76882.43653,3.8596,3.8596,0,0,0,.95832,2.56177,24.9902,24.9902,0,0,0,2.103,2.70482,9.69061,9.69061,0,0,0,.876.90768.64047.64047,0,0,0,.88389,0,.6307.6307,0,0,0,0-.88388Z"/><polygon class="a" points="158.771 89.061 156.32 77.801 157.578 75.606 161.717 72.458 163.466 64.634 159.336 62.324 153.271 47.292 139.863 44.713 128.177 50.689 128.184 67.058 126.406 69.396 129.189 76.933 130.564 77.786 131.28 82.126 135.187 85.73 136.78 94.813 132.987 101.631 140.466 117.675 151.411 120.629 162.706 103.796 167.773 92.949 158.771 89.061"/><g class="m"><polygon class="n" points="156.175 68.601 163.178 54.186 115.19 10.049 128.582 68.927 129.268 52.281 137.865 52.843 146.597 50.038 147.809 53.461 152.675 55.832 156.175 68.601"/></g><polygon points="135.003 59.492 134.347 57.417 129.77 59.584 129.299 61.296 135.003 59.492"/><path d="M145.78941,74.275a12.55885,12.55885,0,0,1-7.39476,2.39584.801.801,0,0,0,0,1.6011,14.02127,14.02127,0,0,0,8.20287-2.61443.82355.82355,0,0,0,.2872-1.09531.80688.80688,0,0,0-1.09531-.2872Z"/><path d="M153.15086,81.528l-6.93562,5.98127-6.11236,1.7979-4.91625-3.577,4.58348,7.66941a4.33,4.33,0,0,0,2.27655,1.88334h0a4.33,4.33,0,0,0,2.10731.20294l.21167-.0322a4.3299,4.3299,0,0,0,2.60426-1.42578l1.38083-1.57456a4.33013,4.33013,0,0,0,.80919-1.36252l2.56032-6.97329Z"/><path d="M152.34667,81.75613c-1.23214,1.37718-2.53316,2.69464-3.79692,4.04265-.25958.27689-.52024.55307-.77332.83594-.46.5141.29762,1.27672.76.76,1.23214-1.37718,2.53316-2.69464,3.79692-4.04266.25958-.27688.52024-.55306.77332-.83593.46-.51411-.29762-1.27673-.76-.76Z"/><path d="M132.76927,61.72011c.06854.12228.13061.247.19061.37361.07.14759-.05223-.13876.02363.05737q.03784.09783.07141.1972a6.12816,6.12816,0,0,1,.19262.785q.014.0913-.00735-.06446.00754.05947.01361.11912.00906.08946.01488.17922.01359.20931.00865.41934c-.00324.14006-.01475.279-.02822.41839-.01962.203.03371-.1758-.00428.02461-.0149.07858-.02855.15718-.04517.23546l1.338-.35326c-.11545-.09478-.20476-.22547-.31882-.31685.027.02163.09579.13322.03575.04439-.023-.034-.04644-.06753-.06844-.1022q-.05947-.09374-.11055-.19243-.02278-.044-.044-.08884c-.01241-.02614-.07472-.1622-.01981-.04132.051.11228.00355.00357-.00553-.02107q-.02184-.05925-.04156-.11922a4.264,4.264,0,0,1-.11839-.44588q-.02151-.10185-.039-.20452c-.00736-.043-.01308-.08629-.02063-.12923-.01894-.10772.01951.16565.00714.05675-.01781-.15691-.03445-.31365-.046-.47118-.01141-.15565-.01963-.31152-.02639-.46744-.00171-.03934.00036-.08111-.00423-.12006-.0123-.10434-.00968.04732-.01856.08.02892-.10656-.02834.05386-.03912.07338q-.96894.51662-1.18861-.08565a.57129.57129,0,0,1-.03463-.42776l.20588-.35326.12951-.1014.404-.1093-.0265.00138a.80055.80055,0,1,0,0,1.6011.87471.87471,0,0,0,.82732-1.13234.92812.92812,0,0,0-1.32378-.56594c-.65428.36261-.54815,1.164-.49108,1.79061a4.19687,4.19687,0,0,0,1.24382,2.98038.83361.83361,0,0,0,.77889.20588.79468.79468,0,0,0,.55914-.55914,5.69836,5.69836,0,0,0-.5918-3.97859.80068.80068,0,1,0-1.3825.8081Z"/><path d="M144.79032,59.89148c.06855.12228.13061.247.19062.37361.07.1476-.05223-.13875.02363.05738q.03783.09782.0714.19719a6.12986,6.12986,0,0,1,.19263.785q.014.09131-.00736-.06446.00754.05948.01362.11912.009.08946.01487.17922.01359.20931.00866.41934c-.00325.14006-.01476.279-.02823.4184-.01962.203.03372-.17581-.00428.0246-.01489.07858-.02855.15718-.04516.23546l1.338-.35326c-.11545-.09478-.20476-.22547-.31882-.31685.027.02163.0958.13322.03575.04439-.023-.034-.04643-.06752-.06844-.1022q-.05946-.09372-.11055-.19243-.02278-.044-.044-.08884c-.0124-.02614-.07472-.1622-.01981-.04132.051.11228.00355.00357-.00553-.02107q-.02184-.05924-.04155-.11922a4.26088,4.26088,0,0,1-.11839-.44588q-.02153-.10185-.039-.20452c-.00737-.043-.01308-.08629-.02063-.12923-.019-.10772.0195.16565.00713.05675-.01781-.15691-.03445-.31365-.046-.47118-.01141-.15565-.01964-.31152-.0264-.46744-.00171-.03934.00037-.08111-.00423-.12006-.0123-.10434-.00967.04732-.01856.08.02893-.10656-.02834.05386-.03911.07338q-.969.51661-1.18861-.08565a.57124.57124,0,0,1-.03463-.42776l.20588-.35325.1295-.10141.40405-.1093-.0265.00138a.80055.80055,0,0,0,0,1.6011.87472.87472,0,0,0,.82733-1.13234.92813.92813,0,0,0-1.32379-.56594c-.65428.36261-.54815,1.164-.49107,1.79061a4.19677,4.19677,0,0,0,1.24382,2.98038.83359.83359,0,0,0,.77889.20588.79468.79468,0,0,0,.55913-.55914,5.69831,5.69831,0,0,0-.5918-3.97859.80068.80068,0,1,0-1.3825.8081Z"/><path d="M160.2075,67.235l-1.98217,1.41789a.86405.86405,0,0,0-.3679.47844.81814.81814,0,0,0,.0807.61687.808.808,0,0,0,.47843.3679.78692.78692,0,0,0,.61687-.0807l1.98218-1.4179a.86405.86405,0,0,0,.3679-.47844.81819.81819,0,0,0-.0807-.61687.8081.8081,0,0,0-.47844-.3679.78693.78693,0,0,0-.61687.08071Z"/><path d="M158.74982,66.67535l-.95651,2.63717a.80092.80092,0,0,0,.55914.98477.8214.8214,0,0,0,.98477-.55914l.95651-2.63716a.80092.80092,0,0,0-.55914-.98477.82139.82139,0,0,0-.98477.55913Z"/><path d="M162.25057,64.68814a6.35919,6.35919,0,0,0-3.40832,1.80768A.80055.80055,0,1,0,159.9744,67.628c.09947-.10134.20194-.19952.30863-.29326q.07527-.06612.15291-.12947c.03866-.03155.14777-.10471-.02447.01646.02726-.01918.05328-.04036.08014-.06013a5.614,5.614,0,0,1,.72157-.451c.11767-.06169.24617-.10815.36133-.17335-.06223.03523-.14365.05878-.02943.0131q.04651-.0186.09336-.03637.09369-.03553.1886-.06769a5.63422,5.63422,0,0,1,.84917-.21418.80406.80406,0,0,0,.55913-.98477.823.823,0,0,0-.98477-.55914Z"/><path d="M179.3631,123.84512a14.63815,14.63815,0,0,0-4.14564-3.76662,7.76264,7.76264,0,0,0-4.90573-.90125.748.748,0,0,0-.51933.91466.76378.76378,0,0,0,.91466.51933c3.23342-.43553,5.74032,1.96007,7.60449,4.28543a.74823.74823,0,0,0,1.05155,0,.76136.76136,0,0,0,0-1.05155Z"/><path class="l" d="M174.60645,120.81273c-.49785,1.82616-.538,3.74274-1.03583,5.56891a.74419.74419,0,0,0,1.434.39533c.49784-1.82616.538-3.74274,1.03583-5.56891a.74419.74419,0,0,0-1.434-.39533Z"/><path class="l" d="M179.3631,123.84512a5.1004,5.1004,0,0,0-3.48659-1.19889,1.44336,1.44336,0,0,0-.86809.31914,2.0279,2.0279,0,0,0-.42253.51813,6.94444,6.94444,0,0,0-.62786,1.4712,13.18691,13.18691,0,0,0-.38741,1.42694.74374.74374,0,1,0,1.434.39533A13.18754,13.18754,0,0,1,175.392,125.35q.06974-.21187.14773-.42092c.02569-.06836.053-.136.0796-.204q.04726-.11466-.013.02978.02071-.04788.04225-.09539c.05379-.11845.1113-.23545.17592-.3484.029-.05073.06157-.09908.09148-.14919.09977-.16715-.07867.07035.0007-.00673.03155-.03064.06665-.06548.09524-.09881.07552-.08807-.17377.10545-.02991.03124q-.20771.07945-.10473.04666a.616.616,0,0,1,.06552-.01214q-.18973.024-.06628.01125.0468-.00392.09372-.006a3.27325,3.27325,0,0,1,.41581.00935c.03983.00323.28955.03952.08788.00656.0795.013.15887.02579.23787.04166a5.01642,5.01642,0,0,1,.48821.12389q.12323.03793.24435.0823.06078.02227.12093.04625-.11664-.051.00116.00081a4.3822,4.3822,0,0,1,.45251.23962c.071.04418.13976.09131.20742.14037-.14083-.10211.06078.05639.08518.07855a.74356.74356,0,1,0,1.05155-1.05155Z"/><path class="l" d="M177.33341,122.20574a1.40731,1.40731,0,0,0-.63458-.1587,2.36557,2.36557,0,0,0-.53376.07033c-.24885.05594-.49078.14332-.74418.17822l.19767-.02656a1.02468,1.02468,0,0,1-.23893.00472l.19767.02656a.597.597,0,0,1-.14074-.03651l.17762.075-.03233-.01524-.75058,1.28408a3.30184,3.30184,0,0,0,.54159.219,1.04441,1.04441,0,0,0,.85281-.11355.79244.79244,0,0,0,.34171-.44437.73585.73585,0,0,0-.075-.573l-.70791-1.0148-1.01733,1.01733,1.227.852a.74374.74374,0,0,0,1.09228-.83971.83391.83391,0,0,0-.34171-.44437l-1.22695-.852-.17762-.075a.56335.56335,0,0,0-.2965-.01328.70666.70666,0,0,0-.42694.20451.885.885,0,0,0-.19122.3281.74456.74456,0,0,0,.075.573l.70791,1.0148.26676-1.01733a.31566.31566,0,0,1-.06078.03615l.17762-.075a.36691.36691,0,0,1-.068.01632l.19767-.02656a.5087.5087,0,0,1-.09906-.00349l.19767.02656a1.12925,1.12925,0,0,1-.23855-.07566l.17762.075c-.05942-.02564-.11815-.0528-.17742-.07878a.81168.81168,0,0,0-.573-.075.75839.75839,0,0,0-.44437.34171.75056.75056,0,0,0-.075.573.73956.73956,0,0,0,.3417.44437,1.40752,1.40752,0,0,0,.63459.1587,2.36564,2.36564,0,0,0,.53376-.07033c.24884-.05595.49077-.14332.74417-.17822l-.19766.02656a1.02413,1.02413,0,0,1,.23893-.00473l-.19767-.02656a.5976.5976,0,0,1,.14074.03652l-.17762-.075.03233.01523a.79205.79205,0,0,0,.57295.075.75833.75833,0,0,0,.44437-.34171.75049.75049,0,0,0,.075-.573.73954.73954,0,0,0-.34171-.44437Z"/><path d="M145.23705,75.051a2.5541,2.5541,0,0,1-.30916.91716c-.08994.15956-.18957.31355-.29411.46388q-.09375.13485-.19292.26618c.053-.07017-.01023.01345-.02926.03691a9.44327,9.44327,0,0,1-1.3638,1.36546,8.63352,8.63352,0,0,1-3.58714,1.71549.84334.84334,0,0,0,.44828,1.626,10.31361,10.31361,0,0,0,4.33122-2.14914,9.313,9.313,0,0,0,1.44553-1.46918,5.069,5.069,0,0,0,1.17738-2.3245.87131.87131,0,0,0-.58887-1.03715.84924.84924,0,0,0-1.03715.58887Z"/><polygon class="b" points="178.732 173.172 171.549 176.052 153.125 174.659 130.472 172.898 129.367 171.186 130.472 167.428 119.503 128.942 111.582 116.284 115.135 104.312 131.484 96.365 136.444 91.009 136.764 94.195 136.411 99.732 145.182 114.641 158.994 95.856 158.846 86.891 163.681 91.068 182.145 98.879 183.53 124.693 181.285 132.663 178.732 173.172"/><g class="o"><polygon class="i" points="177.23 121.471 183.072 125.696 181.285 132.038 179.498 156.899 169.501 136.957 177.23 121.471"/></g><path d="M129.08706,109.94839a6.59775,6.59775,0,0,1,2.8358-3.67778,13.455,13.455,0,0,1,3.72924-1.26184l-.95216-.38747a14.93552,14.93552,0,0,1,1.2765,3.89816c.15184.87761,1.12477,1.4749,1.76044,2.01648,1.13081.96342,2.2769,1.909,3.395,2.88722.49371.43193.98678.86721,1.45312,1.32886.15563.15407.31118.30984.45364.47634.13337.15587.01145.06367.07177.09076a.92311.92311,0,0,1,.04935.08341q-.25614-.47569.28442-.9549c-.88935.61009-.04692,2.07206.85109,1.456.944-.64759.23776-1.56838-.33593-2.1609-.782-.80767-1.65252-1.53458-2.50637-2.26393-.95049-.81189-1.91411-1.60839-2.86133-2.4241-.3067-.26413-.612-.52995-.90539-.8089a1.49991,1.49991,0,0,0-.12994-.13025c-.11047-.08075-.01059-.08667-.03225-.02793-.00371.01006.08509.32724.13637.25142.06172-.09127-.05006-.45881-.0683-.56561a15.80994,15.80994,0,0,0-1.43619-4.00326.85649.85649,0,0,0-.95216-.38747,13.594,13.594,0,0,0-4.45826,1.62261,8.62434,8.62434,0,0,0-3.28452,4.49477c-.37789,1.01884,1.25131,1.45856,1.626.44827Z"/><path d="M136.24835,106.64945a21.48991,21.48991,0,0,0-4.11881.485,26.45859,26.45859,0,0,0-3.85247,1.2518.86869.86869,0,0,0-.58887,1.03715.84912.84912,0,0,0,1.03715.58887,26.861,26.861,0,0,1,3.73711-1.22529,19.0215,19.0215,0,0,1,3.78589-.4513c1.08276-.03145,1.08727-1.71784,0-1.68626Z"/><path d="M133.27481,94.073c-2.59424,2.29392-3.91655,5.80313-4.74992,9.07778a34.25779,34.25779,0,0,0-1.00952,5.9714c-.07712,1.08286,1.60948,1.078,1.68626,0a31.38221,31.38221,0,0,1,.90966-5.36582c.76335-3.06126,1.92915-6.34519,4.35589-8.491.81458-.72029-.38168-1.90921-1.19237-1.19237Z"/><path class="l" d="M114.2064,122.75286a13.773,13.773,0,0,1,5.04052,10.1116c.02813.95039,1.50844.9544,1.4802,0a15.2156,15.2156,0,0,0-5.47407-11.15826c-.7245-.60952-1.7768.43239-1.04665,1.04666Z"/><path d="M172.41668,117.7764q-10.44239,1.446-20.95318,2.27632c-1.07475.08427-1.08384,1.77124,0,1.68625q10.73617-.84181,21.40145-2.33654c1.07024-.1482.61472-1.77322-.44827-1.626Z"/><path d="M150.739,120.77879c-1.06794,2.17593-.87377,4.58019-1.40474,6.88771a.86133.86133,0,0,0,.58888,1.03714.85256.85256,0,0,0,1.03715-.58887c.48909-2.12554.25513-4.48892,1.23475-6.48489a.86488.86488,0,0,0-.30248-1.15356.851.851,0,0,0-1.15356.30247Z"/><path d="M150.41658,129.27858a135.37768,135.37768,0,0,0,20.08495-.53751c1.069-.10959,1.08028-1.797,0-1.68626a135.37768,135.37768,0,0,1-20.08495.53751c-1.08487-.05023-1.08233,1.63615,0,1.68626Z"/><path d="M172.01232,118.93021a21.66561,21.66561,0,0,1-.1202,8.27816c-.22179,1.0588,1.40331,1.51146,1.626.44828a23.87346,23.87346,0,0,0,.12019-9.17472.85055.85055,0,0,0-1.03715-.58887.86173.86173,0,0,0-.58887,1.03715Z"/><path d="M172.57254,126.7405l-2.07251.44255a.84334.84334,0,1,0,.44828,1.626l2.0725-.44255a.84334.84334,0,1,0-.44827-1.626Z"/><path class="l" d="M144.42923,173.14992a14.7065,14.7065,0,0,1,.97448-4.593,25.3185,25.3185,0,0,0,1.19594-5.70513c.25288-3.16817.24612-6.37095.26932-9.547.0567-7.76143-.08929-15.52391-.23914-23.28356-.06931-3.589-.14791-7.17789-.19787-10.76721a.84364.84364,0,0,0-1.68626,0c.19652,14.11848.935,28.30612.23669,42.419a24.50236,24.50236,0,0,1-1.15829,6.29114,16.66729,16.66729,0,0,0-1.08113,5.18584.84364.84364,0,0,0,1.68626,0Z"/><path d="M140.50838,122.11576a11.367,11.367,0,0,1-1.60363,7.21922c-.5241.95108.93159,1.80278,1.456.85109a13.20041,13.20041,0,0,0,1.77362-8.51858.84921.84921,0,0,0-1.03715-.58888.86394.86394,0,0,0-.58887,1.03715Z"/><path d="M140.67033,121.23286a65.2834,65.2834,0,0,0-17.82044,1.7991c-1.05414.25555-.60775,1.882.44828,1.626a63.55082,63.55082,0,0,1,17.37216-1.73886c1.08526.04066,1.08355-1.64566,0-1.68626Z"/><path d="M122.56575,123.79416a13.85148,13.85148,0,0,1-.78351,5.65435.85129.85129,0,0,0,.58887,1.03715.86016.86016,0,0,0,1.03715-.58888,15.21307,15.21307,0,0,0,.84375-6.10262.86309.86309,0,0,0-.84313-.84313.85038.85038,0,0,0-.84313.84313Z"/><path d="M139.74375,128.75893c-.0781.01705-.31778.05224-.10547.02241-.17033.02393-.34224.03906-.51336.056-.51.05063-1.02117.09052-1.53217.1298-1.42393.10945-2.84911.203-4.27418.29614-3.13561.205-6.273.38875-9.40651.6253a20.55052,20.55052,0,0,0-2.813.28476c-1.05971.23138-.61126,1.85737.44827,1.626.07852-.01714.31773-.0494.10548-.02241.17077-.02171.34207-.039.51336-.056.51-.05063,1.02117-.09052,1.53216-.1298,1.42394-.10946,2.84911-.203,4.27419-.29615,3.13561-.205,6.273-.38874,9.4065-.6253a20.54894,20.54894,0,0,0,2.813-.28476c1.0597-.23138.61125-1.85737-.44828-1.626Z"/><line class="p" x1="136.74575" y1="107.53363" x2="132.37267" y2="108.32196"/><path d="M135.70478,104.27373a7.91376,7.91376,0,0,0-6.994,3.98412l.07287.82681,6.87717-1.76949.92092.249Z"/><path d="M164.82462,103.19518c-1.48544.06376-2.96419.24147-4.442.39689-.73172.07695-1.46379.152-2.19733.20966-.3424.02689-.68534.05127-1.02853.06565-.04076.00171-.19392-.01668-.224.00679.162-.12661.26682.85555.44664.30551.07313-.2237.15009-.44622.22512-.66929l-1.65614-.22413a1.88786,1.88786,0,0,0,.68392,1.71384,1.38253,1.38253,0,0,0,1.89514-.36991,1.35831,1.35831,0,0,0-.43411-1.8732,1.06252,1.06252,0,0,0-1.56175,1.02979,1.45607,1.45607,0,0,0,1.4494,1.2962,4.2047,4.2047,0,0,0,1.38676-.1545c.49191-.11806.974-.27352,1.46514-.39442.101-.02485.20232-.04871.30418-.06974.03908-.00807.34758-.05516.253-.04582.08711-.0086.17421-.01161.26171-.01278q.08106.00042.16173.00841-.14618-.01872-.00369.0118a.84386.84386,0,0,0,.44827-1.626c-1.24576-.4133-2.6378-.07213-3.91875-.12482-1.08511-.04463-1.08306,1.64171,0,1.68626.6025.02478,1.20684-.03039,1.80884-.04984a4.872,4.872,0,0,1,1.66164.11442l.44827-1.626a4.7061,4.7061,0,0,0-2.39715.2477c-.37894.10536-.75664.21863-1.14158.30063a1.67053,1.67053,0,0,1-.42177.062,1.59147,1.59147,0,0,1-.24177-.00467l.07766.00837q-.49571-.18985-.1333.75646h-.85109a.15922.15922,0,0,0-.04436-.13842q-.16833-.26964.21452-.47625c.0241-.0056.40868.07993.34077.14621.00068-.00066-.02645-.37118-.02535-.41571a.84723.84723,0,0,0-1.65614-.22414,3.03774,3.03774,0,0,0-.3172,1.53452,1.22772,1.22772,0,0,0,1.21611.96032,17.55743,17.55743,0,0,0,2.55138-.18085c1.79655-.17714,3.591-.4172,5.39582-.49467,1.081-.0464,1.08684-1.73291,0-1.68626Z"/><path class="l" d="M110.209,117.955c2.44721,2.8625,4.91862,5.70423,7.36583,8.56673a.85039.85039,0,0,0,1.19236,0,.86047.86047,0,0,0,0-1.19236c-2.44721-2.8625-4.91861-5.70424-7.36582-8.56674a.85041.85041,0,0,0-1.19237,0,.86048.86048,0,0,0,0,1.19237Z"/><path class="l" d="M119.76072,129.047c-1.16946-2.43919-2.90564-4.53948-4.166-6.9226a.84326.84326,0,1,0-1.456.85108c1.26035,2.38312,2.99652,4.48342,4.166,6.9226a.85079.85079,0,0,0,1.15356.30248.86132.86132,0,0,0,.30247-1.15356Z"/><path d="M183.16538,124.68182a15.27776,15.27776,0,0,0-4.72465-3.15079,7.629,7.629,0,0,0-4.91077-.1982.74419.74419,0,0,0,.39534,1.434c3.15839-.9261,5.94224.90783,8.18853,2.96655.70447.64563,1.75893-.40324,1.05155-1.05155Z"/><path class="l" d="M177.91188,122.4207c-.21383,1.88068.03717,3.781-.17667,5.66168a.748.748,0,0,0,.74356.74355.7611.7611,0,0,0,.74355-.74355c.21384-1.88069-.03716-3.781.17667-5.66168a.748.748,0,0,0-.74355-.74355.76111.76111,0,0,0-.74356.74355Z"/><path class="l" d="M183.01489,124.56556a4.59,4.59,0,0,0-1.98636-.66232,4.45562,4.45562,0,0,0-1.73432.08689c-1.02871.28906-1.23944,1.62136-1.38284,2.52523a15.1022,15.1022,0,0,0-.17616,1.567.74843.74843,0,0,0,.74356.74355.76011.76011,0,0,0,.74355-.74355c.00819-.15532.02061-.31038.03538-.46521q.013-.13644.0286-.27262.009-.07857.0187-.157c.00287-.023.00625-.04607.00879-.06915.01093-.09928-.02278.15733-.0077.05689a10.01676,10.01676,0,0,1,.26736-1.32965c.02635-.09013.05486-.1797.0872-.26787a.65084.65084,0,0,0,.04365-.11269c-.02086.14244-.06162.13359-.02912.073.01136-.02115.02075-.04345.03179-.0648.01814-.03506.03831-.06877.05806-.1029.06214-.10735.06652-.0056-.03714.03915.02122-.00916.03526-.04621.05566-.0595.07762-.05059-.18108.11637-.05249.04578-.06965.03824-.19642.06667-.06128.03385.048-.01167.09532-.02553.14365-.03613.03828-.00839.13053-.00561.157-.02932-.00158.00142-.16034.01507-.07791.01015.0416-.00249.08352-.00927.125-.01279a4.56918,4.56918,0,0,1,.7463.00087c.02927.00232.05852.00481.08774.00764.00384.00037.191.02138.07817.00737-.09719-.01207.00357.00076.0197.00353.04948.00853.099.01643.14839.02576a4.51057,4.51057,0,0,1,.44072.10579q.11517.034.22824.07485c.02793.01015.05549.02208.08363.03159.10313.03485-.15595-.07563.01274.00578a3.37086,3.37086,0,0,1,.40115.2249.74884.74884,0,0,0,1.01733-.26675.76094.76094,0,0,0-.26676-1.01732Z"/><path class="l" d="M180.74826,123.27105a2.37342,2.37342,0,0,0-1.62228.35066l.17762-.075a1.70563,1.70563,0,0,1-.41251.12614l.19766-.02656a.71766.71766,0,0,1-.15873.002l.19767.02657a.57157.57157,0,0,1-.0927-.021l-.39533,1.434a3.29273,3.29273,0,0,0,.57826.11337,1.02157,1.02157,0,0,0,.79755-.29828.75742.75742,0,0,0,0-1.05155l-.854-.8953-.90106,1.16781,1.34227.65546a.7945.7945,0,0,0,.57295.075.75833.75833,0,0,0,.44437-.34171.75052.75052,0,0,0,.075-.573.7366.7366,0,0,0-.34171-.44437l-1.34227-.65546a.77908.77908,0,0,0-.57295-.075.77042.77042,0,0,0-.38624.26647.74664.74664,0,0,0,.05813.9763l.854.89531v-1.05155a.22343.22343,0,0,1-.03375.03116l.15049-.11627a.337.337,0,0,1-.05891.03186l.17762-.075a.44977.44977,0,0,1-.06713.01636l.19766-.02656a.66811.66811,0,0,1-.15128-.00321l.19767.02657a3.20936,3.20936,0,0,1-.3413-.08248.7728.7728,0,0,0-.57295.075.74367.74367,0,0,0,.17762,1.359,2.37349,2.37349,0,0,0,1.62228-.35065l-.17762.075a1.70652,1.70652,0,0,1,.41251-.12614l-.19767.02656a.71766.71766,0,0,1,.15873-.002l-.19766-.02656a.57142.57142,0,0,1,.09269.021.75008.75008,0,0,0,.91466-.51933.75982.75982,0,0,0-.51932-.91466Z"/><path d="M136.30828,62.04212c.68468.95893.29291,2.47605.02351,3.52091a34.85576,34.85576,0,0,1-1.29188,3.78055.65359.65359,0,0,0,.453.79776.66324.66324,0,0,0,.79776-.453,31.12138,31.12138,0,0,0,1.38556-4.16415c.29757-1.29534.58047-2.97651-.24794-4.13676a.66672.66672,0,0,0-.8873-.23266.6538.6538,0,0,0-.23266.8873Z"/><path d="M135.55771,68.08793a2.41719,2.41719,0,0,0-.55116,2.29707,2.6392,2.6392,0,0,0,1.77747,1.93685,4.6201,4.6201,0,0,0,4.65245-.45627,3.71714,3.71714,0,0,0,1.22569-1.13874,1.85719,1.85719,0,0,0,.13226-1.66544c-.23151-.57047-.65387-.99276-1.31934-.78508-.79419.24784-.45519,1.50036.3448,1.2507q.29365-.068-.27705-.12762-.05916-.0821.00508.02389c-.00953-.083.06426.16223.05742.1402a.52981.52981,0,0,1-.01158.4125,2.17242,2.17242,0,0,1-.905.83021,3.02354,3.02354,0,0,1-2.58244.52974,3.82613,3.82613,0,0,1-1.1256-.33867,2.01164,2.01164,0,0,1-.47146-.34716l-.064-.0706q.05734.07577-.009-.02122a1.39591,1.39591,0,0,1-.09391-.17955c.02508.06092-.03529-.12667-.04252-.15337a2.03975,2.03975,0,0,1-.05573-.2612c-.00534-.04-.01245-.26274-.00722-.37013a1.05687,1.05687,0,0,1,.08443-.40477c-.03377.085.04744-.082.04979-.08565q.064-.09732.01336-.0175a.77019.77019,0,0,1,.09046-.081.65329.65329,0,0,0,0-.91714.663.663,0,0,0-.91715,0Z"/><path d="M122.72153,130.736a13.40414,13.40414,0,0,1,.25052,4.52251c-.07478.69322-.16243,1.38466-.20639,2.08084a7.32515,7.32515,0,0,0,.03052,2.40754,2.99057,2.99057,0,0,0,.97158,1.30755,4.00049,4.00049,0,0,0,2.15339.5555c1.84155.26436,3.6809.51292,5.53273.69761a36.07835,36.07835,0,0,0,6.24117.18348,2.57682,2.57682,0,0,0,2.54729-1.79993,46.29852,46.29852,0,0,0,.90258-7.53449,60.99739,60.99739,0,0,1,1.00366-8.57534c.21921-.9391-1.22672-1.33993-1.44642-.39876-1.05792,4.53208-.96943,9.32377-1.54891,13.929-.09222.7329-.06589,2.02847-.60633,2.57026-.481.48223-1.42691.35164-2.06389.36745-.98327.02439-1.9669-.006-2.94831-.06783-1.8587-.11715-3.72222-.31808-5.56668-.5751-.69333-.09661-1.38454-.20766-2.078-.30352-.61057-.0844-1.42287-.05491-1.6563-.7865a7.49389,7.49389,0,0,1,.06985-2.48016c.0542-.63363.14037-1.26385.2017-1.89672a14.24312,14.24312,0,0,0-.33737-4.6022c-.21475-.94073-1.66131-.54257-1.44641.39876Z"/><path d="M151.97665,128.59805q.06516,2.73288.14119,5.46551.06054,2.19674.13011,4.39322c.04138,1.27752-.20364,2.95286.63572,3.99875.60416.75284,1.65947-.31449,1.06066-1.06066-.27868-.34725-.13936-1.26263-.15447-1.69276q-.0334-.95075-.06281-1.90164-.06632-2.11612-.12278-4.23255-.06762-2.48482-.12762-4.96987a.75046.75046,0,0,0-1.5,0Z"/><path d="M168.3091,144.4882c1.174-.20048,2.55352-.68539,2.92093-1.95269a32.48181,32.48181,0,0,0,.78809-4.68274,95.02667,95.02667,0,0,1,1.50176-10.09988c.23112-.93718-1.215-1.337-1.44642-.39876a81.655,81.655,0,0,0-1.37936,9.15922c-.19626,1.52735-.39557,3.05755-.68581,4.57045-.10958.5712-.11873,1.15018-.62989,1.50124a3.85081,3.85081,0,0,1-1.46806.45674c-.94959.16216-.547,1.60792.39876,1.44642Z"/><polygon points="136.306 106.73 134.006 105.902 131.56 106.293 130.335 107.212 129.095 108.686 130.023 109.377 136.981 106.88 136.981 106.88 136.306 106.73"/><path d="M115.83164,111.2454a30.453,30.453,0,0,0,5.43668-.94359,27.50524,27.50524,0,0,1,8.75434-.17511c.9546.12341.94557-1.37776,0-1.5a28.65477,28.65477,0,0,0-8.84508.171,31.79338,31.79338,0,0,1-5.34594.94765.75045.75045,0,0,0,0,1.5Z"/><path d="M116.31378,110.62832c1.00869-2.71346,2.12721-5.38975,3.20107-8.078l-.34922.34922,5.74976-2.01341a2.40705,2.40705,0,0,0,.406-.14216c.00916-.00534.10446-.02673.10635-.03724-.01069.05939-.33434-.07741-.20312.00392a4.551,4.551,0,0,0,1.3272.23858l2.97292.53442c.62926.11312.89924-.85042.26584-.96428-1.37664-.24747-2.75183-.50533-4.13028-.74247a1.62842,1.62842,0,0,0-.93754.11932l-2.235.78264-2.48332.86959a5.3625,5.3625,0,0,0-1.22407.43722c-.30682.21243-.43628.816-.5664,1.14207q-.45381,1.13735-.90676,2.275c-.65705,1.65048-1.33865,3.29441-1.95769,4.95968-.22454.604.74164.86475.96428.26584Z"/><path d="M119.20083,104.14279a1.86893,1.86893,0,0,0-.4822,1.51258,2.71032,2.71032,0,0,0,.60769,1.55388.75.75,0,0,0,1.28033-.53033.83663.83663,0,0,0-.21967-.53033c-.01373-.016-.027-.0322-.04008-.04876l.11728.15179a1.57813,1.57813,0,0,1-.19275-.3417l.07561.17916a2.27891,2.27891,0,0,1-.14493-.543l.02679.19938a1.99172,1.99172,0,0,1-.00494-.504l-.02679.19938a1.28291,1.28291,0,0,1,.08156-.31112l-.0756.17916a.875.875,0,0,1,.10635-.1824l-.11727.15179a.79536.79536,0,0,1,.06928-.07487.75688.75688,0,0,0,0-1.06066.7652.7652,0,0,0-1.06066,0Z"/><path d="M167.433,101.63364c2.05135.51923,4.15315.84233,6.24266,1.16424,1.48577.22889,3.0281.35419,4.4896.71555.93708.2317,1.33687-1.21447.39876-1.44642-1.46151-.36136-3.00383-.48666-4.4896-.71555-2.08951-.32191-4.19131-.645-6.24266-1.16424a.75065.75065,0,0,0-.39876,1.44642Z"/><path d="M165.34358,94.01116c2.56176.69733,5.09692,1.50658,7.625,2.31581a58.71753,58.71753,0,0,1,7.49594,2.6448c.8664.41508,1.62823-.87785.75708-1.29521a60.34833,60.34833,0,0,0-7.67416-2.73829c-2.58741-.83019-5.18258-1.65966-7.80507-2.37353a.75064.75064,0,0,0-.39876,1.44642Z"/><path d="M167.14146,99.28167h9.69627a.75045.75045,0,0,0,0-1.5h-9.69627a.75045.75045,0,0,0,0,1.5Z"/><ellipse class="q" cx="174.8687" cy="112.28573" rx="1.79569" ry="0.96161" transform="translate(-31.88806 133.2331) rotate(-38.49024)"/><ellipse class="q" cx="174.51393" cy="114.75557" rx="1.79569" ry="0.96161" transform="translate(-33.50232 133.54895) rotate(-38.49024)"/><ellipse class="q" cx="174.06429" cy="117.38254" rx="1.79569" ry="0.96161" transform="translate(-35.235 133.83991) rotate(-38.49024)"/><ellipse class="q" cx="173.5485" cy="120.25937" rx="1.79569" ry="0.96161" transform="translate(-37.13756 134.14399) rotate(-38.49024)"/><ellipse class="q" cx="172.81124" cy="123.03279" rx="1.79569" ry="0.96161" transform="translate(-39.02388 134.28775) rotate(-38.49024)"/><ellipse class="q" cx="172.25807" cy="125.69842" rx="1.79569" ry="0.96161" transform="translate(-40.80311 134.52267) rotate(-38.49024)"/><ellipse class="q" cx="171.94858" cy="128.57998" rx="1.79569" ry="0.96161" transform="translate(-42.66379 134.95617) rotate(-38.49024)"/><ellipse class="q" cx="171.44754" cy="131.46283" rx="1.79569" ry="0.96161" transform="translate(-44.56689 135.27074) rotate(-38.49024)"/><ellipse class="q" cx="171.36445" cy="134.5816" rx="1.79569" ry="0.96161" transform="translate(-46.52601 135.89669) rotate(-38.49024)"/><ellipse class="q" cx="171.18874" cy="137.39353" rx="1.79569" ry="0.96161" transform="translate(-48.31428 136.39832) rotate(-38.49024)"/><ellipse class="q" cx="171.19157" cy="140.41939" rx="1.79569" ry="0.96161" transform="translate(-50.1969 137.05756) rotate(-38.49024)"/><path class="q" d="M172.76844,142.35042c.12925.55485-.44183,1.40665-1.27556,1.90254s-1.61438.44811-1.74363-.10673.9375-1.64413,1.77123-2.14S172.63918,141.79557,172.76844,142.35042Z"/><ellipse class="q" cx="171.89077" cy="145.84373" rx="1.79569" ry="0.96161" transform="translate(-53.42098 138.67136) rotate(-38.49024)"/><ellipse class="q" cx="172.54441" cy="148.43012" rx="1.79569" ry="0.96161" transform="translate(-54.88868 139.64016) rotate(-38.49024)"/><ellipse class="q" cx="173.19715" cy="150.57877" rx="1.79569" ry="0.96161" transform="translate(-56.08413 140.51329) rotate(-38.49024)"/><path class="r" d="M174.323,110.93642l2.4999-9.28147,1.008.33112a.93114.93114,0,0,1,.33986,1.02481l-2.54147,7.32443Z"/><path class="s" d="M149.47594,129.13839s1.692,25.67457,11.6872,25.90922S171.87825,145.56,171.87825,145.56"/><path class="s" d="M176.47581,101.59711s4.94023-3.10564,5.13416-3.09026"/><path class="s" d="M176.47581,101.59711s1.78777-3.91032,3.74093-3.91032"/><path d="M173.75988,114.81409a1.752,1.752,0,0,1,.1118.21619l-.07561-.17916a1.16275,1.16275,0,0,1,.07706.27671l-.02679-.19938a.907.907,0,0,1,.00119.21413l.02679-.19938a.86288.86288,0,0,1-.0562.20915l.07561-.17916a1.01625,1.01625,0,0,1-.12578.2134l.11727-.15179a1.49442,1.49442,0,0,1-.25633.252l.15179-.11727a3.20725,3.20725,0,0,1-.71631.39692l.17916-.0756c-.2023.08509-.41215.15623-.60971.252a.75734.75734,0,0,0-.34467.44823.76651.76651,0,0,0,.0756.57792.757.757,0,0,0,.44823.34467.8373.8373,0,0,0,.57792-.07561c.019-.00921.0383-.01771.05773-.026l-.17916.07561a7.69261,7.69261,0,0,0,1.06486-.483,2.35039,2.35039,0,0,0,.58527-.4764,1.8181,1.8181,0,0,0,.256-.36782,1.72993,1.72993,0,0,0,.17191-.61783,1.81548,1.81548,0,0,0-.29244-1.08557.78029.78029,0,0,0-.44822-.34467.75019.75019,0,0,0-.847,1.10175Z"/><path d="M174.7543,111.77743q.02925.05946.0558.12l-.0756-.17916a1.77121,1.77121,0,0,1,.121.41669l-.02679-.19938a1.31851,1.31851,0,0,1,.00263.34328l.02679-.19938a1.23587,1.23587,0,0,1-.08452.30179l.07561-.17916a1.429,1.429,0,0,1-.16581.28013l.11728-.15179a2.0394,2.0394,0,0,1-.37022.36275l.15179-.11727a3.796,3.796,0,0,1-.57235.35165c-.13333.06821-.27371.126-.40265.20241a.75012.75012,0,1,0,.75708,1.29521c.29255-.17334.60886-.29281.88894-.49076a3.05869,3.05869,0,0,0,.72534-.69512,1.95206,1.95206,0,0,0,.35272-.96046,2.29948,2.29948,0,0,0-.28185-1.25855.75443.75443,0,0,0-1.02614-.26906.769.769,0,0,0-.26907,1.02614Z"/><path d="M173.95492,117.63751c.028.05262.05393.10592.07779.16053l-.0756-.17916a1.50643,1.50643,0,0,1,.10506.36925l-.02679-.19938a1.14429,1.14429,0,0,1,.0004.28456l.02679-.19938a1.08491,1.08491,0,0,1-.06958.25342l.0756-.17916a1.26011,1.26011,0,0,1-.16178.27167l.11727-.15179a1.84118,1.84118,0,0,1-.316.30659l.15179-.11727a3.49931,3.49931,0,0,1-.60821.362c-.14393.06928-.29544.12619-.43547.20322a.75725.75725,0,0,0-.26906,1.02614.76547.76547,0,0,0,1.02614.26907c.29275-.161.60681-.26993.88827-.45495a2.17254,2.17254,0,0,0,1.06086-1.48984,2.123,2.123,0,0,0-.27226-1.29257.75628.75628,0,0,0-1.02614-.26907.76656.76656,0,0,0-.26907,1.02615Z"/><path d="M173.27084,120.93367a1.53826,1.53826,0,0,1,.12437.2291l-.07561-.17916a1.00039,1.00039,0,0,1,.0678.24341l-.02679-.19938a.7838.7838,0,0,1,0,.18908l.02679-.19938a.75615.75615,0,0,1-.052.18545l.07561-.17916a.90418.90418,0,0,1-.10631.1783l.11728-.15179a1.3327,1.3327,0,0,1-.23324.22854l.15179-.11728a2.82349,2.82349,0,0,1-.62148.34486l.17916-.0756c-.2469.10371-.50217.18445-.74662.29439a.75194.75194,0,0,0-.34467.44822.7665.7665,0,0,0,.0756.57792.757.757,0,0,0,.44823.34467l.19938.02679a.74642.74642,0,0,0,.37853-.1024l.01849-.00812-.17916.07561c.35168-.14812.71722-.25832,1.05436-.44155a1.87846,1.87846,0,0,0,1.03145-1.23009,1.59488,1.59488,0,0,0-.01948-.68909,1.88979,1.88979,0,0,0-.24826-.55042.79145.79145,0,0,0-.44822-.34467.7665.7665,0,0,0-.57792.0756.75.75,0,0,0-.26906,1.02615Z"/><path d="M172.59183,123.43826a1.36856,1.36856,0,0,1,.13511.23745l-.07561-.17916a.86719.86719,0,0,1,.05995.21543l-.02679-.19938a.6823.6823,0,0,1-.00106.16793l.02679-.19938a.6684.6684,0,0,1-.043.15319l.07561-.17916a.79607.79607,0,0,1-.095.161l.11727-.15179a1.19037,1.19037,0,0,1-.21263.20791l.15179-.11727a2.51955,2.51955,0,0,1-.54351.30221l.17916-.0756c-.22345.09426-.45884.15637-.68211.24974a.83919.83919,0,0,0-.44823.34467.75.75,0,0,0,.26907,1.02615.72206.72206,0,0,0,.57792.0756c.11857-.04958.2433-.08519.36444-.12786a6.196,6.196,0,0,0,.677-.27961,1.82155,1.82155,0,0,0,1.05658-1.1771,1.58058,1.58058,0,0,0-.26753-1.21205.80429.80429,0,0,0-.44822-.34467.76655.76655,0,0,0-.57792.07561.75705.75705,0,0,0-.34467.44822.74234.74234,0,0,0,.0756.57792Z"/><path d="M172.1583,125.81571a1.46,1.46,0,0,1,.13062.23724l-.0756-.17916a.95735.95735,0,0,1,.06121.21627l-.02679-.19938a.7389.7389,0,0,1,.00038.19624l.02679-.19938a.72266.72266,0,0,1-.04624.16421l.07561-.17916a.856.856,0,0,1-.10124.172l.11727-.1518a1.26779,1.26779,0,0,1-.22489.22112l.15179-.11727a2.69833,2.69833,0,0,1-.59441.33l.17916-.07561c-.26094.1095-.531.19285-.79047.30623a.75016.75016,0,0,0-.34467.44822.7665.7665,0,0,0,.0756.57792.757.757,0,0,0,.44823.34467l.19938.02679a.74648.74648,0,0,0,.37854-.1024l.01185-.00511-.17916.0756c.34966-.146.71227-.25126,1.05011-.42807a2.47877,2.47877,0,0,0,.61234-.44142,1.503,1.503,0,0,0,.42762-.76721,1.55572,1.55572,0,0,0-.02055-.69227,1.84828,1.84828,0,0,0-.24728-.53539.79624.79624,0,0,0-.44822-.34467.7665.7665,0,0,0-.57792.0756.74995.74995,0,0,0-.26906,1.02614Z"/><path d="M171.65592,128.83783a1.24853,1.24853,0,0,1,.14466.24679l-.07561-.17916a.78667.78667,0,0,1,.05116.18183l-.02679-.19938a.61873.61873,0,0,1,.00083.15366l.02679-.19938a.604.604,0,0,1-.03814.14063l.07561-.17916a.72458.72458,0,0,1-.09423.15835l.11727-.15179a1.10727,1.10727,0,0,1-.1889.1828l.15179-.11728a2.31975,2.31975,0,0,1-.50067.27842l.17916-.0756c-.246.10367-.5052.16715-.75266.26507a.81773.81773,0,0,0-.44823.34467.75.75,0,0,0,.26907,1.02614.72922.72922,0,0,0,.57792.07561c.11626-.046.238-.07883.35663-.11816a6.33355,6.33355,0,0,0,.68808-.27273,1.74737,1.74737,0,0,0,1.052-1.146,1.39792,1.39792,0,0,0-.0197-.66051,1.65516,1.65516,0,0,0-.2508-.5119.81547.81547,0,0,0-.44822-.34467.76655.76655,0,0,0-.57792.07561.75705.75705,0,0,0-.34467.44822.732.732,0,0,0,.07561.57792Z"/><path d="M171.9041,131.18729c.03153.05691.06052.11465.08673.17421l-.07561-.17916a1.38744,1.38744,0,0,1,.09812.3428l-.02679-.19938a1.05623,1.05623,0,0,1,.00013.26494l.02679-.19938a1.00669,1.00669,0,0,1-.06577.23666l.07561-.17916a1.17346,1.17346,0,0,1-.14172.23992l.11727-.15179a1.703,1.703,0,0,1-.29748.29232l.15179-.11727a3.3333,3.3333,0,0,1-.62824.36847c-.15032.07-.30851.12649-.45522.20392a.75612.75612,0,0,0-.26906,1.02614.76673.76673,0,0,0,1.02614.26907c.28958-.15284.59915-.25531.8788-.43033a2.10509,2.10509,0,0,0,1.0677-1.45888,2.02007,2.02007,0,0,0-.274-1.26018.75746.75746,0,0,0-1.02615-.26906.76525.76525,0,0,0-.26906,1.02614Z"/><path d="M171.72578,134.7935a1.63924,1.63924,0,0,1,.11858.22407l-.0756-.17916a1.07786,1.07786,0,0,1,.07213.26013l-.0268-.19938a.84222.84222,0,0,1,.00016.20164l.02679-.19938a.80867.80867,0,0,1-.05467.19731l.07561-.17916a.96006.96006,0,0,1-.1117.18915l.11727-.15179a1.4006,1.4006,0,0,1-.2441.24141l.15179-.11727a2.99233,2.99233,0,0,1-.67038.37267l.17916-.0756c-.22562.09477-.45895.17117-.68088.27484a.75454.75454,0,0,0-.34467.44822.7665.7665,0,0,0,.0756.57792.757.757,0,0,0,.44823.34467.84937.84937,0,0,0,.57792-.0756l.04055-.01792-.17916.0756a8.77206,8.77206,0,0,0,1.06337-.46421,2.38724,2.38724,0,0,0,.59231-.46211,1.703,1.703,0,0,0,.2636-.36741,1.656,1.656,0,0,0,.17336-.61134,1.74082,1.74082,0,0,0-.29327-1.06438.78562.78562,0,0,0-.44822-.34467.75019.75019,0,0,0-.847,1.10175Z"/><path d="M171.35431,137.30053a1.71968,1.71968,0,0,1,.111.21035l-.07561-.17916a1.13567,1.13567,0,0,1,.07759.26946l-.02679-.19938a.87009.87009,0,0,1,.00077.22525l.02679-.19938a.84141.84141,0,0,1-.05123.18762l.07561-.17916a.98094.98094,0,0,1-.1217.20857l.11728-.15179a1.44778,1.44778,0,0,1-.25016.24681l.15179-.11728a3.09726,3.09726,0,0,1-.69344.38507l.17916-.07561c-.214.09-.43567.16384-.64543.26374a.756.756,0,0,0-.34467.44823.76651.76651,0,0,0,.0756.57792.757.757,0,0,0,.44823.34467.84306.84306,0,0,0,.57792-.07561c.01612-.00768.03245-.01484.04889-.02181l-.17916.07561a8.25636,8.25636,0,0,0,1.06055-.47159,2.38259,2.38259,0,0,0,.58991-.46853,1.60829,1.60829,0,0,0,.43512-.98573,1.77649,1.77649,0,0,0-.29278-1.07534.78276.78276,0,0,0-.44823-.34467.75018.75018,0,0,0-.847,1.10174Z"/><path d="M171.19452,140.53194a1.38265,1.38265,0,0,1,.1355.24089l-.07561-.17916a.89686.89686,0,0,1,.05766.20358l-.0268-.19938a.70157.70157,0,0,1,.002.17151l.02679-.19938a.675.675,0,0,1-.04594.16883l.07561-.17916a.81122.81122,0,0,1-.09656.163l.11728-.15179a1.21087,1.21087,0,0,1-.21522.21038l.15179-.11727a2.57318,2.57318,0,0,1-.56148.31112l.17916-.07561c-.276.11575-.56242.2017-.83823.31826a.74832.74832,0,0,0-.34467.44822.76655.76655,0,0,0,.07561.57792.75705.75705,0,0,0,.44822.34467l.19938.02679a.74657.74657,0,0,0,.37854-.10239l.00564-.00239-.17916.07561c.12-.04954.24544-.08635.36763-.13a6.03854,6.03854,0,0,0,.6808-.28494,2.47011,2.47011,0,0,0,.61911-.43457,1.46256,1.46256,0,0,0,.42706-.75434,1.4942,1.4942,0,0,0-.01912-.67549,1.7691,1.7691,0,0,0-.24977-.532.80231.80231,0,0,0-.44823-.34467.7665.7665,0,0,0-.57792.0756.757.757,0,0,0-.34467.44823.74439.74439,0,0,0,.07561.57792Z"/><path d="M166.94107,110.51939c.75587-.28525,1.53482-.48485,2.30816-.71439a10.37817,10.37817,0,0,0,2.32088-.99016.75012.75012,0,0,0-.75708-1.29521c-.19067.11223-.38408.21926-.58225.31773q-.12936.06427-.26089.124c-.0425.01929-.08534.03775-.12795.05675-.109.04859.09951-.037-.01017.00366-.34526.12795-.68873.25112-1.04234.35483-.75369.221-1.51122.41867-2.24712.69638a.76708.76708,0,0,0-.52383.92259.75862.75862,0,0,0,.92259.52383Z"/><polygon class="t" points="170.691 94.99 177.561 96.622 182.419 98.965 180.491 96.655 173.602 94.188 169.815 94.727 170.691 94.99"/><path class="u" d="M154.13916,119.43485l-.51562.05419.15136-.72351.19434-.0205a1.08208,1.08208,0,0,0,.44238-.12537.61029.61029,0,0,0,.23633-.25964.97565.97565,0,0,0,.085-.40674c.00293-.1615.001-.40869-.00391-.74158l-.00586-.05493a.58532.58532,0,0,0-.07812-.25574.34658.34658,0,0,0-.16406-.13721.722.722,0,0,0-.332-.01928l-1.38282.14538-.207-1.97631.88281-.09278.13379,1.27661.62207-.06543a1.44077,1.44077,0,0,1,.98438.17029,1.03814,1.03814,0,0,1,.39941.79529l.01172.15625.0127.75061a1.48306,1.48306,0,0,1-.35157,1.07715A1.741,1.741,0,0,1,154.13916,119.43485Z"/><path class="u" d="M157.05518,115.0712l-.17383,1.24536-.752.079.38965-1.26795Zm1.13671-.11951-.18164,1.24622-.74414.07812.39258-1.26831Z"/><path class="u" d="M162.394,118.56705l-.88281.09289-.19629-1.86133a.9.9,0,0,0-.2539-.583.78476.78476,0,0,0-.64942-.15955,4.32907,4.32907,0,0,0-.50195.08472c-.17676.03943-.46875.12036-.87305.24206l-.00391-.72339a6.67265,6.67265,0,0,1,1.49512-.33959,1.37012,1.37012,0,0,1,1.667,1.3529Zm-2.15625.22668-.88574.09314-.20215-1.92431.83985-.52234Z"/><path class="u" d="M163.00244,117.779l1.67285-.17578-1.95019-2.144.76465-.48389,1.24707,1.37512a1.11264,1.11264,0,0,0,.11132-.32824,1.77842,1.77842,0,0,0-.00293-.45691l-.06835-.645.86914-.09143.07519.71069a1.48592,1.48592,0,0,1-.07617.67822,2.11105,2.11105,0,0,1-.46191.66907l.61523.70081-.07813.62988-2.80664.295Z"/><polygon class="t" points="161.98 104.717 164.825 104.546 168.85 106.422 168.11 100.61 174.182 102.025 171.744 108.637 169.53 117.121 165.838 115.807 163.662 114.061 161.722 111.378 161.365 107.806 161.98 104.717"/><path d="M175.66633,102.69078c-2.31718,3.62009-3.88439,6.17631-3.79175,10.47349a16.6764,16.6764,0,0,1-.02707,3.43773c-.22016.73024-2.92987,1.05911-2.98056-.02707-.21232-4.55017,1.55885-11.75177,4.65188-15.09577"/><polygon class="i" points="112.765 126.6 111.74 131.958 76.506 135.222 78.892 128.298 80.146 126.629 79.411 133.284 86.155 118.6 84.773 131.92 93.088 124.609 92.135 131.995 106.338 130.336 112.765 126.6"/><path class="l" d="M117.28928,125.96818c1.11336,3.18069,2.10757,6.40209,3.22093,9.58279l1.541-.64968c-2.583-4.50408-4.64862-9.293-7.23163-13.797a.84376.84376,0,0,0-1.456.85108c2.583,4.50408,4.64861,9.293,7.23162,13.79705.4634.808,1.8637.27214,1.541-.64968-1.11336-3.18069-2.10757-6.40209-3.22093-9.58279-.35621-1.01763-1.98588-.57978-1.626.44828Z"/><path d="M84.68569,117.01293a46.32632,46.32632,0,0,1,.31406,5.94845,15.58522,15.58522,0,0,1-.81932,5.86091c-.25045.58516.61073,1.09521.86347.50472a16.1891,16.1891,0,0,0,.9506-6.02246,45.83347,45.83347,0,0,0-.30881-6.29162c-.07475-.63132-1.07564-.63886-1,0Z"/><path class="v" d="M93.54944,121.96326s-2.21167,8.13982-5.08178,11.55256"/><path class="v" d="M80.04389,126.32583a24.764,24.764,0,0,1-2.12383,8.32"/><path d="M167.70145,106.41016a22.73628,22.73628,0,0,0,3.50315-1.84461c1.10674-.66919,2.19093-1.37549,3.30185-2.0377a.75056.75056,0,0,0-.75708-1.2952c-1.083.64558-2.14049,1.3334-3.21854,1.98724-.59346.35993-1.19123.71349-1.80058,1.046-.2598.14175-.52177.2797-.78745.41014-.12547.0616-.2517.12167-.37914.17908-.00846.00381-.22245.09592-.07865.03611-.0604.02512-.12131.049-.18232.07256a.772.772,0,0,0-.52383.92259.75557.75557,0,0,0,.92259.52383Z"/><path d="M163.08526,91.66383c3.13319,3.88044,3.99534,9.61851,4.44822,14.437l1.43931-.59618c-3.247-3.15687-7.96724-2.78809-12.0727-3.8158a.85687.85687,0,0,0-.95215.38746,18.9048,18.9048,0,0,0-1.46839,7.15531l1.06727-.813c-3.86431-.77558-7.268,3.42137-9.965,5.54576-.8519.671.34867,1.85694,1.19237,1.19237,1.34365-1.05839,2.57717-2.25081,3.94489-3.27976,1.16755-.87836,2.82021-2.14528,4.37944-1.83234a.858.858,0,0,0,1.06726-.813,16.7651,16.7651,0,0,1,1.23816-6.30422l-.95215.38747c3.727.933,8.38624.52142,11.32861,3.38214.48392.4705,1.51072.16369,1.43931-.59618-.5007-5.3273-1.48667-11.34986-4.94211-15.6294-.68184-.84446-1.86834.35517-1.19237,1.19236Z"/><polygon points="148.548 58.32 148.229 56.221 142.568 56.214 141.647 57.862 148.548 58.32"/></svg>