<?xml version="1.0" encoding="utf-8"?>
<!-- Generator: Adobe Illustrator 26.0.1, SVG Export Plug-In . SVG Version: 6.00 Build 0)  -->
<svg version="1.1" id="Layer_1" xmlns="http://www.w3.org/2000/svg" xmlns:xlink="http://www.w3.org/1999/xlink" x="0px" y="0px"
	 viewBox="0 0 1038.7 208.5" style="enable-background:new 0 0 1038.7 208.5;" xml:space="preserve">
<style type="text/css">
	.st0{fill:#EDEDED;}
	.st1{fill:url(#SVGID_1_);}
	.st2{fill:url(#SVGID_00000060745571108164414190000016028453586479661467_);}
	.st3{fill:none;stroke:url(#SVGID_00000110450599543671095890000014031785902655637676_);stroke-miterlimit:10;}
	.st4{fill:url(#SVGID_00000062156942067675485020000011387843045765879977_);}
	.st5{fill:url(#SVGID_00000150786849916665936100000003436060787837800863_);}
	.st6{fill:none;stroke:url(#SVGID_00000120549170855128421760000011711693410421148553_);stroke-miterlimit:10;}
	.st7{fill:url(#SVGID_00000160164935026723671310000012938796227093386131_);}
	.st8{fill:url(#SVGID_00000010990313049499556100000000640089467452623508_);}
	.st9{fill:url(#SVGID_00000114772858032226818290000009416880309829942186_);}
	.st10{fill:url(#SVGID_00000183210399563749274010000005223071598403539340_);}
</style>
<ellipse class="st0" cx="346.6" cy="102.2" rx="97.6" ry="97.2"/>
<linearGradient id="SVGID_1_" gradientUnits="userSpaceOnUse" x1="244" y1="107.765" x2="449.19" y2="107.765" gradientTransform="matrix(1 0 0 -1 0 210)">
	<stop  offset="0" style="stop-color:#39B54A"/>
	<stop  offset="0.99" style="stop-color:#00FF00"/>
</linearGradient>
<path class="st1" d="M346.6,5c53.9,0,97.6,43.5,97.6,97.2s-43.7,97.2-97.6,97.2S249,155.9,249,102.2S292.7,5,346.6,5 M346.6,0
	C290,0,244,45.9,244,102.2s46,102.2,102.6,102.2s102.6-45.9,102.6-102.2S403.2,0,346.6,0z"/>
<image style="overflow:visible;opacity:0.6;enable-background:new    ;" width="179" height="230" xlink:href="A11CF9FBA3B2FBBA.png"  transform="matrix(1 0 0 1 254.59 -8.89)">
</image>
<linearGradient id="SVGID_00000104675856196107778810000013980513838663920025_" gradientUnits="userSpaceOnUse" x1="300.72" y1="103.8521" x2="387.761" y2="103.8521" gradientTransform="matrix(1 0 0 -1 0 210)">
	<stop  offset="0" style="stop-color:#39BF2E"/>
	<stop  offset="1" style="stop-color:#00FF00"/>
</linearGradient>
<path style="fill:url(#SVGID_00000104675856196107778810000013980513838663920025_);" d="M387,47.5c-2.6-7.9-11.1-12.2-18.9-9.6
	c-3.8,1.3-7,4-8.8,7.6l-58.6,116.1l26.9,13.4L386.1,59C387.9,55.4,388.3,51.3,387,47.5z M323.2,161.7l-9-4.5l18.4-36.5
	c0.9,1.1,2,2,3.3,2.7l0,0c1.9,1,4.1,1.3,6.2,0.9L323.2,161.7z"/>
<linearGradient id="SVGID_00000151519985293724993440000011871776430140921786_" gradientUnits="userSpaceOnUse" x1="300.0476" y1="103.767" x2="388.261" y2="103.767" gradientTransform="matrix(1 0 0 -1 0 210)">
	<stop  offset="0" style="stop-color:#00FF00"/>
	<stop  offset="1" style="stop-color:#39B54A"/>
</linearGradient>
<path style="fill:none;stroke:url(#SVGID_00000151519985293724993440000011871776430140921786_);stroke-miterlimit:10;" d="
	M387,47.5c-2.6-7.9-11.1-12.2-18.9-9.6c-3.8,1.3-7,4-8.8,7.6l-58.6,116.1l26.9,13.4L386.1,59C387.9,55.4,388.3,51.3,387,47.5z
	 M323.2,161.7l-9-4.5l18.4-36.5c0.9,1.1,2,2,3.3,2.7l0,0c1.9,1,4.1,1.3,6.2,0.9L323.2,161.7z"/>
<ellipse class="st0" cx="936.1" cy="102.2" rx="97.6" ry="97.2"/>
<linearGradient id="SVGID_00000163795018127124686150000010537196094214834060_" gradientUnits="userSpaceOnUse" x1="833.5169" y1="107.765" x2="1038.7069" y2="107.765" gradientTransform="matrix(1 0 0 -1 0 210)">
	<stop  offset="0" style="stop-color:#39B54A"/>
	<stop  offset="0.99" style="stop-color:#00FF00"/>
</linearGradient>
<path style="fill:url(#SVGID_00000163795018127124686150000010537196094214834060_);" d="M936.1,5c53.9,0,97.6,43.5,97.6,97.2
	s-43.7,97.2-97.6,97.2c-53.9,0-97.6-43.5-97.6-97.2S882.2,5,936.1,5 M936.1,0c-56.6,0-102.6,45.9-102.6,102.2s46,102.2,102.6,102.2
	c56.6,0,102.6-45.9,102.6-102.2S992.7,0,936.1,0z"/>
<image style="overflow:visible;opacity:0.6;enable-background:new    ;" width="179" height="230" xlink:href="A11CF9FBA3B2FBBE.png"  transform="matrix(1 0 0 1 844.1069 -8.89)">
</image>
<linearGradient id="SVGID_00000026146303778553415450000012163258283618574758_" gradientUnits="userSpaceOnUse" x1="890.2369" y1="103.8521" x2="977.278" y2="103.8521" gradientTransform="matrix(1 0 0 -1 0 210)">
	<stop  offset="0" style="stop-color:#39BF2E"/>
	<stop  offset="1" style="stop-color:#00FF00"/>
</linearGradient>
<path style="fill:url(#SVGID_00000026146303778553415450000012163258283618574758_);" d="M976.5,47.5c-2.6-7.9-11.1-12.2-18.9-9.6
	c-3.8,1.3-7,4-8.8,7.6l-58.6,116.1l26.9,13.4L975.7,59C977.5,55.4,977.8,51.3,976.5,47.5z M912.7,161.7l-9-4.5l18.4-36.5
	c0.9,1.1,2,2,3.3,2.7l0,0c1.9,1,4.1,1.3,6.2,0.9L912.7,161.7z"/>
<linearGradient id="SVGID_00000126285671391192573770000002766842069878930575_" gradientUnits="userSpaceOnUse" x1="889.5646" y1="103.767" x2="977.778" y2="103.767" gradientTransform="matrix(1 0 0 -1 0 210)">
	<stop  offset="0" style="stop-color:#00FF00"/>
	<stop  offset="1" style="stop-color:#39B54A"/>
</linearGradient>
<path style="fill:none;stroke:url(#SVGID_00000126285671391192573770000002766842069878930575_);stroke-miterlimit:10;" d="
	M976.5,47.5c-2.6-7.9-11.1-12.2-18.9-9.6c-3.8,1.3-7,4-8.8,7.6l-58.6,116.1l26.9,13.4L975.7,59C977.5,55.4,977.8,51.3,976.5,47.5z
	 M912.7,161.7l-9-4.5l18.4-36.5c0.9,1.1,2,2,3.3,2.7l0,0c1.9,1,4.1,1.3,6.2,0.9L912.7,161.7z"/>
<ellipse class="st0" cx="699.1" cy="106.2" rx="97.6" ry="97.2"/>
<linearGradient id="SVGID_00000029011567676815412530000005375730784749116806_" gradientUnits="userSpaceOnUse" x1="596.5269" y1="103.765" x2="801.7169" y2="103.765" gradientTransform="matrix(1 0 0 -1 0 210)">
	<stop  offset="0" style="stop-color:#C12D2D"/>
	<stop  offset="0.99" style="stop-color:#ED1E79"/>
</linearGradient>
<path style="fill:url(#SVGID_00000029011567676815412530000005375730784749116806_);" d="M699.1,9c53.9,0,97.6,43.5,97.6,97.2
	s-43.7,97.2-97.6,97.2s-97.6-43.5-97.6-97.2S645.2,9,699.1,9 M699.1,4c-56.6,0-102.6,45.9-102.6,102.2s46,102.2,102.6,102.2
	s102.6-45.9,102.6-102.2S755.7,4,699.1,4z"/>
<g transform="translate(496.59 -3.89)">
	
		<image style="overflow:visible;enable-background:new    ;" width="178" height="229" id="image" xlink:href="A11CF9FBA3B2FBB9.png"  transform="matrix(1 0 0 1 608.1169 -3.89)">
	</image>
</g>
<linearGradient id="SVGID_00000140009679420715621070000005764211106045974459_" gradientUnits="userSpaceOnUse" x1="653.2469" y1="99.8521" x2="740.288" y2="99.8521" gradientTransform="matrix(1 0 0 -1 0 210)">
	<stop  offset="0" style="stop-color:#C12D2D"/>
	<stop  offset="0.99" style="stop-color:#ED1E79"/>
</linearGradient>
<path style="fill:url(#SVGID_00000140009679420715621070000005764211106045974459_);" d="M739.5,51.5c-2.6-7.9-11.1-12.2-18.9-9.6
	c-3.8,1.3-7,4-8.8,7.6l-58.6,116.1l26.9,13.4L738.7,63C740.5,59.4,740.8,55.3,739.5,51.5z M675.7,165.7l-9-4.5l18.4-36.5
	c0.9,1.1,2,2,3.3,2.7l0,0c1.9,1,4.1,1.3,6.2,0.9L675.7,165.7z"/>
<ellipse class="st0" cx="102.6" cy="102.2" rx="97.6" ry="97.2"/>
<linearGradient id="SVGID_00000111891171042765911940000006236017292181630381_" gradientUnits="userSpaceOnUse" x1="0" y1="107.765" x2="205.19" y2="107.765" gradientTransform="matrix(1 0 0 -1 0 210)">
	<stop  offset="0" style="stop-color:#C12D2D"/>
	<stop  offset="0.99" style="stop-color:#ED1E79"/>
</linearGradient>
<path style="fill:url(#SVGID_00000111891171042765911940000006236017292181630381_);" d="M102.6,5c53.9,0,97.6,43.5,97.6,97.2
	s-43.7,97.2-97.6,97.2S5,155.9,5,102.2S48.7,5,102.6,5 M102.6,0C46,0,0,45.9,0,102.2s46,102.2,102.6,102.2s102.6-45.9,102.6-102.2
	S159.2,0,102.6,0z"/>
<g transform="translate(11.59 -7.89)">
	
		<image style="overflow:visible;enable-background:new    ;" width="178" height="229" id="image_00000142857189550722393240000000981138837919536813_" xlink:href="A11CF9FBA3B2FBBB.png"  transform="matrix(1 0 0 1 11.59 -7.89)">
	</image>
</g>
<linearGradient id="SVGID_00000043449692190978532260000013279219989712542140_" gradientUnits="userSpaceOnUse" x1="56.72" y1="103.8521" x2="143.761" y2="103.8521" gradientTransform="matrix(1 0 0 -1 0 210)">
	<stop  offset="0" style="stop-color:#C12D2D"/>
	<stop  offset="0.99" style="stop-color:#ED1E79"/>
</linearGradient>
<path style="fill:url(#SVGID_00000043449692190978532260000013279219989712542140_);" d="M143,47.5c-2.6-7.9-11.1-12.2-18.9-9.6
	c-3.8,1.3-7,4-8.8,7.6L56.7,161.7l26.9,13.4L142.1,59C143.9,55.4,144.3,51.3,143,47.5z M79.2,161.7l-9-4.5l18.4-36.5
	c0.9,1.1,2,2,3.3,2.7l0,0c1.9,1,4.1,1.3,6.2,0.9L79.2,161.7z"/>
<g>
	<path d="M454.9,1077.5l-0.9,2.5h-1.1l2.8-8.1h1.2l2.8,8.1h-1.1l-0.8-2.5H454.9z M457.6,1076.6l-0.8-2.3c-0.2-0.5-0.3-1-0.4-1.5h0
		c-0.1,0.5-0.2,0.9-0.4,1.5l-0.8,2.3H457.6z"/>
	<path d="M447.8,1071.5v3.5h0c0.3-0.5,0.9-0.9,1.8-0.9c1.4,0,2.6,1.2,2.6,3.1c0,1.8-1.1,2.9-2.5,2.9c-0.9,0-1.6-0.5-2-1.1h0l0,1
		h-0.9c0-0.4,0-1,0-1.5v-7H447.8z M447.8,1077.6c0,0.2,0,0.3,0,0.5c0.2,0.8,0.8,1.3,1.5,1.3c1.1,0,1.7-1,1.7-2.2
		c0-1.3-0.7-2.2-1.8-2.2c-0.8,0-1.4,0.5-1.5,1.2c0,0.1,0,0.3,0,0.4V1077.6z"/>
	<path d="M442.5,1074.1c1.6,0,2.9,1.1,2.9,3c0,1.9-1.2,3-2.8,3c-1.3,0-2.9-0.9-2.9-3C439.8,1075.2,440.9,1074.1,442.5,1074.1z
		 M442.6,1074.9c-1.3,0-1.8,1.2-1.8,2.3c0,1.2,0.6,2.2,1.8,2.2c1.2,0,1.8-1.1,1.8-2.2C444.4,1076.1,443.9,1074.9,442.6,1074.9z"/>
	<path d="M438.4,1078.5c0,0.5,0,1.1,0,1.5h-0.9l0-0.9h0c-0.4,0.8-1.1,1.1-2,1.1c-1.3,0-2.6-1-2.6-3.1c0-1.8,1-3,2.5-3
		c0.9,0,1.6,0.4,2,1.1h0v-3.6h1V1078.5z M437.4,1076.6c0-0.2,0-0.3-0.1-0.4c-0.2-0.8-0.9-1.3-1.6-1.3c-1.1,0-1.7,1-1.7,2.2
		c0,1.3,0.6,2.2,1.8,2.2c0.8,0,1.4-0.5,1.6-1.2c0-0.1,0-0.3,0-0.4V1076.6z"/>
	<path d="M426.9,1077.3c0-0.1,0-0.3,0-0.5c0-1.1,0.5-2.7,2.4-2.7c1.7,0,2.7,1.4,2.7,3.1c0,1.7-1.1,2.9-2.9,2.9
		c-0.9,0-1.6-0.2-1.9-0.4l0.2-0.8c0.4,0.2,0.9,0.3,1.6,0.3c1.1,0,2-0.6,2-2H426.9z M431,1076.5c-0.1-0.7-0.6-1.7-1.6-1.7
		c-1.2,0-1.5,1-1.5,1.7H431z"/>
	<path d="M418.8,1077.5l-0.9,2.5h-1.1l2.8-8.1h1.2l2.8,8.1h-1.1l-0.8-2.5H418.8z M421.5,1076.6l-0.8-2.3c-0.2-0.5-0.3-1-0.4-1.5h0
		c-0.1,0.5-0.2,0.9-0.4,1.5l-0.8,2.3H421.5z"/>
	<path d="M414.5,1080v-5h-1.4v-0.8h1.4v-0.3c0-0.9-0.2-1.7-1.1-1.7c-0.3,0-0.5,0.1-0.6,0.1l-0.2-0.8c0.2-0.1,0.5-0.2,0.9-0.2
		c0.5,0,1,0.2,1.4,0.5c0.5,0.5,0.7,1.2,0.7,2v0.3h0.8v0.8h-0.8v5H414.5z"/>
	<path d="M411.9,1072.8v1.4h0.9v0.8h-0.9v3.2c0,0.7-0.1,1.2-0.4,1.5c-0.3,0.3-0.7,0.4-1.1,0.4c-0.4,0-0.7-0.1-0.9-0.2l0-0.8
		c0.1,0,0.3,0.1,0.6,0.1c0.6,0,0.8-0.4,0.8-1.1v-3.1h-1.5v-0.8h1.5v-1.7L411.9,1072.8z"/>
	<path d="M403.5,1077.3c0-0.1,0-0.3,0-0.5c0-1.1,0.5-2.7,2.4-2.7c1.7,0,2.7,1.4,2.7,3.1c0,1.7-1.1,2.9-2.9,2.9
		c-0.9,0-1.6-0.2-1.9-0.4l0.2-0.8c0.4,0.2,0.9,0.3,1.6,0.3c1.1,0,2-0.6,2-2H403.5z M407.6,1076.5c-0.1-0.7-0.6-1.7-1.6-1.7
		c-1.2,0-1.5,1-1.5,1.7H407.6z"/>
	<path d="M402.2,1080h-1v-3.1c0-0.2,0-0.3,0-0.5c-0.1-0.8-0.7-1.4-1.4-1.4c-0.1,0-0.3,0-0.3,0v-1c0.1,0,0.2,0,0.3,0
		c0.7,0,1.3,0.5,1.6,1.3h0l0-1.1h0.9c0,0.5,0,1.1,0,1.8V1080z"/>
	<path d="M391.5,1075.3h3.1v-2.6h-3.3v-0.9h4.4v8.1h-4.6v-0.9h3.5v-2.9h-3.1V1075.3z"/>
	<path d="M388.7,1080v-5h-1.4v-0.8h1.4v-0.3c0-0.9-0.2-1.7-1.1-1.7c-0.3,0-0.5,0.1-0.6,0.1l-0.2-0.8c0.2-0.1,0.5-0.2,0.9-0.2
		c0.5,0,1,0.2,1.4,0.5c0.5,0.5,0.7,1.2,0.7,2v0.3h0.8v0.8h-0.8v5H388.7z"/>
	<path d="M385.2,1080v-5h-1.4v-0.8h1.4v-0.3c0-0.9-0.2-1.7-1.1-1.7c-0.3,0-0.5,0.1-0.6,0.1l-0.2-0.8c0.2-0.1,0.5-0.2,0.9-0.2
		c0.5,0,1,0.2,1.4,0.5c0.5,0.5,0.7,1.2,0.7,2v0.3h0.8v0.8h-0.8v5H385.2z"/>
	<path d="M378.2,1077.3c0-0.1,0-0.3,0-0.5c0-1.1,0.5-2.7,2.4-2.7c1.7,0,2.7,1.4,2.7,3.1c0,1.7-1.1,2.9-2.9,2.9
		c-0.9,0-1.6-0.2-1.9-0.4l0.2-0.8c0.4,0.2,0.9,0.3,1.6,0.3c1.1,0,2-0.6,2-2H378.2z M382.2,1076.5c-0.1-0.7-0.6-1.7-1.6-1.7
		c-1.2,0-1.5,1-1.5,1.7H382.2z"/>
	<path d="M372.8,1079c0.3,0.1,0.7,0.3,1.3,0.3c1.2,0,2-0.8,2-2.2c0-1.2-0.7-2.2-2.1-2.2c-0.6,0-1,0.1-1.2,0.3l-0.2-0.8
		c0.3-0.1,0.9-0.3,1.5-0.3c1.9,0,3.1,1.3,3.1,3.1c0,1.8-1.1,3-2.9,3c-0.8,0-1.4-0.2-1.7-0.3L372.8,1079z"/>
	<path d="M371.2,1072.8v1.4h0.9v0.8h-0.9v3.2c0,0.7-0.1,1.2-0.4,1.5c-0.3,0.3-0.7,0.4-1.1,0.4c-0.4,0-0.7-0.1-0.9-0.2l0-0.8
		c0.1,0,0.3,0.1,0.6,0.1c0.6,0,0.8-0.4,0.8-1.1v-3.1h-1.5v-0.8h1.5v-1.7L371.2,1072.8z"/>
	<path d="M367.9,1079.7c-0.4,0.2-1,0.4-1.6,0.4c-1.4,0-2.2-0.7-2.2-1.8c0-0.9,0.5-1.4,1.5-1.7c0.8-0.3,1.1-0.5,1.1-1
		c0-0.4-0.3-0.8-1-0.8c-0.6,0-1,0.2-1.2,0.3l-0.3-0.8c0.3-0.2,0.8-0.3,1.4-0.3c1.2,0,2,0.8,2,1.7c0,0.7-0.5,1.3-1.5,1.7
		c-0.8,0.3-1.1,0.6-1.1,1.1c0,0.5,0.4,0.9,1.1,0.9c0.5,0,1.1-0.2,1.4-0.4L367.9,1079.7z"/>
	<path d="M360.5,1078c0,1-0.7,2.1-2.4,2.1s-2.5-0.9-2.5-2.1c0-0.9,0.5-1.5,1.3-1.7c-0.6-0.3-1-0.7-1-1.6c0-0.9,0.6-1.8,2.2-1.8
		s2.3,0.9,2.3,1.9c0,0.7-0.4,1.3-1.1,1.6C359.9,1076.6,360.5,1077.2,360.5,1078z M359.5,1078c0-0.7-0.5-1.2-1.5-1.2
		c-1,0-1.5,0.5-1.5,1.2c0,0.6,0.4,1.2,1.5,1.2C359,1079.2,359.5,1078.6,359.5,1078z M358,1075.9c0.8,0,1.3-0.5,1.3-1.1
		c0-0.5-0.4-1-1.3-1c-0.9,0-1.3,0.5-1.3,1.1C356.7,1075.4,357,1075.9,358,1075.9z"/>
	<path d="M353.5,1080.1c-0.4,0-0.7-0.3-0.7-0.7c0-0.5,0.3-0.8,0.7-0.8c0.4,0,0.7,0.3,0.7,0.8
		C354.2,1079.8,353.9,1080.1,353.5,1080.1z"/>
	<path d="M351.7,1076.5c0,2.2-1,3.6-2.6,3.6c-1.8,0-2.6-1.7-2.6-3.6c0-1.8,0.7-3.6,2.6-3.6C350.7,1072.9,351.7,1074.3,351.7,1076.5z
		 M350.7,1076.5c0-1.7-0.7-2.7-1.6-2.7c-1,0-1.6,1-1.6,2.7c0,1.5,0.5,2.7,1.5,2.7C350.1,1079.2,350.7,1078.1,350.7,1076.5z"/>
	<path d="M342.6,1080h-1.1v-3.1l-0.8-0.9l-2.7,4h-1.2l3.2-4.7l-2.9-3.4h1.3l2.5,3c0.2,0.3,0.4,0.6,0.6,0.9h0v-3.9h1.1V1080z"/>
	<path d="M331.4,1077.3c0-0.1,0-0.3,0-0.5c0-1.1,0.5-2.7,2.4-2.7c1.7,0,2.7,1.4,2.7,3.1c0,1.7-1.1,2.9-2.9,2.9
		c-0.9,0-1.6-0.2-1.9-0.4l0.2-0.8c0.4,0.2,0.9,0.3,1.6,0.3c1.1,0,2-0.6,2-2H331.4z M335.5,1076.5c-0.1-0.7-0.6-1.7-1.6-1.7
		c-1.2,0-1.5,1-1.5,1.7H335.5z"/>
	<path d="M330.8,1074.2l-2.1,5.3c-0.1,0.1-0.1,0.2-0.1,0.3c0,0.1,0,0.1,0.1,0.3c0.2,0.5,0.6,0.9,0.9,1.2c0.3,0.3,0.7,0.4,0.9,0.5
		l-0.3,0.9c-0.3,0-0.8-0.2-1.3-0.7c-0.7-0.6-1.2-1.7-2-3.6l-1.6-4.1h1.1l1.2,3.4c0.1,0.4,0.3,0.9,0.4,1.2h0c0.1-0.3,0.2-0.8,0.4-1.2
		l1.3-3.4H330.8z"/>
	<path d="M323.3,1080v-5h-1.4v-0.8h1.4v-0.3c0-0.9-0.2-1.7-1.1-1.7c-0.3,0-0.5,0.1-0.6,0.1l-0.2-0.8c0.2-0.1,0.5-0.2,0.9-0.2
		c0.5,0,1,0.2,1.4,0.5c0.5,0.5,0.7,1.2,0.7,2v0.3h0.8v0.8h-0.8v5H323.3z"/>
	<path d="M320.9,1080h-1v-3.1c0-0.2,0-0.3,0-0.5c-0.1-0.8-0.7-1.4-1.4-1.4c-0.1,0-0.3,0-0.3,0v-1c0.1,0,0.2,0,0.3,0
		c0.7,0,1.3,0.5,1.6,1.3h0l0-1.1h0.9c0,0.5,0,1.1,0,1.8V1080z"/>
	<path d="M312.9,1076.5c0-1.2,0.4-2.4,2.2-2.4c0.7,0,1.4,0.2,1.9,0.5l-0.2,0.7c-0.4-0.3-1-0.4-1.5-0.4c-1.2,0-1.3,0.9-1.3,1.3v0.1
		c2.2,0,3.5,0.7,3.5,2.1c0,0.8-0.6,1.7-1.8,1.7c-0.8,0-1.5-0.4-1.8-0.9h0l-0.1,0.7h-0.9c0.1-0.4,0.1-0.9,0.1-1.4V1076.5z
		 M313.9,1078c0,0.1,0,0.2,0,0.3c0.2,0.5,0.6,1,1.4,1c0.5,0,1-0.3,1-1c0-1.1-1.3-1.3-2.5-1.3V1078z"/>
	<path d="M311.2,1080h-1v-3.5c0-0.2,0-0.4-0.1-0.5c-0.2-0.5-0.7-1.1-1.3-1.1c-0.8,0-1.2,0.7-1.2,1.6v3.5h-1v-3.6
		c0-0.2,0-0.4-0.1-0.5c-0.2-0.5-0.6-0.9-1.2-0.9c-0.9,0-1.3,0.7-1.3,1.8v3.3h-1v-3.4c0-2,1.1-2.5,1.9-2.5c0.6,0,0.9,0.1,1.3,0.4
		c0.2,0.2,0.5,0.4,0.6,0.8h0c0.3-0.7,0.9-1.2,1.6-1.2c1,0,1.5,0.5,1.8,1.1h0l0.1-0.9h0.9c0,0.5,0,1,0,1.6V1080z"/>
	<path d="M296.6,1077.3c0-0.1,0-0.3,0-0.5c0-1.1,0.5-2.7,2.4-2.7c1.7,0,2.7,1.4,2.7,3.1c0,1.7-1.1,2.9-2.9,2.9
		c-0.9,0-1.6-0.2-1.9-0.4l0.2-0.8c0.4,0.2,0.9,0.3,1.6,0.3c1.1,0,2-0.6,2-2H296.6z M300.6,1076.5c-0.1-0.7-0.6-1.7-1.6-1.7
		c-1.2,0-1.5,1-1.5,1.7H300.6z"/>
	<path d="M292.6,1080c-0.5,0.1-1.2,0.1-1.9,0.1c-1.6,0-2.8-0.4-3.6-1.2c-0.8-0.8-1.2-1.8-1.2-3.1c0-1.3,0.4-2.2,1.1-2.9
		c0.7-0.7,1.8-1,3.3-1c0.8,0,1.6,0.1,2.2,0.2V1080z M291.6,1072.8c-0.3,0-0.7-0.1-1.2-0.1c-2.2,0-3.3,1.2-3.3,3.1
		c0,2.2,1.2,3.4,3.4,3.4c0.4,0,0.8,0,1.1-0.1V1072.8z"/>
	<path d="M280.6,1076.5c0-1.2,0.4-2.4,2.2-2.4c0.7,0,1.4,0.2,1.9,0.5l-0.2,0.7c-0.4-0.3-1-0.4-1.5-0.4c-1.2,0-1.3,0.9-1.3,1.3v0.1
		c2.2,0,3.5,0.7,3.5,2.1c0,0.8-0.6,1.7-1.8,1.7c-0.8,0-1.5-0.4-1.8-0.9h0l-0.1,0.7h-0.9c0.1-0.4,0.1-0.9,0.1-1.4V1076.5z
		 M281.6,1078c0,0.1,0,0.2,0,0.3c0.2,0.5,0.6,1,1.4,1c0.5,0,1-0.3,1-1c0-1.1-1.3-1.3-2.5-1.3V1078z"/>
	<path d="M278.6,1072.8v1.4h0.9v0.8h-0.9v3.2c0,0.7-0.1,1.2-0.4,1.5c-0.3,0.3-0.7,0.4-1.1,0.4c-0.4,0-0.7-0.1-0.9-0.2l0-0.8
		c0.1,0,0.3,0.1,0.6,0.1c0.6,0,0.8-0.4,0.8-1.1v-3.1h-1.5v-0.8h1.5v-1.7L278.6,1072.8z"/>
	<path d="M270.8,1076.5c0-1.2,0.4-2.4,2.2-2.4c0.7,0,1.4,0.2,1.9,0.5l-0.2,0.7c-0.4-0.3-1-0.4-1.5-0.4c-1.2,0-1.3,0.9-1.3,1.3v0.1
		c2.2,0,3.5,0.7,3.5,2.1c0,0.8-0.6,1.7-1.8,1.7c-0.8,0-1.5-0.4-1.8-0.9h0l-0.1,0.7h-0.9c0.1-0.4,0.1-0.9,0.1-1.4V1076.5z
		 M271.8,1078c0,0.1,0,0.2,0,0.3c0.2,0.5,0.6,1,1.4,1c0.5,0,1-0.3,1-1c0-1.1-1.3-1.3-2.5-1.3V1078z"/>
	<path d="M423.1,1100.7v4.8c0,2.5-1.2,3.4-2.9,3.4c-1.8,0-3-1-3-3.5v-4.7h1v4.8c0,1.8,0.8,2.6,2,2.6c1.1,0,1.9-0.8,1.9-2.6v-4.8
		H423.1z"/>
	<path d="M415.4,1108.8h-1v-3.5c0-0.2,0-0.4-0.1-0.5c-0.2-0.6-0.7-1.1-1.4-1.1c-1,0-1.3,0.8-1.3,1.7v3.3h-1v-3.5c0-2,1.2-2.5,2-2.5
		c1,0,1.6,0.5,1.9,1.1h0l0-0.9h0.9c0,0.5,0,1,0,1.6V1108.8z"/>
	<path d="M408.2,1100.7c0.4,0,0.7,0.3,0.6,0.7c0,0.4-0.3,0.6-0.6,0.6c-0.4,0-0.7-0.3-0.7-0.6C407.5,1101,407.8,1100.7,408.2,1100.7z
		 M407.7,1108.8v-5.8h1v5.8H407.7z"/>
	<path d="M405.7,1101.6v1.4h0.9v0.8h-0.9v3.2c0,0.7-0.1,1.2-0.4,1.5c-0.3,0.3-0.7,0.4-1.1,0.4c-0.4,0-0.7-0.1-0.9-0.2l0-0.8
		c0.1,0,0.3,0.1,0.6,0.1c0.6,0,0.8-0.4,0.8-1.1v-3.1h-1.5v-0.8h1.5v-1.7L405.7,1101.6z"/>
	<path d="M402.3,1108.5c-0.4,0.2-1,0.4-1.6,0.4c-1.4,0-2.2-0.7-2.2-1.8c0-0.9,0.5-1.4,1.5-1.7c0.8-0.3,1.1-0.5,1.1-1
		c0-0.4-0.3-0.8-1-0.8c-0.6,0-1,0.2-1.2,0.3l-0.3-0.8c0.3-0.2,0.8-0.3,1.4-0.3c1.2,0,2,0.8,2,1.7c0,0.7-0.5,1.3-1.5,1.7
		c-0.8,0.3-1.1,0.6-1.1,1.1c0,0.5,0.4,0.9,1.1,0.9c0.5,0,1.1-0.2,1.4-0.4L402.3,1108.5z"/>
	<path d="M394.6,1108.8h-1.1v-3.2c-0.2,0-0.5,0.1-0.9,0.1c-1,0-1.9-0.3-2.4-0.9c-0.4-0.4-0.6-1-0.6-1.7c0-0.7,0.3-1.3,0.7-1.7
		c0.5-0.4,1.2-0.7,2.3-0.7c0.8,0,1.5,0.1,2,0.2V1108.8z M393.5,1101.6c-0.2,0-0.5-0.1-1-0.1c-1.2,0-1.9,0.5-1.9,1.6
		c0,1.1,0.8,1.7,2,1.7c0.3,0,0.7,0,0.9-0.1V1101.6z"/>
	<path d="M383.6,1106.1c0-0.1,0-0.3,0-0.5c0-1.1,0.5-2.7,2.4-2.7c1.7,0,2.7,1.4,2.7,3.1c0,1.7-1.1,2.9-2.9,2.9
		c-0.9,0-1.6-0.2-1.9-0.4l0.2-0.8c0.4,0.2,0.9,0.3,1.6,0.3c1.1,0,2-0.6,2-2H383.6z M387.6,1105.3c-0.1-0.7-0.6-1.7-1.6-1.7
		c-1.2,0-1.5,1-1.5,1.7H387.6z"/>
	<path d="M382.2,1108.8h-1v-3.1c0-0.2,0-0.3,0-0.5c-0.1-0.8-0.7-1.4-1.4-1.4c-0.1,0-0.3,0-0.3,0v-1c0.1,0,0.2,0,0.3,0
		c0.7,0,1.3,0.5,1.6,1.3h0l0-1.1h0.9c0,0.5,0,1.1,0,1.8V1108.8z"/>
	<path d="M376.1,1108.4c-0.4,0.3-1.3,0.5-2.1,0.5c-1.9,0-2.8-1.1-2.8-2.3c0-1.2,0.7-1.8,2.1-2.4c1.1-0.4,1.6-0.8,1.6-1.6
		c0-0.6-0.4-1.2-1.5-1.2c-0.7,0-1.3,0.2-1.5,0.4l-0.3-0.9c0.4-0.2,1-0.4,1.8-0.4c1.6,0,2.6,0.9,2.6,2.2c0,1.1-0.8,1.8-2.1,2.3
		c-1.1,0.4-1.5,0.9-1.5,1.6c0,0.8,0.6,1.4,1.7,1.4c0.7,0,1.4-0.2,1.9-0.5L376.1,1108.4z"/>
	<path d="M365.2,1106.1c0-0.1,0-0.3,0-0.5c0-1.1,0.5-2.7,2.4-2.7c1.7,0,2.7,1.4,2.7,3.1c0,1.7-1.1,2.9-2.9,2.9
		c-0.9,0-1.6-0.2-1.9-0.4l0.2-0.8c0.4,0.2,0.9,0.3,1.6,0.3c1.1,0,2-0.6,2-2H365.2z M369.2,1105.3c-0.1-0.7-0.6-1.7-1.6-1.7
		c-1.2,0-1.5,1-1.5,1.7H369.2z"/>
	<path d="M359.9,1107.8c0.3,0.1,0.7,0.3,1.3,0.3c1.2,0,2-0.8,2-2.2c0-1.2-0.7-2.2-2.1-2.2c-0.6,0-1,0.1-1.2,0.3l-0.2-0.8
		c0.3-0.1,0.9-0.3,1.5-0.3c1.9,0,3.1,1.3,3.1,3.1c0,1.8-1.1,3-2.9,3c-0.8,0-1.4-0.2-1.7-0.3L359.9,1107.8z"/>
	<path d="M356,1102.9c1.6,0,2.9,1.1,2.9,3c0,1.9-1.2,3-2.8,3c-1.3,0-2.9-0.9-2.9-3C353.2,1104,354.3,1102.9,356,1102.9z M356,1103.7
		c-1.3,0-1.8,1.2-1.8,2.3c0,1.2,0.6,2.2,1.8,2.2c1.2,0,1.8-1.1,1.8-2.2C357.8,1104.9,357.3,1103.7,356,1103.7z"/>
	<path d="M351.8,1108.8h-1v-3.5c0-0.2,0-0.4-0.1-0.5c-0.2-0.6-0.7-1.1-1.4-1.1c-1,0-1.3,0.8-1.3,1.7v3.3h-1v-3.5c0-2,1.2-2.5,2-2.5
		c1,0,1.6,0.5,1.9,1.1h0l0-0.9h0.9c0,0.5,0,1,0,1.6V1108.8z"/>
	<path d="M341.2,1100.3v3.5h0c0.3-0.5,0.9-0.9,1.8-0.9c1.4,0,2.6,1.2,2.6,3.1c0,1.8-1.1,2.9-2.5,2.9c-0.9,0-1.6-0.5-2-1.1h0l0,1
		h-0.9c0-0.4,0-1,0-1.5v-7H341.2z M341.2,1106.4c0,0.2,0,0.3,0,0.5c0.2,0.8,0.8,1.3,1.5,1.3c1.1,0,1.7-1,1.7-2.2
		c0-1.3-0.7-2.2-1.8-2.2c-0.8,0-1.4,0.5-1.5,1.2c0,0.1,0,0.3,0,0.4V1106.4z"/>
	<path d="M315.4,1108.8h-5v-0.9h1.5c0.8,0,1.2,0,1.8,0c-1.3-0.9-2.9-2.4-2.9-3.9c0-1.1,0.6-2.3,2.3-2.3c1,0,1.7,0.4,2.2,0.8
		l-0.4,0.8c-0.5-0.4-1-0.7-1.8-0.7c-1,0-1.4,0.6-1.4,1.5c0,1.2,1.3,2.4,2.8,3.5l0.8,0.6V1108.8z"/>
	<path d="M308.7,1108.9c-0.2,0-0.4,0-0.5,0c-2,0-3.9-1.3-3.9-4c0-2,0.9-3.2,2.5-3.2c1.6,0,2.5,1.2,2.5,2.4c0,1.4-0.8,2.4-2.3,2.4
		c-0.8,0-1.4-0.3-1.8-0.8c0.3,1.2,1.2,2.4,3,2.4c0.1,0,0.3,0,0.4,0V1108.9z M306.9,1105.5c1,0,1.5-0.7,1.5-1.5
		c0-0.8-0.5-1.5-1.5-1.5c-1.1,0-1.6,1-1.7,2.1C305.7,1105.2,306.2,1105.5,306.9,1105.5z"/>
	<path d="M302.4,1108.9c-0.4,0-0.7-0.3-0.7-0.7c0-0.5,0.3-0.8,0.7-0.8c0.4,0,0.7,0.3,0.7,0.8
		C303.1,1108.6,302.8,1108.9,302.4,1108.9z"/>
	<path d="M299.9,1108.9c-0.2,0-0.4,0-0.5,0c-2,0-3.9-1.3-3.9-4c0-2,0.9-3.2,2.5-3.2c1.6,0,2.5,1.2,2.5,2.4c0,1.4-0.8,2.4-2.3,2.4
		c-0.8,0-1.4-0.3-1.8-0.8c0.3,1.2,1.2,2.4,3,2.4c0.1,0,0.3,0,0.4,0V1108.9z M298.1,1105.5c1,0,1.5-0.7,1.5-1.5
		c0-0.8-0.5-1.5-1.5-1.5c-1.1,0-1.6,1-1.7,2.1C296.8,1105.2,297.3,1105.5,298.1,1105.5z"/>
	<path d="M293.4,1108.8h-1c-0.8-1.7-2.2-4.8-2.9-6.3v-0.7h4.8v0.9h-3.8C290.8,1103.3,292.3,1106.5,293.4,1108.8z"/>
	<path d="M423.5,1122.8c-0.4,0.3-1.3,0.5-2.1,0.5c-1.9,0-2.8-1.1-2.8-2.3c0-1.2,0.7-1.8,2.1-2.4c1.1-0.4,1.6-0.8,1.6-1.6
		c0-0.6-0.4-1.2-1.5-1.2c-0.7,0-1.3,0.2-1.5,0.4l-0.3-0.9c0.4-0.2,1-0.4,1.8-0.4c1.6,0,2.6,0.9,2.6,2.2c0,1.1-0.8,1.8-2.1,2.3
		c-1.1,0.4-1.5,0.9-1.5,1.6c0,0.8,0.6,1.4,1.7,1.4c0.7,0,1.4-0.2,1.9-0.5L423.5,1122.8z"/>
	<path d="M414.7,1117.3c1.6,0,2.9,1.1,2.9,3c0,1.9-1.2,3-2.8,3c-1.3,0-2.9-0.9-2.9-3C412,1118.4,413.1,1117.3,414.7,1117.3z
		 M414.8,1118.1c-1.3,0-1.8,1.2-1.8,2.3c0,1.2,0.6,2.2,1.8,2.2c1.2,0,1.8-1.1,1.8-2.2C416.6,1119.3,416.1,1118.1,414.8,1118.1z"/>
	<path d="M405.7,1123.2c0-0.5,0-1,0-1.6v-4.2h1v3.5c0,0.2,0,0.4,0.1,0.6c0.2,0.4,0.6,1,1.4,1c0.9,0,1.3-0.7,1.3-1.9v-3.2h1.1v3.4
		c0,1.9-0.9,2.5-2,2.5c-1.1,0-1.7-0.6-1.9-1.1h0l-0.1,0.9H405.7z"/>
	<path d="M404,1123.2h-1v-3.1c0-0.2,0-0.3,0-0.5c-0.1-0.8-0.7-1.4-1.4-1.4c-0.1,0-0.3,0-0.3,0v-1c0.1,0,0.2,0,0.3,0
		c0.7,0,1.3,0.5,1.6,1.3h0l0-1.1h0.9c0,0.5,0,1.1,0,1.8V1123.2z"/>
	<path d="M396.1,1122.2c0.3,0.1,0.7,0.3,1.3,0.3c1.2,0,2-0.8,2-2.2c0-1.2-0.7-2.2-2.1-2.2c-0.6,0-1,0.1-1.2,0.3l-0.2-0.8
		c0.3-0.1,0.9-0.3,1.5-0.3c1.9,0,3.1,1.3,3.1,3.1c0,1.8-1.1,3-2.9,3c-0.8,0-1.4-0.2-1.7-0.3L396.1,1122.2z"/>
	<path d="M390.1,1120.5c0-0.1,0-0.3,0-0.5c0-1.1,0.5-2.7,2.4-2.7c1.7,0,2.7,1.4,2.7,3.1c0,1.7-1.1,2.9-2.9,2.9
		c-0.9,0-1.6-0.2-1.9-0.4l0.2-0.8c0.4,0.2,0.9,0.3,1.6,0.3c1.1,0,2-0.6,2-2H390.1z M394.1,1119.7c-0.1-0.7-0.6-1.7-1.6-1.7
		c-1.2,0-1.5,1-1.5,1.7H394.1z"/>
	<path d="M383.7,1123.2l-1.1-4.2c-0.3-1-0.5-1.8-0.6-2.6h0c-0.1,0.8-0.3,1.6-0.5,2.6l-1,4.2h-1.1l-2.3-8.1h1.1l1.1,4.1
		c0.2,1,0.5,1.9,0.6,2.8h0c0.1-0.9,0.3-1.8,0.6-2.8l1-4.1h1.1l1.1,4.1c0.3,1,0.5,2,0.7,2.8h0c0.1-0.8,0.4-1.8,0.6-2.8l1-4.1h1.1
		l-2.1,8.1H383.7z"/>
	<path d="M375.5,1115.1c0.4,0,0.7,0.3,0.6,0.7c0,0.4-0.3,0.6-0.6,0.6c-0.4,0-0.7-0.3-0.7-0.6
		C374.8,1115.4,375.1,1115.1,375.5,1115.1z M375,1123.2v-5.8h1v5.8H375z"/>
	<path d="M369.2,1114.7v3.5h0c0.3-0.5,0.9-0.9,1.8-0.9c1.4,0,2.6,1.2,2.6,3.1c0,1.8-1.1,2.9-2.5,2.9c-0.9,0-1.6-0.5-2-1.1h0l0,1
		h-0.9c0-0.4,0-1,0-1.5v-7H369.2z M369.2,1120.8c0,0.2,0,0.3,0,0.5c0.2,0.8,0.8,1.3,1.5,1.3c1.1,0,1.7-1,1.7-2.2
		c0-1.3-0.7-2.2-1.8-2.2c-0.8,0-1.4,0.5-1.5,1.2c0,0.1,0,0.3,0,0.4V1120.8z"/>
	<path d="M366.2,1116v1.4h0.9v0.8h-0.9v3.2c0,0.7-0.1,1.2-0.4,1.5c-0.3,0.3-0.7,0.4-1.1,0.4c-0.4,0-0.7-0.1-0.9-0.2l0-0.8
		c0.1,0,0.3,0.1,0.6,0.1c0.6,0,0.8-0.4,0.8-1.1v-3.1h-1.5v-0.8h1.5v-1.7L366.2,1116z"/>
	<path d="M362.5,1123.2h-1v-3.5c0-0.2,0-0.3-0.1-0.5c-0.2-0.6-0.7-1-1.4-1c-1,0-1.3,0.8-1.3,1.7v3.3h-1v-3.5c0-2,1.2-2.5,2-2.5
		c0.4,0,0.8,0.1,1.1,0.3c0.3,0.2,0.6,0.4,0.8,0.7h0v-3.6h1V1123.2z"/>
	<path d="M351.4,1123.2h-5v-0.9h1.5c0.8,0,1.2,0,1.8,0c-1.3-0.9-2.9-2.4-2.9-3.9c0-1.1,0.6-2.3,2.3-2.3c1,0,1.7,0.4,2.2,0.8
		l-0.4,0.8c-0.5-0.4-1-0.7-1.8-0.7c-1,0-1.4,0.6-1.4,1.5c0,1.2,1.3,2.4,2.8,3.5l0.8,0.6V1123.2z"/>
	<path d="M345.3,1122.6c-0.6,0.4-1.3,0.7-2.3,0.7c-1.8,0-2.7-1-2.7-2.4c0-1.2,0.8-2.2,2.7-2.2c0.4,0,0.6,0,0.9,0.1l-0.3-1.7h-2.9
		l-0.1-0.9h3.7l0.5,3.3v0.3c-0.4-0.1-0.9-0.2-1.5-0.2c-1.7,0-2.1,0.8-2.1,1.5c0,0.6,0.3,1.4,1.6,1.4c0.8,0,1.4-0.3,2-0.7
		L345.3,1122.6z"/>
	<path d="M339.3,1120.1c0,1.9-0.9,3.2-2.6,3.2c-1.7,0-2.5-1.2-2.5-2.5c0-1.3,0.7-2.3,2.2-2.3c0.7,0,1.5,0.3,1.9,0.9
		c-0.2-1.5-1.3-2.4-2.9-2.4c-0.2,0-0.4,0-0.6,0l0-0.9c0.1,0,0.3,0,0.6,0C337.4,1116.1,339.3,1117.4,339.3,1120.1z M338.3,1120.4
		c-0.3-0.5-0.9-0.9-1.7-0.9c-1,0-1.5,0.7-1.5,1.5c0,0.8,0.6,1.5,1.5,1.5C337.6,1122.4,338.3,1121.5,338.3,1120.4z"/>
	<path d="M423.5,1137.2c-0.4,0.3-1.3,0.5-2.1,0.5c-1.9,0-2.8-1.1-2.8-2.3c0-1.2,0.7-1.8,2.1-2.4c1.1-0.4,1.6-0.8,1.6-1.6
		c0-0.6-0.4-1.2-1.5-1.2c-0.7,0-1.3,0.2-1.5,0.4l-0.3-0.9c0.4-0.2,1-0.4,1.8-0.4c1.6,0,2.6,0.9,2.6,2.2c0,1.1-0.8,1.8-2.1,2.3
		c-1.1,0.4-1.5,0.9-1.5,1.6c0,0.8,0.6,1.4,1.7,1.4c0.7,0,1.4-0.2,1.9-0.5L423.5,1137.2z"/>
	<path d="M414.7,1131.7c1.6,0,2.9,1.1,2.9,3c0,1.9-1.2,3-2.8,3c-1.3,0-2.9-0.9-2.9-3C412,1132.8,413.1,1131.7,414.7,1131.7z
		 M414.8,1132.5c-1.3,0-1.8,1.2-1.8,2.3c0,1.2,0.6,2.2,1.8,2.2c1.2,0,1.8-1.1,1.8-2.2C416.6,1133.7,416.1,1132.5,414.8,1132.5z"/>
	<path d="M405.7,1137.6c0-0.5,0-1,0-1.6v-4.2h1v3.5c0,0.2,0,0.4,0.1,0.6c0.2,0.4,0.6,1,1.4,1c0.9,0,1.3-0.7,1.3-1.9v-3.2h1.1v3.4
		c0,1.9-0.9,2.5-2,2.5c-1.1,0-1.7-0.6-1.9-1.1h0l-0.1,0.9H405.7z"/>
	<path d="M404,1137.6h-1v-3.1c0-0.2,0-0.3,0-0.5c-0.1-0.8-0.7-1.4-1.4-1.4c-0.1,0-0.3,0-0.3,0v-1c0.1,0,0.2,0,0.3,0
		c0.7,0,1.3,0.5,1.6,1.3h0l0-1.1h0.9c0,0.5,0,1.1,0,1.8V1137.6z"/>
	<path d="M396.1,1136.6c0.3,0.1,0.7,0.3,1.3,0.3c1.2,0,2-0.8,2-2.2c0-1.2-0.7-2.2-2.1-2.2c-0.6,0-1,0.1-1.2,0.3l-0.2-0.8
		c0.3-0.1,0.9-0.3,1.5-0.3c1.9,0,3.1,1.3,3.1,3.1c0,1.8-1.1,3-2.9,3c-0.8,0-1.4-0.2-1.7-0.3L396.1,1136.6z"/>
	<path d="M390.1,1134.9c0-0.1,0-0.3,0-0.5c0-1.1,0.5-2.7,2.4-2.7c1.7,0,2.7,1.4,2.7,3.1c0,1.7-1.1,2.9-2.9,2.9
		c-0.9,0-1.6-0.2-1.9-0.4l0.2-0.8c0.4,0.2,0.9,0.3,1.6,0.3c1.1,0,2-0.6,2-2H390.1z M394.1,1134.1c-0.1-0.7-0.6-1.7-1.6-1.7
		c-1.2,0-1.5,1-1.5,1.7H394.1z"/>
	<path d="M386.1,1129.5v8.1h-1.1v-3.8h-3.9v3.8h-1v-8.1h1v3.4h3.9v-3.4H386.1z"/>
	<path d="M373.7,1134.9c0-0.1,0-0.3,0-0.5c0-1.1,0.5-2.7,2.4-2.7c1.7,0,2.7,1.4,2.7,3.1c0,1.7-1.1,2.9-2.9,2.9
		c-0.9,0-1.6-0.2-1.9-0.4l0.2-0.8c0.4,0.2,0.9,0.3,1.6,0.3c1.1,0,2-0.6,2-2H373.7z M377.7,1134.1c-0.1-0.7-0.6-1.7-1.6-1.7
		c-1.2,0-1.5,1-1.5,1.7H377.7z"/>
	<path d="M371.8,1129.5c0.4,0,0.7,0.3,0.6,0.7c0,0.4-0.3,0.6-0.6,0.6c-0.4,0-0.7-0.3-0.7-0.6
		C371.1,1129.8,371.4,1129.5,371.8,1129.5z M371.3,1137.6v-5.8h1v5.8H371.3z"/>
	<path d="M364.6,1133.4c0-0.7,0-1.2,0-1.6h0.9l0,0.9h0c0.3-0.5,0.8-1,1.8-1c1.3,0,2.6,1.1,2.6,3.1c0,1.6-1,2.8-2.5,2.8
		c-0.9,0-1.5-0.4-1.8-1h0v0.6c0,1.5,0.8,2,1.9,2c0.7,0,1.3-0.2,1.7-0.5l0.3,0.8c-0.5,0.3-1.2,0.5-1.9,0.5c-0.7,0-1.5-0.2-2.1-0.7
		c-0.6-0.5-0.8-1.3-0.8-2.7V1133.4z M365.6,1135.1c0,0.2,0,0.4,0.1,0.6c0.2,0.7,0.8,1.1,1.5,1.1c1.1,0,1.7-1,1.7-2.1
		c0-1.3-0.7-2.2-1.7-2.2c-0.8,0-1.3,0.5-1.5,1.1c0,0.1-0.1,0.3-0.1,0.5V1135.1z"/>
	<path d="M362.8,1137.6h-1v-3.5c0-0.2,0-0.3-0.1-0.5c-0.2-0.6-0.7-1-1.4-1c-1,0-1.3,0.8-1.3,1.7v3.3h-1v-3.5c0-2,1.2-2.5,2-2.5
		c0.4,0,0.8,0.1,1.1,0.3c0.3,0.2,0.6,0.4,0.8,0.7h0v-3.6h1V1137.6z"/>
	<path d="M355.9,1130.4v1.4h0.9v0.8h-0.9v3.2c0,0.7-0.1,1.2-0.4,1.5c-0.3,0.3-0.7,0.4-1.1,0.4c-0.4,0-0.7-0.1-0.9-0.2l0-0.8
		c0.1,0,0.3,0.1,0.6,0.1c0.6,0,0.8-0.4,0.8-1.1v-3.1h-1.5v-0.8h1.5v-1.7L355.9,1130.4z"/>
	<path d="M348.4,1136.7v-6.2h0.7c0.4,0.3,1.2,0.6,1.8,0.8l-0.1,0.8c-0.4-0.1-1-0.3-1.4-0.5v5.1h1.7v0.9h-4.1v-0.9H348.4z"/>
	<path d="M345.5,1134.1c0,2.2-1,3.6-2.6,3.6c-1.8,0-2.6-1.7-2.6-3.6c0-1.8,0.7-3.6,2.6-3.6C344.4,1130.5,345.5,1131.9,345.5,1134.1z
		 M344.5,1134c0-1.7-0.7-2.7-1.6-2.7c-1,0-1.6,1-1.6,2.7c0,1.5,0.5,2.7,1.5,2.7C343.9,1136.8,344.5,1135.7,344.5,1134z"/>
	<path d="M339.2,1137.6h-5v-0.9h1.5c0.8,0,1.2,0,1.8,0c-1.3-0.9-2.9-2.4-2.9-3.9c0-1.1,0.6-2.3,2.3-2.3c1,0,1.7,0.4,2.2,0.8
		l-0.4,0.8c-0.5-0.4-1-0.7-1.8-0.7c-1,0-1.4,0.6-1.4,1.5c0,1.2,1.3,2.4,2.8,3.5l0.8,0.6V1137.6z"/>
	<path d="M333.3,1135.7h-3.3v1.9H329v-1.9h-1v-0.9h1v-4.3h1c0.6,0.7,2.7,3.7,3.3,4.5V1135.7z M332.2,1134.8
		c-0.3-0.4-1.9-2.7-2.3-3.2h0c0,0.4,0,1.2,0,2.1v1.1H332.2z"/>
	<path d="M423.5,1151.6c-0.4,0.3-1.3,0.5-2.1,0.5c-1.9,0-2.8-1.1-2.8-2.3c0-1.2,0.7-1.8,2.1-2.4c1.1-0.4,1.6-0.8,1.6-1.6
		c0-0.6-0.4-1.2-1.5-1.2c-0.7,0-1.3,0.2-1.5,0.4l-0.3-0.9c0.4-0.2,1-0.4,1.8-0.4c1.6,0,2.6,0.9,2.6,2.2c0,1.1-0.8,1.8-2.1,2.3
		c-1.1,0.4-1.5,0.9-1.5,1.6c0,0.8,0.6,1.4,1.7,1.4c0.7,0,1.4-0.2,1.9-0.5L423.5,1151.6z"/>
	<path d="M414.7,1146.1c1.6,0,2.9,1.1,2.9,3c0,1.9-1.2,3-2.8,3c-1.3,0-2.9-0.9-2.9-3C412,1147.2,413.1,1146.1,414.7,1146.1z
		 M414.8,1146.9c-1.3,0-1.8,1.2-1.8,2.3c0,1.2,0.6,2.2,1.8,2.2c1.2,0,1.8-1.1,1.8-2.2C416.6,1148.1,416.1,1146.9,414.8,1146.9z"/>
	<path d="M405.7,1152c0-0.5,0-1,0-1.6v-4.2h1v3.5c0,0.2,0,0.4,0.1,0.6c0.2,0.4,0.6,1,1.4,1c0.9,0,1.3-0.7,1.3-1.9v-3.2h1.1v3.4
		c0,1.9-0.9,2.5-2,2.5c-1.1,0-1.7-0.6-1.9-1.1h0l-0.1,0.9H405.7z"/>
	<path d="M404,1152h-1v-3.1c0-0.2,0-0.3,0-0.5c-0.1-0.8-0.7-1.4-1.4-1.4c-0.1,0-0.3,0-0.3,0v-1c0.1,0,0.2,0,0.3,0
		c0.7,0,1.3,0.5,1.6,1.3h0l0-1.1h0.9c0,0.5,0,1.1,0,1.8V1152z"/>
	<path d="M396.1,1151c0.3,0.1,0.7,0.3,1.3,0.3c1.2,0,2-0.8,2-2.2c0-1.2-0.7-2.2-2.1-2.2c-0.6,0-1,0.1-1.2,0.3l-0.2-0.8
		c0.3-0.1,0.9-0.3,1.5-0.3c1.9,0,3.1,1.3,3.1,3.1c0,1.8-1.1,3-2.9,3c-0.8,0-1.4-0.2-1.7-0.3L396.1,1151z"/>
	<path d="M390.1,1149.3c0-0.1,0-0.3,0-0.5c0-1.1,0.5-2.7,2.4-2.7c1.7,0,2.7,1.4,2.7,3.1c0,1.7-1.1,2.9-2.9,2.9
		c-0.9,0-1.6-0.2-1.9-0.4l0.2-0.8c0.4,0.2,0.9,0.3,1.6,0.3c1.1,0,2-0.6,2-2H390.1z M394.1,1148.5c-0.1-0.7-0.6-1.7-1.6-1.7
		c-1.2,0-1.5,1-1.5,1.7H394.1z"/>
	<path d="M386.1,1152h-1.1v-3.2c-0.2,0-0.5,0.1-0.9,0.1c-1,0-1.9-0.3-2.4-0.9c-0.4-0.4-0.6-1-0.6-1.7c0-0.7,0.3-1.3,0.7-1.7
		c0.5-0.4,1.2-0.7,2.3-0.7c0.8,0,1.5,0.1,2,0.2V1152z M385.1,1144.8c-0.2,0-0.5-0.1-1-0.1c-1.2,0-1.9,0.5-1.9,1.6
		c0,1.1,0.8,1.7,2,1.7c0.3,0,0.7,0,0.9-0.1V1144.8z"/>
	<path d="M379.2,1143.9c0.4,0,0.7,0.3,0.6,0.7c0,0.4-0.3,0.6-0.6,0.6c-0.4,0-0.7-0.3-0.7-0.6
		C378.6,1144.2,378.9,1143.9,379.2,1143.9z M378.7,1152v-5.8h1v5.8H378.7z"/>
	<path d="M377.6,1146.2l-2,2.8l2.1,3h-1.2l-0.8-1.3c-0.2-0.4-0.4-0.7-0.6-1h0c-0.2,0.3-0.4,0.7-0.6,1l-0.9,1.3h-1.2l2-3l-2-2.8h1.2
		l0.8,1.2c0.2,0.3,0.4,0.6,0.6,0.9h0c0.2-0.3,0.4-0.6,0.6-0.9l0.8-1.2H377.6z"/>
	<path d="M366.8,1149.3c0-0.1,0-0.3,0-0.5c0-1.1,0.5-2.7,2.4-2.7c1.7,0,2.7,1.4,2.7,3.1c0,1.7-1.1,2.9-2.9,2.9
		c-0.9,0-1.6-0.2-1.9-0.4l0.2-0.8c0.4,0.2,0.9,0.3,1.6,0.3c1.1,0,2-0.6,2-2H366.8z M370.8,1148.5c-0.1-0.7-0.6-1.7-1.6-1.7
		c-1.2,0-1.5,1-1.5,1.7H370.8z"/>
	<path d="M365.4,1152h-1v-8.5h1V1152z"/>
	<path d="M355.8,1149.5l-0.9,2.5h-1.1l2.8-8.1h1.2l2.8,8.1h-1.1l-0.8-2.5H355.8z M358.5,1148.6l-0.8-2.3c-0.2-0.5-0.3-1-0.4-1.5h0
		c-0.1,0.5-0.2,0.9-0.4,1.5l-0.8,2.3H358.5z"/>
	<path d="M353.1,1151.7c-0.4,0.2-1,0.4-1.6,0.4c-1.4,0-2.2-0.7-2.2-1.8c0-0.9,0.5-1.4,1.5-1.7c0.8-0.3,1.1-0.5,1.1-1
		c0-0.4-0.3-0.8-1-0.8c-0.6,0-1,0.2-1.2,0.3l-0.3-0.8c0.3-0.2,0.8-0.3,1.4-0.3c1.2,0,2,0.8,2,1.7c0,0.7-0.5,1.3-1.5,1.7
		c-0.8,0.3-1.1,0.6-1.1,1.1c0,0.5,0.4,0.9,1.1,0.9c0.5,0,1.1-0.2,1.4-0.4L353.1,1151.7z"/>
	<path d="M347.9,1154.4h-1v-3.2h0c-0.3,0.6-1,0.9-1.8,0.9c-1.4,0-2.6-1-2.6-3.1c0-1.8,1.1-2.9,2.5-2.9c0.9,0,1.6,0.4,2.1,1.1h0l0-1
		h0.9c0,0.5,0,1.1,0,1.9V1154.4z M346.9,1148.6c0-0.1,0-0.3-0.1-0.4c-0.2-0.8-0.9-1.3-1.6-1.3c-1.1,0-1.7,1-1.7,2.1
		c0,1.3,0.6,2.2,1.8,2.2c0.8,0,1.4-0.5,1.6-1.2c0-0.1,0-0.3,0-0.4V1148.6z"/>
	<path d="M336.4,1149.3c0-0.1,0-0.3,0-0.5c0-1.1,0.5-2.7,2.4-2.7c1.7,0,2.7,1.4,2.7,3.1c0,1.7-1.1,2.9-2.9,2.9
		c-0.9,0-1.6-0.2-1.9-0.4l0.2-0.8c0.4,0.2,0.9,0.3,1.6,0.3c1.1,0,2-0.6,2-2H336.4z M340.5,1148.5c-0.1-0.7-0.6-1.7-1.6-1.7
		c-1.2,0-1.5,1-1.5,1.7H340.5z"/>
	<path d="M331.1,1151c0.3,0.1,0.7,0.3,1.3,0.3c1.2,0,2-0.8,2-2.2c0-1.2-0.7-2.2-2.1-2.2c-0.6,0-1,0.1-1.2,0.3l-0.2-0.8
		c0.3-0.1,0.9-0.3,1.5-0.3c1.9,0,3.1,1.3,3.1,3.1c0,1.8-1.1,3-2.9,3c-0.8,0-1.4-0.2-1.7-0.3L331.1,1151z"/>
	<path d="M329.5,1144.8v1.4h0.9v0.8h-0.9v3.2c0,0.7-0.1,1.2-0.4,1.5c-0.3,0.3-0.7,0.4-1.1,0.4c-0.4,0-0.7-0.1-0.9-0.2l0-0.8
		c0.1,0,0.3,0.1,0.6,0.1c0.6,0,0.8-0.4,0.8-1.1v-3.1h-1.5v-0.8h1.5v-1.7L329.5,1144.8z"/>
	<path d="M323.1,1152h-1.1v-3.5h-1c-0.9,0-1.4,0.5-1.6,1.6c-0.2,1-0.4,1.7-0.5,1.9h-1.1c0.2-0.3,0.4-1.1,0.6-2.2
		c0.2-0.8,0.6-1.4,1.2-1.6v0c-0.9-0.3-1.5-1-1.5-2.1c0-0.6,0.2-1.2,0.6-1.5c0.5-0.5,1.2-0.7,2.3-0.7c0.7,0,1.5,0.1,2,0.2V1152z
		 M322.1,1144.8c-0.2,0-0.5-0.1-1-0.1c-1.1,0-1.9,0.5-1.9,1.5c0,0.9,0.7,1.5,1.8,1.5h1.1V1144.8z"/>
	<path d="M312.6,1148.5c0-1.2,0.4-2.4,2.2-2.4c0.7,0,1.4,0.2,1.9,0.5l-0.2,0.7c-0.4-0.3-1-0.4-1.5-0.4c-1.2,0-1.3,0.9-1.3,1.3v0.1
		c2.2,0,3.5,0.7,3.5,2.1c0,0.8-0.6,1.7-1.8,1.7c-0.8,0-1.5-0.4-1.8-0.9h0l-0.1,0.7h-0.9c0.1-0.4,0.1-0.9,0.1-1.4V1148.5z
		 M313.7,1150c0,0.1,0,0.2,0,0.3c0.2,0.5,0.6,1,1.4,1c0.5,0,1-0.3,1-1c0-1.1-1.3-1.3-2.5-1.3V1150z"/>
	<path d="M310.7,1144.8v1.4h0.9v0.8h-0.9v3.2c0,0.7-0.1,1.2-0.4,1.5c-0.3,0.3-0.7,0.4-1.1,0.4c-0.4,0-0.7-0.1-0.9-0.2l0-0.8
		c0.1,0,0.3,0.1,0.6,0.1c0.6,0,0.8-0.4,0.8-1.1v-3.1h-1.5v-0.8h1.5v-1.7L310.7,1144.8z"/>
	<path d="M306.4,1143.9c0.4,0,0.7,0.3,0.6,0.7c0,0.4-0.3,0.6-0.6,0.6c-0.4,0-0.7-0.3-0.7-0.6C305.8,1144.2,306,1143.9,306.4,1143.9z
		 M305.9,1152v-5.8h1v5.8H305.9z"/>
	<path d="M301.7,1146.1c1.6,0,2.9,1.1,2.9,3c0,1.9-1.2,3-2.8,3c-1.3,0-2.9-0.9-2.9-3C298.9,1147.2,300.1,1146.1,301.7,1146.1z
		 M301.7,1146.9c-1.3,0-1.8,1.2-1.8,2.3c0,1.2,0.6,2.2,1.8,2.2c1.2,0,1.8-1.1,1.8-2.2C303.5,1148.1,303,1146.9,301.7,1146.9z"/>
	<path d="M276.4,1151.1v-6.2h0.7c0.4,0.3,1.2,0.6,1.8,0.8l-0.1,0.8c-0.4-0.1-1-0.3-1.4-0.5v5.1h1.7v0.9h-4.1v-0.9H276.4z"/>
	<path d="M417.7,1165.3c0.4,0.2,1.1,0.3,1.7,0.3c2,0,3.1-1.3,3.1-3.2c0-2.1-1.3-3.3-3.2-3.3c-0.7,0-1.2,0.1-1.6,0.3l-0.3-0.9
		c0.3-0.1,0.9-0.3,1.9-0.3c2.5,0,4.2,1.7,4.2,4.2c0,2.7-1.7,4.1-4,4.1c-1,0-1.8-0.2-2.1-0.4L417.7,1165.3z"/>
	<path d="M413.7,1160.5c1.6,0,2.9,1.1,2.9,3c0,1.9-1.2,3-2.8,3c-1.3,0-2.9-0.9-2.9-3C410.9,1161.6,412.1,1160.5,413.7,1160.5z
		 M413.8,1161.3c-1.3,0-1.8,1.2-1.8,2.3c0,1.2,0.6,2.2,1.8,2.2c1.2,0,1.8-1.1,1.8-2.2C415.5,1162.5,415,1161.3,413.8,1161.3z"/>
	<path d="M409.6,1166.4h-1v-3.5c0-0.2,0-0.4-0.1-0.5c-0.2-0.5-0.7-1.1-1.3-1.1c-0.8,0-1.2,0.7-1.2,1.6v3.5h-1v-3.6
		c0-0.2,0-0.4-0.1-0.5c-0.2-0.5-0.6-0.9-1.2-0.9c-0.9,0-1.3,0.7-1.3,1.8v3.3h-1v-3.4c0-2,1.1-2.5,1.9-2.5c0.6,0,0.9,0.1,1.3,0.4
		c0.2,0.2,0.5,0.4,0.6,0.8h0c0.3-0.7,0.9-1.2,1.6-1.2c1,0,1.5,0.5,1.8,1.1h0l0.1-0.9h0.9c0,0.5,0,1,0,1.6V1166.4z"/>
	<path d="M399.6,1168.8h-1v-3.2h0c-0.3,0.6-1,0.9-1.8,0.9c-1.4,0-2.6-1-2.6-3.1c0-1.8,1.1-2.9,2.5-2.9c0.9,0,1.6,0.4,2.1,1.1h0l0-1
		h0.9c0,0.5,0,1.1,0,1.9V1168.8z M398.5,1163c0-0.1,0-0.3-0.1-0.4c-0.2-0.8-0.9-1.3-1.6-1.3c-1.1,0-1.7,1-1.7,2.1
		c0,1.3,0.6,2.2,1.8,2.2c0.8,0,1.4-0.5,1.6-1.2c0-0.1,0-0.3,0-0.4V1163z"/>
	<path d="M390.1,1166.4h-1.1v-3.2c-0.2,0-0.5,0.1-0.9,0.1c-1,0-1.9-0.3-2.4-0.9c-0.4-0.4-0.6-1-0.6-1.7c0-0.7,0.3-1.3,0.7-1.7
		c0.5-0.4,1.2-0.7,2.3-0.7c0.8,0,1.5,0.1,2,0.2V1166.4z M389.1,1159.2c-0.2,0-0.5-0.1-1-0.1c-1.2,0-1.9,0.5-1.9,1.6
		c0,1.1,0.8,1.7,2,1.7c0.3,0,0.7,0,0.9-0.1V1159.2z"/>
	<path d="M383.3,1158.3c0.4,0,0.7,0.3,0.6,0.7c0,0.4-0.3,0.6-0.6,0.6c-0.4,0-0.7-0.3-0.7-0.6
		C382.6,1158.6,382.9,1158.3,383.3,1158.3z M382.7,1166.4v-5.8h1v5.8H382.7z"/>
	<path d="M381.7,1160.6l-2,2.8l2.1,3h-1.2l-0.8-1.3c-0.2-0.4-0.4-0.7-0.6-1h0c-0.2,0.3-0.4,0.7-0.6,1l-0.9,1.3h-1.2l2-3l-2-2.8h1.2
		l0.8,1.2c0.2,0.3,0.4,0.6,0.6,0.9h0c0.2-0.3,0.4-0.6,0.6-0.9l0.8-1.2H381.7z"/>
	<path d="M370.8,1163.7c0-0.1,0-0.3,0-0.5c0-1.1,0.5-2.7,2.4-2.7c1.7,0,2.7,1.4,2.7,3.1c0,1.7-1.1,2.9-2.9,2.9
		c-0.9,0-1.6-0.2-1.9-0.4l0.2-0.8c0.4,0.2,0.9,0.3,1.6,0.3c1.1,0,2-0.6,2-2H370.8z M374.8,1162.9c-0.1-0.7-0.6-1.7-1.6-1.7
		c-1.2,0-1.5,1-1.5,1.7H374.8z"/>
	<path d="M369.4,1166.4h-1v-8.5h1V1166.4z"/>
	<path d="M359.8,1163.9l-0.9,2.5h-1.1l2.8-8.1h1.2l2.8,8.1h-1.1l-0.8-2.5H359.8z M362.5,1163l-0.8-2.3c-0.2-0.5-0.3-1-0.4-1.5h0
		c-0.1,0.5-0.2,0.9-0.4,1.5l-0.8,2.3H362.5z"/>
	<path d="M357.1,1166.1c-0.4,0.2-1,0.4-1.6,0.4c-1.4,0-2.2-0.7-2.2-1.8c0-0.9,0.5-1.4,1.5-1.7c0.8-0.3,1.1-0.5,1.1-1
		c0-0.4-0.3-0.8-1-0.8c-0.6,0-1,0.2-1.2,0.3l-0.3-0.8c0.3-0.2,0.8-0.3,1.4-0.3c1.2,0,2,0.8,2,1.7c0,0.7-0.5,1.3-1.5,1.7
		c-0.8,0.3-1.1,0.6-1.1,1.1c0,0.5,0.4,0.9,1.1,0.9c0.5,0,1.1-0.2,1.4-0.4L357.1,1166.1z"/>
	<path d="M351.9,1168.8h-1v-3.2h0c-0.3,0.6-1,0.9-1.8,0.9c-1.4,0-2.6-1-2.6-3.1c0-1.8,1.1-2.9,2.5-2.9c0.9,0,1.6,0.4,2.1,1.1h0l0-1
		h0.9c0,0.5,0,1.1,0,1.9V1168.8z M350.9,1163c0-0.1,0-0.3-0.1-0.4c-0.2-0.8-0.9-1.3-1.6-1.3c-1.1,0-1.7,1-1.7,2.1
		c0,1.3,0.6,2.2,1.8,2.2c0.8,0,1.4-0.5,1.6-1.2c0-0.1,0-0.3,0-0.4V1163z"/>
	<path d="M340.4,1163.7c0-0.1,0-0.3,0-0.5c0-1.1,0.5-2.7,2.4-2.7c1.7,0,2.7,1.4,2.7,3.1c0,1.7-1.1,2.9-2.9,2.9
		c-0.9,0-1.6-0.2-1.9-0.4l0.2-0.8c0.4,0.2,0.9,0.3,1.6,0.3c1.1,0,2-0.6,2-2H340.4z M344.5,1162.9c-0.1-0.7-0.6-1.7-1.6-1.7
		c-1.2,0-1.5,1-1.5,1.7H344.5z"/>
	<path d="M335.1,1165.4c0.3,0.1,0.7,0.3,1.3,0.3c1.2,0,2-0.8,2-2.2c0-1.2-0.7-2.2-2.1-2.2c-0.6,0-1,0.1-1.2,0.3l-0.2-0.8
		c0.3-0.1,0.9-0.3,1.5-0.3c1.9,0,3.1,1.3,3.1,3.1c0,1.8-1.1,3-2.9,3c-0.8,0-1.4-0.2-1.7-0.3L335.1,1165.4z"/>
	<path d="M333.5,1159.2v1.4h0.9v0.8h-0.9v3.2c0,0.7-0.1,1.2-0.4,1.5c-0.3,0.3-0.7,0.4-1.1,0.4c-0.4,0-0.7-0.1-0.9-0.2l0-0.8
		c0.1,0,0.3,0.1,0.6,0.1c0.6,0,0.8-0.4,0.8-1.1v-3.1h-1.5v-0.8h1.5v-1.7L333.5,1159.2z"/>
	<path d="M327.2,1166.4h-1.1v-3.5h-1c-0.9,0-1.4,0.5-1.6,1.6c-0.2,1-0.4,1.7-0.5,1.9h-1.1c0.2-0.3,0.4-1.1,0.6-2.2
		c0.2-0.8,0.6-1.4,1.2-1.6v0c-0.9-0.3-1.5-1-1.5-2.1c0-0.6,0.2-1.2,0.6-1.5c0.5-0.5,1.2-0.7,2.3-0.7c0.7,0,1.5,0.1,2,0.2V1166.4z
		 M326.1,1159.2c-0.2,0-0.5-0.1-1-0.1c-1.1,0-1.9,0.5-1.9,1.5c0,0.9,0.7,1.5,1.8,1.5h1.1V1159.2z"/>
	<path d="M316.7,1162.9c0-1.2,0.4-2.4,2.2-2.4c0.7,0,1.4,0.2,1.9,0.5l-0.2,0.7c-0.4-0.3-1-0.4-1.5-0.4c-1.2,0-1.3,0.9-1.3,1.3v0.1
		c2.2,0,3.5,0.7,3.5,2.1c0,0.8-0.6,1.7-1.8,1.7c-0.8,0-1.5-0.4-1.8-0.9h0l-0.1,0.7h-0.9c0.1-0.4,0.1-0.9,0.1-1.4V1162.9z
		 M317.7,1164.4c0,0.1,0,0.2,0,0.3c0.2,0.5,0.6,1,1.4,1c0.5,0,1-0.3,1-1c0-1.1-1.3-1.3-2.5-1.3V1164.4z"/>
	<path d="M314.7,1159.2v1.4h0.9v0.8h-0.9v3.2c0,0.7-0.1,1.2-0.4,1.5c-0.3,0.3-0.7,0.4-1.1,0.4c-0.4,0-0.7-0.1-0.9-0.2l0-0.8
		c0.1,0,0.3,0.1,0.6,0.1c0.6,0,0.8-0.4,0.8-1.1v-3.1h-1.5v-0.8h1.5v-1.7L314.7,1159.2z"/>
	<path d="M310.4,1158.3c0.4,0,0.7,0.3,0.6,0.7c0,0.4-0.3,0.6-0.6,0.6c-0.4,0-0.7-0.3-0.7-0.6
		C309.8,1158.6,310.1,1158.3,310.4,1158.3z M309.9,1166.4v-5.8h1v5.8H309.9z"/>
	<path d="M305.7,1160.5c1.6,0,2.9,1.1,2.9,3c0,1.9-1.2,3-2.8,3c-1.3,0-2.9-0.9-2.9-3C302.9,1161.6,304.1,1160.5,305.7,1160.5z
		 M305.8,1161.3c-1.3,0-1.8,1.2-1.8,2.3c0,1.2,0.6,2.2,1.8,2.2c1.2,0,1.8-1.1,1.8-2.2C307.5,1162.5,307.1,1161.3,305.8,1161.3z"/>
	<path d="M276.4,1165.5v-6.2h0.7c0.4,0.3,1.2,0.6,1.8,0.8l-0.1,0.8c-0.4-0.1-1-0.3-1.4-0.5v5.1h1.7v0.9h-4.1v-0.9H276.4z"/>
	<path d="M454.9,1190.5h3.1v-2.6h-3.3v-0.9h4.4v8.1h-4.6v-0.9h3.5v-2.9h-3.1V1190.5z"/>
	<path d="M452.1,1195.2v-5h-1.4v-0.8h1.4v-0.3c0-0.9-0.2-1.7-1.1-1.7c-0.3,0-0.5,0.1-0.6,0.1l-0.2-0.8c0.2-0.1,0.5-0.2,0.9-0.2
		c0.5,0,1,0.2,1.4,0.5c0.5,0.5,0.7,1.2,0.7,2v0.3h0.8v0.8h-0.8v5H452.1z"/>
	<path d="M448.6,1195.2v-5h-1.4v-0.8h1.4v-0.3c0-0.9-0.2-1.7-1.1-1.7c-0.3,0-0.5,0.1-0.6,0.1l-0.2-0.8c0.2-0.1,0.5-0.2,0.9-0.2
		c0.5,0,1,0.2,1.4,0.5c0.5,0.5,0.7,1.2,0.7,2v0.3h0.8v0.8h-0.8v5H448.6z"/>
	<path d="M441.6,1192.5c0-0.1,0-0.3,0-0.5c0-1.1,0.5-2.7,2.4-2.7c1.7,0,2.7,1.4,2.7,3.1c0,1.7-1.1,2.9-2.9,2.9
		c-0.9,0-1.6-0.2-1.9-0.4l0.2-0.8c0.4,0.2,0.9,0.3,1.6,0.3c1.1,0,2-0.6,2-2H441.6z M445.6,1191.7c-0.1-0.7-0.6-1.7-1.6-1.7
		c-1.2,0-1.5,1-1.5,1.7H445.6z"/>
	<path d="M436.3,1194.2c0.3,0.1,0.7,0.3,1.3,0.3c1.2,0,2-0.8,2-2.2c0-1.2-0.7-2.2-2.1-2.2c-0.6,0-1,0.1-1.2,0.3l-0.2-0.8
		c0.3-0.1,0.9-0.3,1.5-0.3c1.9,0,3.1,1.3,3.1,3.1c0,1.8-1.1,3-2.9,3c-0.8,0-1.4-0.2-1.7-0.3L436.3,1194.2z"/>
	<path d="M434.6,1188v1.4h0.9v0.8h-0.9v3.2c0,0.7-0.1,1.2-0.4,1.5c-0.3,0.3-0.7,0.4-1.1,0.4c-0.4,0-0.7-0.1-0.9-0.2l0-0.8
		c0.1,0,0.3,0.1,0.6,0.1c0.6,0,0.8-0.4,0.8-1.1v-3.1h-1.5v-0.8h1.5v-1.7L434.6,1188z"/>
	<path d="M431.3,1194.9c-0.4,0.2-1,0.4-1.6,0.4c-1.4,0-2.2-0.7-2.2-1.8c0-0.9,0.5-1.4,1.5-1.7c0.8-0.3,1.1-0.5,1.1-1
		c0-0.4-0.3-0.8-1-0.8c-0.6,0-1,0.2-1.2,0.3l-0.3-0.8c0.3-0.2,0.8-0.3,1.4-0.3c1.2,0,2,0.8,2,1.7c0,0.7-0.5,1.3-1.5,1.7
		c-0.8,0.3-1.1,0.6-1.1,1.1c0,0.5,0.4,0.9,1.1,0.9c0.5,0,1.1-0.2,1.4-0.4L431.3,1194.9z"/>
	<path d="M416.9,1191h2.7v0.8H418v2.4c0.2,0.1,0.7,0.2,1.4,0.2c1.9,0,3.1-1.2,3.1-3.3c0-2-1.3-3.2-3.2-3.2c-0.8,0-1.4,0.2-1.8,0.3
		l-0.3-0.9c0.3-0.2,1.1-0.4,2-0.4c2.7,0,4.4,1.8,4.4,4.2c0,1.3-0.4,2.3-1.1,3c-0.8,0.8-1.8,1.1-3,1.1c-1.1,0-2-0.3-2.5-0.4V1191z"/>
	<path d="M415.4,1195.2h-1v-3.1c0-0.2,0-0.3,0-0.5c-0.1-0.8-0.7-1.4-1.4-1.4c-0.1,0-0.3,0-0.3,0v-1c0.1,0,0.2,0,0.3,0
		c0.7,0,1.3,0.5,1.6,1.3h0l0-1.1h0.9c0,0.5,0,1.1,0,1.8V1195.2z"/>
	<path d="M407.4,1191.7c0-1.2,0.4-2.4,2.2-2.4c0.7,0,1.4,0.2,1.9,0.5l-0.2,0.7c-0.4-0.3-1-0.4-1.5-0.4c-1.2,0-1.3,0.9-1.3,1.3v0.1
		c2.2,0,3.5,0.7,3.5,2.1c0,0.8-0.6,1.7-1.8,1.7c-0.8,0-1.5-0.4-1.8-0.9h0l-0.1,0.7h-0.9c0.1-0.4,0.1-0.9,0.1-1.4V1191.7z
		 M408.4,1193.2c0,0.1,0,0.2,0,0.3c0.2,0.5,0.6,1,1.4,1c0.5,0,1-0.3,1-1c0-1.1-1.3-1.3-2.5-1.3V1193.2z"/>
	<path d="M401.7,1186.7v3.5h0c0.3-0.5,0.9-0.9,1.8-0.9c1.4,0,2.6,1.2,2.6,3.1c0,1.8-1.1,2.9-2.5,2.9c-0.9,0-1.6-0.5-2-1.1h0l0,1
		h-0.9c0-0.4,0-1,0-1.5v-7H401.7z M401.7,1192.8c0,0.2,0,0.3,0,0.5c0.2,0.8,0.8,1.3,1.5,1.3c1.1,0,1.7-1,1.7-2.2
		c0-1.3-0.7-2.2-1.8-2.2c-0.8,0-1.4,0.5-1.5,1.2c0,0.1,0,0.3,0,0.4V1192.8z"/>
	<path d="M398.4,1187.1c0.4,0,0.7,0.3,0.6,0.7c0,0.4-0.3,0.6-0.6,0.6c-0.4,0-0.7-0.3-0.7-0.6C397.7,1187.4,398,1187.1,398.4,1187.1z
		 M397.9,1195.2v-5.8h1v5.8H397.9z"/>
	<path d="M391.4,1192.5c0-0.1,0-0.3,0-0.5c0-1.1,0.5-2.7,2.4-2.7c1.7,0,2.7,1.4,2.7,3.1c0,1.7-1.1,2.9-2.9,2.9
		c-0.9,0-1.6-0.2-1.9-0.4l0.2-0.8c0.4,0.2,0.9,0.3,1.6,0.3c1.1,0,2-0.6,2-2H391.4z M395.5,1191.7c-0.1-0.7-0.6-1.7-1.6-1.7
		c-1.2,0-1.5,1-1.5,1.7H395.5z"/>
	<path d="M390.1,1195.2h-1v-3.5c0-0.2,0-0.4-0.1-0.5c-0.2-0.6-0.7-1.1-1.4-1.1c-1,0-1.3,0.8-1.3,1.7v3.3h-1v-3.5c0-2,1.2-2.5,2-2.5
		c1,0,1.6,0.5,1.9,1.1h0l0-0.9h0.9c0,0.5,0,1,0,1.6V1195.2z"/>
	<path d="M383.2,1188v1.4h0.9v0.8h-0.9v3.2c0,0.7-0.1,1.2-0.4,1.5c-0.3,0.3-0.7,0.4-1.1,0.4c-0.4,0-0.7-0.1-0.9-0.2l0-0.8
		c0.1,0,0.3,0.1,0.6,0.1c0.6,0,0.8-0.4,0.8-1.1v-3.1h-1.5v-0.8h1.5v-1.7L383.2,1188z"/>
	<path d="M376.9,1195.2h-1.1v-3.5h-1c-0.9,0-1.4,0.5-1.6,1.6c-0.2,1-0.4,1.7-0.5,1.9h-1.1c0.2-0.3,0.4-1.1,0.6-2.2
		c0.2-0.8,0.6-1.4,1.2-1.6v0c-0.9-0.3-1.5-1-1.5-2.1c0-0.6,0.2-1.2,0.6-1.5c0.5-0.5,1.2-0.7,2.3-0.7c0.7,0,1.5,0.1,2,0.2V1195.2z
		 M375.8,1188c-0.2,0-0.5-0.1-1-0.1c-1.1,0-1.9,0.5-1.9,1.5c0,0.9,0.7,1.5,1.8,1.5h1.1V1188z"/>
	<path d="M366.4,1191.7c0-1.2,0.4-2.4,2.2-2.4c0.7,0,1.4,0.2,1.9,0.5l-0.2,0.7c-0.4-0.3-1-0.4-1.5-0.4c-1.2,0-1.3,0.9-1.3,1.3v0.1
		c2.2,0,3.5,0.7,3.5,2.1c0,0.8-0.6,1.7-1.8,1.7c-0.8,0-1.5-0.4-1.8-0.9h0l-0.1,0.7h-0.9c0.1-0.4,0.1-0.9,0.1-1.4V1191.7z
		 M367.4,1193.2c0,0.1,0,0.2,0,0.3c0.2,0.5,0.6,1,1.4,1c0.5,0,1-0.3,1-1c0-1.1-1.3-1.3-2.5-1.3V1193.2z"/>
	<path d="M364.7,1195.2h-1v-3.5c0-0.2,0-0.4-0.1-0.5c-0.2-0.5-0.7-1.1-1.3-1.1c-0.8,0-1.2,0.7-1.2,1.6v3.5h-1v-3.6
		c0-0.2,0-0.4-0.1-0.5c-0.2-0.5-0.6-0.9-1.2-0.9c-0.9,0-1.3,0.7-1.3,1.8v3.3h-1v-3.4c0-2,1.1-2.5,1.9-2.5c0.6,0,0.9,0.1,1.3,0.4
		c0.2,0.2,0.5,0.4,0.6,0.8h0c0.3-0.7,0.9-1.2,1.6-1.2c1,0,1.5,0.5,1.8,1.1h0l0.1-0.9h0.9c0,0.5,0,1,0,1.6V1195.2z"/>
	<path d="M354.6,1197.6h-1v-3.2h0c-0.3,0.6-1,0.9-1.8,0.9c-1.4,0-2.6-1-2.6-3.1c0-1.8,1.1-2.9,2.5-2.9c0.9,0,1.6,0.4,2.1,1.1h0l0-1
		h0.9c0,0.5,0,1.1,0,1.9V1197.6z M353.6,1191.8c0-0.1,0-0.3-0.1-0.4c-0.2-0.8-0.9-1.3-1.6-1.3c-1.1,0-1.7,1-1.7,2.1
		c0,1.3,0.6,2.2,1.8,2.2c0.8,0,1.4-0.5,1.6-1.2c0-0.1,0-0.3,0-0.4V1191.8z"/>
	<path d="M340.3,1190.9v-0.9h0.9l-0.4-1.8h0.7l0.4,1.8h1.3l-0.4-1.8h0.7l0.4,1.8h1.1v0.9h-0.9l0.4,1.5h1.1v0.9h-0.9l0.5,2h-0.7
		l-0.5-2h-1.3l0.5,2h-0.8l-0.5-2h-1.1v-0.9h0.9l-0.4-1.5H340.3z M342.5,1192.3h1.3l-0.4-1.5h-1.3L342.5,1192.3z"/>
	<path d="M336.2,1194.3v-6.2h0.7c0.4,0.3,1.2,0.6,1.8,0.8l-0.1,0.8c-0.4-0.1-1-0.3-1.4-0.5v5.1h1.7v0.9h-4.1v-0.9H336.2z"/>
	<path d="M315.5,1194.8c-0.4,0.3-1.3,0.5-2.1,0.5c-1.9,0-2.8-1.1-2.8-2.3c0-1.2,0.7-1.8,2.1-2.4c1.1-0.4,1.6-0.8,1.6-1.6
		c0-0.6-0.4-1.2-1.5-1.2c-0.7,0-1.3,0.2-1.5,0.4l-0.3-0.9c0.4-0.2,1-0.4,1.8-0.4c1.6,0,2.6,0.9,2.6,2.2c0,1.1-0.8,1.8-2.1,2.3
		c-1.1,0.4-1.5,0.9-1.5,1.6c0,0.8,0.6,1.4,1.7,1.4c0.7,0,1.4-0.2,1.9-0.5L315.5,1194.8z"/>
	<path d="M309,1188v1.4h0.9v0.8H309v3.2c0,0.7-0.1,1.2-0.4,1.5c-0.3,0.3-0.7,0.4-1.1,0.4c-0.4,0-0.7-0.1-0.9-0.2l0-0.8
		c0.1,0,0.3,0.1,0.6,0.1c0.6,0,0.8-0.4,0.8-1.1v-3.1h-1.5v-0.8h1.5v-1.7L309,1188z"/>
	<path d="M301.2,1191.7c0-1.2,0.4-2.4,2.2-2.4c0.7,0,1.4,0.2,1.9,0.5l-0.2,0.7c-0.4-0.3-1-0.4-1.5-0.4c-1.2,0-1.3,0.9-1.3,1.3v0.1
		c2.2,0,3.5,0.7,3.5,2.1c0,0.8-0.6,1.7-1.8,1.7c-0.8,0-1.5-0.4-1.8-0.9h0l-0.1,0.7h-0.9c0.1-0.4,0.1-0.9,0.1-1.4V1191.7z
		 M302.2,1193.2c0,0.1,0,0.2,0,0.3c0.2,0.5,0.6,1,1.4,1c0.5,0,1-0.3,1-1c0-1.1-1.3-1.3-2.5-1.3V1193.2z"/>
	<path d="M299.5,1195.2h-1v-3.1c0-0.2,0-0.3,0-0.5c-0.1-0.8-0.7-1.4-1.4-1.4c-0.1,0-0.3,0-0.3,0v-1c0.1,0,0.2,0,0.3,0
		c0.7,0,1.3,0.5,1.6,1.3h0l0-1.1h0.9c0,0.5,0,1.1,0,1.8V1195.2z"/>
	<path d="M295.3,1188v1.4h0.9v0.8h-0.9v3.2c0,0.7-0.1,1.2-0.4,1.5c-0.3,0.3-0.7,0.4-1.1,0.4c-0.4,0-0.7-0.1-0.9-0.2l0-0.8
		c0.1,0,0.3,0.1,0.6,0.1c0.6,0,0.8-0.4,0.8-1.1v-3.1h-1.5v-0.8h1.5v-1.7L295.3,1188z"/>
	<path d="M283.5,1194.1c0.4,0.2,1.1,0.3,1.7,0.3c2,0,3.1-1.3,3.1-3.2c0-2.1-1.3-3.3-3.2-3.3c-0.7,0-1.2,0.1-1.6,0.3l-0.3-0.9
		c0.3-0.1,0.9-0.3,1.9-0.3c2.5,0,4.2,1.7,4.2,4.2c0,2.7-1.7,4.1-4,4.1c-1,0-1.8-0.2-2.1-0.4L283.5,1194.1z"/>
	<path d="M279.6,1189.3c1.6,0,2.9,1.1,2.9,3c0,1.9-1.2,3-2.8,3c-1.3,0-2.9-0.9-2.9-3C276.8,1190.4,278,1189.3,279.6,1189.3z
		 M279.6,1190.1c-1.3,0-1.8,1.2-1.8,2.3c0,1.2,0.6,2.2,1.8,2.2c1.2,0,1.8-1.1,1.8-2.2C281.4,1191.3,280.9,1190.1,279.6,1190.1z"/>
	<path d="M275.5,1195.2h-1v-8.5h1V1195.2z"/>
	<path d="M270.2,1189.3c1.6,0,2.9,1.1,2.9,3c0,1.9-1.2,3-2.8,3c-1.3,0-2.9-0.9-2.9-3C267.4,1190.4,268.5,1189.3,270.2,1189.3z
		 M270.2,1190.1c-1.3,0-1.8,1.2-1.8,2.3c0,1.2,0.6,2.2,1.8,2.2c1.2,0,1.8-1.1,1.8-2.2C272,1191.3,271.5,1190.1,270.2,1190.1z"/>
	<path d="M266,1195.2h-1v-3.1c0-0.2,0-0.3,0-0.5c-0.1-0.8-0.7-1.4-1.4-1.4c-0.1,0-0.3,0-0.3,0v-1c0.1,0,0.2,0,0.3,0
		c0.7,0,1.3,0.5,1.6,1.3h0l0-1.1h0.9c0,0.5,0,1.1,0,1.8V1195.2z"/>
	<path d="M254.6,1190.9v-0.9h0.9l-0.4-1.8h0.7l0.4,1.8h1.3l-0.4-1.8h0.7l0.4,1.8h1.1v0.9h-0.9l0.4,1.5h1.1v0.9h-0.9l0.5,2h-0.7
		l-0.5-2h-1.3l0.5,2h-0.8l-0.5-2h-1.1v-0.9h0.9l-0.4-1.5H254.6z M256.8,1192.3h1.3l-0.4-1.5h-1.3L256.8,1192.3z"/>
	<path d="M253.7,1194.6c-0.5,0.4-1.3,0.7-2.4,0.7c-1.6,0-2.6-0.9-2.6-2.1c0-1.1,0.8-1.6,1.5-1.7v0c-0.6-0.2-1.2-0.7-1.2-1.5
		c0-1,0.7-1.8,2.3-1.8c1,0,1.7,0.3,2.2,0.6l-0.3,0.8c-0.5-0.4-1.1-0.6-1.8-0.6c-1.1,0-1.4,0.6-1.4,1.1c0,0.6,0.5,1.1,1.6,1.1h0.8
		v0.9h-0.8c-1.2,0-1.8,0.6-1.8,1.2c0,0.6,0.4,1.2,1.6,1.2c0.8,0,1.4-0.3,2-0.7L253.7,1194.6z"/>
	<path d="M423.1,1209.6H422v-3.7H419v-0.9h3.1v-2.7h-3.3v-0.9h4.4V1209.6z"/>
	<path d="M417.3,1209.6h-1v-3.1c0-0.2,0-0.3,0-0.5c-0.1-0.8-0.7-1.4-1.4-1.4c-0.1,0-0.3,0-0.3,0v-1c0.1,0,0.2,0,0.3,0
		c0.7,0,1.3,0.5,1.6,1.3h0l0-1.1h0.9c0,0.5,0,1.1,0,1.8V1209.6z"/>
	<path d="M409.3,1206c0-1.2,0.4-2.4,2.2-2.4c0.7,0,1.4,0.2,1.9,0.5l-0.2,0.7c-0.4-0.3-1-0.4-1.5-0.4c-1.2,0-1.3,0.9-1.3,1.3v0.1
		c2.2,0,3.5,0.7,3.5,2.1c0,0.8-0.6,1.7-1.8,1.7c-0.8,0-1.5-0.4-1.8-0.9h0l-0.1,0.7h-0.9c0.1-0.4,0.1-0.9,0.1-1.4V1206z
		 M410.3,1207.6c0,0.1,0,0.2,0,0.3c0.2,0.5,0.6,1,1.4,1c0.5,0,1-0.3,1-1c0-1.1-1.3-1.3-2.5-1.3V1207.6z"/>
	<path d="M407.6,1209.6h-1v-3.5c0-0.2,0-0.4-0.1-0.5c-0.2-0.5-0.7-1.1-1.3-1.1c-0.8,0-1.2,0.7-1.2,1.6v3.5h-1v-3.6
		c0-0.2,0-0.4-0.1-0.5c-0.2-0.5-0.6-0.9-1.2-0.9c-0.9,0-1.3,0.7-1.3,1.8v3.3h-1v-3.4c0-2,1.1-2.5,1.9-2.5c0.6,0,0.9,0.1,1.3,0.4
		c0.2,0.2,0.5,0.4,0.6,0.8h0c0.3-0.7,0.9-1.2,1.6-1.2c1,0,1.5,0.5,1.8,1.1h0l0.1-0.9h0.9c0,0.5,0,1,0,1.6V1209.6z"/>
	<path d="M392.9,1206.9c0-0.1,0-0.3,0-0.5c0-1.1,0.5-2.7,2.4-2.7c1.7,0,2.7,1.4,2.7,3.1c0,1.7-1.1,2.9-2.9,2.9
		c-0.9,0-1.6-0.2-1.9-0.4l0.2-0.8c0.4,0.2,0.9,0.3,1.6,0.3c1.1,0,2-0.6,2-2H392.9z M397,1206.1c-0.1-0.7-0.6-1.7-1.6-1.7
		c-1.2,0-1.5,1-1.5,1.7H397z"/>
	<path d="M383,1206c0-1.2,0.4-2.4,2.2-2.4c0.7,0,1.4,0.2,1.9,0.5l-0.2,0.7c-0.4-0.3-1-0.4-1.5-0.4c-1.2,0-1.3,0.9-1.3,1.3v0.1
		c2.2,0,3.5,0.7,3.5,2.1c0,0.8-0.6,1.7-1.8,1.7c-0.8,0-1.5-0.4-1.8-0.9h0l-0.1,0.7H383c0.1-0.4,0.1-0.9,0.1-1.4V1206z M384.1,1207.6
		c0,0.1,0,0.2,0,0.3c0.2,0.5,0.6,1,1.4,1c0.5,0,1-0.3,1-1c0-1.1-1.3-1.3-2.5-1.3V1207.6z"/>
	<path d="M381.3,1209.6h-1v-8.5h1V1209.6z"/>
	<path d="M378.5,1212h-1v-3.2h0c-0.3,0.6-1,0.9-1.8,0.9c-1.4,0-2.6-1-2.6-3.1c0-1.8,1.1-2.9,2.5-2.9c0.9,0,1.6,0.4,2.1,1.1h0l0-1
		h0.9c0,0.5,0,1.1,0,1.9V1212z M377.5,1206.2c0-0.1,0-0.3-0.1-0.4c-0.2-0.8-0.9-1.3-1.6-1.3c-1.1,0-1.7,1-1.7,2.1
		c0,1.3,0.6,2.2,1.8,2.2c0.8,0,1.4-0.5,1.6-1.2c0-0.1,0-0.3,0-0.4V1206.2z"/>
	<path d="M371.7,1209.6h-1v-3.5c0-0.2,0-0.3-0.1-0.5c-0.2-0.6-0.7-1-1.4-1c-1,0-1.3,0.8-1.3,1.7v3.3h-1v-3.5c0-2,1.2-2.5,2-2.5
		c0.4,0,0.8,0.1,1.1,0.3c0.3,0.2,0.6,0.4,0.8,0.7h0v-3.6h1V1209.6z"/>
	<path d="M360.9,1206c0-1.2,0.4-2.4,2.2-2.4c0.7,0,1.4,0.2,1.9,0.5l-0.2,0.7c-0.4-0.3-1-0.4-1.5-0.4c-1.2,0-1.3,0.9-1.3,1.3v0.1
		c2.2,0,3.5,0.7,3.5,2.1c0,0.8-0.6,1.7-1.8,1.7c-0.8,0-1.5-0.4-1.8-0.9h0l-0.1,0.7h-0.9c0.1-0.4,0.1-0.9,0.1-1.4V1206z M362,1207.6
		c0,0.1,0,0.2,0,0.3c0.2,0.5,0.6,1,1.4,1c0.5,0,1-0.3,1-1c0-1.1-1.3-1.3-2.5-1.3V1207.6z"/>
	<path d="M351.1,1209.6h-1v-3.1c0-0.2,0-0.3,0-0.5c-0.1-0.8-0.7-1.4-1.4-1.4c-0.1,0-0.3,0-0.3,0v-1c0.1,0,0.2,0,0.3,0
		c0.7,0,1.3,0.5,1.6,1.3h0l0-1.1h0.9c0,0.5,0,1.1,0,1.8V1209.6z"/>
	<path d="M342.5,1206.9c0-0.1,0-0.3,0-0.5c0-1.1,0.5-2.7,2.4-2.7c1.7,0,2.7,1.4,2.7,3.1c0,1.7-1.1,2.9-2.9,2.9
		c-0.9,0-1.6-0.2-1.9-0.4l0.2-0.8c0.4,0.2,0.9,0.3,1.6,0.3c1.1,0,2-0.6,2-2H342.5z M346.6,1206.1c-0.1-0.7-0.6-1.7-1.6-1.7
		c-1.2,0-1.5,1-1.5,1.7H346.6z"/>
	<path d="M337.2,1201.1v3.5h0c0.3-0.5,0.9-0.9,1.8-0.9c1.4,0,2.6,1.2,2.6,3.1c0,1.8-1.1,2.9-2.5,2.9c-0.9,0-1.6-0.5-2-1.1h0l0,1
		h-0.9c0-0.4,0-1,0-1.5v-7H337.2z M337.2,1207.2c0,0.2,0,0.3,0,0.5c0.2,0.8,0.8,1.3,1.5,1.3c1.1,0,1.7-1,1.7-2.2
		c0-1.3-0.7-2.2-1.8-2.2c-0.8,0-1.4,0.5-1.5,1.2c0,0.1,0,0.3,0,0.4V1207.2z"/>
	<path d="M310.2,1205.4c0-0.7,0-1.2,0-1.6h0.9l0,0.9h0c0.3-0.5,0.8-1,1.8-1c1.3,0,2.6,1.1,2.6,3.1c0,1.6-1,2.8-2.5,2.8
		c-0.9,0-1.5-0.4-1.8-1h0v0.6c0,1.5,0.8,2,1.9,2c0.7,0,1.3-0.2,1.7-0.5l0.3,0.8c-0.5,0.3-1.2,0.5-1.9,0.5c-0.7,0-1.5-0.2-2.1-0.7
		c-0.6-0.5-0.8-1.3-0.8-2.7V1205.4z M311.2,1207.1c0,0.2,0,0.4,0.1,0.6c0.2,0.7,0.8,1.1,1.5,1.1c1.1,0,1.7-1,1.7-2.1
		c0-1.3-0.7-2.2-1.7-2.2c-0.8,0-1.3,0.5-1.5,1.1c0,0.1-0.1,0.3-0.1,0.5V1207.1z"/>
	<path d="M308.4,1209.6h-1v-3.1c0-0.2,0-0.3,0-0.5c-0.1-0.8-0.7-1.4-1.4-1.4c-0.1,0-0.3,0-0.3,0v-1c0.1,0,0.2,0,0.3,0
		c0.7,0,1.3,0.5,1.6,1.3h0l0-1.1h0.9c0,0.5,0,1.1,0,1.8V1209.6z"/>
	<path d="M299.8,1206.9c0-0.1,0-0.3,0-0.5c0-1.1,0.5-2.7,2.4-2.7c1.7,0,2.7,1.4,2.7,3.1c0,1.7-1.1,2.9-2.9,2.9
		c-0.9,0-1.6-0.2-1.9-0.4l0.2-0.8c0.4,0.2,0.9,0.3,1.6,0.3c1.1,0,2-0.6,2-2H299.8z M303.9,1206.1c-0.1-0.7-0.6-1.7-1.6-1.7
		c-1.2,0-1.5,1-1.5,1.7H303.9z"/>
	<path d="M293.8,1206.9c0-0.1,0-0.3,0-0.5c0-1.1,0.5-2.7,2.4-2.7c1.7,0,2.7,1.4,2.7,3.1c0,1.7-1.1,2.9-2.9,2.9
		c-0.9,0-1.6-0.2-1.9-0.4l0.2-0.8c0.4,0.2,0.9,0.3,1.6,0.3c1.1,0,2-0.6,2-2H293.8z M297.9,1206.1c-0.1-0.7-0.6-1.7-1.6-1.7
		c-1.2,0-1.5,1-1.5,1.7H297.9z"/>
	<path d="M292.5,1209.6h-1v-3.5c0-0.2,0-0.4-0.1-0.5c-0.2-0.6-0.7-1.1-1.4-1.1c-1,0-1.3,0.8-1.3,1.7v3.3h-1v-3.5c0-2,1.2-2.5,2-2.5
		c1,0,1.6,0.5,1.9,1.1h0l0-0.9h0.9c0,0.5,0,1,0,1.6V1209.6z"/>
	<path d="M279.1,1208.1c0,0.5,0,1.1,0,1.5h-0.9l0-0.9h0c-0.4,0.8-1.1,1.1-2,1.1c-1.3,0-2.6-1-2.6-3.1c0-1.8,1-3,2.5-3
		c0.9,0,1.6,0.4,2,1.1h0v-3.6h1V1208.1z M278.1,1206.2c0-0.2,0-0.3-0.1-0.4c-0.2-0.8-0.9-1.3-1.6-1.3c-1.1,0-1.7,1-1.7,2.2
		c0,1.3,0.6,2.2,1.8,2.2c0.8,0,1.4-0.5,1.6-1.2c0-0.1,0-0.3,0-0.4V1206.2z"/>
	<path d="M272.3,1209.6h-1v-8.5h1V1209.6z"/>
	<path d="M264.6,1209.6c0-0.5,0-1,0-1.6v-4.2h1v3.5c0,0.2,0,0.4,0.1,0.6c0.2,0.4,0.6,1,1.4,1c0.9,0,1.3-0.7,1.3-1.9v-3.2h1.1v3.4
		c0,1.9-0.9,2.5-2,2.5c-1.1,0-1.7-0.6-1.9-1.1h0l-0.1,0.9H264.6z"/>
	<path d="M258.2,1206.9c0-0.1,0-0.3,0-0.5c0-1.1,0.5-2.7,2.4-2.7c1.7,0,2.7,1.4,2.7,3.1c0,1.7-1.1,2.9-2.9,2.9
		c-0.9,0-1.6-0.2-1.9-0.4l0.2-0.8c0.4,0.2,0.9,0.3,1.6,0.3c1.1,0,2-0.6,2-2H258.2z M262.3,1206.1c-0.1-0.7-0.6-1.7-1.6-1.7
		c-1.2,0-1.5,1-1.5,1.7H262.3z"/>
	<path d="M420.4,1223.1v-6.2h0.7c0.4,0.3,1.2,0.6,1.8,0.8l-0.1,0.8c-0.4-0.1-1-0.3-1.4-0.5v5.1h1.7v0.9h-4.1v-0.9H420.4z"/>
	<path d="M414.3,1223.1v-6.2h0.7c0.4,0.3,1.2,0.6,1.8,0.8l-0.1,0.8c-0.4-0.1-1-0.3-1.4-0.5v5.1h1.7v0.9h-4.1v-0.9H414.3z"/>
	<path d="M411.4,1222.1H408v1.9h-0.9v-1.9h-1v-0.9h1v-4.3h1c0.6,0.7,2.7,3.7,3.3,4.5V1222.1z M410.3,1221.2
		c-0.3-0.4-1.9-2.7-2.3-3.2h0c0,0.4,0,1.2,0,2.1v1.1H410.3z"/>
	<path d="M405.2,1220.5c0,2.2-1,3.6-2.6,3.6c-1.8,0-2.6-1.7-2.6-3.6c0-1.8,0.7-3.6,2.6-3.6C404.2,1216.9,405.2,1218.3,405.2,1220.5z
		 M404.3,1220.5c0-1.7-0.7-2.7-1.6-2.7c-1,0-1.6,1-1.6,2.7c0,1.5,0.5,2.7,1.5,2.7C403.7,1223.2,404.3,1222.1,404.3,1220.5z"/>
	<path d="M399,1223.4c-0.6,0.4-1.3,0.7-2.3,0.7c-1.8,0-2.7-1-2.7-2.4c0-1.2,0.8-2.2,2.7-2.2c0.4,0,0.6,0,0.9,0.1l-0.3-1.7h-2.9
		l-0.1-0.9h3.7l0.5,3.3v0.3c-0.4-0.1-0.9-0.2-1.5-0.2c-1.7,0-2.1,0.8-2.1,1.5c0,0.6,0.3,1.4,1.6,1.4c0.8,0,1.4-0.3,2-0.7L399,1223.4
		z"/>
	<path d="M387.4,1224h-5v-0.9h1.5c0.8,0,1.2,0,1.8,0c-1.3-0.9-2.9-2.4-2.9-3.9c0-1.1,0.6-2.3,2.3-2.3c1,0,1.7,0.4,2.2,0.8l-0.4,0.8
		c-0.5-0.4-1-0.7-1.8-0.7c-1,0-1.4,0.6-1.4,1.5c0,1.2,1.3,2.4,2.8,3.5l0.8,0.6V1224z"/>
	<path d="M381.3,1223.4c-0.6,0.4-1.3,0.7-2.3,0.7c-1.8,0-2.7-1-2.7-2.4c0-1.2,0.8-2.2,2.7-2.2c0.4,0,0.6,0,0.9,0.1l-0.3-1.7h-2.9
		l-0.1-0.9h3.7l0.5,3.3v0.3c-0.4-0.1-0.9-0.2-1.5-0.2c-1.7,0-2.1,0.8-2.1,1.5c0,0.6,0.3,1.4,1.6,1.4c0.8,0,1.4-0.3,2-0.7
		L381.3,1223.4z"/>
	<path d="M375.2,1223.4c-0.6,0.4-1.3,0.7-2.3,0.7c-1.8,0-2.7-1-2.7-2.4c0-1.2,0.8-2.2,2.7-2.2c0.4,0,0.6,0,0.9,0.1l-0.3-1.7h-2.9
		l-0.1-0.9h3.7l0.5,3.3v0.3c-0.4-0.1-0.9-0.2-1.5-0.2c-1.7,0-2.1,0.8-2.1,1.5c0,0.6,0.3,1.4,1.6,1.4c0.8,0,1.4-0.3,2-0.7
		L375.2,1223.4z"/>
	<path d="M351.4,1224h-5v-0.9h1.5c0.8,0,1.2,0,1.8,0c-1.3-0.9-2.9-2.4-2.9-3.9c0-1.1,0.6-2.3,2.3-2.3c1,0,1.7,0.4,2.2,0.8l-0.4,0.8
		c-0.5-0.4-1-0.7-1.8-0.7c-1,0-1.4,0.6-1.4,1.5c0,1.2,1.3,2.4,2.8,3.5l0.8,0.6V1224z"/>
	<path d="M345.4,1223.4c-0.5,0.4-1.3,0.7-2.4,0.7c-1.6,0-2.6-0.9-2.6-2.1c0-1.1,0.8-1.6,1.5-1.7v0c-0.6-0.2-1.2-0.7-1.2-1.5
		c0-1,0.7-1.8,2.3-1.8c1,0,1.7,0.3,2.2,0.6l-0.3,0.8c-0.5-0.4-1.1-0.6-1.8-0.6c-1.1,0-1.4,0.6-1.4,1.1c0,0.6,0.5,1.1,1.6,1.1h0.8
		v0.9h-0.8c-1.2,0-1.8,0.6-1.8,1.2c0,0.6,0.4,1.2,1.6,1.2c0.8,0,1.4-0.3,2-0.7L345.4,1223.4z"/>
	<path d="M338.3,1224h-1c-0.8-1.7-2.2-4.8-2.9-6.3v-0.7h4.8v0.9h-3.8C335.7,1218.5,337.2,1221.7,338.3,1224z"/>
	<path d="M315.4,1224h-5v-0.9h1.5c0.8,0,1.2,0,1.8,0c-1.3-0.9-2.9-2.4-2.9-3.9c0-1.1,0.6-2.3,2.3-2.3c1,0,1.7,0.4,2.2,0.8l-0.4,0.8
		c-0.5-0.4-1-0.7-1.8-0.7c-1,0-1.4,0.6-1.4,1.5c0,1.2,1.3,2.4,2.8,3.5l0.8,0.6V1224z"/>
	<path d="M309.5,1222.1h-3.3v1.9h-0.9v-1.9h-1v-0.9h1v-4.3h1c0.6,0.7,2.7,3.7,3.3,4.5V1222.1z M308.4,1221.2
		c-0.3-0.4-1.9-2.7-2.3-3.2h0c0,0.4,0,1.2,0,2.1v1.1H308.4z"/>
	<path d="M278.5,1224h-1c-0.8-1.7-2.2-4.8-2.9-6.3v-0.7h4.8v0.9h-3.8C275.9,1218.5,277.4,1221.7,278.5,1224z"/>
	<path d="M273.4,1220.9c0,1.9-0.9,3.2-2.6,3.2c-1.7,0-2.5-1.2-2.5-2.5c0-1.3,0.7-2.3,2.2-2.3c0.7,0,1.5,0.3,1.9,0.9
		c-0.2-1.5-1.3-2.4-2.9-2.4c-0.2,0-0.4,0-0.6,0l0-0.9c0.1,0,0.3,0,0.6,0C271.5,1216.9,273.4,1218.2,273.4,1220.9z M272.4,1221.2
		c-0.3-0.5-0.9-0.9-1.7-0.9c-1,0-1.5,0.7-1.5,1.5c0,0.8,0.6,1.5,1.5,1.5C271.7,1223.2,272.4,1222.3,272.4,1221.2z"/>
	<path d="M454.9,1262.5h3.1v-2.6h-3.3v-0.9h4.4v8.1h-4.6v-0.9h3.5v-2.9h-3.1V1262.5z"/>
	<path d="M453.2,1267.2h-1v-3.5c0-0.2,0-0.4-0.1-0.5c-0.2-0.6-0.7-1.1-1.4-1.1c-1,0-1.3,0.8-1.3,1.7v3.3h-1v-3.5c0-2,1.2-2.5,2-2.5
		c1,0,1.6,0.5,1.9,1.1h0l0-0.9h0.9c0,0.5,0,1,0,1.6V1267.2z"/>
	<path d="M442.6,1258.7v3.5h0c0.3-0.5,0.9-0.9,1.8-0.9c1.4,0,2.6,1.2,2.6,3.1c0,1.8-1.1,2.9-2.5,2.9c-0.9,0-1.6-0.5-2-1.1h0l0,1
		h-0.9c0-0.4,0-1,0-1.5v-7H442.6z M442.6,1264.8c0,0.2,0,0.3,0,0.5c0.2,0.8,0.8,1.3,1.5,1.3c1.1,0,1.7-1,1.7-2.2
		c0-1.3-0.7-2.2-1.8-2.2c-0.8,0-1.4,0.5-1.5,1.2c0,0.1,0,0.3,0,0.4V1264.8z"/>
	<path d="M434.8,1261.3c1.6,0,2.9,1.1,2.9,3c0,1.9-1.2,3-2.8,3c-1.3,0-2.9-0.9-2.9-3C432,1262.4,433.2,1261.3,434.8,1261.3z
		 M434.8,1262.1c-1.3,0-1.8,1.2-1.8,2.3c0,1.2,0.6,2.2,1.8,2.2c1.2,0,1.8-1.1,1.8-2.2C436.6,1263.3,436.1,1262.1,434.8,1262.1z"/>
	<path d="M429.5,1267.2v-5h-1.4v-0.8h1.4v-0.3c0-0.9-0.2-1.7-1.1-1.7c-0.3,0-0.5,0.1-0.6,0.1l-0.2-0.8c0.2-0.1,0.5-0.2,0.9-0.2
		c0.5,0,1,0.2,1.4,0.5c0.5,0.5,0.7,1.2,0.7,2v0.3h0.8v0.8h-0.8v5H429.5z"/>
	<path d="M424.6,1267.2h-1.1v-3.1l-0.8-0.9l-2.7,4h-1.2l3.2-4.7l-2.9-3.4h1.3l2.5,3c0.2,0.3,0.4,0.6,0.6,0.9h0v-3.9h1.1V1267.2z"/>
	<path d="M413.4,1264.5c0-0.1,0-0.3,0-0.5c0-1.1,0.5-2.7,2.4-2.7c1.7,0,2.7,1.4,2.7,3.1c0,1.7-1.1,2.9-2.9,2.9
		c-0.9,0-1.6-0.2-1.9-0.4l0.2-0.8c0.4,0.2,0.9,0.3,1.6,0.3c1.1,0,2-0.6,2-2H413.4z M417.5,1263.7c-0.1-0.7-0.6-1.7-1.6-1.7
		c-1.2,0-1.5,1-1.5,1.7H417.5z"/>
	<path d="M412.9,1261.4l-2.1,5.3c-0.1,0.1-0.1,0.2-0.1,0.3c0,0.1,0,0.1,0.1,0.3c0.2,0.5,0.6,0.9,0.9,1.2c0.3,0.3,0.7,0.4,0.9,0.5
		l-0.3,0.9c-0.3,0-0.8-0.2-1.3-0.7c-0.7-0.6-1.2-1.7-2-3.6l-1.6-4.1h1.1l1.2,3.4c0.1,0.4,0.3,0.9,0.4,1.2h0c0.1-0.3,0.2-0.8,0.4-1.2
		l1.3-3.4H412.9z"/>
	<path d="M405.3,1267.2v-5h-1.4v-0.8h1.4v-0.3c0-0.9-0.2-1.7-1.1-1.7c-0.3,0-0.5,0.1-0.6,0.1l-0.2-0.8c0.2-0.1,0.5-0.2,0.9-0.2
		c0.5,0,1,0.2,1.4,0.5c0.5,0.5,0.7,1.2,0.7,2v0.3h0.8v0.8h-0.8v5H405.3z"/>
	<path d="M402.9,1267.2h-1v-3.1c0-0.2,0-0.3,0-0.5c-0.1-0.8-0.7-1.4-1.4-1.4c-0.1,0-0.3,0-0.3,0v-1c0.1,0,0.2,0,0.3,0
		c0.7,0,1.3,0.5,1.6,1.3h0l0-1.1h0.9c0,0.5,0,1.1,0,1.8V1267.2z"/>
	<path d="M394.9,1263.7c0-1.2,0.4-2.4,2.2-2.4c0.7,0,1.4,0.2,1.9,0.5l-0.2,0.7c-0.4-0.3-1-0.4-1.5-0.4c-1.2,0-1.3,0.9-1.3,1.3v0.1
		c2.2,0,3.5,0.7,3.5,2.1c0,0.8-0.6,1.7-1.8,1.7c-0.8,0-1.5-0.4-1.8-0.9h0l-0.1,0.7h-0.9c0.1-0.4,0.1-0.9,0.1-1.4V1263.7z
		 M395.9,1265.2c0,0.1,0,0.2,0,0.3c0.2,0.5,0.6,1,1.4,1c0.5,0,1-0.3,1-1c0-1.1-1.3-1.3-2.5-1.3V1265.2z"/>
	<path d="M393.2,1267.2h-1v-3.5c0-0.2,0-0.4-0.1-0.5c-0.2-0.5-0.7-1.1-1.3-1.1c-0.8,0-1.2,0.7-1.2,1.6v3.5h-1v-3.6
		c0-0.2,0-0.4-0.1-0.5c-0.2-0.5-0.6-0.9-1.2-0.9c-0.9,0-1.3,0.7-1.3,1.8v3.3h-1v-3.4c0-2,1.1-2.5,1.9-2.5c0.6,0,0.9,0.1,1.3,0.4
		c0.2,0.2,0.5,0.4,0.6,0.8h0c0.3-0.7,0.9-1.2,1.6-1.2c1,0,1.5,0.5,1.8,1.1h0l0.1-0.9h0.9c0,0.5,0,1,0,1.6V1267.2z"/>
	<path d="M378.6,1264.5c0-0.1,0-0.3,0-0.5c0-1.1,0.5-2.7,2.4-2.7c1.7,0,2.7,1.4,2.7,3.1c0,1.7-1.1,2.9-2.9,2.9
		c-0.9,0-1.6-0.2-1.9-0.4l0.2-0.8c0.4,0.2,0.9,0.3,1.6,0.3c1.1,0,2-0.6,2-2H378.6z M382.6,1263.7c-0.1-0.7-0.6-1.7-1.6-1.7
		c-1.2,0-1.5,1-1.5,1.7H382.6z"/>
	<path d="M374.6,1267.2c-0.5,0.1-1.2,0.1-1.9,0.1c-1.6,0-2.8-0.4-3.6-1.2c-0.8-0.8-1.2-1.8-1.2-3.1c0-1.3,0.4-2.2,1.1-2.9
		c0.7-0.7,1.8-1,3.3-1c0.8,0,1.6,0.1,2.2,0.2V1267.2z M373.6,1260c-0.3,0-0.7-0.1-1.2-0.1c-2.2,0-3.3,1.2-3.3,3.1
		c0,2.2,1.2,3.4,3.4,3.4c0.4,0,0.8,0,1.1-0.1V1260z"/>
	<path d="M362.6,1263.7c0-1.2,0.4-2.4,2.2-2.4c0.7,0,1.4,0.2,1.9,0.5l-0.2,0.7c-0.4-0.3-1-0.4-1.5-0.4c-1.2,0-1.3,0.9-1.3,1.3v0.1
		c2.2,0,3.5,0.7,3.5,2.1c0,0.8-0.6,1.7-1.8,1.7c-0.8,0-1.5-0.4-1.8-0.9h0l-0.1,0.7h-0.9c0.1-0.4,0.1-0.9,0.1-1.4V1263.7z
		 M363.6,1265.2c0,0.1,0,0.2,0,0.3c0.2,0.5,0.6,1,1.4,1c0.5,0,1-0.3,1-1c0-1.1-1.3-1.3-2.5-1.3V1265.2z"/>
	<path d="M360.6,1260v1.4h0.9v0.8h-0.9v3.2c0,0.7-0.1,1.2-0.4,1.5c-0.3,0.3-0.7,0.4-1.1,0.4c-0.4,0-0.7-0.1-0.9-0.2l0-0.8
		c0.1,0,0.3,0.1,0.6,0.1c0.6,0,0.8-0.4,0.8-1.1v-3.1h-1.5v-0.8h1.5v-1.7L360.6,1260z"/>
	<path d="M352.8,1263.7c0-1.2,0.4-2.4,2.2-2.4c0.7,0,1.4,0.2,1.9,0.5l-0.2,0.7c-0.4-0.3-1-0.4-1.5-0.4c-1.2,0-1.3,0.9-1.3,1.3v0.1
		c2.2,0,3.5,0.7,3.5,2.1c0,0.8-0.6,1.7-1.8,1.7c-0.8,0-1.5-0.4-1.8-0.9h0l-0.1,0.7h-0.9c0.1-0.4,0.1-0.9,0.1-1.4V1263.7z
		 M353.8,1265.2c0,0.1,0,0.2,0,0.3c0.2,0.5,0.6,1,1.4,1c0.5,0,1-0.3,1-1c0-1.1-1.3-1.3-2.5-1.3V1265.2z"/>
</g>
</svg>
