<svg xmlns="http://www.w3.org/2000/svg" xmlns:xlink="http://www.w3.org/1999/xlink" viewBox="0 0 222.66748 222.67"><defs><style>.a{fill:#cab192;}.b{fill:#747c58;}.c{fill:#ededed;}.d{fill:#cecece;}.e{fill:#080808;}.f{fill:#27421d;}.g{fill:#54593e;}.h,.i,.o,.p,.s{fill:none;}.h,.i,.s{stroke:#000;}.h,.i,.n,.o,.p,.s{stroke-linecap:round;}.h,.i,.p,.s{stroke-miterlimit:10;}.h{stroke-width:1.38334px;}.i{stroke-width:1.10591px;}.j{clip-path:url(#a);}.k{fill:#271d1d;}.l{clip-path:url(#b);}.m{fill:#707171;}.n{fill:#284220;}.n,.o,.p{stroke:#27421d;stroke-width:2px;}.n,.o{stroke-linejoin:round;}.q{fill:#525222;}.r{fill:#231f20;}</style><clipPath id="a"><polygon class="a" points="61.517 83.296 64.138 71.259 62.793 68.912 58.368 65.546 56.498 57.182 60.913 54.712 67.397 38.643 81.731 35.886 94.224 42.275 94.216 59.774 96.117 62.273 93.142 70.33 91.672 71.242 90.907 75.882 86.73 79.735 85.027 89.445 89.082 96.734 81.086 113.885 69.385 117.043 57.311 99.048 51.894 87.452 61.517 83.296"/></clipPath><clipPath id="b"><polygon class="b" points="40.178 173.213 47.858 176.292 67.553 174.803 91.771 172.921 92.951 171.09 91.77 167.073 103.497 125.93 111.964 112.398 108.166 99.6 90.689 91.104 85.386 85.378 85.044 88.784 85.422 94.704 76.045 110.641 61.279 90.56 61.437 80.976 56.268 85.441 36.53 93.792 35.049 121.387 37.45 129.908 40.178 173.213"/></clipPath></defs><circle class="c" cx="111.33374" cy="112.50778" r="108.83384"/><path class="d" d="M111.334,6.17408c58.4834,0,106.3335,47.8501,106.3335,106.33356v.00025c0,58.48345-47.8501,106.33355-106.3335,106.33355h-.00024C52.8501,218.84144,5,170.99134,5,112.50789v-.00025C5,54.02418,52.8501,6.17408,111.33374,6.17408h.00024m0-5A111.205,111.205,0,0,0,32.7,191.14143,111.205,111.205,0,1,0,189.96753,33.8741a110.54129,110.54129,0,0,0-78.63355-32.7Z"/><polyline class="a" points="161.662 127.408 164.811 134.678 170.025 138.04 176.084 137.223 189.849 132.336 199.827 131.507 202.636 130.521 205.898 130.85 207.006 131.984 210.528 134.961 211.483 133.743 211.159 130.683 207.778 127.51 203.877 125.566 204.034 122.892 204.956 115.639 204.67 114.355 202.33 113.171 200.49 113.634 199.898 112.281 198.066 111.936 196.21 111.303 193.813 112.151 192.241 111.205 188.975 111.864 186.425 116.449 183.54 117.343 182.193 119.046 181.559 121.506"/><path class="e" d="M196.20655,122.66318c.27924-1.10653.85433-2.10445,1.15692-3.20185a7.0816,7.0816,0,0,0,.21253-1.56562c.00412-.08606.01233-.17182.021-.25751.00683-.06721.01518-.13425.02317-.20132.02947-.24753-.02658.1804.01177-.09014.10364-.73112.233-1.4594.3835-2.18231.07-.33642.14419-.67248.23317-1.00447.03714-.13858.08248-.27421.12221-.41188.06374-.22086-.07838.10566.0443-.097a.84128.84128,0,0,0-1.45175-.84859,5.65347,5.65347,0,0,0-.527,1.716q-.246,1.13982-.41341,2.296a19.456,19.456,0,0,1-.26094,2.12839c-.29462,1.1254-.8915,2.14322-1.17671,3.2734a.84137.84137,0,0,0,1.62124.447Z"/><path class="e" d="M200.27344,113.828c-.37211,1.45545-.58875,2.96042-.83248,4.44107-.30084,1.82752-.58594,3.66011-.80206,5.49984a.8455.8455,0,0,0,.84065.84065.86085.86085,0,0,0,.84065-.84065c.20353-1.73255.47858-3.46059.76356-5.18357.23772-1.43725.44968-2.89747.81092-4.31039a.84137.84137,0,0,0-1.62124-.44695Z"/><path class="e" d="M192.7128,112.87a12.88443,12.88443,0,0,0-1.10894,3.27332,16.16867,16.16867,0,0,1-.52321,1.9055,9.01431,9.01431,0,0,0-.58858,2.30443.847.847,0,0,0,.84065.84065.85849.85849,0,0,0,.84065-.84065,7.7803,7.7803,0,0,1,.54838-1.91162,15.9521,15.9521,0,0,0,.50335-1.85135c.13118-.56.29139-1.1138.46922-1.66063.08509-.26164.17461-.522.27322-.77891.02367-.06167.04774-.1232.0727-.18437-.0276.06764-.03539.07877-.00146.00521.03953-.08569.07993-.17045.12578-.253.52579-.94676-.92577-1.7957-1.45176-.84859Z"/><path class="e" d="M197.503,129.99837c-.17886-.02347.21089.03024.031.00413-.04044-.00586-.08091-.01145-.12133-.01741q-.1344-.01985-.26834-.04261c-.17106-.02934-.3414-.06323-.51-.10444a4.78556,4.78556,0,0,1-.49245-.14655c-.04456-.01611-.08978-.03788-.135-.05163.05821.01769.17007.07508.04748.01816-.07852-.03645-.15557-.076-.23056-.1193-.06765-.039-.13122-.08323-.19656-.12579-.14049-.09152.14665.131.02312.0179-.02856-.02615-.05848-.05073-.08673-.07728-.06139-.05772-.11229-.134-.176-.18761.0452.038.10877.1495.03132.037q-.03966-.05761-.07527-.11786c-.02928-.04972-.05646-.10073-.08205-.15243-.01236-.025-.08267-.1791-.029-.05752.05368.12148-.01217-.03474-.022-.06109-.02036-.05453-.03966-.10945-.05861-.16448-.06967-.20226-.13325-.4064-.20924-.60645a.90931.90931,0,0,0-.38633-.5024.84079.84079,0,0,0-1.23491.94935,9.12026,9.12026,0,0,0,.57035,1.4436,3.00606,3.00606,0,0,0,1.0429,1.033,6.51355,6.51355,0,0,0,2.56819.713.8357.8357,0,0,0,.59443-.24622.84065.84065,0,0,0,0-1.18886.99071.99071,0,0,0-.59443-.24622Z"/><path class="e" d="M191.82511,128.6351c-.30544-.19585-.61059-.39227-.91039-.5967q-.22528-.15363-.44585-.314c-.07283-.0532-.14307-.11261-.218-.16273.06854.04584.11536.09017.02007.01487q-.05316-.042-.10581-.08467a8.0875,8.0875,0,0,1-.77351-.7094c-.12321-.12985-.23771-.266-.35187-.40373-.06614-.07979.10528.14522.017.02141-.026-.03644-.05289-.07223-.07869-.10883-.057-.08086-.11123-.16338-.16394-.24707a.84079.84079,0,0,0-1.45176.84858,11.03975,11.03975,0,0,0,3.6142,3.19407.84771.84771,0,0,0,1.15016-.30159.859.859,0,0,0-.30158-1.15017Z"/><path class="e" d="M187.23292,125.27687l-.209-3.96522a.84065.84065,0,1,0-1.68129,0c-.06063.64479-.12756,1.28937-.18089,1.93481a4.60951,4.60951,0,0,0,.14827,1.86793,3.54847,3.54847,0,0,0,2.364,2.26142.84086.84086,0,1,0,.447-1.62124c-.05007-.01445-.29535-.1026-.1504-.0403a2.34291,2.34291,0,0,1-.265-.13661c-.04287-.02534-.08406-.05311-.12622-.07955-.19516-.12235.06209.059-.03926-.02466a2.74579,2.74579,0,0,1-.21982-.20215q-.05215-.05356-.10125-.10985c-.01072-.0123-.10311-.13224-.05142-.06025.05224.07275-.034-.05433-.04228-.06706q-.04081-.06252-.078-.12719t-.07058-.13137c-.00759-.01515-.06738-.15564-.03417-.06947.03354.08706-.018-.05909-.023-.07414q-.029-.08877-.05142-.17942a2.32338,2.32338,0,0,1-.05582-.62972c.00238-.25662.02427-.51262.04767-.768.05327-.58118.10921-1.16212.16384-1.74317h-1.68129l.209,3.96522a.84065.84065,0,0,0,1.6813,0Z"/><path class="e" d="M203.61153,129.8943a9.47544,9.47544,0,0,0,1.15408-3.99823.84552.84552,0,0,0-.84065-.84065.86023.86023,0,0,0-.84065.84065c-.00924.14818-.02134.29608-.038.44362q-.00714.06321-.01523.12631.02422-.17755.00358-.03449c-.0106.06273-.0198.12568-.03077.18834a8.41023,8.41023,0,0,1-.20864.898c-.08313.28586-.185.56343-.29341.84045q-.03543.08607.0231-.05422-.02523.05839-.05135.1164-.0457.1015-.09417.20174c-.06918.14327-.14288.28413-.21967.42345a.84079.84079,0,0,0,1.45176.84859Z"/><polygon points="72.446 50.432 72.787 48.189 78.839 48.181 79.823 49.943 72.446 50.432"/><path class="f" d="M38.16551,141.10342a39.776,39.776,0,0,1,6.06327-24.38711c.47839-.75388-.71826-1.44864-1.19447-.69819a41.02717,41.02717,0,0,0-6.25213,25.0853c.06828.88186,1.45219.88924,1.38333,0Z"/><polygon class="b" points="37.057 172.781 21.449 154.763 18.794 149.619 29.785 146.821 39.912 151.695 57.05 173.776 57.043 176.51 43.887 176.59 43.22 175.881 37.057 172.781"/><polygon class="b" points="35.471 93.289 18.794 149.619 24.702 156.38 31.834 155.177 53.008 123.607 51.233 104.01 47.478 95.219 40.501 91.003 35.471 93.289"/><polygon class="g" points="41.51 153.962 41.252 156.028 39.113 152.498 37.243 151.813 34.602 154.498 34.317 151.627 31.48 152.53 33.266 149.805 31.324 148.73 35.764 148.004 38.179 142.866 44.168 134.021 43.56 137.694 39.763 144.656 37.509 148.222 36.454 149.847 39.936 151.604 41.51 153.962"/><path class="h" d="M35.54727,149.73326s-3.163,4.05569-7.14161,2.74341"/><path class="i" d="M35.78126,150.1197s-.38939,4.711-3.13779,4.66519"/><path class="i" d="M35.439,149.01548s-4.63439.93159-5.3521-1.72184"/><polygon class="b" points="83.92 95.849 90.078 95.833 100.511 95.535 140.625 134.701 142.429 143.872 135.199 149.198 90.342 124.908 81.471 103.475 83.92 95.849"/><path d="M42.51067,140.44377a9.96571,9.96571,0,0,1,3.62948-4.4542,14.53191,14.53191,0,0,1,5.61811-2.08518.85015.85015,0,0,0,.58887-1.03715.86234.86234,0,0,0-1.03715-.58887c-4.38745.76281-8.447,3.08051-10.25535,7.31432a.87164.87164,0,0,0,.30248,1.15356.84908.84908,0,0,0,1.15356-.30248Z"/><path class="e" d="M45.03491,137.241l4.25243,4.55459a.85018.85018,0,0,0,1.19237,0,.86092.86092,0,0,0,0-1.19236l-4.25244-4.5546a.85019.85019,0,0,0-1.19236,0,.86093.86093,0,0,0,0,1.19237Z"/><path class="e" d="M42.73617,140.44377a3.53456,3.53456,0,0,1,.53439-.63037c.12182-.12175-.08833.04674.06363-.05319.05023-.033.09956-.067.15113-.098q.0761-.04578.1551-.08642c.02561-.01311.23541-.09693.05668-.03044a4.37386,4.37386,0,0,1,.74818-.201c.06474-.01174.13175-.01773.19584-.03254-.19509.04509-.03944.004.01074,0,.10975-.00884.21917-.01683.32927-.0205.24744-.00823.49539-.00294.74243.01284.13985.00894.279.02308.41832.03766.10089.01056-.11936-.02184.04264.00584.07516.01284.15033.02448.22524.03885a4.50018,4.50018,0,0,1,.75523.21017c-.098-.03729-.08523-.04191.001.00594l.12978.07228c.11272.06249.06994.10764.006-.00243a.9446.9446,0,0,0,.10449.10836.85057.85057,0,0,0,1.19237,0,.86029.86029,0,0,0,0-1.19237,2.97359,2.97359,0,0,0-1.66668-.81334,8.28082,8.28082,0,0,0-2.01451-.16762,5.36574,5.36574,0,0,0-1.96818.43731,4.04052,4.04052,0,0,0-1.6691,1.54791.84327.84327,0,1,0,1.456.85108Z"/><path class="e" d="M43.86739,138.93844a.781.781,0,0,1,.13768-.07585l-.20141.085a1.40265,1.40265,0,0,1,.32121-.08119l-.22414.03011a10.19334,10.19334,0,0,1,1.0664-.035,2.33626,2.33626,0,0,0,1.26405-.30018.90393.90393,0,0,0,.38747-.50388.84333.84333,0,0,0-1.23855-.95215,3.29411,3.29411,0,0,1-.44772.25972l.2014-.085a.88355.88355,0,0,1-.1691.04854l.22414-.03012a.57069.57069,0,0,1-.13289.00006l.22414.03012a.37284.37284,0,0,1-.06471-.0164l.50388,1.23855.56657-1.24719a.89378.89378,0,0,0,.085-.64968.87352.87352,0,0,0-.30214-.438.84792.84792,0,0,0-1.10705.06592L43.64779,137.509a.85021.85021,0,0,0,0,1.19237.86091.86091,0,0,0,1.19237,0l1.31382-1.22717-1.3242-1.02172-.56658,1.24719a.87119.87119,0,0,0-.04249.75038.836.836,0,0,0,.54637.48817,1.7668,1.7668,0,0,0,1.4641-.37692l-.85108-1.456a.78166.78166,0,0,1-.13768.07585l.20141-.085a1.40229,1.40229,0,0,1-.32121.0812l.22413-.03011a10.19316,10.19316,0,0,1-1.0664.035,2.33638,2.33638,0,0,0-1.264.30017.904.904,0,0,0-.38747.50388.84335.84335,0,0,0,1.23856.95216Z"/><polygon class="b" points="180.745 122.601 170.934 124.02 166.498 122.12 138.664 126.146 124.629 135.599 128.379 147.079 131.517 148.896 135.083 149.699 171.097 141.467 174.195 136.769 182.618 135.551 179.506 125.614 180.745 122.601"/><path d="M131.52247,125.96837a22.903,22.903,0,0,0-5.221,3.33478.50411.50411,0,0,0,0,.70711.51056.51056,0,0,0,.70711,0,21.98552,21.98552,0,0,1,5.01863-3.17841.504.504,0,0,0,.17938-.6841.51167.51167,0,0,0-.6841-.17938Z"/><path d="M164.95782,142.98637a18.92612,18.92612,0,0,0,3.9705-.78042,15.53841,15.53841,0,0,0,2.23237-.787,2.76883,2.76883,0,0,0,1.367-1.06314.86145.86145,0,0,0-.30247-1.15356.85238.85238,0,0,0-1.15357.30247c-.09266.17525.032-.044.03912-.03288.00642.01-.07037.06762-.07858.08257-.03131.057-.2266.14857.00426.00532-.04076.02529-.07929.0557-.11963.08182a5.09515,5.09515,0,0,1-.72583.37369c.20087-.08832-.07661.0295-.11326.04378q-.09959.03882-.19991.07573-.24492.09036-.49311.1715c-.35013.11526-.70387.21946-1.05949.31637q-1.03815.2829-2.0961.48717c-.28452.055-.56993.103-.8561.14849-.06113.00971-.24012.02991.0212-.00158-.053.00639-.106.01355-.15911.01946-.09225.01027-.18458.01886-.27728.02393a.86169.86169,0,0,0-.84312.84313.851.851,0,0,0,.84312.84313Z"/><polygon class="a" points="61.517 83.296 64.138 71.259 62.793 68.912 58.368 65.546 56.498 57.182 60.913 54.712 67.397 38.643 81.731 35.886 94.224 42.275 94.216 59.774 96.117 62.273 93.142 70.33 91.672 71.242 90.907 75.882 86.73 79.735 85.027 89.445 89.082 96.734 81.086 113.885 69.385 117.043 57.311 99.048 51.894 87.452 61.517 83.296"/><g class="j"><polygon class="k" points="64.293 61.423 56.807 46.013 108.107 -1.171 93.79 61.772 93.058 43.977 83.867 44.577 74.532 41.578 73.236 45.238 68.035 47.773 64.293 61.423"/></g><polygon points="86.927 51.685 87.628 49.467 92.521 51.783 93.024 53.613 86.927 51.685"/><path d="M74.55941,68.919a14.93868,14.93868,0,0,0,8.74129,2.78739.801.801,0,0,0,0-1.6011,13.47657,13.47657,0,0,1-7.93319-2.56879.80679.80679,0,0,0-1.0953.2872.81828.81828,0,0,0,.2872,1.0953Z"/><path d="M67.52573,75.24247l7.41445,6.39422,6.53436,1.922,5.25567-3.824-4.89993,8.1989A4.62886,4.62886,0,0,1,79.39656,89.947h0a4.62889,4.62889,0,0,1-2.25279.217l-.22629-.03443a4.62882,4.62882,0,0,1-2.78406-1.52422l-1.47616-1.68326a4.62887,4.62887,0,0,1-.865-1.45659l-2.73709-7.45472Z"/><path d="M67.59925,76.27254c1.3172,1.47226,2.708,2.88067,4.05906,4.32176.27749.296.55615.59125.8267.89364.46214.51655,1.22012-.24563.76-.76-1.3172-1.47226-2.708-2.88067-4.05906-4.32176-.27749-.296-.55615-.59124-.8267-.89364-.46214-.51655-1.22012.24563-.76.76Z"/><path d="M87.88424,53.231a6.03249,6.03249,0,0,0-.62709,4.21069.79468.79468,0,0,0,.55913.55914.83359.83359,0,0,0,.7789-.20588,4.43124,4.43124,0,0,0,1.3135-3.14706c.05891-.64683.18045-1.49191-.4976-1.86651a.93443.93443,0,0,0-1.334.572.88017.88017,0,0,0,.83114,1.14055.80583.80583,0,0,0,.80055-.80055.81834.81834,0,0,0-.80055-.80055l-.02833-.00147.40406.1093.12726.09976.20588.35326-.005.353q-.09671.39829-.63009.14494-.49052.27216-.59485-.04683-.03438-.095-.01812-.03262c.02233.06916.00436-.1919-.01274-.04834-.00391.03285-.002.06782-.00333.10091q-.00995.24973-.02736.49917c-.012.16838-.02866.3361-.0477.5038-.013.11426.015-.00928.00628-.0458a.44014.44014,0,0,1-.0216.13829c-.01374.08238-.029.16451-.04626.24622a4.57958,4.57958,0,0,1-.11829.45082,1.46249,1.46249,0,0,0-.08132.22862c.01822-.14663.04119-.09309.00713-.01956q-.02231.04816-.04626.09549-.05368.10592-.11605.20711-.03463.0559-.07227.10987c-.01343.01934-.08659.11866-.01567.02475.07833-.1037-.02932.031-.03831.041q-.03535.0396-.07256.07759a2.49092,2.49092,0,0,1-.19971.18069l1.338.35326c-.01777-.08368-.03255-.16767-.04829-.25172-.03951-.211.01455.17258-.00655-.041-.01471-.149-.0267-.29752-.03017-.44728q-.00519-.22419.00925-.44829.00616-.09594.0159-.19159.00649-.06377.01456-.12735-.01969.14451-.00589.05421a6.73662,6.73662,0,0,1,.20593-.83919q.03067-.09107.06477-.18093.02274-.05991.047-.1192-.0593.13908-.00459.01478c.06419-.13531.1305-.26867.20378-.3994a.80068.80068,0,0,0-1.3825-.80811Z"/><path d="M75.03325,51.27617a6.03254,6.03254,0,0,0-.62709,4.21069.79467.79467,0,0,0,.55914.55913.83354.83354,0,0,0,.77889-.20588,4.43124,4.43124,0,0,0,1.31351-3.14706c.05891-.64683.18044-1.49191-.49761-1.86651a.93443.93443,0,0,0-1.334.572.88018.88018,0,0,0,.83115,1.14056.80584.80584,0,0,0,.80055-.80055.81833.81833,0,0,0-.80055-.80055l-.02833-.00148.404.1093.12726.09976.20588.35326-.005.353q-.09669.39829-.63009.145-.49052.27215-.59484-.04684-.0344-.095-.01813-.03262c.02234.06916.00437-.1919-.01273-.04834-.00392.03285-.002.06782-.00333.10091q-.00995.24974-.02736.49918c-.012.16837-.02866.33609-.04771.50379-.013.11426.015-.00927.00628-.0458a.43992.43992,0,0,1-.0216.1383q-.02059.12355-.04625.24621a4.57958,4.57958,0,0,1-.11829.45082,1.46081,1.46081,0,0,0-.08132.22862c.01821-.14663.04118-.09309.00712-.01955q-.02229.04815-.04626.09548-.05369.10591-.11605.20711-.03463.05591-.07226.10987c-.01343.01934-.08659.11866-.01567.02476.07833-.10371-.02933.031-.03831.041q-.03536.03961-.07256.07759a2.49106,2.49106,0,0,1-.19972.18069l1.338.35326c-.01776-.08368-.03254-.16767-.04828-.25172-.03952-.211.01454.17259-.00655-.041-.01472-.149-.02671-.29752-.03018-.44728q-.00519-.22419.00925-.44829.00618-.09592.01591-.19159.00648-.06376.01455-.12735-.01968.14451-.00588.05422a6.734,6.734,0,0,1,.20592-.83919q.03067-.09107.06478-.18094.02273-.05989.047-.1192-.05928.13908-.00458.01478c.06418-.13531.13049-.26867.20378-.3994a.80068.80068,0,0,0-1.38251-.8081Z"/><path d="M59.1459,61.39289l2.119,1.51579a.808.808,0,0,0,.61687.0807.81642.81642,0,0,0,.47843-.3679.808.808,0,0,0,.0807-.61687.911.911,0,0,0-.3679-.47843l-2.119-1.51579a.808.808,0,0,0-.61687-.0807.81642.81642,0,0,0-.47843.3679.808.808,0,0,0-.0807.61687.91106.91106,0,0,0,.3679.47843Z"/><path d="M59.943,59.80472,60.96556,62.624a.8588.8588,0,0,0,.3679.47843.80068.80068,0,0,0,1.176-.90407l-1.02255-2.81923a.85876.85876,0,0,0-.3679-.47843.80068.80068,0,0,0-1.176.90406Z"/><path d="M57.35744,58.83719a6.02587,6.02587,0,0,1,.88244.22037q.10159.03392.20194.07146.05016.01878.1.03844c.01142.00451.17578.071.05295.02087-.11019-.045.00528.00349.027.01334q.04881.0221.0972.045.1089.05166.21569.10758a6.004,6.004,0,0,1,.74976.46638c.03577.0261.07042.05579.10731.08007-.03743-.02463-.11479-.09158-.03573-.02589.05494.04565.11021.09077.1641.13767.12125.10556.23746.21647.35006.33118a.80055.80055,0,0,0,1.13215-1.13215,6.748,6.748,0,0,0-3.61925-1.91826.86612.86612,0,0,0-.61687.0807.80068.80068,0,0,0,.19123,1.4632Z"/><path d="M40.59165,121.569c2.00743-2.50406,4.70142-5.063,8.17945-4.59449a.76958.76958,0,0,0,.91466-.51933.7487.7487,0,0,0-.51933-.91466,8.24888,8.24888,0,0,0-5.20487.95829,15.57833,15.57833,0,0,0-4.42146,4.01865.76636.76636,0,0,0,0,1.05154.74887.74887,0,0,0,1.05155,0Z"/><path class="e" d="M43.10536,117.64838c.53222,1.95225.57513,4.00114,1.10735,5.95339a.74418.74418,0,0,0,1.434-.39533c-.53221-1.95225-.57512-4.00114-1.10734-5.95339a.74419.74419,0,0,0-1.434.39533Z"/><path class="e" d="M40.59165,121.569c.02137-.01941.2279-.18508.10145-.092q.10786-.07941.22175-.15007a4.5476,4.5476,0,0,1,.48375-.25617q.11979-.05279.0135-.006.06429-.02562.12927-.04944.1294-.04747.26122-.088a5.35934,5.35934,0,0,1,.52192-.13244c.08444-.017.16925-.03107.25429-.04454-.18851.02985.07224-.006.10759-.00884a3.49882,3.49882,0,0,1,.44452-.01q.05016.00227.1002.00645.12512.01293-.05721-.0102a.66235.66235,0,0,1,.07.013q.10373.0331-.0997-.0447c.14838.07537-.09745-.11472-.02158-.02538.03026.03564.06816.07306.10181.10564.07924.07669-.093-.15281.00878.01758.032.05356.06677.10526.0978.15949.06908.12075.13055.24583.18805.37245q.023.0508.04518.102-.05676-.136-.00876-.01958c.02843.0727.05763.14505.08509.21813q.08388.22323.15793.45a14.097,14.097,0,0,1,.41417,1.52546.74374.74374,0,1,0,1.434-.39533,10.98222,10.98222,0,0,0-.98354-2.91665,1.75049,1.75049,0,0,0-1.09392-.996,4.45712,4.45712,0,0,0-1.89986.12611,4.96157,4.96157,0,0,0-2.12927,1.0976.74355.74355,0,0,0,1.05155,1.05154Z"/><path class="e" d="M42.4501,120.057l.03456-.01629-.17762.075a.63836.63836,0,0,1,.15046-.039l-.19767.02656a1.09476,1.09476,0,0,1,.25543.005l-.19767-.02656c.2709.03731.52953.13071.79556.19052a1.743,1.743,0,0,0,1.20944-.08929.74375.74375,0,0,0-.17762-1.359l-.19766-.02656a.74016.74016,0,0,0-.37529.10152c-.06336.02777-.12615.05681-.18968.08422l.17762-.075a1.2063,1.2063,0,0,1-.255.08089l.19767-.02656a.54272.54272,0,0,1-.1059.00373l.19767.02656a.39292.39292,0,0,1-.07271-.01744l.17762.075a.33763.33763,0,0,1-.065-.03865l.26675,1.01733.75679-1.08487.075-.17762a.56325.56325,0,0,0,.01328-.2965.70665.70665,0,0,0-.2045-.42694.885.885,0,0,0-.32811-.19122.74486.74486,0,0,0-.57295.075l-1.31165.91083a.79652.79652,0,0,0-.34171.44437.75989.75989,0,0,0,.075.573.75056.75056,0,0,0,.44438.34171.73675.73675,0,0,0,.57295-.075l1.31165-.91084-1.01732-1.01732-.75679,1.08486a.74452.74452,0,0,0-.075.573l.075.17762a.74729.74729,0,0,0,.26675.26675,1.06664,1.06664,0,0,0,.87213.11621,3.45285,3.45285,0,0,0,.56671-.229l-.75057-1.28408-.03456.01628.17762-.075a.63836.63836,0,0,1-.15046.039l.19767-.02656a1.09531,1.09531,0,0,1-.25543-.00505l.19767.02656c-.2709-.03731-.52953-.13071-.79556-.19053a1.743,1.743,0,0,0-1.20944.0893.74351.74351,0,0,0-.26675,1.01733.76212.76212,0,0,0,1.01732.26675Z"/><path d="M74.30375,68.782a5.29887,5.29887,0,0,0,1.215,2.42233,10.02557,10.02557,0,0,0,1.574,1.60759,10.96338,10.96338,0,0,0,4.60457,2.28254.863.863,0,0,0,1.03714-.58887.85183.85183,0,0,0-.58887-1.03715,9.18371,9.18371,0,0,1-3.86047-1.84889,9.89827,9.89827,0,0,1-1.428-1.42285c-.09917-.12217-.12242-.15439-.24268-.32473-.113-.16-.22081-.32354-.31892-.49314a2.84079,2.84079,0,0,1-.36575-1.0451.8486.8486,0,0,0-1.03715-.58887.86511.86511,0,0,0-.58888,1.03714Z"/><polygon class="b" points="40.178 173.213 47.858 176.292 67.553 174.803 91.771 172.921 92.951 171.09 91.77 167.073 103.497 125.93 111.964 112.398 108.166 99.6 90.689 91.104 85.386 85.378 85.044 88.784 85.422 94.704 76.045 110.641 61.279 90.56 61.437 80.976 56.268 85.441 36.53 93.792 35.049 121.387 37.45 129.908 40.178 173.213"/><g class="l"><polygon class="g" points="41.784 117.943 35.539 122.459 37.45 129.239 39.36 155.817 50.047 134.498 41.784 117.943"/></g><path d="M94.933,105.16125a9.155,9.155,0,0,0-3.48453-4.7703,14.48442,14.48442,0,0,0-4.75216-1.72876.86173.86173,0,0,0-.95215.38747,20.66173,20.66173,0,0,0-1.4011,3.67726,4.50555,4.50555,0,0,0-.18825,1.03774c-.00275.3005.03541.1287.08463-.04813.018-.06463.14586-.11789.01819-.03037a9.76067,9.76067,0,0,0-.80059.74208c-1.918,1.68013-3.95807,3.23456-5.78541,5.01609-.63374.61785-1.76367,1.73261-.64963,2.49683.89711.6154,1.74141-.84529.85109-1.456q.53449.47226.28318.94117a.98841.98841,0,0,1,.05276-.08916c.05776-.02873-.042.04168.08582-.10881.15155-.17839.31875-.34471.485-.50922.49857-.49348,1.02567-.95888,1.55344-1.42061,1.19534-1.04577,2.42056-2.05662,3.62943-3.08655.66168-.56374,1.70339-1.20061,1.86494-2.11454a16.26873,16.26873,0,0,1,1.37257-4.19667l-.95215.38747a14.43834,14.43834,0,0,1,4.00061,1.35483,7.11613,7.11613,0,0,1,3.05832,3.96648c.37411,1.00865,2.00456.57232,1.626-.44827Z"/><path d="M85.59518,103.84277a20.41391,20.41391,0,0,1,4.06274.48453,28.71605,28.71605,0,0,1,3.99513,1.30989.8492.8492,0,0,0,1.03715-.58888.863.863,0,0,0-.58888-1.03715,28.287,28.287,0,0,0-4.11844-1.33822,22.89111,22.89111,0,0,0-4.3877-.51643.84365.84365,0,0,0,0,1.68626Z"/><path d="M87.54049,89.88705c2.60141,2.30025,3.85326,5.82115,4.67159,9.10289a33.79124,33.79124,0,0,1,.97454,5.75175c.07665,1.07624,1.76351,1.08466,1.68625,0a36.53455,36.53455,0,0,0-1.07713-6.3682c-.8886-3.49166-2.29665-7.23282-5.06289-9.67881-.81034-.71653-2.0073.47177-1.19236,1.19237Z"/><path class="e" d="M108.07612,118.23069a16.21625,16.21625,0,0,0-5.837,11.89249.74056.74056,0,0,0,1.4802,0,14.7735,14.7735,0,0,1,5.40348-10.84583c.72983-.614-.32185-1.65644-1.04666-1.04666Z"/><path d="M46.46605,115.67561q11.39569,1.57794,22.86353,2.49578c1.082.08484,1.07653-1.60185,0-1.68626q-11.24327-.88158-22.41525-2.43555c-1.06127-.147-1.52021,1.4776-.44828,1.626Z"/><path d="M68.59776,118.08359c1.05039,2.14016.80149,4.66764,1.32587,6.94651a.84334.84334,0,1,0,1.626-.44827c-.56627-2.46093-.35705-5.029-1.49585-7.34933a.85141.85141,0,0,0-1.15357-.30247.86052.86052,0,0,0-.30247,1.15356Z"/><path d="M70.44878,124.54527a144.72456,144.72456,0,0,1-21.4716-.57462c-1.07849-.11056-1.07077,1.57649,0,1.68625a144.72321,144.72321,0,0,0,21.4716.57463c1.08055-.05,1.08667-1.73658,0-1.68626Z"/><path d="M45.67992,114.76316a25.4459,25.4459,0,0,0,.1285,9.77719c.22236,1.06149,1.84819.61227,1.626-.44827a23.23771,23.23771,0,0,1-.12849-8.88064.86674.86674,0,0,0-.58888-1.03715.85047.85047,0,0,0-1.03715.58887Z"/><path d="M46.29943,125.25858l2.21559.47311a.89462.89462,0,0,0,.64968-.085.84308.84308,0,0,0,.30248-1.15356.84333.84333,0,0,0-.50388-.38747l-2.21559-.4731a.89461.89461,0,0,0-.64968.085.84308.84308,0,0,0-.30248,1.15356.8433.8433,0,0,0,.50388.38747Z"/><path class="e" d="M78.594,173.19c.03128-3.78691-2.028-7.2583-2.32231-11.03546-.26659-3.42132-.26289-6.87757-.28682-10.307-.05759-8.25315.09712-16.50733.2565-24.7586.07414-3.83851.15826-7.677.21163-11.51583a.84364.84364,0,0,0-1.68626,0c-.20952,15.06926-.98984,30.209-.25663,45.27263a27.14021,27.14021,0,0,0,1.12156,6.68187A18.9008,18.9008,0,0,1,76.90771,173.19a.84364.84364,0,0,0,1.68626,0Z"/><path d="M79.35889,118.16865a14.04808,14.04808,0,0,0,1.8902,9.06185c.52388.95067,1.98065.10093,1.456-.85109a12.21493,12.21493,0,0,1-1.7202-7.76249.86974.86974,0,0,0-.58888-1.03714.8496.8496,0,0,0-1.03715.58887Z"/><path d="M80.86791,119.433a67.99761,67.99761,0,0,1,18.587,1.861c1.05427.25558,1.50411-1.37007.44827-1.626a69.73034,69.73034,0,0,0-19.03528-1.92123c-1.08176.04053-1.08706,1.727,0,1.68626Z"/><path d="M98.478,120.42667a16.22019,16.22019,0,0,0,.89992,6.50848.8647.8647,0,0,0,1.03715.58887.85056.85056,0,0,0,.58887-1.03715,14.95958,14.95958,0,0,1-.83968-6.0602.84313.84313,0,0,0-1.68626,0Z"/><path d="M81.39471,127.41636a47.55557,47.55557,0,0,0,6.92216.57465c3.38334.22245,6.76848.42181,10.15.67176.65868.04869,1.31745.09835,1.97507.16.21588.02023.43213.03971.64733.0665a.90528.90528,0,0,1,.23739.03925c1.05778.231,1.50967-1.39427.44827-1.626a47.55557,47.55557,0,0,0-6.92216-.57465c-3.38333-.22245-6.76848-.42181-10.14994-.67176-.65868-.04869-1.31746-.09835-1.97507-.16-.21589-.02023-.43214-.03971-.64734-.0665a.90523.90523,0,0,1-.23738-.03925c-1.05779-.231-1.50968,1.39427-.44828,1.626Z"/><line class="m" x1="85.06344" y1="103.04352" x2="89.73844" y2="103.88628"/><path d="M86.17628,99.55855a8.46012,8.46012,0,0,1,7.47688,4.2592l-.0779.88388-7.352-1.89165-.98451.26616Z"/><path d="M55.046,100.15c1.92935.08282,3.84781.33924,5.76835.52883a20.48254,20.48254,0,0,0,2.66836.197,1.28145,1.28145,0,0,0,1.29341-.92972,3.10311,3.10311,0,0,0-.3294-1.66739.84721.84721,0,0,0-1.65614.22414c.00123.04974-.04954.44539-.03211.46684-.08557-.10535.48421-.04061.29562-.1226.11864.05158.35353.4659.168.55072H62.371q.32229-.85975-.09426-.71853-.12693.02805.0054.00936a1.56761,1.56761,0,0,1-.25846.005,1.85856,1.85856,0,0,1-.414-.05758c-.42969-.08763-.85056-.21482-1.27273-.33219a4.97716,4.97716,0,0,0-2.5317-.26481l.44827,1.626c1.11529-.37,2.51738-.02143,3.72555-.07112,1.08128-.04448,1.08692-1.731,0-1.68626-1.36375.05609-2.84764-.30863-4.17382.13135a.84387.84387,0,0,0,.44827,1.626q.14481-.03022.01153-.0147.08623-.00853.1729-.009c.09354.00087.18666.004.27978.01366.098.01013.43082.08125.61109.12563.5251.12924,1.04042.29542,1.5663.42164,1.0145.24349,2.93.36763,2.95828-1.16439a1.079,1.079,0,0,0-1.582-1.05062,1.39129,1.39129,0,0,0-.4432,1.92288,1.41991,1.41991,0,0,0,1.94634.37456,1.96284,1.96284,0,0,0,.7023-1.7819l-1.65614.22414c.07131.212.14341.42373.21393.636.09208.27716.02611.3601.26922.05272.23247-.29392.22252-.2228.00044-.23078-.36465-.0131-.72921-.03947-1.093-.06749-.8068-.06214-1.61191-.14482-2.4166-.22944-1.57987-.16615-3.16072-.35613-4.74872-.42429-1.085-.04658-1.08281,1.63978,0,1.68625Z"/><path class="e" d="M112.19881,112.95089c-2.61616,3.06012-5.25819,6.09805-7.87436,9.15817a.865.865,0,0,0,0,1.19237.85042.85042,0,0,0,1.19236,0c2.61617-3.06013,5.2582-6.09805,7.87437-9.15818a.865.865,0,0,0,0-1.19236.85042.85042,0,0,0-1.19237,0Z"/><path class="e" d="M104.72741,126.92265c1.25021-2.60758,3.10624-4.85288,4.45361-7.40053.507-.95869-.948-1.81179-1.456-.85109-1.34737,2.54765-3.20341,4.793-4.45361,7.40054a.866.866,0,0,0,.30247,1.15356.85058.85058,0,0,0,1.15356-.30248Z"/><path d="M36.52686,122.46346c2.41512-2.21344,5.40863-4.18008,8.80382-3.18455a.74419.74419,0,0,0,.39533-1.434,8.10932,8.10932,0,0,0-5.22252.21188,16.26707,16.26707,0,0,0-5.02818,3.35512c-.70708.648.34678,1.69746,1.05155,1.05154Z"/><path class="e" d="M39.51677,118.95839c.22859,2.01053-.03974,4.042.18886,6.05256a.766.766,0,0,0,.74356.74355.74826.74826,0,0,0,.74355-.74355c-.2286-2.01053.03973-4.042-.18886-6.05256a.76605.76605,0,0,0-.74356-.74355.74826.74826,0,0,0-.74355.74355Z"/><path class="e" d="M36.37637,122.57973a3.18552,3.18552,0,0,1,.34438-.19983c.04557-.02262.21277-.08949.08074-.0404.07987-.0297.15907-.06055.24013-.08708q.19936-.06526.40422-.11172.11023-.02526.22152-.04563c.03167-.00578.06342-.01116.09519-.01636.01629-.00266.15311-.02171.05962-.00987-.08718.011.12039-.01173.153-.0145q.10818-.00921.21667-.01394c.13864-.00613.27751-.0069.41618-.00142a1.24732,1.24732,0,0,1,.356.02876c-.0122-.00461-.17885-.03162-.04646-.004.02384.005.048.00869.07186.01348.06016.01208.11991.02588.179.04243.03756.01052.18347.06465.03474.00306-.12346-.05113-.06576-.02781-.03473-.00959.04271.02509-.09824-.0778-.09825-.07773-.00086.01678.05709.03973.06034.05918.01544.09241-.05938-.08568-.05842-.07833.00206.01584.0291.04044.0372.05485.02383.0424.08375.20719.12174.23021.00054.00033-.05878-.15416-.03464-.08244.00681.02022.01625.03968.02346.05978.02021.05634.041.11237.05966.16926a8.53935,8.53935,0,0,1,.30478,1.37457c.01045.06827.01914.13684.0299.205.0135.08554-.01129-.0735-.0096-.072.01685.01533.013.1018.01558.123q.02141.17409.03909.34862c.01962.1942.036.38878.04631.58371a.74356.74356,0,0,0,1.48711,0,11.39991,11.39991,0,0,0-.48645-2.98013,1.91848,1.91848,0,0,0-.93-1.268,3.91354,3.91354,0,0,0-1.80113-.19561,5.00246,5.00246,0,0,0-2.34938.72842.74368.74368,0,1,0,.75057,1.28408Z"/><path class="e" d="M38.432,121.35094a.612.612,0,0,1,.0991-.02245l-.19767.02656a.76734.76734,0,0,1,.1697.00215l-.19767-.02656a1.88663,1.88663,0,0,1,.4651.145l-.17762-.075a2.43594,2.43594,0,0,0,1.67061.35951.78175.78175,0,0,0,.44437-.3417.74368.74368,0,0,0-.8397-1.09229,3.42947,3.42947,0,0,1-.36486.08817l.19766-.02656a.71358.71358,0,0,1-.16172.00342l.19766.02656a.48038.48038,0,0,1-.07176-.01748l.17762.075a.3598.3598,0,0,1-.063-.03405l.15049.11627a.23927.23927,0,0,1-.03608-.03331v1.05155l.913-.95712a.74455.74455,0,0,0-.90106-1.16781l-1.43494.70071a.75143.75143,0,0,0-.34171.44437.75994.75994,0,0,0,.075.573.75051.75051,0,0,0,.44437.3417.82786.82786,0,0,0,.573-.075l1.43493-.70072-.90106-1.16781-.913.95712a.75716.75716,0,0,0,0,1.05155,1.04319,1.04319,0,0,0,.81631.30384,3.449,3.449,0,0,0,.60454-.11937l-.39533-1.434a.61069.61069,0,0,1-.0991.02246l.19767-.02656a.76785.76785,0,0,1-.16969-.00215l.19766.02656a1.88679,1.88679,0,0,1-.4651-.145l.17762.075a2.436,2.436,0,0,0-1.67061-.35952.7818.7818,0,0,0-.44437.34171.74367.74367,0,0,0,.8397,1.09228Z"/><path d="M84.3725,53.73405c-.87862,1.23056-.57611,3.01419-.26055,4.38785a33.26775,33.26775,0,0,0,1.48122,4.45164.66737.66737,0,0,0,.79776.453.65341.65341,0,0,0,.453-.79776,37.26162,37.26162,0,0,1-1.38107-4.04155c-.29112-1.12912-.70955-2.76322.02964-3.7985a.65441.65441,0,0,0-.23266-.8873.66184.66184,0,0,0-.88729.23266Z"/><path d="M85.3847,61.8233a.82918.82918,0,0,1,.265.62037,2.20393,2.20393,0,0,1-.11626.90239,1.35082,1.35082,0,0,1-.69852.6773,4.088,4.088,0,0,1-1.214.36656,3.96359,3.96359,0,0,1-1.44675.03808,4.00864,4.00864,0,0,1-1.34848-.6089,2.39905,2.39905,0,0,1-.97812-.89127.61026.61026,0,0,1-.02235-.4878c.00749-.02236.06475-.15215.06589-.16057q.06594-.10827.01243-.03461-.545.05907-.25261.12492c.79863.24924,1.14027-1.00246.3448-1.25071-1.19421-.37268-1.71409,1.22169-1.41431,2.11822a4.41063,4.41063,0,0,0,2.63052,2.2457,5.27722,5.27722,0,0,0,3.40888.00806,3.01632,3.01632,0,0,0,2.17984-1.86029,2.64221,2.64221,0,0,0-.49879-2.72459.66689.66689,0,0,0-.91714,0,.65359.65359,0,0,0,0,.91714Z"/><path d="M98.55955,127.43524a14.8311,14.8311,0,0,0-.40794,4.33749c.09236,1.34164.31448,2.66675.343,4.014.01448.6839.13432,1.54-.58273,1.93684a7.96724,7.96724,0,0,1-2.27427.339q-2.81843.41895-5.65812.6744a33.42544,33.42544,0,0,1-5.9309.12556c-1.34129-.11931-1.33069-1.18258-1.49562-2.28745-.3879-2.5984-.56-5.231-.78865-7.84673a56.20846,56.20846,0,0,0-.98038-7.87281c-.21934-.93967-1.666-.5419-1.44641.39876,1.25555,5.37872.92718,11.04026,1.89072,16.47319a2.89823,2.89823,0,0,0,1.77123,2.50828,8.85265,8.85265,0,0,0,2.53.19358c1.17537.02183,2.351-.02864,3.523-.116,2.09085-.1558,4.18285-.39289,6.25737-.69624,1.531-.22388,3.15424-.07479,4.17531-1.38924.99641-1.2827.48527-3.46018.31649-4.96705a15.72776,15.72776,0,0,1,.20428-5.42691c.21454-.93977-1.23132-1.341-1.44642-.39876Z"/><path d="M67.22923,125.56222q-.06334,2.65662-.13644,5.313-.06156,2.2625-.13125,4.52477-.03186,1.01652-.06714,2.03292c-.017.48457.133,1.45585-.1803,1.84625-.59856.74585.45623,1.81382,1.06066,1.06066.88519-1.103.62081-2.89163.66444-4.23821q.07606-2.34806.13909-4.69653.08051-2.92128.15094-5.84285a.75046.75046,0,0,0-1.5,0Z"/><path d="M51.73349,141.05308a4.6391,4.6391,0,0,1-1.50675-.43574c-.60888-.363-.63023-.96312-.75428-1.6-.32183-1.65208-.53851-3.32465-.75293-4.99336a87.16951,87.16951,0,0,0-1.47275-9.77781.75065.75065,0,0,0-1.44642.39876A101.63146,101.63146,0,0,1,47.40673,135.449a38.31234,38.31234,0,0,0,.8226,4.91892c.37693,1.38745,1.82088,1.91222,3.1054,2.13157.94418.16123,1.34986-1.284.39876-1.44642Z"/><polygon points="85.534 102.184 87.992 101.299 90.608 101.718 91.916 102.7 93.243 104.275 92.251 105.014 84.812 102.344 84.812 102.344 85.534 102.184"/><path d="M107.42146,105.45977a34.00969,34.00969,0,0,1-5.72879-1.01493,30.564,30.564,0,0,0-9.442-.181c-.944.122-.95619,1.62361,0,1.5a29.46733,29.46733,0,0,1,9.3725.189,32.52658,32.52658,0,0,0,5.79826,1.00688.75045.75045,0,0,0,0-1.5Z"/><path d="M107.9036,106.07685c-.5633-1.51531-1.18179-3.01173-1.77916-4.51378q-.53955-1.35663-1.08051-2.7127a13.47,13.47,0,0,0-.55735-1.39655c-.21463-.39866-.6351-.46021-1.0438-.60332l-2.45842-.86088-2.63921-.92417a3.144,3.144,0,0,0-1.19391-.32182,22.60107,22.60107,0,0,0-2.31864.4168l-2.32461.41788c-.63239.11368-.36444,1.07758.26584.96428l3.17818-.57132a4.68367,4.68367,0,0,0,1.41883-.255c.016-.01066-.30194-.10923-.10431.02889a2.02471,2.02471,0,0,0,.45322.15871l6.14672,2.15241-.34922-.34922c1.148,2.87383,2.34374,5.73489,3.42207,8.63568.22228.59794,1.1892.33922.96428-.26584Z"/><path d="M102.72239,100.51585a.852.852,0,0,1,.07406.08l-.11727-.15179a.93533.93533,0,0,1,.11369.195l-.0756-.17916a1.37165,1.37165,0,0,1,.0872.33259l-.02679-.19938a2.12913,2.12913,0,0,1-.00529.53876l.02679-.19938a2.43614,2.43614,0,0,1-.15493.58048l.07561-.17916a1.68834,1.68834,0,0,1-.206.36529l.11727-.15179c-.014.0177-.02817.035-.04284.05212a.79892.79892,0,0,0-.21967.53033.75.75,0,0,0,1.28033.53033,2.83763,2.83763,0,0,0,.63447-1.62455,1.95037,1.95037,0,0,0-.50032-1.58039.75.75,0,0,0-1.06066,1.06066Z"/><path d="M51.845,95.23985c-2.193.55507-4.43989.90048-6.67366,1.24461-1.58834.2447-3.23715.37865-4.79956.765a.75065.75065,0,0,0,.39876,1.44642c1.56241-.38631,3.21122-.52026,4.79956-.765,2.23377-.34413,4.48068-.68954,6.67366-1.24461a.75065.75065,0,0,0-.39876-1.44642Z"/><path d="M54.07871,87.09112c-2.80356.76315-5.57789,1.64988-8.34394,2.53739a64.41922,64.41922,0,0,0-8.19161,2.92212c-.87021.41691-.11017,1.7107.75708,1.29521a62.86356,62.86356,0,0,1,8.02582-2.83261c2.70259-.86511,5.41278-1.73022,8.1514-2.4757a.75063.75063,0,0,0-.39875-1.44641Z"/><path d="M52.56922,92.67006H42.20352a.75045.75045,0,0,0,0,1.5h10.3657a.75045.75045,0,0,0,0-1.5Z"/><ellipse class="n" cx="44.30849" cy="108.12371" rx="1.028" ry="1.91966" transform="translate(-67.89825 75.51042) rotate(-51.50976)"/><ellipse class="n" cx="44.68776" cy="110.76406" rx="1.028" ry="1.91966" transform="translate(-69.82167 76.80433) rotate(-51.50976)"/><ellipse class="n" cx="45.16844" cy="113.5724" rx="1.028" ry="1.91966" transform="translate(-71.83828 78.24105) rotate(-51.50976)"/><ellipse class="n" cx="45.71984" cy="116.64785" rx="1.028" ry="1.91966" transform="translate(-74.03726 79.83398) rotate(-51.50976)"/><ellipse class="n" cx="46.508" cy="119.61274" rx="1.028" ry="1.91966" transform="translate(-76.0603 81.57049) rotate(-51.50976)"/><ellipse class="n" cx="47.09936" cy="122.46241" rx="1.028" ry="1.91966" transform="translate(-78.06747 83.10944) rotate(-51.50976)"/><ellipse class="n" cx="47.43022" cy="125.5429" rx="1.028" ry="1.91966" transform="translate(-80.35368 84.53166) rotate(-51.50976)"/><ellipse class="n" cx="47.96585" cy="128.62479" rx="1.028" ry="1.91966" transform="translate(-82.56365 86.11468) rotate(-51.50976)"/><ellipse class="n" cx="48.05467" cy="131.95888" rx="1.028" ry="1.91966" transform="translate(-85.13975 87.44322) rotate(-51.50976)"/><ellipse class="n" cx="48.24252" cy="134.96494" rx="1.028" ry="1.91966" transform="translate(-87.4217 88.72539) rotate(-51.50976)"/><ellipse class="n" cx="48.23949" cy="138.1997" rx="1.028" ry="1.91966" transform="translate(-89.95474 89.94453) rotate(-51.50976)"/><path class="n" d="M46.55376,140.26405c-.13818.59316.47233,1.50376,1.36362,2.0339s1.72583.47905,1.864-.11411-1.00223-1.75764-1.89352-2.28777S46.69194,139.67089,46.55376,140.26405Z"/><ellipse class="n" cx="47.49202" cy="143.99854" rx="1.028" ry="1.91966" transform="matrix(0.62238, -0.78271, 0.78271, 0.62238, -94.77583, 91.54922)"/><ellipse class="n" cx="46.79325" cy="146.76349" rx="1.028" ry="1.91966" transform="translate(-97.20386 92.04639) rotate(-51.50976)"/><ellipse class="n" cx="46.09544" cy="149.06049" rx="1.028" ry="1.91966" transform="translate(-99.26526 92.36759) rotate(-51.50976)"/><path class="o" d="M44.89184,106.68123,42.21935,96.759l-1.07755.354a.99544.99544,0,0,0-.36332,1.09556l2.71694,7.83011Z"/><path class="p" d="M71.45436,126.13987s-1.80886,27.44714-12.49408,27.698S47.5054,143.6952,47.5054,143.6952"/><path class="p" d="M42.59043,96.69714s-5.28131-3.32005-5.48863-3.3036"/><path class="p" d="M42.59043,96.69714s-1.9112-4.18029-3.9992-4.18029"/><path d="M44.154,110.04341a1.76212,1.76212,0,0,0-.01944,1.95039,2.97192,2.97192,0,0,0,1.24254.94385c.21645.0949.43716.178.65485.26959l-.17916-.07561c.02077.00884.04141.01792.06172.02777a.80246.80246,0,0,0,.57792.07561.75019.75019,0,0,0,.17916-1.37081c-.20717-.10046-.4273-.175-.63944-.26421l.17916.0756a3.42845,3.42845,0,0,1-.76576-.42432l.15179.11727a1.597,1.597,0,0,1-.274-.26936l.11727.15179a1.08553,1.08553,0,0,1-.13446-.22813l.07561.17916a.9222.9222,0,0,1-.06008-.22359l.02679.19938a.969.969,0,0,1,.00127-.22892l-.02679.19938a1.243,1.243,0,0,1,.08237-.29581l-.0756.17916a1.87241,1.87241,0,0,1,.11951-.23112.75012.75012,0,1,0-1.2952-.75707Z"/><path d="M43.09087,106.7971a2.48886,2.48886,0,0,0-.30383,1.21909,2.03719,2.03719,0,0,0,.32554,1.02548,3.42628,3.42628,0,0,0,1.3052,1.095c.15071.07793.31.143.456.22953a.75012.75012,0,0,0,.75708-1.29521c-.28955-.17156-.60375-.29115-.88514-.47983-.04721-.03165-.09216-.06639-.13891-.09861.24239.167.06759.05286.0085.00128a2.28176,2.28176,0,0,1-.23478-.24022c-.086-.10073.115.16327.05372.069-.01685-.02593-.03532-.05074-.05178-.077-.029-.04626-.05251-.09473-.07855-.14259-.05283-.09709.07806.2173.03007.071-.00739-.02255-.01572-.04474-.02264-.06747a1.29853,1.29853,0,0,1-.04152-.18962l.02679.19938a1.40936,1.40936,0,0,1,.00282-.367l-.02679.19938a1.738,1.738,0,0,1,.06041-.26059c.01306-.04129.02851-.08157.0433-.12224.0404-.11114-.06831.14991-.0288.06886.013-.02678.02535-.05391.03851-.08065a.80031.80031,0,0,0,.07561-.57792.75019.75019,0,0,0-1.37082-.17916Z"/><path d="M43.94544,113.06175a2.01749,2.01749,0,0,0,.01951,2.14659,3.34221,3.34221,0,0,0,1.29728,1.03014c.15121.07254.31024.13242.45727.2133a.75012.75012,0,0,0,.75708-1.29521c-.14969-.08235-.31166-.14319-.46553-.21726a3.741,3.741,0,0,1-.6502-.387l.15179.11727a1.96867,1.96867,0,0,1-.33783-.32776l.11728.15179a1.34611,1.34611,0,0,1-.173-.29043l.0756.17916a1.16024,1.16024,0,0,1-.07439-.27092l.02679.19938a1.22347,1.22347,0,0,1,.00044-.3042l-.02679.19938a1.61027,1.61027,0,0,1,.11231-.39474l-.0756.17916c.0255-.05838.05328-.11536.08315-.17162a.75012.75012,0,1,0-1.2952-.75708Z"/><path d="M44.67675,116.58548a1.78057,1.78057,0,0,0-.31319,1.02877,1.67548,1.67548,0,0,0,.41959,1.00786,2.305,2.305,0,0,0,.62246.49395,5.34022,5.34022,0,0,0,.71619.329c.15482.0613.31415.11187.4676.1765l-.17916-.0756.01976.00867a.81434.81434,0,0,0,.57792.07561.76494.76494,0,0,0,.44823-.34467.757.757,0,0,0,.0756-.57792.72927.72927,0,0,0-.34467-.44822c-.25718-.11566-.526-.20037-.7858-.30949l.17916.0756a3.01872,3.01872,0,0,1-.66439-.36867l.15179.11728a1.42408,1.42408,0,0,1-.24933-.24432l.11727.15179a.96638.96638,0,0,1-.11365-.19061l.07561.17916a.80813.80813,0,0,1-.05556-.19825l.02679.19938a.83763.83763,0,0,1,0-.20214l-.02679.19938a1.06988,1.06988,0,0,1,.07248-.26021l-.07561.17916a1.64527,1.64527,0,0,1,.133-.24492.75591.75591,0,0,0-.26906-1.02614.76686.76686,0,0,0-1.02615.26906Z"/><path d="M45.40264,119.263a1.964,1.964,0,0,0-.24885.50953.9304.9304,0,0,0-.03528.15378,1.51965,1.51965,0,0,0-.0304.33552,1.57384,1.57384,0,0,0,.42885.97737,3.33192,3.33192,0,0,0,1.35488.77679c.15139.05485.30811.0985.45672.16064a.75008.75008,0,0,0,.57792-.0756.75.75,0,0,0,.26907-1.02614l-.11728-.15179a.74916.74916,0,0,0-.331-.19288c-.23869-.09982-.49033-.16622-.7292-.267l.17916.0756a2.69331,2.69331,0,0,1-.581-.32308l.15179.11728a1.27317,1.27317,0,0,1-.22731-.22227l.11727.15179a.8505.8505,0,0,1-.10156-.17211l.0756.17916a.71464.71464,0,0,1-.046-.16377l.02679.19938a.72912.72912,0,0,1-.00113-.17952l-.02679.19937a.92721.92721,0,0,1,.06409-.2303l-.07561.17916a1.464,1.464,0,0,1,.14443-.25384.75019.75019,0,0,0-.847-1.10175.84271.84271,0,0,0-.44822.34467Z"/><path d="M45.8661,121.80458a1.72332,1.72332,0,0,0-.31413,1.01082,1.62667,1.62667,0,0,0,.423,1.0007,3.26828,3.26828,0,0,0,1.34419.80433c.15374.0588.31215.10679.46405.17021l-.17916-.0756.01267.00547a.81923.81923,0,0,0,.57792.0756.76494.76494,0,0,0,.44823-.34467.757.757,0,0,0,.0756-.57792.725.725,0,0,0-.34467-.44822c-.27324-.11939-.55788-.20684-.83268-.32215l.17916.0756a2.88366,2.88366,0,0,1-.63544-.35278l.15179.11727a1.35582,1.35582,0,0,1-.24042-.23639l.11727.1518a.915.915,0,0,1-.10823-.18392l.07561.17916a.76574.76574,0,0,1-.0515-.19094l.02679.19938a.79873.79873,0,0,1,.00247-.19439l-.02679.19938a1.02279,1.02279,0,0,1,.06544-.2312l-.0756.17916a1.55881,1.55881,0,0,1,.13964-.25362.75012.75012,0,0,0-1.29521-.75708Z"/><path d="M46.40317,125.03535a1.53563,1.53563,0,0,0-.31654.96128,1.49152,1.49152,0,0,0,.433.96689,3.3746,3.3746,0,0,0,1.35963.7443c.14771.0503.30009.09037.44525.1478a.75319.75319,0,0,0,.57792-.0756.75.75,0,0,0,.26906-1.02614l-.11727-.1518a.74929.74929,0,0,0-.331-.19287c-.26455-.10468-.54167-.17254-.80463-.28338l.17916.07561a2.48,2.48,0,0,1-.53523-.29764l.15179.11727a1.18364,1.18364,0,0,1-.20195-.19541l.11728.15179a.77479.77479,0,0,1-.10074-.16928l.07561.17916a.64654.64654,0,0,1-.04078-.15034l.02679.19938a.662.662,0,0,1,.00089-.16427l-.02679.19938a.84122.84122,0,0,1,.05469-.19439l-.0756.17916a1.33412,1.33412,0,0,1,.15465-.26382.7548.7548,0,0,0,.0756-.57792.76485.76485,0,0,0-.34467-.44822.757.757,0,0,0-.57792-.07561l-.17916.07561a.75368.75368,0,0,0-.26906.26906Z"/><path d="M46.13785,127.547a1.92686,1.92686,0,0,0,.012,2.08653,3.241,3.241,0,0,0,1.303,1.00633c.15036.06906.30806.12584.45446.20312a.75012.75012,0,1,0,.75708-1.29521c-.15684-.08278-.326-.1431-.48665-.218a3.56542,3.56542,0,0,1-.67161-.39391l.15179.11727a1.82085,1.82085,0,0,1-.318-.3125l.11727.15179a1.25514,1.25514,0,0,1-.1515-.25649l.0756.17916a1.07749,1.07749,0,0,1-.07031-.253l.02679.19938a1.12932,1.12932,0,0,1,.00015-.28322l-.02679.19938a1.48317,1.48317,0,0,1,.10489-.36648l-.07561.17916c.028-.06366.059-.12539.09272-.18623a.75012.75012,0,0,0-1.29521-.75708Z"/><path d="M46.32849,131.4022a1.87354,1.87354,0,0,0-.3126,1.04215,1.70992,1.70992,0,0,0,.4089,1.01979,3.17988,3.17988,0,0,0,1.3186.849c.158.0657.31981.12172.47775.18743l-.17916-.0756.04336.01915a.80825.80825,0,0,0,.57792.07561.76492.76492,0,0,0,.44822-.34467.757.757,0,0,0,.0756-.57792.73526.73526,0,0,0-.34466-.44822c-.23316-.10892-.47848-.189-.71553-.28861l.17916.07561a3.19923,3.19923,0,0,1-.71666-.3984l.15179.11727a1.49756,1.49756,0,0,1-.261-.25807l.11727.15179a1.02561,1.02561,0,0,1-.11941-.20222l.0756.17916a.86479.86479,0,0,1-.05844-.21093l.02679.19938a.90053.90053,0,0,1,.00017-.21555l-.02679.19937a1.152,1.152,0,0,1,.07711-.27809l-.07561.17916a1.75175,1.75175,0,0,1,.12677-.23953.75706.75706,0,0,0-.26906-1.02615.76566.76566,0,0,0-1.02614.26907Z"/><path d="M46.7256,134.08231a1.72892,1.72892,0,0,0-.01754,1.93435,2.956,2.956,0,0,0,1.25481.9348c.21462.092.4331.17313.64835.26318l-.17916-.07561c.01758.00745.035.01511.05227.02332a.8052.8052,0,0,0,.57792.07561.765.765,0,0,0,.44823-.34467.757.757,0,0,0,.0756-.57792.73857.73857,0,0,0-.34467-.44823c-.22017-.10486-.453-.18229-.67763-.27673l.17916.07561a3.31072,3.31072,0,0,1-.74131-.41165l.15179.11727a1.54749,1.54749,0,0,1-.26742-.26384l.11727.15179a1.049,1.049,0,0,1-.1301-.223l.07561.17916a.89915.89915,0,0,1-.05476-.20057l.02679.19938a.93.93,0,0,1,.00082-.24079l-.02679.19938a1.21428,1.21428,0,0,1,.08294-.28807l-.07561.17916a1.83873,1.83873,0,0,1,.11864-.22487.75012.75012,0,0,0-1.29521-.75708Z"/><path d="M46.89642,137.53681a2.00784,2.00784,0,0,0-.24648.50581,1.32643,1.32643,0,0,0-.049.2482,1.21434,1.21434,0,0,0-.019.24618,1.58611,1.58611,0,0,0,.42814.985,2.33683,2.33683,0,0,0,.6325.47156,5.67694,5.67694,0,0,0,.72073.31164c.1505.0552.30575.09984.454.161l-.17916-.07561.006.00255a.55831.55831,0,0,0,.27885.089.56814.56814,0,0,0,.29907-.0134.76494.76494,0,0,0,.44823-.34467.757.757,0,0,0,.0756-.57792.72045.72045,0,0,0-.34467-.44822c-.29069-.12285-.59276-.213-.88372-.335l.17916.0756a2.75047,2.75047,0,0,1-.60025-.33259l.15179.11727a1.29425,1.29425,0,0,1-.23007-.22491l.11727.15179a.86734.86734,0,0,1-.10322-.1743l.0756.17916a.72222.72222,0,0,1-.04911-.18049l.02679.19938a.75042.75042,0,0,1,.00213-.18335l-.02679.19938a.95807.95807,0,0,1,.06163-.21763l-.0756.17916a1.47747,1.47747,0,0,1,.14485-.25753.75019.75019,0,0,0-.847-1.10175.83866.83866,0,0,0-.44822.34467Z"/><path d="M53.196,104.73906c-.78671-.29688-1.59653-.50815-2.40226-.74446-.36553-.1072-.726-.227-1.08082-.36579-.04253-.01663-.09588-.03884-.02272-.00793-.04572-.01931-.09111-.03948-.13639-.05979q-.14009-.06285-.27794-.13059c-.22416-.11005-.44264-.23059-.65781-.35723a.75012.75012,0,1,0-.75707,1.2952,11.03613,11.03613,0,0,0,2.46873,1.05331c.82673.24538,1.65947.45877,2.46752.7637a.75341.75341,0,0,0,.92259-.52383.77061.77061,0,0,0-.52383-.92259Z"/><polygon class="q" points="48.775 89.634 41.43 91.379 36.237 93.884 38.298 91.414 45.662 88.776 49.711 89.353 48.775 89.634"/><path class="r" d="M65.27515,115.28193a1.58449,1.58449,0,0,1-.374-1.15173l.0127-.80225.01172-.16711a1.11737,1.11737,0,0,1,.42675-.8501,1.54087,1.54087,0,0,1,1.05274-.18213l.667.07.14356-1.3645.94336.09924-.22266,2.11279-1.47852-.15539a.77554.77554,0,0,0-.35449.02014.371.371,0,0,0-.17578.14722.63653.63653,0,0,0-.084.27307l-.00586.05859q-.00734.53394-.00293.79285a1.03684,1.03684,0,0,0,.08984.43493.64742.64742,0,0,0,.25293.27759,1.15441,1.15441,0,0,0,.47168.13379l.208.02185.16406.77356-.55273-.0581A1.86546,1.86546,0,0,1,65.27515,115.28193Z"/><path class="r" d="M62.70679,111.03389l.41894,1.35571-.7959-.08362-.19336-1.332Zm1.21875.12805.415,1.35534-.80371-.08435-.18458-1.33117Z"/><path class="r" d="M57.85718,112.81379a1.46395,1.46395,0,0,1,1.7832-1.44616,7.153,7.153,0,0,1,1.59863.36279l-.00488.77356q-.65039-.19537-.93359-.25891a4.61693,4.61693,0,0,0-.53614-.09058.83923.83923,0,0,0-.69531.1709.96691.96691,0,0,0-.27246.62256l-.209,1.99-.94336-.09924Zm2.35742-.24865.89844.55835-.2168,2.05712L59.95,115.081Z"/><path class="r" d="M57.08862,114.78035l-3.001-.31543-.083-.67347.65723-.74914a2.21059,2.21059,0,0,1-.49219-.71509,1.54029,1.54029,0,0,1-.083-.72522l.08008-.75976.92871.09765-.07324.6897a1.98285,1.98285,0,0,0-.00293.48865,1.20518,1.20518,0,0,0,.11914.3507l1.335-1.47.8164.51734-2.084,2.29223,1.78809.188Z"/><polygon class="q" points="58.087 100.033 55.046 99.849 50.743 101.855 51.534 95.642 45.043 97.155 47.649 104.223 50.016 113.293 53.962 111.888 56.289 110.022 58.362 107.153 58.744 103.335 58.087 100.033"/><path d="M43.45579,97.86632c2.47716,3.87,4.15257,6.60272,4.05353,11.19658a17.82872,17.82872,0,0,0,.02894,3.67506c.23537.78066,3.13216,1.13224,3.18634-.02893.227-4.86432-1.66647-12.56311-4.973-16.138"/><polygon class="g" points="100.596 124.922 99.478 130.646 133.13 147.922 133.522 140.103 132.943 137.947 131.021 144.842 130.181 127.588 126.245 141.352 120.909 130.787 118.911 138.494 105.483 131.189 100.596 124.922"/><path class="e" d="M104.181,122.287c-1.19022,3.40028-2.25307,6.84409-3.4433,10.24438-.31939.91245,1.07277,1.4662,1.541.64968,2.76134-4.815,4.96956-9.93456,7.7309-14.74959a.84376.84376,0,0,0-1.456-.85109c-2.76134,4.815-4.96956,9.93456-7.73089,14.74959l1.541.64968c1.19023-3.40028,2.25308-6.84409,3.44331-10.24438.35924-1.02631-1.26924-1.46756-1.626-.44827Z"/><path d="M131.3431,126.14775a50.26211,50.26211,0,0,0-2.798,6.0665,17.29158,17.29158,0,0,0-1.50694,6.37985.5003.5003,0,0,0,1,0,16.622,16.622,0,0,1,1.47122-6.114,48.312,48.312,0,0,1,2.69719-5.82762c.30856-.565-.55461-1.07032-.86347-.50472Z"/><path class="s" d="M121.5055,127.97867s-1.049,8.95606.43848,13.48507"/><path class="s" d="M133.16517,137.6873a26.47376,26.47376,0,0,0-1.20794,9.09976"/><path d="M52.38309,100.34614c-.06521-.02522-.1304-.05057-.1949-.07758.09811.04109-.02417-.01112-.0612-.02807-.13476-.06166-.26926-.12351-.40248-.18848-.2971-.1449-.58976-.29885-.8799-.45716-.65142-.35545-1.29042-.73345-1.92489-1.11818-1.15256-.69887-2.28295-1.43429-3.44076-2.12444a.75055.75055,0,0,0-.75707,1.2952c1.18761.70793,2.34673,1.46287,3.52981,2.17838a24.21966,24.21966,0,0,0,3.73263,1.96674.75574.75574,0,0,0,.92259-.52382.76716.76716,0,0,0-.52383-.92259Z"/><path d="M55.67193,84.84455c-3.68308,4.56148-4.73263,10.98956-5.26626,16.66729-.07136.75922.95255,1.06944,1.43931.59618,3.15655-3.069,8.13872-2.62987,12.13642-3.63061l-.95216-.38747a17.99521,17.99521,0,0,1,1.33159,6.76885.858.858,0,0,0,1.06727.813c1.68537-.33826,3.46361,1.01466,4.72664,1.96471,1.46623,1.1029,2.78871,2.38076,4.229,3.5153.84334.66429,2.04463-.521,1.19237-1.19237-2.86128-2.25381-6.49479-6.73686-10.59631-5.91366l1.06726.813a20.13359,20.13359,0,0,0-1.56181-7.61994.85368.85368,0,0,0-.95216-.38746c-4.37643,1.09554-9.41939.69919-12.88051,4.06427l1.43932.59618c.48577-5.16852,1.412-11.31315,4.77236-15.47492.67569-.83684-.51023-2.03719-1.19236-1.19237Z"/></svg>