<svg xmlns="http://www.w3.org/2000/svg" viewBox="0 0 222.66742 222.66724"><defs><style>.a{fill:#ededed;}.b{fill:#cecece;}.c{fill:#fff100;opacity:0.39;}.d,.g,.i{fill:#c9b092;}.e{fill:#050505;}.f{fill:#f0ea4e;opacity:0.3;}.g,.i{stroke:#000;}.g,.h,.i,.j,.k,.l{stroke-miterlimit:10;}.g{stroke-width:1.78728px;}.h,.k,.l{fill:none;}.h,.j,.k,.l{stroke:#231f20;}.h{stroke-width:2.82797px;}.i{stroke-width:1.81905px;}.j{fill:#231f20;}.j,.k{stroke-width:5px;}.l{stroke-width:4.97658px;}</style></defs><circle class="a" cx="111.33374" cy="111.33362" r="108.8336" transform="translate(-22.60082 194.10987) rotate(-76.71749)"/><path class="b" d="M111.33386,5c58.48346,0,106.33356,47.8501,106.33356,106.3335v.00048c0,58.48316-47.8501,106.33326-106.33356,106.33326h-.00024C52.85016,217.66724,5,169.81714,5,111.334v-.00048C5,52.8501,52.85016,5,111.33362,5h.00024m0-5A111.205,111.205,0,0,0,32.7,189.96729,111.20493,111.20493,0,1,0,189.96747,32.7002,110.54186,110.54186,0,0,0,111.33386,0Z"/><circle class="c" cx="82.64522" cy="62.32397" r="17.58268"/><path class="d" d="M56.73818,110.57064s1.70308,15.39582.76567,17.53519,1.61951,6.17479,1.61951,6.17479l8.12845,8.53655,6.68937,4.24554-.78074,4.49059-2.37214,8.62751s-1.66508,11.944,28.02363,2.04974l2.08869-10.98517,5.42432-10.93751.70683-13.90162s7.51705-11.58012,1.96054-18.3007"/><path class="e" d="M93.67178,107.8892c.38664-4.99762-.19523-4.51652-.19523-4.51652,5.40113-4.75681,6.73114-24.22717,6.73114-24.22717l-15.557-.75711L69.10755,77.38656s-.87383,19.49617,3.9565,24.83164c0,0-.52391-.54363-.70318,4.46571-.17933,5.00934-2.30886,36.36466-2.30886,36.36466a6.06482,6.06482,0,0,0,4.30681,6.02576l7.30857.41335,5.23949.29633a6.06492,6.06492,0,0,0,4.95878-5.50172S93.28508,112.88681,93.67178,107.8892Z"/><ellipse class="f" cx="85.12021" cy="54.43346" rx="29.3228" ry="21.66151" transform="translate(26.17956 136.49716) rotate(-86.91142)"/><path class="g" d="M73.66765,91.33337s-10.72373-4.58363-14.21957,2.70645,1.55317,6.21389,1.55317,6.21389,1.88041-2.35057,4.14709-1.86046,8.08176,1.04909,8.08176,1.04909,3.42574.67525,3.59982-.051,4.26376-1.52278,2.61324-3.43266A37.34215,37.34215,0,0,0,73.66765,91.33337Z"/><path class="g" d="M59.87534,100.28771s-4.91477,4.42153-4.49111,6.56948,3.86077,5.11239,3.86077,5.11239l7.21379-3.69748s8.92259,1.29879,10.68952,1.88454,5.49771,1.44093,5.54168.626,1.808-.1755,2.69388-3.26055a7.94022,7.94022,0,0,0-.94015-5.90867l-7.6138-2.222L63.09074,98.65Z"/><path class="g" d="M59.245,111.96958s-5.2274,5.27589-4.51083,6.1319,1.09968,7.0885,3.816,6.74466,9.26085-4.89477,9.26085-4.89477,8.9713.3206,9.12425.81926,5.81261-1.06208,5.81261-1.06208l2.37229-4.38116-1.1837-4.31406-6.7882-.85669L66.45879,108.2721Z"/><path class="g" d="M59.44538,124.922s-5.40086,4.09471-3.13675,8.46707,8.02648,11.05858,10.1744,11.17447a15.907,15.907,0,0,1,4.43525,1.05667l-6.68074-9.51475s-.42366-2.14795.83166-2.08022,5.2182-.04537,5.2182-.04537l1.2817-.42125,6.43395-2.75875s5.592-3.458,5.15951-5.443.53464-6.3518-3.59881-4.85573-9.83127-.91955-9.83127-.91955Z"/><circle class="h" cx="84.54749" cy="61.05983" r="18.84682"/><path class="i" d="M96.61972,126.86452l.88174-10.38982s-12.10415-5.08759-11.92479-6.81891-4.09936-11.32611,3.57462-9.56838,18.19037,9.02687,18.19037,9.02687"/><ellipse class="f" cx="155.68684" cy="58.93256" rx="21.9921" ry="21.54142" transform="translate(88.45304 211.21866) rotate(-86.91199)"/><line class="j" x1="139.99745" y1="190.84048" x2="100.70822" y2="189.98231"/><polyline class="k" points="130.887 199.368 140.565 190.878 131.544 180.594"/><polyline class="l" points="109.182 198.564 99.594 190.152 108.615 179.869"/></svg>