<svg xmlns="http://www.w3.org/2000/svg" viewBox="0 0 110 101.6864"><defs><style>.a{fill:#78b3f3;}.b{fill:#505bb5;}</style></defs><rect class="a" width="110" height="101.6864" rx="32.67021"/><path class="b" d="M49.86452,54.54987a.752.752,0,0,1-.26758-.56934,1.18332,1.18332,0,0,1,.04883-.36328,9.03625,9.03625,0,0,1,1.63721-2.8457,28.73865,28.73865,0,0,1,2.81884-2.87988q1.41944-1.34913,2.03907-2.07032a2.21663,2.21663,0,0,0,.626-1.40234,1.35972,1.35972,0,0,0-.42187-1.07129,1.60991,1.60991,0,0,0-1.10889-.39551,2.572,2.572,0,0,0-1.68408.417,4.5386,4.5386,0,0,0-.96484,1.23925,3.02974,3.02974,0,0,1-.64307.85743,1.51635,1.51635,0,0,1-1.001.26367l-8.44531-.07617a1.01249,1.01249,0,0,1-.814-.39454,1.55087,1.55087,0,0,1-.3086-1.02441,8.98115,8.98115,0,0,1,1.76856-4.79687,12.01936,12.01936,0,0,1,4.93945-3.86133,18.76233,18.76233,0,0,1,8.05029-1.47071,17.52578,17.52578,0,0,1,7.66016,1.47754,8.94073,8.94073,0,0,1,3.94287,3.37207A7.50106,7.50106,0,0,1,68.8152,42.712a7.84034,7.84034,0,0,1-.66455,3.17285,11.00627,11.00627,0,0,1-1.54394,2.52832,35.08328,35.08328,0,0,1-2.40723,2.56641q-1.05468,1.03417-1.87939,1.97949c-.30616.39258-.47461.60254-.5044.63184a10.46976,10.46976,0,0,1-.8501,1.05957,1.08448,1.08448,0,0,1-.79687.24316l-9.71631-.08789A.85522.85522,0,0,1,49.86452,54.54987Zm.0791,11.376a1.17214,1.17214,0,0,1-.35547-.86524l.06494-7.21972a1.24062,1.24062,0,0,1,1.23731-1.21582l8.30859.07519a1.24066,1.24066,0,0,1,1.21485,1.23731l-.065,7.21972a1.24066,1.24066,0,0,1-1.2373,1.21485l-8.30859-.0752A1.177,1.177,0,0,1,49.94362,65.92585Z"/></svg>