<svg xmlns="http://www.w3.org/2000/svg" viewBox="0 0 162.5886 144.17778"><defs><style>.a{fill:#c12d2d;}</style></defs><path class="a" d="M0,129.26447c11.55644-22.11126,24.70164-43.31786,37.035-64.98679C47.95131,45.09832,59.07818,26.0387,70.1291,6.93605c3.78937-6.55031,10.962-8.75621,17.21456-5.34422A13.84471,13.84471,0,0,1,92.63447,7.134q16.811,29.15847,33.65734,58.29654,17.10855,29.62707,34.21133,59.25747c3.48679,6.04355,2.55082,12.39987-2.42945,16.60115a12.25906,12.25906,0,0,1-7.24588,2.84895c-.738.05131-1.48109.03813-2.22185.03816q-67.16573.00233-134.33144.00134c-7.78088,0-11.50977-2.65521-14.033-9.98173-.02568-.07458-.15866-.1122-.24155-.16708Zm12.49882,2.3952c.47433.04128.57966.05846.685.05846q67.78583.003,135.57165.02666c1.68245.0011,1.06064-.60335.59927-1.40212Q115.65411,71.996,81.96163,13.64465c-.18743-.32448-.21982-.84548-.82452-.85784Q46.87723,72.1206,12.49882,131.65967Z"/><path class="a" d="M60.82162,107.60426c0-4.922.01592-9.8442-.01354-14.76608a5.70052,5.70052,0,0,1,.63437-2.72894C63.48583,86.11776,65.472,82.097,67.51052,78.103a5.41237,5.41237,0,0,0,.611-2.57515c-.02691-5.23946.02048-10.47953-.03967-15.71844-.01288-1.12241.30633-1.43238,1.41036-1.39065,2.2725.08589,4.55165.06738,6.82571.00544.91081-.02481,1.15354.25742,1.1481,1.15666q-.05626,9.288-.00674,18.57661a4.17069,4.17069,0,0,1-.55857,1.94529c-2.06683,4.09889-4.10635,8.21168-6.19608,12.29881a5.0863,5.0863,0,0,0-.56629,2.41908c.01811,9.31483-.01232,18.62982.04067,27.94438.00674,1.18375-.26943,1.54153-1.47433,1.4843-2.21782-.10534-4.44591-.0809-6.66626-.00682-.98416.03284-1.24881-.25692-1.23952-1.23721C60.84756,117.872,60.82164,112.738,60.82162,107.60426Z"/><path class="a" d="M97.28643,91.46923c0,10.426-.01727,20.852.02505,31.27782.00455,1.12155-.166,1.5822-1.434,1.50652a59.44379,59.44379,0,0,0-6.34735-.0065c-1.21838.05777-1.57324-.26188-1.56669-1.53359.0561-10.902.03218-21.80437.03218-32.70664,0-10.05549.0163-20.111-.024-30.16638-.00425-1.06082.18187-1.4808,1.35317-1.42523,2.165.10273,4.34159.10107,6.50677.00067,1.17224-.05435,1.49236.24687,1.48612,1.45808C97.26351,70.40551,97.28642,80.93743,97.28643,91.46923Z"/></svg>