<svg xmlns="http://www.w3.org/2000/svg" xmlns:xlink="http://www.w3.org/1999/xlink" viewBox="0 0 222.66742 222.66699"><defs><style>.a{fill:#cab192;}.b{fill:#747c58;}.c,.i,.p,.q{fill:none;}.d{fill:#ededed;}.e{fill:#cecece;}.f,.g{fill:#c9b092;}.g,.i{stroke:#000;}.g,.i,.q{stroke-miterlimit:10;}.g{stroke-width:0.16938px;}.h{fill:#54593e;}.i,.o,.p,.q{stroke-linecap:round;}.i{stroke-width:0.25381px;}.j{fill:#080808;}.k{clip-path:url(#a);}.l{fill:#271d1d;}.m{clip-path:url(#b);}.n{fill:#707171;}.o{fill:#284220;}.o,.p,.q{stroke:#27421d;stroke-width:0.44565px;}.o,.p{stroke-linejoin:round;}.r{fill:#525222;}.s{clip-path:url(#c);}.t{opacity:0.1;}</style><clipPath id="a"><polygon class="a" points="101.775 95.06 103.404 87.578 102.568 86.119 99.817 84.027 98.655 78.827 101.399 77.292 105.43 67.302 114.34 65.589 122.107 69.56 122.101 80.438 123.283 81.992 121.434 87.001 120.52 87.567 120.045 90.452 117.448 92.847 116.389 98.883 118.91 103.414 113.94 114.076 106.666 116.039 99.16 104.853 95.792 97.644 101.775 95.06"/></clipPath><clipPath id="b"><polygon class="b" points="88.51 150.957 93.284 152.871 105.527 151.945 120.581 150.775 121.315 149.637 120.581 147.14 127.871 121.564 133.135 113.152 130.774 105.196 119.909 99.914 116.613 96.355 116.4 98.472 116.635 102.152 110.805 112.06 101.627 99.576 101.725 93.619 98.512 96.394 86.242 101.585 85.321 118.74 86.813 124.037 88.51 150.957"/></clipPath><clipPath id="c"><rect class="c" x="1938.3335" y="-857.04492" width="1080" height="1920"/></clipPath></defs><circle class="d" cx="111.33374" cy="111.33325" r="108.83322" transform="translate(-22.60038 194.10974) rotate(-76.71755)"/><path class="e" d="M111.3338,5c58.48346,0,106.33362,47.84961,106.33362,106.333S169.81726,217.667,111.3338,217.667h-.00024C52.8501,217.667,5,169.81641,5,111.333S52.8501,5,111.33356,5h.00024m0-5A111.20461,111.20461,0,0,0,32.7,189.9668,111.20508,111.20508,0,1,0,189.96741,32.69922,110.54476,110.54476,0,0,0,111.3338,0Z"/><polygon class="a" points="71.608 88.966 74.299 85.025 78.908 82.258 82.233 77.412 79.022 74.063 73.608 71.931 70.833 74.138 69.717 82.046 71.608 88.966"/><polyline class="a" points="82.575 76.53 81.743 78.42 70.765 75.429 71.048 68.926 71.996 65.114 72.995 65.343 73.653 71.709 73.794 64.983 74.147 63.017 75.214 63.102 75.525 64.836 75.919 71.79 75.867 64.764 76.36 62.955 77.121 63.108 77.753 64.253 78.045 72.403 78.069 68.799 78.28 64.231 79.261 63.835 79.918 64.798 79.922 69.098 80.586 74.252"/><polygon class="a" points="78.548 74.795 81.941 75.12 84.313 74.295 86.265 74.933 86.763 75.889 84.031 76.539 81.711 78.135 79.78 78.867 78.548 74.795"/><path class="f" d="M191.90082,102.29109a22.62072,22.62072,0,0,1-3.72931,1.4632c-.53129-.044-1.21332.8067-1.21332.8067l-1.24147,2.38684-.42153,1.75852-1.02734.16381-2.03832.12641s-2.70205.52455,1.63164,6.20224l2.52639-.36212,2.763.3616,3.05378-.87633s3.05662.76587,4.09638-.93125"/><path class="g" d="M189.72158,105.62663l1.68911-1.02512s1.8834,1.62569,2.16214,1.44936,2.26774-.25859,1.32279-1.41294a13.12394,13.12394,0,0,0-3.06483-2.32674"/><path class="g" d="M196.26559,113.58228s2.24357.15858,2.4206-1.39059-.6752-1.03441-.6752-1.03441-.19435.547-.63836.60076-1.539.31884-1.539.31884-.66693.09313-.65282.23646-.68094.54659-.25962.79049A7.20148,7.20148,0,0,0,196.26559,113.58228Z"/><path class="g" d="M198.214,111.08s.61664-1.11595.40388-1.48066a2.65061,2.65061,0,0,0-1.02622-.688l-1.08132,1.12908s-1.708.32639-2.067.33115-1.09285.08435-1.04943.23565-.31842.14608-.28517.76421a1.53134,1.53134,0,0,0,.54422,1.01748l1.52778-.07555,2.55063-.73194Z"/><path class="g" d="M197.59169,108.91132s.6197-1.29137.43509-1.40215-.64775-1.22243-1.12108-.98834a7.09813,7.09813,0,0,0-1.37882,1.47646,11.18554,11.18554,0,0,1-1.71452.42651c-.05934-.08122-.99227.56038-.99227.56038l-.15585.94814.488.7115,1.29116-.27227,2.067-.33115Z"/><path class="g" d="M196.73777,106.5635s.72586-1.08706.03731-1.741-2.16064-1.5088-2.55939-1.39437a3.06782,3.06782,0,0,1-.875.08733l1.818,1.31238s.21276.36471-.02029.43159-.94811.33757-.94811.33757l-.207.15766-.99844.90879s-.80086.9831-.59678,1.31755.30342,1.1913.96229.6578a3.11983,3.11983,0,0,1,1.8497-.45285Z"/><polygon class="b" points="101.671 105.854 98.512 103.693 93.254 99.892 58.942 105.999 54.808 110.082 56.662 115.347 88.211 118.545 100.264 110.63 101.671 105.854"/><polygon class="b" points="76.627 83.914 74.601 89.733 75.236 92.665 69.486 109.175 62.056 116.622 55.494 112.976 54.756 110.846 54.688 108.574 63.972 87.569 67.206 86.234 68.945 81.238 74.642 84.313 76.627 83.914"/><path d="M66.28307,104.89037a13.84392,13.84392,0,0,1,1.48025,3.43359.127.127,0,0,0,.24474-.06747,14.10259,14.10259,0,0,0-1.50584-3.49422.127.127,0,0,0-.21915.1281Z"/><path d="M72.11909,89.07508a10.692,10.692,0,0,1,.43272-2.17565,9.48222,9.48222,0,0,1,.40912-1.23383c.09428-.22062.23628-.55687.42878-.6586.24361-.12875.02758-.49829-.216-.36955a1.48841,1.48841,0,0,0-.54978.73841,9.15229,9.15229,0,0,0-.45823,1.31355,11.38059,11.38059,0,0,0-.47458,2.38567c-.01511.27521.41291.27436.428,0Z"/><polygon class="h" points="82.935 114.967 81.509 118.3 58.172 115.415 60.704 111.259 61.755 110.353 60.333 114.569 66.797 105.994 64.007 114.445 70.444 110.88 68.776 115.54 78.233 116.48 82.935 114.967"/><path d="M66.26574,104.82632a30.38438,30.38438,0,0,1-.6624,3.9837,10.44514,10.44514,0,0,1-1.40587,3.70126c-.09509.13315.12493.26.21916.1281a10.63324,10.63324,0,0,0,1.43145-3.76189,30.89655,30.89655,0,0,0,.67147-4.05117c.01588-.16245-.238-.16135-.25381,0Z"/><path class="i" d="M71.11925,109.22808s-2.592,4.97023-4.94,6.7781"/><polygon class="b" points="115.994 107.099 119.542 105.663 125.491 103.075 157.705 116.374 160.871 121.246 157.934 125.994 126.43 122.374 116.347 112.066 115.994 107.099"/><path d="M89.69168,130.42955a6.47452,6.47452,0,0,1,2.36749-2.88018,9.25,9.25,0,0,1,3.56653-1.32749c.27084-.04709.156-.45961-.11377-.4127a9.50156,9.50156,0,0,0-3.736,1.41581,6.84848,6.84848,0,0,0-2.45385,2.98855c-.107.25048.26158.46879.36955.216Z"/><path class="j" d="M91.74794,128.37579l2.64348,2.83132c.18837.20176.49053-.10138.30263-.30263l-2.64349-2.83132c-.18836-.20175-.49052.10138-.30262.30263Z"/><path class="j" d="M89.83186,130.42955a1.73636,1.73636,0,0,1,.7827-.701,2.61539,2.61539,0,0,1,.88065-.169,4.39582,4.39582,0,0,1,.97054.07026,1.30065,1.30065,0,0,1,.7563.32488c.17977.20925.48132-.09463.30262-.30263a1.59128,1.59128,0,0,0-.89922-.42585,4.80136,4.80136,0,0,0-1.16985-.09312,2.97755,2.97755,0,0,0-1.067.2295,2.19809,2.19809,0,0,0-.92632.851c-.1515.231.21893.44563.36955.216Z"/><path class="j" d="M90.64633,129.38251c.02091-.01457.04512-.02413.06582-.03835.0123-.00845-.042.01334.00335-.00031l.03655-.01139c.02856-.008.05752-.01375.08663-.01939.02451-.00476.03036-.0049.002-.00126l.05255-.00576c.13916-.01309.27934-.01123.419-.01163a1.41968,1.41968,0,0,0,.80356-.14636.21963.21963,0,0,0,.07677-.29278.21645.21645,0,0,0-.29278-.07677c-.07116.045-.14069.09319-.21553.132a.35953.35953,0,0,1-.07483.02937c-.04211.01519.01637.00629-.02667.00416-.0458-.00226.0241.00894-.02435-.00567l.12789.31435.3522-.7753a.21428.21428,0,0,0-.33609-.25932l-.81672.76285a.214.214,0,0,0,.30263.30263l.81672-.76285-.33609-.25932-.3522.7753a.21778.21778,0,0,0,.12788.31435.82889.82889,0,0,0,.67117-.203l-.216-.36955c-.0209.01457-.04512.02413-.06582.03835-.01229.00845.042-.01334-.00334.00031l-.03656.01139c-.02856.008-.05752.01375-.08663.01939-.02451.00476-.03035.0049-.002.00126l-.05254.00576c-.13916.01309-.27935.01123-.419.01163a1.4196,1.4196,0,0,0-.80356.14636.21965.21965,0,0,0-.07677.29278.21587.21587,0,0,0,.29278.07677Z"/><polygon class="b" points="184.731 107.972 178.654 108.99 175.871 107.871 158.628 110.762 150.038 116.833 152.528 123.915 154.504 125 156.731 125.45 178.999 119.831 180.859 116.869 186.076 115.994 184.004 109.862 184.731 107.972"/><path d="M150.58693,113.54638a14.06915,14.06915,0,0,0-2.21875,3.09042c-.07635.14428.14265.27268.21915.1281a13.81784,13.81784,0,0,1,2.17907-3.03905c.11227-.11858-.06689-.29838-.17947-.17947Z"/><path d="M175.19269,120.55111a11.36866,11.36866,0,0,0,2.37473-.5262,9.15466,9.15466,0,0,0,1.30353-.48616,1.49769,1.49769,0,0,0,.72774-.56437c.12291-.24562-.24614-.46261-.36955-.216-.09858.197-.42661.34371-.64719.445a9.18936,9.18936,0,0,1-1.22394.43757,10.89364,10.89364,0,0,1-2.16532.4822c-.27284.02107-.27512.44922,0,.428Z"/><polygon class="a" points="101.775 95.06 103.404 87.578 102.568 86.119 99.817 84.027 98.655 78.827 101.399 77.292 105.43 67.302 114.34 65.589 122.107 69.56 122.101 80.438 123.283 81.992 121.434 87.001 120.52 87.567 120.045 90.452 117.448 92.847 116.389 98.883 118.91 103.414 113.94 114.076 106.666 116.039 99.16 104.853 95.792 97.644 101.775 95.06"/><g class="k"><polygon class="l" points="103.5 81.464 98.847 71.884 130.737 42.552 121.837 81.68 121.381 70.618 115.669 70.992 109.865 69.127 109.06 71.402 105.826 72.978 103.5 81.464"/></g><polygon points="108.568 74.631 108.781 73.237 112.543 73.232 113.155 74.327 108.568 74.631"/><polygon points="117.57 75.41 118.006 74.031 121.048 75.471 121.36 76.609 117.57 75.41"/><path d="M110.03089,85.86908a9.01725,9.01725,0,0,0,5.28531,1.69255.20331.20331,0,0,0,0-.40637A8.64594,8.64594,0,0,1,110.236,85.5182c-.21246-.15317-.41553.19918-.2051.35088Z"/><path d="M105.50984,90.0543l4.60913,3.97491,4.062,1.19481,3.26713-2.37713-3.046,5.09677a2.87749,2.87749,0,0,1-1.51289,1.25159h0a2.87754,2.87754,0,0,1-1.40042.13487l-.14068-.0214a2.87749,2.87749,0,0,1-1.73068-.94752l-.91764-1.04638a2.87742,2.87742,0,0,1-.53775-.90548l-1.70149-4.63415Z"/><path d="M105.69532,90.55487c.81882.91521,1.68343,1.79074,2.52327,2.68658.1725.184.34573.36754.51391.55552.1173.13111.30968-.06234.19289-.19288-.81883-.91521-1.68343-1.79074-2.52328-2.68658-.1725-.184-.34573-.36754-.51391-.55552-.1173-.13111-.30967.06234-.19288.19288Z"/><path d="M118.41978,76.51974a3.43371,3.43371,0,0,0-.36014,2.39063.20566.20566,0,0,0,.3396.08965,2.456,2.456,0,0,0,.73028-1.74811c.01462-.1605.02628-.3224.02963-.48356a.43356.43356,0,0,0-.19311-.42248c-.37035-.19323-.60489.49291-.164.51585.26136.01359.26062-.39281,0-.40637l-.01761-.00092.10255.02774.01952.016.05225.08965c.05338.151-.19191.03245-.20793.10358a.73678.73678,0,0,0,.00053.111q-.00618.15523-.017.3103a4.42848,4.42848,0,0,1-.07845.602,1.6844,1.6844,0,0,1-.544.998l.3396.08966a2.99616,2.99616,0,0,1,.31917-2.0775.20334.20334,0,0,0-.35089-.2051Z"/><path d="M110.43109,75.30451a3.43368,3.43368,0,0,0-.36014,2.39062.20566.20566,0,0,0,.3396.08966,2.45609,2.45609,0,0,0,.73028-1.74812c.01462-.16049.02628-.32239.02963-.48355a.43355.43355,0,0,0-.19312-.42248c-.37035-.19323-.60489.49291-.164.51585.26136.01359.26062-.39281,0-.40637l-.01761-.00092.10255.02774.01951.016.05226.08965c.05338.151-.19192.03245-.20794.10358a.73928.73928,0,0,0,.00053.111q-.00618.15525-.017.31031a4.42848,4.42848,0,0,1-.07845.602,1.68445,1.68445,0,0,1-.544.998l.33959.08966a2.99622,2.99622,0,0,1,.31918-2.0775.20334.20334,0,0,0-.35089-.2051Z"/><path d="M100.44923,81.19058l1.31726.94228a.20483.20483,0,0,0,.278-.0729.20761.20761,0,0,0-.07289-.278l-1.31727-.94228a.20483.20483,0,0,0-.278.0729.2076.2076,0,0,0,.0729.278Z"/><path d="M101.08007,80.3793l.63566,1.75255a.20854.20854,0,0,0,.24994.14191.20492.20492,0,0,0,.14191-.24994l-.63566-1.75255a.20853.20853,0,0,0-.24994-.14191.20491.20491,0,0,0-.14191.24994Z"/><path d="M99.26711,79.57217a3.56179,3.56179,0,0,1,1.94061,1.01223c.18349.18694.47077-.10047.28735-.28734a3.92866,3.92866,0,0,0-2.11993-1.11674.20909.20909,0,0,0-.24994.14191.20487.20487,0,0,0,.14191.24994Z"/><path d="M88.57313,118.65936c1.32479-1.65254,3.076-3.23287,5.35078-2.92647.23751.032.34031-.33163.10034-.364a4.81708,4.81708,0,0,0-3.0248.56814,9.49759,9.49759,0,0,0-2.69321,2.45539c-.1505.18774.11491.45647.26689.26689Z"/><path class="j" d="M90.59289,116.34283c.33085,1.21359.35752,2.48727.68837,3.70087a.18888.18888,0,0,0,.364-.10034c-.33084-1.2136-.35752-2.48727-.68837-3.70087a.18888.18888,0,0,0-.364.10034Z"/><path class="j" d="M88.57313,118.65936a2.5054,2.5054,0,0,1,1.19791-.55158,2.367,2.367,0,0,1,.574-.04916.94926.94926,0,0,1,.09943.00744c.00525.0008.08142.02232.0469.00785a.29851.29851,0,0,1,.10523.09265,2.83809,2.83809,0,0,1,.4272.92885,8.76491,8.76491,0,0,1,.25746.94829c.04957.23763.41347.13706.364-.10034a6.57649,6.57649,0,0,0-.58384-1.74777c-.11131-.20788-.26721-.44794-.51656-.49349a2.50326,2.50326,0,0,0-1.03562.0784,2.7987,2.7987,0,0,0-1.203.612c-.18018.16368.08737.43.26689.26689Z"/><path class="j" d="M89.78377,117.67666c.03583-.01778-.04037.01-.00131.00048l.02894-.0082.03-.00592c-.00442.00862-.04264.00379,0,.00187a.60951.60951,0,0,1,.06594.00086l.04107.00372c-.02357-.002-.02583-.00415-.001.0002.10771.0189.21264.04891.31808.07745a.95089.95089,0,0,0,.68234.00781.18987.18987,0,0,0,.0677-.2582.1945.1945,0,0,0-.2582-.0677c-.03065.01344-.06108.02738-.09167.041-.01676.00742.01263-.00411-.01658.00689-.01768.00667-.03528.01334-.05333.019-.01426.00446-.03019.00635-.04391.0118-.02234.00888.02625-.00539-.00927.00152q-.02909-.00135-.007.00179.02158.00418-.00574-.00189l.01644.00762a.14891.14891,0,0,1-.02634-.01759l.06771.2582.47045-.67439a.19.19,0,0,0-.2582-.2582l-.81538.56621a.18875.18875,0,1,0,.1905.3259l.81537-.56621-.2582-.2582-.47045.67439a.1929.1929,0,0,0,.0677.25821c.19047.14227.43394.01075.61836-.0701l-.1905-.3259c-.03583.01778.04037-.01.00131-.00048l-.02893.0082-.03.00592c.00443-.00862.04265-.00379,0-.00187a.60966.60966,0,0,1-.066-.00086l-.04107-.00372c.02357.002.02583.00415.001-.0002-.1077-.0189-.21263-.04892-.31807-.07745a.95091.95091,0,0,0-.68235-.00782.1899.1899,0,0,0-.0677.25821.19343.19343,0,0,0,.2582.0677Z"/><path d="M110.02239,85.95577a2.98831,2.98831,0,0,0,.67554,1.369,6.17842,6.17842,0,0,0,.97848.99935,6.484,6.484,0,0,0,2.72553,1.33916c.26859.0576.38337-.35487.11377-.41269a6.02838,6.02838,0,0,1-2.53667-1.2291,3.88849,3.88849,0,0,1-1.54395-2.17945c-.0392-.27155-.45164-.15607-.4127.11377Z"/><polygon class="b" points="88.51 150.957 93.284 152.871 105.527 151.945 120.581 150.775 121.315 149.637 120.581 147.14 127.871 121.564 133.135 113.152 130.774 105.196 119.909 99.914 116.613 96.355 116.4 98.472 116.635 102.152 110.805 112.06 101.627 99.576 101.725 93.619 98.512 96.394 86.242 101.585 85.321 118.74 86.813 124.037 88.51 150.957"/><g class="m"><polygon class="h" points="89.508 116.599 85.626 119.406 86.813 123.621 88.001 140.143 94.644 126.89 89.508 116.599"/></g><path d="M122.24828,108.73548a5.34511,5.34511,0,0,0-2.0236-2.78007,8.764,8.764,0,0,0-2.88005-1.04341.21873.21873,0,0,0-.24166.09835,12.41511,12.41511,0,0,0-.83972,2.21185,6.04517,6.04517,0,0,1-.13285.73315,2.5248,2.5248,0,0,1-.49769.46131c-1.19229,1.04444-2.46049,2.01073-3.59644,3.1182-.20692.20173-.89727.76962-.4666,1.065.22769.15619.442-.21454.216-.36955.37175.255-.065.167.09757.10532.02631-.01.08393-.10848.10184-.13041a4.17723,4.17723,0,0,1,.30148-.31655c.30992-.30676.63759-.59607.96568-.88311.74307-.65009,1.50471-1.27847,2.2562-1.91872.32957-.28079.9491-.65031,1.06848-1.09519.06-.22342.05116-.47923.11337-.71085.08409-.31311.19176-.62.30631-.9231.14449-.38233.29993-.76235.47591-1.13139l-.24166.09834a9.24889,9.24889,0,0,1,2.561.87348,4.755,4.755,0,0,1,2.04371,2.65107c.09495.256.50876.14526.41269-.11377Z"/><path d="M116.74255,107.52328a13.12224,13.12224,0,0,1,2.608.31228,17.85065,17.85065,0,0,1,2.48353.81428c.25628.10107.36746-.31264.11377-.4127a17.58419,17.58419,0,0,0-2.56019-.83189,13.78526,13.78526,0,0,0-2.64512-.31.21412.21412,0,0,0,0,.428Z"/><path d="M118.17113,98.93867a11.1802,11.1802,0,0,1,2.9838,5.79558,21.54841,21.54841,0,0,1,.61689,3.658c.01946.27316.44759.2753.428,0a22.23577,22.23577,0,0,0-.65851-3.87628,11.4732,11.4732,0,0,0-3.06754-5.87989c-.20566-.18186-.50946.11974-.30262.30263Z"/><path class="j" d="M130.91011,116.97a9.8151,9.8151,0,0,0-3.5488,7.20036.188.188,0,0,0,.37568,0,9.44872,9.44872,0,0,1,3.43877-6.93471c.18523-.15584-.08169-.42041-.26565-.26565Z"/><path d="M92.50074,114.89012q7.04271.9752,14.13045,1.54041c.27463.02153.27323-.40656,0-.428q-7.0309-.55129-14.01667-1.52512c-.26936-.0373-.38584.375-.11378.41269Z"/><path d="M106.44405,116.52955c.66967,1.36445.52151,2.941.85548,4.39232.06174.2683.47448.15474.41269-.11378-.34451-1.49718-.20656-3.08449-.89862-4.49455-.12134-.24723-.49057-.03058-.36955.216Z"/><path d="M107.32693,121.01306a89.96844,89.96844,0,0,1-13.34762-.35721c-.27372-.02807-.27176.40012,0,.428a89.96844,89.96844,0,0,0,13.34762.35721c.27425-.0127.2758-.44076,0-.428Z"/><path d="M92.22866,114.70441a15.41357,15.41357,0,0,0,.07988,5.913c.05643.26941.46908.1554.41269-.11378a14.85079,14.85079,0,0,1-.07988-5.68545c.04871-.2693-.36366-.38482-.41269-.11378Z"/><path d="M92.39716,120.84729l1.3773.2941a.214.214,0,1,0,.11378-.41269l-1.3773-.2941a.214.214,0,0,0-.11378.41269Z"/><path class="j" d="M112.08018,150.94242a12.16027,12.16027,0,0,0-.78153-3.59306,18.508,18.508,0,0,1-.74083-4.8067c-.11837-2.98778-.1166-5.98075-.10009-8.97034.034-6.15.20516-12.29766.29152-18.44689a.21412.21412,0,0,0-.428,0c-.08637,6.14923-.25754,12.29686-.29152,18.44689-.01651,2.98958-.01828,5.98256.10009,8.97034a18.57894,18.57894,0,0,0,.5755,4.31351,15.31488,15.31488,0,0,1,.94685,4.08625.21412.21412,0,0,0,.428,0Z"/><path d="M113.16487,116.8214a8.39372,8.39372,0,0,0,1.14376,5.39424c.133.24128.5027.02562.36955-.216a7.93042,7.93042,0,0,1-1.10062-5.06445c.04214-.26945-.37019-.38552-.41269-.11378Z"/><path d="M113.80388,117.2148a42.58933,42.58933,0,0,1,11.63689,1.168c.26758.06487.38175-.34773.11377-.41269a43.02677,43.02677,0,0,0-11.75066-1.18324c-.27455.01029-.2759.43832,0,.428Z"/><path d="M125.06113,118.14264a9.85191,9.85191,0,0,0,.54835,3.96348c.0918.2576.50548.14659.4127-.11378a9.53306,9.53306,0,0,1-.53306-3.8497c.01852-.27494-.40954-.2738-.428,0Z"/><path d="M114.21381,122.18866a29.02316,29.02316,0,0,0,4.22065.34614c2.10322.13829,4.20756.26221,6.30962.41759a13.46586,13.46586,0,0,1,1.8602.17626c.26847.05862.38317-.35388.11378-.4127a29.02456,29.02456,0,0,0-4.22065-.34614c-2.10322-.13829-4.20756-.26221-6.30962-.41759a13.46615,13.46615,0,0,1-1.86021-.17626c-.26847-.05862-.38316.35388-.11377.4127Z"/><line class="n" x1="116.412" y1="107.33656" x2="119.31817" y2="107.86046"/><path d="M117.10378,105.17017a5.25915,5.25915,0,0,1,4.64793,2.64768l-.04843.54946-4.57028-1.17593-.612.16546Z"/><path d="M97.75195,105.22771c1.19936.05148,2.392.21089,3.58583.32874a12.67894,12.67894,0,0,0,1.65876.12249.48229.48229,0,0,0,.505-.35027,1.78259,1.78259,0,0,0-.20477-.87162.215.215,0,0,0-.42034.05689.869.869,0,0,1-.04667.40969c-.11648.22639-.39607-.00945-.15175-.12114h-.216c.102.04784-.19547.13487-.21176.13707a.9698.9698,0,0,1-.16068.00311,2.07938,2.07938,0,0,1-.33982-.04687c-.26711-.05448-.52874-.13355-.79118-.20651a2.80444,2.80444,0,0,0-1.40892-.16461l.11378.41269a8.836,8.836,0,0,1,2.39839-.05529c.27444-.01129.27587-.43933,0-.428a9.17567,9.17567,0,0,0-2.51217.07058.21418.21418,0,0,0,.11378.41269,1.747,1.747,0,0,1,.83334.07186c.32642.08034.64676.18365.97367.26211.432.10369,1.402.26045,1.44641-.42478.018-.27821-.24632-.54741-.51676-.38531a.55017.55017,0,0,0-.16425.771.57006.57006,0,0,0,.7856.12158.95516.95516,0,0,0,.283-.83991l-.42034.05688c.06311.18763.34229.6895.00157.67725-.22669-.00814-.45331-.02454-.67943-.04195-.50154-.03863-1.002-.09-1.50226-.14263-.98211-.10329-1.96483-.22139-2.952-.26376-.27539-.01182-.27483.41618,0,.428Z"/><path class="j" d="M133.49974,113.71468c-1.62632,1.9023-3.26871,3.7908-4.895,5.69309-.17806.20829.1233.5124.30263.30263,1.62632-1.9023,3.26871-3.79079,4.895-5.69309.17806-.20829-.1233-.51239-.30263-.30263Z"/><path class="j" d="M128.36813,122.02427c.77717-1.621,1.931-3.01675,2.76854-4.60047.12868-.24332-.2406-.45985-.36955-.216-.83758,1.58372-1.99137,2.97949-2.76854,4.60047-.11851.24718.25039.46454.36955.216Z"/><path d="M86.04629,119.21539c1.57466-1.44317,3.52863-2.69809,5.73892-2.05a.18888.18888,0,0,0,.10034-.364c-2.3461-.68792-4.43011.611-6.10615,2.147-.17946.16447.088.43082.26689.26689Z"/><path class="j" d="M88.37184,117.22989c.14211,1.24983-.0247,2.51269.11741,3.76252.02713.23858.40488.24133.37744,0-.14211-1.24983.0247-2.51269-.11741-3.76252-.02713-.23858-.40488-.24134-.37744,0Z"/><path class="j" d="M86.0081,119.2449a2.36224,2.36224,0,0,1,1.00045-.35,2.40273,2.40273,0,0,1,.946.03648c.01212.0034.07275.02129.05427.01569-.022-.00666.0336.02858.00535.00227a.29658.29658,0,0,1,.06709.07755,1.29874,1.29874,0,0,1,.13338.29957,5.30847,5.30847,0,0,1,.18947.85449c.04113.26867.07085.54.08516.81151.01274.24163.39025.24314.37744,0a6.80341,6.80341,0,0,0-.29263-1.77987.94288.94288,0,0,0-.41976-.611,2.19351,2.19351,0,0,0-1.01427-.098,2.819,2.819,0,0,0-1.32243.41547c-.20153.13364-.01272.46066.1905.32591Z"/><path class="j" d="M87.35129,118.45346l.03036-.00848c.02771-.00784.0131,0-.00618-.00007.02188.00009.04374-.00038.06566-.0001.04447.00057-.0403-.009.00442.00026l.02791.00557c.024.00529.04778.01184.07128.01912.0501.01553.0991.03461.14744.05491-.03512-.01475.03182.01421.04521.02015l.08308.037a.97173.97173,0,0,0,.66939.12606.18877.18877,0,0,0-.10034-.364c-.06662.01775-.1325.03739-.20024.05053-.02166.00421.0242.00078-.01115.00118-.01687.00019-.033.00107-.04993.00013l.01891.00251q-.031-.00925.00215.00492l-.01307-.007q.02663.023.0034.0005v.26689l.56756-.595a.18934.18934,0,0,0,.01476-.24779.19139.19139,0,0,0-.24345-.0486l-.892.43559a.19054.19054,0,0,0-.0677.2582.19265.19265,0,0,0,.2582.06771l.892-.4356-.2287-.29639-.56756.595a.19217.19217,0,0,0,0,.26689c.17025.174.41329.09863.61716.04434l-.10034-.364-.03036.00849c-.02771.00784-.01311,0,.00618.00006-.02188-.00008-.04374.00039-.06566.00011-.04447-.00057.0403.009-.00443-.00026l-.0279-.00557c-.024-.00529-.04778-.01185-.07128-.01913-.05011-.01552-.0991-.03461-.14744-.0549.03512.01474-.03182-.01421-.04521-.02015l-.08308-.037a.97168.97168,0,0,0-.66939-.12606.18876.18876,0,0,0,.10034.364Z"/><path d="M116.18846,76.8042a3.24568,3.24568,0,0,0-.13792,2.54385,20.68081,20.68081,0,0,0,.92078,2.76732c.07525.19572.39366.11072.31744-.08751a23.16251,23.16251,0,0,1-.85853-2.51239,3.22754,3.22754,0,0,1,.04248-2.54512c.12332-.17272-.16206-.33729-.28425-.16615Z"/><path d="M116.78038,81.54373a1.14311,1.14311,0,0,1,.12975,1.23569c-.215.49874-.84552.67333-1.33146.75853a2.78318,2.78318,0,0,1-1.0262.02367,2.67721,2.67721,0,0,1-.89525-.40257,1.78875,1.78875,0,0,1-.69362-.63962.61811.61811,0,0,1-.03794-.48706c.03411-.10031.06167-.2488.18509-.21028.2027.06325.28941-.25443.08752-.31744-.54993-.17162-.71467.64351-.58575,1.02333a1.53654,1.53654,0,0,0,.58417.71425,4.181,4.181,0,0,0,.88445.51516,3.05266,3.05266,0,0,0,1.99227.005,1.63455,1.63455,0,0,0,1.18847-.98981,1.41529,1.41529,0,0,0-.24872-1.46163c-.16209-.134-.39625.0976-.23278.23278Z"/><path d="M125.06774,122.57278a8.94936,8.94936,0,0,0-.24373,2.623c.05741.834.19549,1.65776.21323,2.49529.01091.51552.04881,1.07755-.443,1.39909a4.342,4.342,0,0,1-1.53552.2817q-1.78863.26587-3.59065.42909a19.984,19.984,0,0,1-3.68689.078,1.04606,1.04606,0,0,1-1.02866-.69049,6.44017,6.44017,0,0,1-.1671-.934c-.24481-1.6399-.35579-3.30037-.50011-4.95118a34.412,34.412,0,0,0-.59959-4.82072c-.05567-.2385-.42284-.13754-.36711.1012.78072,3.34458.57633,6.8628,1.17535,10.24041a1.557,1.557,0,0,0,.90839,1.36656,4.87413,4.87413,0,0,0,1.49944.11048c.73065.01358,1.4615-.0178,2.19-.07208,1.27512-.095,2.55129-.238,3.81649-.423.8738-.12777,1.86871-.01157,2.45224-.76474a1.74206,1.74206,0,0,0,.25884-1.25212c-.008-.55881-.05917-1.11347-.12133-1.66844a9.9892,9.9892,0,0,1,.13684-3.44693c.05445-.23852-.31251-.34035-.36711-.10121Z"/><path d="M105.6014,121.3351q-.03938,1.65146-.08481,3.30277-.03826,1.40646-.08159,2.81278-.01981.63191-.04174,1.26375c-.01422.40478.0713,1.01357-.19289,1.34277-.15191.1893.1158.46036.2692.2692a1.61845,1.61845,0,0,0,.28542-1.08995q.02548-.67473.04682-1.34961.0473-1.45966.08647-2.91956.05006-1.816.09383-3.63215a.19047.19047,0,0,0-.38071,0Z"/><polygon points="116.704 106.802 118.233 106.252 119.858 106.512 120.672 107.123 121.497 108.102 120.88 108.561 116.256 106.902 116.256 106.902 116.704 106.802"/><path d="M130.31065,109.11448a21.56407,21.56407,0,0,1-3.63459-.64077,18.77583,18.77583,0,0,0-5.79617-.10267c-.2396.031-.24269.41208,0,.38071a18.53684,18.53684,0,0,1,5.89966.12737,19.81717,19.81717,0,0,0,3.5311.61607.19047.19047,0,0,0,0-.38071Z"/><path d="M130.433,109.2711c-.35017-.942-.73465-1.87221-1.106-2.806q-.3354-.84334-.67168-1.68633a4.2146,4.2146,0,0,0-.34647-.86815c-.11041-.15224-.34419-.18488-.52042-.24659l-1.52825-.53516-1.64064-.5745a2.319,2.319,0,0,0-.6444-.20006,7.80685,7.80685,0,0,0-1.44136.2591l-1.44507.25977c-.1605.02886-.0925.2735.06747.24474l2.67606-.481c.0855-.01537.26209-.01536.1615-.03327a2.31639,2.31639,0,0,1,.33481.11724l1.43665.50307c.79241.27748,1.59957.52965,2.38207.83414-.15446-.06011-.08017-.1237-.06712-.03979a.74244.74244,0,0,0,.05459.13671l.19768.49532q.31292.78436.6252,1.569c.4131,1.038.84134,2.072,1.23065,3.11925.05641.15176.30182.08609.24474-.06747Z"/><path d="M127.58459,105.57019l.0285.0289c.02472.02383-.01106-.02.00013-.0012.01316.02212.02819.04262.04.06564.00257.005.01976.04214.00856.01649-.01139-.02611.006.01713.00641.01832.00832.02384.01531.04815.02121.0727q.00547.02273.00968.04576c.001.00523.00753.04909.00393.02188-.00362-.02738.00154.01767.002.02293l.00315.04928a1.31417,1.31417,0,0,1-.00489.17746l-.00461.04277c.00344-.02807.0009-.00664-.00186.00921-.00543.0312-.01126.06227-.01837.09314a1.44976,1.44976,0,0,1-.05052.17106l-.01478.03873c.01531-.03958-.00441.00969-.00656.01434q-.01658.03582-.03561.07044c-.01221.0221-.02523.04378-.03918.06483l-.02512.03582c.01794-.025.00769-.01011-.0055.00527a.19526.19526,0,0,0,0,.2692.192.192,0,0,0,.2692,0,1.44718,1.44718,0,0,0,.31362-.81481.96216.96216,0,0,0-.23022-.78737.19036.19036,0,0,0-.2692.26921Z"/><path d="M95.83543,102.75151c-1.36325.34505-2.76.55977-4.14862.7737-.98738.15211-2.01235.23538-2.9836.47553a.19052.19052,0,0,0,.10121.36711c.97125-.24015,1.99622-.32342,2.9836-.47553,1.3886-.21393,2.78537-.42865,4.14861-.77371a.19051.19051,0,0,0-.1012-.3671Z"/><path d="M97.224,97.68592c-1.7428.47441-3.46744,1.02564-5.18693,1.57735a39.53551,39.53551,0,0,0-5.02633,1.7887c-.22087.10581-.028.43418.19215.32873A39.58362,39.58362,0,0,1,92.25793,99.592c1.68-.53778,3.3648-1.07557,5.06725-1.539a.19052.19052,0,0,0-.10121-.36711Z"/><path d="M96.21227,101.16388H89.76853a.19047.19047,0,0,0,0,.38071h6.44374a.19047.19047,0,0,0,0-.38071Z"/><ellipse class="o" cx="123.98622" cy="113.81037" rx="1.04767" ry="0.56104" transform="translate(-43.32632 132.02837) rotate(-48.76391)"/><ellipse class="o" cx="124.03955" cy="115.26517" rx="1.04767" ry="0.56104" transform="translate(-44.40216 132.56432) rotate(-48.76391)"/><ellipse class="o" cx="124.05477" cy="116.82005" rx="1.04767" ry="0.56104" transform="translate(-45.56624 133.10573) rotate(-48.76391)"/><ellipse class="o" cx="124.05802" cy="118.52526" rx="1.04767" ry="0.56104" transform="translate(-46.84745 133.68937) rotate(-48.76391)"/><ellipse class="o" cx="123.92336" cy="120.19414" rx="1.04767" ry="0.56104" transform="translate(-48.14834 134.15692) rotate(-48.76391)"/><ellipse class="o" cx="123.88317" cy="121.78199" rx="1.04767" ry="0.56104" transform="translate(-49.3561 134.6679) rotate(-48.76391)"/><ellipse class="o" cx="124.00534" cy="123.46844" rx="1.04767" ry="0.56104" transform="translate(-50.58268 135.33457) rotate(-48.76391)"/><ellipse class="o" cx="124.01768" cy="125.17557" rx="1.04767" ry="0.56104" transform="translate(-51.86223 135.92571) rotate(-48.76391)"/><ellipse class="o" cx="124.29451" cy="126.97465" rx="1.04767" ry="0.56104" transform="translate(-53.12078 136.74707) rotate(-48.76391)"/><ellipse class="o" cx="124.48623" cy="128.6072" rx="1.04767" ry="0.56104" transform="translate(-54.28312 137.44768) rotate(-48.76391)"/><ellipse class="o" cx="124.80272" cy="130.344" rx="1.04767" ry="0.56104" transform="translate(-55.48132 138.27764) rotate(-48.76391)"/><path class="o" d="M125.9089,131.28848c.13194.30508-.10727.85351-.5343,1.225s-.88016.42524-1.01209.12016.36712-1.04142.79415-1.41286S125.777,130.9834,125.9089,131.28848Z"/><ellipse class="o" cx="125.76855" cy="133.38525" rx="1.04767" ry="0.56104" transform="translate(-57.43915 140.04052) rotate(-48.76391)"/><ellipse class="o" cx="126.41292" cy="134.80204" rx="1.04767" ry="0.56104" transform="translate(-58.28495 141.00797) rotate(-48.76391)"/><ellipse class="o" cx="127.01123" cy="135.96762" rx="1.04767" ry="0.56104" transform="translate(-58.95754 141.85518) rotate(-48.76391)"/><path class="p" d="M123.53255,113.09253l.46936-5.58845.6131.08521c.17134.03785.31246.29646.30175.553l-.69687,4.46927Z"/><path class="q" d="M123.79662,107.507s2.51293-2.297,2.62587-2.3083"/><path class="q" d="M123.79662,107.507s.61943-2.43087,1.7407-2.63411"/><path d="M96.52855,108.6566c-.48906-.18455-.99247-.31588-1.49335-.46278a6.20826,6.20826,0,0,1-1.41839-.60055.1905.1905,0,0,0-.19215.32873,6.54921,6.54921,0,0,0,1.46877.627c.51393.15254,1.03159.28519,1.53391.47475.22948.0866.32865-.28128.10121-.36711Z"/><polygon class="r" points="93.854 99.001 89.288 100.085 86.06 101.642 87.341 100.107 91.919 98.467 94.436 98.826 93.854 99.001"/><polygon class="r" points="99.643 105.465 97.752 105.351 95.077 106.598 95.569 102.735 91.534 103.676 93.154 108.07 94.625 113.708 97.078 112.834 98.525 111.675 99.814 109.891 100.051 107.517 99.643 105.465"/><path d="M90.547,104.11821c1.5399,2.40576,2.5814,4.10451,2.51984,6.96024a11.0825,11.0825,0,0,0,.018,2.28457c.14632.48529,1.94708.70384,1.98076-.018.1411-3.02385-1.03595-7.80973-3.09144-10.032"/><polygon class="h" points="132.349 120.007 133.03 123.568 156.445 125.737 154.859 121.136 154.026 120.026 154.514 124.449 150.032 114.691 150.951 123.542 145.425 118.684 146.058 123.593 136.619 122.49 132.349 120.007"/><path class="j" d="M128.59532,119.38156c-.73989,2.11375-1.4006,4.25456-2.1405,6.36832-.08106.23159.27228.37213.39112.16489,1.71656-2.99322,3.08928-6.17572,4.80584-9.16894a.21415.21415,0,0,0-.36955-.216c-1.71656,2.99322-3.08928,6.17572-4.80584,9.16894l.39113.1649c.73989-2.11376,1.4006-4.25457,2.14049-6.36833.09118-.26048-.32214-.37247-.41269-.11377Z"/><path d="M150.54977,113.63611a30.53658,30.53658,0,0,0-.20523,4.18115,10.50822,10.50822,0,0,0,.60369,3.89862c.06408.14971.28278.02056.21915-.1281a10.58751,10.58751,0,0,1-.57252-3.99857,30.78639,30.78639,0,0,1,.20871-3.9531c.01917-.16187-.2348-.16049-.2538,0Z"/><path class="i" d="M145.11847,116.9259s1.46978,5.40938,3.37714,7.67734"/><path class="i" d="M154.09369,119.82508a16.45709,16.45709,0,0,0,1.41141,5.5291"/><path d="M96.02323,105.92578a14.429,14.429,0,0,1-2.21888-1.18994c-.71647-.43445-1.41917-.89162-2.13891-1.32064a.1905.1905,0,0,0-.19215.32873c.73827.44007,1.45883.90937,2.19427,1.35417a14.67256,14.67256,0,0,0,2.25446,1.19479c.22866.08843.32768-.27953.10121-.36711Z"/><path d="M98.36034,96.24264c-2.23182,2.76411-2.85975,6.70367-3.18289,10.14177-.01811.19269.24176.27143.36531.15131,2.02-1.96392,5.12535-1.69685,7.68134-2.33669l-.24166-.09834a11.57511,11.57511,0,0,1,.87011,4.36432.21775.21775,0,0,0,.27088.20634c1.15323-.23145,2.30412.59775,3.17724,1.25261.93376.70035,1.77551,1.51206,2.69171,2.23375.214.1686.51894-.13225.30263-.30263-1.05643-.83214-2.02085-1.77575-3.12257-2.55144a4.25735,4.25735,0,0,0-3.16279-1.045l.27088.20635a12.12227,12.12227,0,0,0-.92855-4.58033.21665.21665,0,0,0-.24166-.09834c-2.6522.66392-5.77359.40833-7.87019,2.44676l.3653.15131c.31061-3.30478.91049-7.18,3.05754-9.83914.17149-.21239-.1295-.517-.30263-.30263Z"/><g class="s"><image class="t" width="11221" height="15823" transform="matrix(0.06628, 0.02814, -0.02814, 0.06627, -252.37924, -1327.04492)" xlink:href="%5C%5CNas%5C%D7%90%D7%A8%D7%9B%D7%99%D7%95%D7%9F%20%D7%92%D7%A8%D7%A4%D7%99%D7%A7%D7%94%5C%D7%9E%D7%93%D7%95%D7%A8%20%D7%98%D7%99''%D7%9C%5C%D7%92%D7%A8%D7%A4%D7%99%D7%A7%D7%94%20%D7%9B%D7%9C%D7%9C%D7%99%5C%D7%A1%D7%9E%D7%9C%D7%99%D7%9D%5C%D7%A1%D7%9E%D7%9C%20%D7%91%D7%94%D7%93%2020%20%D7%97%D7%93%D7%A9.png"/></g></svg>