<svg id="Layer_1" data-name="Layer 1" xmlns="http://www.w3.org/2000/svg" viewBox="0 0 539.08 711.58"><defs><style>.cls-1{font-size:40px;fill:#112d4d;font-family:Rubik-Bold, Rubik;font-weight:700;}.cls-2{fill:#505bb5;}.cls-3{fill:#c12d2d;}.cls-4{fill:#39bf2e;}.cls-5{fill:none;stroke:#112d4d;stroke-miterlimit:10;stroke-width:71px;}.cls-6,.cls-7{fill:#f2f7fa;}.cls-7{opacity:0.4;}.cls-8{fill:#747c58;}.cls-9{fill:#999;}.cls-10{fill:#9fa0a6;}.cls-11{fill:gray;}.cls-12{fill:#ccc;}</style></defs><text class="cls-1" transform="translate(364.81 699.86)">התחלה</text><circle class="cls-2" cx="526.58" cy="651" r="12.5"/><circle class="cls-2" cx="526.58" cy="556" r="12.5"/><circle class="cls-3" cx="526.58" cy="425" r="12.5"/><circle class="cls-3" cx="526.58" cy="462" r="12.5"/><circle class="cls-3" cx="526.58" cy="387" r="12.5"/><circle class="cls-3" cx="489.58" cy="91" r="12.5"/><circle class="cls-3" cx="526.58" cy="91" r="12.5"/><circle class="cls-3" cx="451.58" cy="91" r="12.5"/><circle class="cls-3" cx="54.58" cy="12.5" r="12.5"/><circle class="cls-3" cx="54.58" cy="365" r="12.5"/><circle class="cls-4" cx="526.58" cy="290" r="12.5"/><circle class="cls-4" cx="526.58" cy="198" r="12.5"/><circle class="cls-4" cx="326.58" cy="290" r="12.5"/><circle class="cls-2" cx="184.58" cy="90" r="12.5"/><circle class="cls-2" cx="327.58" cy="91" r="12.5"/><circle class="cls-4" cx="54.58" cy="90" r="12.5"/><circle class="cls-4" cx="54.58" cy="290" r="12.5"/><path class="cls-5" d="M42.08,185.5h359s28,4,28,28v420"/><rect class="cls-6" x="52.08" y="171.5" width="9" height="29" transform="translate(242.58 129.42) rotate(90)"/><rect class="cls-6" x="92.08" y="171.5" width="9" height="29" transform="translate(282.58 89.42) rotate(90)"/><rect class="cls-6" x="132.08" y="171.5" width="9" height="29" transform="translate(322.58 49.42) rotate(90)"/><rect class="cls-6" x="171.08" y="171.5" width="9" height="29" transform="translate(361.58 10.42) rotate(90)"/><rect class="cls-6" x="211.08" y="171.5" width="9" height="29" transform="translate(401.58 -29.58) rotate(90)"/><rect class="cls-6" x="251.08" y="171.5" width="9" height="29" transform="translate(441.58 -69.58) rotate(90)"/><rect class="cls-6" x="289.08" y="171.5" width="9" height="29" transform="translate(479.58 -107.58) rotate(90)"/><rect class="cls-6" x="329.08" y="171.5" width="9" height="29" transform="translate(519.58 -147.58) rotate(90)"/><rect class="cls-6" x="369.08" y="171.5" width="9" height="29" transform="translate(559.58 -187.58) rotate(90)"/><rect class="cls-6" x="407.08" y="171.5" width="9" height="29" transform="translate(597.58 -225.58) rotate(90)"/><rect class="cls-6" x="424.08" y="206.5" width="9" height="29" transform="translate(857.16 442) rotate(180)"/><rect class="cls-6" x="424.08" y="245.5" width="9" height="29" transform="translate(857.16 520) rotate(180)"/><rect class="cls-6" x="424.08" y="284.5" width="9" height="29" transform="translate(857.16 598) rotate(180)"/><rect class="cls-6" x="424.08" y="323.5" width="9" height="29" transform="translate(857.16 676) rotate(180)"/><rect class="cls-6" x="424.08" y="362.5" width="9" height="29" transform="translate(857.16 754) rotate(180)"/><rect class="cls-6" x="424.08" y="401.5" width="9" height="29" transform="translate(857.16 832) rotate(180)"/><rect class="cls-6" x="424.08" y="440.5" width="9" height="29" transform="translate(857.16 910) rotate(180)"/><rect class="cls-6" x="424.08" y="479.5" width="9" height="29" transform="translate(857.16 988) rotate(180)"/><polyline class="cls-7" points="62.08 220.5 79.08 213.5 76.64 207.79 76.08 206.5 98.08 199.5 79.08 207.5 80.08 212.5"/><polyline class="cls-7" points="310.08 169.5 327.08 162.5 324.63 156.79 324.08 155.5 346.08 148.5 327.08 156.5 328.08 161.5"/><polyline class="cls-7" points="381.08 221.5 398.08 214.5 395.63 208.79 395.08 207.5 417.08 200.5 398.08 208.5 399.08 213.5"/><polyline class="cls-7" points="393.08 547.5 401.11 540.5 399.95 534.79 399.69 533.5 410.08 526.5 401.11 534.5 401.58 539.5"/><polyline class="cls-7" points="465.08 316.5 457.05 309.5 458.21 303.79 458.47 302.5 448.08 295.5 457.05 303.5 456.58 308.5"/><polyline class="cls-7" points="410.08 373.5 402.05 366.5 403.21 360.79 403.47 359.5 393.08 352.5 402.05 360.5 401.58 365.5"/><rect class="cls-8" x="46.42" y="145.15" width="69.76" height="83.71" rx="12" transform="translate(-105.08 269.75) rotate(-90.44)"/><rect class="cls-9" x="62.79" y="159.11" width="35.18" height="55.2" rx="12" transform="translate(-105.7 268.54) rotate(-90.44)"/><rect class="cls-10" x="45.38" y="143.1" width="11.24" height="18.2" rx="5.62" transform="translate(-100.8 204.38) rotate(-90.44)"/><rect class="cls-10" x="65.4" y="142.95" width="11.24" height="18.2" rx="5.62" transform="translate(-80.48 224.24) rotate(-90.44)"/><rect class="cls-10" x="106.04" y="142.63" width="11.24" height="18.2" rx="5.62" transform="translate(-39.21 264.56) rotate(-90.44)"/><rect class="cls-10" x="45.92" y="212.86" width="11.24" height="18.2" rx="5.62" transform="translate(-170.01 275.21) rotate(-90.44)"/><rect class="cls-10" x="65.93" y="212.7" width="11.24" height="18.2" rx="5.62" transform="translate(-149.69 295.07) rotate(-90.44)"/><rect class="cls-10" x="85.95" y="212.55" width="11.24" height="18.2" rx="5.62" transform="translate(-129.36 314.93) rotate(-90.44)"/><rect class="cls-11" x="34.59" y="153.08" width="4.85" height="67.94" rx="2.43" transform="translate(-149.74 225.51) rotate(-90.44)"/><rect class="cls-11" x="-1.5" y="184.58" width="8.49" height="5.46" rx="2.73" transform="translate(-184.54 191.5) rotate(-90.44)"/><rect class="cls-11" x="46.72" y="172.99" width="8.49" height="27.9" rx="4.25" transform="translate(-135.58 239.35) rotate(-90.44)"/><rect class="cls-12" x="69.77" y="167.31" width="19.41" height="38.82" rx="9.71" transform="translate(-106.63 267.63) rotate(-90.44)"/><line class="cls-9" x1="82.24" y1="152.12" x2="99.83" y2="151.99"/><rect class="cls-10" x="106.58" y="212.39" width="11.24" height="18.2" rx="5.62" transform="translate(-108.42 335.39) rotate(-90.44)"/><rect class="cls-10" x="85.41" y="142.79" width="11.24" height="18.2" rx="5.62" transform="translate(-60.15 244.1) rotate(-90.44)"/></svg>