<svg xmlns="http://www.w3.org/2000/svg" viewBox="0 0 222.66742 222.66748"><defs><style>.a{fill:#ededed;}.b{fill:#cecece;}.c,.d{fill:#c9b092;}.d,.h{stroke:#000;}.d,.h,.i,.j{stroke-miterlimit:10;}.d{stroke-width:0.33559px;}.e{fill:#747c58;}.f{fill:#080808;}.g{fill:#54593e;}.h,.j{fill:none;}.h{stroke-linecap:round;stroke-width:0.50287px;}.i{fill:#231f20;}.i,.j{stroke:#231f20;stroke-width:2.51436px;}</style></defs><circle class="a" cx="111.33368" cy="111.33374" r="108.83362" transform="translate(-46.11596 111.3337) rotate(-45)"/><path class="b" d="M111.3338,5c58.48352,0,106.33362,47.8501,106.33362,106.3335v.00048c0,58.4834-47.8501,106.3335-106.33362,106.3335h-.00018C52.8501,217.66748,5,169.81738,5,111.334v-.00048C5,52.8501,52.8501,5,111.33362,5h.00018m0-5A111.205,111.205,0,0,0,32.7,189.96729,111.20493,111.20493,0,1,0,189.96747,32.7002,110.54189,110.54189,0,0,0,111.3338,0Z"/><path class="c" d="M55.36847,101.47549s-.89171,4.18351-.693,4.79716-.615,1.6521-.615,1.6521L51.592,110.04666l-1.95492.98245.09093,1.25539.41434,2.43591s.12878,3.32775-7.75661-.2081l-.27156-3.07594-1.18943-3.15465.18841-3.83927s-1.74677-3.38882-.035-5.08253"/><path class="d" d="M52.04166,104.96417l.74076-2.27291s-2.43537-1.76928-2.30469-2.14633-.322-2.74267,1.29881-1.94857a15.8785,15.8785,0,0,1,3.58761,2.96718"/><path class="d" d="M40.86224,99.45421s-.80675-2.59893.96913-3.23553,1.405.50949,1.405.50949-.59066.38009-.53125.91795.04971,1.901.04971,1.901.07459.81132-.09814.83431-.45568.95313-.8594.52424A8.71373,8.71373,0,0,1,40.86224,99.45421Z"/><path class="d" d="M43.27129,96.46766s1.1441-1.03473,1.6325-.88489,1.094,1.01868,1.094,1.01868l-1.03117,1.5857s.08751,2.10212.1811,2.52628.20263,1.31059.01241,1.30125-.08408.41544-.82138.54709a1.85278,1.85278,0,0,1-1.34888-.35989l-.33318-1.82048.15736-3.2067Z"/><path class="d" d="M45.99782,96.60145s1.3499-1.0868,1.5314-.9,1.61891.4252,1.474,1.04744A8.58842,8.58842,0,0,1,47.645,98.78106a13.53189,13.53189,0,0,0-.02862,2.13742c.11207.04746-.38589,1.32367-.38589,1.32367l-1.07377.44557-.97293-.37818-.03608-1.59611-.1811-2.52628Z"/><path class="d" d="M48.99933,96.95853s1.0799-1.15538,2.04046-.525,2.37429,2.12815,2.34969,2.62947a3.71182,3.71182,0,0,0,.13891,1.05478L51.48016,98.339s-.48839-.14984-.50277.14315-.13565,1.21008-.13565,1.21008l-.12851.28739-.79459,1.4272s-.93671,1.215-1.38706,1.067-1.4871-.02821-1.04074-.95173a3.77475,3.77475,0,0,0,.0223-2.30394Z"/><polygon class="e" points="101.397 145.342 97.643 142.631 91.401 137.871 49.711 144.194 44.584 149.004 46.664 155.43 84.724 160.275 99.547 151.076 101.397 145.342"/><polygon class="e" points="50.995 112.17 52.431 119.486 54.884 122.161 58.959 142.917 55.745 155.232 46.664 155.43 44.593 153.655 43.135 151.325 40.008 123.716 42.57 120.347 41.337 114.066 49.165 113.8 50.995 112.17"/><path d="M58.54225,143.13346a16.65485,16.65485,0,0,1,1.67316,4.1758.25165.25165,0,0,0,.48491-.13368,17.16759,17.16759,0,0,0-1.72385-4.29593.25163.25163,0,0,0-.43422.25381Z"/><path d="M49.57961,120.231c-.03032-.05911-.05793-.11931-.0855-.17973l-.02742-.06266q.0249.05979.00679.01629c-.0181-.04321-.03563-.08666-.053-.13017-.07711-.19317-.1489-.38847-.21793-.58466q-.27054-.76893-.48285-1.5571a11.90921,11.90921,0,0,1-.31816-1.48,3.68266,3.68266,0,0,1-.03513-.611c.00146-.03769.00411-.07522.00722-.1128.00621-.07507-.02461.05834.01053-.05318.00873-.02769.01616-.0572.02407-.08518.02091-.07391-.04668.08123.01273-.01462.28833-.46513-.44493-.89142-.73219-.428a1.91067,1.91067,0,0,0-.14941,1.18041,11.27453,11.27453,0,0,0,.33083,1.70994,13.96138,13.96138,0,0,0,.97722,2.82044c.24914.48571.98106.05719.7322-.428Z"/><path class="f" d="M81.63516,142.57538c-.332,3.00979-.63875,6.02231-.97071,9.0321-.05974.54164.7887.5374.848,0,.332-3.00979.63875-6.02231.97071-9.0321.05974-.54164-.7887-.5374-.848,0Z"/><polygon class="g" points="78.454 155.785 76.625 159.772 48.488 155.559 51.68 150.61 52.979 149.548 51.128 154.603 59.212 144.432 55.576 154.566 63.472 150.454 61.31 156.039 72.719 157.469 78.454 155.785"/><path class="f" d="M80.791,151.25335c-1.25263,2.40265-2.59423,4.75807-3.84686,7.16073l.77494.3267c1.22043-3.99239,2.89094-7.83856,4.11136-11.831.15989-.523-.65835-.74664-.81768-.22542-1.22043,3.99239-2.89094,7.83856-4.11136,11.831a.42587.42587,0,0,0,.77494.3267c1.25263-2.40265,2.59423-4.75807,3.84686-7.16073.252-.48334-.47955-.91258-.7322-.428Z"/><path d="M58.50793,143.00656a36.61044,36.61044,0,0,1-.92211,4.77161,12.55277,12.55277,0,0,1-1.80623,4.4093c-.19484.25845.24158.50933.43421.2538a12.94668,12.94668,0,0,0,1.85693-4.52942,37.51233,37.51233,0,0,0,.94007-4.90529c.03963-.3204-.4636-.31752-.50287,0Z"/><path class="h" d="M64.33979,148.477s-3.28906,5.93117-6.185,8.045"/><path class="h" d="M52.9573,149.29134a19.91154,19.91154,0,0,1-3.255,6.08869"/><path class="c" d="M145.82128,74.41091s-.89171,4.18351-.693,4.79715-.615,1.65211-.615,1.65211l-2.46846,2.1219-1.95492.98245.09093,1.25539.41434,2.43592s.12878,3.32774-7.75661-.2081l-.27156-3.07594-1.18943-3.15465.18841-3.83928s-1.74677-3.38882-.035-5.08253"/><path class="d" d="M142.49447,77.89958l.74076-2.27291s-2.43537-1.76928-2.30469-2.14633-.322-2.74267,1.29881-1.94857a15.8785,15.8785,0,0,1,3.58761,2.96718"/><path class="d" d="M131.31505,72.38962s-.80675-2.59893.96913-3.23553,1.405.50949,1.405.50949-.59066.38009-.53125.918.04971,1.901.04971,1.901.07459.81132-.09814.83431-.45568.95313-.85939.52424A8.7129,8.7129,0,0,1,131.31505,72.38962Z"/><path class="d" d="M133.7241,69.40307s1.1441-1.03473,1.6325-.88489,1.094,1.01869,1.094,1.01869l-1.03117,1.5857s.08752,2.10211.1811,2.52627.20263,1.31059.01241,1.30126-.08408.41543-.82138.54708a1.85278,1.85278,0,0,1-1.34888-.35989l-.33318-1.82048.15736-3.2067Z"/><path class="d" d="M136.45063,69.53687s1.3499-1.08681,1.5314-.9,1.61891.42521,1.474,1.04744a8.58842,8.58842,0,0,1-1.35815,2.03212,13.532,13.532,0,0,0-.02862,2.13743c.11207.04745-.38589,1.32367-.38589,1.32367l-1.07377.44557-.97293-.37819-.03608-1.59611-.1811-2.52627Z"/><path class="d" d="M139.45214,69.89394s1.0799-1.15538,2.04046-.525,2.37429,2.12814,2.34969,2.62946a3.71182,3.71182,0,0,0,.13891,1.05478L141.933,71.27438s-.48839-.14984-.50277.14315-.13565,1.21008-.13565,1.21008l-.12851.28739-.79459,1.4272s-.93671,1.215-1.38706,1.067-1.4871-.02821-1.04074-.95173a3.77472,3.77472,0,0,0,.0223-2.30393Z"/><polygon class="e" points="181.667 153.687 180.61 149.178 179.016 141.492 143.388 118.938 136.364 119.21 133.721 125.426 159.287 154.034 176.512 156.804 181.667 153.687"/><polygon class="e" points="141.448 85.106 142.884 92.421 145.337 95.096 149.412 115.853 146.198 128.168 137.117 128.366 135.046 126.591 133.587 124.26 130.461 96.651 133.023 93.282 131.79 87.002 139.617 86.735 141.448 85.106"/><path d="M140.03242,93.16638c-.03032-.05911-.05793-.11931-.0855-.17972l-.02742-.06266q.0249.05977.00679.01628c-.0181-.04321-.03563-.08666-.053-.13017-.07711-.19316-.1489-.38847-.21793-.58465q-.27054-.76895-.48285-1.5571a11.91156,11.91156,0,0,1-.31816-1.48,3.6826,3.6826,0,0,1-.03513-.611c.00146-.03769.00411-.07522.00722-.1128.00621-.07507-.02461.05834.01053-.05318.00873-.02769.01616-.0572.02407-.08518.02091-.0739-.04668.08123.01273-.01461.28833-.46514-.44493-.89142-.73219-.428a1.91068,1.91068,0,0,0-.14941,1.18041,11.27429,11.27429,0,0,0,.33083,1.70994,13.96117,13.96117,0,0,0,.97722,2.82044c.24914.48571.98106.05719.7322-.428Z"/><path class="f" d="M168.57783,138.62124c-2.22378,2.05521-4.43008,4.12924-6.65385,6.18445-.40164.3712.19914.96972.5996.59961,2.22377-2.05521,4.43008-4.12925,6.65385-6.18446.40164-.37119-.19914-.96972-.5996-.5996Z"/><polygon class="g" points="157.496 146.533 153.501 148.345 135.014 126.719 140.669 125.074 142.346 125.123 137.635 127.727 150.407 125.346 141.018 130.616 149.676 132.686 144.383 135.487 152.061 144.045 157.496 146.533"/><path class="f" d="M162.25479,144.63583c-2.52088.99348-5.07822,1.89238-7.5991,2.88585l.32671.77494c3.53834-2.21555,7.322-4.02373,10.8603-6.23928.46148-.289.03633-1.02293-.428-.7322-3.53834,2.21556-7.322,4.02373-10.8603,6.23928-.38713.24241-.13935.95862.32671.77494,2.52088-.99347,5.07821-1.89237,7.59909-2.88584.50189-.1978.28329-1.01817-.22542-.81769Z"/><path d="M135.71556,127.32613a16.65779,16.65779,0,0,1-2.13616-3.9593c-.11235-.30039-.59861-.17033-.48491.13368a17.12437,17.12437,0,0,0,2.18686,4.07943c.18852.25917.625.0085.43421-.25381Z"/><line class="i" x1="159.77024" y1="78.58495" x2="160.25008" y2="103.13876"/><polyline class="j" points="165.33 84.053 159.779 78.229 153.591 84.128"/></svg>