<svg xmlns="http://www.w3.org/2000/svg" xmlns:xlink="http://www.w3.org/1999/xlink" viewBox="0 0 293.76021 643.65809"><defs><style>.a{fill:#757d5a;}.b{fill:#ccb292;}.c,.u,.v{fill:none;}.d{fill:#27421d;}.e{clip-path:url(#a);}.f{fill:#54593e;}.g{clip-path:url(#b);}.h{fill:#fff7ee;}.i{clip-path:url(#c);}.j{fill:#525222;}.k{opacity:0.15;}.l{fill:#2c2829;}.m{clip-path:url(#d);}.n{clip-path:url(#e);}.o{fill:#271d1d;}.p{clip-path:url(#f);}.q{clip-path:url(#g);}.r{fill:#95734d;}.s{fill:#231f20;}.t{fill:#284220;}.t,.u,.v{stroke:#27421d;stroke-linecap:round;stroke-width:2.08797px;}.t,.u{stroke-linejoin:round;}.v{stroke-miterlimit:10;}</style><clipPath id="a"><path class="a" d="M104.37181,166.512l-64.153,56.60222-6.11294,12.18127L49.311,256.85516l21.57249,17.28029,5.72188.847L86.96373,279.837l.458-7.247,12.354-8.32814L87.97,256.44317,74.37769,243.38568l-.018-6.61708-1.02814-1.52218,6.53565,1.23486.54692-3.73546,6.47507,1.47753,2.188-6.18574,18.39328-7.36923,13.83708-27.07061,3.21326-11.65587a12.70526,12.70526,0,0,0-.33324-7.7872l0,0a12.70524,12.70524,0,0,0-13.03954-8.24477Z"/></clipPath><clipPath id="b"><polygon class="b" points="186.79 145.32 190.721 126.609 179.024 119.492 150.936 133.204 145.179 151.558 136.559 162.696 145.551 193.361 164.284 201.603 189.011 174.628 201 156.645 186.79 145.32"/></clipPath><clipPath id="c"><polygon class="a" points="217.173 210.972 201.505 261.47 197.396 289.466 193.908 296.495 182.794 301.622 125.556 300.015 116.312 297.667 108.038 287.582 110.763 276.09 103.005 202.31 96.775 186.526 104.372 166.512 133.274 158.058 146.237 148.184 145.179 151.558 141.923 158.312 142.749 171.599 148.571 189.359 181.742 158.941 187.112 143.785 195.532 152.287 219.27 164.144 217.173 210.972"/></clipPath><clipPath id="d"><path class="a" d="M206.06187,453.30326l9.82093,36.23932V551.2283s-4.8244,4.21357-6.17132,4.21357l-30.92491.81436c-.95357,0-7.70225-4.07654-7.70225-4.07654L166.82655,518.931l-4.94636-13.48609-17.2969-98.5317-14.43163,38.27-.30253,25.74516-9.20734,43.62879-2.94738,12.89827L111.612,549.06922l-5.13782,1.07954-4.89864,1.56682-15.85526-.48728-17.29395-2.15908-5.32724-17.74433,8.40109-13.54318,1.31848-28.18595,7.03879-21.8428,3.09766-16.89L80.78381,434.65,95.13,380.69121l-4.00457-4.00457,9.51667-36.55529-3.11277-3.9955,8.89369-12.49057,2.52011-10.39708,4.09039-12.28187,9.36037,3.58281,66.64074,2.88649,5.98949-2.053,3.99172,20.05587,7.16886,11.72953-2.49937,2.1,5.48614,37.11375L203.473,381.278l2.71169,6.27009,1.95111,3.90949-2.86007.68061.7356,6.61012,2.22459,30.54976-3.94465,2.0485"/></clipPath><clipPath id="e"><polygon class="b" points="186.753 141.721 192.681 136.82 202.065 137.133 211.325 128.607 213.122 123.051 210.288 120.234 214.752 103.694 215.133 92.988 206.372 82.525 187.883 73.742 176.036 74.442 161.291 91.339 158.219 91.704 155.648 94.012 151.437 106.306 152.389 109.066 148.352 119.853 149.71 129.352 152.512 139.964 161.541 143.785 186.753 141.721"/></clipPath><clipPath id="f"><polygon class="c" points="185.055 603.295 206.062 601.602 206.062 521.901 176.987 521.901 185.055 603.295"/></clipPath><clipPath id="g"><polygon class="c" points="64.074 598.757 75.448 603.295 84.114 550.127 68.405 551.716 64.074 598.757"/></clipPath></defs><path d="M209.30774,628.93844c-2.14854,1.252-4.99416,1.267-7.4033,1.59575a35.3367,35.3367,0,0,1-8.45869.515c-1.00123-.10464-.99389,1.4621,0,1.566a37.11885,37.11885,0,0,0,8.875-.57091c2.5793-.352,5.47547-.41221,7.77738-1.75361a.78358.78358,0,0,0-.79038-1.35218Z"/><path class="d" d="M209.93532,254.25063a69.121,69.121,0,0,0,3.84708-43.59816c-.23478-.97959-1.74519-.56482-1.51.4163a67.33813,67.33813,0,0,1-3.68921,42.39148c-.39788.91494.95087,1.71321,1.35217.79038Z"/><path class="a" d="M197.61979,175.55164l11.46626-12.36718,23.64667,2.91036,53.56964,29.05292a10.98058,10.98058,0,0,1,5.2584,5.544l1.92,4.49607-1.61244,11.282-10.40045,3.8427-73.33206-6.39616-8.03213-25.6637Z"/><polygon points="113.583 327.811 194.01 328.389 194.268 292.436 115.232 289.992 113.583 327.811"/><polygon class="b" points="77.862 273.296 75.581 258.573 93.736 263.588 102.46 264.95 105.393 261.61 109.817 260.441 110.23 269.48 118.911 275.788 131.509 287.728 130.742 290.146 127.487 289.424 127.705 293.831 125.753 294.957 123.589 294.4 123.362 297.01 122.185 297.689 119.042 297.409 119.146 297.355 111.76 294.276 102.047 293.783 98.708 291.511 90.834 280.465 77.862 273.296"/><path d="M127.42484,288.49287l-5.18025-4.62936-.73477-.65663a.80091.80091,0,0,0-1.10731,0,.79072.79072,0,0,0,0,1.10731l5.18025,4.62937.73476.65663a.80092.80092,0,0,0,1.10732,0,.79073.79073,0,0,0,0-1.10732Z"/><path d="M124.14285,293.846l-5.1542-4.65076-.74058-.66824a.80041.80041,0,0,0-1.10731,0,.79094.79094,0,0,0,0,1.10731l5.15419,4.65076.74058.66825a.80043.80043,0,0,0,1.10732,0,.791.791,0,0,0,0-1.10732Z"/><path d="M119.24389,296.3579l-3.3652-2.78971-.47825-.39646a.80092.80092,0,0,0-1.10731,0,.79214.79214,0,0,0,0,1.10732l3.3652,2.7897.47825.39646a.80092.80092,0,0,0,1.10731,0,.79213.79213,0,0,0,0-1.10731Z"/><path class="a" d="M104.37181,166.512l-64.153,56.60222-6.11294,12.18127L49.311,256.85516l21.57249,17.28029,5.72188.847L86.96373,279.837l.458-7.247,12.354-8.32814L87.97,256.44317,74.37769,243.38568l-.018-6.61708-1.02814-1.52218,6.53565,1.23486.54692-3.73546,6.47507,1.47753,2.188-6.18574,18.39328-7.36923,13.83708-27.07061,3.21326-11.65587a12.70526,12.70526,0,0,0-.33324-7.7872l0,0a12.70524,12.70524,0,0,0-13.03954-8.24477Z"/><g class="e"><polygon class="f" points="101.68 209.801 111.682 235.527 86.94 255.453 70.394 240.418 68.324 229.174 71.354 229.174 71.354 221.594 77.703 227.545 80.613 216.043 84.147 228.326 98.542 218.308 101.68 209.801"/></g><path d="M74.73952,236.45884c-3.14807-7.63316-10.63778-11.68868-18.12949-14.09965-.96157-.30945-1.37334,1.202-.4163,1.51,6.88926,2.21709,14.12153,5.93976,17.03575,13.00591.37889.9187,1.89461.51615,1.51-.4163Z"/><path d="M74.886,232.70127a28.61659,28.61659,0,0,0-2.85548-11.50247c-.439-.90686-1.78984-.1137-1.35218.79038A26.71219,26.71219,0,0,1,73.32,232.70127c.03451,1.005,1.60065,1.00961,1.566,0Z"/><path d="M81.16628,235.097q.44465-9.52077.22946-19.05423a.78347.78347,0,0,0-1.566,0q.21525,9.52871-.22946,19.05423c-.04706,1.00746,1.519,1.00507,1.566,0Z"/><path d="M73.09444,230.11785q1.61678,1.42023,3.17648,2.90353.75821.72186,1.502,1.45861a8.14164,8.14164,0,0,0,.72614.72852c-.02031-.01541.93738-.13753.05637.07937-.198.04876.05971-.38379.06038-.40462l.03436-.031q-.11611.05829-.04858.02846c.0406-.00949-.16012.05155-.20118.06344a2.87961,2.87961,0,0,1-2.76091-.65151,1.42433,1.42433,0,0,1-.3648-.53415.85434.85434,0,0,1-.0336-.25265c.0097.07717.00227-.00741.01236-.0404-.03564.11649.03746-.06927.05883-.09757-.07.09271.0378-.03418.06175-.04983.09851-.06436-.13031.03238.06634-.03379-.08347.02809-.02049-.011.02631-.00085-.04125-.00895-.13062.04169.01282.00764-.055.013-.06463-.01291-.107-.02525.11716.03416.06314.053.01542-.0042-.05322-.0638.03882.06013.04838.07664a.98.98,0,0,1,.05319.10434q-.03593-.07647-.00689.00088a3.3659,3.3659,0,0,0,.7667,1.70178,1.38355,1.38355,0,0,0,2.00226.05812.799.799,0,0,0-.15847-1.22975,11.43251,11.43251,0,0,0-2.23706-1.1576.78869.78869,0,0,0-.96317.54687.80135.80135,0,0,0,.54687.96317,9.65276,9.65276,0,0,1,1.863.99974l-.15846-1.22974-.04462.05522a.39173.39173,0,0,1,.27617-.09985c-.19944.02952.09778-.02686.07216.03271-.00173.004-.13941-.08219-.12816-.07425.11568.08163-.06769-.07487-.07438-.08293.07509.09042-.02233-.03614-.03447-.06514-.05187-.12384.02918.17415-.01864-.06436-.03273-.16328-.07972-.32789-.12035-.48963a1.681,1.681,0,0,0-3.30264-.33329,2.34988,2.34988,0,0,0,.59768,2.24766,4.42343,4.42343,0,0,0,4.13191,1.30824c.82448-.15675,1.7858-.67131,1.55309-1.67145a2.19057,2.19057,0,0,0-.67758-.99359q-.49262-.49438-.99171-.98226-2.03805-1.99218-4.18106-3.87264a.80182.80182,0,0,0-1.10731,0,.79032.79032,0,0,0,0,1.10731Z"/><path d="M96.82269,263.50576a40.257,40.257,0,0,1-8.63687-5.30069.80663.80663,0,0,0-1.10731,0,.7887.7887,0,0,0,0,1.10732,41.74872,41.74872,0,0,0,8.9538,5.54555.80666.80666,0,0,0,1.07128-.2809.78918.78918,0,0,0-.2809-1.07128Z"/><path d="M78.51358,269.59191A28.04056,28.04056,0,0,1,64.69491,267.726c-.93372-.37816-1.33984,1.136-.4163,1.51a29.03475,29.03475,0,0,0,14.235,1.92188c.989-.11565,1.00072-1.683,0-1.566Z"/><path d="M74.45492,242.36165a8.68072,8.68072,0,0,0-3.98873-2.76106,48.22872,48.22872,0,0,0-5.098-1.73733.78366.78366,0,0,0-.4163,1.51c1.56091.46454,3.12523.93024,4.63535,1.54438a7.66991,7.66991,0,0,1,3.51553,2.23435.8033.8033,0,0,0,1.07127.2809.79.79,0,0,0,.2809-1.07128Z"/><polygon class="b" points="186.79 145.32 190.721 126.609 179.024 119.492 150.936 133.204 145.179 151.558 136.559 162.696 145.551 193.361 164.284 201.603 189.011 174.628 201 156.645 186.79 145.32"/><g class="g"><path class="h" d="M197.28059,191.5268H121.922l10.15155-33.21526a48.27118,48.27118,0,0,0,5.78156,3.79931c22.18732,12.39349,48.49007,3.90716,59.42552-.38955Z"/></g><polygon class="a" points="217.173 210.972 201.505 261.47 197.396 289.466 193.908 296.495 182.794 301.622 125.556 300.015 116.312 297.667 108.038 287.582 110.763 276.09 103.005 202.31 96.775 186.526 104.372 166.512 133.274 158.058 146.237 148.184 145.179 151.558 141.923 158.312 142.749 171.599 148.571 189.359 181.742 158.941 187.112 143.785 195.532 152.287 219.27 164.144 217.173 210.972"/><g class="i"><polygon class="f" points="212.156 197.351 237.946 198.207 199.016 278.428 200.593 227.148 212.156 197.351"/></g><polygon class="j" points="187.592 171.806 195.258 176.307 196.577 168.462 209.09 170.663 203.34 181.122 199.644 195.283 193.482 193.089 189.849 190.176 186.612 185.697 186.015 179.734 187.592 171.806"/><ellipse class="k" cx="125.24552" cy="623.20926" rx="19.99533" ry="125.31799" transform="translate(-501.90887 726.90879) rotate(-88.02558)"/><path class="l" d="M209.69787,553.61941c-.005,1.43972-1.2843,47.03363-1.2843,47.03363l3.48348,32.96132-9.69715,2.091H186.413l-6.66033-1.37316L178.826,627.751l2.984-16.50095.94044-11.21509-5.81243-40.51623,2.41335-1.79947L175.113,550.5738Z"/><path class="l" d="M97.52691,552.55976l1.80435-2.15628,3.73056,2.18106-11.00867,54.3691.84727,15.80659c-.81042,0-11.9813,1.8921-11.9813,1.8921s-4.04494-.15991-5.15-.09936c-13.83621.75816-31.74428,2.51528-42.71511,2.85866l-7.92982-1.48685L20.56867,621.842l2.21771-10.15729,4.83027-4.54779,11.50964-2.67112,2.76828.81171.40529.685L64.165,597.34817,68.86318,548.348l.77935-1.03288Z"/><path class="a" d="M206.06187,453.30326l9.82093,36.23932V551.2283s-4.8244,4.21357-6.17132,4.21357l-30.92491.81436c-.95357,0-7.70225-4.07654-7.70225-4.07654L166.82655,518.931l-4.94636-13.48609-17.2969-98.5317-14.43163,38.27-.30253,25.74516-9.20734,43.62879-2.94738,12.89827L111.612,549.06922l-5.13782,1.07954-4.89864,1.56682-15.85526-.48728-17.29395-2.15908-5.32724-17.74433,8.40109-13.54318,1.31848-28.18595,7.03879-21.8428,3.09766-16.89L80.78381,434.65,95.13,380.69121l-4.00457-4.00457,9.51667-36.55529-3.11277-3.9955,8.89369-12.49057,2.52011-10.39708,4.09039-12.28187,9.36037,3.58281,66.64074,2.88649,5.98949-2.053,3.99172,20.05587,7.16886,11.72953-2.49937,2.1,5.48614,37.11375L203.473,381.278l2.71169,6.27009,1.95111,3.90949-2.86007.68061.7356,6.61012,2.22459,30.54976-3.94465,2.0485"/><g class="m"><polygon class="f" points="138.435 346.765 144.479 409.787 124.978 493.315 126.861 464.279 122.394 439.213 138.435 346.765"/><polygon class="f" points="199.445 436.511 210.672 432.048 208.236 429.298 188.081 434.14 199.445 436.511"/><path class="f" d="M182.65532,379.77l30.73955-6.07081a3.71325,3.71325,0,0,1,4.16594,2.2609v0l-41.04366,11.588Z"/><polygon class="f" points="179.753 343.395 212.886 337.697 212.886 337.697 204.734 343.395 179.753 343.395"/><polygon class="f" points="111.199 574.075 82.087 551.716 93.093 545.964 114.178 548.412 111.199 574.075"/><polygon class="f" points="215.883 551.228 185.556 585.965 178.787 556.256 196.563 554.534 215.883 551.228"/></g><polygon class="a" points="137.09 299.321 137.09 322.601 131.566 322.601 131.566 295.77 137.09 295.77 137.09 299.321"/><polygon class="a" points="116.312 299.755 116.312 323.035 113.453 323.416 113.453 293.242 116.312 292.861 116.312 299.755"/><polygon class="a" points="157.773 299.842 157.773 326.279 163.854 326.279 163.854 296.29 157.773 296.29 157.773 299.842"/><rect class="a" x="182.79412" y="297.03601" width="5.52417" height="26.43711"/><path d="M122.677,174.0744a12.27964,12.27964,0,0,1,2.59744-5.00038,10.76161,10.76161,0,0,1,2.70081-2.62113c.44886-.235.44439-.07457,1.07771-.03465,1.20878.07621,2.41778.153,3.62444.25846a29.16558,29.16558,0,0,1,3.15871.40075,3.46943,3.46943,0,0,1,1.82756.66974l-.20136-.76181c-.548,2.10383-1.083,4.22086-1.48538,6.35784a2.87766,2.87766,0,0,0,.00335,1.89945,11.9808,11.9808,0,0,0,.916,1.49161c2.32115,3.52825,4.83388,6.9457,7.37153,10.32035.43015.572,1.68738,2.93345,2.68117,2.60711a.81725.81725,0,0,0,.57484-.755l.00086-.00974c.08845-1.00366-1.478-.99771-1.566,0l-.00086.00974.57484-.755c.67181-.2206.66865.33144.609.06277-.02188-.09858-.21969-.26213-.2845-.34158-.29385-.36019-.57394-.73208-.855-1.10226-.90488-1.192-1.7918-2.39778-2.67315-3.60726-1.82361-2.50251-3.66431-5.00944-5.33889-7.61545a9.97258,9.97258,0,0,1-.62392-1.03019c-.09986-.20729-.03792-.1115-.03456-.01288-.00129-.03785.16965-.82758.23244-1.14166.36883-1.845.84573-3.6634,1.28706-5.49145.12013-.49758.24069-.8363-.13029-1.28491a4.02086,4.02086,0,0,0-2.16674-.95679,27.3806,27.3806,0,0,0-3.45528-.48129,36.95638,36.95638,0,0,0-4.99054-.35568c-1.22378.05665-2.3727,1.47811-3.165,2.30762a14.51477,14.51477,0,0,0-3.77651,6.55741c-.23479.97949,1.27485,1.39745,1.51.4163Z"/><path d="M137.3534,165.93207c-2.226.87022-4.4352,1.78592-6.63187,2.72739a51.9303,51.9303,0,0,0-9.19476,4.5307c-.823.56984-.041,1.92777.79038,1.35218a51.2542,51.2542,0,0,1,9.0291-4.45962q3.19-1.37059,6.42344-2.64061c.92824-.36287.52434-1.87776-.41629-1.51Z"/><path d="M144.61638,148.24588c-4.30835,2.38744-8.09426,5.92719-11.63917,9.30141-1.87129,1.78118-3.69527,3.6179-5.41693,5.54485a24.46611,24.46611,0,0,0-3.25865,4.21378c-.49109.88117.861,1.67176,1.35218.79038a23.23725,23.23725,0,0,1,3.15907-4.05888c1.6796-1.86738,3.45277-3.65153,5.27164-5.38282,3.45343-3.28713,7.12507-6.73071,11.32224-9.05654.88167-.48857.09271-1.84153-.79038-1.35218Z"/><polygon class="b" points="186.753 141.721 192.681 136.82 202.065 137.133 211.325 128.607 213.122 123.051 210.288 120.234 214.752 103.694 215.133 92.988 206.372 82.525 187.883 73.742 176.036 74.442 161.291 91.339 158.219 91.704 155.648 94.012 151.437 106.306 152.389 109.066 148.352 119.853 149.71 129.352 152.512 139.964 161.541 143.785 186.753 141.721"/><g class="n"><polygon class="o" points="198.713 123.703 198.998 125.447 210.288 120.234 220.463 112.866 206.445 0 158.051 97.673 176.503 78.035 177.323 78.797 185.831 86.703 200.586 93.463 201.977 94.1 199.771 100.274 203.877 109.14 198.713 123.703"/></g><polygon points="194.055 107.614 195.258 103.976 186.155 99.332 183.325 101.23 194.055 107.614"/><polygon points="175.613 92.987 176.367 89.132 167.241 88.608 165.015 90.915 175.613 92.987"/><path d="M161.56436,126.9972a23.28731,23.28731,0,0,1,14.07709,2.92912.78357.78357,0,0,0,.79038-1.35218,24.71041,24.71041,0,0,0-14.86747-3.14292c-.99157.10637-1.00244,1.67351,0,1.566Z"/><path d="M167.89084,95.12259a8.00613,8.00613,0,0,1-2.91658,4.94216l1.30868.34551a4.28246,4.28246,0,0,1,.57468-2.79272A13.29521,13.29521,0,0,1,167.736,96.205c.15758-.22508.31658-.45055.48431-.66823.02543-.033.12593-.13716.13172-.15636q-.175.12861-.3744-.18944-.42243-.02337-.36432-.33511a.43774.43774,0,0,1,.244-.4453l.39519-.1069.29074.07243a.78813.78813,0,0,0-1.07128.2809.80178.80178,0,0,0,.2809,1.07127.89518.89518,0,0,0,1.31632-.45584,1.0079,1.0079,0,0,0-.41983-1.29068c-1.07216-.5786-1.86452.84876-2.35464,1.56114a6.96969,6.96969,0,0,0-1.52181,5.2837.77531.77531,0,0,0,.54687.54687.81862.81862,0,0,0,.76181-.20136,9.37588,9.37588,0,0,0,3.3193-5.63318.80572.80572,0,0,0-.54687-.96317.78954.78954,0,0,0-.96317.54687Z"/><path d="M188.07487,105.36307a8.00613,8.00613,0,0,1-2.91658,4.94216l1.30868.34551a4.28241,4.28241,0,0,1,.57467-2.79271,13.2959,13.2959,0,0,1,.87843-1.41256c.15758-.22509.31658-.45056.48431-.66823.02543-.033.12592-.13717.13172-.15637q-.175.12862-.3744-.18944-.42243-.02337-.36433-.33511a.43777.43777,0,0,1,.244-.4453l.39519-.1069.29075.07243a.78813.78813,0,0,0-1.07128.2809.80179.80179,0,0,0,.2809,1.07128.89519.89519,0,0,0,1.31632-.45585,1.0079,1.0079,0,0,0-.41983-1.29068c-1.07216-.5786-1.86452.84876-2.35464,1.56114a6.96969,6.96969,0,0,0-1.52181,5.2837.77531.77531,0,0,0,.54687.54687.81859.81859,0,0,0,.76181-.20136,9.3759,9.3759,0,0,0,3.3193-5.63318.80572.80572,0,0,0-.54687-.96317.78954.78954,0,0,0-.96317.54687Z"/><path d="M204.28341,128.41392l-4.39091-.27578a.7875.7875,0,0,0-.783.783.80126.80126,0,0,0,.783.783l4.39091.27578a.78749.78749,0,0,0,.783-.783.80125.80125,0,0,0-.783-.783Z"/><path d="M203.54669,125.82537l-4.34573,2.60016a.78312.78312,0,0,0,.79038,1.35218l4.34573-2.60016a.78312.78312,0,1,0-.79038-1.35218Z"/><path d="M210.82987,124.02018c-2.62554-1.44345-5.782.33113-7.79852,2.04139a.78951.78951,0,0,0,0,1.10732.79943.79943,0,0,0,1.10732,0,9.42034,9.42034,0,0,1,3.183-1.85372,4.49218,4.49218,0,0,1,1.49384-.24811,2.54641,2.54641,0,0,1,1.224.30529c.88366.48581,1.67468-.866.79038-1.35217Z"/><path d="M172.9049,99.54013a5.47429,5.47429,0,0,1-.84151,3.65578,20.72532,20.72532,0,0,1-1.95454,3.00849,67.24782,67.24782,0,0,1-4.96657,5.56487c-.69731.72778.40844,1.83673,1.10732,1.10731a65.02585,65.02585,0,0,0,5.47661-6.23505c1.537-2.08028,3.30659-4.81559,2.68873-7.5177-.22455-.982-1.73474-.56638-1.51.4163Z"/><path d="M166.83628,110.10387a4.16011,4.16011,0,0,0-2.49457,3.32428,4.64468,4.64468,0,0,0,1.54421,4.36416,9.82377,9.82377,0,0,0,5.31795,2.72751,10.48045,10.48045,0,0,0,3.26673-.2333,5.92066,5.92066,0,0,0,2.5795-1.03288,2.87528,2.87528,0,0,0,1.16379-2.71649,2.25521,2.25521,0,0,0-2.03047-1.84322c-1.00019-.11066-.99233,1.45618,0,1.566.32843.03634.51555.4544.51142.74061a1.37315,1.37315,0,0,1-.468.904,4.38761,4.38761,0,0,1-2.28462.89357,7.83743,7.83743,0,0,1-2.8672.13062,7.59159,7.59159,0,0,1-2.61361-1.13625c-1.1249-.70456-2.635-1.81122-2.66269-3.28528-.01764-.94049.41955-2.57882,1.45389-2.89322.96157-.29228.55168-1.80427-.4163-1.51Z"/><path d="M193.18476,151.35033c5.06667,7.38826,1.32128,16.78966,1.29073,24.95644l1.33664-.55365c-2.80206-3.31623-7.36174-4.86345-11.44755-5.8605a42.19135,42.19135,0,0,0-9.57418-1.38115.80331.80331,0,0,0-.783.783c-.19592,1.89879-.377,3.79576-.49711,5.7005a5.97728,5.97728,0,0,1-.08893.78311c-.05483.35676-.1213.71217-.17135,1.06959-.02762.19724.30111-.15617-.06994.12446a7.338,7.338,0,0,1-.68339.421c-4.60332,2.73932-9.6125,4.82574-14.43188,7.14673a67.8033,67.8033,0,0,0-7.02278,3.681c-.84815.53911-.06348,1.89491.79038,1.35218,4.53432-2.88212,9.6618-4.91526,14.49154-7.2392,2.34908-1.13032,4.72087-2.25425,6.96312-3.58856a6.88985,6.88985,0,0,0,1.05724-.66837c.42516-.37775.42154-.84386.50832-1.38629.07645-.4778.16271-.9576.20643-1.43986.17993-1.98457.30961-3.97223.51433-5.95633l-.783.783a40.08538,40.08538,0,0,1,8.87087,1.25619c3.93426.93312,8.34429,2.33223,11.04355,5.5268a.79067.79067,0,0,0,1.33664-.55366c.03183-8.50689,3.77954-18.04155-1.50452-25.74682-.56646-.826-1.92414-.04366-1.35218.79038Z"/><path d="M195.243,456.70991q2.71384,5.48172,4.96775,11.17255c.36618.92633,1.88123.52271,1.51-.4163q-2.32315-5.87683-5.12561-11.54663c-.44714-.90318-1.79828-.11072-1.35218.79038Z"/><path d="M194.22275,462.63349l2.17648,8.27189a.78366.78366,0,0,0,1.51-.4163l-2.17648-8.27189a.78366.78366,0,0,0-1.51.4163Z"/><path d="M94.90168,191.99953c2.30388,6.3963,4.66137,12.77316,6.96525,19.16946.339.941,1.85273.53512,1.51-.4163-2.30388-6.3963-4.66137-12.77316-6.96525-19.16945-.339-.941-1.85273-.53513-1.51.41629Z"/><path d="M181.66117,293.94877a89.39032,89.39032,0,0,1-18.63735,6.91806.78367.78367,0,0,0,.4163,1.51,91.25411,91.25411,0,0,0,19.01143-7.07592c.89993-.454.108-1.80545-.79038-1.35218Z"/><path d="M101.86693,210.8186q.38778,2.61289.77642,5.22567c.25537,1.71676.39446,3.50408.77771,5.19795.191.844,1.63116.68048,1.538-.20815a13.1148,13.1148,0,0,0-.70106-2.37505q-.8965-2.8924-1.76022-5.79487a102.17308,102.17308,0,0,1-3.201-12.13925c-.16516-.99181-1.67447-.57112-1.51.4163a100.738,100.738,0,0,0,3.13616,11.92064q.84991,2.86658,1.735,5.72256.275.88908.55324,1.77717c.04263.136.22868.91822.182.4725l1.538-.20815c-.38324-1.69383-.52235-3.48127-.77771-5.19795q-.38865-2.61277-.77642-5.22567c-.14742-.99333-1.65658-.57113-1.51.4163Z"/><path d="M102.59443,217.50025a62.93981,62.93981,0,0,0-1.28211-7.69095c-.47018-2.20635-1.048-4.4176-1.33044-6.65862-.12432-.98649-1.69187-.99893-1.566,0,.6085,4.82818,2.19383,9.48735,2.61255,14.34957.08582.9965,1.65258,1.00559,1.566,0Z"/><path d="M145.26232,404.76375l-2.21362-21.23951-3.52443-33.81653-.80382-7.7126c-.10342-.99232-1.67051-1.00294-1.566,0l2.21362,21.23951,3.52443,33.81654.80382,7.71259c.10343.99233,1.67051,1.00295,1.566,0Z"/><path d="M138.31922,341.5039l-10.77745-2.94074a.78366.78366,0,0,0-.4163,1.51l10.77745,2.94074a.78366.78366,0,0,0,.4163-1.51Z"/><path d="M138.8557,355.03113c-2.76648,4.919-6.22952,9.42033-8.996,14.33934a.78357.78357,0,0,0,1.35217.79038c2.76648-4.919,6.22953-9.42034,8.996-14.33934a.78358.78358,0,0,0-1.35218-.79038Z"/><path d="M140.28681,354.00321a23.29168,23.29168,0,0,0-5.13683-9.40186,21.19361,21.19361,0,0,0-7.60821-6.03819c-.92738-.39056-1.33249,1.1242-.4163,1.51a19.71242,19.71242,0,0,1,6.91719,5.63546,21.57786,21.57786,0,0,1,4.73411,8.71085c.23411.97975,1.74451.56493,1.51-.4163Z"/><path d="M133.984,343.13279c.153.15961.30157.323.4442.492q.10064.11921.19749.24147c.08143.10228-.058-.07783.02071.02661q.04692.06229.093.12521a10.15243,10.15243,0,0,1,.71032,1.11854q.14974.27374.28251.55627.06633.14119.12831.28437c.03143.07279-.02221-.05951.02619.06489.01885.04846.03834.09666.057.14521a10.27164,10.27164,0,0,1,.39135,1.26581.79031.79031,0,0,0,.96317.54687.79936.79936,0,0,0,.54687-.96317,11.01311,11.01311,0,0,0-2.75378-5.01138.79049.79049,0,0,0-1.10731,0,.79856.79856,0,0,0,0,1.10732Z"/><path d="M135.9027,343.73749c.04339.00734.09071.02888.13355.03244.12263.01019-.15251-.09377-.05553-.02144.00966.0072.12787.08186.12912.081-.0354.02545-.14383-.13274-.03208-.01956.07361.07455.14312.15053.21351.228-.15693-.17281-.00876-.009.02322.03791q.04362.06391.08432.12976c.06726.10819.129.21978.1868.33329q.05217.10248.09994.20713c.03419.07463.06485.15107.0156.03025a8.026,8.026,0,0,1,.29184.84833,8.33087,8.33087,0,0,1,.1943.85633c.01208.07049.02267.14115.0334.21185-.03192-.21029.00048.015.00513.0596.01387.13347.0239.26731.02881.40142.00458.12517.005.25048-.0006.37563-.00263.05868-.008.117-.01183.17562q-.00447.0481-.01041.09606.026-.18412.01109-.09289c-.02663.09571-.04431.19566-.07.2921-.049.184.01731-.02367.01548-.02614.00834.01126-.06084.10994-.06916.123a.78311.78311,0,0,0,1.35217.79038,3.03249,3.03249,0,0,0,.35025-1.70591,8.28435,8.28435,0,0,0-.33595-2.03394,6.68951,6.68951,0,0,0-.79064-1.82,2.278,2.278,0,0,0-1.376-1.10032.8062.8062,0,0,0-.96317.54687.78941.78941,0,0,0,.54687.96317Z"/><path d="M135.05538,341.83208a9.66007,9.66007,0,0,1-4.81106-1.96207.78755.78755,0,0,0-1.07128.28089.80277.80277,0,0,0,.2809,1.07128,11.057,11.057,0,0,0,5.60144,2.17588.78528.78528,0,0,0,.783-.783.80482.80482,0,0,0-.783-.783Z"/><path d="M105.00973,328.61283,102.4325,342.862l-4.11544,22.75369-.9549,5.27952c-.17822.98535,1.33067,1.408,1.51.4163l2.57724-14.2492,4.11543-22.75369.9549-5.27952c.17822-.98534-1.33066-1.408-1.51-.4163Z"/><path d="M171.991,341.04781c2.45626,12.366,5.59458,24.57684,7.21377,37.09805.12745.98554,1.69507.99824,1.566,0-1.63759-12.66348-4.78555-25.00794-7.26971-37.51435-.19617-.98761-1.70586-.56956-1.51.4163Z"/><path d="M168.50464,333.21185q3.14213,21.50331,5.87645,43.06547.70576,5.63183,1.35307,11.27078c.11244.98993,1.67971,1.00133,1.566,0-1.64351-14.46972-3.61475-28.90438-5.64645-43.324q-.80541-5.71629-1.639-11.42855c-.14517-.99348-1.65432-.57109-1.51.4163Z"/><path d="M177.27217,385.66814c.06424-.17194-.0406.07431-.01052.02145.0247-.04341.04347-.09127.06654-.13569.04336-.08352.09035-.16516.13916-.2456.12068-.19892.25358-.39031.39061-.57823.07541-.10341.15393-.2044.23018-.30716q.05143-.067-.02945.038l.07589-.09713q.05774-.07356.11592-.14677c.17141-.2159.34516-.42993.51841-.64435a9.82219,9.82219,0,0,0,1.73862-2.58752.78672.78672,0,0,0-.54687-.96316.8042.8042,0,0,0-.96317.54687c-.06423.17194.04061-.07431.01053-.02145-.0247.0434-.04348.09127-.06654.13569-.04337.08352-.09036.16516-.13916.2456-.12068.19891-.25358.39031-.39062.57823-.0754.1034-.15393.2044-.23018.30716q-.05143.067.02945-.038l-.07589.09713q-.05774.07356-.11591.14677c-.17142.2159-.34517.42993-.51842.64435a9.82278,9.82278,0,0,0-1.73862,2.58751.78673.78673,0,0,0,.54687.96317.80419.80419,0,0,0,.96317-.54687Z"/><path d="M176.91234,338.53449c-.18482-.12343-.36282-.25658-.53989-.39077-.06416-.04863-.15359-.1187-.0367-.02771q-.09322-.07257-.1861-.1456-.2027-.15963-.40354-.3216c-.6158-.49567-1.22314-1.00186-1.82795-1.51084q-1.73892-1.4634-3.452-2.95717-.36861-.32019-.73622-.64154a.802.802,0,0,0-1.10732,0,.79029.79029,0,0,0,0,1.10732c1.93565,1.69506,3.8823,3.38274,5.88241,5.00153.52637.426,1.05325.8621,1.617,1.23855a.78311.78311,0,1,0,.79038-1.35217Z"/><path d="M176.91234,338.53449a21.8758,21.8758,0,0,0-5.25907-2.89349,4.60753,4.60753,0,0,0-1.864-.32932l.783.783c-.00587-.0473-.00574-.09573-.01209-.14273-.02314-.17129-.011.03374-.01064.032.0336-.15093-.06492.12719-.03042.06628a.53058.53058,0,0,1-.11168.12276c-.01637.01295-.19264.0929-.12814.07515.118-.03246-.20295-.01679-.06957.00806a.46189.46189,0,0,0,.11855.00214c.1311-.01748-.17654-.04929-.0323-.00381.21193.06682.42229.116.62953.20111-.17015-.06985.01307.00754.04978.02489.06156.02909.1232.05793.18429.088.13984.06888.27777.14161.41436.21672a17.494,17.494,0,0,1,1.60508,1.01193q.35933.25189.708.51858c-.13005-.09977.0243.01934.05193.04141.04913.03926.0984.07834.1472.118q.15348.12478.30279.25448l.76181-1.30867a2.06952,2.06952,0,0,1-.24563-.06857c-.04216-.0144-.08318-.03187-.12519-.04658-.17785-.06225.15.07672-.02952-.01371-.21561-.1086-.43311-.21162-.64584-.32626-.50842-.274-1.00682-.56613-1.51617-.83842-.81439-.43536-2.04779-1.16569-3.00731-.78781a.80667.80667,0,0,0-.54687.96317.78857.78857,0,0,0,.96317.54687c.03316-.01306.06649-.02181.09986-.03349.12029-.04207.00553.00982-.053.0038.07982.00821.29574.02451.09677-.01112a3.5846,3.5846,0,0,1,.62935.17678q.0824.0309.1638.0644c-.10527-.0434.002.00155.04939.02326.117.05359.23337.10841.34871.16557.255.12636.50589.26088.75528.39794a10.36576,10.36576,0,0,0,2.64689,1.29421.80812.80812,0,0,0,.88424-.35983.78936.78936,0,0,0-.12243-.94885,16.77151,16.77151,0,0,0-3.57734-2.42113,3.68786,3.68786,0,0,0-1.76372-.50648,1.21572,1.21572,0,0,0-1.149,1.39992c.04865.39215.32007.82148.783.783.14082-.01171.27709.0015.41741.00178.12764.00025-.1446-.03373.07873.01058.08077.016.16151.031.24178.04957a7.389,7.389,0,0,1,1.0487.33877q.069.02733.13754.05556-.10767-.04635.02086.0089.14037.06075.27933.12466.24741.11353.49092.23538c.37156.18528.737.38268,1.0979.588a29.47075,29.47075,0,0,1,2.51954,1.59581.78945.78945,0,0,0,1.07128-.28089.79986.79986,0,0,0-.2809-1.07128Z"/><path d="M96.23618,377.36192c-.1762-.29916-.33351-.60948-.48313-.92265-.09908-.20739-.19241-.41721-.285-.62753-.0666-.15123.05366.13331-.015-.03486-.01916-.047-.03862-.09378-.05763-.14079q-.06879-.17018-.13354-.34192a9.54335,9.54335,0,0,1-.39729-1.2838c-.02068-.093-.0365-.18664-.05481-.28007-.03241-.16531.01134.16728.001.01578-.00314-.04574-.00951-.09125-.01253-.137-.00557-.08457-.00437-.16818-.00344-.25281.00039-.03551.01864-.15767-.00365-.01-.02378.15759.004-.00334.01166-.03539a.78319.78319,0,1,0-1.51-.4163,4.96325,4.96325,0,0,0,.43765,2.75861A15.70715,15.70715,0,0,0,94.884,378.1523a.78312.78312,0,1,0,1.35218-.79038Z"/><path d="M85.16661,544.65077a12.9396,12.9396,0,0,1-6.71247,2.91422.80732.80732,0,0,0-.783.783.78778.78778,0,0,0,.783.783,14.81736,14.81736,0,0,0,7.81978-3.37289.78916.78916,0,0,0,0-1.10731.79984.79984,0,0,0-1.10731,0Z"/><path d="M105.97417,459.1687,94.53972,475.18912c-.5865.82172.771,1.60459,1.35217.79038l11.43445-16.02043c.5865-.82172-.771-1.60459-1.35217-.79037Z"/><path d="M102.30509,470.53316l-4.864,10.259c-.42945.9058.92022,1.70145,1.35218.79038l4.864-10.259c.42946-.90579-.92022-1.70145-1.35217-.79038Z"/><path d="M139.13441,342.9085c-.4736-11.94539-1.305-23.88364-2.24057-35.80118-.07835-.99808-1.645-1.00652-1.566,0,.93558,11.91754,1.767,23.85579,2.24058,35.80118.03982,1.00434,1.606,1.00945,1.566,0Z"/><path d="M136.24455,341.319c-3.11564-1.50452-3.2824-6.08336-3.60917-9.056a71.74448,71.74448,0,0,1-.26546-12.67676,100.01946,100.01946,0,0,0-.04289-12.47895c-.05672-1.002-1.62307-1.00854-1.566,0q.15375,2.71611.23653,5.43617c.0908,3.01737-.17447,5.94415-.29744,8.95629a72.6726,72.6726,0,0,0,.66546,13.1105c.4222,2.994,1.07106,6.6038,4.08856,8.06092.90352.4363,1.69861-.9136.79038-1.35217Z"/><path d="M190.78454,201.162c-11.68855-.0013-23.37593-.12892-35.06371-.24852a.78346.78346,0,0,0,0,1.566c11.68778.11961,23.37516.24723,35.06371.24853a.78346.78346,0,0,0,0-1.566Z"/><path d="M154.93784,201.69647c-.12031,4.90466-2.97262,9.15286-4.44908,13.69459-.31229.96064,1.1993,1.37218,1.51.4163,1.52873-4.70252,4.38031-9.02683,4.505-14.11089a.78347.78347,0,0,0-1.566,0Z"/><path d="M190.02952,201.73683l-4.44615,12.77833-.62955,1.80936c-.33186.95377,1.1804,1.36369,1.51.4163L190.91,203.96249l.62956-1.80936c.33186-.95377-1.1804-1.36369-1.51-.4163Z"/><path d="M134.39922,298.82007c.5083-5.351,1.0926-10.69834,1.79265-16.0276a80.39448,80.39448,0,0,1,1.507-9.03319q1.0982-4.39234,1.98059-8.82718c3.29783-16.76227,5.40758-33.78975,7.33443-50.75588.89989-7.9236,1.7457-15.85989,2.3403-23.81307.07516-1.00525-1.49118-1.00045-1.566,0-1.18387,15.83505-3.11971,31.64237-5.29648,47.36791-1.14,8.23589-2.37276,16.4659-3.90962,24.63818-1.13245,6.02182-2.76919,11.92028-3.62594,17.991-.86535,6.13166-1.5374,12.2954-2.123,18.45982-.09525,1.00271,1.47135.99617,1.566,0Z"/><path d="M138.30068,201.32438c.335,4.94514-1.457,9.441-4.17687,13.48764-.56372.8387.79227,1.6234,1.35218.79038,2.85933-4.25408,4.74263-9.08284,4.39067-14.278-.06776-1.0001-1.63425-1.00763-1.566,0Z"/><path d="M137.88367,200.76975a116.59578,116.59578,0,0,0-32.13155.42021c-.99311.15055-.57117,1.65974.4163,1.51a115.19818,115.19818,0,0,1,31.71525-.36427c.99715.12618.988-1.441,0-1.566Z"/><path d="M105.78749,201.90667a25.35491,25.35491,0,0,1-2.28792,10.047.80726.80726,0,0,0,.28089,1.07128.78864.78864,0,0,0,1.07128-.2809,27.27547,27.27547,0,0,0,2.50173-10.83738.78347.78347,0,0,0-1.566,0Z"/><path d="M135.43243,214.13821a28.7981,28.7981,0,0,1-3.99664.0556c-2.56758-.0258-5.13487-.08284-7.70189-.14049-5.73281-.12876-11.4654-.29717-17.19927-.3721a34.31007,34.31007,0,0,0-4.85466.04555c-.98488.12957-.99777,1.69725,0,1.566a28.7981,28.7981,0,0,1,3.99664-.05561c2.56757.02581,5.13487.08285,7.70189.1405,5.7328.12875,11.4654.29716,17.19927.3721a34.31156,34.31156,0,0,0,4.85466-.04555c.98487-.12958.99776-1.69725,0-1.566Z"/><g class="p"><path d="M200.18621,559.76114a85.42023,85.42023,0,0,1-19.42053.52529c-1.00393-.08636-.99816,1.48012,0,1.566a87.144,87.144,0,0,0,19.83683-.58123c.99366-.14222.571-1.65136-.4163-1.51Z"/><path d="M200.18621,564.68317a85.42023,85.42023,0,0,1-19.42053.52529c-1.00393-.08636-.99816,1.48012,0,1.566a87.144,87.144,0,0,0,19.83683-.58123c.99366-.14222.571-1.65136-.4163-1.51Z"/><path d="M200.18621,569.6052a85.42023,85.42023,0,0,1-19.42053.52529c-1.00393-.08636-.99816,1.48011,0,1.566a87.144,87.144,0,0,0,19.83683-.58123c.99366-.14222.571-1.65136-.4163-1.51Z"/><path d="M200.18621,589.29332a85.42023,85.42023,0,0,1-19.42053.52529c-1.00393-.08636-.99816,1.48011,0,1.566a87.144,87.144,0,0,0,19.83683-.58123c.99366-.14223.571-1.65136-.4163-1.51Z"/><path d="M200.18621,594.21535a85.42023,85.42023,0,0,1-19.42053.52529c-1.00393-.08636-.99816,1.48011,0,1.566a87.144,87.144,0,0,0,19.83683-.58123c.99366-.14223.571-1.65136-.4163-1.51Z"/><path d="M200.18621,599.13738a85.42023,85.42023,0,0,1-19.42053.52529c-1.00393-.08636-.99816,1.48011,0,1.566a87.144,87.144,0,0,0,19.83683-.58123c.99366-.14223.571-1.65136-.4163-1.51Z"/><path d="M200.18621,604.05941a85.42023,85.42023,0,0,1-19.42053.52529c-1.00393-.08636-.99816,1.48011,0,1.566a87.144,87.144,0,0,0,19.83683-.58123c.99366-.14223.571-1.65136-.4163-1.51Z"/><path d="M200.18621,574.52723a85.42023,85.42023,0,0,1-19.42053.52529c-1.00393-.08636-.99816,1.48011,0,1.566a87.144,87.144,0,0,0,19.83683-.58123c.99366-.14223.571-1.65136-.4163-1.51Z"/><path d="M200.18621,579.44926a85.42023,85.42023,0,0,1-19.42053.52529c-1.00393-.08636-.99816,1.48011,0,1.566a87.144,87.144,0,0,0,19.83683-.58123c.99366-.14223.571-1.65136-.4163-1.51Z"/><path d="M200.18621,584.37129a85.42023,85.42023,0,0,1-19.42053.52529c-1.00393-.08636-.99816,1.48011,0,1.566a87.144,87.144,0,0,0,19.83683-.58123c.99366-.14223.571-1.65136-.4163-1.51Z"/></g><g class="q"><path d="M79.59918,559.04a85.28941,85.28941,0,0,1-19.28637-2.32885c-.97963-.23387-1.39767,1.27575-.4163,1.51a87.21418,87.21418,0,0,0,19.70267,2.38479.78346.78346,0,0,0,0-1.566Z"/><path d="M78.871,563.90782A85.28814,85.28814,0,0,1,59.58462,561.579c-.97964-.23387-1.39768,1.27575-.4163,1.51A87.214,87.214,0,0,0,78.871,565.4738a.78346.78346,0,0,0,0-1.566Z"/><path d="M78.14279,568.77569a85.28927,85.28927,0,0,1-19.28637-2.32885c-.97964-.23387-1.39768,1.27575-.4163,1.51a87.21411,87.21411,0,0,0,19.70267,2.38479.78346.78346,0,0,0,0-1.566Z"/><path d="M75.23,588.24715a85.28943,85.28943,0,0,1-19.28638-2.32885c-.97963-.23388-1.39767,1.27575-.4163,1.51A87.21477,87.21477,0,0,0,75.23,589.81313a.78346.78346,0,0,0,0-1.566Z"/><path d="M74.50181,593.115a85.28871,85.28871,0,0,1-19.28637-2.32885c-.97964-.23387-1.39768,1.27575-.4163,1.51A87.214,87.214,0,0,0,74.50181,594.681a.78346.78346,0,0,0,0-1.566Z"/><path d="M73.77361,597.98288c-6.41952-.07846-12.16285-3.29558-18.28286-4.80157-.97849-.24078-1.39595,1.269-.4163,1.51,6.27249,1.54351,12.11467,4.777,18.69916,4.85751a.78346.78346,0,0,0,0-1.566Z"/><path d="M72.7546,603.0888A85.28943,85.28943,0,0,1,53.46822,600.76c-.97963-.23388-1.39767,1.27575-.41629,1.51a87.21462,87.21462,0,0,0,19.70267,2.38479.78346.78346,0,0,0,0-1.566Z"/><path d="M77.4146,573.64355a85.28829,85.28829,0,0,1-19.28638-2.32885c-.97963-.23387-1.39767,1.27575-.4163,1.51a87.2142,87.2142,0,0,0,19.70268,2.38479.78346.78346,0,0,0,0-1.566Z"/><path d="M76.6864,578.51142A85.28927,85.28927,0,0,1,57.4,576.18257c-.97964-.23388-1.39768,1.27575-.4163,1.51A87.21462,87.21462,0,0,0,76.6864,580.0774a.78346.78346,0,0,0,0-1.566Z"/><path d="M75.9582,583.37928a85.28871,85.28871,0,0,1-19.28637-2.32885c-.97964-.23387-1.39768,1.27575-.4163,1.51a87.21411,87.21411,0,0,0,19.70267,2.38479.78346.78346,0,0,0,0-1.566Z"/></g><path d="M208.29741,619.15445a22.27058,22.27058,0,0,0-26.09551-6.39218c-.9189.4091-.12321,1.75891.79038,1.35218a20.72324,20.72324,0,0,1,24.19782,6.14731c.61985.79334,1.721-.32188,1.10731-1.10731Z"/><path d="M50.24653,620.77871a35.21151,35.21151,0,0,0-1.24793-7.77054,12.99979,12.99979,0,0,0-5.94393-7.27721.78357.78357,0,0,0-.79037,1.35218,11.4287,11.4287,0,0,1,5.32933,6.66619,35.2514,35.2514,0,0,1,1.08692,7.02938c.10035.9931,1.66738,1.00346,1.566,0Z"/><path d="M96.47361,550.608a89.56457,89.56457,0,0,1-20.4963-.622c-.98581-.14508-1.41129,1.36361-.4163,1.51a91.28712,91.28712,0,0,0,20.9126.67789c.99705-.0833,1.00592-1.65,0-1.566Z"/><path d="M67.75022,549.46441l1.65309,2.15908a.86146.86146,0,0,0,.46794.35983.80023.80023,0,0,0,.60334-.07893.79036.79036,0,0,0,.35983-.46794.75664.75664,0,0,0-.07893-.60334L69.1024,548.674a.86146.86146,0,0,0-.46794-.35983.80023.80023,0,0,0-.60334.07893.79036.79036,0,0,0-.35983.46794.75661.75661,0,0,0,.07893.60334Z"/><path d="M75.843,550.3956a3.82754,3.82754,0,0,0-4.23923.76062,8.88107,8.88107,0,0,0-2.16936,4.0775.78319.78319,0,1,0,1.51.4163,7.83516,7.83516,0,0,1,1.59776-3.22674,2.82114,2.82114,0,0,1,1.24366-.74316c.06148-.01724.12339-.033.18582-.04643.0111-.00238.25034-.03991.09157-.02121a2.57567,2.57567,0,0,1,.41241-.01425c.05625.00245.16707.01221.05162-.00327a2.00082,2.00082,0,0,1,.2193.04384c.073.01832.14385.04122.215.06547.15272.052-.06826-.03669.091.04351a.80208.80208,0,0,0,1.07128-.2809.7907.7907,0,0,0-.2809-1.07128Z"/><path d="M196.35529,556.521l-19.57614,2.74378c-.99382.13929-.57093,1.64841.41629,1.51l19.57615-2.74378c.99381-.13929.57092-1.64841-.4163-1.51Z"/><path d="M195.06566,556.15387l-6.77443-.04642-1.72231-.0118a4.68153,4.68153,0,0,0-1.51676.09968,2.73815,2.73815,0,0,0-1.01567.75059q-.618.61783-1.23321,1.23839a.79184.79184,0,0,0,.55366,1.33664,16.74469,16.74469,0,0,0,3.1729-.45093,9.40765,9.40765,0,0,0,2.87425-.77236.79349.79349,0,0,0-.187-1.43111,5.86434,5.86434,0,0,0-2.86566-.40084c-.99105.10831-1.0021,1.67549,0,1.566a4.87193,4.87193,0,0,1,2.44936.3449l-.187-1.43111a8.398,8.398,0,0,1-2.50016.6145,14.52706,14.52706,0,0,1-2.75661.395l.55366,1.33665,1.07905-1.08358c.29558-.29682.45928-.52361.89034-.55113,1.02153-.06522,2.07631.01423,3.10016.02124l6.08551.0417a.78346.78346,0,0,0,0-1.566Z"/><path d="M87.79157,607.32c-2.90433.92716-5.32262,3.5228-6.98554,5.98141a42.717,42.717,0,0,0-4.0126,8.33245c-.3715.93694,1.14236,1.34361,1.51.4163a43.004,43.004,0,0,1,3.59688-7.56781,17.287,17.287,0,0,1,2.68812-3.25039A10.03911,10.03911,0,0,1,88.20787,608.83c.9564-.30532.54762-1.81776-.4163-1.51Z"/><path d="M49.83488,621.5282c-2.23352.28679-4.48063.49054-6.72643.64979a50.06041,50.06041,0,0,1-11.309-.06045c-.98589-.1572-1.41035,1.35154-.4163,1.51a51.07214,51.07214,0,0,0,11.49959.1322c2.32125-.16028,4.64391-.36922,6.95217-.6656.9858-.12658.99843-1.69418,0-1.566Z"/><path d="M99.284,551.44246c-2.36979,1.13588-5.0544.8117-7.559.3871-2.6171-.44367-5.22886-.92129-7.84287-1.38281a.79.79,0,0,0-.7618,1.30868,6.46394,6.46394,0,0,0,5.49151,2.16788c.82247-.08025,1.12927-1.31941.20815-1.538l-7.96836-1.891-.4163,1.51,5.688.89132v-1.51c-2.19692.53806-4.26477-.66294-6.40236-.98016a5.53121,5.53121,0,0,0-4.5054,1.018c-.55659.44857-.06921,1.32341.55366,1.33665,2.41932.05143,4.68435,1.0135,7.08139,1.24541a22.93186,22.93186,0,0,0,7.19609-.83742c.98272-.22148.56682-1.73161-.41629-1.51a19.64057,19.64057,0,0,1-7.41131.6964c-2.17063-.34641-4.23158-1.11317-6.44988-1.16033l.55365,1.33665c1.43706-1.15817,3.47276-.58413,5.06179-.12351a9.74988,9.74988,0,0,0,5.15495.48839c.70994-.17388.78232-1.38746,0-1.51l-5.688-.89132c-.971-.15215-1.41815,1.27229-.4163,1.51l7.96836,1.891.20815-1.538a5.00539,5.00539,0,0,1-4.3842-1.70923l-.76181,1.30868c3.01687.53265,6.03167,1.14132,9.06443,1.5757a12.78911,12.78911,0,0,0,7.54415-.73785c.90841-.43542.11495-1.78612-.79038-1.35218Z"/><path d="M202.74539,552.20864a12.49742,12.49742,0,0,0-4.037.30212c-1.29446.36552-2.56431.8405-3.83952,1.26776-.95072.31854-.54306,1.83147.4163,1.51,1.23-.4121,2.45422-.85971,3.6984-1.22693a11.14928,11.14928,0,0,1,3.76186-.287c1.00745.04718,1.00505-1.51891,0-1.566Z"/><polygon points="135.432 166.944 131.593 165.561 127.509 166.215 125.466 167.749 123.395 170.209 124.944 171.362 136.559 167.194 136.559 167.194 135.432 166.944"/><path d="M168.39327,335.12552c.0928,1.193,1.7287,1.71995,2.65035,2.11124.748.31755,1.504.61511,2.25686.92079q.25605.104.5113.2099l.0999.04173c.11507.04821-.10334-.04412.01.00425q.14379.06141.28711.12392c.28953.127.57748.25835.85873.40289.13474.06925.26823.14124.3982.21915.06054.0363.11935.075.179.11273.101.064.12445.10347.01093-.00023.08626.0788.261.31376.11274.0752.07826.1259.00294-.00626-.01885-.07618.00453.01454.00891.02839.01239.04315a.54066.54066,0,0,1,.0003-.31163.80589.80589,0,0,0,.54687.96317.78951.78951,0,0,0,.96317-.54687c.22311-1.29609-1.49806-1.9-2.43124-2.30226-.7422-.31992-1.49374-.61706-2.24311-.91957q-.25883-.10448-.51706-.21041-.13464-.05539-.269-.1115c-.00743-.0031-.117-.04926-.03837-.016.08822.0373-.085-.03636-.1014-.04345-.30852-.13306-.61579-.26944-.91678-.41891-.27-.13406-.51631-.29835-.77711-.446-.07679-.04347.13125.12776-.01049-.00988a.86751.86751,0,0,0-.10715-.105c-.07037-.04576.10832.17118.03942.04555a.50944.50944,0,0,1,.05936.24425.80262.80262,0,0,0-.783-.783.78928.78928,0,0,0-.783.783Z"/><path d="M183.98019,142.50649l-21.14157,1.99261-9.52709-4.55678.36294,2.15279s1.02247,4.48338,1.86459,7.54167a6.52163,6.52163,0,0,0,3.05167,3.93858h0a6.50665,6.50665,0,0,0,6.244.114Z"/><path class="r" d="M184.23982,141.92655c-2.74618.42989-16.15266,2.48348-18.89884,2.91337"/><polygon class="b" points="248.871 129.729 237.418 108.406 234.627 106.467 219.52 110.268 217.133 112.694 214.84 123.568 229.561 135.255 234.775 136.191 241.121 145.013 256.234 142.11 248.871 129.729"/><polygon class="b" points="235.141 107.049 224.994 95.56 213.775 97.114 214.596 100.294 218.348 101.206 223.346 101.218 226.946 109.42 235.235 109.3 235.141 107.049"/><polygon class="b" points="216.713 126.052 214.274 126.29 213.413 127.17 214.815 129.68 226.31 132.674 233.096 129.73 230.771 124.942 216.713 126.052"/><path d="M230.61517,129.95292a18.59914,18.59914,0,0,0-2.61149-6.25946,7.34368,7.34368,0,0,0-1.90209-2.29543c-.8344-.56982-1.93878-.63332-2.72409-1.27766a.80564.80564,0,0,0-1.10731,0,.789.789,0,0,0,0,1.10732,12.84424,12.84424,0,0,0,2.66891,1.30624,4.83442,4.83442,0,0,1,1.7124,1.94991,17.35931,17.35931,0,0,1,2.45363,5.88538c.19725.98743,1.707.56947,1.51-.4163Z"/><path d="M225.54058,122.11755a.95473.95473,0,0,0-1.3522-.26957c-.14864.09648-.28779.22365-.42753.33414l-.31471.24883-1.25883.99532a.78245.78245,0,0,0-.22934.55366.79675.79675,0,0,0,.22934.55365.78781.78781,0,0,0,.55365.22934l.20815-.028a.78222.78222,0,0,0,.34551-.20137l1.822-1.44059-.15847.12244a.585.585,0,0,1,.09108-.05541l-.187.07893a.48066.48066,0,0,1,.07525-.02462l-.20815.028a.19181.19181,0,0,1,.04764-.00335l-.20815-.028a.1162.1162,0,0,1,.042.01021l-.187-.07893.0179.011-.15847-.12243.01533.01541-.12244-.15847.01236.02014a.78311.78311,0,1,0,1.35217-.79038Z"/><path d="M236.79354,133.2095a8.84635,8.84635,0,0,1-7.28745-3.954c-.54788-.8414-1.90425-.05747-1.35218.79038a10.46946,10.46946,0,0,0,8.63963,4.72956.78345.78345,0,0,0,0-1.566Z"/><path d="M236.87559,134.61188a2.85831,2.85831,0,0,1,.56691.1718l-.187-.07893a6.42657,6.42657,0,0,1,1.15742.68678.78319.78319,0,0,0,1.15021-.88424.88208.88208,0,0,0-.35983-.46793,5.06608,5.06608,0,0,0-1.91137-.93752.84079.84079,0,0,0-.60334.07894.78293.78293,0,0,0-.2809,1.07127.771.771,0,0,0,.46794.35983Z"/><path d="M226.52526,126.51057c-1.61668.459-3.33958,1.5795-4.982,1.15516a.78319.78319,0,1,0-.4163,1.51,5.5879,5.5879,0,0,0,3.03553-.16459c.94122-.28881,1.831-.72141,2.779-.99057a.78319.78319,0,1,0-.4163-1.51Z"/><path class="a" d="M233.90306,140.27121l7.3041,15.06065,2.00943,6.81725L254.0474,202.0713a12.346,12.346,0,0,0,3.16014,4.62114l9.96773,9.14323a12.346,12.346,0,0,0,6.25709,3.07l15.726-1.43456,3.95282-9.69734c-.28586-1.61712,1.25948-7.50336.36959-8.88353l-26.82783-52.508-6.597-2.82284-6.60944-11.05368-14.0606,8.216Z"/><path d="M249.02809,152.49876a30.3621,30.3621,0,0,0-2.04215-6.25061,24.4532,24.4532,0,0,0-1.6458-3.40253,4.25682,4.25682,0,0,0-1.9154-1.93372c-.94076-.3633-1.3481,1.1502-.4163,1.51-.216-.08342.00776.00658.05174.04257.08628.07062-.06717-.07474.08856.07224a3.92915,3.92915,0,0,1,.35694.384,9.22959,9.22959,0,0,1,.66859,1.03144,25.39368,25.39368,0,0,1,1.49732,3.19391,29.52474,29.52474,0,0,1,1.84646,5.76892c.17124.99114,1.68061.571,1.51-.4163Z"/><path d="M201.26942,209.43385a37.68227,37.68227,0,0,1,8.74146-9.51019,33.98438,33.98438,0,0,1,5.52681-3.7202,11.28472,11.28472,0,0,1,4.969-1.55357.78346.78346,0,0,0,0-1.566c-4.12618.05429-8.0768,2.938-11.16911,5.38473a39.16011,39.16011,0,0,0-9.42029,10.17482.78357.78357,0,0,0,1.35217.79038Z"/><path d="M211.40075,197.55913l2.35319,9.58268.33077,1.347c.24022.97821,1.75075.5639,1.51-.4163l-2.35319-9.58268-.33077-1.347c-.24021-.9782-1.75074-.5639-1.51.4163Z"/><path d="M208.68946,208.363a27.112,27.112,0,0,0,2.40743-4.64373,8.40383,8.40383,0,0,1,.59914-1.03163c.09839-.139.44366-.425.44972-.45642-.0144.07467-.315-.04751-.35675-.08593.11425.105.07676.08848.03881.03269.05435.0799.107.16013.156.24354a16.30886,16.30886,0,0,1,1.285,3.31243c.451,1.419.85322,2.85346,1.23568,4.29224.21548.81065.42618,1.62287.62339,2.43819.23682.97908,1.74727.56448,1.51-.4163-.5552-2.29533-1.172-4.58284-1.8915-6.83218a16.06687,16.06687,0,0,0-1.46794-3.68061,1.51528,1.51528,0,0,0-1.14558-.84967,2.20993,2.20993,0,0,0-1.76014,1.16994,16.56773,16.56773,0,0,0-1.41292,2.73965,13.47777,13.47777,0,0,1-1.37761,2.66048.80933.80933,0,0,0,0,1.10731.78762.78762,0,0,0,1.10732,0Z"/><path d="M206.65779,202.88141c.07859-.05369.31083-.12053.06014-.04623.09563-.02834.18858-.06869.28415-.09829.25056-.07759.506-.13969.76146-.19857.694-.16,1.39487-.28961,2.09423-.42349.68-.13017,1.36144-.25726,2.0355-.41607a4.21345,4.21345,0,0,0,1.388-.47957.7836.7836,0,0,0-.79038-1.35218c-.11781.06469.15048-.0222-.00177-.0002-.06373.00921-.12776.03424-.19146.04721-.03149.00641-.2232.0331-.09079.01755-.09366.011-.18793.01749-.28211.02185-.15774.00729-.31341.00333-.47093-.005-.0681-.00359.10525.03642-.05717-.0082-.07469-.02051-.22446-.10368-.0247.00413l.2809,1.07128c.40579-.80258.80083-1.61056,1.20662-2.41315a.78657.78657,0,0,0-1.22975-.94884c-.05313.04812-.10826.09329-.16312.13937.147-.12344-.0223.01641-.044.03217q-.21173.15395-.42918.29956c-.33593.22606-.67791.443-1.0189.66131a13.47467,13.47467,0,0,0-1.82125,1.28074.783.783,0,0,0,1.10732,1.10731c.05313-.04813.10826-.09329.16313-.13938-.147.12345.02229-.0164.044-.03217q.21173-.15393.42918-.29956c.33593-.22606.67791-.443,1.01891-.6613a13.4761,13.4761,0,0,0,1.82124-1.28074l-1.22975-.94885c-.40579.80259-.80082,1.61057-1.20662,2.41315a.7966.7966,0,0,0,.2809,1.07128,2.58478,2.58478,0,0,0,1.34318.22285,3.12025,3.12025,0,0,0,1.35651-.30021l-.79038-1.35218c-.07859.05369-.31083.12053-.06014.04623-.09564.02834-.18859.06869-.28416.09829-.25056.0776-.506.13969-.76145.19857-.694.16-1.39487.28961-2.09423.42349-.68.13017-1.36145.25726-2.0355.41607a4.21329,4.21329,0,0,0-1.388.47957.80267.80267,0,0,0-.2809,1.07128.79025.79025,0,0,0,1.07128.2809Z"/><path d="M101.93772,292.75053a4.28057,4.28057,0,0,0,1.64251-.06032,7.69651,7.69651,0,0,0,1.4761-.54986,4.66159,4.66159,0,0,0,1.21635-.71744,2.54405,2.54405,0,0,0,.68314-1.33575.78319.78319,0,0,0-1.51-.4163c-.01976.08366-.03988.16727-.06381.24985-.01581.05456-.09757.26308-.029.11553-.03613.07775-.08147.14786-.12234.22267.03141-.05749.06353-.06814.003-.00947-.03.029-.06338.057-.09169.08743.04348-.0468.07926-.05362.0071-.007-.03582.02312-.07132.04655-.1079.06849-.07345.044-.14934.084-.22558.123-.18128.09263-.36495.18115-.54958.26686-.09047.042-.18153.08258-.27291.12255-.11612.0508.09908-.03557-.02.00745-.04671.01688-.09255.03665-.139.05422a5.51641,5.51641,0,0,1-.56336.18131c-.09438.02449-.18946.046-.28533.0638-.01491.00277-.16286.02616-.07529.0143.08745-.01185-.06068.0048-.07587.006-.0962.0077-.19261.0111-.28912.0096q-.0726-.00114-.145-.006c-.03075-.00206-.196-.02338-.04606-.001a.80423.80423,0,0,0-.96316.54687.79181.79181,0,0,0,.54687.96317Z"/><path d="M244.85917,173.894c.74224,6.07982,2.90655,12.00185,5.31789,17.5984a71.67823,71.67823,0,0,0,3.90674,7.87355,16.32476,16.32476,0,0,0,3.456,4.5966c.77856.62507,1.89349-.47613,1.10732-1.10731a15.099,15.099,0,0,1-3.21114-4.27967,70.987,70.987,0,0,1-3.77225-7.56292c-2.35388-5.4097-4.51964-11.22973-5.23858-17.11865-.12057-.98761-1.688-.99972-1.566,0Z"/><path d="M214.51312,200.591c8.99513-2.46539,18.14339-3.96547,26.82351-7.50089.921-.37513.51814-1.89064-.4163-1.51-8.68011,3.53542-17.82838,5.03551-26.82351,7.50089a.78366.78366,0,0,0,.4163,1.51Z"/><path d="M196.36882,169.21658A107.9469,107.9469,0,0,0,207.11006,171.16c2.58284.38068,5.27587.56855,7.81492,1.19443.97842.24119,1.39585-1.26857.4163-1.51-2.539-.62588-5.23212-.81372-7.81493-1.19443a107.965,107.965,0,0,1-10.74123-1.94339.78366.78366,0,0,0-.4163,1.51Z"/><path d="M101.25571,174.01227c7.92526-.03227,15.763-1.83511,23.68822-1.86737a.78346.78346,0,0,0,0-1.566c-7.92526.03227-15.763,1.8351-23.68822,1.86737a.78346.78346,0,0,0,0,1.566Z"/><path d="M202.2208,380.61426c-8.46963,1.35847-16.58095,4.0877-24.94089,5.91211-.98414.21477-.56767,1.72477.4163,1.51,8.36-1.82442,16.47118-4.55362,24.94089-5.91211.99239-.15917.57119-1.66842-.4163-1.51Z"/><path d="M205.7895,337.02068c-8.00862,3.8644-17.30977,4.69467-26.037,5.59175-.99268.102-1.00318,1.6691,0,1.566,9.02459-.92765,18.5493-1.81114,26.82737-5.80555.90736-.43783.11411-1.78862-.79038-1.35218Z"/><path d="M198.80768,325.85025c-9.35637,1.33575-18.91167,2.22064-28.04694,4.74129a.78366.78366,0,0,0,.4163,1.51c9.13527-2.52065,18.69058-3.40554,28.04694-4.74129.99368-.14186.571-1.651-.4163-1.51Z"/><path d="M99.628,336.68951c2.0598-2.07069,4.24492-4.01329,6.30467-6.08587a.78344.78344,0,0,0-1.10732-1.10731c-2.05974,2.07258-4.24487,4.01518-6.30467,6.08587a.78344.78344,0,0,0,1.10732,1.10731Z"/><path d="M105.81546,214.92363a58.95825,58.95825,0,0,1,1.36206,10.03045c.09052,1.59192.14367,3.18562.1943,4.77922.043,1.35241-.21048,3.1014.26885,4.3766a4.63851,4.63851,0,0,0,1.59465,1.94346c.96657.68518,2.47074.56664,3.6108.73427,3.01613.44348,6.035.83026,9.06986,1.12529a58.55677,58.55677,0,0,0,10.255.25866,3.76612,3.76612,0,0,0,3.71447-3.09763,111.03277,111.03277,0,0,0,1.42467-12.34562c.40539-4.67721.58662-9.50934,1.66221-14.09443.22994-.98024-1.27961-1.39861-1.51-.4163a77.58355,77.58355,0,0,0-1.39234,10.78c-.36987,4.12374-.66295,8.259-1.17914,12.368-.16114,1.28274-.12041,3.5691-1.0709,4.52455-.94912.95406-2.32995.78154-3.59947.82038-1.62853.04983-3.25889.00723-4.88493-.08935-3.13331-.18612-6.27209-.5274-9.38213-.94956-1.15777-.15715-2.31133-.34353-3.46824-.50664-1.26006-.17766-2.34465-.09547-3.14143-1.21394a4.28479,4.28479,0,0,1-.34645-2.34226c-.02571-.77945-.049-1.559-.07421-2.33844-.05384-1.66389-.11361-3.32793-.21979-4.98943a60.00815,60.00815,0,0,0-1.37776-9.7736c-.228-.98124-1.73825-.56589-1.51.4163Z"/><path d="M155.74287,216.80358q.48921,7.10763.8972,14.2209c.08547,1.51779.167,3.03587.236,4.55451a3.95478,3.95478,0,0,0,1.543,3.20975c1.20972,1.02215,3.17982.84144,4.67825,1.05484,1.982.28228,3.96539.53247,5.95687.73915a92.44051,92.44051,0,0,0,13.23484.64211c1.64955-.0664,2.98892-.01985,4.2535-1.16021a3.80084,3.80084,0,0,0,1.18017-2.50145,157.15156,157.15156,0,0,0,1.52356-16.01477c.24094-3.34139.47428-6.68408.78157-10.02019a48.8654,48.8654,0,0,1,.97488-7.17492c.24048-.97854-1.26927-1.396-1.51-.4163-1.05251,4.28284-1.166,8.88075-1.49463,13.25947-.41584,5.54049-.72427,11.0966-1.33325,16.6205-.17,1.54233-.06071,4.17373-1.33939,5.23441a3.35788,3.35788,0,0,1-2.18433.56569c-1.08177.06382-2.16591.08667-3.24944.08374-2.0887-.00565-4.17623-.11121-6.25871-.26756-3.9381-.29567-7.84089-.80309-11.753-1.327a5.43512,5.43512,0,0,1-2.44992-.51044,2.29971,2.29971,0,0,1-.96416-1.48253c-.195-1.33766-.1319-2.76948-.20589-4.12047q-.41615-7.59791-.951-15.18921c-.06882-.99991-1.63532-1.00753-1.566,0Z"/><path d="M118.97457,284.11427c4.79961,1.79818,10.43987.64606,15.22049-.69079a48.11892,48.11892,0,0,0,14.02824-6.53c.82937-.56256.04668-1.92-.79038-1.35218a46.76964,46.76964,0,0,1-13.23265,6.25214c-4.63981,1.3444-10.13621,2.5616-14.8094.81079-.94487-.354-1.353,1.15912-.4163,1.51Z"/><path d="M91.35374,499.30687a55.31711,55.31711,0,0,1-6.64545,8.04873,52.83464,52.83464,0,0,1-5.32524,3.84072c-1.99928,1.41449-3.93266,2.91993-5.83374,4.46316-.78269.63536.33118,1.73735,1.10731,1.10732,2.7606-2.241,5.62551-4.29344,8.55865-6.29682a24.309,24.309,0,0,0,4.96635-4.53372c1.58284-1.88541,3.05532-3.86475,4.5243-5.839.60195-.809-.75674-1.59063-1.35218-.79038Z"/><path d="M183.12477,398.81378a9.28935,9.28935,0,0,0,3.5147-.322c2.00608-.40124,3.989-.92319,5.96252-1.45917,4.11581-1.11777,8.20039-2.35225,12.27033-3.626q1.40007-.43817,2.79708-.88615c.95517-.30828.54664-1.82083-.41629-1.51-6.498,2.09724-13.059,4.17742-19.72073,5.68985a12.94334,12.94334,0,0,1-3.99131.60343c-.984-.19827-1.405,1.31082-.4163,1.51Z"/><path d="M102.01073,173.43744a.62676.62676,0,0,0,.03744-.09622c-.03737.20342-.04763.10785-.00984.0268.04426-.09492.08864-.18965.13547-.28336.10876-.21763.22471-.43166.34327-.64408.28737-.51488.59142-1.02045.90045-1.52255.5719-.92917,1.16359-1.84624,1.765-2.75657q.194-.29373.39-.58619a.78312.78312,0,0,0-1.35218-.79038c-1.04566,1.55389-2.07627,3.12933-2.99688,4.761a10.67871,10.67871,0,0,0-.72278,1.47528.78952.78952,0,0,0,.54687.96317.80016.80016,0,0,0,.96317-.54687Z"/><path class="s" d="M137.46139,51.02723c0-5.13574,8.51855-7.14062,8.51855-11.08594,0-2.38086-2.06738-3.88379-5.76269-3.88379a15.87876,15.87876,0,0,0-7.95508,2.19239l-1.31543-4.76075a18.84115,18.84115,0,0,1,9.77148-2.56835c6.89063,0,10.71094,3.19531,10.71094,8.51855,0,7.01562-8.64355,8.89453-8.64355,12.27734a5.43416,5.43416,0,0,0,.93945,2.94434h-5.07422A5.98736,5.98736,0,0,1,137.46139,51.02723Zm3.69531,7.95508a3.70057,3.70057,0,0,1,3.88379,3.82129,3.8208,3.8208,0,1,1-3.88379-3.82129Z"/><path class="s" d="M133.90475,91.63465c0-3.42383,5.67969-4.76074,5.67969-7.3916,0-1.58691-1.37793-2.58887-3.8418-2.58887a10.59751,10.59751,0,0,0-5.30469,1.46094l-.87695-3.17383a12.56409,12.56409,0,0,1,6.51562-1.71191c4.59375,0,7.1416,2.12988,7.1416,5.67969,0,4.67773-5.76367,5.93066-5.76367,8.18554a3.62208,3.62208,0,0,0,.627,1.96289h-3.38282A3.99168,3.99168,0,0,1,133.90475,91.63465Zm2.46387,5.30469a2.46688,2.46688,0,0,1,2.58984,2.54687,2.54785,2.54785,0,1,1-2.58984-2.54687Z"/><path class="s" d="M165.17526,58.26844c0-3.4248,5.67968-4.76074,5.67968-7.39258,0-1.58691-1.37793-2.58886-3.84179-2.58886a10.58763,10.58763,0,0,0-5.30469,1.46191l-.87695-3.17383a12.56206,12.56206,0,0,1,6.51562-1.71289c4.59375,0,7.1416,2.12988,7.1416,5.67969,0,4.67773-5.76367,5.93066-5.76367,8.18555a3.61963,3.61963,0,0,0,.62695,1.96289H165.9692A3.98707,3.98707,0,0,1,165.17526,58.26844Zm2.46386,5.30371A2.46766,2.46766,0,0,1,170.229,66.12a2.54786,2.54786,0,1,1-2.58985-2.54785Z"/><path d="M176.30683,389.79715a58.18369,58.18369,0,0,0,4.2614,7.4401,6.9475,6.9475,0,0,0,1.55869,1.744.78957.78957,0,0,0,1.07128-.2809.79972.79972,0,0,0-.2809-1.07128c-.1009-.07155.12228.12366.00236.00081-.0405-.04149-.08759-.07823-.12946-.11851-.09764-.09393-.18926-.19419-.27836-.29619a6.63842,6.63842,0,0,1-.54429-.70174c-.50437-.70892-.9636-1.45-1.40879-2.19713-.84876-1.42434-1.642-2.88212-2.408-4.35242-.16572-.3181-.33069-.63667-.49176-.95716-.45262-.90061-1.804-.10861-1.35217.79038Z"/><path d="M175.646,390.5295l1.94405,15.46924,2.633,20.9512a15.847,15.847,0,0,0,.207,1.64722c.17975.76061,1.00586,1.0631,1.61577,1.48581a16.638,16.638,0,0,1,3.67636,3.25408c.62355.79088,1.72489-.324,1.10732-1.10732a19.60828,19.60828,0,0,0-5.221-4.30653l.3878.67609-4.18767-33.32221-.59664-4.74758c-.124-.98659-1.69153-.999-1.566,0Z"/><path d="M181.08135,406.146l2.663,19.15769.3781,2.72c.13816.99388,1.64727.57089,1.51-.4163l-2.663-19.15769-.3781-2.72c-.13816-.99387-1.64727-.57089-1.51.4163Z"/><path d="M188.28932,434.89512c6.373-1.305,12.75937-2.61035,19.07222-4.1841a.78367.78367,0,0,0-.4163-1.51c-6.31285,1.57375-12.69917,2.87908-19.07222,4.1841-.98659.202-.569,1.71181.4163,1.51Z"/><path class="s" d="M162.07369,199.0536h-.86718l.38086-1.17481h.32617a1.79875,1.79875,0,0,0,.7539-.13086,1.00934,1.00934,0,0,0,.43848-.38964,1.62379,1.62379,0,0,0,.21094-.66114q.05127-.40137.124-1.23144v-.0918a.97362.97362,0,0,0-.085-.43848.589.589,0,0,0-.24805-.25683,1.21749,1.21749,0,0,0-.54785-.08887h-2.32129v-3.31738h1.48145v2.14258h1.0459a2.40265,2.40265,0,0,1,1.60351.4541,1.73918,1.73918,0,0,1,.52539,1.39062l-.00879.26074-.11035,1.24805a2.47858,2.47858,0,0,1-.77051,1.72754A2.9161,2.9161,0,0,1,162.07369,199.0536Z"/><path class="s" d="M167.67526,192.31825l-.50489,2.03711h-1.26172l.86719-2.03711Zm1.9082,0-.51856,2.03711h-1.248l.87207-2.03711Z"/><path class="s" d="M175.92819,199.0536h-1.48145v-3.125a1.51,1.51,0,0,0-.32129-1.01074,1.306,1.306,0,0,0-1.05078-.37891,7.3094,7.3094,0,0,0-.84863.05273q-.44972.05274-1.49121.25l.11914-1.20214a11.159,11.159,0,0,1,2.542-.30274,2.28722,2.28722,0,0,1,2.53223,2.53711Zm-3.61915,0h-1.48632v-3.23047l1.48632-.71973Z"/><path class="s" d="M177.07565,197.85145h2.80761L177.02,193.952l1.35352-.66993,1.83105,2.5a1.81908,1.81908,0,0,0,.24317-.52539,3.033,3.033,0,0,0,.07324-.75879v-1.083h1.459v1.19238a2.45618,2.45618,0,0,1-.24511,1.11328,3.49963,3.49963,0,0,1-.88379,1.0293l.89941,1.27148-.23828,1.03223h-4.71191Z"/><path d="M104.864,439.63583l15.13573,2.62072,2.186.3785c.98564.17066,1.409-1.33816.4163-1.51l-15.13573-2.62072-2.186-.3785c-.98564-.17066-1.409,1.33816-.4163,1.51Z"/><path d="M188.92072,445.4c2.12267-.7112,4.29821-1.238,6.38161-2.0699,2.00589-.80094,4.41667-1.86379,5.27645-4.00686a.78911.78911,0,0,0-.54687-.96317.80092.80092,0,0,0-.96317.54687,4.27147,4.27147,0,0,1-1.71506,1.69269,16.692,16.692,0,0,1-2.98345,1.42043c-1.92416.7258-3.91857,1.21748-5.86581,1.8699-.95072.31855-.54306,1.83148.4163,1.51Z"/><path d="M145.76836,416.70137c.97287,1.54069,2.86235,2.13158,4.56544,2.42424a33.00532,33.00532,0,0,0,7.82155.20047,118.11154,118.11154,0,0,0,16.49907-2.51185c1.26878-.27048,2.537-.549,3.79643-.86082a.78367.78367,0,0,0-.4163-1.51c-3.04488.75395-6.12885,1.37271-9.21626,1.92257-5.35273.95332-10.93909,1.84434-16.3914,1.44337-1.6531-.12157-4.30831-.31777-5.30635-1.89832-.53671-.85-1.89236-.06508-1.35218.79038Z"/><path d="M144.76837,408.13929c.37543,1.45118,1.98891,1.97183,3.30179,2.19641a27.65734,27.65734,0,0,0,6.919.061,138.1804,138.1804,0,0,0,16.737-2.67508c1.82719-.382,3.64818-.79081,5.4693-1.20036.98282-.221.56688-1.73115-.41629-1.51-3.73673.84035-7.47914,1.64854-11.24832,2.33216-5.00333.90748-10.20339,1.85075-15.30947,1.63986-1.02487-.04234-3.639-.08523-3.94295-1.26028a.78366.78366,0,0,0-1.51.4163Z"/><path d="M139.81669,369.55751q-2.60143,10.28087-5.23638,20.55325c-3.09411,12.08051-6.19769,24.15949-9.414,36.20815-1.13118,4.23745-2.22472,8.49663-3.52741,12.6857-.29994.96453,1.21126,1.37708,1.51.4163,2.85682-9.18666,5.10592-18.58924,7.52664-27.89656q4.43778-17.06272,8.77276-34.152.94109-3.69879,1.87842-7.39853a.78366.78366,0,0,0-1.51-.4163Z"/><path d="M121.6109,439.21276c-.7894,8.524-2.16194,17.01382-3.40132,25.48134q-.20289,1.38623-.4084,2.77206c-.14674.98583,1.362,1.41117,1.51.4163,1.09876-7.38185,2.16259-14.77106,3.1124-22.17364.27737-2.16175.55226-4.32563.75326-6.49606.09289-1.00305-1.47367-.99672-1.566,0Z"/><path d="M116.01349,480.97917c-2.11112,11.40651-4.05573,22.84309-6.43833,34.19789-1.23521,5.88668-2.5632,11.76137-4.1799,17.55638A66.84113,66.84113,0,0,1,100.78,545.62191a10.17492,10.17492,0,0,1-2.62818,3.60872,1.69113,1.69113,0,0,1-2.3504-.03047c-.80451-.60712-1.58573.752-.79038,1.35217,5.6843,4.28961,9.757-10.34424,10.68233-13.29532,3.77185-12.0293,6.08394-24.53721,8.38538-36.91345,1.17365-6.31142,2.2765-12.63571,3.4448-18.94809.18233-.98514-1.32659-1.40748-1.51-.4163Z"/><path d="M198.56614,435.50486l1.58222,16.62189.22777,2.39275c.09466.99449,1.66158,1.00435,1.566,0l-1.58222-16.62189-.22776-2.39275c-.09467-.99448-1.66159-1.00434-1.566,0Z"/><path d="M200.40409,454.72765c2.599,13.17257,8.71343,25.51584,9.96231,38.95814a201.40993,201.40993,0,0,1,.39058,20.544l-.20124,21.24872c-.03639,3.84333-.01387,7.69252-.11425,11.53468-.0719,2.75189-.37583,6.16435-2.99059,7.72212a.78357.78357,0,0,0,.79038,1.35217c4.75136-2.83067,3.78028-10.03226,3.82428-14.6791l.2106-22.237c.06845-7.22732.30719-14.48237-.07249-21.70414a78.53663,78.53663,0,0,0-1.20456-10.54119,93.19827,93.19827,0,0,0-2.64957-9.9828c-2.30965-7.5003-4.91312-14.91632-6.43541-22.63191-.19489-.98782-1.70456-.56966-1.51.4163Z"/><path d="M212.90478,171.67122c-3.86794,6.0428-8.395,10.74566-8.24035,17.91869.02744,1.27285.32232,4.51945-.04519,5.73839s-4.89067,1.76791-4.97527-.04518c-.35441-7.59533,3.32883-18.73919,8.49183-24.32113"/><path d="M123.28,411.4194c2.31218.37894,4.63126.71277,6.95461,1.01541a.78691.78691,0,0,0,.783-.783.80294.80294,0,0,0-.783-.783q-3.27667-.42681-6.53831-.95947a.80682.80682,0,0,0-.96317.54687.78925.78925,0,0,0,.54687.96317Z"/><path d="M108.0567,401.22426c8.003,2.33137,16.29253,3.29754,24.53547,4.35772.99672.1282.98736-1.439,0-1.566-8.1058-1.04254-16.24977-2.00931-24.11917-4.30178a.78366.78366,0,0,0-.4163,1.51Z"/><path d="M194.123,183.91823a37.29844,37.29844,0,0,0,5.73558-3.03182c1.84742-1.11705,3.65719-2.296,5.51159-3.40141a.78358.78358,0,0,0-.79038-1.35218c-1.80784,1.07763-3.573,2.22577-5.37253,3.3172a35.80664,35.80664,0,0,1-5.50055,2.95817c-.93006.35966-.52589,1.87439.41629,1.51Z"/><polygon class="j" points="199.082 157.065 210.55 159.789 218.659 163.7 215.441 159.843 203.942 155.725 197.62 156.626 199.082 157.065"/><path d="M196.36882,157.07484c3.81371,1.04009,7.57328,2.31161,11.317,3.5761a98.39437,98.39437,0,0,1,11.18918,4.16961c.90413.4345,1.69937-.91534.79038-1.35218a99.92028,99.92028,0,0,0-11.287-4.234c-3.83441-1.29869-7.68588-2.60391-11.59317-3.66952a.78366.78366,0,0,0-.4163,1.51Z"/><path d="M89.22129,401.70132c.16128,1.22876,1.49594,2.0235,2.44888,2.644a25.09451,25.09451,0,0,0,4.50086,2.16654,53.19682,53.19682,0,0,0,11.73355,2.85538c.98587.14915,1.411-1.35955.4163-1.51a56.49815,56.49815,0,0,1-10.35854-2.34162,30.89709,30.89709,0,0,1-4.59209-1.97051,14.516,14.516,0,0,1-1.43512-.90824,7.55882,7.55882,0,0,1-.73711-.58144c-.10372-.09527-.43332-.526-.41076-.354-.12928-.985-1.697-.99782-1.566,0Z"/><path d="M91.51171,395.161a5.43487,5.43487,0,0,0,2.26867,1.75086c1.02341.47223,2.08142.89884,3.14041,1.28347a70.07826,70.07826,0,0,0,7.35505,2.08007c.97883.23875,1.39647-1.271.4163-1.51-2.25427-.54987-4.51283-1.10085-6.71014-1.85278-.993-.33982-1.96357-.73406-2.93039-1.14156a4.88694,4.88694,0,0,1-2.18773-1.4004c-.57582-.81766-1.93421-.03611-1.35217.79038Z"/><path d="M150.48541,442.42541a6.32359,6.32359,0,0,0,3.59487,6.06239c2.60863,1.3769,5.79457,1.44132,8.675,1.5249a64.28557,64.28557,0,0,0,20.10817-2.65668.78366.78366,0,0,0-.4163-1.51,62.87187,62.87187,0,0,1-17.32052,2.62457,33.33834,33.33834,0,0,1-8.30278-.623c-2.55555-.64156-5.096-2.499-4.77248-5.42213.11069-1.00018-1.45616-.99232-1.566,0Z"/><path d="M82.04125,430.66988a5.36063,5.36063,0,0,0,2.8642,2.28562c1.41329.54543,2.86272.98416,4.27744,1.53465,3.524,1.37122,7.25309,2.1431,10.73679,3.62607.91681.39027,1.71571-.95828.79038-1.35218-3.19843-1.36153-6.57095-2.17084-9.84434-3.31716-1.44228-.50508-2.82844-1.13222-4.28969-1.58366a4.94716,4.94716,0,0,1-3.1826-1.98372.78358.78358,0,0,0-1.35218.79038Z"/><path d="M196.39894,165.27381h16.18541a.78345.78345,0,0,0,0-1.566H196.39894a.78345.78345,0,0,0,0,1.566Z"/><path d="M107.75543,167.81333a4.93409,4.93409,0,0,0,7.85217.14388.78833.78833,0,0,0-.2809-1.07128.80148.80148,0,0,0-1.07128.2809c.07531-.10147-.07148.08435-.07267.0857q-.0767.08716-.1594.16882c-.04569.04513-.0934.088-.14091.13114-.03.02729-.13363.11277-.04972.04731a3.3697,3.3697,0,0,1-.72716.42477c.12869-.05581-.09569.03365-.09938.035q-.10927.03872-.22073.07127-.18617.05447-.37685.09185c-.027.00533-.23619.04045-.09937.02134-.077.01075-.15545.0173-.233.0229q-.21435.01548-.42951.01053a2.4643,2.4643,0,0,1-.71935-.08875q-.20784-.04873-.4103-.1173c-.0731-.02494-.14612-.05111-.21736-.081.1.04191-.02131-.01167-.05943-.03073-.12616-.06307-.25-.12937-.36946-.20456q-.0973-.06125-.1907-.12847c-.10727-.07723.00658.0086-.053-.04256a3.70057,3.70057,0,0,1-.3061-.29134c-.05236-.05651-.10427-.115-.15178-.1757.07825.1-.0537-.08229-.06168-.0941a.80213.80213,0,0,0-1.07128-.28089.79046.79046,0,0,0-.28089,1.07127Z"/><path d="M117.86106,173.04156l4.11209.50909a.78435.78435,0,0,0,.783-.783.80677.80677,0,0,0-.783-.783l-4.11209-.50908a.78434.78434,0,0,0-.783.783.80675.80675,0,0,0,.783.783Z"/><ellipse class="t" cx="212.00163" cy="188.85998" rx="2.99744" ry="1.60516" transform="translate(-71.47797 172.98243) rotate(-38.49024)"/><ellipse class="t" cx="211.40943" cy="192.98273" rx="2.99744" ry="1.60516" transform="translate(-74.17257 173.50967) rotate(-38.49024)"/><ellipse class="t" cx="210.65887" cy="197.36777" rx="2.99744" ry="1.60516" transform="translate(-77.06483 173.99534) rotate(-38.49024)"/><ellipse class="t" cx="209.7979" cy="202.1699" rx="2.99744" ry="1.60516" transform="translate(-80.24066 174.50292) rotate(-38.49024)"/><ellipse class="t" cx="208.56722" cy="206.7994" rx="2.99744" ry="1.60516" transform="translate(-83.38938 174.7429) rotate(-38.49024)"/><ellipse class="t" cx="207.64386" cy="211.24898" rx="2.99744" ry="1.60516" transform="translate(-86.35935 175.13504) rotate(-38.49024)"/><ellipse class="t" cx="207.12724" cy="216.05899" rx="2.99744" ry="1.60516" transform="translate(-89.46526 175.85866) rotate(-38.49024)"/><ellipse class="t" cx="206.29089" cy="220.87117" rx="2.99744" ry="1.60516" transform="translate(-92.642 176.38375) rotate(-38.49024)"/><ellipse class="t" cx="206.15219" cy="226.07715" rx="2.99744" ry="1.60516" transform="translate(-95.91224 177.42861) rotate(-38.49024)"/><ellipse class="t" cx="205.85889" cy="230.77093" rx="2.99744" ry="1.60516" transform="translate(-98.89729 178.26595) rotate(-38.49024)"/><ellipse class="t" cx="205.86361" cy="235.82182" rx="2.99744" ry="1.60516" transform="translate(-102.03985 179.36638) rotate(-38.49024)"/><path class="t" d="M208.49578,239.04517c.21576.92618-.73752,2.348-2.12921,3.17581s-2.69478.748-2.91054-.17817,1.56492-2.74445,2.95661-3.57222S208.28,238.119,208.49578,239.04517Z"/><ellipse class="t" cx="207.03075" cy="244.87635" rx="2.99744" ry="1.60516" transform="translate(-107.42161 182.0602) rotate(-38.49024)"/><ellipse class="t" cx="208.12182" cy="249.19365" rx="2.99744" ry="1.60516" transform="translate(-109.87155 183.67736) rotate(-38.49024)"/><ellipse class="t" cx="209.21142" cy="252.78028" rx="2.99744" ry="1.60516" transform="translate(-111.86704 185.13482) rotate(-38.49024)"/><path class="u" d="M211.09076,186.60764l4.17294-15.493,1.68252.55274a1.55431,1.55431,0,0,1,.56731,1.71065l-4.24234,12.22623Z"/><path class="v" d="M169.615,216.99112s2.82444,42.857,19.50875,43.24873,17.88609-15.83715,17.88609-15.83715"/><path class="v" d="M214.68428,171.01809s8.24644-5.18406,8.57015-5.15838"/><path class="v" d="M214.68428,171.01809s2.98421-6.52726,6.2445-6.52726"/><path d="M210.46493,192.73026a2.90146,2.90146,0,0,1,.16842.27966c.02128.04092.03783.08592.06078.12582-.1185-.206-.03037-.07253-.00557.00459.017.05272.0799.196.05976.24973-.0051.01359-.0153-.2315-.01641-.112-.00015.01558.00237.03169.00317.04727a1.35266,1.35266,0,0,1,.00024.13879c-.002.03992-.0188.175.00215.01527.02132-.16251.00134-.02578-.00752.01186q-.01335.05674-.03155.11225c-.006.01821-.01407.03644-.01923.05479-.02682.09537.03749-.11056.046-.1065a2.13227,2.13227,0,0,1-.1025.19276c-.01811.02921-.03788.05715-.05671.08587-.09433.14385.11949-.13918.02295-.02882a3.03586,3.03586,0,0,1-.335.332c-.02852.02389-.13678.1085-.01742.01655.12756-.09827-.00642.00369-.03284.02273q-.10093.07272-.206.13951a7.04123,7.04123,0,0,1-.78375.42474c-.20995.09934-.42894.18447-.63285.296a.7904.7904,0,0,0-.2809,1.07128.7993.7993,0,0,0,1.07128.2809c.471-.25766.97506-.43666,1.42966-.7291a2.908,2.908,0,0,0,1.4942-2.11708,2.52841,2.52841,0,0,0-.47816-1.59931.78312.78312,0,1,0-1.35218.79038Z"/><path d="M210.82977,187.63711c.03306.05962.06533.11953.09551.18067.013.0263.0864.189.04079.08237-.047-.10981.02768.07841.03576.10216q.02795.08219.05044.16608c.0143.05345.027.10732.03756.16164.0043.02207.006.04622.012.06782.02212.07885-.01238-.09833-.01257-.0968-.01183.09419.01485.20266.01115.29963-.00137.03585-.02284.20969.00038.05914.02229-.14449-.00146.00138-.008.03443a1.9431,1.9431,0,0,1-.07255.264c-.0064.0182-.01395.03613-.02.05445-.03707.113.02947-.07476.03446-.08048a.55151.55151,0,0,0-.05.10355,2.34282,2.34282,0,0,1-.13629.23012c-.0248.037-.05267.072-.07735.10907-.02657.03985.12379-.1475.02762-.03855-.05913.067-.11723.13417-.18.19782-.12014.12178-.26158.22028-.38254.33951.00187-.00184.16612-.12357.06976-.05429l-.04459.03306q-.04437.03258-.08938.06426-.10251.07219-.20793.1401c-.12565.08118-.254.15816-.38377.2325-.21019.12038-.43208.22536-.63433.359a.78312.78312,0,0,0,.79038,1.35218c.18947-.12521.39692-.22421.59425-.33619a7.8607,7.8607,0,0,0,.98344-.66031,3.01611,3.01611,0,0,0,.868-4.15738.7908.7908,0,0,0-1.07128-.2809.7989.7989,0,0,0-.2809,1.07128Z"/><path d="M209.98016,197.473c.06175.10366.11585.20946.16953.31737.06185.12431-.05776-.168.00191.00859.01663.0492.03423.09788.04878.14778q.02077.07127.03654.14385c.00575.02654.00833.05449.01576.0805.02232.07814-.01337-.11817-.01329-.10922.00091.09552.01536.18892.0112.28517-.00181.04184-.012.08585-.01026.12733-.00354-.08432.03267-.19389.00106-.04988a2.26835,2.26835,0,0,1-.06954.23447c-.05216.15563.07578-.14724.018-.04371-.0196.03513-.03593.0722-.05548.10745-.04229.07624-.092.1461-.13966.21885-.06557.10019.135-.15924.02645-.0346-.023.02637-.045.05346-.06832.07956-.05844.06551-.11994.12827-.18378.18852q-.08956.08453-.18483.16274c-.02634.02173-.14987.11852-.0306.02606.11587-.08982-.00411.00176-.03254.02232a6.81181,6.81181,0,0,1-.7904.48372c-.21031.11219-.43133.20936-.63445.33447a.78311.78311,0,1,0,.79038,1.35217c.47327-.2915.98611-.49843,1.43891-.82843a3.22026,3.22026,0,0,0,1.48468-2.28971,2.99452,2.99452,0,0,0-.47789-1.75575.78312.78312,0,0,0-1.35218.79038Z"/><path d="M209.11139,203.02472a2.65625,2.65625,0,0,1,.171.265c.02321.04183.04369.08479.06512.1275.05378.10712-.07277-.19479-.01557-.0323a2.172,2.172,0,0,1,.06207.23706c.0216.0937-.015-.23146-.01216-.06647.0007.04124.0022.082.00006.12328-.00877.169.009-.0902.01559-.08874.0026.00057-.01922.09563-.021.10285-.00849.03379-.01952.06659-.02987.09981-.04846.15546.0863-.17231.02432-.05471a1.99275,1.99275,0,0,1-.10464.18255c-.01735.02591-.03693.05034-.05423.07623.155-.232.07088-.091.01871-.0329a1.47994,1.47994,0,0,1-.33039.30418c-.00983.0055.17978-.13279.08974-.07024-.01579.011-.03109.02279-.04672.034q-.04125.02948-.0833.05783-.10224.06909-.20834.13223a7.19634,7.19634,0,0,1-.796.4024c-.06477.02853-.12985.05633-.19493.08414-.14259.06094.13752-.05792.0784-.033q-.12562.05294-.25118.106c-.08754.03711-.17572.07346-.26046.11669a.78849.78849,0,0,0-.2809,1.07128.80161.80161,0,0,0,1.07128.2809c.0791-.04036.16129-.07434.24288-.10925.10939-.0468-.22695.09569-.08625.03638q.12306-.05188.24607-.10387.096-.04071.19167-.08226a7.27377,7.27377,0,0,0,.84225-.42471,2.73477,2.73477,0,0,0,1.488-2.02093,2.30971,2.30971,0,0,0-.47893-1.51128.84716.84716,0,0,0-.46794-.35983.80023.80023,0,0,0-.60334.07893.792.792,0,0,0-.2809,1.07128Z"/><path d="M208.30827,207.41484c-.15634-.20232-.04874-.06129-.01421-.00983.02537.0378.04966.07636.07251.11573.02408.04149.04477.08444.06711.12683.0671.12732-.06569-.19921-.01645-.03675.02109.0696.03609.1392.05422.20937-.064-.24756-.01878-.17051-.01465-.08276.0019.04057-.00022.08071-.00148.12124-.00478.154.04045-.19725.01258-.091-.00789.03011-.01311.0608-.02173.09082-.00859.02988-.02066.05858-.02964.08825-.0251.083.05158-.12242.05179-.12251a.413.413,0,0,0-.03114.06312c-.03.05666-.06611.10811-.10119.16149-.04717.07179.14911-.17537.047-.0625-.02788.03083-.05479.06234-.08375.09221-.04746.04894-.09743.09542-.14914.13984-.02641.02268-.05424.04372-.0806.06642.21791-.18764.09178-.0701.03127-.02708a4.11232,4.11232,0,0,1-.38909.2429c-.12836.07118-.25973.13685-.3928.19872q-.09831.04572-.1978.08879c-.063.02733-.19811.08145.07449-.03091l-.098.04062c-.26484.10855-.53724.20355-.79569.32688a.787.787,0,0,0-.2809,1.07128.80391.80391,0,0,0,1.07128.2809c.01535-.00733.03214-.01338.047-.0216.11208-.062-.185.076-.11828.04963.04852-.01915.09672-.03919.14524-.05839.11958-.04733.23937-.09416.35833-.143a8.96743,8.96743,0,0,0,1.01291-.47057,2.589,2.589,0,0,0,1.48053-1.93872,2.30347,2.30347,0,0,0-.60246-1.5867.7807.7807,0,0,0-.55366-.22934.79676.79676,0,0,0-.55365.22934.78781.78781,0,0,0-.22934.55365.92266.92266,0,0,0,.22934.55366Z"/><path d="M207.659,211.25581a2.58763,2.58763,0,0,1,.16849.25367c.02289.04.04454.08066.06455.12213.07937.16447-.05217-.15947-.0105-.02418.02326.07553.04175.14992.06025.22663.02088.0866-.02038-.21443-.01672-.12627.00074.01788.00324.03576.00423.05366a1.11763,1.11763,0,0,1,.00038.11806c-.00444.08731-.052.1682.01406-.08132-.00854.03226-.01271.06581-.0213.0982-.00857.03231-.01984.06352-.02981.09536-.04738.15135.08717-.17367.0249-.06055-.03277.05955-.06431.11846-.10289.17465-.08762.12762.05544-.04724.05319-.065.00243.0192-.07168.08473-.08555.09984-.04853.05289-.09991.10317-.15327.15117-.08.072-.25974.1947-.045.04364-.1274.0896-.25485.17674-.38972.255a7.53165,7.53165,0,0,1-.79411.39018c-.13761.05954.17744-.074.07835-.03293l-.10286.04272-.16738.06882c-.14512.05995-.29249.11674-.43322.18665a.78785.78785,0,0,0-.2809,1.07128.80251.80251,0,0,0,1.07128.2809c.035-.0174.07084-.03286.10645-.049.11593-.0525-.19143.07965-.11316.04753l.08318-.03447c.17217-.071.34423-.142.5155-.2152a7.47366,7.47366,0,0,0,.83947-.41145,2.6851,2.6851,0,0,0,1.49214-1.97941,2.22188,2.22188,0,0,0-.47788-1.49072.85342.85342,0,0,0-.46794-.35983.80023.80023,0,0,0-.60334.07893.79146.79146,0,0,0-.2809,1.07128Z"/><path d="M207.19305,216.49418c.08473.10416-.12724-.17645-.01737-.02167q.028.03945.05421.08018c.03769.05884.06984.11964.10183.18164.05681.11013-.07122-.19617-.03559-.08664.01068.03282.02346.06474.03306.098a1.14722,1.14722,0,0,1,.03431.16562l-.028-.20814a1.01523,1.01523,0,0,1-.002.24561l.028-.20815a1.004,1.004,0,0,1-.03356.14715.24632.24632,0,0,0-.02139.06093c.00034.00678.09542-.203.05357-.12738-.007.01261-.01246.02622-.019.03907a1.20273,1.20273,0,0,1-.07291.12313.3572.3572,0,0,0-.04573.06392c-.00426.01273.126-.15486.08709-.11386-.01314.01384-.02466.02947-.03733.04381a2.47364,2.47364,0,0,1-.24268.22987c-.08246.07123.16944-.12541.08026-.06144-.0238.01708-.04714.03478-.07109.05168q-.07282.05139-.14838.09875a5.19488,5.19488,0,0,1-.63714.33557c-.04914.02213-.09875.04316-.14808.06486.29279-.12878.07141-.0303-.00088-.00125-.09483.0381-.19021.07483-.28581.111-.21218.08021-.42491.15794-.63168.25176a.78565.78565,0,0,0-.35983.46794.80016.80016,0,0,0,.07893.60333.79026.79026,0,0,0,.46794.35983.89694.89694,0,0,0,.60333-.07893c.11665-.05292-.21211.086-.12483.05207l.04921-.0198c.04882-.01934.098-.03779.14715-.05629.11857-.04462.23734-.08872.35538-.13475a9.21924,9.21924,0,0,0,1.01976-.454,2.49174,2.49174,0,0,0,1.47856-1.8704,2.17658,2.17658,0,0,0-.602-1.54028.78475.78475,0,0,0-.55365-.22933.79676.79676,0,0,0-.55366.22933.78782.78782,0,0,0-.22933.55365.897.897,0,0,0,.22933.55366Z"/><path d="M206.63537,220.28384a3.232,3.232,0,0,1,.16677.29933.57977.57977,0,0,0,.03818.08283c.0007.001-.05612-.16031-.037-.0852.01367.05374.03864.10577.05457.15919.01335.04476.02537.08991.03552.13551.00851.0382.03266.19675.01258.0463-.01995-.14948-.002.00354-.00026.042.00218.0471.00237.09435.00033.14146-.00171.03961-.01939.18724.00169.0328.021-.15416-.00064-.00954-.00914.02868-.01816.08168-.04739.15766-.07276.237-.01262.03945.09208-.18949.019-.052-.018.03388-.03522.06806-.05436.10132-.0398.06913-.1038.13509-.13652.20657.00006-.00013.1354-.16349.06089-.07985-.01108.01244-.02134.02574-.03214.03843q-.038.04467-.078.0876c-.05752.06178-.118.1208-.18046.17753-.05869.05327-.122.101-.18115.15353-.05922.05256.10665-.08024.09156-.07037-.01869.01222-.036.02751-.0542.04059-.03652.02626-.07281.05278-.10978.07841a6.905,6.905,0,0,1-.78836.463c-.20921.10719-.42845.1998-.63086.31968a.78312.78312,0,0,0,.79038,1.35218c.47644-.28218.99042-.48074,1.44681-.80191a3.10276,3.10276,0,0,0,1.47721-2.227,2.83127,2.83127,0,0,0-.47832-1.69795.78312.78312,0,0,0-1.35218.79038Z"/><path d="M206.63537,226.31083a2.75747,2.75747,0,0,1,.17435.281c.02066.03888.03824.0792.05829.11833.04255.08311-.06371-.17538-.03714-.08776.00828.02733.0203.05408.02928.08123.02569.07765.04017.1559.0581.23535.011.04884-.01481-.22684-.013-.07275.00053.04378.00281.0872.00081.131-.0078.1715.01929-.09385.01349-.06755-.007.03167-.01152.06378-.0192.09535q-.013.05356-.03069.10586c-.00584.01736-.0128.03435-.01864.0517-.03568.106.0832-.17526.04121-.09854-.03336.061-.06283.12283-.10061.18149-.01379.02142-.0407.08072-.06383.09224-.01909.00952.12819-.15641.07924-.10241-.01589.01753-.03.0369-.04543.05489a2.95443,2.95443,0,0,1-.33735.32326c-.08943.076.17906-.13051.04022-.03108-.02848.02039-.05664.04119-.08537.06125q-.09852.06878-.20081.13194a7.07014,7.07014,0,0,1-.7906.415c-.2111.09653-.4309.17889-.63626.28742a.78941.78941,0,0,0-.2809,1.07128.80042.80042,0,0,0,1.07128.28089c.47478-.25091.9811-.42373,1.43959-.71027a2.81776,2.81776,0,0,0,1.48384-2.05769,2.41655,2.41655,0,0,0-.47773-1.56176.78312.78312,0,0,0-1.35218.79038Z"/><path d="M206.22274,230.52119a2.83606,2.83606,0,0,1,.16672.27177c.01477.02788.094.20692.03574.0631-.05476-.13513.00654.021.019.05856.02643.07991.03656.1632.06049.243-.06784-.22636-.01594-.14492-.01144-.05321.002.03993.00216.08.00047.11994-.00083.0194-.00349.03921-.00383.05865-.00176.1015.0129-.11924.01737-.12182a.51175.51175,0,0,0-.02285.11207c-.008.03208-.01738.06383-.0278.09522-.00588.01772-.01442.03522-.01893.05325-.01687.0674.09689-.19767.04072-.09585-.03208.05815-.05945.11813-.0948.17467-.02034.03253-.043.06336-.06414.09529-.05931.08942.147-.1779.02368-.03276a2.86427,2.86427,0,0,1-.33145.32228.25119.25119,0,0,1-.04729.03821.99123.99123,0,0,1,.09822-.07576c-.03332.02341-.06538.04872-.0986.0723q-.09972.07077-.20336.13576a7.05665,7.05665,0,0,1-.78719.4201c-.21053.098-.43.1818-.6346.29191a.78992.78992,0,0,0-.2809,1.07128.79985.79985,0,0,0,1.07128.2809c.47288-.25444.97812-.43055,1.43469-.72014a2.8572,2.8572,0,0,0,1.489-2.08792,2.48374,2.48374,0,0,0-.478-1.58121.78312.78312,0,0,0-1.35218.79038Z"/><path d="M206.22274,235.92177a2.50884,2.50884,0,0,1,.1653.24059c.02257.0379.044.07654.06381.11593.00948.01882.018.03807.0274.05689.057.11383-.06437-.19453-.03287-.0754.019.07177.04077.14262.05885.21481.02321.09271-.02213-.128-.01675-.13047-.00111.00051.00428.04419.00434.05093.00041.04148.00038.08285.00034.12432a.32781.32781,0,0,0-.00393.04854c-.00044-.00051.03884-.2233.0179-.1366-.00748.03094-.0125.0623-.02091.09307-.00838.03063-.01992.06009-.02905.09042-.03.0996.10408-.22122.02652-.067a1.71076,1.71076,0,0,1-.1066.176c-.0844.12723.10656-.12533.04664-.06028-.02569.02789-.04954.05741-.07559.085-.04741.05027-.09746.098-.14937.14355-.02654.02331-.05394.04545-.081.06817-.10351.08705.17747-.12915.04144-.03256a4.53065,4.53065,0,0,1-.39161.25016c-.13346.07554-.27037.1449-.40914.21012q-.09367.044-.18849.08563l-.09159.03973c-.09558.04174.137-.056.11987-.05046-.022.00721-.04421.0185-.06563.02736-.26408.10924-.53625.20443-.79381.32852a.78716.78716,0,0,0-.2809,1.07128.80357.80357,0,0,0,1.07128.2809c.0728-.03508.241-.0982-.06977.0269.04634-.01865.09246-.03783.13884-.05638.117-.04679.23422-.093.35066-.14118a9.07092,9.07092,0,0,0,1.00906-.47024,3.77085,3.77085,0,0,0,.9062-.68346,1.98411,1.98411,0,0,0,.11071-2.71522.86129.86129,0,0,0-.46794-.35983.80019.80019,0,0,0-.60334.07893.79033.79033,0,0,0-.35983.46794.75674.75674,0,0,0,.07893.60334Z"/><path d="M206.22274,240.16005a2.85738,2.85738,0,0,1,.16757.2741c.02106.03986.03728.08481.06058.12334-.12128-.20051-.03233-.08064-.00562.00085.0149.04546.08187.202.06013.24493-.006.01174-.019-.23086-.01614-.11381.0005.0205.0033.04127.00422.06176.0018.04023.00183.08058-.00006.12081-.00477.10192-.05734.14966.01276-.06215-.01025.031-.01243.06714-.02017.0989q-.01186.04863-.02735.09628c-.00588.018-.01306.03573-.0188.05381-.03431.10795.08158-.17287.04073-.095-.0334.06372-.0638.12764-.10238.18867-.01807.02859-.03793.0559-.05668.084-.07722.1157.13775-.16048.02341-.03149a2.99138,2.99138,0,0,1-.33331.32517c-.01571.013-.03232.02506-.04758.03854-.059.05206.11171-.094.09789-.07531a.48388.48388,0,0,1-.09922.07289q-.10034.07133-.20466.13683a7.08227,7.08227,0,0,1-.79141.42272c-.20834.09707-.42538.18031-.62781.2895a.79.79,0,0,0-.2809,1.07128.79977.79977,0,0,0,1.07128.2809c.47659-.25709.98581-.43473,1.44514-.72869a2.8613,2.8613,0,0,0,1.47787-2.07862,2.48841,2.48841,0,0,0-.47731-1.59063.78312.78312,0,0,0-1.35218.79038Z"/><path d="M206.9142,244.79789a2.66044,2.66044,0,0,1,.171.26517c.0232.04186.04369.08485.06512.12758.05374.10716-.07275-.19474-.01558-.03219a2.17191,2.17191,0,0,1,.06207.23722c.02159.09373-.01495-.23143-.01216-.06638.0007.04127.0022.08208.00006.12336-.00876.169.00922-.09013.01559-.08867.00274.00063-.01921.09568-.021.10292-.00849.03381-.01952.06664-.02988.09988-.04843.15553.08628-.17228.02432-.05462a1.99462,1.99462,0,0,1-.10463.18267c-.01736.02593-.03695.05037-.05423.07628.15467-.23191.07092-.091.0187-.03282a1.46527,1.46527,0,0,1-.33039.30438c-.00984.00546.17976-.13281.08974-.0702-.01578.011-.03109.0228-.04672.034q-.04125.0295-.08329.05787-.10224.06913-.20835.13232a7.19728,7.19728,0,0,1-.796.40267q-.09715.04281-.19494.08419c-.06607.02809-.20388.08613.0784-.033q-.1256.053-.25118.106c-.08753.03713-.17572.0735-.26046.11676a.78851.78851,0,0,0-.28089,1.07128.80156.80156,0,0,0,1.07127.2809c.07909-.04038.16125-.07451.24289-.10932.14377-.06129-.18591.07841-.08626.03635q.123-.05193.24608-.10389.096-.04069.19166-.08231a7.27107,7.27107,0,0,0,.84226-.425,2.73616,2.73616,0,0,0,1.488-2.02182,2.31167,2.31167,0,0,0-.47893-1.512.84688.84688,0,0,0-.46794-.35983.80021.80021,0,0,0-.60333.07893.792.792,0,0,0-.2809,1.07128Z"/><path d="M207.90727,248.982a2.80046,2.80046,0,0,1,.16587.26708c.02415.045.04391.09219.06781.13715.03727.07016-.04639-.11566-.04343-.10314.00766.03248.0252.06688.03561.09878.02314.07089.02735.155.05531.22265-.07-.16945-.01831-.18982-.01561-.11605.00074.02.00357.04024.00465.06031a1.2814,1.2814,0,0,1,.00025.1325c-.00823.16505.02785-.05947.015-.07995.00987.01576-.01775.09261-.02213.11032-.009.03621-.021.07124-.03147.107-.04472.15269.07728-.15637.02733-.058-.0318.06264-.06292.12458-.10072.184-.02019.03172-.04453.06147-.064.09351-.041.06751.08955-.1269.07919-.1016a.35958.35958,0,0,1-.05506.06659,2.93046,2.93046,0,0,1-.32976.31648c-.118.10024.14508-.1048.05163-.039-.033.02323-.065.04788-.098.07107q-.09913.06958-.20209.1335a7.08834,7.08834,0,0,1-.79475.41914c-.20893.096-.42646.1782-.6296.28626a.78959.78959,0,0,0-.2809,1.07127.8002.8002,0,0,0,1.07128.2809c.47389-.25207.97947-.426,1.43714-.71343a2.8343,2.8343,0,0,0,1.48726-2.07629,2.43439,2.43439,0,0,0-.4787-1.56142.78312.78312,0,1,0-1.35218.79038Z"/><path d="M208.82349,252.2619a3.16168,3.16168,0,0,1,.165.29.50213.50213,0,0,0,.0379.08029c.00347.0043-.06182-.16407-.03722-.0883.01892.05828.04287.11454.06042.17341q.01932.06483.034.13093c.02233.10092-.02247.14554.00028-.04469-.00978.08174.014.176.01012.26016-.00075.0165-.0035.0338-.003.05027.00335.12151.01372-.12161.0168-.10946a.31191.31191,0,0,1-.021.11212c-.01747.07714-.05747.15315-.07144.2297.03587-.19661.06173-.1394.02-.05615q-.02506.05-.05322.09835-.03228.05546-.06828.10866c-.04639.06879-.14124.13228.027-.02814-.11456.10924-.20878.23779-.32832.34424q-.04341.03866-.0881.07582c-.02833.02355-.14185.11234-.02463.02188.12091-.09332.001-.00185-.02708.01852q-.05358.03884-.1083.07611a6.90838,6.90838,0,0,1-.792.457c-.20984.10554-.4295.19649-.63273.3146a.78312.78312,0,0,0,.79038,1.35218c.47355-.27523.98347-.46842,1.43829-.781a3.05022,3.05022,0,0,0,1.4856-2.20131,2.76721,2.76721,0,0,0-.47819-1.67564.78311.78311,0,1,0-1.35217.79037Z"/><path d="M151.24379,216.38219c11.45569,1.5381,22.94523,1.1189,34.46505.93347a.78346.78346,0,0,0,0-1.566c-11.51982.18543-23.00935.60463-34.46505-.93346-.99552-.13367-.98569,1.43363,0,1.566Z"/></svg>