<svg xmlns="http://www.w3.org/2000/svg" xmlns:xlink="http://www.w3.org/1999/xlink" viewBox="0 0 222.66742 222.66748"><defs><style>.a{fill:#cab192;}.b{fill:#747c58;}.c{fill:#ededed;}.d{fill:#cecece;}.e,.g{fill:#c9b092;}.f,.j,.r,.t,.z{fill:none;}.f,.g,.j{stroke:#000;}.f,.j,.r,.s,.t{stroke-linecap:round;}.f,.g,.j,.r,.y,.z{stroke-miterlimit:10;}.f{stroke-width:0.19233px;}.g{stroke-width:0.25671px;}.h{fill:#080808;}.i{fill:#54593e;}.j{stroke-width:0.38466px;}.k{fill:#27421d;}.l{clip-path:url(#a);}.m{fill:#271d1d;}.n{clip-path:url(#b);}.o{fill:#707171;}.p{clip-path:url(#c);}.q{fill:#525222;}.r,.s,.t{stroke:#27421d;stroke-width:0.76932px;}.s{fill:#284220;}.s,.t{stroke-linejoin:round;}.u,.y{fill:#231f20;}.v{clip-path:url(#d);}.w{clip-path:url(#e);}.x{clip-path:url(#f);}.y,.z{stroke:#231f20;stroke-width:2.43244px;}</style><clipPath id="a"><polygon class="a" points="162.081 87.374 161.872 80.005 162.94 78.376 165.749 76.545 167.719 71.479 165.186 69.509 163.941 58.814 154.644 55.719 145.486 58.533 143.822 69.506 142.392 70.892 143.489 76.228 144.609 76.939 144.646 79.922 146.898 82.736 146.753 88.987 143.516 93.171 146.893 104.688 153.929 107.784 163.216 97.652 167.719 90.898 162.081 87.374"/></clipPath><clipPath id="b"><polygon class="b" points="175.946 116.233 175.597 141.982 170.726 143.935 158.235 142.991 142.875 141.797 142.126 140.636 142.875 138.088 135.438 111.993 130.067 103.41 132.476 95.293 143.561 89.905 146.924 86.273 147.141 88.434 146.902 92.188 152.849 102.296 162.214 89.56 162.346 86.767 162.294 85.766 161.903 82.891 165.392 86.313 181.165 92.361 182.57 108.305 175.946 116.233"/></clipPath><clipPath id="c"><path class="b" d="M176.24557,149.284c-.01634-.0503-.06926-3.04358-.12031-3.02977l-1.54643.70062c-.012.00324-.90774-.03939-.92-.04073l-32.18635-3.51662c-.04266-.00466-.0835,2.98326-.1012,3.02237l-.9443,2.08712-.00435.01142-1.12891,3.62808h37.88151Z"/></clipPath><clipPath id="d"><polygon class="a" points="66.729 90.279 66.52 82.91 67.587 81.281 70.397 79.45 72.367 74.384 69.834 72.414 68.588 61.719 59.292 58.624 50.134 61.438 48.47 72.411 47.039 73.797 48.136 79.133 49.257 79.844 49.294 82.827 51.545 85.641 51.401 91.892 48.164 96.076 51.541 107.593 58.577 110.689 67.864 100.557 72.367 93.803 66.729 90.279"/></clipPath><clipPath id="e"><polygon class="b" points="80.491 119.104 80.142 144.853 75.271 146.806 62.779 145.862 47.42 144.668 46.671 143.507 47.42 140.959 39.982 114.864 34.612 106.281 37.021 98.164 48.106 92.776 51.469 89.144 51.686 91.305 51.446 95.059 57.394 105.167 66.759 92.431 66.891 89.638 66.838 88.637 66.447 85.762 69.937 89.184 85.71 95.232 87.115 111.176 80.491 119.104"/></clipPath><clipPath id="f"><path class="b" d="M80.89321,152.189c-.01634-.0503-.06925-3.04358-.12031-3.02977l-1.54643.70062c-.012.00324-.90774-.03939-.92-.04073l-32.18634-3.51662c-.04267-.00466-.0835,2.98326-.10121,3.02237l-.9443,2.08712-.00435.01141-1.12891,3.62809H81.82283Z"/></clipPath></defs><circle class="c" cx="111.3338" cy="111.33374" r="108.83362" transform="translate(-46.11593 111.33378) rotate(-45)"/><path class="d" d="M111.3338,5c58.48352,0,106.33362,47.8501,106.33362,106.3335v.00048c0,58.4834-47.8501,106.3335-106.33362,106.3335h-.00018C52.85013,217.66748,5,169.81738,5,111.334v-.00048C5,52.8501,52.85013,5,111.33362,5h.00018m0-5A111.205,111.205,0,0,0,32.7,189.96729,111.20493,111.20493,0,1,0,189.96747,32.7002,110.54189,110.54189,0,0,0,111.3338,0Z"/><path class="e" d="M30.07522,159.52032c-1.30521-1.34985.11491-3.96149.11491-3.96149l-.08068-2.99616.9816-2.4387.26473-2.39317c6.208-2.62043,6.05025-.0285,6.05025-.0285l-.365,1.89177-.09253.97708,1.507.79957,1.8877,1.69669s.61637.82356.4509,1.2985a21.34087,21.34087,0,0,0,.45755,3.75157s1.54617,3.04394-.79495,3.3945a8.94824,8.94824,0,0,0-3.81565,1.48132s-3.38492,1.17914-3.832.89281A38.82658,38.82658,0,0,1,30.07522,159.52032Z"/><path class="f" d="M31.55674,159.93848s.37042,2.22355-1.76587,1.65691l-.88716-1.071"/><path class="f" d="M29.11453,160.72308s.37042,2.22355-1.76588,1.6569l-.88715-1.071"/><path class="f" d="M24.21115,162.195s.37042,2.22355-1.76588,1.65691l-.88715-1.071"/><path class="f" d="M26.57179,161.71182s.37042,2.22355-1.76588,1.65691l-.88715-1.071"/><path class="e" d="M126.805,72.46633a21.341,21.341,0,0,0-2.01078,3.20006c-.05242.5002-.9607.9831-.9607.9831l-2.43033.73188-1.704.08211-.33214.92354-.47489,1.86722s-.96043,2.41258-5.46275-2.60092l.779-2.27826.14972-2.62458,1.34824-2.67688s-.17349-2.96771,1.58212-3.63366"/><path class="g" d="M123.3307,73.901l1.24665-1.3858s-1.17638-2.03111-.964-2.25854.63769-2.05668,1.54187-.97818a12.38131,12.38131,0,0,1,1.61887,3.24926"/><path class="g" d="M117.10474,66.43886s.24675-2.10748,1.71381-1.9997.84034.80741.84034.80741-.54118.08414-.6689.48629-.56564,1.37064-.56564,1.37064-.20337.60186-.33376.56363-.62616.53526-.7783.10191A6.79394,6.79394,0,0,1,117.10474,66.43886Z"/><path class="g" d="M119.76613,65.07191s1.14264-.37574,1.44337-.11452a2.50066,2.50066,0,0,1,.45767,1.072l-1.23636.80417s-.6023,1.526-.66971,1.85787-.27.9982-.4026.9314-.1913.26952-.75843.13022a1.44467,1.44467,0,0,1-.84763-.683l.33815-1.4029,1.1261-2.23584Z"/><path class="g" d="M121.66717,66.02939s1.30579-.34779,1.37608-.15722,1.01943.81495.71938,1.21262a6.69674,6.69674,0,0,1-1.61058,1.019,10.55259,10.55259,0,0,0-.69624,1.5144c.06488.06926-.69358.82144-.69358.82144l-.90622-.02194-.57388-.57719.479-1.149.66971-1.85787Z"/><path class="g" d="M123.6936,67.233s1.135-.48205,1.62036.271a4.955,4.955,0,0,1,.84333,2.61712,2.89426,2.89426,0,0,0-.23451.79572l-.89744-1.91546s-.30073-.26123-.40362-.057-.4793.8196-.4793.8196l-.18247.16421-1.01762.766s-1.05182.56982-1.326.322-1.051-.49032-.44087-1.00743a2.94325,2.94325,0,0,0,.74439-1.63508Z"/><path class="e" d="M184.38134,70.71905a21.34091,21.34091,0,0,1,2.01079,3.20006c.05242.50021.9607.9831.9607.9831l2.43033.73189,1.704.08211.33213.92353.4749,1.86722s.96043,2.41258,5.46275-2.60092l-.779-2.27825-.14972-2.62458L195.48,68.32633s.17349-2.96772-1.58212-3.63367"/><path class="g" d="M187.85564,72.1537,186.609,70.7679s1.17638-2.03111.964-2.25854-.63768-2.05667-1.54186-.97817a12.38146,12.38146,0,0,0-1.61888,3.24925"/><path class="g" d="M194.0816,64.69159s-.24676-2.10749-1.71381-1.99971-.84035.80741-.84035.80741.54118.08414.66891.48629.56564,1.37064.56564,1.37064.20337.60186.33376.56363.62616.53526.77829.10192A6.79433,6.79433,0,0,0,194.0816,64.69159Z"/><path class="g" d="M191.4202,63.32464s-1.14263-.37575-1.44336-.11452a2.50067,2.50067,0,0,0-.45768,1.072l1.23636.80416s.60231,1.526.66972,1.85787.27.9982.4026.9314.19129.26952.75843.13022a1.44471,1.44471,0,0,0,.84763-.683l-.33815-1.4029L191.96964,63.684Z"/><path class="g" d="M189.51916,64.28212s-1.30578-.3478-1.37607-.15723-1.01943.815-.71938,1.21263a6.69661,6.69661,0,0,0,1.61057,1.019,10.55224,10.55224,0,0,1,.69625,1.51441c-.06488.06926.69357.82143.69357.82143l.90622-.02194.57389-.57718-.479-1.14905-.66972-1.85787Z"/><path class="g" d="M187.49273,65.48568s-1.135-.482-1.62035.271a4.955,4.955,0,0,0-.84333,2.61712,2.89406,2.89406,0,0,1,.2345.79572L186.161,67.254s.30073-.26123.40362-.05694.4793.81959.4793.81959l.18247.16421,1.01761.766s1.05183.56981,1.326.322,1.051-.49032.44086-1.00743a2.94325,2.94325,0,0,1-.74438-1.63508Z"/><polygon class="b" points="145.322 99.761 142.342 97.723 137.381 94.137 105.011 99.898 101.111 103.75 102.86 108.718 132.624 111.734 143.995 104.267 145.322 99.761"/><polygon class="b" points="120.512 79.182 118.636 84.684 119.253 87.446 113.931 103.057 106.968 110.128 100.754 106.729 100.045 104.724 99.967 102.582 108.596 82.709 111.638 81.429 113.249 76.705 118.642 79.571 120.512 79.182"/><path d="M111.87391,98.88918a12.986,12.986,0,0,1,1.38917,3.22193.19249.19249,0,0,0,.37092-.10226,13.37928,13.37928,0,0,0-1.42794-3.31382.19248.19248,0,0,0-.33215.19415Z"/><path d="M116.41333,84.08016c.00245-.05066.0067-.10116.01183-.15161.00363-.03578.008-.07148.01234-.10717a.22868.22868,0,0,1,.00465-.03429c.02456-.17015.0535-.33963.0852-.50858q.11541-.615.276-1.2206a8.81485,8.81485,0,0,1,.37942-1.16967,2.91657,2.91657,0,0,1,.20062-.3917q.0231-.03633.048-.07142c.03378-.04778-.02582.03464.02978-.03375a.42251.42251,0,0,1,.04855-.047c-.06657.059-.00687.00725.01551-.00477.36786-.19762.04067-.75781-.32738-.56009a1.504,1.504,0,0,0-.5622.75181,8.78741,8.78741,0,0,0-.433,1.26239,10.8944,10.8944,0,0,0-.43785,2.28643c-.0202.41726.62849.41621.64864,0Z"/><path class="h" d="M129.46489,101.88711a8.81413,8.81413,0,0,1-2.34437,6.82909c-.25281.26521.14917.66848.40261.40261a9.37107,9.37107,0,0,0,2.51114-7.2317c-.02888-.36282-.5985-.36592-.56938,0Z"/><path class="h" d="M129.8689,97.99066c-.19864,2.35273-.37762,4.70707-.57626,7.05979-.03512.41592.61372.41358.64863,0,.19865-2.35272.37763-4.70706.57627-7.05979.03512-.41592-.61372-.41358-.64864,0Z"/><path class="h" d="M128.72715,107.08371c.57222-1.59647.74548-3.29577,1.25258-4.90811.12553-.39913-.50046-.5699-.62547-.17244-.5071,1.61234-.68036,3.31165-1.25258,4.90811-.1411.39365.48542.56315.62547.17244Z"/><polygon class="i" points="127.647 108.359 126.301 111.504 104.284 108.782 106.673 104.861 107.665 104.006 106.323 107.984 112.421 99.894 109.789 107.866 115.862 104.503 114.289 108.9 123.21 109.786 127.647 108.359"/><path class="h" d="M129.38764,104.77615c-.92845,1.89783-1.92711,3.76067-2.85556,5.65851l.59278.24991c.87163-3.13637,2.09682-6.1678,2.96845-9.30417a.3246.3246,0,0,0-.62547-.17244c-.87163,3.13637-2.09682,6.1678-2.96845,9.30417-.09584.34485.42757.58759.59277.24991.92845-1.89784,1.92711-3.76068,2.85556-5.65851.18274-.37355-.37647-.70271-.56008-.32738Z"/><path d="M111.84765,98.7921a28.516,28.516,0,0,1-.62231,3.739,9.80118,9.80118,0,0,1-1.319,3.47445c-.14413.2018.18934.39409.33214.19415a10.08482,10.08482,0,0,0,1.35777-3.56634,29.29624,29.29624,0,0,0,.63606-3.84122c.02407-.2462-.36075-.24453-.38467,0Z"/><path class="j" d="M116.4991,102.94476s-2.44532,4.68895-4.66047,6.39452"/><path class="j" d="M136.185,102.78752a15.52589,15.52589,0,0,1-2.41566,4.811"/><polygon class="b" points="167.156 97.429 170.136 95.39 175.097 91.805 207.467 97.566 211.367 101.418 209.618 106.385 179.854 109.402 168.483 101.935 167.156 97.429"/><polygon class="b" points="190.782 76.73 192.694 82.22 192.095 84.986 197.52 100.562 204.529 107.588 210.72 104.148 211.416 102.138 211.48 99.995 202.721 80.179 199.671 78.92 198.03 74.207 192.655 77.107 190.782 76.73"/><path d="M200.27184,96.3625a13.37968,13.37968,0,0,0-1.428,3.31382.1925.1925,0,0,0,.37093.10226,12.98592,12.98592,0,0,1,1.38916-3.22193.19247.19247,0,0,0-.33214-.19415Z"/><path d="M195.56174,81.59973a10.88828,10.88828,0,0,0-.4521-2.28321,8.83073,8.83073,0,0,0-.44464-1.26845,1.49587,1.49587,0,0,0-.5626-.74055c-.36881-.19492-.697.36475-.32738.56008.023.01217.0813.063.01516.00364a.52985.52985,0,0,1,.04844.04608c.00959.0111.07557.09381.02975.03192.01683.02274.03262.0464.048.07014a2.77789,2.77789,0,0,1,.21924.42562,9.23082,9.23082,0,0,1,.37363,1.13476q.16605.60879.286,1.22921c.03232.16683.061.33416.08719.50206.00237.01516.01481.10545.00518.03279q.00618.04659.01144.0933c.006.05411.01108.10825.01407.16261.02279.41513.67158.4178.64864,0Z"/><path class="h" d="M182.44363,99.55458a9.37106,9.37106,0,0,0,2.51113,7.2317c.25334.26576.65554-.13728.40261-.40261a8.81411,8.81411,0,0,1-2.34436-6.82909c.02907-.36531-.54046-.36341-.56938,0Z"/><path class="h" d="M184.37622,104.57874c-.57222-1.59646-.74548-3.29577-1.25258-4.90811-.12481-.39682-.75121-.22736-.62547.17244.5071,1.61234.68036,3.31164,1.25258,4.90811.13982.39008.76681.22189.62547-.17244Z"/><polygon class="i" points="184.831 106.027 186.177 109.171 208.194 106.449 205.805 102.528 204.813 101.674 206.155 105.651 200.057 97.561 202.688 105.534 196.616 102.171 198.189 106.567 189.268 107.454 184.831 106.027"/><path class="h" d="M182.53018,102.771c.92845,1.89784,1.92711,3.76068,2.85556,5.65851.16356.33434.68962.09857.59277-.2499-.87163-3.13638-2.09683-6.16781-2.96846-9.30418a.3246.3246,0,0,0-.62547.17244c.87164,3.13637,2.09683,6.1678,2.96846,9.30417l.59278-.24991c-.92845-1.89784-1.92711-3.76067-2.85556-5.65851-.18342-.37492-.743-.04653-.56008.32738Z"/><path d="M200.24558,96.45958a29.29443,29.29443,0,0,0,.63606,3.84121,10.08545,10.08545,0,0,0,1.35776,3.56634c.14266.19973.47642.00785.33215-.19415a9.8023,9.8023,0,0,1-1.319-3.47445,28.51591,28.51591,0,0,1-.62232-3.739c-.02387-.24414-.40878-.24661-.38466,0Z"/><path class="j" d="M195.97879,100.61223s2.44532,4.689,4.66047,6.39452"/><path class="j" d="M194.64139,101.47435a15.52578,15.52578,0,0,0,2.41566,4.811"/><path class="k" d="M179.57,124.47041a26.0297,26.0297,0,0,0-1.96251-16.3169c-.15835-.33559-.65594-.04306-.49822.29122a25.364,25.364,0,0,1,1.90435,15.8723c-.07407.36247.482.51751.55638.15338Z"/><polygon class="a" points="162.081 87.374 161.872 80.005 162.94 78.376 165.749 76.545 167.719 71.479 165.186 69.509 163.941 58.814 154.644 55.719 145.486 58.533 143.822 69.506 142.392 70.892 143.489 76.228 144.609 76.939 144.646 79.922 146.898 82.736 146.753 88.987 143.516 93.171 146.893 104.688 153.929 107.784 163.216 97.652 167.719 90.898 162.081 87.374"/><g class="l"><polygon class="m" points="163.223 74.286 167.733 62.443 137.16 29.202 144.517 73.538 145.587 65.541 146.44 63.488 147.342 59.854 153.62 61.108 160.76 60.117 161.608 63.472 163.173 65.846 162.947 72.454 163.223 74.286"/></g><polygon points="160.027 67.084 160.098 65.646 156.338 64.877 155.503 65.848 160.027 67.084"/><polygon points="151.312 66.183 151.163 64.716 147.825 65.522 147.277 66.593 151.312 66.183"/><path d="M156.34977,75.5051a8.63138,8.63138,0,0,1-5.22675.85048c-.419-.06491-.59949.57622-.17691.64169a9.39828,9.39828,0,0,0,5.73953-.91756c.38127-.19531.045-.76969-.33587-.57461Z"/><path d="M160.22626,81.75128l-5.259,3.30216-4.28058.0098-3.07375-1.89787,2.43339,5.17926a2.93584,2.93584,0,0,0,1.334,1.49458h0a2.93586,2.93586,0,0,0,1.39188.35092h.14517a2.93581,2.93581,0,0,0,1.89108-.69019l1.08615-.91465a2.93582,2.93582,0,0,0,.68135-.83082l2.4273-4.41327Z"/><path d="M161.23965,80.35927c-1.43455,1.18968-2.85479,2.39674-4.28255,3.59454q-.43625.366-.87368.73055c-.33025.27387.1432.7428.471.471,1.43455-1.18968,2.85479-2.39674,4.28255-3.59455q.43625-.366.87368-.73054c.33025-.27388-.1432-.7428-.471-.471Z"/><path d="M149.20816,66.51851A2.981,2.981,0,0,1,149.208,68.647l.55663-.147a1.27538,1.27538,0,0,1-.24072-.42319,1.92289,1.92289,0,0,1-.09777-.55865,4.95436,4.95436,0,0,1,.01391-.62362c.00771-.09983.01741-.19951.028-.29907.001-.00958.01655-.10468.00647-.05866-.00878.04008.00993-.02329.00938-.029q.00883-.02835-.00054-.00083-.03255.11221-.2128,0-.1782.08109-.21766-.03565a.23715.23715,0,0,1,.05861-.27416l.147-.08564.05664-.00975a.33536.33536,0,0,0-.333.333.34038.34038,0,0,0,.333.333.38233.38233,0,0,0,.37039-.49567.41671.41671,0,0,0-.49981-.30633c-.41751.106-.39459.66627-.41719,1.00434a2.63463,2.63463,0,0,0,.52514,2.00085.33685.33685,0,0,0,.55662-.147,3.56957,3.56957,0,0,0,.00019-2.48262.34235.34235,0,0,0-.40967-.2326.33567.33567,0,0,0-.2326.40967Z"/><path d="M157.58378,66.28352a2.981,2.981,0,0,1-.00019,2.12849l.55662-.147a1.27535,1.27535,0,0,1-.24071-.42319,1.92255,1.92255,0,0,1-.09777-.55864,4.95243,4.95243,0,0,1,.0139-.62362c.00772-.09984.01741-.19951.028-.29908.001-.00958.01654-.10468.00646-.05866-.00878.04009.00994-.02328.00938-.029q.00885-.02833-.00054-.00082-.03253.11222-.2128,0-.17819.08109-.21766-.03566a.23715.23715,0,0,1,.05861-.27415l.147-.08565.05665-.00974a.33535.33535,0,0,0-.333.333.34037.34037,0,0,0,.333.333.38231.38231,0,0,0,.37038-.49566.4167.4167,0,0,0-.49981-.30634c-.41751.106-.39459.66628-.41718,1.00434a2.63462,2.63462,0,0,0,.52513,2.00085.33685.33685,0,0,0,.55663-.147,3.56965,3.56965,0,0,0,.00019-2.48261.34235.34235,0,0,0-.40967-.23261.33565.33565,0,0,0-.2326.40967Z"/><path d="M165.302,73.10692l-1.47328.74833a.33532.33532,0,0,0-.11947.45565.341.341,0,0,0,.45565.11947l1.47327-.74832a.33534.33534,0,0,0,.11948-.45566.341.341,0,0,0-.45565-.11947Z"/><path d="M164.55787,72.41943l-.91008,1.67022a.33309.33309,0,0,0,.57513.33617l.91008-1.67021a.33309.33309,0,0,0-.57513-.33618Z"/><path d="M166.96288,71.59717a4.12722,4.12722,0,0,0-2.3793.80767.34354.34354,0,0,0-.11948.45565.33539.33539,0,0,0,.45566.11948,3.50053,3.50053,0,0,1,2.04312-.71673.333.333,0,0,0,0-.66607Z"/><polygon points="142.323 151.54 176.084 147.585 176.236 139.595 142.811 139.566 142.323 151.54"/><polygon class="b" points="175.946 116.233 175.597 141.982 170.726 143.935 158.235 142.991 142.875 141.797 142.126 140.636 142.875 138.088 135.438 111.993 130.067 103.41 132.476 95.293 143.561 89.905 146.924 86.273 147.141 88.434 146.902 92.188 152.849 102.296 162.214 89.56 162.346 86.767 162.294 85.766 161.903 82.891 165.392 86.313 181.165 92.361 182.57 108.305 175.946 116.233"/><g class="n"><polyline class="i" points="142.392 143.398 145.138 138.447 136.307 113.716"/></g><polygon class="i" points="175.319 142.094 174.984 127.779 174.987 117.839 175.627 118.027 175.796 141.948 175.319 142.094"/><path d="M137.98907,112.53116a22.28682,22.28682,0,0,1,.51056,3.74579c.03469.60121.05461,1.20316.07376,1.805a5.8307,5.8307,0,0,0,.0903,1.62938c.29293.8231.9853.88833,1.729.994,1.131.16066,2.25931.31669,3.39624.43215a23.23719,23.23719,0,0,0,3.99115.129,1.44824,1.44824,0,0,0,1.44763-.9572,25.52547,25.52547,0,0,0,.55941-4.6139,39.47136,39.47136,0,0,1,.64458-5.52652c.0842-.36126-.472-.51545-.55638-.15339-.66105,2.83633-.60257,5.834-.9685,8.71559-.06343.49947-.049,1.342-.42946,1.70883-.35264.34-.93888.27129-1.40071.2834-.62649.01643-1.2536-.0031-1.87888-.04289-1.20832-.07689-2.41976-.20892-3.6184-.37917-.40492-.05752-.80886-.12171-1.214-.17761-.43842-.06048-.89737-.07034-1.11619-.52633a2.77835,2.77835,0,0,1-.08155-.97c-.00933-.28958-.01791-.57917-.02761-.86874-.02-.59882-.04315-1.19762-.08288-1.79551a22.52721,22.52721,0,0,0-.51164-3.58521c-.08356-.36165-.64-.20857-.55638.15338Z"/><path d="M159.08665,111.76792q.25139,1.97148.48257,3.9455c.11377.9698.225,1.94.32191,2.9117a1.46431,1.46431,0,0,0,1.07336,1.37537,13.1345,13.1345,0,0,0,1.65219.12715c.63275.05522,1.26592.09611,1.90027.12777,1.32275.066,2.64933.10591,3.97308.04507.92552-.04253,2.12925.07174,2.75019-.74954a4.54769,4.54769,0,0,0,.39312-2.24661,59.11482,59.11482,0,0,1,.41207-7.05682c.06781-.36294-.48816-.5185-.55638-.15339a34.15209,34.15209,0,0,0-.34637,5.21273c-.02867.92821-.05816,1.85853-.14842,2.78321a2.35712,2.35712,0,0,1-.2505,1.15676c-.33048.4432-1.01053.39134-1.51094.43094a40.99041,40.99041,0,0,1-6.79519-.14289,4.42749,4.42749,0,0,1-1.5339-.1795c-.423-.23617-.42766-.66-.47171-1.08481-.08845-.85311-.18584-1.7053-.28578-2.55714q-.2316-1.97388-.48257-3.9455c-.04633-.36332-.62391-.36794-.577,0Z"/><polygon class="b" points="153.285 142.591 153.285 151.335 151.21 151.335 151.21 141.257 153.285 141.257 153.285 142.591"/><polygon class="b" points="146.933 142.591 146.933 151.335 144.859 151.335 144.859 141.257 146.933 141.257 146.933 142.591"/><polygon class="b" points="162.621 141.359 162.621 151.289 164.905 151.289 164.905 140.025 162.621 140.025 162.621 141.359"/><rect class="b" x="172.504" y="139.56643" width="2.07482" height="9.9295"/><path d="M141.72321,99.056a4.70981,4.70981,0,0,1,2.02429-2.62569,9.31775,9.31775,0,0,1,2.58132-.87784l-.3961-.16119a10.82839,10.82839,0,0,1,.89566,2.75458c.09111.50051.7725.90735,1.12893,1.211.76673.65323,1.54381,1.29436,2.302,1.95763.33475.29286.66907.588.98526.901.10567.1046.2099.2108.30759.323.01915.022.06011.09549.0832.10625a.62758.62758,0,0,1,.03346.05655q-.08826-.17215.11359-.34518c-.37.2538-.01952.862.35406.60572.48446-.33233.00084-.83589-.27249-1.11819-.53021-.54762-1.12046-1.04049-1.69939-1.535-.64446-.55049-1.29783-1.09054-1.94008-1.64362-.20774-.17891-.417-.3575-.61388-.54846-.035-.034-.13924-.15041-.12725-.12961.00334.00579.03721.11935.045.03661a1.35594,1.35594,0,0,0-.03842-.32477,10.373,10.373,0,0,0-.95151-2.66157.3563.3563,0,0,0-.3961-.16118,9.04544,9.04544,0,0,0-2.97007,1.0779,5.60131,5.60131,0,0,0-2.12548,2.91557c-.15721.42385.52055.60677.67643.18649Z"/><path d="M146.79183,97.09888a14.25552,14.25552,0,0,0-2.734.321,17.9407,17.9407,0,0,0-2.6121.84875c-.41513.16373-.2343.84239.18648.67644a18.21306,18.21306,0,0,1,2.53389-.83079,13.20521,13.20521,0,0,1,2.62569-.31389c.45043-.01308.4523-.71463,0-.70149Z"/><path d="M144.93189,88.5069a11.82758,11.82758,0,0,0-3.16379,6.05754,22.88842,22.88842,0,0,0-.67659,3.99007c-.03209.45048.66954.44846.70149,0a21.778,21.778,0,0,1,.62467-3.69693,11.28651,11.28651,0,0,1,3.01024-5.85465c.33888-.29964-.15878-.79424-.496-.496Z"/><path d="M176.94058,118.53074a9.84744,9.84744,0,0,0-1.966-3.13535,4.96369,4.96369,0,0,0-2.85353-1.43587.32065.32065,0,0,0-.3805.216.31118.31118,0,0,0,.216.3805,4.44191,4.44191,0,0,1,2.62184,1.31848,9.53508,9.53508,0,0,1,1.828,2.96845.31161.31161,0,0,0,.42321.111.317.317,0,0,0,.111-.42322Z"/><path class="h" d="M132.3759,107.65946a9.52727,9.52727,0,0,1,3.47444,6.99312c.0117.39537.62752.397.61577,0a10.12745,10.12745,0,0,0-3.6548-7.42853c-.30139-.25356-.73915.17987-.43541.43541Z"/><path class="h" d="M174.71648,115.70014c-.65545,1.10337-1.02679,2.34928-1.68224,3.45265a.30955.30955,0,0,0,.53418.31224c.65545-1.10337,1.02679-2.34928,1.68224-3.45265a.30955.30955,0,0,0-.53418-.31224Z"/><path class="h" d="M176.94058,118.53074a3.1069,3.1069,0,0,0-1.94772-1.31864.85967.85967,0,0,0-.79919.26476,4.39923,4.39923,0,0,0-.6409.80169,8.94835,8.94835,0,0,0-.51853.87424c-.1819.35341.35173.66673.53418.31224a8.95979,8.95979,0,0,1,.507-.857,5.07528,5.07528,0,0,1,.3372-.46069c.05434-.0646.11067-.12771.17068-.18712.02331-.02308.04747-.04514.07149-.06745q.023-.0205.04681-.04-.0362.02729.006-.0033c.02517-.01671.051-.03125.07707-.04634-.039.02254.0189-.00809.01963-.00447q-.07414.00678-.02408.00416.03765.003-.00108-.00253c.03194.00862.06763.01139.10008.01842a2.26718,2.26718,0,0,1,.5419.19737,2.44939,2.44939,0,0,1,.98528.82685c.2126.33534.7482.02533.53418-.31225Z"/><path class="h" d="M175.939,117.13346a1.08212,1.08212,0,0,0-.75617-.21006c-.10887-.00053-.21826.00153-.32671-.00967-.02738-.00282-.07007-.01767.02732.004-.013-.0029-.02652-.00441-.03961-.00711a.63312.63312,0,0,1-.06246-.016l-.03507-.01243c.08768.02768.0559.02479.03034.01088-.01034-.00563-.02-.01213-.03005-.01831-.04-.02471.06329.05255.02639.01946l-.43744.43745c.192.156.43252.37131.70269.2647a.32937.32937,0,0,0,.18486-.14215.30708.30708,0,0,0,.03118-.23835l-.27948-.791-.517.301.64808.77832a.31051.31051,0,0,0,.43745,0,.31772.31772,0,0,0,0-.43745l-.64809-.77832a.31038.31038,0,0,0-.37484-.04837.31382.31382,0,0,0-.14215.34932l.27948.791.216-.38051a.15133.15133,0,0,1-.02847.00965l.05325-.00722c-.05189.00444.075.01852.02321.00353-.05473-.01585.06636.03674.01424.00729-.01505-.00851-.03-.01657-.04456-.0259-.01322-.00846-.02965-.02658-.044-.03058l.03382.02634-.02822-.02266c-.02684-.02184-.05323-.04423-.08009-.06605a.334.334,0,0,0-.21872-.0906.30933.30933,0,0,0-.21872.52805,1.08207,1.08207,0,0,0,.75617.21006c.10886.00053.21826-.00153.32671.00967.02737.00283.07007.01768-.02732-.004.013.00291.02652.00441.03961.00712a.63379.63379,0,0,1,.06246.016l.03506.01243c-.08768-.02767-.0559-.02479-.03033-.01087.01034.00562.02.01212.03.0183.04.02472-.06328-.05255-.02639-.01946a.30932.30932,0,0,0,.43745-.43745Z"/><path class="h" d="M172.20637,139.33507c-.80789.44336-1.56539.97078-2.37378,1.41274a27.95672,27.95672,0,0,1-4.35465,1.79049c-.42438.146-.242.82384.18649.67643a29.39877,29.39877,0,0,0,4.47486-1.83543c.82591-.44747,1.59753-.98653,2.42114-1.43851.39587-.21725.04232-.82324-.35406-.60572Z"/><path d="M171.37385,104.63542q-7.1097.98448-14.26566,1.55131c-.4471.03506-.45088.73684,0,.70149q7.24983-.56846,14.45215-1.57636c.44522-.06165.25572-.73767-.18649-.67644Z"/><path d="M156.80775,106.56961c-.71288,1.45249-.57548,3.07579-.93019,4.61732-.10111.43938.57508.62695.67643.18648.33738-1.46619.18326-3.072.85947-4.44974.19818-.40379-.40661-.75973-.60571-.35406Z"/><path d="M171.254,105.146a14.979,14.979,0,0,1-.0815,5.73032c-.09227.44047.58378.62878.67644.18649a15.89915,15.89915,0,0,0,.08149-6.1033c-.08023-.44355-.7564-.25563-.67643.18649Z"/><path d="M171.47953,110.71337l-1.40522.30007a.35326.35326,0,0,0-.245.43145.359.359,0,0,0,.43146.245l1.40523-.30007a.35324.35324,0,0,0,.245-.43145.359.359,0,0,0-.43146-.245Z"/><path class="h" d="M152.1178,141.96744a16.71579,16.71579,0,0,1,1.00549-4.29731,20.002,20.002,0,0,0,.55677-4.50941c.11123-3.00066.10977-6.00578.09255-9.008-.03579-6.24388-.20927-12.48536-.2969-18.72845a.351.351,0,0,0-.70148,0c.08762,6.24309.2611,12.48457.2969,18.72845.01721,3.00224.01868,6.00736-.09256,9.008a19.18648,19.18648,0,0,1-.66717,4.80124,14.12416,14.12416,0,0,0-.89509,4.00548.351.351,0,0,0,.70149,0Z"/><path d="M149.89329,107.30589a7.94728,7.94728,0,0,1-1.10958,5.0651c-.218.39565.38755.75.60572.35406a8.70864,8.70864,0,0,0,1.18029-5.60565c-.06954-.4447-.7456-.25587-.67643.18649Z"/><path d="M149.79007,106.98691a44.03633,44.03633,0,0,0-12.02411,1.212c-.43852.10631-.25282.78293.18649.67644a43.31654,43.31654,0,0,1,11.83762-1.1869c.45147.01691.45076-.68461,0-.70149Z"/><path d="M137.7355,108.50263a9.62674,9.62674,0,0,1-.53914,3.89256c-.15182.426.52572.6094.67644.18648a10.15061,10.15061,0,0,0,.56419-4.079c-.03018-.448-.73189-.45139-.70149,0Z"/><path d="M149.22055,112.08193a31.4559,31.4559,0,0,1-4.41521.3499c-2.126.139-4.25333.26358-6.37792.424a13.50139,13.50139,0,0,0-1.84856.18519c-.44084.09625-.25429.77267.18648.67643a31.4559,31.4559,0,0,1,4.41521-.3499c2.126-.139,4.25334-.26358,6.37792-.424a13.503,13.503,0,0,0,1.84856-.18518c.44085-.09626.25429-.77268-.18648-.67644Z"/><line class="o" x1="147.12908" y1="97.47746" x2="144.16399" y2="98.01198"/><path d="M146.42327,95.26714a5.36578,5.36578,0,0,0-4.74217,2.70137l.04941.5606,4.66294-1.19977.62442.16881Z"/><path d="M166.16747,94.75678c-1.00719.04323-2.00983.16372-3.01185.2691-.49613.05218-.9925.10309-1.48986.14215-.23216.01824-.46469.03477-.69738.04452-.05063.00212-.10117.00416-.15185.0046l.04946.05394q.01853-.06375.04035-.12645c.04958-.15167.10176-.30255.15264-.4538l-.689-.09324a1.08483,1.08483,0,0,0,.3543.97128.7148.7148,0,0,0,.9827-.17155.69564.69564,0,0,0-.21509-.96782.50032.50032,0,0,0-.72648.50747c.02092.81772,1.125.68548,1.64335.56107.33353-.08.66037-.18545.99341-.26743a1.65314,1.65314,0,0,1,.77984-.07331.351.351,0,0,0,.18648-.67643,9.4714,9.4714,0,0,0-2.59831-.07674c-.45141-.01857-.45056.683,0,.70149a8.909,8.909,0,0,1,2.41183.05168l.18648-.67643a2.98392,2.98392,0,0,0-1.50788.168c-.25694.07143-.513.14823-.774.20383a2.00322,2.00322,0,0,1-.34471.04995c-.053.00191-.11261-.01035-.16393-.00317l-.00607-.00221q-.13077-.07537-.14316.10911h-.35405c.103.0471.03306-.01293.033-.04175-.00016-.11718-.03931-.24224-.03621-.367a.35245.35245,0,0,0-.689-.09324,2.01907,2.01907,0,0,0-.21508.923.60635.60635,0,0,0,.61154.48893,11.27768,11.27768,0,0,0,1.72991-.12262c1.21812-.12011,2.43485-.28288,3.65855-.3354.44971-.01931.45212-.7209,0-.70149Z"/><path class="b" d="M176.24557,149.284c-.01634-.0503-.06926-3.04358-.12031-3.02977l-1.54643.70062c-.012.00324-.90774-.03939-.92-.04073l-32.18635-3.51662c-.04266-.00466-.0835,2.98326-.1012,3.02237l-.9443,2.08712-.00435.01142-1.12891,3.62808h37.88151Z"/><g class="p"><rect class="i" x="125.23859" y="136.99247" width="17.54693" height="16.46863"/></g><path class="b" d="M177.10482,174.92136h0a.09925.09925,0,0,0,.17034.0938l.02352-.02761.00017-.03628A.09924.09924,0,0,0,177.10482,174.92136Z"/><path d="M152.45249,151.74125c.52572-2.0158,1.13885-4.0064,1.77046-5.99111.13722-.43119-.53982-.61576-.67643-.18648-.63162,1.98471-1.24474,3.97531-1.77046,5.9911a.351.351,0,0,0,.67643.18649Z"/><path d="M150.33864,151.82826c.27523-1.14575.47247-2.29258.81924-3.423a13.50254,13.50254,0,0,1,.62941-1.72324c.14791-.31915.36768-.79528.641-.92988.405-.19946.04991-.80468-.35405-.60572a2.2041,2.2041,0,0,0-.839,1.06828,13.29774,13.29774,0,0,0-.68709,1.79044c-.38081,1.19964-.593,2.41755-.88588,3.63661-.10539.43874.57087.62595.67643.18649Z"/><path class="h" d="M131.98018,107.316a8.83853,8.83853,0,0,1,2.21657,3.28.33268.33268,0,0,0,.39778.22585.32582.32582,0,0,0,.22585-.39778,9.55439,9.55439,0,0,0-2.38289-3.56537c-.30352-.28439-.7618.172-.45731.45731Z"/><path d="M132.893,97.11872c2.97665-.01212,5.92041-.68925,8.89705-.70137a.28867.28867,0,0,0,0-.577c-2.97664.01212-5.9204.68924-8.89705.70136a.28867.28867,0,0,0,0,.577Z"/><path d="M133.17124,96.90692a.20248.20248,0,0,0,.01406-.03614c-.01048.07063-.018.04063-.00313.00873.01662-.03565.03329-.07123.05088-.10643.04085-.08173.0844-.16212.12893-.24191.10793-.19338.22213-.38327.3382-.57185.2148-.349.437-.69343.6629-1.03534q.07288-.11032.1465-.22017a.28854.28854,0,1,0-.49822-.29122c-.39274.58363-.77982,1.17535-1.1256,1.78818a4.00162,4.00162,0,0,0-.2709.55276.2909.2909,0,0,0,.2015.35488.2948.2948,0,0,0,.35488-.20149Z"/><path d="M168.22182,91.69663l5.00891,1.199c.33221.07952.474-.43247.14119-.51212l-5.00892-1.199c-.3322-.07952-.474.43247-.14118.51212Z"/><polygon class="q" points="165.375 95.233 168.757 96.518 168.265 93.977 173.135 94.598 171.728 98.108 171.463 103.599 169.028 103.268 167.468 102.478 165.932 101.081 165.253 98.935 165.375 95.233"/><path d="M174.26054,94.53975c-.95534,2.51971-2.00256,3.9543-1.39208,6.579a10.45562,10.45562,0,0,1,.42631,2.11277c-.041.47641-1.66123,1.02731-1.83227.3674-.71651-2.76449-.49782-6.64073.96912-9.091"/><path d="M168.56677,99.83525A13.98262,13.98262,0,0,0,170.44,98.27346c.59168-.55227,1.16485-1.12432,1.76017-1.67266.27371-.25211-.13512-.65934-.408-.408-.58251.53653-1.14363,1.096-1.722,1.637a13.36014,13.36014,0,0,1-1.79458,1.50724c-.31047.2013-.02158.701.29122.49822Z"/><polygon class="q" points="169.194 89.18 172.664 90.19 175.726 91.263 174.534 89.353 169.989 88.727 168.079 88.721 169.194 89.18"/><path d="M165.14434,86.561c2.16581,2.68234,2.76752,6.61242,3.08074,9.945l.59876-.248c-2.16244-2.10244-5.35318-1.84577-8.08819-2.53042a.35646.35646,0,0,0-.3961.16118,12.53814,12.53814,0,0,0-.96545,4.74l.444-.33821a4.45664,4.45664,0,0,0-3.32894,1.07951c-1.13439.7964-2.126,1.76793-3.21268,2.62387-.35439.27916.14505.7725.496.496.92587-.7293,1.77611-1.55032,2.71948-2.25832.85489-.64161,2.00651-1.49208,3.13963-1.26466a.35692.35692,0,0,0,.444-.33822,11.64371,11.64371,0,0,1,.86967-4.386l-.3961.16119c2.57757.64524,5.74245.37031,7.77865,2.35.20132.19573.62847.0681.59876-.248-.33337-3.547-.98442-7.59028-3.2862-10.441-.28365-.3513-.77724.14775-.496.496Z"/><path d="M168.19908,93.91771a40.54485,40.54485,0,0,0,4.0343.72992c.97008.143,1.98156.21354,2.9352.44861.3605.08887.51431-.46741.15339-.55638-.95364-.23507-1.96513-.30562-2.93521-.44862a40.55038,40.55038,0,0,1-4.03429-.72991.28874.28874,0,0,0-.15339.55638Z"/><path d="M167.12874,88.99889c1.43239.39064,2.84445.86821,4.25053,1.34314a36.96776,36.96776,0,0,1,4.20388,1.56663c.33313.16009.62614-.33727.29122-.49822a37.51631,37.51631,0,0,0-4.238-1.5897c-1.44016-.48778-2.88674-.978-4.35427-1.37824a.28875.28875,0,0,0-.15339.55639Z"/><path d="M156.39834,112.00032a91.79075,91.79075,0,0,0,13.61825-.36445c.44471-.04559.4494-.74756,0-.70149a91.79075,91.79075,0,0,1-13.61825.36445c-.4513-.0209-.45025.68064,0,.70149Z"/><path d="M152.8144,66.57816a3.03975,3.03975,0,0,1-.56793,2.33825,22.68994,22.68994,0,0,1-1.31943,2.0338c-.18456.26358.24779.51319.43081.25182a20.37839,20.37839,0,0,0,1.42974-2.23939,3.24958,3.24958,0,0,0,.5079-2.51711c-.11609-.29546-.59876-.16682-.48109.13263Z"/><path d="M151.37682,70.324a1.35772,1.35772,0,0,0-.6098,1.17867,1.49642,1.49642,0,0,0,.706,1.31182,3.14139,3.14139,0,0,0,1.8415.61694,3.37652,3.37652,0,0,0,1.001-.22549,1.98014,1.98014,0,0,0,.80645-.464,1.02691,1.02691,0,0,0,.26519-.88643c-.04053-.28829-.1909-.51618-.51208-.4973-.31912.01875-.32127.5178,0,.49892q.10727.01032-.006-.04617a.06866.06866,0,0,1,.01073.03036.74446.74446,0,0,0,.02656.15237.48227.48227,0,0,1-.08273.32685,1.34539,1.34539,0,0,1-.71058.42923,2.585,2.585,0,0,1-.94619.18323,2.45,2.45,0,0,1-.85891-.22848c-.41193-.17753-.95992-.46676-1.03506-.96-.04861-.31912.03233-.83424.35575-.98977.28926-.13911.0365-.56945-.25181-.43081Z"/><path class="r" d="M161.6007,111.76792s4.61966,17.67046,10.7826,16.52667,5.35209-7.20183,5.35209-7.20183"/><path class="r" d="M175.13726,94.5976s2.386-3.61343,2.507-3.629"/><path class="r" d="M174.77458,94.7301s.71075-3.8335,1.90914-4.08514"/><ellipse class="s" cx="175.28324" cy="100.29144" rx="1.12581" ry="0.60288" transform="translate(-13.7856 171.25312) rotate(-50.34902)"/><ellipse class="s" cx="175.38377" cy="101.85257" rx="1.12581" ry="0.60288" transform="translate(-14.9512 171.89548) rotate(-50.34902)"/><ellipse class="s" cx="175.44634" cy="103.52232" rx="1.12581" ry="0.60288" transform="translate(-16.21418 172.54793) rotate(-50.34902)"/><ellipse class="s" cx="175.50052" cy="105.35391" rx="1.12581" ry="0.60288" transform="translate(-17.6048 173.25247) rotate(-50.34902)"/><ellipse class="s" cx="175.40547" cy="107.15058" rx="1.12581" ry="0.60288" transform="translate(-19.02253 173.82949) rotate(-50.34902)"/><ellipse class="s" cx="175.40951" cy="108.8574" rx="1.12581" ry="0.60288" transform="translate(-20.33523 174.45028) rotate(-50.34902)"/><ellipse class="s" cx="175.59087" cy="110.6653" rx="1.12581" ry="0.60288" transform="translate(-21.66159 175.24418) rotate(-50.34902)"/><ellipse class="s" cx="175.65487" cy="112.49868" rx="1.12581" ry="0.60288" transform="translate(-23.05003 175.95694) rotate(-50.34902)"/><ellipse class="s" cx="176.0057" cy="114.42297" rx="1.12581" ry="0.60288" transform="translate(-24.40466 176.92345) rotate(-50.34902)"/><ellipse class="s" cx="176.26017" cy="116.17092" rx="1.12581" ry="0.60288" transform="translate(-25.65839 177.75194) rotate(-50.34902)"/><ellipse class="s" cx="176.65176" cy="118.02713" rx="1.12581" ry="0.60288" transform="translate(-26.94586 178.72518) rotate(-50.34902)"/><path class="s" d="M177.86806,119.00878c.1508.32379-.08986.92-.53752,1.33169s-.93279.48294-1.08359.15915.3634-1.12957.81106-1.54125S177.71727,118.685,177.86806,119.00878Z"/><ellipse class="s" cx="177.77963" cy="121.26525" rx="1.12581" ry="0.60288" transform="translate(-29.03088 180.76543) rotate(-50.34902)"/><ellipse class="s" cx="178.5139" cy="122.76796" rx="1.12581" ry="0.60288" transform="translate(-29.92216 181.8746) rotate(-50.34902)"/><ellipse class="s" cx="179.19124" cy="124.00221" rx="1.12581" ry="0.60288" transform="translate(-30.62734 182.84277) rotate(-50.34902)"/><path class="t" d="M174.77458,99.53385l.33806-6.0169.66111.0733c.18517.03557.34444.30916.34056.585l-.6157,4.82148Z"/><path d="M174.77212,99.939l.03511.04152q-.02693-.036.00209.00337c.01378.02029.02793.04026.04088.0611.01623.02611.03137.05289.04511.08039.00839.01679.02488.0761.00584.01018.01306.04523.02738.0892.03841.13507.01228.05106-.00352-.066.00095.017q.00149.02748.00085.055l-.00174.03616q-.0046.04755.00443-.02325a.35211.35211,0,0,0-.00958.05246,1.12572,1.12572,0,0,1-.03527.1184c-.018.05365.03085-.0596-.002.00406-.00945.0183-.01814.03693-.028.055-.0197.03612-.04138.07116-.06454.10516l-.03047.043c-.029.04153.04234-.05145-.00848.01042q-.038.04628-.07895.09c-.05081.05459-.10445.10647-.15962.15663-.07732.07028-.162.13379-.2356.208a.2885.2885,0,1,0,.408.408c.08428-.085.18158-.1571.26906-.23883a2.13064,2.13064,0,0,0,.37242-.44534,1.13872,1.13872,0,0,0,.17651-.635,1.25877,1.25877,0,0,0-.33738-.7566.29.29,0,0,0-.408,0,.29576.29576,0,0,0,0,.408Z"/><path d="M175.05951,101.61943l.03511.04152q-.02692-.036.00209.00336c.01378.0203.02793.04026.04088.0611.01623.02611.03137.0529.04511.0804.00839.01678.02488.07609.00584.01018.01306.04523.02737.08919.03841.13507.01228.05105-.00352-.066.001.017q.00149.02748.00085.055l-.00174.03616q-.00461.04755.00442-.02325a.35338.35338,0,0,0-.00957.05246,1.1263,1.1263,0,0,1-.03528.11839c-.018.05366.03086-.0596-.002.00407-.00945.01829-.01814.03692-.028.055-.0197.03612-.04139.07115-.06454.10515l-.03047.043c-.029.04153.04234-.05146-.00848.01041q-.038.04627-.07895.09c-.05081.05459-.10445.10648-.15962.15663-.07733.07029-.162.1338-.2356.208a.2885.2885,0,0,0,.408.408c.08428-.085.18159-.15709.26907-.23882a2.13009,2.13009,0,0,0,.37241-.44535,1.13861,1.13861,0,0,0,.17652-.635,1.25888,1.25888,0,0,0-.33738-.75661.29.29,0,0,0-.408,0,.29577.29577,0,0,0,0,.408Z"/><path d="M175.219,103.61992c.02188.02386.04322.04806.0635.07331-.04456-.05548.01228.02046.01961.03206.01105.0175.0216.03536.03142.05359l.018.03541q.01968.04328-.00635-.01626a.85328.85328,0,0,1,.03431.12048c.01186.05094-.00445-.07355-.00059.00715q.00118.02466.00041.04936c-.001.03349-.02359.0816.00266.00391-.00663.01963-.00783.04263-.013.06289q-.00592.02331-.01341.04621c-.00855.0263-.0432.07815.0004.00615-.04091.06756-.0733.13738-.11906.20284-.03977.0569.03609-.04243.00019-.00027-.01406.0165-.02771.0333-.04206.04956q-.0371.04206-.07669.08183c-.05126.05171-.10513.10077-.16041.14813-.07918.06784-.16537.12881-.24115.20048a.2911.2911,0,0,0,0,.408.29441.29441,0,0,0,.408,0c.1526-.14435.326-.26085.46749-.41836a1.17539,1.17539,0,0,0,.35405-.92916,1.15482,1.15482,0,0,0-.31932-.6253.29068.29068,0,0,0-.408,0,.29481.29481,0,0,0,0,.408Z"/><path d="M175.32817,105.72766a1.03723,1.03723,0,0,1,.079.07931l.01675.01973c.02071.02105-.01946-.02538-.01952-.02559a.33009.33009,0,0,0,.03452.05218c.00751.0127.01378.026.021.03887.02323.04131-.02035-.0615-.00732-.01748.0038.01281.00848.02529.01187.03825.00365.01392.01211.06892.00485.01216-.00715-.0559-.00162-.00793-.00111.00539q.00072.01854-.00016.03708c-.00063.01339-.00621.061.001.00441.00725-.05722-.00068-.00407-.00413.00987-.00348.014-.00761.02784-.01221.04152-.00407.01207-.02215.05637-.00111.0064.02111-.05012.00173-.00564-.004.00576q-.01013.02007-.0215.03948c-.01322.02263-.02762.04457-.04283.06591-.02639.037-.005.00325.01294-.01578-.01073.01136-.02.02451-.03019.03636a1.52774,1.52774,0,0,1-.12412.1269c-.04132.03791-.08468.07312-.12809.10857-.0353.02882.06162-.04633.01249-.00961l-.0301.02256q-.03126.02318-.063.04573c-.08661.06174-.175.12025-.258.187a.28926.28926,0,0,0,0,.408.29689.29689,0,0,0,.408,0c.027-.02176-.07126.05292-.03728.02877l.01984-.01447.04775-.03355c.04022-.028.08055-.05574.12037-.08427a3.2624,3.2624,0,0,0,.326-.26,1.00791,1.00791,0,0,0,.38228-.79408.90029.90029,0,0,0-.306-.57336.28849.28849,0,0,0-.408.408Z"/><path d="M175.31457,107.35454a.93529.93529,0,0,1,.08027.0761c.00824.00894.04242.052.01226.01162-.03038-.04067.00419.00679.01091.01727.00846.01319.01563.0269.02341.04045l.00856.01727c.00169.00235-.02261-.065-.017-.04023.00305.01339.00946.02657.013.03993.0038.01419.01158.06514.004.00691-.00747-.05721-.002-.01279-.00147.00092.00049.013-.00015.0259-.00047.03889-.0014.05595.00129-.03356.005-.03275l-.00847.038c-.0034.01271-.00782.025-.01173.03751-.01558.04987.014-.01942.01182-.02667.00422.01391-.0312.05964-.039.07217l-.01975.0302c-.00725.01058-.04068.05455-.00636.0103.033-.04257.00333-.00487-.00472.00468l-.02905.03315a1.51039,1.51039,0,0,1-.12416.1205q-.0314.02741-.06392.0535l-.02983.0236c-.00564.00462.05773-.04322.03351-.026l-.01985.01494c-.04244.03165-.08576.06211-.12955.09186-.069.04691-.14154.08981-.208.14042a.31688.31688,0,0,0-.13258.17241.29486.29486,0,0,0,.02908.22231.29143.29143,0,0,0,.39472.1035c.1758-.13394.36672-.24226.53438-.38854a.964.964,0,0,0,.39375-.762.82379.82379,0,0,0-.30091-.55023.2885.2885,0,0,0-.408.408Z"/><path d="M175.42963,108.86529a1.00586,1.00586,0,0,1,.0775.07578.15586.15586,0,0,0,.02179.02515c.00071.00036-.03584-.05093-.02066-.027.00942.01481.02028.02866.02944.0437.0074.01215.0135.025.02077.03724.02385.04008-.02124-.0626-.00746-.01959.00609.019.0292.065.02223.08524-.00347.01005-.00311-.07781-.00693-.04663-.00069.00566.00111.0122.001.01794l-.00038.03563c-.00059.05483.00881-.02457.00519-.02975.00437.00625-.00777.0378-.01.04627l-.01056.03423a.17316.17316,0,1,0,.01128-.02395c-.01543.02381-.02551.05216-.04037.07666-.01326.02188-.0283.04237-.04267.06349-.02591.03806.04351-.05242.01317-.01731l-.02991.03508a1.5246,1.5246,0,0,1-.12276.12267q-.03215.02891-.06551.05641l-.03056.02483-.01529.01211c-.026.02144.0548-.04115.02791-.02147-.04234.031-.08418.06257-.12722.09263-.08731.061-.17563.11913-.2594.18507a.28908.28908,0,0,0,0,.408.29729.29729,0,0,0,.408,0c-.00378.003-.07381.05455-.03756.02932l.01954-.014.047-.03234c.03952-.02693.07917-.05367.11835-.08111a3.29476,3.29476,0,0,0,.33272-.26046.98678.98678,0,0,0,.38338-.778.86987.86987,0,0,0-.304-.56384.2885.2885,0,0,0-.408.408Z"/><path d="M175.60542,110.77794a.89933.89933,0,0,1,.077.06926c.01175.012.0225.02482.03381.03723.02707.0297-.0419-.06121-.00575-.00534l.01882.03171.00806.01581c.01752.02764-.02433-.06839-.01537-.03738l.01047.03139c.004.01407.01268.06943.00461.00843-.00813-.06151-.003.01422-.00253.03356.00091.039.01735-.08326.0042-.03113l-.0085.035c-.00335.01157-.00879.023-.01167.03463-.00507.02044.01651-.04569.019-.04442l-.0091.01942c-.01207.02279-.02425.04517-.03841.06678l-.01929.028c-.02213.03409.049-.05885.01335-.01718-.018.02107-.036.04209-.05513.06216a1.52244,1.52244,0,0,1-.12533.11626l-.02851.02337-.01917.01525c-.01946.016.037-.0264.03429-.02642-.01583-.0001-.05368.04-.06762.05-.04278.03064-.08639.06011-.13043.08891-.06924.04527-.14171.08665-.2085.13553a.31333.31333,0,0,0-.13259.17242.29484.29484,0,0,0,.02909.2223.2917.2917,0,0,0,.39472.1035c.064-.04682.1333-.08656.19969-.12979a3.52272,3.52272,0,0,0,.337-.24708.92924.92924,0,0,0,.39871-.73911.77313.77313,0,0,0-.29694-.5311.31143.31143,0,0,0-.204-.0845.2885.2885,0,0,0-.204.49249Z"/><path d="M175.75017,112.26276c.02135.02246.04147.04572.0619.069q.03046.0378-.00534-.00711l.02345.034q.01887.02874.0353.05894l.01309.02507q.01987.04263-.00675-.01916a.294.294,0,0,0,.02241.06554.3997.3997,0,0,0,.01444.06454c-.01179-.02341-.00629-.06767-.00332-.01321a.587.587,0,0,1,0,.06236c-.00416.07856.01242-.04988.00133-.00043-.00335.015-.006.02993-.0098.04481-.005.01977-.011.03931-.01779.05857-.02559.07294.02258-.04249,0,.00232-.01641.03255-.03267.0647-.05179.09582q-.01646.02678-.03445.05257c-.00563.00809-.04773.06387-.01488.02165.0329-.04229-.0108.01254-.01712.02q-.02034.02409-.04163.04735-.03678.04027-.07589.07832c-.05253.05134-.10769.09992-.16423.14678-.07969.06607-.16607.12526-.24251.1951a.29064.29064,0,0,0,0,.408.29489.29489,0,0,0,.408,0c.15433-.141.32853-.25435.472-.40866a1.13481,1.13481,0,0,0,.3612-.87209,1.10657,1.10657,0,0,0-.31961-.638.29116.29116,0,0,0-.408,0,.29433.29433,0,0,0,0,.408Z"/><path d="M176.21536,114.47813c.01933.01828.03834.03683.05639.0564l.02488.02807q.02946.036-.01179-.01645c.00369.01658.02812.04036.03722.05553a.59256.59256,0,0,0,.02936.05506q-.02809-.06933-.012-.028l.00916.02711c.00544.01775.00906.0357.01319.05376.01074.04694-.00131-.08253-.00294-.01045-.00039.0171-.00145.03511-.00091.05216.00146.04674.019-.08161.00134-.01263-.00431.01681-.00783.03366-.01293.05028a.29871.29871,0,0,0-.01761.04934q.03141-.07268.01306-.03256l-.01193.02391a.85768.85768,0,0,1-.05659.09292c-.01387.02-.05916.06625.00357-.00268-.01255.01379-.02371.02906-.036.04315a1.70567,1.70567,0,0,1-.15992.15888q-.04107.03615-.08379.07038c-.01365.011-.02823.02121-.04143.03272.07364-.0642.02663-.02067.00788-.00664-.09707.07266-.199.1391-.2925.21653a.28954.28954,0,0,0,0,.408.2964.2964,0,0,0,.408,0c.04341-.036-.06678.049-.01958.015l.04827-.0349c.04094-.02927.082-.05835.12254-.08822a3.1937,3.1937,0,0,0,.32576-.26664,1.03544,1.03544,0,0,0,.3765-.8086.94374.94374,0,0,0-.30927-.58943.2885.2885,0,0,0-.408.408Z"/><path d="M176.38866,116.05759c.01956.01882.03879.03791.057.058l.02515.02887q.02938.03631-.01146-.01528c-.00114.00968.03175.04717.03757.05706.01038.01761.0176.04028.0296.05653q-.02787-.06849-.01187-.0269l.0092.02781c.00546.01821.0091.03661.01319.05513.01044.04726-.001-.08166-.00306-.00881-.00048.0175-.00157.036-.00108.05342.00131.047.019-.08085.001-.01112-.00442.01718-.008.03442-.01324.05141a.25251.25251,0,0,0-.018.05043q.03112-.072.01277-.03178l-.01213.02442a.87842.87842,0,0,1-.05743.0948c-.01348.01952-.05921.068.003-.00163-.011.01236-.021.0259-.03175.03851a1.69409,1.69409,0,0,1-.15547.15747q-.04127.03705-.08424.07211l-.04169.03352c-.056.045.04553-.03391.00751-.00572-.09817.07279-.20078.14171-.29435.22042a.28969.28969,0,0,0,0,.408.29614.29614,0,0,0,.408,0l.0164-.01338c.01375-.00975-.07025.05265-.03571.02772l.04866-.03567c.03965-.02875.07944-.0573.11868-.08661a3.18724,3.18724,0,0,0,.327-.27068,1.05708,1.05708,0,0,0,.3758-.81622.95974.95974,0,0,0-.31121-.59985.2885.2885,0,1,0-.408.408Z"/><path d="M176.80549,118.0427a.94341.94341,0,0,1,.081.0775c.00806.00884.04291.05238.0125.01236-.03045-.04008.00443.00755.01111.0181.00849.0134.01575.02734.0235.04115l.00858.01757c.00134.002-.022-.06448-.01695-.03974.00236.01163.00817.02328.01138.03482.004.01441.01342.07333.00546.01343-.00791-.05943-.00219.017-.002.03543.00054.05363.01424-.0647.00447-.02646-.00326.01276-.00528.02581-.00874.03855l-.01016.03265c-.01391.04739.02037-.04093.01194-.026-.01362.02413-.0244.04956-.03893.07333-.01345.022-.034.04287-.04493.06583.00962-.02014.04394-.05509.01388-.01905l-.02922.03362a1.51139,1.51139,0,0,1-.12488.12221q-.02918.02563-.05933.05013l-.035.02793c-.02323.0189.03923-.02982.03337-.02574l-.02.01511q-.062.04588-.12555.08967c-.06959.04768-.14276.09124-.20971.14264a.31768.31768,0,0,0-.13258.17241.29486.29486,0,0,0,.02908.22231.29138.29138,0,0,0,.39472.1035c.17518-.1345.366-.24318.533-.39a.97723.97723,0,0,0,.394-.765.82827.82827,0,0,0-.30194-.55629.2885.2885,0,1,0-.408.408Z"/><path d="M177.13262,119.60058c.01972.019.0391.03831.05747.05865l.02532.02917q.0294.03642-.01126-.01484a.78275.78275,0,0,0,.06734.11475q-.02779-.06816-.0119-.02648l.00914.02809c.00533.0181.0071.03791.013.05565-.02637-.07908-.00442-.04341-.0034-.00817.00053.018-.0017.036-.00143.05391.00071.04712.01921-.0804.00051-.01055-.00463.01731-.00833.03472-.0137.05185a.19822.19822,0,0,0-.01343.03823q.03114-.07177.01317-.03129l-.01191.02475a.86415.86415,0,0,1-.05684.09606c-.01064.0157-.0226.0305-.0332.04618.05265-.07788.01507-.02014,0-.00252a1.70952,1.70952,0,0,1-.162.16359q-.03646.03255-.07426.06357l-.042.034c-.05612.04539.04507-.03359.00706-.0052-.09877.07376-.20234.143-.29664.22252a.28973.28973,0,0,0,0,.408.29612.29612,0,0,0,.408,0c.0481-.04054-.04646.03391-.019.014l.04914-.03609c.04006-.02909.08025-.058.11987-.08769a3.1468,3.1468,0,0,0,.329-.27368,1.04956,1.04956,0,0,0,.37079-.81746.96965.96965,0,0,0-.3109-.597.28849.28849,0,1,0-.408.408Z"/><path d="M177.74474,121.252a1.03466,1.03466,0,0,1,.079.07937l.01676.01975c.02069.02107-.01946-.02537-.01952-.02558a.32572.32572,0,0,0,.03453.05222c.00751.01272.01378.026.021.0389.02323.04134-.02033-.06148-.0073-.01745.00379.01282.00848.02532.01187.03828.00364.01392.01211.069.00485.01219-.00715-.05588-.00161-.00789-.0011.00542q.00072.01855-.00016.03711c-.00062.01339-.00621.061.001.00443.00726-.05721-.00068-.004-.00413.0099-.00347.014-.0076.02786-.0122.04154-.00407.01209-.02216.05638-.0011.00643.02112-.05011.00172-.00561-.004.00578q-.01013.02008-.0215.03951c-.01321.02264-.02761.04459-.04282.06594-.02637.037-.005.00332.01294-.01575-.01071.01138-.01995.02451-.03018.03637a1.5269,1.5269,0,0,1-.12411.127c-.04131.03793-.08468.07314-.12807.10862-.03528.02884.06161-.04634.01248-.00959l-.03009.02257q-.03124.02319-.063.04574c-.0866.06177-.17505.12029-.258.18707a.28926.28926,0,0,0,0,.408.29689.29689,0,0,0,.408,0c.027-.02176-.07126.05293-.03728.02877l.01984-.01449.04774-.03356c.04022-.028.08055-.05577.12037-.08431a3.26043,3.26043,0,0,0,.326-.2601,1.00839,1.00839,0,0,0,.38221-.79441.90111.90111,0,0,0-.306-.57363.2885.2885,0,1,0-.408.408Z"/><path d="M178.43272,122.71329c.01937.01843.03841.03712.05649.05683l.02492.02829q.02943.03607-.01173-.01615c.00215.01514.029.042.03731.05593a.59384.59384,0,0,0,.02944.05544q-.028-.06909-.01191-.02769l.00921.02729c.00546.01787.0091.03594.01326.05411.01078.047-.00133-.08234-.00285-.01-.00036.01719-.00145.03535-.00084.05249.00164.04682.01891-.08148.00142-.01223-.00427.0169-.00779.03385-.01287.05057a.26493.26493,0,0,0-.01754.04963q.03135-.07254.0131-.03236l-.0119.02405a.86055.86055,0,0,1-.05649.09343c-.01348.01954-.05876.06793.00364-.00239-.01243.014-.02366.0292-.03594.04338a1.70382,1.70382,0,0,1-.15975.15967q-.041.03632-.08373.07071c-.01356.011-.02858.02105-.04139.03287.07029-.06489.0275-.0212.00792-.00646-.097.073-.199.13957-.29234.21729a.2896.2896,0,0,0,0,.408.29631.29631,0,0,0,.408,0c.04334-.03611-.06673.04909-.01961.01485l.04823-.03506c.04092-.0294.082-.0586.12247-.08861a3.18346,3.18346,0,0,0,.32553-.26768,1.04073,1.04073,0,0,0,.37579-.812.952.952,0,0,0-.30984-.59215.2885.2885,0,0,0-.408.408Z"/><path d="M179.02265,123.84817c.02091.02161.0404.0443.0607.06644q.03041.03739-.006-.009l.02309.03274c.02017.03008.03723.09019.06309.11314q-.02616-.06372-.01-.02118l.0102.03155a.53813.53813,0,0,0,.01465.06241q-.00912-.07647-.00411-.03052l.002.03047q.00082.02258-.00017.0452c-.00337.07709.0145-.051.00226-.00275-.00486.01912-.0077.03871-.01289.05782-.00521.01918-.012.03769-.0181.05658-.01674.05189.02882-.05956.00625-.01366a1.1487,1.1487,0,0,1-.05792.1063q-.01633.02594-.03413.05092c-.0394.05551.01524-.0166.00338-.003a2.61067,2.61067,0,0,1-.31781.31129c-.02491.02032-.05017.04019-.07543.06007-.054.04254.04837-.0371.01234-.00948l-.02959.02275c-.05043.03883-.10312.07666-.15061.11934a.29044.29044,0,0,0,0,.408.29513.29513,0,0,0,.408,0l.03142-.02667.023-.01823c.03693-.02947-.00908.00714-.0246.01891q.08436-.064.16746-.1297a2.58661,2.58661,0,0,0,.27786-.24942,1.116,1.116,0,0,0,.3617-.85774,1.074,1.074,0,0,0-.31791-.63058.2885.2885,0,0,0-.408.408Z"/><polygon class="i" points="175.709 146.443 175.709 149.496 176.803 152.147 177.175 152.147 176.215 148.536 176.125 146.254 175.709 146.443"/><path class="u" d="M160.30084,105.48877l-.32324.03418.0957-.45313.1211-.01269a.67584.67584,0,0,0,.27734-.07813.39757.39757,0,0,0,.14844-.16308.61545.61545,0,0,0,.05273-.25488c.002-.10157.002-.25782-.00195-.46485l-.00391-.03515a.35675.35675,0,0,0-.04882-.16016.21474.21474,0,0,0-.10254-.08594.43759.43759,0,0,0-.208-.01269l-.86719.09082-.13086-1.23926.55371-.05762.084.80078.3916-.041a.9.9,0,0,1,.61621.10644.65432.65432,0,0,1,.251.499l.00683.09765.00781.47071a.935.935,0,0,1-.21972.67578A1.09528,1.09528,0,0,1,160.30084,105.48877Z"/><path class="u" d="M162.128,102.75342l-.10742.78027-.47168.04981.24414-.79395Zm.71289-.0752-.11328.78125-.46582.04883.24512-.79492Z"/><path class="u" d="M165.47662,104.9458l-.55371.05762-.123-1.167a.56178.56178,0,0,0-.15918-.36524.48917.48917,0,0,0-.40723-.09961,3.09236,3.09236,0,0,0-.31445.05176c-.11133.02539-.293.07617-.54786.15234l-.00292-.4541a4.24587,4.24587,0,0,1,.9375-.21289.86135.86135,0,0,1,1.04589.84961Zm-1.35254.1416-.55468.05762-.127-1.20508.52637-.32812Z"/><path class="u" d="M165.85748,104.45166l1.04883-.10937-1.22168-1.34571.47852-.30371.78222.86231a.68209.68209,0,0,0,.07032-.20508,1.12647,1.12647,0,0,0-.00293-.28614l-.043-.40527.5459-.05762.04687.44532a.9091.9091,0,0,1-.04785.42578,1.30573,1.30573,0,0,1-.28906.41894l.38476.43946-.04785.3955-1.76074.18457Z"/><polygon class="b" points="51.246 93.23 51.579 96.826 52.301 102.904 31.533 128.393 26.271 129.929 22.78 125.986 34.61 98.508 46.663 92.2 51.246 93.23"/><polygon class="b" points="38.073 151.64 36.956 145.936 37.94 143.282 34.77 127.096 28.823 119.151 22.208 121.682 21.236 123.573 20.869 125.685 26.741 146.54 29.583 148.218 30.543 153.115 36.272 151.003 38.073 151.64"/><path d="M33.22941,125.08207a13.34364,13.34364,0,0,0-2.20138-2.85823c-.17637-.174-.44854.09777-.272.272a12.95575,12.95575,0,0,1,2.14123,2.78038.19248.19248,0,0,0,.33215-.19415Z"/><path d="M34.02654,146.19063a10.71188,10.71188,0,0,0,.13494,2.30546,8.35022,8.35022,0,0,0,.25045,1.28352,1.5284,1.5284,0,0,0,.49428.84644.32705.32705,0,0,0,.44373-.11635.33126.33126,0,0,0-.11635-.44373c.08183.05949.0037.00427-.00854-.01663-.03251-.05551.03464.05483-.00556-.00912a1.42562,1.42562,0,0,1-.092-.17119c.02517.05552-.01551-.0392-.01621-.04109-.01622-.04374-.0318-.08764-.04629-.132-.02375-.07271-.04487-.14626-.06454-.22017a8.74215,8.74215,0,0,1-.21751-1.19069,10.25962,10.25962,0,0,1-.10775-2.09447c.03614-.41579-.61271-.41337-.64864,0Z"/><path class="h" d="M39.10974,107.952a9.37541,9.37541,0,0,0-7.54347-1.324.28493.28493,0,0,0,.15136.549,8.80964,8.80964,0,0,1,7.10473,1.26665c.306.20351.59139-.28942.28738-.49164Z"/><path class="h" d="M42.75061,109.42385c-2.15269-.96989-4.2972-1.95783-6.44989-2.92771-.37755-.17011-.70776.3887-.32738.56008,2.15269.96988,4.2972,1.95783,6.44989,2.92771.37755.1701.70776-.3887.32738-.56008Z"/><path class="h" d="M33.76474,107.19352c1.67331.27595,3.24264.95027,4.89818,1.29085.40743.08382.58167-.54127.17244-.62547-1.65554-.34058-3.22487-1.0149-4.89819-1.29085-.40834-.06734-.584.55761-.17243.62547Z"/><polygon class="i" points="32.288 106.89 28.885 106.538 20.563 127.102 25.151 126.92 26.38 126.469 22.252 125.708 32.286 124.311 24.039 122.735 29.93 119.063 25.323 118.301 28.884 110.074 32.288 106.89"/><path class="h" d="M36.25835,106.46129c-2.10986-.111-4.22324-.1437-6.3331-.25468a.32578.32578,0,0,0-.08621.63705c3.16468.76246,6.40935,1.1655,9.574,1.92795.40564.09773.57872-.52759.17244-.62547-3.16469-.76245-6.40936-1.16549-9.57405-1.92795l-.08622.63706c2.10986.111,4.22324.1437,6.3331.25468.41716.02194.416-.62676,0-.64864Z"/><path d="M33.16041,125.01307a29.28083,29.28083,0,0,0-3.664-1.31164,10.10193,10.10193,0,0,0-3.77824-.54827c-.24321.02745-.246.41243,0,.38466a9.7957,9.7957,0,0,1,3.676.53453,28.54712,28.54712,0,0,1,3.57216,1.27286c.22476.0977.42084-.2336.19415-.33214Z"/><path class="j" d="M31.60148,119.2638s-5.28637-.142-7.85357.965"/><path class="j" d="M26.54357,126.58456a15.52567,15.52567,0,0,0-5.37866-.22722"/><path class="h" d="M87.09127,102.45951a9.37107,9.37107,0,0,0,2.51114,7.2317c.25333.26575.65553-.13728.40261-.40261a8.81408,8.81408,0,0,1-2.34437-6.82909c.02907-.36531-.54046-.36341-.56938,0Z"/><path class="h" d="M89.02386,107.48367c-.57222-1.59646-.74548-3.29577-1.25258-4.90811-.12481-.39682-.75121-.22736-.62547.17244.5071,1.61234.68036,3.31164,1.25259,4.90811.13981.39008.7668.22189.62546-.17244Z"/><path class="e" d="M95.89594,157.19266c1.57861-1.01667.7914-3.88333.7914-3.88333l.76174-2.89883-.39968-2.59828.28793-2.39049c-5.447-3.96693-5.88438-1.40732-5.88438-1.40732l-.076,1.92517-.1327.97243-1.64964.43488-2.22485,1.22157s-.78792.66132-.73511,1.16148a21.34067,21.34067,0,0,1-1.30091,3.54842s-2.19951,2.61119,0,3.48633a8.94835,8.94835,0,0,1,3.37737,2.31233s3.02689,1.9199,3.52746,1.74306A38.82772,38.82772,0,0,0,95.89594,157.19266Z"/><polygon class="b" points="66.578 94.987 67.336 98.518 68.464 104.533 95.905 122.645 101.385 122.537 103.537 117.731 84.031 95.048 70.644 92.633 66.578 94.987"/><polygon class="b" points="89.563 147.858 90.258 142.086 89.082 139.512 91.051 123.137 96.397 114.775 103.18 116.813 104.29 118.627 104.811 120.707 100.489 141.937 97.778 143.819 97.182 148.775 91.313 147.09 89.563 147.858"/><path d="M90.23114,118.65819a12.99843,12.99843,0,0,1,1.20937-3.2937c.116-.21856-.216-.41314-.33214-.19414a13.38106,13.38106,0,0,0-1.24815,3.38558c-.05326.24123.31749.34426.37092.10226Z"/><polygon class="i" points="85.316 100.923 88.457 99.569 102.548 116.704 98.116 117.902 96.809 117.839 100.521 115.878 90.528 117.546 97.926 113.576 91.207 111.834 95.375 109.729 89.516 102.943 85.316 100.923"/><path d="M90.18168,118.74306a28.49733,28.49733,0,0,1,3.0271-2.28511,9.78613,9.78613,0,0,1,3.34867-1.61189c.24283-.04673.14-.41754-.10226-.37092a10.06334,10.06334,0,0,0-3.44055,1.65066,29.24962,29.24962,0,0,0-3.105,2.34526c-.18742.16239.08563.43347.272.272Z"/><path class="j" d="M89.67153,112.52526s5.002-1.71645,7.78272-1.428"/><path class="j" d="M96.68736,117.99829a15.526,15.526,0,0,1,5.06453-1.82542"/><path class="k" d="M84.21764,127.37534a26.02977,26.02977,0,0,0-1.96252-16.3169c-.15834-.33559-.65594-.04306-.49821.29122a25.364,25.364,0,0,1,1.90434,15.8723c-.07407.36247.482.51751.55639.15338Z"/><polygon class="a" points="66.729 90.279 66.52 82.91 67.587 81.281 70.397 79.45 72.367 74.384 69.834 72.414 68.588 61.719 59.292 58.624 50.134 61.438 48.47 72.411 47.039 73.797 48.136 79.133 49.257 79.844 49.294 82.827 51.545 85.641 51.401 91.892 48.164 96.076 51.541 107.593 58.577 110.689 67.864 100.557 72.367 93.803 66.729 90.279"/><g class="v"><polygon class="m" points="67.871 77.191 72.381 65.348 41.808 32.107 49.164 76.442 50.234 68.446 51.087 66.393 51.99 62.759 58.267 64.013 65.408 63.022 66.256 66.377 67.821 68.751 67.594 75.359 67.871 77.191"/></g><polygon points="64.674 69.989 64.746 68.551 60.985 67.782 60.151 68.753 64.674 69.989"/><polygon points="55.959 69.088 55.81 67.621 52.473 68.427 51.924 69.498 55.959 69.088"/><path d="M60.99741,78.41a8.63137,8.63137,0,0,1-5.22675.85048c-.419-.06491-.59949.57622-.17691.64169a9.39828,9.39828,0,0,0,5.73953-.91756c.38128-.19531.045-.7697-.33587-.57461Z"/><path d="M64.8739,84.65621l-5.259,3.30215-4.28058.00981L52.26059,86.0703,54.694,91.24956a2.93582,2.93582,0,0,0,1.334,1.49458h0a2.93586,2.93586,0,0,0,1.39188.35092H57.565a2.93578,2.93578,0,0,0,1.89107-.69019l1.08616-.91465a2.93578,2.93578,0,0,0,.68134-.83082l2.4273-4.41327Z"/><path d="M65.88729,83.2642c-1.43454,1.18968-2.85479,2.39674-4.28255,3.59454q-.43624.366-.87368.73055c-.33025.27387.1432.7428.471.471,1.43454-1.18968,2.85479-2.39674,4.28255-3.59455q.43623-.366.87368-.73054c.33024-.27388-.14321-.74281-.471-.471Z"/><path d="M53.85581,69.42344a2.981,2.981,0,0,1-.00019,2.12848l.55662-.14695a1.27545,1.27545,0,0,1-.24071-.42319,1.92267,1.92267,0,0,1-.09777-.55865,4.95436,4.95436,0,0,1,.0139-.62362c.00772-.09983.01741-.19951.028-.29907.001-.00958.01655-.10468.00646-.05866-.00878.04008.00994-.02329.00938-.029q.00885-.02835-.00054-.00083-.03254.11221-.2128,0-.17818.08109-.21766-.03565a.23717.23717,0,0,1,.05862-.27416l.14695-.08564.05665-.00975a.33535.33535,0,0,0-.333.333.34038.34038,0,0,0,.333.333.38232.38232,0,0,0,.37038-.49567.4167.4167,0,0,0-.49981-.30633c-.41751.106-.39459.66627-.41718,1.00434a2.63462,2.63462,0,0,0,.52513,2.00085.33686.33686,0,0,0,.55663-.147,3.56962,3.56962,0,0,0,.00019-2.48262.34236.34236,0,0,0-.40967-.2326.33565.33565,0,0,0-.2326.40967Z"/><path d="M62.23142,69.18845a2.981,2.981,0,0,1-.00019,2.12849l.55662-.147a1.27553,1.27553,0,0,1-.24071-.42319,1.92289,1.92289,0,0,1-.09777-.55864,4.9562,4.9562,0,0,1,.0139-.62362c.00772-.09984.01742-.19951.028-.29908.001-.00958.01655-.10468.00647-.05866-.00879.04009.00993-.02329.00938-.029q.00883-.02833-.00054-.00082-.03255.11221-.21281,0-.17819.08109-.21765-.03566a.23713.23713,0,0,1,.05861-.27415l.147-.08565.05665-.00974a.33534.33534,0,0,0-.333.333.34037.34037,0,0,0,.333.333.38231.38231,0,0,0,.37038-.49566.41669.41669,0,0,0-.4998-.30634c-.41751.106-.3946.66628-.41719,1.00434a2.63459,2.63459,0,0,0,.52514,2.00085.33684.33684,0,0,0,.55662-.147,3.56954,3.56954,0,0,0,.00019-2.48261.34235.34235,0,0,0-.40967-.23261.33566.33566,0,0,0-.2326.40967Z"/><path d="M69.94964,76.01185l-1.47327.74833a.33533.33533,0,0,0-.11948.45565.341.341,0,0,0,.45565.11947l1.47328-.74833a.33532.33532,0,0,0,.11947-.45565.341.341,0,0,0-.45565-.11947Z"/><path d="M69.20551,75.32436l-.91007,1.67022a.33308.33308,0,1,0,.57512.33617l.91008-1.67021a.33309.33309,0,0,0-.57513-.33618Z"/><path d="M71.61052,74.5021a4.12725,4.12725,0,0,0-2.3793.80767.34354.34354,0,0,0-.11947.45565.33537.33537,0,0,0,.45565.11948,3.50053,3.50053,0,0,1,2.04312-.71673.333.333,0,0,0,0-.66607Z"/><polygon points="46.971 154.445 80.732 150.489 80.883 142.5 47.459 142.471 46.971 154.445"/><polygon class="b" points="80.491 119.104 80.142 144.853 75.271 146.806 62.779 145.862 47.42 144.668 46.671 143.507 47.42 140.959 39.982 114.864 34.612 106.281 37.021 98.164 48.106 92.776 51.469 89.144 51.686 91.305 51.446 95.059 57.394 105.167 66.759 92.431 66.891 89.638 66.838 88.637 66.447 85.762 69.937 89.184 85.71 95.232 87.115 111.176 80.491 119.104"/><g class="w"><polyline class="i" points="46.936 146.269 49.683 141.318 40.851 116.587"/></g><polygon class="i" points="79.967 144.999 79.631 130.684 79.635 120.744 80.274 120.932 80.444 144.853 79.967 144.999"/><path d="M42.63671,115.43609a22.28579,22.28579,0,0,1,.51056,3.74579c.03469.60121.05461,1.20316.07377,1.805a5.8307,5.8307,0,0,0,.09029,1.62938c.29293.8231.9853.88833,1.729.994,1.131.16066,2.25931.31669,3.39624.43215a23.23731,23.23731,0,0,0,3.99116.129,1.44827,1.44827,0,0,0,1.44763-.9572,25.52635,25.52635,0,0,0,.5594-4.61391,39.47141,39.47141,0,0,1,.64459-5.52651c.08419-.36126-.472-.51545-.55639-.15339-.661,2.83633-.60256,5.834-.9685,8.71559-.06343.49947-.049,1.342-.42945,1.70883-.35264.34-.93889.27128-1.40071.2834-.62649.01643-1.2536-.0031-1.87889-.04289-1.20832-.07689-2.41975-.20893-3.6184-.37917-.40492-.05752-.80886-.12171-1.214-.17761-.43841-.06048-.89736-.07034-1.11618-.52634a2.77806,2.77806,0,0,1-.08156-.97c-.00933-.28958-.01791-.57917-.02761-.86874-.02-.59882-.04315-1.19762-.08288-1.79551a22.52607,22.52607,0,0,0-.51164-3.58521c-.08355-.36165-.64-.20857-.55638.15338Z"/><path d="M63.7343,114.67285q.25137,1.97148.48257,3.9455c.11377.9698.225,1.94.3219,2.9117a1.46432,1.46432,0,0,0,1.07336,1.37537,13.13466,13.13466,0,0,0,1.6522.12715c.63274.05522,1.26592.09611,1.90027.12777,1.32274.066,2.64933.10591,3.97307.04507.92552-.04253,2.12926.07174,2.75019-.74954a4.54769,4.54769,0,0,0,.39313-2.24661,59.11272,59.11272,0,0,1,.41206-7.05682c.06781-.36294-.48816-.5185-.55638-.15339a34.15209,34.15209,0,0,0-.34637,5.21273c-.02867.92821-.05816,1.85853-.14842,2.78321a2.35723,2.35723,0,0,1-.25049,1.15676c-.33049.4432-1.01054.39134-1.51094.43094a40.99055,40.99055,0,0,1-6.7952-.14289,4.42764,4.42764,0,0,1-1.53389-.1795c-.423-.23617-.42767-.66-.47171-1.08481-.08845-.85311-.18584-1.7053-.28579-2.55714q-.2316-1.97388-.48257-3.9455c-.04633-.36332-.62391-.36794-.577,0Z"/><polygon class="b" points="57.932 145.496 57.932 154.24 55.857 154.24 55.857 144.162 57.932 144.162 57.932 145.496"/><polygon class="b" points="51.581 145.496 51.581 154.24 49.506 154.24 49.506 144.162 51.581 144.162 51.581 145.496"/><polygon class="b" points="67.269 144.264 67.269 154.193 69.553 154.193 69.553 142.93 67.269 142.93 67.269 144.264"/><rect class="b" x="77.15164" y="142.47136" width="2.07482" height="9.9295"/><path d="M46.37085,101.961a4.70981,4.70981,0,0,1,2.02429-2.62569,9.318,9.318,0,0,1,2.58132-.87784l-.3961-.16119a10.82829,10.82829,0,0,1,.89567,2.75458c.09111.50051.77249.90735,1.12893,1.211.76672.65323,1.54381,1.29436,2.30194,1.95763.33475.29286.66907.588.98526.901.10567.1046.2099.2108.30759.323.01916.022.06011.09549.0832.10625a.62768.62768,0,0,1,.03347.05655q-.08828-.17216.11359-.34518c-.37.2538-.01952.862.354.60572.48446-.33234.00084-.83589-.27248-1.11819-.53021-.54762-1.12046-1.04049-1.6994-1.535-.64446-.55049-1.29783-1.09054-1.94007-1.64362-.20775-.17891-.417-.3575-.61389-.54846-.035-.034-.13924-.15041-.12724-.12961.00334.00579.03721.11935.045.03661a1.35643,1.35643,0,0,0-.03841-.32477,10.37341,10.37341,0,0,0-.95152-2.66157A.3563.3563,0,0,0,50.79,97.781a9.04544,9.04544,0,0,0-2.97007,1.0779,5.60142,5.60142,0,0,0-2.12548,2.91557c-.1572.42385.52055.60677.67643.18649Z"/><path d="M51.43947,100.00381a14.25551,14.25551,0,0,0-2.734.321,17.942,17.942,0,0,0-2.6121.84876c-.41513.16373-.2343.84239.18649.67644a18.21118,18.21118,0,0,1,2.53388-.83079,13.20521,13.20521,0,0,1,2.62569-.31389c.45043-.01308.45231-.71463,0-.70149Z"/><path d="M49.57953,91.41183a11.82761,11.82761,0,0,0-3.16379,6.05754,22.88936,22.88936,0,0,0-.67659,3.99007c-.03209.45048.66955.44846.70149,0a21.778,21.778,0,0,1,.62467-3.69693,11.2866,11.2866,0,0,1,3.01025-5.85465c.33887-.29964-.15878-.79424-.496-.496Z"/><path d="M81.58823,121.43567a9.84746,9.84746,0,0,0-1.966-3.13535,4.96366,4.96366,0,0,0-2.85353-1.43587.32065.32065,0,0,0-.3805.216.31118.31118,0,0,0,.216.3805,4.44185,4.44185,0,0,1,2.62184,1.31848,9.53492,9.53492,0,0,1,1.828,2.96845.31162.31162,0,0,0,.42321.111.317.317,0,0,0,.111-.42322Z"/><path class="h" d="M37.02354,110.56439a9.52727,9.52727,0,0,1,3.47444,6.99312c.0117.39537.62752.397.61577,0A10.12744,10.12744,0,0,0,37.459,110.129c-.3014-.25356-.73916.17987-.43542.43541Z"/><path class="h" d="M79.36413,118.60507c-.65546,1.10337-1.02679,2.34928-1.68225,3.45265a.30955.30955,0,0,0,.53418.31224c.65546-1.10337,1.02679-2.34928,1.68225-3.45265a.30955.30955,0,0,0-.53418-.31224Z"/><path class="h" d="M81.58823,121.43567a3.107,3.107,0,0,0-1.94772-1.31864.85968.85968,0,0,0-.7992.26476,4.39966,4.39966,0,0,0-.6409.80169,8.94835,8.94835,0,0,0-.51853.87424c-.1819.35341.35173.66673.53418.31224a8.96188,8.96188,0,0,1,.507-.857,5.07719,5.07719,0,0,1,.3372-.46069c.05434-.06461.11067-.12771.17068-.18712.02331-.02308.04747-.04514.0715-.06745q.023-.02051.0468-.04-.03618.02728.006-.0033c.02518-.01671.051-.03125.07708-.04634-.039.02254.01889-.0081.01963-.00447q-.07416.00678-.02409.00416.03765.003-.00107-.00253c.03194.00862.06763.01139.10007.01842a2.267,2.267,0,0,1,.5419.19737,2.44942,2.44942,0,0,1,.98529.82685c.2126.33534.74819.02533.53418-.31225Z"/><path class="h" d="M80.58663,120.03839a1.08212,1.08212,0,0,0-.75617-.21006c-.10886-.00053-.21826.00153-.32671-.00967-.02737-.00282-.07007-.01768.02732.004-.013-.00291-.02651-.00441-.0396-.00711a.63331.63331,0,0,1-.06247-.016l-.03506-.01243c.08768.02768.0559.02479.03033.01088-.01034-.00563-.02005-.01213-.03-.01831-.03995-.02471.06328.05255.02639.01946l-.43745.43745c.192.156.43252.37131.70269.2647a.32937.32937,0,0,0,.18486-.14215.307.307,0,0,0,.03118-.23835l-.27948-.791-.517.301.64808.77832a.31051.31051,0,0,0,.43745,0,.31771.31771,0,0,0,0-.43745l-.64808-.77832a.3104.3104,0,0,0-.37485-.04837.31383.31383,0,0,0-.14215.34932l.27948.791.216-.38051a.15133.15133,0,0,1-.02847.00965l.05325-.00722c-.05189.00444.075.01852.02321.00353-.05473-.01585.06636.03674.01425.00728-.01506-.0085-.03-.01656-.04457-.0259-.01322-.00845-.02964-.02657-.044-.03057l.03382.02634-.02822-.02266c-.02683-.02184-.05323-.04423-.08008-.06605a.33406.33406,0,0,0-.21873-.0906.30933.30933,0,0,0-.21872.528,1.08207,1.08207,0,0,0,.75617.21006c.10887.00053.21826-.00153.32671.00967.02738.00283.07007.01768-.02732-.004.013.00291.02652.00441.03961.00711a.63593.63593,0,0,1,.06246.016l.03507.01243c-.08768-.02767-.0559-.02479-.03034-.01087.01034.00562.02005.01212.03005.0183.04.02471-.06329-.05255-.02639-.01946a.30932.30932,0,0,0,.43744-.43745Z"/><path class="h" d="M76.854,142.24c-.8079.44336-1.5654.97078-2.37379,1.41274a27.95661,27.95661,0,0,1-4.35464,1.79049c-.42439.146-.24205.82384.18648.67643a29.39889,29.39889,0,0,0,4.47487-1.83543c.82591-.44747,1.59752-.98653,2.42113-1.43851.39587-.21725.04232-.82324-.35405-.60572Z"/><path d="M76.0215,107.54035q-7.10972.98448-14.26567,1.55131c-.4471.03506-.45088.73684,0,.70149q7.24983-.56846,14.45215-1.57636c.44523-.06165.25573-.73767-.18648-.67644Z"/><path d="M61.45539,109.47454c-.71288,1.45249-.57548,3.07579-.93019,4.61732-.1011.43938.57508.627.67643.18648.33738-1.46619.18326-3.072.85947-4.44974.19818-.40379-.40661-.75973-.60571-.35406Z"/><path d="M75.90163,108.05091a14.979,14.979,0,0,1-.08149,5.73032c-.09227.44047.58378.62877.67643.18649a15.89935,15.89935,0,0,0,.0815-6.1033c-.08024-.44355-.75641-.25563-.67644.18649Z"/><path d="M76.12718,113.6183l-1.40523.30007a.35325.35325,0,0,0-.245.43145.359.359,0,0,0,.43146.245l1.40522-.30007a.35323.35323,0,0,0,.245-.43145.359.359,0,0,0-.43145-.245Z"/><path class="h" d="M56.76545,144.87237a16.715,16.715,0,0,1,1.00549-4.29731,20.00254,20.00254,0,0,0,.55677-4.50941c.11123-3.00066.10976-6.00578.09255-9.008-.03579-6.24388-.20927-12.48536-.2969-18.72845a.351.351,0,0,0-.70149,0c.08763,6.24309.26111,12.48457.2969,18.72845.01721,3.00224.01868,6.00736-.09255,9.008a19.186,19.186,0,0,1-.66718,4.80124,14.12415,14.12415,0,0,0-.89508,4.00548.351.351,0,0,0,.70149,0Z"/><path d="M54.54094,110.21082a7.94729,7.94729,0,0,1-1.10959,5.0651c-.218.39565.38755.75.60572.35405a8.7086,8.7086,0,0,0,1.1803-5.60564c-.06955-.4447-.74561-.25587-.67643.18649Z"/><path d="M54.43771,109.89184a44.03621,44.03621,0,0,0-12.0241,1.212c-.43853.10631-.25283.78293.18648.67644a43.31654,43.31654,0,0,1,11.83762-1.1869c.45147.01691.45076-.68461,0-.70149Z"/><path d="M42.38315,111.40756a9.62692,9.62692,0,0,1-.53914,3.89256c-.15182.426.52572.6094.67643.18648a10.15062,10.15062,0,0,0,.5642-4.079c-.03018-.448-.7319-.45139-.70149,0Z"/><path d="M53.86819,114.98686a31.45578,31.45578,0,0,1-4.41521.3499c-2.126.139-4.25333.26358-6.37791.424a13.5031,13.5031,0,0,0-1.84857.18518c-.44084.09626-.25428.77268.18648.67644a31.456,31.456,0,0,1,4.41522-.3499c2.126-.139,4.25333-.26358,6.37791-.424a13.5031,13.5031,0,0,0,1.84857-.18518c.44084-.09626.25428-.77268-.18649-.67644Z"/><line class="o" x1="51.77672" y1="100.38239" x2="48.81163" y2="100.9169"/><path d="M51.07091,98.17207a5.36581,5.36581,0,0,0-4.74217,2.70137l.04941.56059,4.663-1.19976.62441.16881Z"/><path d="M70.81511,97.66171c-1.00718.04323-2.00982.16372-3.01185.2691-.49613.05218-.9925.10309-1.48986.14215-.23216.01824-.46468.03477-.69738.04452-.05062.00212-.10117.00416-.15184.0046l.04945.05394q.01852-.06376.04035-.12645c.04958-.15167.10177-.30255.15264-.4538l-.689-.09324a1.08485,1.08485,0,0,0,.3543.97128.7148.7148,0,0,0,.9827-.17155.69564.69564,0,0,0-.21509-.96782.50033.50033,0,0,0-.72648.50747c.02092.81772,1.125.68548,1.64335.56107.33354-.08.66038-.18546.99342-.26743a1.65308,1.65308,0,0,1,.77983-.07331.351.351,0,0,0,.18648-.67643,9.47133,9.47133,0,0,0-2.5983-.07674c-.45142-.01857-.45056.68295,0,.70149a8.909,8.909,0,0,1,2.41182.05168l.18648-.67643a2.98393,2.98393,0,0,0-1.50788.16795c-.25693.07143-.513.14823-.774.20383a2.00311,2.00311,0,0,1-.3447.05c-.053.00191-.11262-.01035-.16393-.00317l-.00608-.00221q-.13077-.07538-.14315.10911h-.35406c.103.0471.03306-.01293.033-.04175-.00016-.11718-.03931-.24224-.03621-.367a.35245.35245,0,0,0-.689-.09324,2.01906,2.01906,0,0,0-.21507.923.60633.60633,0,0,0,.61153.48893,11.27781,11.27781,0,0,0,1.72992-.12262c1.21811-.12011,2.43485-.28288,3.65854-.33541.44971-.0193.45213-.72089,0-.70148Z"/><path class="b" d="M80.89321,152.189c-.01634-.0503-.06925-3.04358-.12031-3.02977l-1.54643.70062c-.012.00324-.90774-.03939-.92-.04073l-32.18634-3.51662c-.04267-.00466-.0835,2.98326-.10121,3.02237l-.9443,2.08712-.00435.01141-1.12891,3.62809H81.82283Z"/><g class="x"><rect class="i" x="29.88624" y="139.8974" width="17.54693" height="16.46863"/></g><path class="b" d="M81.75246,177.82629h0a.09925.09925,0,0,0,.17034.0938l.02352-.02762.00018-.03627A.09925.09925,0,0,0,81.75246,177.82629Z"/><path d="M57.10013,154.64618c.52573-2.0158,1.13885-4.0064,1.77046-5.99111.13722-.43119-.53982-.61576-.67643-.18648-.63161,1.98471-1.24473,3.97531-1.77046,5.9911a.351.351,0,0,0,.67643.18649Z"/><path d="M54.98629,154.73319c.27522-1.14575.47247-2.29258.81923-3.423a13.50259,13.50259,0,0,1,.62942-1.72324c.1479-.31915.36767-.79528.641-.92988.405-.19946.04991-.80468-.35406-.60572a2.204,2.204,0,0,0-.839,1.06828,13.29779,13.29779,0,0,0-.6871,1.79044c-.3808,1.19964-.593,2.41755-.88587,3.63661-.10539.43874.57086.626.67643.18649Z"/><path class="h" d="M36.62782,110.2209a8.83868,8.83868,0,0,1,2.21658,3.28.33268.33268,0,0,0,.39778.22585.32583.32583,0,0,0,.22585-.39778,9.55442,9.55442,0,0,0-2.3829-3.56537c-.30352-.28439-.7618.172-.45731.45731Z"/><path d="M37.54069,100.02365c2.97665-.01212,5.92041-.68925,8.89706-.70137a.28867.28867,0,0,0,0-.577c-2.97665.01212-5.92041.68924-8.89706.70136a.28867.28867,0,0,0,0,.577Z"/><path d="M37.81889,99.81185a.204.204,0,0,0,.01406-.03614c-.01049.07063-.018.04063-.00314.00873.01662-.03565.0333-.07123.05089-.10643.04085-.08173.0844-.16212.12892-.24191.10794-.19338.22213-.38327.3382-.57185.2148-.349.437-.69343.66291-1.03534q.07288-.11033.14649-.22017a.28854.28854,0,1,0-.49821-.29122c-.39274.58363-.77983,1.17535-1.1256,1.78817a4.00235,4.00235,0,0,0-.27091.55277.2909.2909,0,0,0,.2015.35488.29481.29481,0,0,0,.35489-.20149Z"/><path d="M72.86946,94.60156l5.00892,1.199c.33221.07952.474-.43247.14118-.51213l-5.00891-1.199c-.33221-.07952-.474.43246-.14119.51212Z"/><polygon class="q" points="70.022 98.138 73.404 99.423 72.913 96.882 77.783 97.503 76.376 101.013 76.11 106.504 73.676 106.173 72.115 105.383 70.58 103.986 69.9 101.84 70.022 98.138"/><path d="M78.90818,97.44468c-.95534,2.51971-2.00256,3.9543-1.39207,6.579a10.4556,10.4556,0,0,1,.4263,2.11277c-.041.47641-1.66123,1.02731-1.83227.3674-.7165-2.76449-.49782-6.64073.96913-9.091"/><path d="M73.21441,102.74018a13.98334,13.98334,0,0,0,1.87319-1.56179c.59167-.55227,1.16484-1.12432,1.76016-1.67266.27372-.25211-.13512-.65934-.408-.408-.5825.53653-1.14362,1.096-1.722,1.637a13.36023,13.36023,0,0,1-1.79459,1.50724c-.31046.2013-.02157.701.29122.49822Z"/><polygon class="q" points="73.842 92.085 77.311 93.095 80.374 94.168 79.181 92.258 74.637 91.632 72.726 91.626 73.842 92.085"/><path d="M69.792,89.46593c2.16582,2.68235,2.76753,6.61243,3.08075,9.945l.59875-.248c-2.16243-2.10244-5.35318-1.84577-8.08819-2.53042a.35646.35646,0,0,0-.3961.16118,12.53814,12.53814,0,0,0-.96545,4.74l.444-.33821a4.45661,4.45661,0,0,0-3.32895,1.07951c-1.13438.7964-2.126,1.76793-3.21268,2.62387-.35439.27916.145.7725.496.496.92588-.7293,1.77612-1.55032,2.71948-2.25832.85489-.64161,2.00652-1.49208,3.13963-1.26466a.35692.35692,0,0,0,.444-.33822,11.64352,11.64352,0,0,1,.86968-4.386l-.3961.16119c2.57756.64524,5.74244.37031,7.77865,2.35.20131.19573.62846.0681.59875-.248-.33337-3.547-.98442-7.59028-3.2862-10.441-.28365-.3513-.77723.14775-.496.496Z"/><path d="M72.84672,96.82264a40.54245,40.54245,0,0,0,4.0343.72991c.97009.143,1.98156.21355,2.9352.44862.36051.08887.51431-.46741.15339-.55638-.95363-.23507-1.96513-.30562-2.9352-.44862a40.54825,40.54825,0,0,1-4.0343-.72992.28875.28875,0,0,0-.15339.55639Z"/><path d="M71.77638,91.90382c1.4324.39064,2.84445.86821,4.25054,1.34314a36.96832,36.96832,0,0,1,4.20387,1.56663c.33313.16009.62614-.33727.29122-.49822a37.51687,37.51687,0,0,0-4.238-1.5897c-1.44017-.48778-2.88674-.978-4.35428-1.37824a.28875.28875,0,0,0-.15339.55639Z"/><path d="M61.046,114.90525a91.79066,91.79066,0,0,0,13.61824-.36445c.44471-.04559.4494-.74756,0-.70149a91.79066,91.79066,0,0,1-13.61824.36445c-.45131-.0209-.45026.68064,0,.70149Z"/><path d="M57.462,69.48309a3.03971,3.03971,0,0,1-.56793,2.33825,22.692,22.692,0,0,1-1.31942,2.0338c-.18456.26358.24779.51319.4308.25181a20.37732,20.37732,0,0,0,1.42974-2.23938,3.24963,3.24963,0,0,0,.50791-2.51711c-.1161-.29546-.59876-.16682-.4811.13263Z"/><path d="M56.02446,73.22892a1.35773,1.35773,0,0,0-.60979,1.17867,1.49641,1.49641,0,0,0,.706,1.31182,3.14139,3.14139,0,0,0,1.84151.61694,3.37659,3.37659,0,0,0,1.001-.22549,1.98021,1.98021,0,0,0,.80645-.464,1.02693,1.02693,0,0,0,.26518-.88643c-.04053-.28829-.1909-.51618-.51208-.4973-.31912.01875-.32127.5178,0,.49892q.10726.01032-.006-.04617a.06854.06854,0,0,1,.01073.03036.7445.7445,0,0,0,.02657.15237.48228.48228,0,0,1-.08274.32685,1.34535,1.34535,0,0,1-.71058.42923,2.585,2.585,0,0,1-.94619.18323,2.45,2.45,0,0,1-.8589-.22848c-.41194-.17753-.95992-.46676-1.03506-.96-.04862-.31912.03232-.83424.35575-.98977.28925-.13911.03649-.56945-.25182-.43081Z"/><path class="r" d="M66.24835,114.67285S70.868,132.34331,77.031,131.19952s5.35208-7.20183,5.35208-7.20183"/><path class="r" d="M79.7849,97.50253s2.386-3.61343,2.507-3.629"/><path class="r" d="M79.42223,97.635s.71074-3.8335,1.90914-4.08514"/><ellipse class="s" cx="79.93088" cy="103.19637" rx="1.12581" ry="0.60288" transform="translate(-50.52937 98.88825) rotate(-50.34902)"/><ellipse class="s" cx="80.03141" cy="104.7575" rx="1.12581" ry="0.60288" transform="translate(-51.69497 99.53061) rotate(-50.34902)"/><ellipse class="s" cx="80.09398" cy="106.42725" rx="1.12581" ry="0.60288" transform="matrix(0.63811, -0.76995, 0.76995, 0.63811, -52.95795, 100.18305)"/><ellipse class="s" cx="80.14816" cy="108.25884" rx="1.12581" ry="0.60288" transform="translate(-54.34856 100.8876) rotate(-50.34902)"/><ellipse class="s" cx="80.05312" cy="110.05551" rx="1.12581" ry="0.60288" transform="translate(-55.7663 101.46462) rotate(-50.34902)"/><ellipse class="s" cx="80.05715" cy="111.76233" rx="1.12581" ry="0.60288" transform="translate(-57.079 102.0854) rotate(-50.34902)"/><ellipse class="s" cx="80.23851" cy="113.57023" rx="1.12581" ry="0.60288" transform="translate(-58.40535 102.8793) rotate(-50.34902)"/><ellipse class="s" cx="80.30251" cy="115.40361" rx="1.12581" ry="0.60288" transform="translate(-59.79379 103.59207) rotate(-50.34902)"/><ellipse class="s" cx="80.65335" cy="117.3279" rx="1.12581" ry="0.60288" transform="translate(-61.14843 104.55857) rotate(-50.34902)"/><ellipse class="s" cx="80.90782" cy="119.07585" rx="1.12581" ry="0.60288" transform="translate(-62.40216 105.38707) rotate(-50.34902)"/><ellipse class="s" cx="81.2994" cy="120.93205" rx="1.12581" ry="0.60288" transform="translate(-63.68963 106.36031) rotate(-50.34902)"/><path class="s" d="M82.51571,121.91371c.15079.32379-.08986.92-.53752,1.33169s-.9328.48294-1.08359.15915.3634-1.12957.81105-1.54125S82.36491,121.58993,82.51571,121.91371Z"/><ellipse class="s" cx="82.42727" cy="124.17018" rx="1.12581" ry="0.60288" transform="translate(-65.77464 108.40055) rotate(-50.34902)"/><ellipse class="s" cx="83.16155" cy="125.67289" rx="1.12581" ry="0.60288" transform="matrix(0.63811, -0.76995, 0.76995, 0.63811, -66.66592, 109.50972)"/><ellipse class="s" cx="83.83888" cy="126.90714" rx="1.12581" ry="0.60288" transform="translate(-67.3711 110.4779) rotate(-50.34902)"/><path class="t" d="M79.42223,102.43878l.338-6.0169.66111.0733c.18517.03557.34444.30916.34057.585l-.61571,4.82148Z"/><path d="M79.41977,102.84388l.0351.04152q-.02691-.036.0021.00337c.01377.02029.02793.04026.04088.0611.01622.0261.03136.05289.04511.08039.00839.01679.02487.07609.00583.01018.01307.04523.02738.0892.03841.13507.01229.05106-.00352-.066.001.017q.00149.02748.00085.055l-.00174.03616q-.00459.04755.00443-.02325a.35209.35209,0,0,0-.00957.05246,1.12577,1.12577,0,0,1-.03528.1184c-.018.05365.03086-.0596-.002.00406-.00945.0183-.01814.03693-.028.055-.01969.03612-.04138.07116-.06453.10516l-.03047.043c-.029.04153.04234-.05145-.00849.01042q-.038.04627-.07895.09005c-.05081.05459-.10445.10647-.15962.15663-.07732.07028-.162.13379-.2356.208a.2885.2885,0,1,0,.408.408c.08428-.085.18159-.15709.26906-.23882a2.13,2.13,0,0,0,.37242-.44534,1.13873,1.13873,0,0,0,.17652-.635,1.25878,1.25878,0,0,0-.33739-.7566.29.29,0,0,0-.408,0,.29574.29574,0,0,0,0,.408Z"/><path d="M79.70715,104.52436l.03511.04151q-.02691-.036.0021.00337c.01377.02029.02792.04026.04088.0611.01622.02611.03136.0529.0451.0804.0084.01678.02488.07609.00584.01018.01307.04523.02738.08919.03841.13506.01228.05106-.00352-.066.001.017q.00149.02748.00085.055l-.00174.03616q-.00459.04755.00443-.02325a.35339.35339,0,0,0-.00958.05246,1.12387,1.12387,0,0,1-.03527.11839c-.018.05366.03085-.0596-.002.00407-.00945.01829-.01814.03692-.028.055-.0197.03612-.04138.07115-.06453.10515l-.03047.043c-.029.04153.04234-.05146-.00849.01041q-.038.04628-.079.09005c-.05081.05459-.10445.10648-.15962.15663-.07732.07029-.162.1338-.2356.208a.2885.2885,0,0,0,.408.408c.08428-.085.18158-.15709.26906-.23882a2.13014,2.13014,0,0,0,.37242-.44535,1.13869,1.13869,0,0,0,.17652-.635,1.25883,1.25883,0,0,0-.33739-.75661.29.29,0,0,0-.408,0,.29577.29577,0,0,0,0,.408Z"/><path d="M79.86664,106.52485c.02189.02386.04322.04806.0635.07331-.04456-.05548.01228.02046.01961.03206.01106.0175.02161.03536.03142.05358l.018.03542q.01968.04327-.00635-.01626a.85474.85474,0,0,1,.03432.12047c.01185.051-.00445-.07354-.0006.00716q.00119.02466.00041.04936c-.001.03349-.02358.0816.00266.00391-.00663.01963-.00783.04263-.013.06289q-.00594.02331-.01342.04621c-.00855.0263-.0432.07815.00041.00615-.04092.06755-.0733.13738-.11906.20284-.03977.0569.03609-.04243.00018-.00027-.01406.0165-.02771.0333-.04205.04956q-.03711.04206-.0767.08183c-.05125.05171-.10513.10077-.16041.14813-.07918.06784-.16537.12881-.24114.20048a.29108.29108,0,0,0,0,.408.2944.2944,0,0,0,.408,0c.1526-.14435.326-.26085.4675-.41836a1.17542,1.17542,0,0,0,.354-.92916,1.15478,1.15478,0,0,0-.31932-.6253.29068.29068,0,0,0-.408,0,.29482.29482,0,0,0,0,.408Z"/><path d="M79.97581,108.63259a1.03542,1.03542,0,0,1,.079.07931l.01676.01973c.0207.02105-.01946-.02538-.01953-.02559a.32963.32963,0,0,0,.03453.05217c.0075.01271.01377.026.021.03888.02323.04131-.02034-.0615-.00731-.01748.00379.01281.00848.02529.01187.03825.00364.01392.0121.06892.00484.01216-.00715-.0559-.00161-.00793-.0011.00539q.0007.01854-.00017.03708c-.00062.01339-.00621.061.001.00441.00726-.05722-.00067-.00407-.00413.00987-.00347.014-.0076.02784-.01221.04152-.00407.01207-.02215.05637-.0011.0064.0211-.05012.00172-.00564-.004.00576q-.01014.02007-.02151.03948c-.01322.02263-.02762.04457-.04283.06591-.02639.037-.005.00325.01294-.01578-.01072.01136-.02.02451-.03018.03636a1.52945,1.52945,0,0,1-.12413.1269c-.04131.03791-.08468.07312-.12808.10857-.0353.02882.06162-.04633.01248-.00961l-.0301.02256q-.03124.02318-.063.04573c-.08662.06174-.175.12025-.258.187a.28927.28927,0,0,0,0,.408.2969.2969,0,0,0,.408,0c.027-.02176-.07127.05292-.03728.02877l.01983-.01447.04775-.03355c.04022-.028.08056-.05574.12037-.08427a3.26126,3.26126,0,0,0,.326-.26,1.00791,1.00791,0,0,0,.38228-.79408.90034.90034,0,0,0-.306-.57337.2885.2885,0,1,0-.408.408Z"/><path d="M79.96221,110.25947a.93529.93529,0,0,1,.08027.0761c.00825.00894.04243.052.01226.01162-.03038-.04067.0042.00679.01092.01727.00845.01319.01563.0269.02341.04045l.00855.01727c.00169.00235-.02261-.065-.017-.04023.00305.01339.00945.02657.013.03993.0038.01419.01158.06514.004.00691-.00748-.05721-.002-.01279-.00148.00092.00049.013-.00015.0259-.00047.03889-.0014.056.0013-.03356.005-.03275l-.00846.038c-.00341.01271-.00783.025-.01174.03751-.01558.04987.014-.01942.01183-.02667.00421.01391-.0312.05964-.039.07217l-.01976.0302c-.00725.01058-.04067.05455-.00636.0103.033-.04257.00333-.00487-.00472.00468l-.029.03315a1.51039,1.51039,0,0,1-.12416.1205q-.0314.02741-.06391.0535l-.02984.0236c-.00563.00462.05773-.04322.03352-.026l-.01985.01494c-.04245.03165-.08576.06211-.12956.09186-.069.0469-.14154.08981-.208.14042a.317.317,0,0,0-.13258.17241.29486.29486,0,0,0,.02908.22231.29144.29144,0,0,0,.39472.1035c.17581-.13394.36673-.24226.53439-.38854a.964.964,0,0,0,.39374-.762.82371.82371,0,0,0-.30091-.55023.2885.2885,0,0,0-.408.408Z"/><path d="M80.07727,111.77022a1.0078,1.0078,0,0,1,.07751.07578.1553.1553,0,0,0,.02179.02515c.00071.00036-.03585-.05093-.02066-.027.00941.01481.02028.02866.02943.04369.00741.01216.01351.02505.02077.03725.02386.04008-.02123-.0626-.00745-.01959.00608.019.0292.065.02222.08524-.00347.01-.00311-.07781-.00693-.04663-.00069.00566.00112.0122.001.01794l-.00037.03563c-.0006.05483.0088-.02457.00518-.02975.00437.00625-.00776.0378-.01005.04627l-.01055.03423a.17408.17408,0,1,0,.01128-.02395c-.01543.02381-.02552.05216-.04037.07666-.01327.02188-.0283.04237-.04268.06349-.0259.03806.04352-.05242.01318-.01731l-.02992.03508a1.52611,1.52611,0,0,1-.12275.12267q-.03216.0289-.06552.05641l-.03056.02483-.01528.01211c-.026.02143.05479-.04115.02791-.02147-.04235.031-.08418.06256-.12722.09263-.08732.061-.17564.11913-.25941.18507a.28907.28907,0,0,0,0,.408.29727.29727,0,0,0,.408,0c-.00378.003-.07381.05456-.03755.02933l.01953-.014.047-.03233c.03952-.02693.07916-.05367.11834-.08111a3.29231,3.29231,0,0,0,.33272-.26047.98671.98671,0,0,0,.38338-.778.86985.86985,0,0,0-.30394-.56384.2885.2885,0,0,0-.408.408Z"/><path d="M80.25307,113.68287a.8992.8992,0,0,1,.077.06926c.01175.012.0225.02482.03382.03723.02706.0297-.04191-.06121-.00576-.00534l.01882.03171.00807.01581c.01751.02764-.02434-.06839-.01537-.03738l.01046.03139c.004.01407.01268.06943.00462.00843-.00814-.06151-.003.01422-.00254.03356.00091.039.01736-.08326.0042-.03113l-.0085.035c-.00335.01157-.00878.023-.01167.03463-.00507.02044.01651-.04569.019-.04442l-.00911.01942c-.01206.02279-.02425.04517-.0384.06678l-.0193.028c-.02212.03409.049-.05885.01335-.01718-.018.02107-.036.04209-.05512.06216a1.52257,1.52257,0,0,1-.12534.11626l-.0285.02337-.01918.01525c-.01946.016.037-.0264.03429-.02642-.01582-.0001-.05368.04-.06762.05-.04278.03064-.08639.06011-.13043.08891-.06923.04527-.14171.08665-.2085.13553a.31332.31332,0,0,0-.13258.17242.29483.29483,0,0,0,.02908.2223.2917.2917,0,0,0,.39472.1035c.064-.04682.1333-.08656.19969-.12979a3.52285,3.52285,0,0,0,.337-.24708.92929.92929,0,0,0,.39871-.73911.77311.77311,0,0,0-.29695-.5311.31141.31141,0,0,0-.204-.0845.2885.2885,0,0,0-.204.49249Z"/><path d="M80.39781,115.16769c.02135.02246.04148.04572.06191.069q.03046.03781-.00535-.0071l.02345.034q.01887.02874.0353.05894l.0131.02507q.01987.04263-.00675-.01916a.294.294,0,0,0,.0224.06554.40077.40077,0,0,0,.01444.06454c-.01179-.02341-.00628-.06767-.00332-.01321a.5817.5817,0,0,1,0,.06236c-.00416.07856.01242-.04988.00134-.00043-.00336.015-.006.02993-.00981.04481-.005.01977-.011.03931-.01778.05857-.0256.07294.02257-.04249,0,.00232-.01641.03255-.03267.0647-.0518.09582q-.01646.02678-.03445.05257c-.00562.00809-.04772.06387-.01487.02165.03289-.04229-.01081.01254-.01712.02q-.02035.02409-.04164.04735c-.02451.02685-.04989.05291-.07588.07832-.05253.05134-.10769.09992-.16423.14678-.0797.06607-.16608.12526-.24252.1951a.29065.29065,0,0,0,0,.408.2949.2949,0,0,0,.408,0c.15432-.141.32852-.25435.472-.40866a1.13482,1.13482,0,0,0,.36121-.87209,1.10658,1.10658,0,0,0-.31962-.638.29116.29116,0,0,0-.408,0,.29434.29434,0,0,0,0,.408Z"/><path d="M80.863,117.38305c.01934.01829.03835.03684.0564.05641l.02488.02807q.02946.036-.0118-.01645c.00369.01658.02812.04036.03722.05553a.59263.59263,0,0,0,.02937.05506q-.02811-.06933-.012-.028l.00917.02711c.00544.01775.00905.0357.01319.05376.01074.04694-.00132-.08253-.00295-.01045-.00039.0171-.00144.03511-.00091.05216.00146.04674.019-.08161.00134-.01263-.0043.01681-.00783.03366-.01293.05028a.29775.29775,0,0,0-.0176.04934q.03139-.07268.013-.03256l-.01193.02391a.85609.85609,0,0,1-.05659.09292c-.01387.02-.05916.06625.00358-.00269-.01256.0138-.02371.02907-.036.04316a1.70557,1.70557,0,0,1-.15991.15888q-.04109.03615-.0838.07038c-.01365.011-.02822.02121-.04142.03272.07363-.06421.02662-.02067.00787-.00664-.09707.07266-.199.1391-.2925.21653a.28955.28955,0,0,0,0,.408.2964.2964,0,0,0,.408,0c.04341-.036-.06678.049-.01957.015l.04826-.0349c.04095-.02927.082-.05835.12255-.08822a3.19467,3.19467,0,0,0,.32575-.26664,1.03545,1.03545,0,0,0,.37651-.8086.94375.94375,0,0,0-.30928-.58943.28849.28849,0,0,0-.408.408Z"/><path d="M81.0363,118.96252c.01957.01882.0388.03791.057.058l.02515.02887q.02939.0363-.01145-.01528c-.00115.00968.03174.04717.03756.05706.01038.01761.0176.04028.0296.05653q-.02787-.06849-.01187-.0269l.00921.02781c.00545.01821.0091.03661.01319.05513.01044.04726-.001-.08166-.00306-.00881-.00049.0175-.00158.036-.00109.05342.00132.047.019-.08085.001-.01112-.00442.01718-.008.03442-.01324.05141a.25247.25247,0,0,0-.01795.05043q.03111-.072.01277-.03178l-.01213.02442a.8785.8785,0,0,1-.05744.0948c-.01348.01952-.0592.068.003-.00163-.011.01236-.02095.0259-.03175.03851a1.69409,1.69409,0,0,1-.15547.15747q-.04125.037-.08423.07211l-.04169.03352c-.056.045.04552-.03391.00751-.00572-.09818.07279-.20079.14171-.29436.22042a.28969.28969,0,0,0,0,.408.29616.29616,0,0,0,.408,0l.0164-.01338c.01374-.00975-.07026.05265-.03571.02772l.04866-.03567c.03965-.02875.07943-.0573.11868-.08661a3.187,3.187,0,0,0,.327-.27069,1.05706,1.05706,0,0,0,.37581-.81621.95976.95976,0,0,0-.31122-.59985.2885.2885,0,0,0-.408.408Z"/><path d="M81.45314,120.94763a.94476.94476,0,0,1,.08094.0775c.00806.00884.04291.05238.0125.01236-.03044-.04008.00443.00755.01112.0181.00848.0134.01575.02734.0235.04115l.00857.01757c.00134.00195-.022-.06448-.017-.03974.00236.01163.00818.02328.01138.03481.004.01442.01343.07334.00546.01344-.0079-.05943-.00218.017-.002.03543.00054.05363.01425-.0647.00447-.02646-.00326.01276-.00528.02581-.00874.03855l-.01016.03265c-.01391.04739.02038-.04093.01195-.026-.01362.02413-.02441.04956-.03894.07333-.01345.022-.034.04287-.04493.06583.00962-.02014.04394-.05509.01389-.019l-.02923.03362a1.51139,1.51139,0,0,1-.12488.12221q-.02918.02563-.05933.05012l-.035.02794c-.02324.0189.03922-.02982.03336-.02574l-.02.01511q-.062.04589-.12554.08967c-.06959.04768-.14277.09124-.20971.14264a.3177.3177,0,0,0-.13259.17241.29486.29486,0,0,0,.02909.22231.29137.29137,0,0,0,.39471.1035c.17519-.1345.366-.24318.533-.39a.97724.97724,0,0,0,.394-.765.82828.82828,0,0,0-.30195-.55629.2885.2885,0,0,0-.408.408Z"/><path d="M81.78026,122.50551c.01972.019.0391.03831.05748.05865l.02531.02917q.02942.03641-.01126-.01484a.782.782,0,0,0,.06735.11475q-.02779-.06816-.01191-.02648l.00915.02808c.00532.01811.00709.03792.013.05566-.02637-.07908-.00443-.04341-.0034-.00817.00052.018-.00171.036-.00144.05391.00072.04712.01921-.0804.00052-.01055-.00464.01731-.00834.03472-.01371.05185a.19817.19817,0,0,0-.01342.03823q.03112-.07177.01316-.03129l-.01191.02475a.86261.86261,0,0,1-.05684.09606c-.01064.0157-.02259.0305-.03319.04618.05265-.07788.01506-.02014,0-.00252a1.71187,1.71187,0,0,1-.162.16359q-.03646.03255-.07427.06357l-.042.034c-.05613.04539.04506-.03359.00705-.0052-.09876.07376-.20234.143-.29664.22252a.28973.28973,0,0,0,0,.408.29614.29614,0,0,0,.408,0c.0481-.04054-.04646.03391-.019.014l.04914-.03609c.04005-.02909.08024-.058.11986-.08769a3.1468,3.1468,0,0,0,.329-.27368,1.04956,1.04956,0,0,0,.37079-.81746.96969.96969,0,0,0-.31089-.597.2885.2885,0,0,0-.408.408Z"/><path d="M82.39239,124.15689a1.03453,1.03453,0,0,1,.079.07937l.01676.01975c.02069.02107-.01945-.02537-.01952-.02558a.32579.32579,0,0,0,.03454.05222c.0075.01272.01378.026.021.0389.02322.04133-.02034-.06148-.00731-.01745.00379.01282.00848.02532.01187.03828.00365.01392.01211.069.00485.01219-.00714-.05588-.0016-.00789-.00109.00542q.0007.01856-.00016.03711c-.00063.01339-.00622.061.001.00443.00727-.05721-.00067-.004-.00412.0099-.00348.014-.00761.02786-.01221.04154-.00406.01209-.02215.05638-.0011.00643.02113-.05011.00172-.00561-.004.00578q-.01014.02008-.0215.03951c-.01322.02264-.02762.04459-.04283.06594-.02636.037-.005.00332.013-.01575-.01071.01138-.02.02451-.03018.03637a1.5286,1.5286,0,0,1-.12412.127c-.0413.03793-.08468.07314-.12807.10862-.03528.02884.06161-.04634.01249-.00959l-.0301.02257q-.03124.02319-.063.04574c-.0866.06177-.175.12029-.258.18707a.28927.28927,0,0,0,0,.408.29689.29689,0,0,0,.408,0c.02705-.02176-.07125.05293-.03728.02877l.01984-.01449.04775-.03356c.04021-.028.08054-.05577.12036-.08431a3.262,3.262,0,0,0,.326-.2601,1.00845,1.00845,0,0,0,.38221-.79441.90113.90113,0,0,0-.306-.57363.2885.2885,0,1,0-.408.408Z"/><path d="M83.08036,125.61822c.01937.01843.03841.03712.05649.05683l.02493.02829q.02942.03608-.01173-.01615c.00214.01514.029.042.0373.05593a.59156.59156,0,0,0,.02945.05544q-.028-.06909-.01191-.02769l.0092.02729c.00547.01787.0091.03594.01327.05411.01077.047-.00134-.08234-.00286-.01-.00036.01719-.00144.03535-.00084.05249.00165.04682.01892-.08148.00142-.01223-.00427.0169-.00778.03385-.01286.05057a.265.265,0,0,0-.01755.04963q.03136-.07254.0131-.03236l-.0119.02405a.859.859,0,0,1-.05649.09343c-.01347.01954-.05876.06793.00364-.00239-.01243.014-.02366.0292-.03594.04338a1.70382,1.70382,0,0,1-.15975.15967q-.041.03631-.08372.07071c-.01356.011-.02859.021-.04139.03287.07028-.0649.02749-.0212.00791-.00646-.09695.07295-.199.13957-.29234.21729a.28962.28962,0,0,0,0,.408.29631.29631,0,0,0,.408,0c.04334-.03611-.06672.04909-.01961.01485l.04824-.03506c.04092-.0294.082-.0586.12246-.08861a3.186,3.186,0,0,0,.32554-.26768,1.04075,1.04075,0,0,0,.37578-.812.952.952,0,0,0-.30984-.59216.2885.2885,0,1,0-.408.408Z"/><path d="M83.67029,126.7531c.02091.02161.0404.0443.06071.06644q.03041.03739-.006-.009l.02308.03274c.02018.03008.03723.09019.0631.11314q-.02616-.06372-.01-.02119l.0102.03156a.54018.54018,0,0,0,.01464.06241q-.00912-.07647-.00411-.03052l.002.03046q.00083.02259-.00017.04521c-.00337.07709.01451-.051.00226-.00276-.00485.01913-.0077.03872-.01289.05783-.0052.01918-.012.03769-.0181.05658-.01674.05188.02882-.05956.00625-.01366a1.1487,1.1487,0,0,1-.05792.1063q-.01634.02593-.03412.05092c-.0394.05551.01523-.0166.00338-.003a2.61,2.61,0,0,1-.31782.31129c-.02491.02032-.05017.04019-.07543.06007-.054.04254.04838-.0371.01235-.00948l-.02959.02275c-.05043.03883-.10312.07666-.15061.11934a.29042.29042,0,0,0,0,.408.29512.29512,0,0,0,.408,0l.03143-.02667.023-.01823c.03693-.02947-.00908.00714-.0246.01891q.08438-.064.16746-.1297a2.58661,2.58661,0,0,0,.27786-.24942,1.116,1.116,0,0,0,.3617-.85774,1.074,1.074,0,0,0-.3179-.63058.2885.2885,0,0,0-.408.408Z"/><polygon class="i" points="80.357 149.348 80.357 152.401 81.451 155.051 81.823 155.051 80.863 151.441 80.773 149.159 80.357 149.348"/><path class="u" d="M64.95026,108.395l-.32422.0332.0957-.4541.12207-.01269a.67544.67544,0,0,0,.27637-.07813.386.386,0,0,0,.14844-.16309.60519.60519,0,0,0,.05273-.25488c.002-.10156.002-.25586-.00195-.46484l-.00391-.0332a.36584.36584,0,0,0-.04883-.16211.22012.22012,0,0,0-.10254-.08594.46778.46778,0,0,0-.208-.01172l-.86719.09082-.13086-1.23926.55371-.05859.084.80078.39161-.041a.90518.90518,0,0,1,.61621.10743.6543.6543,0,0,1,.251.499l.00684.09668.00781.4707a.932.932,0,0,1-.21972.67578A1.0983,1.0983,0,0,1,64.95026,108.395Z"/><path class="u" d="M66.77643,105.65869l-.10742.78125-.47071.04883.24317-.79492Zm.71289-.07422-.11328.78028-.46485.0498.24414-.79492Z"/><path class="u" d="M70.12506,107.8501l-.55371.05859-.123-1.168a.56393.56393,0,0,0-.15918-.36523.48914.48914,0,0,0-.40722-.09961,2.64111,2.64111,0,0,0-.31446.05273q-.167.03808-.54785.15235l-.00293-.4541a4.25866,4.25866,0,0,1,.9375-.2129.86007.86007,0,0,1,1.0459.84766Zm-1.35254.14258-.55469.05859-.127-1.207.52735-.32715Z"/><path class="u" d="M70.5069,107.356l1.04883-.11035-1.22266-1.34278.47851-.30469.78223.86329a.64776.64776,0,0,0,.06934-.207,1.08026,1.08026,0,0,0-.002-.2871l-.043-.4043.54589-.05664.04688.44531a.925.925,0,0,1-.04785.42578,1.35141,1.35141,0,0,1-.28907.41992l.38477.43848-.04785.39551-1.76074.18457Z"/><path class="f" d="M84.433,154.93768s-.86767,2.08051,1.34156,2.01591l1.108-.84048"/><path class="f" d="M86.632,156.25847s-.86767,2.08051,1.34156,2.01591l1.108-.84048"/><path class="f" d="M80.87694,158.80965s-.86767,2.08051,1.34155,2.01591l1.108-.84048"/><path class="f" d="M78.68865,157.801s-.86767,2.08052,1.34156,2.01591l1.108-.84047"/><path class="f" d="M86.08168,151.49709s-.16434-2.727,1.2881-2.92863,1.71173-.80229,1.71173-.80229"/><line class="y" x1="191.58613" y1="145.58284" x2="200.8737" y2="123.21604"/><polyline class="z" points="198.661 142.567 191.466 145.912 187.911 138.268"/><line class="y" x1="125.87839" y1="146.6022" x2="116.59083" y2="124.23541"/><polyline class="z" points="118.804 143.586 125.999 146.932 129.553 139.287"/></svg>