<svg xmlns="http://www.w3.org/2000/svg" viewBox="0 0 81 123.13908"><defs><style>.a{fill:#747c58;}.b{fill:#999;}.c{fill:#9fa0a6;}.d{fill:gray;}.e{fill:#ccc;}</style></defs><rect class="a" x="5.45937" y="39.42877" width="69.75859" height="83.71031" rx="12"/><rect class="b" x="23.05067" y="52.77389" width="35.1826" height="55.20028" rx="12"/><rect class="c" x="69.75859" y="42.15846" width="11.24141" height="18.19788" rx="5.6207"/><rect class="c" x="69.75859" y="62.17615" width="11.24141" height="18.19788" rx="5.6207"/><rect class="c" x="69.75859" y="102.81811" width="11.24141" height="18.19788" rx="5.6207"/><rect class="c" y="42.15846" width="11.24141" height="18.19788" rx="5.6207"/><rect class="c" y="62.17615" width="11.24141" height="18.19788" rx="5.6207"/><rect class="c" y="82.19383" width="11.24141" height="18.19788" rx="5.6207"/><rect class="d" x="38.21558" y="3.03298" width="4.85277" height="67.93881" rx="2.42638"/><rect class="d" x="36.39579" width="8.49235" height="5.45937" rx="2.72968"/><rect class="d" x="36.39579" y="37.00238" width="8.49235" height="27.90344" rx="4.24617"/><rect class="e" x="30.93642" y="60.05305" width="19.41109" height="38.82217" rx="9.70553"/><rect class="c" y="102.81811" width="11.24141" height="18.19788" rx="5.6207"/><rect class="c" x="69.75859" y="82.19383" width="11.24141" height="18.19788" rx="5.6207"/></svg>