<svg xmlns="http://www.w3.org/2000/svg" xmlns:xlink="http://www.w3.org/1999/xlink" viewBox="0 0 222.66748 273.79957"><defs><style>.a{fill:#cab192;}.b{fill:#747c58;}.c{fill:#ededed;}.d{fill:#cecece;}.e{fill:#fff;}.f{fill:#080808;}.g{fill:#27421d;}.h{fill:#54593e;}.i,.j,.p,.q,.t{fill:none;}.i,.j,.t{stroke:#000;}.i,.j,.o,.p,.q,.t{stroke-linecap:round;}.i,.j,.q,.t{stroke-miterlimit:10;}.i{stroke-width:1.38334px;}.j{stroke-width:1.10591px;}.k{clip-path:url(#a);}.l{fill:#271d1d;}.m{clip-path:url(#b);}.n{fill:#707171;}.o{fill:#284220;}.o,.p,.q{stroke:#27421d;stroke-width:2px;}.o,.p{stroke-linejoin:round;}.r{fill:#525222;}.s{fill:#231f20;}</style><clipPath id="a"><polygon class="a" points="161.15 84.467 158.529 72.43 159.874 70.083 164.3 66.717 166.169 58.354 161.754 55.884 155.27 39.814 140.937 37.057 128.443 43.446 128.452 60.945 126.551 63.444 129.526 71.502 130.995 72.413 131.76 77.053 135.937 80.906 137.64 90.616 133.586 97.905 141.581 115.057 153.282 118.214 165.356 100.219 170.774 88.623 161.15 84.467"/></clipPath><clipPath id="b"><polygon class="b" points="182.489 174.385 174.809 177.464 155.114 175.975 130.897 174.092 129.716 172.262 130.897 168.244 119.171 127.101 110.703 113.569 114.501 100.771 131.979 92.275 137.281 86.549 137.623 89.956 137.246 95.875 146.623 111.813 161.389 91.731 161.23 82.147 166.399 86.612 186.137 94.963 187.618 122.559 185.218 131.079 182.489 174.385"/></clipPath></defs><circle class="c" cx="111.3335" cy="113.67921" r="108.83386"/><path class="d" d="M111.3335,7.34553c58.48339,0,106.334,47.85008,106.334,106.33358v.00023c0,58.48346-47.85059,106.33357-106.334,106.33357S5,172.1628,5,113.67934v-.00023C5,55.19561,52.8501,7.34553,111.3335,7.34553m0-5A111.20484,111.20484,0,0,0,32.7002,192.31291,111.20489,111.20489,0,1,0,189.96729,35.04549a110.54265,110.54265,0,0,0-78.63379-32.7Z"/><path class="e" d="M44.39307,266.281a.68982.68982,0,0,1-.20118-.51123v-9.269q0-5.3313-5.30078-5.332H33.12549a.72529.72529,0,0,1-.51172-.186.64051.64051,0,0,1-.20117-.49609v-.9917a.68915.68915,0,0,1,.71289-.71338h5.91992q7.875,0,7.875,7.626v9.3623a.72729.72729,0,0,1-.18555.51123.64515.64515,0,0,1-.49609.20166h-1.334A.692.692,0,0,1,44.39307,266.281Zm-11.7793,0a.68981.68981,0,0,1-.20117-.51123v-10.416a.68838.68838,0,0,1,.71289-.71289h1.30176a.68987.68987,0,0,1,.71289.71289v10.416a.69061.69061,0,0,1-.71289.71289H33.12549A.69208.69208,0,0,1,32.61377,266.281Z"/><path class="e" d="M60.54443,249.58765a4.84538,4.84538,0,0,1,2.40235,2.57325,12.35088,12.35088,0,0,1,.74414,4.71191,9.04287,9.04287,0,0,1-1.95313,6.18457,11.50763,11.50763,0,0,1-5.084,3.27051l-1.30176.43359a.53745.53745,0,0,1-.2168.03125.558.558,0,0,1-.55859-.58887v-1.36425a.76776.76776,0,0,1,.18555-.48047,1.19687,1.19687,0,0,1,.49609-.35645l1.209-.46484a7.14535,7.14535,0,0,0,3.2871-2.3252,7.33758,7.33758,0,0,0,1.14649-4.46386,8.7499,8.7499,0,0,0-.49609-3.27051,3.16454,3.16454,0,0,0-1.627-1.72071,7.53244,7.53244,0,0,0-3.11621-.52685H54.60791l-2.85156-.03125a.72364.72364,0,0,1-.51172-.186.63944.63944,0,0,1-.20117-.4956v-5.332a.68838.68838,0,0,1,.71289-.71289h1.24023a.64294.64294,0,0,1,.49512.20117.72646.72646,0,0,1,.18652.51172v3.5957h2.38672A10.37415,10.37415,0,0,1,60.54443,249.58765Z"/><path class="e" d="M81.85693,265.86256a.6367.6367,0,0,1-.62011.62011H79.84229a.80834.80834,0,0,1-.6211-.23242c-.14453-.15527-.22656-.24268-.24805-.26367l-7.06738-9.95068a5.06233,5.06233,0,0,0-1.81347,2.29394,8.26971,8.26971,0,0,0-.48047,2.88281v4.55713a.68914.68914,0,0,1-.71289.71289H67.75244a.69067.69067,0,0,1-.71387-.71289v-4.68115a10.51994,10.51994,0,0,1,.69825-3.999A6.98783,6.98783,0,0,1,70.48,254.02076l-2.88379-4.03028a1.15072,1.15072,0,0,1-.2168-.58886.63674.63674,0,0,1,.62012-.62012h1.36426a1.06078,1.06078,0,0,1,.86816.52734l6.50977,9.083a5.18539,5.18539,0,0,0,1.62793-1.36426,3.47113,3.47113,0,0,0,.63476-1.41064,10.78094,10.78094,0,0,0,.125-1.81348v-4.30859a.68917.68917,0,0,1,.7129-.71338h1.209a.69064.69064,0,0,1,.71289.71338v4.43262a8.35366,8.35366,0,0,1-.71289,3.62695,7.05616,7.05616,0,0,1-2.91406,2.79l3.502,4.9292A.94755.94755,0,0,1,81.85693,265.86256Z"/><path class="e" d="M97.34131,249.69605a6.26672,6.26672,0,0,1,2.35644,2.61963,8.912,8.912,0,0,1,.85157,4.02979v9.42431a.68914.68914,0,0,1-.71289.71289h-7.998a.68912.68912,0,0,1-.71289-.71289v-.99219a.68912.68912,0,0,1,.71289-.71289h5.9834v-7.5332a5.887,5.887,0,0,0-1.19336-3.82812,3.72949,3.72949,0,0,0-3.02246-1.47266H90.3501l-2.418,14.50781a.8365.8365,0,0,1-.24805.52735.71717.71717,0,0,1-.52637.21679H85.856a.57512.57512,0,0,1-.48047-.21679.7048.7048,0,0,1-.13965-.52735l2.47949-14.50781H86.13525a.68914.68914,0,0,1-.71289-.71289v-1.023a.68917.68917,0,0,1,.71289-.71338h7.78028A6.465,6.465,0,0,1,97.34131,249.69605Z"/><path class="e" d="M122.62158,248.96754a.717.717,0,0,1,.18555.52734v8.61768a9.43127,9.43127,0,0,1-1.06934,4.57275,7.2725,7.2725,0,0,1-3.00683,3.00684,8.79906,8.79906,0,0,1-4.44922.97656h-2.293a7.06661,7.06661,0,0,1-3.59668-.93018,6.66122,6.66122,0,0,1-2.542-2.61914,7.94472,7.94472,0,0,1-.92969-3.89062v-9.73389a.68915.68915,0,0,1,.71289-.71338h1.209a.68917.68917,0,0,1,.71289.71338l.09375,8.80371a5.57348,5.57348,0,0,0,3.93652-1.519,5.05986,5.05986,0,0,0,1.11621-3.40967v-3.875a.72578.72578,0,0,1,.18555-.51172.64255.64255,0,0,1,.49609-.20166h1.209a.68917.68917,0,0,1,.71289.71338v3.999a6.69589,6.69589,0,0,1-1.89063,4.89795,8.059,8.059,0,0,1-5.54883,2.10791,4.90415,4.90415,0,0,0,1.84375,2.77442,5.37611,5.37611,0,0,0,3.24024.97656h.99218a5.91974,5.91974,0,0,0,4.5879-1.70508,6.44564,6.44564,0,0,0,1.64257-4.61914v-8.43164a.68917.68917,0,0,1,.71289-.71338h1.209A.71628.71628,0,0,1,122.62158,248.96754Z"/><path class="e" d="M147.99463,248.98316a.6963.6963,0,0,1,.20117.51172v.9917a.6439.6439,0,0,1-.20117.49609.72529.72529,0,0,1-.51172.186h-1.8291a3.40119,3.40119,0,0,0-.69727,1.457,8.70132,8.70132,0,0,0-.26367,2.23193v10.94287a.62348.62348,0,0,1-.2168.4961.78486.78486,0,0,1-.52636.186H142.647a.63948.63948,0,0,1-.68164-.68213v-11.1289a9.38381,9.38381,0,0,1,.2168-2.16992,3.21358,3.21358,0,0,1,.58887-1.333h-8.55567a.72529.72529,0,0,1-.51172-.186.64055.64055,0,0,1-.20117-.49609v-.9917a.68915.68915,0,0,1,.71289-.71338h13.26758A.694.694,0,0,1,147.99463,248.98316Z"/><path class="e" d="M152.24072,266.281a.68985.68985,0,0,1-.20117-.51123v-16.2749a.68915.68915,0,0,1,.71289-.71338h1.36426a.69064.69064,0,0,1,.71289.71338v16.2749a.69061.69061,0,0,1-.71289.71289h-1.36426A.69208.69208,0,0,1,152.24072,266.281Z"/><path class="e" d="M172.856,248.98316a.6963.6963,0,0,1,.20117.51172v.9917a.6439.6439,0,0,1-.20117.49609.72529.72529,0,0,1-.51172.186h-1.8291a3.40119,3.40119,0,0,0-.69727,1.457,8.70132,8.70132,0,0,0-.26367,2.23193v10.94287a.62348.62348,0,0,1-.2168.4961.78489.78489,0,0,1-.52636.186H167.5083a.63948.63948,0,0,1-.68164-.68213v-11.1289a9.38381,9.38381,0,0,1,.2168-2.16992,3.21372,3.21372,0,0,1,.58886-1.333h-8.55566a.72529.72529,0,0,1-.51172-.186.64055.64055,0,0,1-.20117-.49609v-.9917a.68915.68915,0,0,1,.71289-.71338h13.26758A.694.694,0,0,1,172.856,248.98316Z"/><path class="e" d="M176.88525,259.08912a.69062.69062,0,0,1-.20117-.51123v-9.083a.68915.68915,0,0,1,.71289-.71338h1.36328a.69069.69069,0,0,1,.71387.71338v9.083a.69067.69067,0,0,1-.71387.71289H177.397A.69212.69212,0,0,1,176.88525,259.08912Z"/><path class="e" d="M195.26807,256.64039a6.33667,6.33667,0,0,1-2.89844,2.58838l3.22461,4.6499a1.48778,1.48778,0,0,1,.37109.93017v.96094a.68912.68912,0,0,1-.71289.71289H184.09229a.68914.68914,0,0,1-.7129-.71289v-.99219a.67983.67983,0,0,1,.20118-.52685.7253.7253,0,0,1,.51172-.186h8.43164l-9.70215-14.07422a1.05791,1.05791,0,0,1-.248-.58886.5759.5759,0,0,1,.20117-.43408.6465.6465,0,0,1,.4502-.186h1.39453a.99831.99831,0,0,1,.83691.49609l5.54883,7.99805q2.63526-1.23926,2.63574-5.084v-2.69678a.68023.68023,0,0,1,.20118-.52734.7236.7236,0,0,1,.51171-.186h1.209a.64543.64543,0,0,1,.49609.20166.73018.73018,0,0,1,.18555.51172v3.0376A8.09021,8.09021,0,0,1,195.26807,256.64039Z"/><polyline class="a" points="61.005 128.58 57.856 135.849 52.643 139.211 46.583 138.394 32.818 133.508 22.84 132.679 20.031 131.692 16.77 132.022 15.661 133.155 12.139 136.132 11.185 134.914 11.508 131.854 14.89 128.682 18.79 126.737 18.633 124.063 17.712 116.811 17.998 115.526 20.337 114.343 22.177 114.806 22.77 113.452 24.601 113.107 26.457 112.475 28.855 113.322 30.426 112.377 33.692 113.036 36.242 117.62 39.127 118.515 40.475 120.218 41.108 122.678"/><path class="f" d="M28.082,123.38767c-.2852-1.13016-.88168-2.14811-1.1767-3.2734a19.41,19.41,0,0,1-.261-2.12839q-.16692-1.15405-.41341-2.296a5.6561,5.6561,0,0,0-.527-1.716.84128.84128,0,0,0-1.45175.84858c.11556.191-.02152-.13021.04429.09706.03616.12484.07761.24781.11179.37337.08928.328.16324.66027.23309.99289q.23291,1.10911.394,2.23239c.02294.16047-.00345-.03322.0071.05319.0084.0688.01707.13757.02439.2065.01021.09623.01984.19258.02447.28928a7.13994,7.13994,0,0,0,.19275,1.49408c.29608,1.12509.89149,2.14317,1.1767,3.2734a.84137.84137,0,0,0,1.62124-.447Z"/><path class="f" d="M20.77266,115.44641c.36122,1.41288.57321,2.87318.81092,4.31039.285,1.723.56,3.451.76356,5.18356a.86654.86654,0,0,0,.84065.84065.84583.84583,0,0,0,.84064-.84065c-.21612-1.83972-.50122-3.67232-.80205-5.49984-.24373-1.48064-.46037-2.98562-.83248-4.44107a.84137.84137,0,0,0-1.62124.447Z"/><path class="f" d="M28.50278,114.89c.04069.07326.07627.14834.11248.22382.01527.03185.075.17867.01184.024q.02966.07264.05793.14585c.09864.254.18791.51166.27273.77053.18415.562.34956,1.13159.48448,1.70753a15.6682,15.6682,0,0,0,.48362,1.797,8.0502,8.0502,0,0,1,.5681,1.966.86335.86335,0,0,0,.84065.84065.84682.84682,0,0,0,.84065-.84065,8.79014,8.79014,0,0,0-.56871-2.25029,16.58319,16.58319,0,0,1-.54307-1.95965,12.88439,12.88439,0,0,0-1.109-3.27331c-.52542-.94609-1.97806-.09911-1.45175.84858Z"/><path class="f" d="M25.16431,132.85111a6.53067,6.53067,0,0,0,2.56819-.713,3.00323,3.00323,0,0,0,1.04289-1.033,9.10856,9.10856,0,0,0,.57036-1.44359.84436.84436,0,0,0-.58714-1.0341.864.864,0,0,0-1.0341.58714c-.076.2-.13968.40417-.20924.60645a.94322.94322,0,0,1-.1005.27268q.06652-.15407.02781-.06793-.01764.03954-.03688.07834-.03189.06471-.06773.12735c-.024.04188-.04906.0831-.076.12315q-.01992.03-.04128.05891-.05658.07746.059-.07613a1.42679,1.42679,0,0,0-.159.17168c-.03363.03228-.06869.06242-.10367.09321-.10771.09481.12615-.0882.04194-.03153-.07118.04789-.141.09638-.21538.13943-.068.03938-.13793.07569-.209.10929-.07512.03552-.1735.03795.02592-.00816a.99371.99371,0,0,0-.11236.0433,4.708,4.708,0,0,1-.49112.149c-.17646.04385-.35486.07949-.534.11031q-.12177.02094-.244.039c-.04852.00725-.09709.01408-.14565.021-.15941.02272.2015-.02651.031-.00413a.92484.92484,0,0,0-.59443.24622.84064.84064,0,0,0,0,1.18885.8049.8049,0,0,0,.59443.24622Z"/><path class="f" d="M31.69081,131.2583a11.03951,11.03951,0,0,0,3.61419-3.19407.84833.84833,0,0,0-.30158-1.15017.85843.85843,0,0,0-1.15017.30159c-.04792.07608-.097.15135-.14846.22509q-.03844.05509-.07827.10919c-.10728.14594.01081-.02445.01775-.02075-.00385-.002-.32064.37394-.35011.40525a8.04148,8.04148,0,0,1-.792.72884c-.05309.04308-.28421.20563-.08574.0698-.0746.05106-.145.10936-.218.16273q-.20916.15283-.42333.29864c-.30705.21-.61982.41134-.93291.61211a.84078.84078,0,1,0,.84858,1.45175Z"/><path class="f" d="M37.11571,126.44832l.209-3.96523h-1.6813q.07971.84769.15938,1.6954c.02371.25541.04648.51118.05121.76779a2.52278,2.52278,0,0,1-.05489.67771c-.02384.09723-.05766.19-.08833.285.047-.14551-.04428.08678-.07221.137-.04848.08723-.10346.16968-.15951.25212.08362-.123-.0692.079-.10595.1178-.06869.0725-.14222.13918-.21705.20519-.1151.10154.04059-.02319-.0374.02717-.04181.027-.08255.05536-.12508.08132-.08532.05209-.17394.09539-.26295.14043-.10755.05442.11115-.02784-.00625-.00022-.05925.01393-.1195.03926-.178.05614a.84086.84086,0,0,0,.447,1.62124,3.54834,3.54834,0,0,0,2.364-2.26142,4.52678,4.52678,0,0,0,.15213-1.81992c-.05279-.66154-.12263-1.32209-.18475-1.98282a.84065.84065,0,1,0-1.6813,0l-.209,3.96523a.84615.84615,0,0,0,.84065.84064.85937.85937,0,0,0,.84065-.84064Z"/><path class="f" d="M20.50756,130.21716c-.07166-.13-.14076-.26136-.20583-.39482q-.05577-.11435-.108-.23038-.02611-.058-.05135-.1164l.03517.08365a5.58784,5.58784,0,0,1-.30548-.86988,8.41313,8.41313,0,0,1-.203-.86673c-.01308-.07307-.024-.14646-.03637-.21964q-.02066-.14307.00358.03448-.00614-.04731-.01155-.09471c-.01843-.158-.03176-.31644-.04167-.47522a.84065.84065,0,0,0-1.6813,0,9.47527,9.47527,0,0,0,1.15409,3.99823.84883.84883,0,0,0,1.15017.30158.85791.85791,0,0,0,.30158-1.15016Z"/><polygon points="150.221 51.603 149.88 49.36 143.828 49.353 142.844 51.114 150.221 51.603"/><path class="g" d="M185.88516,142.27487a41.02725,41.02725,0,0,0-6.25213-25.08531c-.4757-.74963-1.67335-.05644-1.19447.6982a39.77571,39.77571,0,0,1,6.06326,24.38711c-.06874.88775,1.31494.8833,1.38334,0Z"/><polygon class="b" points="185.611 173.952 201.218 155.934 203.874 150.79 192.882 147.993 182.755 152.866 165.618 174.948 165.624 177.681 178.781 177.761 179.447 177.053 185.611 173.952"/><polygon class="b" points="187.196 94.46 203.874 150.79 197.965 157.551 190.833 156.348 169.659 124.779 171.434 105.181 175.19 96.39 182.167 92.174 187.196 94.46"/><polygon class="h" points="181.157 155.134 181.416 157.2 183.555 153.67 185.425 152.985 188.065 155.669 188.35 152.798 191.187 153.701 189.401 150.977 191.343 149.901 186.904 149.175 184.488 144.038 178.5 135.193 179.107 138.865 182.904 145.828 185.158 149.393 186.214 151.018 182.731 152.776 181.157 155.134"/><path class="i" d="M187.12006,150.9047s3.163,4.05569,7.14162,2.74341"/><path class="j" d="M186.88607,151.29114s.3894,4.711,3.13779,4.66519"/><path class="j" d="M187.22831,150.18692s4.63439.93159,5.35211-1.72183"/><polygon class="b" points="138.747 97.02 132.589 97.004 122.157 96.707 82.043 135.872 80.238 145.043 87.468 150.37 132.325 126.079 141.196 104.647 138.747 97.02"/><path d="M181.6127,140.76413c-1.80838-4.23384-5.86789-6.5515-10.25535-7.31432a.86758.86758,0,0,0-1.03715.58888.8502.8502,0,0,0,.58888,1.03714,14.55685,14.55685,0,0,1,5.61811,2.08518,9.95573,9.95573,0,0,1,3.62948,4.45421.84831.84831,0,0,0,1.15356.30247.86543.86543,0,0,0,.30247-1.15356Z"/><path class="f" d="M176.44006,137.22006l-4.25243,4.55459A.84313.84313,0,0,0,173.38,142.967l4.25244-4.5546a.84313.84313,0,1,0-1.19237-1.19236Z"/><path class="f" d="M181.3872,140.76413a4.04571,4.04571,0,0,0-1.63664-1.53391,5.359,5.359,0,0,0-2.00063-.45131,8.33342,8.33342,0,0,0-1.97757.16031,3.004,3.004,0,0,0-1.70362.82066.8647.8647,0,0,0,0,1.19236.85053.85053,0,0,0,1.19237,0c.03248-.03781.0728-.07055.10449-.10836-.05234.06245-.13.0829-.018.01782.04223-.02454.08327-.05084.12646-.07382.03769-.02.21986-.08754.02825-.01979a5.18236,5.18236,0,0,1,.75523-.21017c.06231-.01195.12488-.02229.18745-.03279.069-.01158.16625-.02206.04219-.00744.13933-.01642.27888-.02995.41886-.03954a7.63589,7.63589,0,0,1,.78012-.01541c.11.00373.21958.01128.32928.02049.02572.00216.17923.02436.05792.00583-.1364-.02083.084.0152.11021.01979a4.44233,4.44233,0,0,1,.78663.20794c-.11068-.04116-.0452-.02165.025.01477.05246.02721.10507.0539.15616.08367.06236.03634.12152.07683.18174.11643.17923.11784-.09338-.10345.06363.05318a3.50437,3.50437,0,0,1,.53439.63038.86223.86223,0,0,0,1.15356.30247.85189.85189,0,0,0,.30247-1.15356Z"/><path class="f" d="M179.651,138.65385a2.33459,2.33459,0,0,0-1.264-.30018,10.19344,10.19344,0,0,1-1.06641-.035l.22414.03012a1.40306,1.40306,0,0,1-.32121-.0812l.20141.085a.78031.78031,0,0,1-.13768-.07585l-.85109,1.456a1.76708,1.76708,0,0,0,1.4641.37691.836.836,0,0,0,.54638-.48817.87116.87116,0,0,0-.0425-.75038l-.56657-1.24719-1.3242,1.02172,1.31382,1.22717a.84313.84313,0,0,0,1.19236-1.19237l-1.31382-1.22716a.84871.84871,0,0,0-1.107-.06592.8044.8044,0,0,0-.30215.438.96542.96542,0,0,0,.085.64968l.56657,1.24719.50388-1.23855a.37194.37194,0,0,1-.06471.0164l.22414-.03011a.57069.57069,0,0,1-.13289-.00007l.22413.03012a.88344.88344,0,0,1-.1691-.04854l.20141.085a3.29373,3.29373,0,0,1-.44772-.25973.84335.84335,0,0,0-1.23856.95216.94717.94717,0,0,0,.38747.50388,2.33473,2.33473,0,0,0,1.264.30017,10.19043,10.19043,0,0,1,1.0664.035l-.22413-.03012a1.40254,1.40254,0,0,1,.32121.0812l-.20141-.085a.78166.78166,0,0,1,.13768.07585.84333.84333,0,0,0,1.23855-.95215.947.947,0,0,0-.38747-.50388Z"/><polygon class="b" points="41.923 123.772 51.733 125.191 56.169 123.291 84.003 127.317 98.038 136.771 94.289 148.251 91.15 150.067 87.584 150.871 51.57 142.639 48.472 137.941 40.05 136.723 43.161 126.785 41.923 123.772"/><path d="M90.64015,128.00329a21.98552,21.98552,0,0,1,5.01863,3.17841.51333.51333,0,0,0,.7071,0,.50419.50419,0,0,0,0-.70711,22.90262,22.90262,0,0,0-5.221-3.33477.51474.51474,0,0,0-.68409.17937.50406.50406,0,0,0,.17938.6841Z"/><path d="M57.70951,142.47155c-.0855-.00467-.17069-.01235-.25581-.02151-.0603-.00649-.12032-.01512-.18057-.02188.26878.03016.075.0101.0212.00158-.28619-.04531-.57159-.09345-.8561-.14848q-1.05642-.20435-2.09611-.48718c-.35561-.09691-.70935-.20111-1.05948-.31637q-.248-.08163-.49311-.1715-.10028-.037-.19991-.07573c-.03666-.01428-.31415-.13208-.11327-.04378a5.093,5.093,0,0,1-.72583-.37368c-.04047-.02622-.07875-.05647-.11962-.08183.21532.13357.05991.06335.01917.00843-.0083-.01119-.0995-.08655-.0935-.09632.00624-.01015.1317.208.03912.03288a.84326.84326,0,1,0-1.456.85109,2.76486,2.76486,0,0,0,1.367,1.06315,15.54924,15.54924,0,0,0,2.23236.787,18.92587,18.92587,0,0,0,3.9705.78042.84313.84313,0,0,0,0-1.68626Z"/><polygon class="a" points="161.15 84.467 158.529 72.43 159.874 70.083 164.3 66.717 166.169 58.354 161.754 55.884 155.27 39.814 140.937 37.057 128.443 43.446 128.452 60.945 126.551 63.444 129.526 71.502 130.995 72.413 131.76 77.053 135.937 80.906 137.64 90.616 133.586 97.905 141.581 115.057 153.282 118.214 165.356 100.219 170.774 88.623 161.15 84.467"/><g class="k"><polygon class="l" points="158.375 62.595 165.861 47.184 114.56 0 128.877 62.943 129.61 45.148 138.8 45.749 148.135 42.75 149.431 46.41 154.633 48.944 158.375 62.595"/></g><polygon points="135.741 52.856 135.039 50.639 130.146 52.955 129.644 54.785 135.741 52.856"/><path d="M147.29982,68.70789a13.47628,13.47628,0,0,1-7.93319,2.56879.801.801,0,0,0,0,1.6011,14.93873,14.93873,0,0,0,8.7413-2.78739.82353.82353,0,0,0,.2872-1.0953.80688.80688,0,0,0-1.09531-.2872Z"/><path d="M155.14161,76.41391l-7.41446,6.39422-6.53436,1.922-5.25566-3.82395,4.89993,8.1989a4.62883,4.62883,0,0,0,2.43371,2.01336h0a4.62893,4.62893,0,0,0,2.2528.217l.22629-.03442a4.62891,4.62891,0,0,0,2.78406-1.52423l1.47616-1.68326a4.62887,4.62887,0,0,0,.86505-1.45659l2.73709-7.45472Z"/><path d="M154.30813,76.684c-1.3172,1.47226-2.70805,2.88068-4.05906,4.32176-.2775.296-.55616.59125-.82671.89365-.46.5141.29762,1.27672.76.76,1.3172-1.47227,2.708-2.88068,4.05906-4.32176.2775-.296.55616-.59125.82671-.89365.46-.51411-.29762-1.27673-.76-.76Z"/><path d="M133.4006,55.21059c.07328.13073.13959.26409.20377.3994q.05471.1243-.00458-.01478.01827.04444.03542.08932.04044.10458.07633.21082a6.73535,6.73535,0,0,1,.20593.83919q.01378.09029-.00589-.05422.00807.06358.01455.12735.00968.09564.01591.19159.01452.22375.00925.44829c-.00347.1497-.01547.29833-.03018.44728-.02109.21358.033-.17-.00655.041-.01574.084-.03052.168-.04828.25172l1.338-.35326c-.06265-.05143-.12337-.10462-.1808-.16184a1.24479,1.24479,0,0,0-.16-.17689c.03179.02.09039.12611.02958.03628-.02461-.03636-.04964-.07219-.07317-.10926q-.06357-.1002-.11818-.20571-.02436-.04707-.04706-.095c-.01171-.02468-.07854-.16716-.024-.05077.05018.107-.00011-.00581-.0087-.02913q-.02334-.06333-.04442-.12745a4.55828,4.55828,0,0,1-.12657-.47666q-.023-.10888-.04166-.21865c-.00787-.04594-.014-.09224-.02205-.13814-.01948-.11073.01844.15791.00566.046-.01915-.16773-.03684-.33531-.04918-.50371-.0122-.1664-.021-.333-.02822-.49971-.00182-.04207.00037-.0867-.00452-.12835-.01223-.10439-.00761.03251-.01786.07088.02857-.107-.02283.04075-.03625.06524q-.95533.50832-1.17244-.085a.56359.56359,0,0,1-.03423-.4213l.20588-.35326.12726-.09976.40405-.1093-.02833.00148a.80055.80055,0,0,0,0,1.6011.87921.87921,0,0,0,.83115-1.14056.93626.93626,0,0,0-1.334-.572c-.67776.37444-.5565,1.21988-.49761,1.86651a4.43071,4.43071,0,0,0,1.31351,3.14706.83355.83355,0,0,0,.77889.20588.79467.79467,0,0,0,.55914-.55913,6.03248,6.03248,0,0,0-.62709-4.21069.80068.80068,0,1,0-1.3825.8081Z"/><path d="M146.25158,53.25571c.07328.13073.13959.26409.20378.3994q.0547.1243-.00459-.01478.01829.04445.03542.08933.04046.10457.07633.21081a6.73359,6.73359,0,0,1,.20593.83919q.0138.09029-.00589-.05422.00807.06358.01456.12735.00967.09564.0159.19159.01453.22377.00925.4483c-.00346.14969-.01546.29832-.03017.44727-.0211.21358.033-.17-.00655.041-.01574.084-.03052.168-.04829.25171l1.338-.35325c-.06265-.05143-.12337-.10463-.1808-.16185a1.24519,1.24519,0,0,0-.16-.17688c.03178.02.09038.1261.02958.03627-.02461-.03636-.04965-.07219-.07317-.10926q-.06357-.1002-.11818-.20571-.02436-.04706-.04706-.095c-.01172-.02468-.07855-.16715-.024-.05077.05018.107-.0001-.00581-.0087-.02913q-.02334-.06333-.04442-.12745a4.55511,4.55511,0,0,1-.12656-.47666q-.023-.10889-.04166-.21864c-.00788-.04595-.014-.09225-.02206-.13815-.01947-.11073.01844.15791.00566.046-.01915-.16772-.03683-.33531-.04917-.5037-.0122-.1664-.021-.333-.02822-.49971-.00183-.04208.00036-.08671-.00452-.12836-.01224-.10439-.00762.03251-.01787.07089.02857-.107-.02282.04074-.03624.06524q-.95535.50832-1.17244-.085a.5636.5636,0,0,1-.03424-.4213l.20588-.35325.12726-.09977.40406-.1093-.02833.00148a.80055.80055,0,1,0,0,1.6011.8792.8792,0,0,0,.83114-1.14055.93626.93626,0,0,0-1.334-.572c-.67775.37444-.5565,1.21988-.4976,1.86651a4.4307,4.4307,0,0,0,1.3135,3.14707.83362.83362,0,0,0,.7789.20588.79468.79468,0,0,0,.55913-.55914,6.03248,6.03248,0,0,0-.62709-4.21069.80068.80068,0,1,0-1.3825.8081Z"/><path d="M162.71333,61.18183l-2.119,1.51579a.86406.86406,0,0,0-.3679.47843.81821.81821,0,0,0,.0807.61688.8081.8081,0,0,0,.47844.3679.78693.78693,0,0,0,.61687-.08071l2.119-1.51579a.864.864,0,0,0,.3679-.47843.81818.81818,0,0,0-.0807-.61687.808.808,0,0,0-.47844-.3679.78689.78689,0,0,0-.61687.0807Z"/><path d="M161.18042,60.55053l-1.02255,2.81924a.80492.80492,0,0,0,.55913.98477.82141.82141,0,0,0,.98478-.55914l1.02254-2.81923a.80491.80491,0,0,0-.55913-.98477.82138.82138,0,0,0-.98477.55913Z"/><path d="M164.88426,58.46473A6.74815,6.74815,0,0,0,161.265,60.383a.80055.80055,0,1,0,1.13215,1.13215c.10634-.10834.21588-.21329.32994-.3135q.08048-.07069.16347-.13842c.03788-.03091.14989-.10149-.015.009.0295-.01976.05706-.04322.08567-.06428a6.00209,6.00209,0,0,1,.77139-.48217c.12321-.0646.27051-.11.38628-.18532-.06626.04313-.12843.0525-.01826.00844q.04972-.01989.0998-.03889.10017-.038.20163-.07236a6.02208,6.02208,0,0,1,.90779-.229.80407.80407,0,0,0,.55914-.98478.823.823,0,0,0-.98477-.55913Z"/><path d="M183.12723,121.6889a15.61328,15.61328,0,0,0-4.42146-4.01864,8.2403,8.2403,0,0,0-5.20486-.9583.748.748,0,0,0-.51933.91466.76378.76378,0,0,0,.91466.51933c3.47806-.46848,6.172,2.09041,8.17945,4.5945a.74823.74823,0,0,0,1.05154,0,.76135.76135,0,0,0,0-1.05155Z"/><path class="f" d="M178.128,118.42449c-.53222,1.95225-.57512,4.00114-1.10734,5.95339a.74419.74419,0,0,0,1.434.39533c.53222-1.95224.57512-4.00114,1.10734-5.95339a.74419.74419,0,0,0-1.434-.39533Z"/><path class="f" d="M183.12723,121.6889a4.88678,4.88678,0,0,0-1.86716-1.02414,4.94712,4.94712,0,0,0-1.82384-.24249,1.47207,1.47207,0,0,0-.89172.32613,2.17248,2.17248,0,0,0-.44367.54352,7.36556,7.36556,0,0,0-.666,1.5605,14.09922,14.09922,0,0,0-.41416,1.52546.74374.74374,0,1,0,1.434.39533,14.099,14.099,0,0,1,.41416-1.52545q.07455-.2265.15794-.45c.02746-.07309.05665-.14544.08509-.21814q.048-.1164-.00876.01959.02214-.0512.04517-.102c.0575-.12662.119-.25169.18806-.37245.031-.05423.0658-.10592.0978-.15948.10178-.17039-.07046.0591.00877-.01759.03366-.03258.07156-.07.10182-.10563.07587-.08934-.17.10074-.02159.02537q-.20341.07781-.09969.04471a.65683.65683,0,0,1,.07-.013q-.18232.02313-.05721.01019.05-.00419.10019-.00644a3.49688,3.49688,0,0,1,.44452.01c.03536.00287.2961.03869.10759.00885.085.01346.16986.02757.2543.04453a5.36275,5.36275,0,0,1,.52191.13244q.13173.04056.26122.088.065.02384.12928.04945-.10629-.04676.0135.006a4.54857,4.54857,0,0,1,.48375.25617q.1137.07077.22175.15007c-.12646-.09309.08008.07258.10145.092a.75978.75978,0,0,0,1.05154,0,.75125.75125,0,0,0,0-1.05155Z"/><path class="f" d="M180.96781,119.94435a1.74318,1.74318,0,0,0-1.20945-.08929c-.266.05981-.52466.15321-.79556.19052l.19767-.02656a1.09467,1.09467,0,0,1-.25542.005l.19766.02656a.63841.63841,0,0,1-.15045-.039l.17762.075-.03456-.01629-.75058,1.28408a3.45348,3.45348,0,0,0,.56672.229,1.06669,1.06669,0,0,0,.87213-.11621.79238.79238,0,0,0,.3417-.44437.73585.73585,0,0,0-.075-.573l-.75679-1.08486-1.01733,1.01733,1.31166.91083a.74374.74374,0,0,0,1.09228-.8397.83378.83378,0,0,0-.34171-.44437l-1.31165-.91084-.17762-.075a.56336.56336,0,0,0-.2965-.01328.70666.70666,0,0,0-.42694.20451.88482.88482,0,0,0-.19122.3281.74456.74456,0,0,0,.075.573l.75679,1.08486.26675-1.01733a.33755.33755,0,0,1-.065.03865l.17762-.075a.39212.39212,0,0,1-.07271.01744l.19766-.02656a.54337.54337,0,0,1-.10589-.00372l.19766.02656a1.20748,1.20748,0,0,1-.255-.08089l.17762.075c-.06352-.02741-.12631-.05644-.18967-.08422a.81168.81168,0,0,0-.573-.075.74375.74375,0,0,0-.17762,1.359,1.74318,1.74318,0,0,0,1.20945.08929c.266-.05981.52466-.15321.79556-.19052l-.19767.02656a1.09522,1.09522,0,0,1,.25542-.005l-.19766-.02656a.63828.63828,0,0,1,.15045.039l-.17762-.075.03456.01628a.79213.79213,0,0,0,.573.075.74375.74375,0,0,0,.17762-1.359Z"/><path d="M146.73756,69.50517a4.0664,4.0664,0,0,1-.89741,1.82608,9.81654,9.81654,0,0,1-1.458,1.45974,9.18377,9.18377,0,0,1-3.86047,1.84889.84334.84334,0,1,0,.44827,1.626,10.9634,10.9634,0,0,0,4.60456-2.28254,9.9517,9.9517,0,0,0,1.54533-1.57061,5.361,5.361,0,0,0,1.2437-2.4593.87131.87131,0,0,0-.58887-1.03715.84924.84924,0,0,0-1.03715.58887Z"/><polygon class="b" points="182.489 174.385 174.809 177.464 155.114 175.975 130.897 174.092 129.716 172.262 130.897 168.244 119.171 127.101 110.703 113.569 114.501 100.771 131.979 92.275 137.281 86.549 137.623 89.956 137.246 95.875 146.623 111.813 161.389 91.731 161.23 82.147 166.399 86.612 186.137 94.963 187.618 122.559 185.218 131.079 182.489 174.385"/><g class="m"><polygon class="h" points="180.883 119.115 187.128 123.631 185.218 130.411 183.307 156.988 172.62 135.67 180.883 119.115"/></g><path d="M129.36032,106.781a7.11557,7.11557,0,0,1,3.05833-3.96649,14.43563,14.43563,0,0,1,4.00061-1.35483l-.95216-.38747a16.26683,16.26683,0,0,1,1.37258,4.19667c.16163.91438,1.20314,1.5507,1.86493,2.11454,1.20888,1.02993,2.43409,2.04078,3.62943,3.08655.5278.46175,1.05491.92709,1.55344,1.42061.16627.1646.33338.33079.485.50922.12784.15049.02806.08008.08582.10881a.99092.99092,0,0,1,.05276.08917q-.25133-.46892.28318-.94118c-.88936.61008-.04693,2.07205.85108,1.456.97008-.66546.21276-1.61584-.3709-2.21866-.836-.86343-1.76661-1.64053-2.67941-2.42023-1.01611-.86794-2.04626-1.71943-3.05887-2.59146-.32784-.28233-.65473-.56611-.9679-.86475a1.61265,1.61265,0,0,0-.13891-.13924c-.1095-.08039-.01917-.09606-.039-.03575-.00469.01424.07924.31158.13329.23351.06381-.09217-.05239-.4803-.07094-.58919a16.81648,16.81648,0,0,0-1.52947-4.26573.85649.85649,0,0,0-.95216-.38747,14.48722,14.48722,0,0,0-4.75215,1.72876,9.15487,9.15487,0,0,0-3.48453,4.7703c-.37789,1.01885,1.25131,1.45856,1.626.44828Z"/><path d="M137.07215,103.328a22.89042,22.89042,0,0,0-4.3877.51644,28.285,28.285,0,0,0-4.11844,1.33822.86869.86869,0,0,0-.58887,1.03715.84912.84912,0,0,0,1.03715.58887,28.71725,28.71725,0,0,1,3.99512-1.30989,20.41547,20.41547,0,0,1,4.06274-.48453c1.08276-.03145,1.08727-1.71784,0-1.68626Z"/><path d="M133.93448,89.86612c-2.76618,2.446-4.17431,6.18727-5.06289,9.67882a36.53476,36.53476,0,0,0-1.07713,6.36819c-.07713,1.08286,1.60948,1.078,1.68626,0a33.79374,33.79374,0,0,1,.97454-5.75175c.81836-3.28185,2.07011-6.80258,4.67159-9.10289.81458-.72029-.38168-1.9092-1.19237-1.19237Z"/><path class="f" d="M113.54456,120.44879a14.77364,14.77364,0,0,1,5.40348,10.84584c.02813.95039,1.50844.95439,1.4802,0a16.21622,16.21622,0,0,0-5.837-11.8925c-.7245-.60951-1.7768.43239-1.04665,1.04666Z"/><path d="M175.753,115.221q-11.17108,1.54686-22.41526,2.43555c-1.07475.08427-1.08384,1.77125,0,1.68626q11.4696-.89933,22.86353-2.49578c1.07024-.1482.61472-1.77322-.44827-1.626Z"/><path d="M152.61354,118.404c-1.13874,2.32017-.92961,4.88851-1.49585,7.34932a.86134.86134,0,0,0,.58887,1.03715.85256.85256,0,0,0,1.03715-.58887c.5244-2.27895.27541-4.80623,1.32586-6.94652a.86487.86487,0,0,0-.30247-1.15356.851.851,0,0,0-1.15356.30248Z"/><path d="M152.21855,127.403a144.72334,144.72334,0,0,0,21.47161-.57462c1.069-.10959,1.08028-1.797,0-1.68626a144.7247,144.7247,0,0,1-21.47161.57463c-1.08486-.05024-1.08233,1.63614,0,1.68625Z"/><path d="M175.36139,116.38288a23.23791,23.23791,0,0,1-.12849,8.88064c-.2218,1.0588,1.4033,1.51146,1.626.44827a25.44585,25.44585,0,0,0,.12849-9.77718.85056.85056,0,0,0-1.03715-.58888.86173.86173,0,0,0-.58887,1.03715Z"/><path d="M175.91963,124.804l-2.21559.4731a.84918.84918,0,0,0-.58888,1.03715.863.863,0,0,0,1.03715.58888l2.21559-.47311a.84917.84917,0,0,0,.58888-1.03715.863.863,0,0,0-1.03715-.58887Z"/><path class="f" d="M145.75963,174.36139a15.68932,15.68932,0,0,1,1.04107-4.91694,26.9303,26.9303,0,0,0,1.28124-6.11851c.26658-3.42133.26289-6.87758.28682-10.307.05759-8.25315-.09713-16.50733-.2565-24.75859-.07415-3.83852-.15826-7.677-.21164-11.51584a.84364.84364,0,0,0-1.68626,0c.20953,15.06927.98985,30.209.25663,45.27263a26.47414,26.47414,0,0,1-1.24946,6.83318,17.64826,17.64826,0,0,0-1.14816,5.51108.84364.84364,0,0,0,1.68626,0Z"/><path d="M141.68242,119.78837a12.21505,12.21505,0,0,1-1.72021,7.76249c-.5241.95107.93159,1.80278,1.456.85108a14.04808,14.04808,0,0,0,1.89019-9.06185.84921.84921,0,0,0-1.03715-.58887.864.864,0,0,0-.58887,1.03715Z"/><path d="M141.79942,118.9182a69.72963,69.72963,0,0,0-19.03528,1.92123c-1.05414.25555-.60775,1.882.44828,1.626a67.99828,67.99828,0,0,1,18.587-1.861c1.08526.04066,1.08355-1.64566,0-1.68625Z"/><path d="M122.50312,121.59812a14.95944,14.95944,0,0,1-.83969,6.06019.85128.85128,0,0,0,.58888,1.03715.86018.86018,0,0,0,1.03715-.58887,16.2205,16.2205,0,0,0,.89992-6.50847.86309.86309,0,0,0-.84313-.84313.85036.85036,0,0,0-.84313.84313Z"/><path d="M140.82435,126.96178c-.07239.01581-.33225.055-.12823.026-.182.02583-.3659.04176-.5488.05991-.54524.05413-1.09167.09677-1.638.13877-1.52224.117-3.04581.217-4.56927.31659-3.35209.21915-6.70614.41558-10.05593.66847a21.85355,21.85355,0,0,0-2.99172.30234c-1.0597.23138-.61125,1.85737.44828,1.626.0728-.0159.33221-.0522.12823-.026.18252-.02341.3657-.04173.5488-.05991.54524-.05413,1.09167-.09677,1.63794-.13876,1.52225-.117,3.04582-.217,4.56928-.31659,3.35209-.21915,6.70614-.41559,10.05593-.66847a21.85654,21.85654,0,0,0,2.99171-.30234c1.05971-.23139.61126-1.85737-.44827-1.626Z"/><line class="n" x1="137.60389" y1="104.21496" x2="132.92889" y2="105.05772"/><path d="M136.49106,100.73a8.46014,8.46014,0,0,0-7.47688,4.25919l.0779.88388,7.352-1.89165.9845.26616Z"/><path d="M167.62133,99.6352c-1.588.06816-3.16885.25814-4.74872.42429-.78224.08226-1.56485.16254-2.349.22413-.366.02875-.73265.05481-1.09954.07019-.03722.00156-.21543-.016-.23941.00725l.35773.45228q.02922-.10051.06362-.19936c.07817-.23914.16045-.477.24066-.71549l-1.65614-.22414a1.96606,1.96606,0,0,0,.70231,1.78191,1.4192,1.4192,0,0,0,1.94634-.37456,1.393,1.393,0,0,0-.44321-1.92289,1.07767,1.07767,0,0,0-1.582,1.05062c.02828,1.53118,1.94318,1.408,2.95828,1.16439.52587-.12621,1.04119-.2924,1.56629-.42164.18757-.04617.50969-.11512.6111-.12563.093-.00964.18634-.01281.27978-.01366q.08666.00047.17289.009-.13327-.01554.01153.01469a.84386.84386,0,0,0,.44828-1.626c-1.32616-.44-2.81-.07526-4.17383-.13136-1.08511-.04463-1.08306,1.64171,0,1.68626,1.20731.04966,2.61172-.29841,3.72555.07112l.44828-1.626a4.9761,4.9761,0,0,0-2.5317.2648c-.40511.11263-.80889.23372-1.2204.32138a2.104,2.104,0,0,1-.46636.06839,1.58622,1.58622,0,0,1-.25847-.005l.06755.00687q-.47729-.18952-.15641.7023h-.85109c-.18688-.08544.09507-.53472.168-.55072.02009-.0044.34719.06748.29563.12261.01-.01071-.03253-.4501-.03211-.46685a.84723.84723,0,0,0-1.65614-.22414,3.22287,3.22287,0,0,0-.3391,1.60952,1.25321,1.25321,0,0,0,1.24394.98388,18.609,18.609,0,0,0,2.72753-.19333c1.92058-.18937,3.839-.446,5.76835-.52882,1.081-.0464,1.08683-1.73291,0-1.68626Z"/><path class="f" d="M109.27616,115.31469c2.61617,3.06013,5.2582,6.09805,7.87436,9.15818a.8504.8504,0,0,0,1.19237,0,.86048.86048,0,0,0,0-1.19237c-2.61617-3.06012-5.2582-6.09805-7.87437-9.15817a.85039.85039,0,0,0-1.19236,0,.86047.86047,0,0,0,0,1.19236Z"/><path class="f" d="M119.396,127.243c-1.25021-2.60759-3.10624-4.85289-4.45361-7.40054-.50754-.95966-1.96355-.10854-1.456.85109,1.34737,2.54765,3.20341,4.79295,4.45361,7.40054a.85079.85079,0,0,0,1.15356.30247.86132.86132,0,0,0,.30248-1.15356Z"/><path d="M187.192,122.58336a16.267,16.267,0,0,0-5.02819-3.35511,8.10916,8.10916,0,0,0-5.22251-.21189.74419.74419,0,0,0,.39533,1.434c3.39519-.99553,6.38866.97108,8.80382,3.18456.70446.64563,1.75893-.40324,1.05155-1.05155Z"/><path class="f" d="M181.66346,120.12984c-.2286,2.01052.03973,4.042-.18887,6.05255a.748.748,0,0,0,.74356.74355.76111.76111,0,0,0,.74356-.74355c.22859-2.01052-.03974-4.042.18886-6.05255a.748.748,0,0,0-.74356-.74356.76111.76111,0,0,0-.74355.74356Z"/><path class="f" d="M187.04154,122.46709a4.85216,4.85216,0,0,0-2.0976-.701,4.7244,4.7244,0,0,0-1.84041.09106c-1.0771.30266-1.2927,1.71981-1.44245,2.66371a16.01163,16.01163,0,0,0-.18649,1.66156.74843.74843,0,0,0,.74356.74355.76012.76012,0,0,0,.74356-.74355c.00875-.166.022-.33181.03782-.49732q.01392-.14586.03057-.29144.00957-.084.02-.1679c.00307-.02463.00671-.04925.0094-.07392.01108-.10194-.022.15031-.0064.04717a10.75923,10.75923,0,0,1,.28582-1.42145c.02817-.09636.05864-.19211.09322-.28636.00629-.01717.05374-.10683.04666-.12047.022.04233-.073.153-.02595.06581.01218-.02258.02218-.04646.034-.06927.0194-.03749.041-.07352.06207-.11.00843-.01457.01976-.02789.02756-.04275.03968-.07566.03945.04912-.05924.07421.02086-.0053.039-.05224.0595-.06361.08267-.04581-.1786.11275-.04572.04092-.078.04214-.18831.06394-.05325.031.05134-.01252.1019-.0273.15357-.03862a.81583.81583,0,0,1,.16781-.03135c.00219.00413-.15776.01428-.06965.009.04447-.00265.08929-.0099.13369-.01367a4.88569,4.88569,0,0,1,.79782.00093c.03129.00248.06256.00514.0938.00817.0001,0,.195.02206.09039.0088-.09163-.01161.01478.00246.02788.00469.05293.009.10588.01757.15864.02754a4.81852,4.81852,0,0,1,.47114.11309q.12314.03639.244.08c.02986.01085.05932.02365.08941.03377.10835.03643-.15211-.0741.02588.01136a3.54971,3.54971,0,0,1,.42885.24042.74883.74883,0,0,0,1.01732-.26675.761.761,0,0,0-.26675-1.01733Z"/><path class="f" d="M184.63067,121.08839a2.487,2.487,0,0,0-1.69472.3697l.17762-.075a1.82423,1.82423,0,0,1-.441.13485l.19767-.02656a.76733.76733,0,0,1-.1697.00215l.19767.02656a.61146.61146,0,0,1-.09909-.02245l-.39534,1.434a3.44887,3.44887,0,0,0,.60455.11936,1.04314,1.04314,0,0,0,.81631-.30384.75742.75742,0,0,0,0-1.05155l-.913-.95712-.90106,1.16781,1.43494.70072a.79451.79451,0,0,0,.573.075.74374.74374,0,0,0,.17762-1.359l-1.43494-.70071a.74454.74454,0,0,0-.901,1.16781l.913.95712v-1.05155a.23923.23923,0,0,1-.03608.03331l.15048-.11627a.36006.36006,0,0,1-.063.03406l.17762-.075a.48147.48147,0,0,1-.07177.01749l.19767-.02656a.71376.71376,0,0,1-.16173-.00343l.19767.02656a3.42884,3.42884,0,0,1-.36486-.08816.74374.74374,0,0,0-.39534,1.434,2.48706,2.48706,0,0,0,1.69473-.36969l-.17762.075a1.82423,1.82423,0,0,1,.441-.13485l-.19767.02656a.76785.76785,0,0,1,.16969-.00215l-.19766-.02656a.61146.61146,0,0,1,.09909.02245.75008.75008,0,0,0,.91466-.51933.75982.75982,0,0,0-.51933-.91466Z"/><path d="M137.17488,55.56013c.73943,1.03561.3207,2.66962.02965,3.7985a37.2623,37.2623,0,0,1-1.38107,4.04155.65357.65357,0,0,0,.45295.79776.66325.66325,0,0,0,.79776-.453,33.27155,33.27155,0,0,0,1.48122-4.45164c.31553-1.37353.618-3.15741-.26055-4.38786a.66631.66631,0,0,0-.8873-.23266.654.654,0,0,0-.23266.8873Z"/><path d="M136.36549,62.0776a2.539,2.539,0,0,0-.5777,2.4121,2.77556,2.77556,0,0,0,1.86892,2.03929,4.89719,4.89719,0,0,0,4.93915-.48325,3.92474,3.92474,0,0,0,1.29425-1.20129,1.94292,1.94292,0,0,0,.13688-1.74593c-.23877-.58812-.66954-1.022-1.35535-.808-.79419.24784-.45519,1.50036.3448,1.2507q.29238-.06583-.25261-.12492-.05352-.07366.01243.03461c-.00873-.063.07768.19833.06589.16057a.61257.61257,0,0,1-.01464.47013,2.36254,2.36254,0,0,1-.98584.90894,3.27645,3.27645,0,0,1-2.79523.57083,4.12544,4.12544,0,0,1-1.214-.36657,1.36457,1.36457,0,0,1-.69852-.67729,2.21383,2.21383,0,0,1-.11887-.86148.86018.86018,0,0,1,.26759-.66129.65329.65329,0,0,0,0-.91714.663.663,0,0,0-.91715,0Z"/><path d="M122.66137,129.00544a14.372,14.372,0,0,1,.26967,4.84852c-.07995.74108-.17365,1.48025-.22064,2.22449a7.7835,7.7835,0,0,0,.03078,2.56,3.15082,3.15082,0,0,0,1.02534,1.375,4.26035,4.26035,0,0,0,2.27921.58054c1.96412.28192,3.92586.54694,5.90095.74392a38.56989,38.56989,0,0,0,6.67205.19614,2.70089,2.70089,0,0,0,2.67323-1.88618,49.52141,49.52141,0,0,0,.963-8.0409,65.30858,65.30858,0,0,1,1.0748-9.18115c.21921-.9391-1.22672-1.33993-1.44642-.39876-1.1299,4.84045-1.03507,9.95831-1.654,14.87694-.10062.79962-.07341,2.19132-.66336,2.78433-.52557.52829-1.54617.39069-2.243.408-1.05116.02608-2.1027-.00639-3.15187-.07251-1.99165-.12553-3.98838-.34117-5.96477-.61665-.74118-.10331-1.48012-.222-2.22144-.32448-.67145-.09279-1.53848-.0715-1.80159-.86459a7.86994,7.86994,0,0,1,.06759-2.67753c.058-.67737.15007-1.3511.21564-2.02767a15.181,15.181,0,0,0-.35881-4.90617c-.21476-.94072-1.66131-.54257-1.44642.39876Z"/><path d="M153.93811,126.73367q.06966,2.92156.15094,5.84284.06473,2.3484.13909,4.69654c.04362,1.34656-.22045,3.13556.66444,4.2382.60417.75284,1.65948-.31449,1.06066-1.06066-.313-.39-.16339-1.365-.1803-1.84624q-.03571-1.0164-.06714-2.03293-.0709-2.26223-.13126-4.52476-.07229-2.6564-.13643-5.313a.75046.75046,0,0,0-1.5,0Z"/><path d="M171.3326,143.67094c1.2352-.21093,2.69949-.71524,3.08643-2.05134a34.73612,34.73612,0,0,0,.84158-4.99915,101.63144,101.63144,0,0,1,1.60636-10.80406c.23112-.93718-1.215-1.337-1.44641-.39876a87.16988,87.16988,0,0,0-1.47276,9.77781c-.21039,1.63738-.42385,3.27787-.735,4.89975-.11967.62382-.13428,1.24682-.69193,1.63179a4.13315,4.13315,0,0,1-1.587.49754c-.94959.16216-.547,1.60792.39876,1.44642Z"/><polygon points="137.134 103.356 134.675 102.47 132.06 102.889 130.751 103.871 129.425 105.447 130.417 106.185 137.855 103.516 137.855 103.516 137.134 103.356"/><path d="M115.24587,108.13121a32.4808,32.4808,0,0,0,5.79827-1.00688,29.44522,29.44522,0,0,1,9.3725-.189c.9546.12341.94557-1.37776,0-1.5a30.59092,30.59092,0,0,0-9.442.181,34.06752,34.06752,0,0,1-5.7288,1.01492.75045.75045,0,0,0,0,1.5Z"/><path d="M115.728,107.51414c1.07833-2.9008,2.27407-5.76186,3.42208-8.63569l-.34922.34922,6.14672-2.15241a2.52811,2.52811,0,0,0,.434-.152c.23188-.1366-.07788-.0308-.0851-.03562a4.65735,4.65735,0,0,0,1.41883.255l3.17818.57132c.62925.11312.89923-.85042.26583-.96428-1.47169-.26455-2.94184-.54-4.41544-.79373a1.70421,1.70421,0,0,0-.9839.12756l-2.38931.83667-2.65477.92963a5.652,5.652,0,0,0-1.30033.46392c-.31928.22245-.45437.86127-.58964,1.20029q-.48515,1.21587-.96937,2.4321c-.70241,1.76443-1.43107,3.52187-2.09285,5.30211-.22453.604.74165.86474.96428.26584Z"/><path d="M118.88429,100.62663a1.95046,1.95046,0,0,0-.50033,1.5804,2.838,2.838,0,0,0,.63448,1.62454.75.75,0,0,0,1.28033-.53033.83663.83663,0,0,0-.21967-.53033c-.01467-.01712-.02888-.03442-.04284-.05212l.11727.15179a1.6875,1.6875,0,0,1-.20605-.36529l.07561.17916a2.43591,2.43591,0,0,1-.15494-.58048l.02679.19938a2.12951,2.12951,0,0,1-.00528-.53875l-.02679.19938a1.37105,1.37105,0,0,1,.0872-.3326l-.07561.17916a.93556.93556,0,0,1,.1137-.195l-.11728.15179a.85131.85131,0,0,1,.07407-.08.75688.75688,0,0,0,0-1.06066.76521.76521,0,0,0-1.06066,0Z"/><path d="M170.42354,97.85771c2.193.55507,4.43989.90048,6.67366,1.24461,1.58834.2447,3.23716.37865,4.79956.765.93708.2317,1.33687-1.21447.39876-1.44642-1.56241-.38631-3.21121-.52026-4.79956-.765-2.23377-.34413-4.48068-.68953-6.67366-1.24461a.75065.75065,0,0,0-.39876,1.44642Z"/><path d="M168.18987,89.709c2.73863.74547,5.44882,1.61058,8.1514,2.47569a62.86261,62.86261,0,0,1,8.02583,2.83261c.8664.41509,1.62823-.87785.75707-1.2952A64.41872,64.41872,0,0,0,176.93256,90.8c-2.766-.88751-5.54038-1.77424-8.34393-2.53739a.75064.75064,0,0,0-.39876,1.44642Z"/><path d="M170.09811,95.34151h10.36571a.75045.75045,0,0,0,0-1.5H170.09811a.75045.75045,0,0,0,0,1.5Z"/><ellipse class="o" cx="178.35885" cy="109.29515" rx="1.91966" ry="1.028" transform="translate(-29.26841 134.75548) rotate(-38.49024)"/><ellipse class="o" cx="177.97958" cy="111.9355" rx="1.91966" ry="1.028" transform="translate(-30.99413 135.09315) rotate(-38.49024)"/><ellipse class="o" cx="177.49889" cy="114.74384" rx="1.91966" ry="1.028" transform="translate(-32.84643 135.40419) rotate(-38.49024)"/><ellipse class="o" cx="176.9475" cy="117.81929" rx="1.91966" ry="1.028" transform="translate(-34.88034 135.72926) rotate(-38.49024)"/><ellipse class="o" cx="176.15933" cy="120.78418" rx="1.91966" ry="1.028" transform="translate(-36.89689 135.88295) rotate(-38.49024)"/><ellipse class="o" cx="175.56798" cy="123.63385" rx="1.91966" ry="1.028" transform="translate(-38.79897 136.13409) rotate(-38.49024)"/><ellipse class="o" cx="175.23712" cy="126.71434" rx="1.91966" ry="1.028" transform="translate(-40.7881 136.59752) rotate(-38.49024)"/><ellipse class="o" cx="174.70149" cy="129.79623" rx="1.91966" ry="1.028" transform="translate(-42.82259 136.93381) rotate(-38.49024)"/><ellipse class="o" cx="174.61266" cy="133.13032" rx="1.91966" ry="1.028" transform="translate(-44.91697 137.60297) rotate(-38.49024)"/><ellipse class="o" cx="174.42482" cy="136.13638" rx="1.91966" ry="1.028" transform="translate(-46.8287 138.13924) rotate(-38.49024)"/><ellipse class="o" cx="174.42784" cy="139.37114" rx="1.91966" ry="1.028" transform="translate(-48.8413 138.84399) rotate(-38.49024)"/><path class="o" d="M176.11358,141.43549c.13818.59316-.47233,1.50377-1.36362,2.0339s-1.72584.47905-1.864-.11411,1.00224-1.75763,1.89352-2.28777S175.9754,140.84234,176.11358,141.43549Z"/><ellipse class="o" cx="175.17532" cy="145.16998" rx="1.91966" ry="1.028" transform="translate(-52.28797 140.56921) rotate(-38.49024)"/><ellipse class="o" cx="175.87408" cy="147.93493" rx="1.91966" ry="1.028" transform="translate(-53.857 141.60489) rotate(-38.49024)"/><ellipse class="o" cx="176.57189" cy="150.23193" rx="1.91966" ry="1.028" transform="translate(-55.13498 142.5383) rotate(-38.49024)"/><path class="p" d="M177.77549,107.85268l2.6725-9.92227,1.07754.354a.99542.99542,0,0,1,.36333,1.09556l-2.71694,7.8301Z"/><path class="q" d="M151.213,127.31131s1.80886,27.44714,12.49407,27.698,11.45488-10.14266,11.45488-10.14266"/><path class="q" d="M180.07691,97.86858s5.2813-3.32,5.48862-3.3036"/><path class="q" d="M180.07691,97.86858s1.91119-4.18028,3.9992-4.18028"/><path d="M177.21818,111.97193a1.87235,1.87235,0,0,1,.11952.23111l-.07561-.17916a1.24316,1.24316,0,0,1,.08238.29582l-.02679-.19938a.969.969,0,0,1,.00127.22891l.02679-.19938a.92253.92253,0,0,1-.06008.22359l.07561-.17916a1.08633,1.08633,0,0,1-.13447.22814l.11728-.15179a1.59814,1.59814,0,0,1-.274.26936l.15179-.11728a3.42911,3.42911,0,0,1-.76576.42433l.17916-.07561c-.21214.08923-.43228.16376-.63944.26421a.75736.75736,0,0,0-.34467.44822.76645.76645,0,0,0,.07561.57792.757.757,0,0,0,.44822.34467.83719.83719,0,0,0,.57792-.07561c.02031-.00984.041-.01893.06172-.02776l-.17916.0756a8.13445,8.13445,0,0,0,1.126-.51116,2.47128,2.47128,0,0,0,.6152-.5012,1.88679,1.88679,0,0,0,.2656-.38273,1.79249,1.79249,0,0,0,.1767-.63436,1.89252,1.89252,0,0,0-.30556-1.13438.75012.75012,0,1,0-1.29521.75708Z"/><path d="M178.28126,108.72562l.03123.06467c.05925.12031-.05293-.14214-.02777-.06847.01579.04623.03479.09116.04955.13784a1.73883,1.73883,0,0,1,.06041.26058l-.02679-.19938a1.40979,1.40979,0,0,1,.00282.367l.02679-.19938a1.30406,1.30406,0,0,1-.04152.18962c-.00692.02276-.01522.04489-.02265.06747-.04809.14628.08291-.16811.03008-.071-.026.04786-.04952.09633-.07855.14259-.01647.02623-.03493.05105-.05178.077-.06026.09269.12992-.15781.06106-.078a2.44538,2.44538,0,0,1-.24213.2492c-.05848.05105-.23265.16488.00851-.00128-.04676.03221-.0917.067-.13892.09861-.28138.18866-.59559.30826-.88513.47982a.75012.75012,0,1,0,.75707,1.29521c.31275-.18531.6509-.313.95032-.52464a3.2022,3.2022,0,0,0,.75684-.72454,2.03635,2.03635,0,0,0,.37-1.00064,2.40734,2.40734,0,0,0-.29425-1.3193.75443.75443,0,0,0-1.02614-.26906.769.769,0,0,0-.26906,1.02614Z"/><path d="M177.42669,114.99027c.02988.05626.05765.11324.08316.17162l-.07561-.17916a1.61068,1.61068,0,0,1,.11232.39475l-.02679-.19938a1.223,1.223,0,0,1,.00043.3042l.02679-.19938a1.16,1.16,0,0,1-.07439.27091l.07561-.17916a1.34668,1.34668,0,0,1-.173.29043l.11727-.15179a1.96756,1.96756,0,0,1-.33783.32776l.1518-.11727a3.741,3.741,0,0,1-.65021.38695c-.15386.07408-.31583.13492-.46552.21726a.75724.75724,0,0,0-.26907,1.02614.76547.76547,0,0,0,1.02614.26907c.313-.17216.6487-.28856.9496-.48636a2.27076,2.27076,0,0,0,1.10938-1.55487,2.21734,2.21734,0,0,0-.28491-1.34879.75629.75629,0,0,0-1.02615-.26907.76655.76655,0,0,0-.26906,1.02614Z"/><path d="M176.69538,118.514a1.6443,1.6443,0,0,1,.13295.24492l-.0756-.17916a1.07053,1.07053,0,0,1,.07248.26021l-.02679-.19938a.83814.83814,0,0,1,0,.20214l.02679-.19938a.80832.80832,0,0,1-.05556.19825l.0756-.17916a.96643.96643,0,0,1-.11364.19061l.11727-.15179a1.42414,1.42414,0,0,1-.24934.24432l.15179-.11727a3.019,3.019,0,0,1-.66438.36866l.17916-.0756c-.2598.10912-.52862.19383-.78581.30949a.752.752,0,0,0-.34467.44822.7665.7665,0,0,0,.07561.57792.75692.75692,0,0,0,.44822.34467l.19938.02679a.74657.74657,0,0,0,.37854-.10239l.01976-.00868-.17916.0756c.37187-.15661.75828-.27306,1.11479-.46681a1.95957,1.95957,0,0,0,1.07886-1.28407,1.64914,1.64914,0,0,0-.02082-.70913,1.97746,1.97746,0,0,0-.26018-.57606.79145.79145,0,0,0-.44822-.34467.75019.75019,0,0,0-.847,1.10175Z"/><path d="M175.96949,121.19151a1.46272,1.46272,0,0,1,.14443.25385l-.0756-.17916a.92714.92714,0,0,1,.06408.2303l-.02679-.19938a.72912.72912,0,0,1-.00113.17952l.02679-.19938a.71414.71414,0,0,1-.046.16377l.07561-.17916a.85008.85008,0,0,1-.10157.17211l.11728-.15179a1.27289,1.27289,0,0,1-.22732.22227l.1518-.11727a2.69394,2.69394,0,0,1-.581.32307l.17916-.0756c-.23887.10077-.49052.16717-.72921.267a.83909.83909,0,0,0-.44822.34467.74995.74995,0,0,0,.26906,1.02614.72207.72207,0,0,0,.57792.07561c.12676-.053.2601-.09108.38961-.13669a6.50976,6.50976,0,0,0,.71137-.2937,1.90021,1.90021,0,0,0,1.10573-1.22742,1.63962,1.63962,0,0,0-.28078-1.25582.80424.80424,0,0,0-.44822-.34467.7665.7665,0,0,0-.57792.0756.757.757,0,0,0-.34467.44823.74228.74228,0,0,0,.0756.57791Z"/><path d="M175.506,123.7331a1.56,1.56,0,0,1,.13964.25362l-.07561-.17916a1.02309,1.02309,0,0,1,.06544.2312l-.02679-.19938a.78971.78971,0,0,1,.00041.20979l.02679-.19938a.77265.77265,0,0,1-.04943.17554l.0756-.17916a.91452.91452,0,0,1-.10822.18392l.11727-.15179a1.3561,1.3561,0,0,1-.24042.23638l.15179-.11727a2.88455,2.88455,0,0,1-.63544.35279l.17916-.07561c-.27481.11532-.55944.20277-.83269.32215a.75024.75024,0,0,0-.34467.44822.76655.76655,0,0,0,.07561.57792.757.757,0,0,0,.44822.34467l.19938.02679a.74657.74657,0,0,0,.37854-.10239l.01267-.00547-.17916.07561c.36969-.15436.75307-.26549,1.11025-.45241a2.6058,2.6058,0,0,0,.64413-.4638,1.558,1.558,0,0,0,.44383-.79733,1.60772,1.60772,0,0,0-.022-.71254,1.933,1.933,0,0,0-.25912-.56.79627.79627,0,0,0-.44822-.34466.7665.7665,0,0,0-.57792.0756.74995.74995,0,0,0-.26906,1.02614Z"/><path d="M174.969,126.96387a1.3351,1.3351,0,0,1,.15465.26382l-.07561-.17916a.841.841,0,0,1,.0547.19439l-.0268-.19938a.66154.66154,0,0,1,.00089.16427l.02679-.19938a.646.646,0,0,1-.04077.15034l.0756-.17916a.77451.77451,0,0,1-.10073.16928l.11727-.15179a1.18321,1.18321,0,0,1-.20194.19541l.15179-.11727a2.47988,2.47988,0,0,1-.53524.29764l.17916-.0756c-.26295.11083-.54007.17869-.80462.28337a.8177.8177,0,0,0-.44823.34467.75.75,0,0,0,.26907,1.02614.7292.7292,0,0,0,.57791.07561c.1243-.04918.25447-.08428.38126-.12632a6.652,6.652,0,0,0,.72322-.28634,1.82212,1.82212,0,0,0,1.10078-1.19417,1.44046,1.44046,0,0,0-.02106-.67858,1.72863,1.72863,0,0,0-.26288-.53487.81553.81553,0,0,0-.44823-.34467.76645.76645,0,0,0-.57792.07561.757.757,0,0,0-.34467.44822.732.732,0,0,0,.07561.57792Z"/><path d="M175.23428,129.47553c.03371.06084.06469.12257.09272.18624l-.07561-.17916a1.48322,1.48322,0,0,1,.10489.36647l-.02679-.19938a1.12939,1.12939,0,0,1,.00014.28323l.02679-.19938a1.077,1.077,0,0,1-.07031.253l.07561-.17916a1.25466,1.25466,0,0,1-.15151.25648l.11728-.15179a1.82126,1.82126,0,0,1-.318.31251l.15179-.11728a3.56381,3.56381,0,0,1-.67161.39391c-.16071.07488-.32982.13522-.48666.218a.75613.75613,0,0,0-.26906,1.02615.76674.76674,0,0,0,1.02614.26906c.30957-.16339.64052-.27293.93947-.46a2.19949,2.19949,0,0,0,1.1167-1.52177,2.10827,2.10827,0,0,0-.28676-1.31417.75745.75745,0,0,0-1.02614-.26906.76525.76525,0,0,0-.26906,1.02614Z"/><path d="M175.04364,133.33072a1.75012,1.75012,0,0,1,.12677.23953l-.0756-.17916a1.15256,1.15256,0,0,1,.07711.2781l-.02679-.19938a.90061.90061,0,0,1,.00016.21556l.02679-.19938a.86414.86414,0,0,1-.05844.21092l.07561-.17916a1.02545,1.02545,0,0,1-.11942.20222l.11728-.15179a1.49692,1.49692,0,0,1-.261.25807l.15179-.11727a3.19876,3.19876,0,0,1-.71665.3984l.17916-.0756c-.237.09957-.48238.17968-.71553.2886a.75462.75462,0,0,0-.34467.44822.76645.76645,0,0,0,.07561.57792.757.757,0,0,0,.44822.34467.84932.84932,0,0,0,.57792-.07561l.04336-.01915-.17916.0756a9.27483,9.27483,0,0,0,1.12441-.491,2.50929,2.50929,0,0,0,.62273-.48592,1.77,1.77,0,0,0,.2737-.38229,1.71441,1.71441,0,0,0,.17825-.62741,1.8142,1.8142,0,0,0-.30644-1.11173.78554.78554,0,0,0-.44822-.34467.75019.75019,0,0,0-.847,1.10175Z"/><path d="M174.64653,136.01083a1.84005,1.84005,0,0,1,.11863.22487l-.0756-.17916a1.21508,1.21508,0,0,1,.08294.28807l-.0268-.19938a.92953.92953,0,0,1,.00083.24079l.02679-.19938a.89991.89991,0,0,1-.05476.20058l.0756-.17916a1.04851,1.04851,0,0,1-.13009.223l.11727-.15179a1.54761,1.54761,0,0,1-.26743.26385l.15179-.11728a3.3105,3.3105,0,0,1-.74131.41165l.17916-.07561c-.22466.09445-.45745.17187-.67763.27674a.756.756,0,0,0-.34467.44822.7665.7665,0,0,0,.07561.57792.75705.75705,0,0,0,.44822.34467.843.843,0,0,0,.57792-.07561c.01724-.00821.0347-.01586.05227-.02331l-.17916.0756a8.72857,8.72857,0,0,0,1.12141-.49892,2.50483,2.50483,0,0,0,.62015-.49278,1.78127,1.78127,0,0,0,.27437-.39,1.76137,1.76137,0,0,0,.17563-.62718,1.85211,1.85211,0,0,0-.30593-1.12344.75012.75012,0,1,0-1.29521.75707Z"/><path d="M174.47571,139.46533a1.47775,1.47775,0,0,1,.14485.25753l-.07561-.17916a.95817.95817,0,0,1,.06164.21764l-.02679-.19938a.75033.75033,0,0,1,.00212.18334l.02679-.19937a.72172.72172,0,0,1-.04911.18048l.07561-.17916a.86761.86761,0,0,1-.10322.1743l.11727-.15179a1.29424,1.29424,0,0,1-.23007.22491l.15179-.11727a2.75116,2.75116,0,0,1-.60025.3326l.17916-.07561c-.291.122-.593.21216-.88373.335a.74827.74827,0,0,0-.34467.44823.76648.76648,0,0,0,.07561.57791.757.757,0,0,0,.44822.34467l.19938.0268a.74668.74668,0,0,0,.37854-.1024l.006-.00255-.17916.07561c.12828-.053.26238-.09231.393-.139a6.34513,6.34513,0,0,0,.71543-.29939,2.59614,2.59614,0,0,0,.65138-.45647,1.51538,1.51538,0,0,0,.44322-.78358,1.5427,1.5427,0,0,0-.02044-.69459,1.84934,1.84934,0,0,0-.2618-.55639.8023.8023,0,0,0-.44822-.34467.76655.76655,0,0,0-.57792.07561.75705.75705,0,0,0-.34467.44822.74439.74439,0,0,0,.07561.57792Z"/><path d="M169.87012,107.35692c.80806-.30493,1.64079-.51831,2.46752-.7637a11.03663,11.03663,0,0,0,2.46874-1.0533.75012.75012,0,0,0-.75708-1.29521c-.20383.12-.4106.23439-.62245.33966q-.13828.06871-.2789.13255-.06813.03093-.13678.06067c-.1149.04971.09082-.03613-.02324.00913-.36534.145-.73721.26873-1.1143.37933-.80573.2363-1.61555.44757-2.40227.74445a.76709.76709,0,0,0-.52383.92259.75861.75861,0,0,0,.92259.52383Z"/><polygon class="r" points="173.892 90.806 181.237 92.55 186.43 95.055 184.37 92.585 177.005 89.948 172.956 90.525 173.892 90.806"/><path class="s" d="M156.19873,116.93763l-.55273.0581.16406-.77356.208-.02185a1.15446,1.15446,0,0,0,.47168-.13379.64757.64757,0,0,0,.25293-.27758,1.03692,1.03692,0,0,0,.08984-.43494q.0044-.2591-.00293-.79285l-.00586-.05859a.63667.63667,0,0,0-.084-.27307.371.371,0,0,0-.17579-.14722.77551.77551,0,0,0-.35449-.02014l-1.47851.1554-.22266-2.1128.94336-.09924.14355,1.3645.667-.06994a1.54084,1.54084,0,0,1,1.05273.18212,1.11734,1.11734,0,0,1,.42676.8501l.01172.16712.01269.80224a1.58447,1.58447,0,0,1-.374,1.15174A1.86556,1.86556,0,0,1,156.19873,116.93763Z"/><path class="s" d="M159.31494,112.2732l-.18457,1.33118-.80371.08435.415-1.35535Zm1.21582-.12781-.19336,1.332-.7959.08362.41895-1.35571Z"/><path class="s" d="M165.023,116.01014l-.94336.09924-.209-1.99a.96691.96691,0,0,0-.27247-.62256.83921.83921,0,0,0-.69531-.1709,4.61926,4.61926,0,0,0-.53613.09058q-.28418.06336-.93359.25891l-.00489-.77356a7.15365,7.15365,0,0,1,1.59864-.36279,1.46395,1.46395,0,0,1,1.7832,1.44617Zm-2.30566.24231-.94629.09961-.2168-2.05713.89844-.55835Z"/><path class="s" d="M165.67334,115.168l1.78809-.188-2.084-2.29224.81641-.51733,1.335,1.47a1.20523,1.20523,0,0,0,.11914-.35071,1.98384,1.98384,0,0,0-.00293-.48865l-.07324-.6897.92871-.09765.08008.75976a1.54039,1.54039,0,0,1-.083.72522,2.21091,2.21091,0,0,1-.49219.71509l.65723.74915-.083.67346-3.001.31543Z"/><polygon class="r" points="164.58 101.204 167.621 101.021 171.924 103.026 171.133 96.813 177.624 98.326 175.018 105.395 172.651 114.464 168.705 113.059 166.378 111.193 164.305 108.325 163.923 104.506 164.58 101.204"/><path d="M179.21154,99.03776c-2.47716,3.87-4.15257,6.60272-4.05353,11.19658a17.82742,17.82742,0,0,1-.02894,3.67507c-.23536.78065-3.13215,1.13223-3.18633-.02894-.227-4.86431,1.66647-12.56311,4.973-16.138"/><polygon class="h" points="122.071 126.094 123.189 131.818 89.537 149.094 89.146 141.274 89.724 139.119 91.647 146.013 92.487 128.76 96.422 142.524 101.758 131.959 103.756 139.666 117.184 132.36 122.071 126.094"/><path class="f" d="M116.86028,123.90675c1.19023,3.40029,2.25307,6.8441,3.4433,10.24439l1.541-.64968c-2.76134-4.815-4.96956-9.93456-7.7309-14.7496a.84376.84376,0,0,0-1.456.85109c2.76134,4.815,4.96956,9.93456,7.7309,14.74959.4634.80805,1.8637.27214,1.541-.64968-1.19022-3.40029-2.25307-6.84409-3.4433-10.24438-.35621-1.01764-1.98588-.57978-1.626.44827Z"/><path d="M90.46077,127.82391a48.3142,48.3142,0,0,1,2.69719,5.82762,16.61963,16.61963,0,0,1,1.47122,6.114.5003.5003,0,0,0,1,0,17.291,17.291,0,0,0-1.50694-6.37986,50.26435,50.26435,0,0,0-2.798-6.0665c-.30853-.565-1.17233-.06089-.86347.50472Z"/><path class="t" d="M101.16184,129.15012s1.049,8.95605-.43848,13.48506"/><path class="t" d="M89.50216,138.85875a26.47382,26.47382,0,0,1,1.20795,9.09975"/><path d="M170.683,102.964a24.23469,24.23469,0,0,0,3.73264-1.96674c1.18315-.7154,2.34219-1.47046,3.52981-2.17838a.75056.75056,0,0,0-.75708-1.29521c-1.1578.69015-2.28827,1.42546-3.44075,2.12445-.63443.38478-1.27347.76274-1.92489,1.11817-.27774.15154-.55779.299-.84181.43845-.13414.06585-.26908.13007-.40532.19145-.00125.00056-.22267.09655-.09645.04381-.06453.027-.12969.05236-.19491.07758a.772.772,0,0,0-.52383.92259.75558.75558,0,0,0,.92259.52383Z"/><path d="M165.803,87.20836c3.36041,4.16184,4.2866,10.30648,4.77237,15.47492l1.43931-.59618c-3.46084-3.36481-8.50439-2.96881-12.88051-4.06427a.85686.85686,0,0,0-.95215.38747,20.136,20.136,0,0,0-1.56182,7.61993l1.06727-.813c-4.10151-.82319-7.735,3.65981-10.59631,5.91366-.8519.671.34867,1.85694,1.19236,1.19237,1.44032-1.13453,2.76267-2.41257,4.229-3.5153,1.265-.9513,3.03954-2.30332,4.72664-1.96471a.858.858,0,0,0,1.06727-.813,17.99521,17.99521,0,0,1,1.33159-6.76885l-.95215.38747c3.99763,1.00072,8.98005.56183,12.13642,3.63061.48392.4705,1.51073.16369,1.43931-.59618-.53365-5.67793-1.5831-12.1057-5.26626-16.66729-.68184-.84445-1.86834.35518-1.19237,1.19237Z"/></svg>