<svg xmlns="http://www.w3.org/2000/svg" xmlns:xlink="http://www.w3.org/1999/xlink" viewBox="0 0 222.66748 271.45404"><defs><style>.a{fill:#cab192;}.b{fill:#747c58;}.c{fill:#ededed;}.d{fill:#cecece;}.e{fill:#fff;}.f,.h{fill:#c9b092;}.g,.k,.l,.s,.t,.w{fill:none;}.g,.h,.k,.l,.w{stroke:#000;}.g,.k,.l,.r,.s,.t,.w{stroke-linecap:round;}.g,.h,.k,.l,.t,.w{stroke-miterlimit:10;}.g{stroke-width:0.5px;}.h{stroke-width:0.5664px;}.i{fill:#27421d;}.j{fill:#54593e;}.k{stroke-width:1.38334px;}.l{stroke-width:1.10591px;}.m{fill:#080808;}.n{clip-path:url(#a);}.o{fill:#271d1d;}.p{clip-path:url(#b);}.q{fill:#707171;}.r{fill:#284220;}.r,.s,.t{stroke:#27421d;stroke-width:2px;}.r,.s{stroke-linejoin:round;}.u{fill:#525222;}.v{fill:#231f20;}</style><clipPath id="a"><polygon class="a" points="151.499 81.377 149.13 70.496 150.346 68.375 154.347 65.332 156.037 57.772 152.045 55.539 146.184 41.013 133.227 38.52 121.934 44.296 121.941 60.114 120.223 62.373 122.912 69.657 124.24 70.481 124.932 74.675 128.708 78.158 130.247 86.936 126.582 93.525 133.81 109.029 144.387 111.883 155.302 95.617 160.199 85.134 151.499 81.377"/></clipPath><clipPath id="b"><polygon class="b" points="170.789 162.66 163.847 165.443 146.043 164.097 124.152 162.395 123.084 160.74 124.152 157.109 113.552 119.917 105.897 107.684 109.331 96.115 125.13 88.435 129.923 83.259 130.232 86.338 129.891 91.69 138.367 106.097 151.715 87.944 151.572 79.28 156.245 83.316 174.087 90.865 175.426 115.811 173.256 123.513 170.789 162.66"/></clipPath></defs><circle class="c" cx="111.3335" cy="111.33368" r="108.83386"/><path class="d" d="M111.3335,5c58.48339,0,106.334,47.85008,106.334,106.33358v.00023c0,58.48346-47.85059,106.33358-106.334,106.33358S5,169.81727,5,111.33381v-.00023C5,52.85008,52.8501,5,111.3335,5m0-5A111.20485,111.20485,0,0,0,32.7002,189.96739,111.20489,111.20489,0,1,0,189.96729,32.7,110.54262,110.54262,0,0,0,111.3335,0Z"/><path class="e" d="M15.88721,254.32709v9.12011a.6674.6674,0,0,1-.69043.69H13.936a.66734.66734,0,0,1-.68946-.69V254.477q0-5.15918-5.12988-5.15967H5.92627q-.29883,1.74024-.43457,3.02979a28.56533,28.56533,0,0,0-.13574,2.93994l.06054,8.16015a.70473.70473,0,0,1-.17968.49512.62136.62136,0,0,1-.48047.19483l-4.16992-.06006a.66735.66735,0,0,1-.68946-.68994v-.89991a.66735.66735,0,0,1,.68946-.68994l2.28027.02979v-6.41992q0-1.91969.10449-3.21a20.98446,20.98446,0,0,1,.46485-2.87988H1.84619a.69832.69832,0,0,1-.49414-.18017.619.619,0,0,1-.19531-.48v-.96a.66733.66733,0,0,1,.68945-.68994H8.26611Q15.88623,247.00726,15.88721,254.32709Z"/><path class="e" d="M20.37158,256.98236a.66736.66736,0,0,1-.19531-.49512v-8.79a.66733.66733,0,0,1,.68945-.68994H22.186a.66739.66739,0,0,1,.69042.68994v8.79a.66739.66739,0,0,1-.69042.69H20.86572A.67008.67008,0,0,1,20.37158,256.98236Z"/><path class="e" d="M44.17627,247.187a.69438.69438,0,0,1,.17969.51025v8.33985a9.12131,9.12131,0,0,1-1.03516,4.42529,7.032,7.032,0,0,1-2.91016,2.90967,8.51255,8.51255,0,0,1-4.30468.94531H33.88623a6.83161,6.83161,0,0,1-3.47949-.90039,6.44037,6.44037,0,0,1-2.46094-2.53467,7.68321,7.68321,0,0,1-.90039-3.76513V247.6972a.66739.66739,0,0,1,.69043-.68994h1.1709a.66733.66733,0,0,1,.68945.68994l.08985,8.52a5.39577,5.39577,0,0,0,3.81054-1.47021,4.89367,4.89367,0,0,0,1.08008-3.29981v-3.75a.702.702,0,0,1,.17969-.49511.61942.61942,0,0,1,.47949-.19483h1.1709a.66733.66733,0,0,1,.68945.68994v3.87012a6.477,6.477,0,0,1-1.83008,4.73975,7.79535,7.79535,0,0,1-5.37011,2.04,4.74349,4.74349,0,0,0,1.78515,2.68506,5.20178,5.20178,0,0,0,3.13477.94482h.96a5.72749,5.72749,0,0,0,4.44043-1.6499,6.2365,6.2365,0,0,0,1.58984-4.46973V247.6972a.66592.66592,0,0,1,.69043-.68994H43.6665A.69272.69272,0,0,1,44.17627,247.187Z"/><path class="e" d="M62.23584,263.53705a.61672.61672,0,0,1-.60059.6001H60.28564a.77986.77986,0,0,1-.5996-.2251q-.21095-.22485-.24024-.25488L52.606,254.02728a4.8942,4.8942,0,0,0-1.75489,2.21973,7.99462,7.99462,0,0,0-.46582,2.79v4.41015a.66585.66585,0,0,1-.68945.69H48.58643a.66591.66591,0,0,1-.69043-.69v-4.53027a10.19323,10.19323,0,0,1,.6748-3.86963,6.7667,6.7667,0,0,1,2.65527-2.97021l-2.79-3.8999a1.10709,1.10709,0,0,1-.21-.56983.614.614,0,0,1,.59961-.6001H50.146a1.02539,1.02539,0,0,1,.83984.50977l6.2998,8.79a4.99717,4.99717,0,0,0,1.5752-1.31983,3.38308,3.38308,0,0,0,.61523-1.36523,10.4731,10.4731,0,0,0,.12012-1.75488V247.6972a.66733.66733,0,0,1,.68945-.68994h1.16993a.6674.6674,0,0,1,.69043.68994v4.29a8.07547,8.07547,0,0,1-.69043,3.50977,6.82143,6.82143,0,0,1-2.82032,2.70019l3.39063,4.77A.91581.91581,0,0,1,62.23584,263.53705Z"/><path class="e" d="M75.42041,263.94232a.66736.66736,0,0,1-.19531-.49512V254.477q0-5.15918-5.16016-5.15967H66.1958a.69912.69912,0,0,1-.49512-.18017.62232.62232,0,0,1-.19531-.48v-.96a.66739.66739,0,0,1,.69043-.68994h4.04981q7.61865,0,7.62011,7.31983v9.12011a.66739.66739,0,0,1-.69043.69H75.91553A.66888.66888,0,0,1,75.42041,263.94232Z"/><path class="e" d="M102.28467,247.187a.69082.69082,0,0,1,.18066.51025V255.977a7.3337,7.3337,0,0,1-1.72558,4.75537,9.2111,9.2111,0,0,1-4.665,2.98486l-6.54,2.06983a.77336.77336,0,0,1-.23926.03027.63645.63645,0,0,1-.4209-.15039.483.483,0,0,1-.17969-.38965v-.93017q0-.68994.4795-.83985l3.92968-1.29L89.20459,248.207a3.72125,3.72125,0,0,1-.14941-.59961.614.614,0,0,1,.59961-.6001h1.37988a.7293.7293,0,0,1,.45019.13477.6684.6684,0,0,1,.24024.31494l3.83984,13.92041a6.09623,6.09623,0,0,0,3.31445-2.37012,7.18207,7.18207,0,0,0,.94532-3.84033V247.6972a.66733.66733,0,0,1,.68945-.68994h1.26074A.69118.69118,0,0,1,102.28467,247.187Z"/><path class="e" d="M107.15967,263.94232a.67115.67115,0,0,1-.19531-.49512v-15.75a.66739.66739,0,0,1,.69043-.68994h1.32031a.66733.66733,0,0,1,.68945.68994v15.75a.66734.66734,0,0,1-.68945.69h-1.32031A.66888.66888,0,0,1,107.15967,263.94232Z"/><path class="e" d="M123.53955,263.94232a.66736.66736,0,0,1-.19531-.49512V254.477q0-5.15918-5.16016-5.15967h-3.86914a.69912.69912,0,0,1-.49512-.18017.62232.62232,0,0,1-.19531-.48v-.96a.66739.66739,0,0,1,.69043-.68994h4.04981q7.61865,0,7.62011,7.31983v9.12011a.66739.66739,0,0,1-.69043.69h-1.25976A.66888.66888,0,0,1,123.53955,263.94232Z"/><path class="e" d="M138.14893,247.20209a.6727.6727,0,0,1,.19531.49511v.96a.62232.62232,0,0,1-.19531.48.7024.7024,0,0,1-.49512.18017h-1.76953a3.30252,3.30252,0,0,0-.67481,1.40967,8.42982,8.42982,0,0,0-.25586,2.16016V263.477a.60294.60294,0,0,1-.209.48.75924.75924,0,0,1-.51074.18018h-1.25977a.62061.62061,0,0,1-.66016-.66016v-10.77a9.03478,9.03478,0,0,1,.21-2.09961,3.1033,3.1033,0,0,1,.57031-1.29h-2.64063a.69832.69832,0,0,1-.49414-.18017.619.619,0,0,1-.19531-.48v-.96a.66733.66733,0,0,1,.68945-.68994h7.2002A.67231.67231,0,0,1,138.14893,247.20209Z"/><path class="e" d="M164.86377,254.32709v9.12011a.66734.66734,0,0,1-.68945.69h-1.26075a.6674.6674,0,0,1-.69043-.69V254.477q0-5.15918-5.1289-5.15967h-2.19043q-.3003,1.74024-.43457,3.02979a28.5625,28.5625,0,0,0-.13574,2.93994l.05957,8.16015a.70036.70036,0,0,1-.17969.49512.61779.61779,0,0,1-.47949.19483l-4.1709-.06006a.66733.66733,0,0,1-.68945-.68994v-.89991a.66733.66733,0,0,1,.68945-.68994l2.28125.02979v-6.41992q0-1.91969.10449-3.21a20.83817,20.83817,0,0,1,.46484-2.87988h-1.58984a.70077.70077,0,0,1-.49512-.18017.619.619,0,0,1-.19531-.48v-.96a.66739.66739,0,0,1,.69043-.68994h6.41992Q164.86377,247.00726,164.86377,254.32709Z"/><path class="e" d="M182.15869,247.20209a.67652.67652,0,0,1,.19531.49511v.96a.62569.62569,0,0,1-.19531.48.70238.70238,0,0,1-.49512.18017h-1.7705a3.31391,3.31391,0,0,0-.67481,1.40967,8.43167,8.43167,0,0,0-.25488,2.16016V263.477a.60067.60067,0,0,1-.21.48.75492.75492,0,0,1-.50977.18018h-1.26074a.62061.62061,0,0,1-.66016-.66016v-10.77a9.03057,9.03057,0,0,1,.21094-2.09961,3.10355,3.10355,0,0,1,.57031-1.29h-8.28125a.7.7,0,0,1-.49414-.18017.619.619,0,0,1-.19531-.48v-.96a.66733.66733,0,0,1,.68945-.68994h12.84082A.67229.67229,0,0,1,182.15869,247.20209Z"/><path class="e" d="M195.29736,263.94232a.6704.6704,0,0,1-.19433-.49512V254.477q0-5.15918-5.16016-5.15967h-3.87012a.6967.6967,0,0,1-.49414-.18017.619.619,0,0,1-.19531-.48v-.96a.66733.66733,0,0,1,.68945-.68994h4.05079q7.61865,0,7.61914,7.31983v9.12011a.66735.66735,0,0,1-.68946.69h-1.25976A.67115.67115,0,0,1,195.29736,263.94232Z"/><path class="e" d="M202.438,263.94232a.66736.66736,0,0,1-.19531-.49512v-15.75a.66733.66733,0,0,1,.68945-.68994h1.32031a.66585.66585,0,0,1,.68945.68994v15.75a.66585.66585,0,0,1-.68945.69h-1.32031A.66664.66664,0,0,1,202.438,263.94232Z"/><path class="e" d="M221.188,263.94232a.66736.66736,0,0,1-.19531-.49512V254.477q0-5.15918-5.13086-5.15967h-5.58008a.7.7,0,0,1-.49414-.18017.619.619,0,0,1-.19531-.48v-.96a.66733.66733,0,0,1,.68945-.68994h5.73047q7.62012,0,7.62011,7.37989v9.06005a.7004.7004,0,0,1-.17968.49512.62065.62065,0,0,1-.4795.19483h-1.291A.66664.66664,0,0,1,221.188,263.94232Zm-11.40039,0a.66736.66736,0,0,1-.19531-.49512V253.36713a.66732.66732,0,0,1,.68945-.68994h1.26074a.66737.66737,0,0,1,.69043.68994V263.4472a.66739.66739,0,0,1-.69043.69h-1.26074A.66817.66817,0,0,1,209.7876,263.94232Z"/><path class="f" d="M21.80647,112.30749c2.245-1.82664,6.06871.69837,6.06871.69837l4.612.27081,3.61592,1.82878,3.64043.72185c3.20644,9.87917-.75332,9.29542-.75332,9.29542L36.133,124.313l-1.48835-.27082-1.42649,2.20907-2.85438,2.67551s-1.346.8381-2.05357.52141-5.82175.20842-5.82175.20842-4.87842,1.97351-5.10836-1.668a13.79275,13.79275,0,0,0-1.77225-6.055s-1.36492-5.35374-.8663-6.00258S21.80647,112.30749,21.80647,112.30749Z"/><path class="g" d="M19.62615,130.18249s-3.46362.27594-2.31195-2.93023l1.76162-1.22134"/><path class="g" d="M18.743,126.3285s-3.46361.27593-2.31195-2.93023l1.76163-1.22135"/><path class="g" d="M17.12848,118.60423s-3.46361.27593-2.31195-2.93023l1.76163-1.22135"/><path class="g" d="M17.55948,122.29323s-3.46361.27594-2.312-2.93023l1.76163-1.22134"/><path class="h" d="M32.38949,127.83593l-1.2811.91958a3.99476,3.99476,0,0,0-1.17073,4.81335c.52732,1.44424.95916,2.89474.65675,3.10236-.62608.42982-2.2754,4.68771-4.35195,1.45641s-3.33848-9.04524-3.33848-9.04524"/><path class="i" d="M173.92552,133.63326a37.14718,37.14718,0,0,0-5.66077-22.70973c-.4757-.74964-1.67334-.05644-1.19447.69819a35.89592,35.89592,0,0,1,5.47191,22.01154c-.06874.88775,1.31494.88331,1.38333,0Z"/><polygon class="b" points="173.611 162.268 187.72 145.981 190.12 141.331 180.184 138.802 171.03 143.207 155.538 163.168 155.544 165.639 167.437 165.712 168.039 165.071 173.611 162.268"/><polygon class="b" points="175.044 90.41 190.12 141.331 184.779 147.442 178.332 146.355 159.191 117.817 160.796 100.102 164.191 92.155 170.498 88.344 175.044 90.41"/><polygon class="j" points="169.585 145.257 169.819 147.125 171.752 143.934 173.443 143.315 175.83 145.741 176.087 143.146 178.652 143.962 177.037 141.499 178.793 140.527 174.78 139.871 172.596 135.227 167.183 127.231 167.732 130.551 171.165 136.845 173.202 140.068 174.156 141.537 171.008 143.126 169.585 145.257"/><path class="k" d="M174.97541,141.43431s2.85925,3.6662,6.45575,2.47994"/><path class="l" d="M174.76389,141.78364s.352,4.2586,2.83644,4.21716"/><path class="l" d="M175.07326,140.78547s4.18932.84212,4.83811-1.55648"/><polygon class="b" points="130.823 98.883 125.663 96.796 117.012 93.031 70.168 112.371 65.565 119.455 69.835 126.359 115.646 121.096 130.308 106.106 130.823 98.883"/><path d="M170.06687,132.22674c-1.642-3.84422-5.33485-5.95642-9.31886-6.64909a.86756.86756,0,0,0-1.03714.58887.85019.85019,0,0,0,.58887,1.03715,13.1022,13.1022,0,0,1,5.05923,1.87676,8.9268,8.9268,0,0,1,3.25186,3.99739.84832.84832,0,0,0,1.15357.30248.86543.86543,0,0,0,.30247-1.15356Z"/><path class="m" d="M165.26382,129.00664l-3.84405,4.11719a.84313.84313,0,0,0,1.19237,1.19236l3.844-4.11719a.84313.84313,0,1,0-1.19236-1.19236Z"/><path class="m" d="M169.863,132.22674a3.73744,3.73744,0,0,0-1.50851-1.41565,4.94159,4.94159,0,0,0-1.84937-.419,7.62556,7.62556,0,0,0-1.80917.1478,2.78218,2.78218,0,0,0-1.57574.76267.86472.86472,0,0,0,0,1.19237.85055.85055,0,0,0,1.19237,0c.00624-.00727.08471-.10224.09445-.098-.00423-.00186-.18763.11719-.03262.02877.06261-.03571.33779-.14929.12051-.07645a5.24415,5.24415,0,0,1,.6827-.19c.05633-.0108.11291-.02.16945-.02964.091-.01545.13363-.01692.01662-.00383.12606-.01411.252-.02708.37862-.03574a6.90174,6.90174,0,0,1,.70521-.01394c.0995.00337.19845.01054.29765.01853.02906.00233.17079.025.0416.00382-.14472-.02372.0596.01132.08886.01644a4.34919,4.34919,0,0,1,.71108.188c-.101-.0359-.08544-.04132.00327.00519.04731.0248.095.04872.14116.07563.0564.03287.10956.06991.16429.10525.17351.112-.11273-.11236.04113.03542.08768.08421.1753.16618.25551.25792.00534.00611.15285.19711.06737.07961.05131.07054.09969.143.14753.21591a.86222.86222,0,0,0,1.15356.30248.85189.85189,0,0,0,.30247-1.15356Z"/><path class="m" d="M168.26454,130.29007a1.41855,1.41855,0,0,0-.53171-.213,4.05238,4.05238,0,0,0-.65181-.06943,9.21354,9.21354,0,0,1-.964-.03167l.22414.03012a1.268,1.268,0,0,1-.29036-.0734l.2014.085a.70661.70661,0,0,1-.12445-.06856l-.85109,1.456a1.67048,1.67048,0,0,0,1.38589.34888.836.836,0,0,0,.54637-.48817.87116.87116,0,0,0-.04249-.75038l-.51216-1.12742-1.3242,1.02173,1.18764,1.10931a.88117.88117,0,0,0,.59619.24695.84313.84313,0,0,0,.59618-1.43931l-1.18765-1.10932a.84871.84871,0,0,0-1.107-.06591.80436.80436,0,0,0-.30215.438l-.03012.22414a.83919.83919,0,0,0,.11511.42554l.51216,1.12741.50388-1.23855a.33674.33674,0,0,1-.05849.01483l.22414-.03012a.51624.51624,0,0,1-.12013-.00006l.22414.03012a.79916.79916,0,0,1-.15287-.04388l.20141.085a2.97858,2.97858,0,0,1-.40472-.23478.84334.84334,0,0,0-1.23856.95215.94714.94714,0,0,0,.38747.50388,1.41852,1.41852,0,0,0,.53171.213,4.05238,4.05238,0,0,0,.65181.06943,9.21336,9.21336,0,0,1,.964.03167l-.22413-.03012a1.26777,1.26777,0,0,1,.29036.07341l-.20141-.085a.70575.70575,0,0,1,.12446.06857.84334.84334,0,0,0,1.23855-.95216.94709.94709,0,0,0-.38747-.50388Z"/><polygon class="b" points="34.006 114.38 42.863 113.022 46.198 110.211 71.328 106.359 85.955 110.835 85.737 121.75 83.502 124.148 80.63 125.782 47.319 128.153 43.403 124.907 35.799 126.072 35.871 116.66 34.006 114.38"/><path d="M80.03479,108.74259a19.78018,19.78018,0,0,1,3.11939,4.35541c.3011.56905,1.16457.06432.86347-.50472a20.77254,20.77254,0,0,0-3.27575-4.5578c-.44336-.4683-1.14963.23969-.70711.70711Z"/><path d="M52.58206,126.30656c-.18251.04483-.36832.07555-.554.10359-.05182.00783-.10385.0144-.15562.02248.25295-.03949.04759-.00628-.0003-.00057-.14439.0172-.28871.0344-.43335.04949q-.95766.09991-1.92134.12916a14.44456,14.44456,0,0,1-1.89256-.04535c-.06164-.00628-.12309-.01378-.18462-.021.25124.02943-.01144-.00414-.0624-.01339-.102-.01852-.20372-.03982-.30378-.06717-.05158-.01409-.10235-.03462-.15412-.04725-.17847-.04354.13629.09418.03043.01522a.5184.5184,0,0,0-.0952-.05253c-.11745-.03354.17092.15665.04794.03318a.84361.84361,0,0,0-1.19237,1.19237,2.76712,2.76712,0,0,0,1.67.618,13.25972,13.25972,0,0,0,1.985.07821,17.26815,17.26815,0,0,0,3.6646-.36841c1.05333-.25872.60721-1.88528-.44827-1.626Z"/><polygon class="a" points="151.499 81.377 149.13 70.496 150.346 68.375 154.347 65.332 156.037 57.772 152.045 55.539 146.184 41.013 133.227 38.52 121.934 44.296 121.941 60.114 120.223 62.373 122.912 69.657 124.24 70.481 124.932 74.675 128.708 78.158 130.247 86.936 126.582 93.525 133.81 109.029 144.387 111.883 155.302 95.617 160.199 85.134 151.499 81.377"/><g class="n"><polygon class="o" points="148.991 61.605 155.758 47.675 109.384 5.022 122.326 61.921 122.988 45.834 131.296 46.377 139.734 43.666 140.906 46.975 145.608 49.266 148.991 61.605"/></g><polygon points="128.53 52.802 127.896 50.797 123.473 52.891 123.019 54.545 128.53 52.802"/><path d="M138.94056,67.065a12.112,12.112,0,0,1-7.13251,2.31159.801.801,0,0,0,0,1.6011,13.57431,13.57431,0,0,0,7.94061-2.53019.82354.82354,0,0,0,.2872-1.09531.80687.80687,0,0,0-1.0953-.28719Z"/><path d="M146.06805,74.09735l-6.7024,5.78014-5.90682,1.73744-4.75093-3.45671,4.42935,7.41151a4.18434,4.18434,0,0,0,2.2,1.82h0a4.18431,4.18431,0,0,0,2.03644.19612l.20456-.03111a4.18443,4.18443,0,0,0,2.51669-1.37784l1.33439-1.52161a4.18435,4.18435,0,0,0,.782-1.31671l2.47423-6.73879Z"/><path d="M145.27812,74.305c-1.1907,1.33087-2.448,2.604-3.66924,3.90672-.25085.26757-.50275.53446-.74731.80782-.46.51411.29762,1.27672.76.76,1.1907-1.33087,2.448-2.604,3.66924-3.90672.25084-.26757.50274-.53446.74731-.80782.46-.51411-.29762-1.27673-.76-.76Z"/><path d="M126.34858,54.96913c.06624.11817.12625.2387.18421.361.07008.14792-.05561-.14678.02012.049q.03657.09453.069.19057a5.84383,5.84383,0,0,1,.18615.7586q.01412.0918-.00807-.06945.00729.05748.01316.11512.00875.08645.01438.17319.01313.20228.00836.40524c-.00314.13536-.01439.2696-.02728.40432-.01893.19795.03406-.17874-.00317.01662-.01447.07592-.02759.1519-.04365.22754l1.338-.35326c-.11284-.09263-.19887-.21329-.3081-.3062.02441.02077.09877.13718.03876.04835-.02222-.03288-.04488-.06525-.06615-.09876q-.05746-.09057-.10683-.186-.022-.04254-.04254-.08586c-.01273-.02682-.073-.15959-.01779-.03671.05152.11461.00535.00818-.004-.01715q-.02111-.05724-.04016-.11521a4.11934,4.11934,0,0,1-.11441-.43088q-.02079-.09843-.03766-.19765c-.00712-.04153-.01265-.08338-.01993-.12488-.01867-.10629.02.16946.00786.062-.01719-.15163-.0333-.3031-.04446-.45533-.011-.15042-.019-.30105-.0255-.45172-.00165-.038.00034-.07839-.00409-.116-.01226-.10411-.0107.05454-.0189.08452.029-.10616-.031.06021-.04051.07734q-.97559.52067-1.19649-.086a.575.575,0,0,1-.03482-.4309l.20588-.35326.1306-.1022.404-.1093-.02561.00133a.80055.80055,0,0,0,0,1.6011A.87252.87252,0,0,0,127.5645,54.29a.92417.92417,0,0,0-1.31881-.563c-.64272.35676-.54407,1.13686-.4879,1.75364a4.08286,4.08286,0,0,0,1.20988,2.89919.83356.83356,0,0,0,.77889.20588.79467.79467,0,0,0,.55914-.55913,5.53564,5.53564,0,0,0-.57462-3.86556.80068.80068,0,0,0-1.3825.80811Z"/><path d="M137.9654,53.202c.06624.11817.12625.2387.18421.361.07008.14792-.05561-.14678.02012.049q.03657.09453.069.19057a5.84423,5.84423,0,0,1,.18615.7586q.01412.0918-.00806-.06945.00729.05748.01315.11512.00875.08645.01438.17319.01313.20228.00836.40524c-.00313.13536-.01439.2696-.02728.40432-.01893.19795.03407-.17874-.00317.01662-.01447.07592-.02759.1519-.04365.22754l1.338-.35325c-.11284-.09264-.19887-.2133-.3081-.3062.02441.02076.09878.13718.03876.04834-.02222-.03288-.04488-.06525-.06614-.09876q-.05748-.09057-.10683-.186-.022-.04254-.04254-.08585c-.01274-.02683-.073-.1596-.01779-.03671.05151.11461.00534.00817-.004-.01715q-.02111-.05725-.04016-.11522a4.11868,4.11868,0,0,1-.11441-.43088q-.02079-.09842-.03766-.19764c-.00711-.04154-.01265-.08339-.01993-.12488-.01867-.1063.02.16945.00786.062-.01719-.15163-.0333-.3031-.04445-.45533-.011-.15042-.019-.301-.02551-.45172-.00165-.038.00035-.07839-.00409-.116-.01226-.1041-.0107.05455-.01889.08452.029-.10616-.031.06021-.04052.07734q-.97559.52067-1.19649-.086a.575.575,0,0,1-.03482-.4309l.20588-.35325.1306-.10221.40405-.1093-.02561.00134a.80055.80055,0,1,0,0,1.6011.87253.87253,0,0,0,.82546-1.12834.92417.92417,0,0,0-1.31881-.563c-.64272.35676-.54407,1.13686-.4879,1.75364a4.083,4.083,0,0,0,1.20988,2.8992.83358.83358,0,0,0,.77889.20587.79465.79465,0,0,0,.55914-.55913,5.53566,5.53566,0,0,0-.57461-3.86555.80068.80068,0,0,0-1.38251.8081Z"/><path d="M152.87381,60.26172l-1.91552,1.37022a.86405.86405,0,0,0-.3679.47844.81814.81814,0,0,0,.0807.61687.80811.80811,0,0,0,.47843.3679.787.787,0,0,0,.61688-.0807l1.91551-1.37022a.864.864,0,0,0,.3679-.47844.81809.81809,0,0,0-.0807-.61687.808.808,0,0,0-.47843-.3679.78693.78693,0,0,0-.61687.0807Z"/><path d="M151.45277,59.737l-.92434,2.54848a.80093.80093,0,0,0,.55913.98478.82141.82141,0,0,0,.98478-.55914l.92434-2.54849a.80092.80092,0,0,0-.55913-.98477.82141.82141,0,0,0-.98478.55914Z"/><path d="M154.85461,57.79781a6.16962,6.16962,0,0,0-3.30559,1.75381.80055.80055,0,0,0,1.13214,1.13215c.09613-.09793.19516-.1928.29826-.28339q.07275-.06391.14777-.12512c.03933-.0321.14665-.105-.0291.02011.02626-.01869.05148-.039.07744-.05811a5.42679,5.42679,0,0,1,.69731-.43586c.11407-.0598.2365-.106.34919-.16752-.05869.03205-.15125.06192-.03488.01538q.045-.018.09022-.03515.09054-.03435.18226-.06542a5.44465,5.44465,0,0,1,.82061-.207.804.804,0,0,0,.47844-.3679.80068.80068,0,0,0-.90407-1.176Z"/><path d="M171.41653,114.9738a14.16287,14.16287,0,0,0-4.01129-3.64387,7.53,7.53,0,0,0-4.76-.87347.748.748,0,0,0-.51933.91466.76378.76378,0,0,0,.91466.51933c3.11423-.41947,5.53007,1.89659,7.32445,4.1349a.74824.74824,0,0,0,1.05155,0,.76136.76136,0,0,0,0-1.05155Z"/><path class="m" d="M166.778,112.0544c-.48111,1.76476-.51989,3.61689-1.001,5.38165a.74374.74374,0,1,0,1.434.39533c.4811-1.76475.51989-3.61688,1.001-5.38164a.74374.74374,0,0,0-1.434-.39534Z"/><path class="m" d="M171.41653,114.9738a4.95315,4.95315,0,0,0-3.387-1.1659,1.42244,1.42244,0,0,0-.85657.31573,1.98294,1.98294,0,0,0-.41224.50577,6.74028,6.74028,0,0,0-.60927,1.42769,12.74551,12.74551,0,0,0-.37438,1.379.74374.74374,0,1,0,1.434.39533,12.74534,12.74534,0,0,1,.37438-1.37895q.0674-.20475.14277-.40677c.02483-.06607.05124-.13146.07692-.19718.04877-.12483-.062.13567.02572-.05743.052-.11447.10755-.22753.17-.33668.028-.049.0595-.09575.0884-.14417.09863-.16524-.08252.07573-.00323-.00145.03052-.02971.06427-.06328.092-.09549.07527-.0873-.17548.10761-.034.0341q-.20979.08025-.10718.04761a.59576.59576,0,0,1,.06332-.01173q-.19334.02434-.0707.01177.04522-.0038.09057-.00583a3.16273,3.16273,0,0,1,.40183.009c.04208.00341.28585.03993.07827.00544.0768.01276.15352.02493.22988.04026a4.84774,4.84774,0,0,1,.47179.11972q.11908.03668.23613.07953.05874.02154.11686.0447-.12165-.05308-.00485-.00174a4.28733,4.28733,0,0,1,.43729.23157c.06862.0427.13486.08848.20045.13565-.14721-.10586.05113.04826.07726.072a.74356.74356,0,1,0,1.05155-1.05155Z"/><path class="m" d="M169.45,113.38563a1.38672,1.38672,0,0,0-.62586-.15678,2.316,2.316,0,0,0-.52246.06886c-.24048.05407-.47427.1385-.71915.17223l.19766-.02656a.98979.98979,0,0,1-.23089.00456l.19767.02656a.57724.57724,0,0,1-.136-.03528l.17762.07495-.03124-.01472-.75058,1.28408a3.22692,3.22692,0,0,0,.52935.21417,1.03349,1.03349,0,0,0,.8434-.11225.7924.7924,0,0,0,.34171-.44437.73582.73582,0,0,0-.075-.573l-.68411-.98068-1.01732,1.01733,1.18568.82336a.74374.74374,0,0,0,1.09228-.83971.83384.83384,0,0,0-.3417-.44437l-1.18569-.82336-.17762-.075a.56335.56335,0,0,0-.2965-.01328.70666.70666,0,0,0-.42694.20451.88474.88474,0,0,0-.19122.3281.74452.74452,0,0,0,.075.573l.6841.98067.26676-1.01732a.30537.30537,0,0,1-.05874.03493l.17762-.075a.35479.35479,0,0,1-.06573.01577l.19767-.02656a.49107.49107,0,0,1-.09573-.00337l.19767.02656a1.09023,1.09023,0,0,1-.23052-.07312l.17762.075c-.05742-.02478-.11419-.051-.17146-.07614a.81163.81163,0,0,0-.573-.075.75834.75834,0,0,0-.44437.3417.75056.75056,0,0,0-.075.573.73953.73953,0,0,0,.3417.44437,1.38679,1.38679,0,0,0,.62587.15678,2.31605,2.31605,0,0,0,.52246-.06886c.24047-.05407.47427-.1385.71915-.17223l-.19767.02656a.98989.98989,0,0,1,.2309-.00456l-.19767-.02656a.57676.57676,0,0,1,.136.03528l-.17762-.075.03124.01472a.79205.79205,0,0,0,.573.075.75825.75825,0,0,0,.44437-.34171.75049.75049,0,0,0,.075-.573.73951.73951,0,0,0-.34171-.44437Z"/><path d="M138.393,67.83058a2.39467,2.39467,0,0,1-.2959.87954c-.08692.1542-.18319.303-.28422.44829q-.09062.13034-.18644.25722c.054-.07163.00116-.00081-.02383.02993a9.173,9.173,0,0,1-1.31795,1.31955,8.33436,8.33436,0,0,1-3.454,1.65051.84334.84334,0,0,0,.44828,1.626,9.997,9.997,0,0,0,4.19809-2.08416,9.00219,9.00219,0,0,0,1.39691-1.41977,4.927,4.927,0,0,0,1.14509-2.25885.87133.87133,0,0,0-.58888-1.03715.84924.84924,0,0,0-1.03715.58887Z"/><polygon class="b" points="170.789 162.66 163.847 165.443 146.043 164.097 124.152 162.395 123.084 160.74 124.152 157.109 113.552 119.917 105.897 107.684 109.331 96.115 125.13 88.435 129.923 83.259 130.232 86.338 129.891 91.69 138.367 106.097 151.715 87.944 151.572 79.28 156.245 83.316 174.087 90.865 175.426 115.811 173.256 123.513 170.789 162.66"/><g class="p"><polygon class="j" points="169.338 112.697 174.983 116.78 173.256 122.909 171.529 146.934 161.868 127.662 169.338 112.697"/></g><path d="M122.84078,101.56959a6.34553,6.34553,0,0,1,2.72741-3.53717,12.97808,12.97808,0,0,1,3.59706-1.21655l-.95215-.38747a14.27782,14.27782,0,0,1,1.2297,3.75277c.14676.85958,1.08685,1.43819,1.70955,1.96872,1.09278.931,2.20033,1.84479,3.28087,2.79013.47711.4174.95359.838,1.40425,1.28418.15045.14893.30039.29963.43839.46031.13524.15747.00365.05623.06492.082a.89275.89275,0,0,1,.0477.0806q-.25849-.479.285-.96157c-.88936.61008-.04693,2.07205.85108,1.456.93111-.63872.24984-1.54536-.31889-2.13277-.7557-.7805-1.597-1.483-2.42209-2.18779-.91852-.78459-1.84975-1.5543-2.76511-2.34259-.29641-.25526-.59124-.51232-.87494-.7817a1.4569,1.4569,0,0,0-.12558-.12587c-.11047-.08072-.00659-.08227-.02895-.02412.00662-.01723.09582.40053.13787.26014a1.53134,1.53134,0,0,0-.067-.55412,15.31889,15.31889,0,0,0-1.39075-3.87542.85647.85647,0,0,0-.95215-.38746,13.15922,13.15922,0,0,0-4.31512,1.57089,8.36589,8.36589,0,0,0-3.1871,4.36058c-.37789,1.01884,1.25131,1.45856,1.626.44827Z"/><path d="M129.73392,98.3457a20.80816,20.80816,0,0,0-3.98785.46972,25.57115,25.57115,0,0,0-3.72292,1.20971.86869.86869,0,0,0-.58887,1.03715.84912.84912,0,0,0,1.03715.58887,25.9575,25.9575,0,0,1,3.61145-1.18409,18.34165,18.34165,0,0,1,3.651-.43511c1.08275-.03145,1.08727-1.71784,0-1.68625Z"/><path d="M126.84032,86.20041c-2.51049,2.21986-3.791,5.616-4.59749,8.785a33.15009,33.15009,0,0,0-.97658,5.77814c-.07712,1.08287,1.60948,1.078,1.68626,0a30.206,30.206,0,0,1,.87806-5.17785c.73656-2.95381,1.86049-6.1224,4.20212-8.19295.81459-.72028-.38168-1.9092-1.19237-1.19236Z"/><path class="m" d="M108.41557,113.95354a13.28565,13.28565,0,0,1,4.86374,9.754c.02812.95039,1.50844.9544,1.48019,0a14.72819,14.72819,0,0,0-5.29727-10.80064c-.7245-.60952-1.77681.43239-1.04666,1.04666Z"/><path d="M164.67848,109.09949q-10.08746,1.3968-20.241,2.19876c-1.07475.08427-1.08384,1.77124,0,1.68625q10.379-.81379,20.68932-2.259c1.07024-.14819.61472-1.77321-.44827-1.626Z"/><path d="M143.71285,112.014a10.5262,10.5262,0,0,0-.91789,3.42008,31.74909,31.74909,0,0,1-.44247,3.24278.86133.86133,0,0,0,.58888,1.03715.85254.85254,0,0,0,1.03714-.58887c.472-2.05135.24514-4.33414,1.19038-6.26006a.86488.86488,0,0,0-.30248-1.15356.851.851,0,0,0-1.15356.30248Z"/><path d="M143.42571,120.27058a130.82542,130.82542,0,0,0,19.40955-.51944c1.069-.10959,1.08028-1.797,0-1.68626a130.82542,130.82542,0,0,1-19.40955.51944c-1.08486-.05023-1.08233,1.63614,0,1.68626Z"/><path d="M164.26791,110.24937a20.89993,20.89993,0,0,1-.11615,7.98472.86348.86348,0,0,0,.58888,1.03715.8516.8516,0,0,0,1.03714-.58887,23.10733,23.10733,0,0,0,.11616-8.88127.85056.85056,0,0,0-1.03715-.58888.86174.86174,0,0,0-.58888,1.03715Z"/><path d="M164.8291,117.76215l-2.00282.42767a.84334.84334,0,0,0,.44828,1.626l2.00281-.42766a.84334.84334,0,0,0-.44827-1.626Z"/><path class="m" d="M137.66805,162.63831a14.22317,14.22317,0,0,1,.942-4.43465,24.49416,24.49416,0,0,0,1.15444-5.50425c.24629-3.05891.23856-6.15263.26114-9.21929.05518-7.49524-.08561-14.99152-.23028-22.485-.06718-3.48-.14343-6.96-.1919-10.44034a.84364.84364,0,0,0-1.68626,0c.18992,13.63653.90151,27.3392.22982,40.97035a24.07773,24.07773,0,0,1-1.163,6.2303,15.64158,15.64158,0,0,0-1.00221,4.88293.84364.84364,0,0,0,1.68626,0Z"/><path d="M133.82335,113.32781a10.954,10.954,0,0,1-1.54684,6.95461c-.5241.95108.93159,1.80278,1.456.85109a12.78758,12.78758,0,0,0,1.71684-8.254.84921.84921,0,0,0-1.03715-.58887.864.864,0,0,0-.58888,1.03715Z"/><path d="M134.0072,112.43871a63.117,63.117,0,0,0-17.22873,1.73961c-1.05414.25555-.60775,1.882.44828,1.626A61.38433,61.38433,0,0,1,134.0072,114.125c1.08526.04065,1.08355-1.64567,0-1.68626Z"/><path d="M116.48307,114.94223a13.278,13.278,0,0,1-.75615,5.45667.85129.85129,0,0,0,.58887,1.03715.86016.86016,0,0,0,1.03715-.58888,14.72254,14.72254,0,0,0,.81639-5.90494.86308.86308,0,0,0-.84313-.84313.85037.85037,0,0,0-.84313.84313Z"/><path d="M133.10424,119.71271c-.08133.01776-.30944.05069-.09439.02065-.16463.023-.33072.03774-.49609.05415-.49288.04893-.98683.08748-1.48065.12544-1.376.10577-2.7533.19615-4.13045.28619-3.03017.1981-6.06211.37567-9.09019.60427a19.91266,19.91266,0,0,0-2.72593.2762c-1.05971.23138-.61126,1.85736.44827,1.626.08175-.01785.30938-.04786.09439-.02065.165-.02089.33057-.03772.4961-.05416.49287-.04892.98683-.08747,1.48064-.12543,1.376-.10577,2.7533-.19616,4.13046-.28619,3.03017-.1981,6.0621-.37567,9.09019-.60427a19.913,19.913,0,0,0,2.72593-.2762c1.0597-.23138.61126-1.85737-.44828-1.626Z"/><line class="q" x1="130.21459" y1="99.22849" x2="125.98856" y2="99.99031"/><path d="M129.20863,96.07821a7.64765,7.64765,0,0,0-6.75883,3.85015l.07042.799,6.64592-1.71.88995.2406Z"/><path d="M157.34926,95.00758c-1.4355.06162-2.86452.23335-4.29267.38354-.70711.07437-1.41457.14694-2.12344.20261-.33089.026-.6623.04955-.994.06345-.04223.00177-.18375-.01656-.21642.00655.176-.12455.27993.87877.459.33113.07067-.21617.145-.43122.21756-.64678l-1.65614-.22414a1.84992,1.84992,0,0,0,.675,1.6807,1.36469,1.36469,0,0,0,1.8702-.36764,1.34138,1.34138,0,0,0-.42969-1.849,1.05513,1.05513,0,0,0-1.55188,1.01964,1.43553,1.43553,0,0,0,1.429,1.281,4.09551,4.09551,0,0,0,1.34767-.15032c.47537-.11409.9412-.26432,1.41588-.38115.09758-.024.19551-.04707.29394-.0674.03479-.00718.35572-.05467.23693-.04327.08424-.00808.16833-.01106.25292-.01234q.07833.00041.15629.00812-.15246-.0202-.0111.01039a.84386.84386,0,0,0,.44827-1.626c-1.20661-.40031-2.55391-.0706-3.79451-.12163-1.08511-.04464-1.08306,1.64171,0,1.68626.58224.02394,1.16626-.02937,1.748-.04817a4.69514,4.69514,0,0,1,1.59823.10956l.44827-1.626a4.57469,4.57469,0,0,0-2.33162.23938c-.36619.10181-.7312.21127-1.10319.29051-.092.0196-.18572.03979-.279.05259.1369-.01879-.11794.00623-.121.00634a1.6025,1.6025,0,0,1-.23364-.00451l.08258.0091q-.50462-.19-.122.78285h-.85109a.28733.28733,0,0,0-.05276-.14823q-.17666-.28213.224-.49759c.03171-.00754.43567.103.36276.15771a3.67761,3.67761,0,0,1-.02206-.39082.84723.84723,0,0,0-1.65614-.22413,2.94816,2.94816,0,0,0-.30653,1.498,1.21531,1.21531,0,0,0,1.20256.94884,17.04445,17.04445,0,0,0,2.46558-.17476c1.73613-.17119,3.47029-.40318,5.21438-.478,1.081-.0464,1.08683-1.73291,0-1.68626Z"/><path class="m" d="M104.5501,109.3195c2.36492,2.76624,4.75322,5.51241,7.11814,8.27866a.8504.8504,0,0,0,1.19236,0,.86048.86048,0,0,0,0-1.19237c-2.36492-2.76624-4.75322-5.51242-7.11814-8.27866a.8504.8504,0,0,0-1.19236,0,.86048.86048,0,0,0,0,1.19237Z"/><path class="m" d="M113.8252,120.00414c-1.13014-2.35717-2.80793-4.38683-4.0259-6.68982a.84327.84327,0,0,0-1.456.85109c1.218,2.303,2.89577,4.33265,4.0259,6.68982a.8508.8508,0,0,0,1.15356.30247.86131.86131,0,0,0,.30248-1.15356Z"/><path d="M175.091,115.78236a14.7961,14.7961,0,0,0-4.5768-3.05127,7.39505,7.39505,0,0,0-4.75893-.19153.74419.74419,0,0,0,.39533,1.434c3.04306-.89228,5.72481.877,7.88885,2.86036.70447.64563,1.75893-.40324,1.05155-1.05155Z"/><path class="m" d="M169.97143,113.615c-.20665,1.81744.03591,3.65384-.17073,5.47128a.748.748,0,0,0,.74356.74356.76111.76111,0,0,0,.74355-.74356c.20664-1.81744-.03592-3.65384.17073-5.47128a.748.748,0,0,0-.74356-.74356.76111.76111,0,0,0-.74355.74356Z"/><path class="m" d="M174.94046,115.66609a4.46245,4.46245,0,0,0-1.93219-.64346,4.32453,4.32453,0,0,0-1.68264.08487c-1.00507.28242-1.21351,1.57348-1.3538,2.45778a14.65776,14.65776,0,0,0-.17113,1.521.74843.74843,0,0,0,.74356.74356.76013.76013,0,0,0,.74355-.74356c.00791-.15009.01992-.29994.03419-.44955q.01259-.13185.02763-.26346.00866-.07593.01808-.15177c.00277-.02227.006-.04452.00849-.06682.01087-.098-.02318.16077-.00834.06162a9.65868,9.65868,0,0,1,.25838-1.28494c.02546-.0871.053-.17365.08426-.25886a.87914.87914,0,0,0,.04219-.1089c-.04238.19759-.03781.08713.00006.01393.01753-.03389.037-.06647.0561-.09944.05925-.10231.07134-.0124-.0398.04289.02078-.01034.03381-.04381.05379-.0575.07543-.0517-.18209.118-.05579.04815.00066-.00036-.18981.05756-.12006.05228a.39031.39031,0,0,0,.05487-.017c.04642-.01126.09212-.02467.13883-.03491a.59319.59319,0,0,0,.15168-.02833c.00028-.00017-.16409.01565-.08193.01069.0402-.00242.0807-.00895.12085-.01236a4.41675,4.41675,0,0,1,.7212.00084c.02828.00224.05655.00465.08479.00739.00577.00055.18863.02088.07221.00668-.09982-.01218-.00178-.00007.01571.003.04782.00829.09572.01588.14341.0249a4.35984,4.35984,0,0,1,.4259.10222q.1113.03289.22056.07234c.027.00981.05364.0213.08082.03053.10065.03414-.158-.07642.00634.00306a3.28046,3.28046,0,0,1,.38766.21734.74884.74884,0,0,0,1.01733-.26675.761.761,0,0,0-.26676-1.01733Z"/><path class="m" d="M172.74407,114.4126a2.31811,2.31811,0,0,0-1.587.34139l.17762-.075a1.64874,1.64874,0,0,1-.39864.1219l.19767-.02656a.69391.69391,0,0,1-.1534.00194l.19767.02656a.552.552,0,0,1-.08958-.02029l-.39533,1.434a3.21838,3.21838,0,0,0,.56547.11045,1.011,1.011,0,0,0,.7884-.29558.75739.75739,0,0,0,0-1.05154l-.82532-.86521-.90106,1.16782,1.29713.63342a.79453.79453,0,0,0,.573.075.75831.75831,0,0,0,.44437-.34171.75053.75053,0,0,0,.075-.57295.73656.73656,0,0,0-.3417-.44437l-1.29714-.63342a.779.779,0,0,0-.57295-.075.77036.77036,0,0,0-.38624.26647.74664.74664,0,0,0,.05813.9763l.82533.8652V114.9799a.21636.21636,0,0,1-.03262.0301l.15048-.11626a.32473.32473,0,0,1-.05692.03078l.17762-.075a.43378.43378,0,0,1-.06488.01581l.19767-.02656a.64528.64528,0,0,1-.14619-.00309l.19766.02656a3.104,3.104,0,0,1-.32982-.0797.77279.77279,0,0,0-.573.075.74368.74368,0,0,0,.17762,1.359,2.31816,2.31816,0,0,0,1.587-.34139l-.17762.075a1.64829,1.64829,0,0,1,.39864-.1219l-.19767.02656a.69391.69391,0,0,1,.1534-.00195l-.19767-.02656a.55305.55305,0,0,1,.08958.0203.75008.75008,0,0,0,.91466-.51933.75982.75982,0,0,0-.51933-.91466Z"/><path d="M129.773,55.27773c.658.92158.27936,2.38177.02051,3.38571a33.68247,33.68247,0,0,1-1.24843,3.65342.65357.65357,0,0,0,.453.79776.66323.66323,0,0,0,.79775-.453,30.07472,30.07472,0,0,0,1.339-4.02412c.28881-1.25725.56219-2.8884-.24181-4.01446a.66672.66672,0,0,0-.8873-.23266.6538.6538,0,0,0-.23265.8873Z"/><path d="M129.05109,61.09381a2.35785,2.35785,0,0,0-.53825,2.24105,2.57281,2.57281,0,0,0,1.73294,1.88694,4.48514,4.48514,0,0,0,4.5128-.44312,3.61615,3.61615,0,0,0,1.1923-1.10827,1.81544,1.81544,0,0,0,.13-1.62624c-.228-.56187-.64625-.9785-1.3018-.77392-.79419.24785-.45518,1.50037.3448,1.25071q.29427-.069-.28895-.12894-.06192-.08619.0015.01868c-.00892-.08927.05705.1424.05329.13027a.48877.48877,0,0,1-.01009.38443,2.0799,2.0799,0,0,1-.86568.79186,3.55107,3.55107,0,0,1-1.2041.54415,3.50633,3.50633,0,0,1-1.2747-.03442,3.68028,3.68028,0,0,1-1.08254-.32508,1.95859,1.95859,0,0,1-.45119-.33208c-.1047-.09965-.01064.01155-.06715-.08432a1.41557,1.41557,0,0,1-.09075-.17351c.032.077-.03233-.11876-.03889-.143a1.99925,1.99925,0,0,1-.05385-.25242c.0096.07093-.00694-.1315-.00675-.127-.00312-.07488-.00311-.15.00054-.22487a.97093.97093,0,0,1,.08081-.38536c-.03715.09479.04182-.0711.04592-.07756q.06374-.09615.0095-.0125a.74568.74568,0,0,1,.08742-.07832.65329.65329,0,0,0,0-.91714.663.663,0,0,0-.91714,0Z"/><path d="M116.63764,121.65733a12.93259,12.93259,0,0,1,.2412,4.36373c-.07227.66991-.157,1.33809-.19945,2.01087a7.13744,7.13744,0,0,0,.0304,2.33328,2.90545,2.90545,0,0,0,.94539,1.27471,3.87419,3.87419,0,0,0,2.09211.54331c1.78185.2558,3.56158.49635,5.35338.675a34.865,34.865,0,0,0,6.0313.1773,2.51637,2.51637,0,0,0,2.486-1.75791,44.73948,44.73948,0,0,0,.87312-7.28783,58.89914,58.89914,0,0,1,.969-8.28028c.21921-.9391-1.22672-1.33992-1.44642-.39876-1.02286,4.38188-.93746,9.01472-1.49772,13.46736-.08813.70041-.06233,1.94934-.57856,2.466-.45934.45973-1.36881.33263-1.97665.34771-.95021.02357-1.90076-.00578-2.84917-.06555-1.79394-.11307-3.59258-.30683-5.37279-.55486-.67-.09335-1.338-.20066-2.0081-.29331-.58061-.08028-1.36688-.04693-1.58553-.74846a7.32219,7.32219,0,0,1,.07094-2.384c.05238-.61231.13565-1.22134.19492-1.83294a13.78639,13.78639,0,0,0-.32692-4.45414c-.21476-.94073-1.66131-.54257-1.44642.39876Z"/><path d="M144.9081,119.58458q.063,2.641.13645,5.28172.0585,2.12286.12573,4.24549c.04029,1.24386-.19544,2.86387.62172,3.88212.60417.75283,1.65948-.31449,1.06066-1.06066-.26166-.32606-.12766-1.213-.14188-1.618q-.0323-.91878-.0607-1.83769-.06408-2.045-.11865-4.09022-.06534-2.40128-.12333-4.80275a.75046.75046,0,0,0-1.5,0Z"/><path d="M160.72326,134.96471c1.14416-.19538,2.4825-.67088,2.84033-1.90465a31.36737,31.36737,0,0,0,.762-4.52862,91.70627,91.70627,0,0,1,1.45081-9.7569c.23112-.93718-1.215-1.337-1.44642-.39876a78.97052,78.97052,0,0,0-1.33388,8.85793c-.18937,1.47376-.38179,2.95024-.66185,4.41-.10467.54562-.11118,1.10317-.59967,1.43767a3.71421,3.71421,0,0,1-1.41012.43686c-.94959.16216-.547,1.60792.39876,1.44642Z"/><polygon points="129.79 98.452 127.567 97.651 125.203 98.03 124.02 98.918 122.821 100.342 123.718 101.01 130.442 98.596 130.442 98.596 129.79 98.452"/><path d="M110.00376,102.84066a29.46638,29.46638,0,0,0,5.26057-.91275,26.56025,26.56025,0,0,1,8.45324-.16832c.95461.12341.94558-1.37776,0-1.5a27.71143,27.71143,0,0,0-8.55434.16619,30.68413,30.68413,0,0,1-5.15947.91488.75045.75045,0,0,0,0,1.5Z"/><path d="M110.4859,102.22359c.97477-2.62222,2.05568-5.20851,3.09343-7.80635l-.34922.34922,5.55641-1.9457a2.35169,2.35169,0,0,0,.39233-.13738c.00426-.00247.10328-.03386.10277-.036.017.07151-.3402-.07677-.20523.00379a4.51317,4.51317,0,0,0,1.28257.23056l2.873.51645c.62925.11311.89923-.85042.26584-.96428-1.33035-.23915-2.65929-.48842-3.9914-.7175a1.59142,1.59142,0,0,0-.915.1153l-2.15984.75632-2.39982.84035a5.22171,5.22171,0,0,0-1.18692.42421c-.30077.20756-.42745.79385-.55508,1.11372q-.43855,1.0991-.87628,2.19853c-.635,1.595-1.29363,3.18364-1.89185,4.79291-.22454.604.74164.86475.96428.26584Z"/><path d="M113.24182,95.93384a1.82922,1.82922,0,0,0-.47337,1.47955,2.64806,2.64806,0,0,0,.59464,1.51946.75.75,0,0,0,1.28033-.53033.83663.83663,0,0,0-.21967-.53033c-.01326-.01547-.02611-.03111-.03873-.04712l.11727.15179a1.52581,1.52581,0,0,1-.18626-.3302l.07561.17916a2.20217,2.20217,0,0,1-.14005-.52473l.02679.19938a1.92456,1.92456,0,0,1-.00478-.487l-.02679.19938a1.23943,1.23943,0,0,1,.07882-.30066l-.0756.17916a.8451.8451,0,0,1,.10277-.17626l-.11727.15179a.769.769,0,0,1,.067-.07236.75687.75687,0,0,0,0-1.06066.76521.76521,0,0,0-1.06066,0Z"/><path d="M159.86321,93.55122c1.98238.50177,4.0135.814,6.03275,1.12508,1.4358.2212,2.92627.34229,4.33863.6915.93707.2317,1.33686-1.21447.39875-1.44642-1.41236-.34921-2.90282-.4703-4.33862-.69149-2.01925-.31108-4.05037-.62332-6.03275-1.12509a.75065.75065,0,0,0-.39876,1.44642Z"/><path d="M157.84405,86.18506c2.47562.67389,4.92554,1.45591,7.36857,2.23794a57.06454,57.06454,0,0,1,7.23785,2.55332c.86641.41508,1.62823-.87785.75708-1.29521a58.3669,58.3669,0,0,0-7.42213-2.64876c-2.5004-.80227-5.0083-1.60385-7.54261-2.29371a.75064.75064,0,0,0-.39876,1.44642Z"/><path d="M159.58818,91.27924h9.37022a.75045.75045,0,0,0,0-1.5h-9.37022a.75045.75045,0,0,0,0,1.5Z"/><ellipse class="r" cx="167.05558" cy="103.8208" rx="1.73531" ry="0.92927" transform="translate(-28.31732 126.53105) rotate(-38.49024)"/><ellipse class="r" cx="166.71274" cy="106.20758" rx="1.73531" ry="0.92927" transform="matrix(0.78271, -0.62238, 0.62238, 0.78271, -29.8773, 126.83628)"/><ellipse class="r" cx="166.27822" cy="108.74621" rx="1.73531" ry="0.92927" transform="translate(-31.55171 127.11745) rotate(-38.49024)"/><ellipse class="r" cx="165.77978" cy="111.52631" rx="1.73531" ry="0.92927" transform="translate(-33.3903 127.41131) rotate(-38.49024)"/><ellipse class="r" cx="165.0673" cy="114.20646" rx="1.73531" ry="0.92927" transform="translate(-35.21318 127.55023) rotate(-38.49024)"/><ellipse class="r" cx="164.53274" cy="116.78246" rx="1.73531" ry="0.92927" transform="translate(-36.93259 127.77726) rotate(-38.49024)"/><ellipse class="r" cx="164.23366" cy="119.56711" rx="1.73531" ry="0.92927" transform="translate(-38.73069 128.19618) rotate(-38.49024)"/><ellipse class="r" cx="163.74947" cy="122.35302" rx="1.73531" ry="0.92927" transform="translate(-40.5698 128.50017) rotate(-38.49024)"/><ellipse class="r" cx="163.66917" cy="125.36692" rx="1.73531" ry="0.92927" transform="translate(-42.46304 129.10507) rotate(-38.49024)"/><ellipse class="r" cx="163.49937" cy="128.08429" rx="1.73531" ry="0.92927" transform="translate(-44.19118 129.58984) rotate(-38.49024)"/><ellipse class="r" cx="163.5021" cy="131.0084" rx="1.73531" ry="0.92927" transform="translate(-46.01049 130.2269) rotate(-38.49024)"/><path class="r" d="M165.02594,132.87449c.12491.5362-.427,1.35935-1.23266,1.83858s-1.56009.433-1.685-.10316.906-1.58883,1.71167-2.06806S164.901,132.3383,165.02594,132.87449Z"/><ellipse class="r" cx="164.17779" cy="136.25033" rx="1.73531" ry="0.92927" transform="translate(-49.12616 131.78644) rotate(-38.49024)"/><ellipse class="r" cx="164.80945" cy="138.74975" rx="1.73531" ry="0.92927" transform="translate(-50.5445 132.72266) rotate(-38.49024)"/><ellipse class="r" cx="165.44025" cy="140.82615" rx="1.73531" ry="0.92927" transform="translate(-51.69975 133.56643) rotate(-38.49024)"/><path class="s" d="M166.52825,102.51685l2.41584-8.96936.97406.32a.89985.89985,0,0,1,.32844.99035l-2.456,7.07813Z"/><path class="t" d="M142.51671,120.10675s1.63514,24.81121,11.29419,25.038,10.35479-9.16859,10.35479-9.16859"/><path class="t" d="M168.60865,93.4916s4.77411-3.00121,4.96152-2.98634"/><path class="t" d="M168.60865,93.4916s1.72765-3.77883,3.61513-3.77883"/><path d="M165.96227,106.27686a1.69181,1.69181,0,0,1,.108.20892l-.0756-.17916a1.1237,1.1237,0,0,1,.07446.2674l-.02679-.19938a.87607.87607,0,0,1,.00115.20693l.02679-.19938a.83408.83408,0,0,1-.05431.20212l.07561-.17916a.98245.98245,0,0,1-.12155.20623l.11727-.15179a1.44471,1.44471,0,0,1-.24771.24349l.15179-.11728a3.09949,3.09949,0,0,1-.69222.38358l.17916-.07561c-.19752.08308-.40236.15257-.59524.2461a.7574.7574,0,0,0-.34467.44822.7665.7665,0,0,0,.07561.57792.757.757,0,0,0,.44822.34467.83719.83719,0,0,0,.57792-.07561c.01836-.0089.037-.01711.05579-.0251l-.17916.07561a7.47711,7.47711,0,0,0,1.03508-.46934,2.29184,2.29184,0,0,0,.5707-.46433,1.78492,1.78492,0,0,0,.25135-.36055,1.69964,1.69964,0,0,0,.16957-.60979,1.77791,1.77791,0,0,0-.28605-1.06179.78029.78029,0,0,0-.44822-.34467.75019.75019,0,0,0-.847,1.10175Z"/><path d="M166.92325,103.34231q.02828.05746.05393.116l-.07561-.17916a1.71135,1.71135,0,0,1,.117.40268l-.02679-.19938a1.27393,1.27393,0,0,1,.00255.33174l.02679-.19938a1.19411,1.19411,0,0,1-.08168.29164l.07561-.17916a1.38086,1.38086,0,0,1-.16023.27071l.11727-.15179a1.97032,1.97032,0,0,1-.35777.35056l.15179-.11727a3.66854,3.66854,0,0,1-.5531.33982c-.12885.06591-.26451.12178-.38911.19561a.75012.75012,0,1,0,.75708,1.2952c.28271-.16751.58838-.283.859-.47425a2.98885,2.98885,0,0,0,.71-.6808,1.911,1.911,0,0,0,.34431-.94089,2.24694,2.24694,0,0,0-.27582-1.229.75443.75443,0,0,0-1.02614-.26906.769.769,0,0,0-.26907,1.02614Z"/><path d="M166.15076,109.00533c.027.05086.05211.10237.07517.15514l-.07561-.17916a1.45565,1.45565,0,0,1,.10153.35683l-.02679-.19938a1.1055,1.1055,0,0,1,.00039.275l.02679-.19938a1.04877,1.04877,0,0,1-.06724.2449l.0756-.17916a1.21732,1.21732,0,0,1-.15634.26254l.11727-.15179a1.77914,1.77914,0,0,1-.30539.29628l.1518-.11727a3.38174,3.38174,0,0,1-.58776.34979c-.13909.067-.28551.122-.42082.19639a.75724.75724,0,0,0-.26907,1.02614.76548.76548,0,0,0,1.02615.26907c.2829-.15563.58639-.26085.85839-.43965a2.12467,2.12467,0,0,0,1.03723-1.45817,2.077,2.077,0,0,0-.2661-1.26519.75628.75628,0,0,0-1.02614-.26906.76654.76654,0,0,0-.26906,1.02614Z"/><path d="M165.48968,112.19065a1.48707,1.48707,0,0,1,.12018.2214l-.0756-.17916a.96774.96774,0,0,1,.06552.23522l-.02679-.19938a.75735.75735,0,0,1-.00005.18273l.02679-.19938a.7306.7306,0,0,1-.05022.17921l.0756-.17916a.87364.87364,0,0,1-.10273.17231l.11727-.15179a1.28736,1.28736,0,0,1-.22539.22085l.15179-.11727a2.72943,2.72943,0,0,1-.60058.33326l.17916-.07561c-.24062.10108-.48929.17989-.72754.287a.75194.75194,0,0,0-.34467.44822.7665.7665,0,0,0,.0756.57792.757.757,0,0,0,.44823.34467l.19938.02679a.74648.74648,0,0,0,.37854-.1024l.01786-.00784-.17916.0756c.34185-.144.69722-.25114,1.02493-.42925a1.83886,1.83886,0,0,0,1.00835-1.20379,1.5683,1.5683,0,0,0-.01882-.67932,1.84673,1.84673,0,0,0-.24245-.53794.79145.79145,0,0,0-.44822-.34467.7665.7665,0,0,0-.57792.0756.74995.74995,0,0,0-.26906,1.02614Z"/><path d="M164.8335,114.611a1.32217,1.32217,0,0,1,.13056.22946l-.0756-.17916a.8382.8382,0,0,1,.05793.20819l-.02679-.19938a.65957.65957,0,0,1-.001.16228l.02679-.19938a.646.646,0,0,1-.04156.148l.07561-.17916a.769.769,0,0,1-.09181.15558l.11727-.15179a1.1506,1.1506,0,0,1-.20548.20092l.15179-.11727a2.43473,2.43473,0,0,1-.52524.29205l.17916-.0756c-.21593.09109-.44341.15112-.65917.24135a.83906.83906,0,0,0-.44823.34467.75.75,0,0,0,.26907,1.02614.72206.72206,0,0,0,.57792.0756c.11458-.04791.23512-.08232.35219-.12355a6.0465,6.0465,0,0,0,.66026-.27276,2.44264,2.44264,0,0,0,.60933-.421,1.4388,1.4388,0,0,0,.42331-.73163,1.55186,1.55186,0,0,0-.26108-1.19072.80425.80425,0,0,0-.44822-.34467.76645.76645,0,0,0-.57792.07561.757.757,0,0,0-.34467.44822.74231.74231,0,0,0,.0756.57792Z"/><path d="M164.41455,116.90853a1.41125,1.41125,0,0,1,.12623.22926l-.07561-.17915a.92489.92489,0,0,1,.05916.209l-.02679-.19938a.71418.71418,0,0,1,.00036.18964l.02679-.19938a.6983.6983,0,0,1-.04468.15868l.07561-.17916a.82681.82681,0,0,1-.09784.16626l.11728-.15179a1.22593,1.22593,0,0,1-.21734.21368l.15179-.11727a2.60738,2.60738,0,0,1-.57441.31891l.17916-.07561c-.25419.10666-.51714.188-.76992.29847a.75015.75015,0,0,0-.34467.44823.76651.76651,0,0,0,.0756.57792.757.757,0,0,0,.44823.34467l.19938.02679a.74668.74668,0,0,0,.37854-.1024l.01145-.00494-.17916.0756c.3399-.14192.6924-.24434,1.02083-.41622a2.41712,2.41712,0,0,0,.59684-.43052,1.47621,1.47621,0,0,0,.41973-.75254,1.53011,1.53011,0,0,0-.01986-.6824,1.80722,1.80722,0,0,0-.2415-.52342.79633.79633,0,0,0-.44822-.34467.76655.76655,0,0,0-.57792.07561.74995.74995,0,0,0-.26906,1.02614Z"/><path d="M163.92906,119.829a1.2066,1.2066,0,0,1,.1398.23848l-.07561-.17916a.76022.76022,0,0,1,.04944.17572l-.02679-.19938a.59793.59793,0,0,1,.0008.14849l.02679-.19937a.5843.5843,0,0,1-.03686.1359l.07561-.17916a.70029.70029,0,0,1-.09106.153l.11727-.15179a1.06957,1.06957,0,0,1-.18255.17665l.15179-.11727a2.24178,2.24178,0,0,1-.48383.26905l.17916-.0756c-.2377.10019-.48821.16153-.72736.25615a.83921.83921,0,0,0-.44822.34467.75.75,0,0,0,.26906,1.02615.72918.72918,0,0,0,.57792.0756c.11236-.04445.23-.07618.34464-.11418a6.17441,6.17441,0,0,0,.671-.2661,1.7109,1.7109,0,0,0,1.02817-1.12254,1.37683,1.37683,0,0,0-.019-.6517,1.61889,1.61889,0,0,0-.24491-.50071.81543.81543,0,0,0-.44822-.34467.76645.76645,0,0,0-.57792.07561.757.757,0,0,0-.34467.44822.732.732,0,0,0,.07561.57792Z"/><path d="M164.1689,122.09948c.03047.055.05848.1108.08381.16835l-.07561-.17916a1.34059,1.34059,0,0,1,.09482.33128l-.02679-.19938a1.0212,1.0212,0,0,1,.00013.256l.02679-.19938a.974.974,0,0,1-.06356.22871l.07561-.17916a1.13446,1.13446,0,0,1-.137.23185l.11728-.15179a1.6463,1.6463,0,0,1-.28748.28249l.15179-.11727a3.22177,3.22177,0,0,1-.60712.35608c-.14526.06769-.29813.12223-.43991.19706a.75613.75613,0,0,0-.26906,1.02615.76674.76674,0,0,0,1.02614.26906c.27984-.1477.579-.24672.84925-.41586a2.0591,2.0591,0,0,0,1.04383-1.42825,1.97707,1.97707,0,0,0-.26776-1.23388.75745.75745,0,0,0-1.02614-.26906.76524.76524,0,0,0-.26906,1.02614Z"/><path d="M163.99657,125.58443a1.58445,1.58445,0,0,1,.1146.21653l-.07561-.17916a1.041,1.041,0,0,1,.0697.25138l-.02679-.19938a.81374.81374,0,0,1,.00015.19486l.02679-.19938a.78169.78169,0,0,1-.05282.19067l.0756-.17916a.92714.92714,0,0,1-.10795.1828l.11728-.15179a1.35393,1.35393,0,0,1-.2359.23329l.15179-.11728a2.89147,2.89147,0,0,1-.64783.36015l.17916-.07561c-.22006.09244-.44755.167-.664.26815a.75451.75451,0,0,0-.34467.44822.7665.7665,0,0,0,.0756.57792.757.757,0,0,0,.44823.34467.84944.84944,0,0,0,.57792-.07561l.03919-.01731-.17916.0756a8.52852,8.52852,0,0,0,1.03363-.45114,2.32771,2.32771,0,0,0,.5775-.45052,1.67015,1.67015,0,0,0,.25868-.36016,1.62718,1.62718,0,0,0,.171-.60351,1.70508,1.70508,0,0,0-.28684-1.04131.78556.78556,0,0,0-.44823-.34467.75018.75018,0,0,0-.847,1.10175Z"/><path d="M163.63759,128.00715a1.66211,1.66211,0,0,1,.10724.20327l-.0756-.17916a1.09814,1.09814,0,0,1,.075.26041l-.02679-.19938a.84051.84051,0,0,1,.00074.21767l.02679-.19938a.81249.81249,0,0,1-.0495.18131l.07561-.17916a.94837.94837,0,0,1-.1176.20156l.11727-.15179a1.39909,1.39909,0,0,1-.24174.2385l.15179-.11727a2.993,2.993,0,0,1-.67012.37212l.17916-.07561c-.20885.08779-.42507.15992-.62976.25742a.756.756,0,0,0-.34467.44822.76645.76645,0,0,0,.07561.57792.757.757,0,0,0,.44822.34467.843.843,0,0,0,.57792-.07561c.01558-.00742.03136-.01434.04725-.02107l-.17916.0756a8.02468,8.02468,0,0,0,1.03091-.45827,2.3231,2.3231,0,0,0,.57518-.45672,1.5794,1.5794,0,0,0,.42788-.97042,1.73983,1.73983,0,0,0-.28639-1.05191.78285.78285,0,0,0-.44822-.34467.75019.75019,0,0,0-.847,1.10175Z"/><path d="M163.48318,131.12989a1.33665,1.33665,0,0,1,.13094.2328l-.07561-.17916a.86675.86675,0,0,1,.05572.19673l-.02679-.19938a.67894.67894,0,0,1,.00192.16575l.02679-.19938a.65272.65272,0,0,1-.0444.16315l.07561-.17916a.78459.78459,0,0,1-.09331.15756l.11727-.15179a1.17009,1.17009,0,0,1-.208.20331l.15179-.11727a2.48641,2.48641,0,0,1-.54261.30065l.17916-.0756c-.26876.11269-.5475.1966-.81606.3101a.74825.74825,0,0,0-.34467.44822.76645.76645,0,0,0,.07561.57792.757.757,0,0,0,.44822.34467l.19938.02679a.74648.74648,0,0,0,.37854-.1024l.00545-.0023-.17916.07561c.116-.04788.23719-.08345.35527-.12565a5.89143,5.89143,0,0,0,.66393-.2779,2.40855,2.40855,0,0,0,.60339-.4239,1.59571,1.59571,0,0,0,.26623-.34117,1.25756,1.25756,0,0,0,.153-.39894,1.47045,1.47045,0,0,0-.01848-.66618,1.72938,1.72938,0,0,0-.24392-.52015.80221.80221,0,0,0-.44822-.34467.7665.7665,0,0,0-.57792.0756.75705.75705,0,0,0-.34467.44822.74439.74439,0,0,0,.07561.57792Z"/><path d="M159.40124,102.13816c.73045-.27565,1.48321-.46854,2.23054-.69036a10.05679,10.05679,0,0,0,2.24886-.95941.75012.75012,0,1,0-.75708-1.2952c-.18426.10845-.37117.21188-.56267.307q-.125.06211-.25212.11982c-.04106.01864-.08249.03643-.12365.05484-.10677.04776.10373-.03888-.00379.001-.33362.12373-.66558.24268-1.00729.3429-.72836.21361-1.4604.4046-2.17156.673a.76709.76709,0,0,0-.52383.92259.7586.7586,0,0,0,.92259.52383Z"/><polygon class="u" points="163.018 87.107 169.657 88.684 174.352 90.948 172.489 88.716 165.832 86.331 162.172 86.853 163.018 87.107"/><path class="v" d="M147.023,110.72968l-.499.05249.14843-.69935.1875-.01977a1.0365,1.0365,0,0,0,.42578-.12085.58441.58441,0,0,0,.2295-.2511.94782.94782,0,0,0,.08105-.39319c.00391-.156.00195-.395-.00293-.71667l-.00586-.053a.55221.55221,0,0,0-.07519-.24707.34114.34114,0,0,0-.15821-.13294.70281.70281,0,0,0-.32031-.01806l-1.33691.1405-.20117-1.90991.85351-.08972.12988,1.23364.60254-.06335a1.38916,1.38916,0,0,1,.9502.16455,1.00516,1.00516,0,0,1,.38672.76843l.00976.15124.01367.72486a1.43982,1.43982,0,0,1-.33984,1.04126A1.686,1.686,0,0,1,147.023,110.72968Z"/><path class="v" d="M149.84131,106.513l-.167,1.20337-.72657.07629.376-1.22534Zm1.09961-.1156-.17578,1.20435-.71778.07544.37793-1.22559Z"/><path class="v" d="M155.00049,109.89117l-.85254.0896-.18848-1.79907a.87371.87371,0,0,0-.24707-.56274.75685.75685,0,0,0-.62793-.15442,4.26113,4.26113,0,0,0-.48535.08179q-.25488.0575-.84375.23413l-.00293-.69922a6.45193,6.45193,0,0,1,1.44531-.32813,1.32326,1.32326,0,0,1,1.61036,1.3075Zm-2.084.219-.85546.09-.19532-1.85961.81153-.50477Z"/><path class="v" d="M155.58936,109.12958l1.61718-.16992-1.88476-2.07215.73828-.46741,1.2041,1.32874a1.04224,1.04224,0,0,0,.10938-.31689,1.76083,1.76083,0,0,0-.00391-.44178l-.06543-.62329.84082-.08838.07227.68653a1.44322,1.44322,0,0,1-.07422.65564,2.0251,2.0251,0,0,1-.44727.6466l.59473.677-.0752.609-2.71191.28516Z"/><polygon class="u" points="154.6 96.507 157.349 96.341 161.239 98.154 160.524 92.538 166.392 93.905 164.036 100.295 161.896 108.493 158.329 107.223 156.225 105.537 154.351 102.944 154.006 99.492 154.6 96.507"/><path d="M167.82639,94.54849c-2.23926,3.49835-3.75377,5.96862-3.66424,10.1213a16.11657,16.11657,0,0,1-.02616,3.32213c-.21276.70568-2.83136,1.02349-2.88033-.02616-.20518-4.39717,1.50643-11.3566,4.49544-14.58815"/><polygon class="j" points="107.04 117.653 106.05 122.832 72.001 125.986 74.307 119.295 75.518 117.682 74.808 124.113 81.325 109.923 79.989 122.794 88.025 115.73 87.104 122.868 100.83 121.264 107.04 117.653"/><path class="m" d="M111.385,117.05068c1.07592,3.07373,2.0367,6.18681,3.11262,9.26055l1.541-.64968c-2.49615-4.35262-4.4923-8.98048-6.98845-13.3331a.84376.84376,0,0,0-1.456.85109c2.49615,4.35261,4.4923,8.98048,6.98845,13.33309.4634.808,1.8637.27214,1.541-.64968-1.07592-3.07373-2.0367-6.18681-3.11262-9.26055-.35621-1.01763-1.98588-.57978-1.626.44828Z"/><path d="M79.88834,108.389a44.76634,44.76634,0,0,1,.3035,5.74842,15.0425,15.0425,0,0,1-.78947,5.65534c-.25046.58516.61073,1.09522.86347.50472a15.665,15.665,0,0,0,.92093-5.82843,44.29155,44.29155,0,0,0-.29843-6.08c-.07475-.63132-1.07564-.63885-1,0Z"/><path class="w" d="M88.47085,113.1729S86.33355,121.039,83.56,124.337"/><path class="w" d="M75.41945,117.38877A23.9315,23.9315,0,0,1,73.367,125.429"/><path d="M160.13605,98.16712a22.00754,22.00754,0,0,0,3.39137-1.78512c1.06953-.6467,2.11726-1.32924,3.19082-1.96918a.75056.75056,0,0,0-.75707-1.29521c-1.04661.62388-2.06852,1.28857-3.11032,1.92042-.5735.34783-1.15117.6895-1.74,1.01079-.25107.137-.50422.2703-.761.39635-.12125.05952-.24324.11757-.36639.17306-.01209.00545-.2216.09514-.07.03235-.05841.02419-.11723.04732-.17619.07012a.772.772,0,0,0-.52383.92259.75558.75558,0,0,0,.92259.52383Z"/><path d="M155.64834,83.9124c3.02251,3.74336,3.85347,9.2834,4.29033,13.93151l1.43931-.59618c-3.14279-3.05559-7.70561-2.70007-11.67924-3.69478a.85686.85686,0,0,0-.95215.38747,18.30491,18.30491,0,0,0-1.42288,6.929l1.06727-.813c-3.74876-.75238-7.04056,3.30525-9.65746,5.36657-.8519.671.34867,1.85693,1.19236,1.19236,1.29656-1.02129,2.48682-2.172,3.8065-3.165,1.12-.8428,2.71342-2.0683,4.21032-1.76786a.858.858,0,0,0,1.06727-.813,16.16573,16.16573,0,0,1,1.19265-6.07793l-.95215.38747c3.59514.9,8.097.50174,10.93515,3.26112.48392.4705,1.51073.16369,1.43931-.59618-.48464-5.15651-1.4397-10.9817-4.78423-15.12388-.68183-.84445-1.86833.35517-1.19236,1.19237Z"/><polygon points="141.62 51.67 141.333 49.778 135.87 49.826 134.966 51.323 141.62 51.67"/></svg>