<svg id="Layer_1" data-name="Layer 1" xmlns="http://www.w3.org/2000/svg" viewBox="0 0 222.67 270.67"><defs><style>.cls-1{fill:#ededed;}.cls-2{fill:#cecece;}.cls-3,.cls-4{fill:#c9b092;}.cls-4,.cls-8{stroke:#000;}.cls-10,.cls-4,.cls-8,.cls-9{stroke-miterlimit:10;}.cls-4{stroke-width:0.38px;}.cls-5{fill:#747c58;}.cls-6{fill:#54593e;}.cls-7{fill:#080808;}.cls-10,.cls-8,.cls-9{fill:none;}.cls-8{stroke-linecap:round;stroke-width:0.57px;}.cls-10,.cls-9{stroke:#231f20;}.cls-9{stroke-width:2.84px;}.cls-10{stroke-width:2.83px;}.cls-11{font-size:40px;fill:#fff;font-family:Rubik-Regular, Rubik;}</style></defs><circle class="cls-1" cx="111.33" cy="111.33" r="108.83" transform="translate(-22.6 194.11) rotate(-76.72)"/><path class="cls-2" d="M111.33,5c58.49,0,106.34,47.85,106.34,106.33h0c0,58.49-47.85,106.34-106.34,106.34h0C52.85,217.67,5,169.82,5,111.33H5C5,52.85,52.85,5,111.33,5h0m0-5A111.21,111.21,0,0,0,32.7,190,111.21,111.21,0,1,0,190,32.7,110.55,110.55,0,0,0,111.33,0Z"/><path class="cls-3" d="M186.67,114s-4.27,2.2-4.67,2.81-1.87.65-1.87.65l-3.61-.64-2.25-1-1,1-1.82,2.1s-2.81,2.48-5.34-6.91l2.48-2.42,1.9-3.29,3.48-2.57s1.7-3.93,4.4-3.65"/><path class="cls-4" d="M181.27,113.54l2.5-1s-.19-3.38.23-3.53,2.16-2.23,2.62-.26a18,18,0,0,1,0,5.24"/><path class="cls-4" d="M178.1,99.88s1.69-2.55,3.51-1.46.55,1.59.55,1.59a1.24,1.24,0,0,0-1.17.19c-.43.43-1.62,1.4-1.62,1.4s-.66.64-.8.5-1.15.29-1.07-.37A10,10,0,0,1,178.1,99.88Z"/><path class="cls-4" d="M182.42,99.85s1.71.26,1.93.79a3.58,3.58,0,0,1-.11,1.68l-2.11.23s-1.77,1.58-2.07,2-1,1.11-1.13.94-.42.22-1.06-.33a2.09,2.09,0,0,1-.65-1.43l1.35-1.59,2.9-2.14Z"/><path class="cls-4" d="M184.24,102.32s1.91.4,1.88.69.78,1.71.13,2a9.54,9.54,0,0,1-2.73.27,15.16,15.16,0,0,0-1.88,1.49c0,.14-1.43.61-1.43.61l-1.15-.62-.37-1.11,1.37-1.17,2.07-2Z"/><path class="cls-4" d="M186.07,105.19s1.77.11,1.91,1.4-.16,3.58-.62,3.92a4.18,4.18,0,0,0-.82.87l.09-3s-.21-.53-.48-.34-1.15.75-1.15.75l-.34.09-1.81.33s-1.72,0-1.92-.45-1-1.32.09-1.58a4.25,4.25,0,0,0,2-1.63Z"/><polygon class="cls-5" points="141.73 78.64 137.81 82.07 131.01 87.7 127.36 135 131.33 141.83 138.9 141.19 153.87 100.7 147.54 82.13 141.73 78.64"/><path d="M128.43,125.05a19.24,19.24,0,0,1,5-.78.28.28,0,0,0,0-.56,19.14,19.14,0,0,0-5.15.8.28.28,0,0,0,.15.54Z"/><polygon class="cls-6" points="147.35 106.44 151.26 109.45 139.51 139.22 134.89 134.47 134.06 132.77 139.13 136.08 130.03 124.64 140.22 131.2 137.71 121.5 143.28 125.29 147.75 113.15 147.35 106.44"/><path class="cls-7" d="M143,102.72c2.32,2,4.56,4,6.87,6l.58-.75c-4.07-2.35-7.86-5.16-11.92-7.51a.48.48,0,0,0-.48.83c4.06,2.35,7.85,5.15,11.92,7.5.45.27,1-.38.58-.75-2.32-2-4.56-4-6.87-6-.47-.4-1.15.28-.68.68Z"/><path d="M128.28,125.05a41.33,41.33,0,0,1,5,2.22,14.08,14.08,0,0,1,4.38,3.1c.23.28.63-.13.4-.4a14.62,14.62,0,0,0-4.5-3.19,41.21,41.21,0,0,0-5.13-2.27c-.34-.13-.49.42-.15.54Z"/><path class="cls-8" d="M135.77,120.05s5.66,5.11,7.24,8.82"/><path class="cls-8" d="M133.77,132.73a22.57,22.57,0,0,1,5.85,5.11"/><polygon class="cls-5" points="173.48 117.77 166.57 122.51 164.9 126.24 145.29 139.72 131.14 141.89 126.88 132.61 127.79 129.68 129.54 127.13 156.65 111.58 161.28 112.72 167.21 108.64 170.98 116.6 173.48 117.77"/><path d="M164.48,120a12.1,12.1,0,0,1,1.59-1.53,13.57,13.57,0,0,1,2.22-1.62l.27-.14.09,0,.08,0,.23-.07s-.1,0,0,0,.15,0,0,0a.51.51,0,0,0,.59-.34.47.47,0,0,0-.34-.58,3.32,3.32,0,0,0-2.21.9,21.28,21.28,0,0,0-2.39,2,10.19,10.19,0,0,0-.8.81.51.51,0,0,0,0,.68.49.49,0,0,0,.68,0Z"/><path class="cls-3" d="M49.55,87.74s2.74,4,3.4,4.26.88,1.77.88,1.77l-.16,3.66L53,99.79l1.1.89,2.32,1.54s2.83,2.45-6.14,6.2l-2.73-2.14L44,104.82l-3-3.11s-4.12-1.17-4.2-3.88"/><path class="cls-4" d="M49.85,93.15l-1.29-2.36s-3.33.64-3.54.24-2.5-1.85-.6-2.56a17.84,17.84,0,0,1,5.2-.66"/><path class="cls-4" d="M36.72,98.08s-2.75-1.34-1.9-3.29,1.5-.76,1.5-.76a1.27,1.27,0,0,0,.34,1.15c.49.36,1.6,1.42,1.6,1.42s.72.56.61.72.43,1.11-.23,1.11A9.91,9.91,0,0,1,36.72,98.08Z"/><path class="cls-4" d="M36.13,93.8s0-1.73.53-2a3.68,3.68,0,0,1,1.68-.11l.5,2.07s1.8,1.54,2.22,1.79,1.23.85,1.07,1,.28.39-.18,1.1a2.06,2.06,0,0,1-1.33.83l-1.75-1.13-2.51-2.6Z"/><path class="cls-4" d="M38.34,91.67s.15-1.94.44-2,1.59-1,2-.4A9.63,9.63,0,0,1,41.39,92a16.17,16.17,0,0,0,1.73,1.67c.13-.06.79,1.33.79,1.33l-.46,1.23-1.06.5-1.33-1.2-2.22-1.79Z"/><path class="cls-4" d="M40.94,89.48s-.12-1.77,1.14-2.07,3.57-.31,4,.09a4,4,0,0,0,1,.7l-3,.31s-.5.29-.27.52.89,1,.89,1l.14.32.56,1.75s.27,1.71-.2,2-1.16,1.2-1.58.12a4.26,4.26,0,0,0-1.87-1.79Z"/><polygon class="cls-5" points="120.96 83.74 115.85 84.73 107.14 86.19 80.24 125.26 80.24 133.16 87.11 136.4 120.38 108.91 124.24 89.67 120.96 83.74"/><polygon class="cls-5" points="54.95 99.56 62.06 104.01 66.14 104.05 86.31 116.69 93.94 128.8 87.11 136.4 84.06 136.74 81.02 136.14 55.97 117.45 55.18 112.76 49.08 108.94 54.88 102.31 54.95 99.56"/><path d="M86.15,117.19A19.12,19.12,0,0,1,90.87,119a.28.28,0,0,0,.28-.49,19.47,19.47,0,0,0-4.85-1.89c-.35-.09-.5.46-.15.54Z"/><path d="M60.5,106.93a10.16,10.16,0,0,1-1.08-.42c-.56-.25-1.1-.51-1.64-.8a12.47,12.47,0,0,1-1.53-.93,3.68,3.68,0,0,1-.46-.39.52.52,0,0,1-.1-.11c-.06-.06,0,.08,0,0l-.06-.1c0-.08,0,.11,0,0a.48.48,0,0,0-.92.26,1.72,1.72,0,0,0,.59.82,7.75,7.75,0,0,0,1.15.82,21.8,21.8,0,0,0,2.68,1.37,11,11,0,0,0,1.13.44.48.48,0,0,0,.26-.92Z"/><path class="cls-7" d="M103.47,97.81c2.21,2.59,4.45,5.16,6.66,7.75.4.47,1.07-.21.68-.67-2.22-2.59-4.45-5.16-6.67-7.75-.4-.47-1.07.21-.67.67Z"/><polygon class="cls-6" points="111.87 110.6 113.73 115.17 88.62 135.01 87.02 128.58 87.14 126.7 89.86 132.1 87.74 117.65 93.26 128.43 95.96 118.79 98.88 124.86 108.83 116.6 111.87 110.6"/><path class="cls-7" d="M110,105.19c1,2.87,1.9,5.79,2.91,8.66l.87-.36c-2.34-4.08-4.2-8.41-6.54-12.48a.48.48,0,0,0-.82.48c2.33,4.07,4.2,8.4,6.54,12.48.26.45,1,.15.87-.37-1-2.88-1.91-5.79-2.91-8.67-.21-.57-1.13-.33-.92.26Z"/><path d="M86,117.12a42.23,42.23,0,0,1,3.2,4.43,13.87,13.87,0,0,1,2.23,4.88c.06.35.61.2.55-.16a14.6,14.6,0,0,0-2.29-5,43,43,0,0,0-3.29-4.54c-.24-.28-.64.12-.4.4Z"/><path class="cls-8" d="M95,116.55s2.33,7.27,1.84,11.27"/><path class="cls-8" d="M86.92,126.52a22.43,22.43,0,0,1,2.49,7.35"/><polyline class="cls-9" points="105.16 66.96 96.04 66.29 96.75 56.73"/><path class="cls-10" d="M154.09,66.08s-27.75-31.2-57.7-.07"/><polyline class="cls-9" points="144.41 155.71 153.52 156.38 152.82 165.94"/><path class="cls-10" d="M95.48,156.59s27.74,31.2,57.7.07"/><text class="cls-11" transform="translate(12.32 263.1)">התנעת מנוע</text></svg>