<svg xmlns="http://www.w3.org/2000/svg" viewBox="0 0 222.66742 280.96826"><defs><style>.a{fill:#ededed;}.b{fill:#cecece;}.c{fill:#fff100;opacity:0.39;}.d,.g,.i{fill:#c9b092;}.e{fill:#f0ea4e;opacity:0.3;}.f{fill:#050505;}.g,.i{stroke:#000;}.g,.h,.i{stroke-miterlimit:10;}.g{stroke-width:1.78728px;}.h{fill:none;stroke:#231f20;stroke-width:2.82797px;}.i{stroke-width:1.81905px;}.j{fill:#fff;}</style></defs><circle class="a" cx="111.33374" cy="111.33368" r="108.83383"/><path class="b" d="M111.3338,5c58.48352,0,106.33362,47.8501,106.33362,106.3335v.00024c0,58.4834-47.8501,106.3335-106.33362,106.3335h-.00018C52.85016,217.66724,5,169.81714,5,111.33374v-.00024C5,52.8501,52.85016,5,111.33362,5h.00018m0-5A111.205,111.205,0,0,0,32.7,189.96729,111.205,111.205,0,1,0,189.96747,32.7,110.54169,110.54169,0,0,0,111.3338,0Z"/><circle class="c" cx="99.67507" cy="78.14148" r="21.85004"/><path class="d" d="M67.48033,138.09773s2.11642,19.13242.9515,21.791,2.01256,7.67342,2.01256,7.67342l10.10125,10.6084,8.3129,5.27594L87.8883,189.027l-2.94785,10.72144s-2.0692,14.84286,34.825,2.54722l2.59562-13.65131,6.74081-13.59207.87839-17.27558s9.34145-14.39064,2.43636-22.74232"/><ellipse class="e" cx="102.75075" cy="68.33592" rx="36.43952" ry="26.91881" transform="translate(28.97789 167.25549) rotate(-86.91142)"/><path class="f" d="M113.309,137.99758c.48175-6.227-.24325-5.62756-.24325-5.62756,6.72976-5.92694,8.38694-30.18687,8.38694-30.18687l-19.38386-.94335L82.70218,99.99152s-1.08878,24.29208,4.92977,30.94c0,0-.65279-.67736-.87615,5.56425-.22344,6.2416-2.87683,45.31009-2.87683,45.31009a7.55674,7.55674,0,0,0,5.36626,7.508l9.10643.515,6.52837.36923a7.55685,7.55685,0,0,0,6.17859-6.85511S112.82722,144.22457,113.309,137.99758Z"/><path class="g" d="M88.51862,114.19152s-13.32641-5.69608-17.67069,3.36332,1.93013,7.722,1.93013,7.722,2.33678-2.92106,5.1536-2.312,10.04322,1.3037,10.04322,1.3037,4.25717.83914,4.4735-.06333,5.29858-1.89236,3.24748-4.26577S88.51862,114.19152,88.51862,114.19152Z"/><path class="g" d="M71.37888,125.31911s-6.10759,5.49464-5.58111,8.16391,4.79779,6.35318,4.79779,6.35318l8.9646-4.59487s11.08812,1.614,13.28389,2.34192,6.832,1.79065,6.88665.77788,2.24681-.21809,3.3477-4.05189a9.86733,9.86733,0,0,0-1.16833-7.34272l-9.46169-2.76129L75.37467,123.284Z"/><path class="g" d="M70.59556,139.8362s-6.49611,6.55635-5.60562,7.62012,1.36658,8.8089,4.7422,8.38161,11.50848-6.08275,11.50848-6.08275,11.14866.39842,11.33872,1.0181,7.22336-1.31985,7.22336-1.31985l2.948-5.44448-1.471-5.36109-8.43571-1.06461-13.28389-2.34192Z"/><path class="g" d="M70.84457,155.93217s-6.71166,5.08851-3.898,10.522,9.97453,13.74252,12.64376,13.88655a19.76752,19.76752,0,0,1,5.51169,1.31311l-8.30217-11.824s-.52648-2.66927,1.03351-2.5851,6.48466-.05638,6.48466-.05638l1.59278-.52349,7.99548-3.4283s6.94915-4.29733,6.41174-6.764.6644-7.89339-4.47225-6.03422-12.21734-1.14272-12.21734-1.14272Z"/><circle class="h" cx="102.03903" cy="76.57053" r="23.42099"/><path class="i" d="M117.04122,158.34618l1.09574-12.91146s-15.04186-6.32236-14.819-8.47388-5.09429-14.075,4.44218-11.89065,22.60522,11.21772,22.60522,11.21772"/><path class="j" d="M47.03491,269.86865a.89258.89258,0,0,1-.25976-.66015v-11.96q0-6.87964-6.87989-6.87989H34.73511a.93431.93431,0,0,1-.66016-.24023.82714.82714,0,0,1-.25976-.64014V248.2085a.88882.88882,0,0,1,.91992-.91993h5.39941q10.16016,0,10.16016,9.75977V269.2085a.88883.88883,0,0,1-.91992.91992H47.69507A.89374.89374,0,0,1,47.03491,269.86865Z"/><path class="j" d="M56.55444,269.86865a.89262.89262,0,0,1-.25976-.66015v-21a.8786.8786,0,0,1,.25976-.68018.93612.93612,0,0,1,.66016-.23975h1.75977a.88884.88884,0,0,1,.91992.91993v21a.88883.88883,0,0,1-.91992.91992H57.2146A.89374.89374,0,0,1,56.55444,269.86865Z"/><path class="j" d="M66.35425,269.86865a.89259.89259,0,0,1-.25977-.66015v-21a.87858.87858,0,0,1,.25977-.68018.9361.9361,0,0,1,.66015-.23975h7.67969q5.16064,0,7.68067,2.46,2.51952,2.45946,2.51953,7.37988V269.2085a.88883.88883,0,0,1-.91992.91992H82.29468a.88882.88882,0,0,1-.91992-.91992v-11.96q0-6.87964-6.88086-6.87989H69.614V269.2085a.88882.88882,0,0,1-.91992.91992H67.0144A.89372.89372,0,0,1,66.35425,269.86865Z"/><path class="j" d="M109.05444,269.32861a.82114.82114,0,0,1-.7998.79981h-1.80078a1.041,1.041,0,0,1-.79981-.29981c-.18652-.20019-.29394-.31347-.32031-.34033L96.2146,256.64844a6.28206,6.28206,0,0,0-2.34082,2.93994,10.85031,10.85031,0,0,0-.61914,3.74023v5.87989a.89036.89036,0,0,1-.9209.91992H90.85425a.88882.88882,0,0,1-.91992-.91992v-6.04a13.58027,13.58027,0,0,1,.89941-5.16016,9.02588,9.02588,0,0,1,3.54-3.96l-3.71973-5.19971a1.48783,1.48783,0,0,1-.28027-.76025.82018.82018,0,0,1,.80078-.79981h1.75977a1.36938,1.36938,0,0,1,1.12011.67969l8.39942,11.72022a6.68451,6.68451,0,0,0,2.10058-1.76026,4.4912,4.4912,0,0,0,.81934-1.81982,13.869,13.869,0,0,0,.16016-2.33985V248.2085a.88882.88882,0,0,1,.91992-.91993h1.56054a.88884.88884,0,0,1,.91993.91993v5.71972a10.5948,10.5948,0,0,1-.94043,4.66016,9.19485,9.19485,0,0,1-3.7793,3.62012l4.55957,6.35986A1.22155,1.22155,0,0,1,109.05444,269.32861Z"/><path class="j" d="M125.91382,248.32861a6.2512,6.2512,0,0,1,3.09961,3.31983,15.93027,15.93027,0,0,1,.96,6.08008q0,5.12036-2.51953,7.98a14.8471,14.8471,0,0,1-6.56055,4.21972l-1.67969.56006a.69282.69282,0,0,1-.28027.04.71776.71776,0,0,1-.71973-.75977V268.0083a1.17193,1.17193,0,0,1,.87989-1.08008l1.56054-.59961a9.213,9.213,0,0,0,4.23926-3,9.46312,9.46312,0,0,0,1.48047-5.76025,11.26948,11.26948,0,0,0-.64063-4.21973,4.08347,4.08347,0,0,0-2.09961-2.22021,9.70821,9.70821,0,0,0-4.01953-.68018h-1.36035l-3.67969-.04a.93233.93233,0,0,1-.66015-.23974.82715.82715,0,0,1-.25977-.64014v-6.87988a.88882.88882,0,0,1,.91992-.91992h1.59961a.82872.82872,0,0,1,.63965.25976.93674.93674,0,0,1,.24024.66016v4.64013h3.08007A13.38066,13.38066,0,0,1,125.91382,248.32861Z"/><path class="j" d="M161.89331,247.52832a.92041.92041,0,0,1,.24023.68018v11.04a9.7198,9.7198,0,0,1-2.32031,6.33984,12.3873,12.3873,0,0,1-6.20019,3.98l-8.71973,2.76025a1.06564,1.06564,0,0,1-.32031.04.84855.84855,0,0,1-.55957-.20019.646.646,0,0,1-.24024-.52V270.4082q0-.91919.64063-1.11963l5.23926-1.76025-5.19922-18.64014a5.04541,5.04541,0,0,1-.2002-.7998.81843.81843,0,0,1,.79981-.79981h1.83984a.97081.97081,0,0,1,.59961.17969.87456.87456,0,0,1,.32031.41992l5.12012,18.56006a8.12838,8.12838,0,0,0,4.41992-3.15967,9.58816,9.58816,0,0,0,1.25977-5.12011v-9.96a.89031.89031,0,0,1,.91992-.91993h1.68066A.921.921,0,0,1,161.89331,247.52832Z"/><path class="j" d="M168.39233,269.86865a.89262.89262,0,0,1-.25976-.66015v-21a.8786.8786,0,0,1,.25976-.68018.93614.93614,0,0,1,.66016-.23975h1.75977a.88884.88884,0,0,1,.91992.91993v21a.88883.88883,0,0,1-.91992.91992h-1.75977A.89376.89376,0,0,1,168.39233,269.86865Z"/><path class="j" d="M189.09253,269.32861a.72022.72022,0,0,1-.26074.57959.92549.92549,0,0,1-.61914.22022H177.532a.88883.88883,0,0,1-.91992-.91992v-1.28028a.88956.88956,0,0,1,.91992-.91992h7.87989l-.63965-10.15967q-.20069-2.6001-.41993-3.82031a3.62771,3.62771,0,0,0-.98046-1.98,3.21865,3.21865,0,0,0-2.35938-.75977h-1.64062a.93182.93182,0,0,1-.65918-.24023.82784.82784,0,0,1-.26075-.64014v-1.27978a.89031.89031,0,0,1,.91993-.91992h1.64062a7.33666,7.33666,0,0,1,4.41992,1.14013,5.779,5.779,0,0,1,2.12012,3.13965,24.93513,24.93513,0,0,1,.7793,5.24024l.76074,12.48Z"/></svg>