<svg id="Layer_1" data-name="Layer 1" xmlns="http://www.w3.org/2000/svg" xmlns:xlink="http://www.w3.org/1999/xlink" viewBox="0 0 222.67 270.67"><defs><style>.cls-1{fill:#cab192;}.cls-2{fill:#747c58;}.cls-3{fill:#ededed;}.cls-4{fill:#cecece;}.cls-5,.cls-7{fill:#c9b092;}.cls-10,.cls-18,.cls-20,.cls-26,.cls-6{fill:none;}.cls-10,.cls-6,.cls-7{stroke:#000;}.cls-10,.cls-18,.cls-19,.cls-20,.cls-6{stroke-linecap:round;}.cls-10,.cls-18,.cls-25,.cls-26,.cls-6,.cls-7{stroke-miterlimit:10;}.cls-6{stroke-width:0.19px;}.cls-7{stroke-width:0.26px;}.cls-8{fill:#080808;}.cls-9{fill:#54593e;}.cls-10{stroke-width:0.38px;}.cls-11{fill:#27421d;}.cls-12{clip-path:url(#clip-path);}.cls-13{fill:#271d1d;}.cls-14{clip-path:url(#clip-path-2);}.cls-15{fill:#707171;}.cls-16{clip-path:url(#clip-path-3);}.cls-17{fill:#525222;}.cls-18,.cls-19,.cls-20{stroke:#27421d;stroke-width:0.77px;}.cls-19{fill:#284220;}.cls-19,.cls-20{stroke-linejoin:round;}.cls-21,.cls-25{fill:#231f20;}.cls-22{clip-path:url(#clip-path-4);}.cls-23{clip-path:url(#clip-path-5);}.cls-24{clip-path:url(#clip-path-6);}.cls-25,.cls-26{stroke:#231f20;stroke-width:2.43px;}.cls-27{font-size:40px;fill:#fff;font-family:Rubik-Regular, Rubik;}</style><clipPath id="clip-path"><polygon class="cls-1" points="161.21 86.77 161 79.54 162.05 77.95 164.81 76.15 166.74 71.18 164.25 69.25 163.03 58.76 153.91 55.72 144.93 58.48 143.29 69.24 141.89 70.6 142.97 75.84 144.07 76.54 144.1 79.46 146.31 82.22 146.17 88.36 142.99 92.46 146.31 103.76 153.21 106.8 162.32 96.86 166.74 90.23 161.21 86.77"/></clipPath><clipPath id="clip-path-2"><polygon class="cls-2" points="174.81 115.08 174.47 140.34 169.69 142.26 157.43 141.33 142.37 140.16 141.63 139.02 142.37 136.52 135.07 110.92 129.8 102.5 132.16 94.54 143.04 89.25 146.34 85.69 146.55 87.81 146.31 91.5 152.15 101.41 161.34 88.92 161.47 86.18 161.41 85.19 161.03 82.38 164.46 85.73 179.93 91.67 181.31 107.31 174.81 115.08"/></clipPath><clipPath id="clip-path-3"><path class="cls-2" d="M175.1,147.51s-.07-3-.12-3l-1.51.69s-.89,0-.91,0L141,141.73s-.08,2.93-.1,3l-.93,2v0l-1.11,3.55H176Z"/></clipPath><clipPath id="clip-path-4"><polygon class="cls-1" points="67.67 89.62 67.46 82.39 68.51 80.8 71.26 79 73.2 74.03 70.71 72.1 69.49 61.6 60.37 58.57 51.38 61.33 49.75 72.09 48.35 73.45 49.43 78.69 50.52 79.39 50.56 82.31 52.77 85.07 52.63 91.2 49.45 95.31 52.77 106.61 59.67 109.64 68.78 99.71 73.2 93.08 67.67 89.62"/></clipPath><clipPath id="clip-path-5"><polygon class="cls-2" points="81.17 117.9 80.82 143.16 76.05 145.08 63.79 144.15 48.72 142.98 47.99 141.84 48.72 139.34 41.43 113.74 36.16 105.32 38.52 97.36 49.4 92.07 52.7 88.51 52.91 90.63 52.67 94.31 58.51 104.23 67.69 91.73 67.82 88.99 67.77 88.01 67.39 85.19 70.81 88.55 86.28 94.48 87.66 110.12 81.17 117.9"/></clipPath><clipPath id="clip-path-6"><path class="cls-2" d="M81.56,150.36c0-.05-.07-3-.12-3l-1.51.69L79,148l-31.57-3.45s-.08,2.93-.1,3l-.93,2v0l-1.11,3.55H82.47Z"/></clipPath></defs><circle class="cls-3" cx="111.33" cy="111.33" r="108.83" transform="translate(-46.12 111.33) rotate(-45)"/><path class="cls-4" d="M111.33,5c58.49,0,106.34,47.85,106.34,106.33h0c0,58.49-47.85,106.34-106.34,106.34h0C52.85,217.67,5,169.82,5,111.33H5C5,52.85,52.85,5,111.33,5h0m0-5A111.21,111.21,0,0,0,32.7,190,111.21,111.21,0,1,0,190,32.7,110.55,110.55,0,0,0,111.33,0Z"/><path class="cls-5" d="M31.71,157.55c-1.28-1.33.11-3.89.11-3.89l-.08-2.94,1-2.39L33,146c6.09-2.57,5.94,0,5.94,0l-.36,1.85-.09,1,1.48.78,1.85,1.67s.61.81.44,1.27a21.09,21.09,0,0,0,.45,3.68s1.52,3-.78,3.33A8.85,8.85,0,0,0,38.15,161s-3.32,1.15-3.76.87A37.75,37.75,0,0,1,31.71,157.55Z"/><path class="cls-6" d="M33.16,158s.36,2.18-1.73,1.62l-.87-1.05"/><path class="cls-6" d="M30.77,158.73s.36,2.18-1.74,1.62l-.87-1"/><path class="cls-6" d="M26,160.17s.36,2.18-1.74,1.63l-.87-1.05"/><path class="cls-6" d="M28.27,159.7s.36,2.18-1.73,1.62l-.87-1"/><path class="cls-5" d="M126.6,72.15a20.88,20.88,0,0,0-2,3.14c0,.49-.94,1-.94,1L121.3,77l-1.67.08-.33.91-.46,1.83s-.94,2.36-5.36-2.55l.76-2.24.15-2.57,1.32-2.63s-.17-2.91,1.55-3.56"/><path class="cls-7" d="M123.19,73.56l1.22-1.36s-1.15-2-.94-2.22.62-2,1.51-1a12.11,12.11,0,0,1,1.59,3.19"/><path class="cls-7" d="M117.08,66.24s.25-2.07,1.69-2,.82.8.82.8-.53.08-.66.47-.55,1.35-.55,1.35-.2.59-.33.55-.61.53-.76.1A6.7,6.7,0,0,1,117.08,66.24Z"/><path class="cls-7" d="M119.7,64.89s1.12-.36,1.41-.11a2.41,2.41,0,0,1,.45,1l-1.21.79s-.59,1.5-.66,1.83-.26,1-.39.91-.19.26-.75.13a1.41,1.41,0,0,1-.83-.67l.33-1.38,1.11-2.19Z"/><path class="cls-7" d="M121.56,65.83s1.28-.34,1.35-.15,1,.8.71,1.19a6.69,6.69,0,0,1-1.58,1,11.16,11.16,0,0,0-.69,1.48c.07.07-.68.81-.68.81l-.89,0-.56-.57.47-1.12.66-1.83Z"/><path class="cls-7" d="M123.55,67s1.11-.47,1.59.27a4.82,4.82,0,0,1,.82,2.57,2.92,2.92,0,0,0-.23.78l-.88-1.88s-.29-.26-.39-.06-.47.81-.47.81l-.18.16-1,.75s-1,.56-1.3.32-1-.49-.43-1a2.89,2.89,0,0,0,.73-1.61Z"/><path class="cls-5" d="M183.08,70.43a21.67,21.67,0,0,1,2,3.14c.05.49.94,1,.94,1l2.38.72,1.67.08.33.9.47,1.83s.94,2.37,5.35-2.55l-.76-2.23-.15-2.58L194,68.09s.17-2.91-1.55-3.57"/><path class="cls-7" d="M186.49,71.84l-1.22-1.36s1.15-2,.94-2.21-.62-2-1.51-1a12,12,0,0,0-1.59,3.18"/><path class="cls-7" d="M192.6,64.52s-.24-2.07-1.68-2-.83.79-.83.79.53.08.66.48.55,1.34.55,1.34.2.59.33.56.62.52.77.1A7.47,7.47,0,0,0,192.6,64.52Z"/><path class="cls-7" d="M190,63.18s-1.12-.37-1.42-.11a2.49,2.49,0,0,0-.45,1.05l1.22.79s.59,1.5.65,1.82.27,1,.4.91.19.27.74.13a1.37,1.37,0,0,0,.83-.67l-.33-1.37-1.1-2.2Z"/><path class="cls-7" d="M188.12,64.12s-1.28-.34-1.35-.15-1,.79-.7,1.18a6.49,6.49,0,0,0,1.58,1,10.7,10.7,0,0,1,.68,1.49c-.06.07.68.81.68.81l.89,0,.56-.56L190,66.73l-.65-1.82Z"/><path class="cls-7" d="M186.14,65.3s-1.12-.47-1.59.27a4.82,4.82,0,0,0-.83,2.56,3,3,0,0,1,.23.78l.88-1.88s.29-.25.39,0,.47.8.47.8l.18.16,1,.76s1,.55,1.3.31,1-.48.44-1a2.85,2.85,0,0,1-.73-1.6Z"/><polygon class="cls-2" points="144.77 98.92 141.84 96.92 136.97 93.41 105.22 99.06 101.39 102.84 103.11 107.71 132.31 110.67 143.46 103.34 144.77 98.92"/><polygon class="cls-2" points="120.43 78.74 118.59 84.13 119.19 86.84 113.97 102.16 107.14 109.09 101.04 105.76 100.35 103.79 100.27 101.69 108.74 82.2 111.72 80.94 113.3 76.31 118.59 79.12 120.43 78.74"/><path d="M112,98.07a13,13,0,0,1,1.36,3.16.19.19,0,0,0,.37-.1,13.2,13.2,0,0,0-1.4-3.25c-.13-.21-.46,0-.33.19Z"/><path d="M116.41,83.54c0-.05,0-.1,0-.15s0-.07,0-.1,0,0,0,0,0-.34.08-.5q.12-.62.27-1.2a9.11,9.11,0,0,1,.38-1.15,3.36,3.36,0,0,1,.19-.38l0-.07s0,0,0,0,0,0,0-.05,0,0,0,0c.37-.2,0-.76-.33-.56a1.47,1.47,0,0,0-.55.74,9.09,9.09,0,0,0-.43,1.24,11.37,11.37,0,0,0-.43,2.24c0,.42.63.42.65,0Z"/><path class="cls-8" d="M129.2,101a8.65,8.65,0,0,1-2.29,6.7c-.26.26.15.66.4.4a9.19,9.19,0,0,0,2.46-7.1c0-.36-.59-.37-.57,0Z"/><path class="cls-8" d="M129.6,97.19c-.2,2.31-.37,4.62-.57,6.92,0,.42.62.42.65,0,.2-2.3.37-4.61.57-6.92,0-.42-.62-.42-.65,0Z"/><path class="cls-8" d="M128.49,106.11c.56-1.57.73-3.23,1.23-4.82.13-.39-.5-.57-.62-.17-.5,1.58-.67,3.25-1.23,4.82-.14.39.48.56.62.17Z"/><polygon class="cls-9" points="127.43 107.36 126.11 110.44 104.51 107.77 106.85 103.93 107.82 103.09 106.51 106.99 112.49 99.06 109.91 106.88 115.86 103.58 114.32 107.89 123.07 108.76 127.43 107.36"/><path class="cls-8" d="M129.13,103.84c-.91,1.86-1.89,3.69-2.8,5.55l.59.25c.85-3.07,2.06-6,2.91-9.13a.32.32,0,0,0-.62-.17c-.86,3.08-2.06,6-2.92,9.13-.09.34.43.59.6.25.91-1.86,1.89-3.69,2.8-5.55.18-.37-.38-.7-.56-.33Z"/><path d="M111.92,98a26.51,26.51,0,0,1-.61,3.67,9.67,9.67,0,0,1-1.29,3.41c-.14.2.19.39.33.19a9.92,9.92,0,0,0,1.33-3.5,30,30,0,0,0,.63-3.77c0-.24-.36-.24-.39,0Z"/><path class="cls-10" d="M116.49,102.05s-2.4,4.6-4.57,6.27"/><path class="cls-10" d="M135.8,101.89a15,15,0,0,1-2.37,4.72"/><polygon class="cls-2" points="166.18 96.64 169.11 94.64 173.97 91.12 205.73 96.77 209.56 100.55 207.84 105.42 178.64 108.38 167.49 101.06 166.18 96.64"/><polygon class="cls-2" points="189.36 76.33 191.24 81.72 190.65 84.43 195.97 99.71 202.85 106.6 208.92 103.23 209.6 101.26 209.67 99.15 201.07 79.72 198.08 78.48 196.47 73.86 191.2 76.7 189.36 76.33"/><path d="M198.67,95.59a13.2,13.2,0,0,0-1.4,3.25.19.19,0,0,0,.37.1A13,13,0,0,1,199,95.78c.13-.21-.2-.4-.33-.19Z"/><path d="M194.06,81.11a10.11,10.11,0,0,0-.45-2.24,8.77,8.77,0,0,0-.43-1.25,1.51,1.51,0,0,0-.56-.73c-.37-.19-.69.37-.33.56,0,0,.08.06,0,0s0,0,.05,0,.07.09,0,0l.05.07a2.1,2.1,0,0,1,.22.42,9,9,0,0,1,.36,1.11c.11.4.2.8.28,1.2l.09.5s0,.1,0,0a.28.28,0,0,1,0,.09.78.78,0,0,1,0,.16c0,.41.67.42.65,0Z"/><path class="cls-8" d="M181.18,98.72a9.19,9.19,0,0,0,2.46,7.1c.25.27.66-.14.4-.4a8.65,8.65,0,0,1-2.29-6.7c0-.36-.54-.36-.57,0Z"/><path class="cls-8" d="M183.08,103.65c-.56-1.57-.73-3.23-1.23-4.82-.12-.39-.75-.22-.62.18.5,1.58.67,3.25,1.23,4.81.14.39.77.22.62-.17Z"/><polygon class="cls-9" points="183.52 105.07 184.84 108.16 206.44 105.48 204.1 101.64 203.13 100.8 204.44 104.7 198.46 96.77 201.04 104.59 195.09 101.29 196.63 105.6 187.88 106.47 183.52 105.07"/><path class="cls-8" d="M181.26,101.88c.91,1.86,1.89,3.69,2.8,5.55.17.34.69.1.6-.25-.86-3.08-2.06-6.05-2.92-9.13a.32.32,0,0,0-.62.18c.85,3.07,2.06,6,2.91,9.12l.59-.25c-.91-1.86-1.89-3.69-2.8-5.55-.18-.37-.74,0-.56.33Z"/><path d="M198.64,95.69a29.8,29.8,0,0,0,.63,3.76,9.85,9.85,0,0,0,1.33,3.5c.14.2.47,0,.33-.19a9.6,9.6,0,0,1-1.29-3.41,26.62,26.62,0,0,1-.61-3.66c0-.25-.41-.25-.39,0Z"/><path class="cls-10" d="M194.46,99.76s2.4,4.6,4.57,6.27"/><path class="cls-10" d="M193.15,100.61a15,15,0,0,0,2.37,4.71"/><path class="cls-11" d="M178.37,123.17a25.55,25.55,0,0,0-1.93-16c-.16-.33-.65,0-.5.3A24.83,24.83,0,0,1,177.81,123c-.07.37.48.52.56.16Z"/><polygon class="cls-1" points="161.21 86.77 161 79.54 162.05 77.95 164.81 76.15 166.74 71.18 164.25 69.25 163.03 58.76 153.91 55.72 144.93 58.48 143.29 69.24 141.89 70.6 142.97 75.84 144.07 76.54 144.1 79.46 146.31 82.22 146.17 88.36 142.99 92.46 146.31 103.76 153.21 106.8 162.32 96.86 166.74 90.23 161.21 86.77"/><g class="cls-12"><polygon class="cls-13" points="162.33 73.93 166.75 62.32 136.76 29.71 143.98 73.2 145.03 65.36 145.86 63.34 146.75 59.78 152.91 61.01 159.91 60.03 160.74 63.33 162.28 65.65 162.06 72.14 162.33 73.93"/></g><polygon points="159.19 66.87 159.26 65.46 155.57 64.7 154.75 65.66 159.19 66.87"/><polygon points="150.64 65.98 150.5 64.55 147.22 65.33 146.68 66.39 150.64 65.98"/><path d="M155.58,75.12a8.41,8.41,0,0,1-5.12.84c-.42-.07-.6.57-.18.64a9.25,9.25,0,0,0,5.64-.9c.38-.2,0-.77-.34-.58Z"/><path d="M159.39,81.26l-5.16,3.24H150l-3-1.87,2.39,5.08a2.85,2.85,0,0,0,1.31,1.47h0a2.84,2.84,0,0,0,1.36.35h.15a2.85,2.85,0,0,0,1.85-.68l1.07-.9a3.08,3.08,0,0,0,.67-.81l2.38-4.33Z"/><path d="M160.38,79.89c-1.41,1.16-2.8,2.35-4.2,3.52l-.86.72c-.33.27.14.74.47.47,1.41-1.17,2.8-2.35,4.2-3.53l.86-.71c.33-.28-.15-.75-.47-.47Z"/><path d="M148.57,66.32a2.87,2.87,0,0,1,0,2.08l.56-.15a1.2,1.2,0,0,1-.24-.41,2.46,2.46,0,0,1-.07-.29,1.72,1.72,0,0,1,0-.26c0-.2,0-.4,0-.61l0-.29s0-.1,0-.06,0,0,0,0h0c0,.08-.09.08-.21,0s-.19,0-.22,0a.26.26,0,0,1,.06-.28l.15-.08h.05a.33.33,0,1,0,0,.66.38.38,0,0,0,.37-.49.41.41,0,0,0-.5-.3c-.41.1-.39.65-.41,1a2.55,2.55,0,0,0,.52,2,.33.33,0,0,0,.55-.14,3.42,3.42,0,0,0,0-2.44.33.33,0,0,0-.41-.23.34.34,0,0,0-.23.41Z"/><path d="M156.79,66.08a2.9,2.9,0,0,1,0,2.09l.55-.15a1.5,1.5,0,0,1-.23-.41c0-.1-.05-.19-.07-.29s0-.14,0-.26a4.19,4.19,0,0,1,0-.61l0-.29s0-.11,0-.06,0,0,0,0h0q0,.12-.21,0c-.12.06-.2.05-.22,0a.24.24,0,0,1,.05-.28l.15-.08h.06a.33.33,0,1,0,0,.66.38.38,0,0,0,.37-.49.43.43,0,0,0-.5-.31c-.41.11-.39.66-.41,1a2.59,2.59,0,0,0,.51,2,.34.34,0,0,0,.56-.14,3.53,3.53,0,0,0,0-2.44.34.34,0,0,0-.41-.24.34.34,0,0,0-.23.41Z"/><path d="M164.36,72.77l-1.44.74a.32.32,0,0,0-.12.45.34.34,0,0,0,.45.12l1.45-.73a.34.34,0,0,0-.34-.58Z"/><path d="M163.63,72.1l-.89,1.64a.33.33,0,0,0,.57.33l.9-1.63a.34.34,0,0,0-.58-.34Z"/><path d="M166,71.29a4.09,4.09,0,0,0-2.34.79.34.34,0,0,0-.12.46.33.33,0,0,0,.45.12,3.4,3.4,0,0,1,2-.7.35.35,0,0,0,.33-.34.34.34,0,0,0-.33-.33Z"/><polygon points="141.82 149.72 174.94 145.84 175.09 138 142.3 137.97 141.82 149.72"/><polygon class="cls-2" points="174.81 115.08 174.47 140.34 169.69 142.26 157.43 141.33 142.37 140.16 141.63 139.02 142.37 136.52 135.07 110.92 129.8 102.5 132.16 94.54 143.04 89.25 146.34 85.69 146.55 87.81 146.31 91.5 152.15 101.41 161.34 88.92 161.47 86.18 161.41 85.19 161.03 82.38 164.46 85.73 179.93 91.67 181.31 107.31 174.81 115.08"/><g class="cls-14"><polyline class="cls-9" points="141.89 141.73 144.59 136.88 135.92 112.61"/></g><polygon class="cls-9" points="174.19 140.45 173.86 126.41 173.87 116.66 174.5 116.84 174.66 140.31 174.19 140.45"/><path d="M137.57,111.45a21.71,21.71,0,0,1,.5,3.68c0,.59.05,1.18.07,1.77a5.68,5.68,0,0,0,.09,1.6c.29.81,1,.87,1.7,1,1.11.15,2.22.31,3.33.42a23.33,23.33,0,0,0,3.92.13,1.42,1.42,0,0,0,1.42-1,24.49,24.49,0,0,0,.55-4.52,39.28,39.28,0,0,1,.63-5.42c.09-.37-.47-.52-.55-.16-.65,2.79-.59,5.73-.95,8.55-.07.49-.05,1.32-.42,1.68s-.92.26-1.37.27c-.62,0-1.23,0-1.85,0-1.18-.07-2.37-.2-3.54-.37l-1.2-.18c-.42,0-.87-.06-1.09-.51a2.72,2.72,0,0,1-.08-.95c0-.28,0-.57,0-.85,0-.59-.05-1.17-.08-1.76a22,22,0,0,0-.51-3.52c-.08-.36-.64-.21-.55.15Z"/><path d="M158.26,110.7q.26,1.93.48,3.87c.11,1,.22,1.91.31,2.86a1.43,1.43,0,0,0,1.06,1.35,12.49,12.49,0,0,0,1.62.13l1.87.13c1.29.06,2.59.1,3.89,0,.91,0,2.09.07,2.71-.74a4.44,4.44,0,0,0,.38-2.21,57.12,57.12,0,0,1,.41-6.92c.06-.36-.49-.52-.56-.15a33.66,33.66,0,0,0-.34,5.11c0,.92-.06,1.83-.15,2.74a2.28,2.28,0,0,1-.24,1.13c-.32.43-1,.38-1.48.42a41.14,41.14,0,0,1-6.66-.14,4.41,4.41,0,0,1-1.51-.18c-.41-.23-.41-.64-.46-1.06-.08-.83-.18-1.67-.28-2.51-.15-1.29-.31-2.58-.47-3.87-.05-.36-.62-.36-.58,0Z"/><polygon class="cls-2" points="152.58 140.94 152.58 149.52 150.54 149.52 150.54 139.63 152.58 139.63 152.58 140.94"/><polygon class="cls-2" points="146.35 140.94 146.35 149.52 144.31 149.52 144.31 139.63 146.35 139.63 146.35 140.94"/><polygon class="cls-2" points="161.74 139.73 161.74 149.47 163.98 149.47 163.98 138.42 161.74 138.42 161.74 139.73"/><rect class="cls-2" x="171.43" y="137.97" width="2.04" height="9.74"/><path d="M141.24,98.23a4.63,4.63,0,0,1,2-2.57,9.46,9.46,0,0,1,2.53-.86l-.39-.16a10.8,10.8,0,0,1,.88,2.7c.09.49.75.89,1.11,1.19.75.64,1.51,1.27,2.25,1.92.33.29.66.58,1,.89.1.1.21.2.3.31a.52.52,0,0,0,.08.11l0,0c-.06-.11,0-.23.11-.35-.37.26,0,.87.35.61s0-.83-.26-1.11c-.52-.53-1.1-1-1.67-1.5s-1.27-1.07-1.9-1.62c-.21-.17-.41-.35-.6-.53a1.43,1.43,0,0,0-.13-.13s0,.12.05,0a1.17,1.17,0,0,0,0-.32,9.83,9.83,0,0,0-.94-2.61.34.34,0,0,0-.39-.16,9,9,0,0,0-2.92,1.05,5.48,5.48,0,0,0-2.08,2.87c-.16.42.52.6.67.18Z"/><path d="M146.21,96.31a13.53,13.53,0,0,0-2.69.31,18.19,18.19,0,0,0-2.56.83c-.41.17-.23.85.19.68a16.71,16.71,0,0,1,2.48-.81,12.46,12.46,0,0,1,2.58-.31c.45,0,.45-.72,0-.7Z"/><path d="M144.38,87.88a11.64,11.64,0,0,0-3.11,5.94,22.61,22.61,0,0,0-.66,3.92c0,.45.67.45.7,0a22.07,22.07,0,0,1,.61-3.62,11.09,11.09,0,0,1,3-5.74c.34-.3-.15-.8-.49-.5Z"/><path d="M175.79,117.33a9.72,9.72,0,0,0-1.93-3.07,4.86,4.86,0,0,0-2.8-1.41.32.32,0,0,0-.38.21.31.31,0,0,0,.21.38,4.36,4.36,0,0,1,2.57,1.3,9,9,0,0,1,1.79,2.91.31.31,0,0,0,.54-.32Z"/><path class="cls-8" d="M132.06,106.68a9.33,9.33,0,0,1,3.41,6.85c0,.4.63.4.61,0a9.93,9.93,0,0,0-3.58-7.29c-.3-.25-.74.18-.44.44Z"/><path class="cls-8" d="M173.6,114.56c-.65,1.08-1,2.3-1.65,3.38a.31.31,0,0,0,.53.32c.64-1.09,1-2.31,1.65-3.39a.31.31,0,0,0-.53-.31Z"/><path class="cls-8" d="M175.79,117.33a3.06,3.06,0,0,0-1.92-1.29.85.85,0,0,0-.79.26,4.86,4.86,0,0,0-.63.79,9,9,0,0,0-.5.85c-.19.36.35.67.53.32a8.85,8.85,0,0,1,.5-.84,3.72,3.72,0,0,1,.33-.45,1.54,1.54,0,0,1,.17-.19l.07-.06s0,0,0,0,0,0,0,0l.07,0h.09a2.14,2.14,0,0,1,.53.2,2.36,2.36,0,0,1,1,.81c.22.33.75,0,.54-.32Z"/><path class="cls-8" d="M174.81,116a1.16,1.16,0,0,0-.75-.21c-.11,0-.22,0-.32,0s-.07,0,0,0h-.1l0,0c.09,0,.06,0,0,0l0,0,0,0-.44.44c.19.15.43.36.7.26a.33.33,0,0,0,.18-.15.27.27,0,0,0,0-.23l-.27-.78-.52.3.64.76a.3.3,0,0,0,.44,0,.31.31,0,0,0,0-.43l-.64-.77a.3.3,0,0,0-.37,0,.32.32,0,0,0-.15.34l.28.78.21-.38h0c-.05,0,.08,0,0,0s.07,0,0,0l0,0s0,0-.05,0l0,0,0,0-.08-.06a.29.29,0,0,0-.22-.09.33.33,0,0,0-.22.09.33.33,0,0,0,0,.44,1.1,1.1,0,0,0,.75.2h.32s.07,0,0,0h.11l0,0s-.06,0,0,0a.31.31,0,0,0,.44,0,.33.33,0,0,0,0-.44Z"/><path class="cls-8" d="M171.14,137.74c-.8.44-1.54.95-2.33,1.39a27.35,27.35,0,0,1-4.27,1.75c-.43.15-.25.83.18.68a28.5,28.5,0,0,0,4.39-1.8c.81-.44,1.57-1,2.38-1.41.4-.22,0-.83-.35-.61Z"/><path d="M170.32,103.7q-7,1-14,1.52c-.45,0-.45.74,0,.7q7.11-.56,14.18-1.54c.44-.07.25-.74-.19-.68Z"/><path d="M156,105.6c-.7,1.43-.57,3-.92,4.53-.1.44.58.63.68.19.33-1.44.18-3,.84-4.37.2-.4-.4-.76-.6-.35Z"/><path d="M170.2,104.21a14.76,14.76,0,0,1-.08,5.62c-.09.44.58.63.67.18a15.48,15.48,0,0,0,.08-6c-.08-.44-.75-.25-.67.19Z"/><path d="M170.42,109.66l-1.37.3a.35.35,0,1,0,.18.67l1.38-.29a.36.36,0,0,0,.25-.43.37.37,0,0,0-.44-.25Z"/><path class="cls-8" d="M151.44,140.33a15.29,15.29,0,0,1,.94-4.05,18.9,18.9,0,0,0,.58-4.36c.12-3,.12-6,.1-9,0-6.15-.2-12.31-.29-18.46a.35.35,0,0,0-.7,0c.09,6.15.26,12.31.29,18.46,0,3,0,6-.1,9a18,18,0,0,1-.74,4.78,12.21,12.21,0,0,0-.78,3.63.35.35,0,0,0,.7,0Z"/><path d="M149.24,106.33a7.73,7.73,0,0,1-1.08,5c-.22.4.38.75.6.36a8.61,8.61,0,0,0,1.16-5.51.34.34,0,0,0-.43-.24.36.36,0,0,0-.25.43Z"/><path d="M149.15,106a43,43,0,0,0-11.8,1.19c-.44.1-.25.78.19.67a42.39,42.39,0,0,1,11.61-1.16.35.35,0,0,0,0-.7Z"/><path d="M137.32,107.5a9.55,9.55,0,0,1-.53,3.82c-.15.42.52.61.67.18a9.91,9.91,0,0,0,.56-4c0-.45-.73-.45-.7,0Z"/><path d="M148.59,111a30.84,30.84,0,0,1-4.33.35c-2.09.13-4.17.26-6.26.41a13.54,13.54,0,0,0-1.81.19c-.44.09-.26.77.18.67a30.85,30.85,0,0,1,4.33-.34c2.09-.14,4.18-.26,6.26-.42a12.06,12.06,0,0,0,1.81-.18c.45-.09.26-.77-.18-.68Z"/><line class="cls-15" x1="146.54" y1="96.68" x2="143.63" y2="97.21"/><path d="M145.85,94.52a5.31,5.31,0,0,0-2.91.81,5.39,5.39,0,0,0-1.75,1.84l.05.55,4.58-1.18.61.16Z"/><path d="M165.21,94c-1,0-2,.16-3,.26l-1.46.14-.69,0H160l.05.06s0-.08,0-.12l.15-.45-.69-.09a1.06,1.06,0,0,0,.35,1,.71.71,0,0,0,1-.17.68.68,0,0,0-.21-1,.49.49,0,0,0-.72.5c0,.81,1.11.68,1.62.56l1-.26a1.68,1.68,0,0,1,.77-.08.35.35,0,0,0,.18-.67,9.46,9.46,0,0,0-2.55-.08c-.45,0-.45.69,0,.7a9.39,9.39,0,0,1,2.37,0l.18-.67a2.88,2.88,0,0,0-1.48.16c-.25.07-.5.15-.76.2a1.27,1.27,0,0,1-.34.05.86.86,0,0,0-.16,0h0c-.09-.05-.14,0-.14.12h-.35c.09,0,0,0,0,0s0-.24,0-.36a.35.35,0,0,0-.69-.09,2,2,0,0,0-.21.9.61.61,0,0,0,.61.49,12.25,12.25,0,0,0,1.7-.12c1.19-.12,2.38-.28,3.58-.33.45,0,.46-.72,0-.7Z"/><path class="cls-2" d="M175.1,147.51s-.07-3-.12-3l-1.51.69s-.89,0-.91,0L141,141.73s-.08,2.93-.1,3l-.93,2v0l-1.11,3.55H176Z"/><g class="cls-16"><rect class="cls-9" x="125.06" y="135.45" width="17.21" height="16.16"/></g><path class="cls-2" d="M175.94,172.66h0a.1.1,0,0,0,.17.09l0,0v0A.1.1,0,0,0,175.94,172.66Z"/><path d="M151.77,149.92c.51-2,1.11-3.93,1.73-5.88.14-.43-.54-.61-.67-.18-.62,1.94-1.22,3.9-1.74,5.87a.35.35,0,0,0,.68.19Z"/><path d="M149.69,150c.27-1.12.47-2.24.81-3.35a12.13,12.13,0,0,1,.61-1.69,4,4,0,0,1,.35-.64.71.71,0,0,1,.28-.27c.41-.2,0-.81-.35-.61a2.15,2.15,0,0,0-.83,1.05,13.85,13.85,0,0,0-.67,1.76c-.38,1.18-.59,2.37-.87,3.57-.11.44.57.62.67.18Z"/><path class="cls-8" d="M131.67,106.34a8.56,8.56,0,0,1,2.18,3.22.32.32,0,0,0,.39.22.33.33,0,0,0,.23-.4,9.5,9.5,0,0,0-2.34-3.5c-.3-.28-.76.17-.46.46Z"/><path d="M132.57,96.34c2.92,0,5.81-.68,8.73-.69a.29.29,0,0,0,0-.58c-2.92,0-5.81.68-8.73.69a.29.29,0,0,0,0,.58Z"/><path d="M132.85,96.13s0,0,0,0,0,0,0,0,0-.07,0-.1.08-.16.13-.24.22-.38.33-.56c.21-.34.43-.68.65-1l.14-.21a.29.29,0,0,0-.1-.4.31.31,0,0,0-.4.1c-.38.58-.76,1.16-1.1,1.76a4.53,4.53,0,0,0-.27.54.3.3,0,0,0,.21.36.3.3,0,0,0,.35-.2Z"/><path d="M167.23,91l4.91,1.17c.33.08.48-.43.14-.51l-4.91-1.17c-.33-.08-.47.43-.14.51Z"/><polygon class="cls-17" points="164.44 94.48 167.75 95.74 167.27 93.25 172.05 93.86 170.67 97.3 170.41 102.69 168.02 102.36 166.49 101.59 164.98 100.22 164.32 98.11 164.44 94.48"/><path d="M173.15,93.8c-.93,2.47-2,3.88-1.36,6.46a10.56,10.56,0,0,1,.42,2.07c0,.47-1.63,1-1.8.36-.7-2.71-.49-6.52,1-8.92"/><path d="M167.57,99a13.46,13.46,0,0,0,1.84-1.53c.58-.54,1.14-1.1,1.73-1.64.27-.25-.14-.66-.41-.41-.57.53-1.12,1.08-1.69,1.61a12.94,12.94,0,0,1-1.76,1.47c-.31.21,0,.7.29.5Z"/><polygon class="cls-17" points="168.18 88.55 171.59 89.53 174.59 90.59 173.42 88.71 168.96 88.1 167.09 88.09 168.18 88.55"/><path d="M164.21,86c2.12,2.63,2.71,6.48,3,9.75l.6-.25c-2.13-2.06-5.26-1.81-7.94-2.48a.36.36,0,0,0-.4.16,12.54,12.54,0,0,0-1,4.65l.45-.33a4.35,4.35,0,0,0-3.27,1.06c-1.12.78-2.09,1.73-3.16,2.57-.35.28.15.77.5.5.91-.72,1.74-1.52,2.67-2.22s2-1.46,3.07-1.24a.36.36,0,0,0,.45-.34,11.29,11.29,0,0,1,.85-4.3l-.4.17c2.53.63,5.63.36,7.63,2.3.2.19.63.07.6-.25-.33-3.48-1-7.45-3.23-10.25-.28-.35-.77.15-.49.5Z"/><path d="M167.21,93.2a38,38,0,0,0,3.95.71c1,.14,2,.21,2.88.44.36.09.52-.46.16-.55-.94-.23-1.93-.3-2.88-.44-1.33-.2-2.66-.39-4-.72a.29.29,0,0,0-.15.56Z"/><path d="M166.16,88.37c1.4.39,2.79.85,4.17,1.32a35.81,35.81,0,0,1,4.12,1.54c.33.16.63-.34.29-.5a35.84,35.84,0,0,0-4.16-1.56c-1.41-.48-2.83-1-4.27-1.35a.29.29,0,0,0-.15.55Z"/><path d="M155.63,110.94a90.29,90.29,0,0,0,13.36-.36c.45,0,.45-.75,0-.7a91.68,91.68,0,0,1-13.36.36c-.45,0-.45.68,0,.7Z"/><path d="M152.11,66.37a3,3,0,0,1-.56,2.29,22,22,0,0,1-1.29,2c-.18.26.25.51.43.25a19.47,19.47,0,0,0,1.4-2.2,3.17,3.17,0,0,0,.5-2.47c-.11-.29-.6-.17-.48.13Z"/><path d="M150.7,70a1.35,1.35,0,0,0-.6,1.16,1.46,1.46,0,0,0,.7,1.29,3.06,3.06,0,0,0,1.81.61,3.75,3.75,0,0,0,1-.22,2,2,0,0,0,.79-.46,1,1,0,0,0,.26-.87c0-.29-.19-.51-.5-.49s-.32.51,0,.5c.07,0,.07,0,0,0s0,0,0,0,0,.11,0,.14a.46.46,0,0,1-.08.32,1.3,1.3,0,0,1-.69.42,2.48,2.48,0,0,1-.93.18,2.43,2.43,0,0,1-.84-.22c-.4-.18-.94-.46-1-.94-.05-.31,0-.82.34-1s0-.57-.25-.43Z"/><path class="cls-18" d="M160.73,110.7s4.54,17.34,10.58,16.22,5.25-7.07,5.25-7.07"/><path class="cls-18" d="M174,93.86s2.35-3.55,2.46-3.56"/><path class="cls-18" d="M173.66,94s.7-3.76,1.87-4"/><ellipse class="cls-19" cx="174.16" cy="99.44" rx="1.1" ry="0.59" transform="translate(-13.54 170.08) rotate(-50.35)"/><ellipse class="cls-19" cx="174.26" cy="100.98" rx="1.1" ry="0.59" transform="translate(-14.68 170.71) rotate(-50.35)"/><ellipse class="cls-19" cx="174.32" cy="102.61" rx="1.1" ry="0.59" transform="translate(-15.92 171.35) rotate(-50.35)"/><ellipse class="cls-19" cx="174.37" cy="104.41" rx="1.1" ry="0.59" transform="translate(-17.29 172.04) rotate(-50.35)"/><ellipse class="cls-19" cx="174.28" cy="106.17" rx="1.1" ry="0.59" transform="translate(-18.68 172.61) rotate(-50.35)"/><ellipse class="cls-19" cx="174.28" cy="107.85" rx="1.1" ry="0.59" transform="translate(-19.97 173.22) rotate(-50.35)"/><ellipse class="cls-19" cx="174.46" cy="109.62" rx="1.1" ry="0.59" transform="translate(-21.27 174) rotate(-50.35)"/><ellipse class="cls-19" cx="174.52" cy="111.42" rx="1.1" ry="0.59" transform="translate(-22.63 174.69) rotate(-50.35)"/><ellipse class="cls-19" cx="174.87" cy="113.31" rx="1.1" ry="0.59" transform="translate(-23.96 175.64) rotate(-50.35)"/><ellipse class="cls-19" cx="175.12" cy="115.02" rx="1.1" ry="0.59" transform="translate(-25.19 176.46) rotate(-50.35)"/><ellipse class="cls-19" cx="175.5" cy="116.84" rx="1.1" ry="0.59" transform="translate(-26.45 177.41) rotate(-50.35)"/><path class="cls-19" d="M176.69,117.81c.15.31-.08.9-.52,1.3s-.92.48-1.07.16.36-1.11.8-1.51S176.55,117.49,176.69,117.81Z"/><ellipse class="cls-19" cx="176.61" cy="120.02" rx="1.1" ry="0.59" transform="translate(-28.5 179.41) rotate(-50.35)"/><ellipse class="cls-19" cx="177.33" cy="121.49" rx="1.1" ry="0.59" transform="translate(-29.37 180.5) rotate(-50.35)"/><ellipse class="cls-19" cx="177.99" cy="122.71" rx="1.1" ry="0.59" transform="translate(-30.06 181.45) rotate(-50.35)"/><path class="cls-20" d="M173.66,98.7l.33-5.9.65.07a.56.56,0,0,1,.33.57l-.6,4.73Z"/><path d="M173.65,99.1l0,0s0,0,0,0l0,.06,0,.07,0,0s0,0,0,0a.57.57,0,0,1,0,.14s0-.07,0,0v0s0,.09,0,0a.07.07,0,0,0,0,0l0,.11c0,.06,0-.06,0,0s0,0,0,0a.36.36,0,0,1-.07.1l0,0h0l-.08.09a1.21,1.21,0,0,1-.16.16l-.23.2a.3.3,0,0,0,0,.41.31.31,0,0,0,.41,0l.26-.24a1.91,1.91,0,0,0,.37-.43,1.17,1.17,0,0,0,.17-.63,1.2,1.2,0,0,0-.33-.75.29.29,0,0,0-.41.41Z"/><path d="M173.93,100.75l0,0h0l0,.06a.59.59,0,0,1,0,.08l0,0s0,0,0,0,0,.1,0,.13,0-.06,0,0v0s0,.09,0,0a.13.13,0,0,1,0,.06l0,.11c0,.06,0-.06,0,0l0,.06-.06.1,0,0s0,0,0,0l-.08.09a1.21,1.21,0,0,1-.16.16l-.23.2a.29.29,0,0,0,.41.41c.08-.09.18-.16.26-.24a2.16,2.16,0,0,0,.37-.43,1.09,1.09,0,0,0,.17-.63,1.2,1.2,0,0,0-.33-.75.3.3,0,0,0-.41,0,.31.31,0,0,0,0,.41Z"/><path d="M174.09,102.71l.06.08,0,0,0,.05,0,0s0,0,0,0a.76.76,0,0,0,0,.11c0,.06,0-.07,0,0v0s0,.08,0,0a.13.13,0,0,0,0,.06l0,0h0c0,.07-.07.14-.11.2h0l0,0-.08.08a1.07,1.07,0,0,1-.16.14l-.23.2a.29.29,0,0,0,.41.41,5.92,5.92,0,0,0,.45-.41,1.14,1.14,0,0,0,.35-.92,1.08,1.08,0,0,0-.31-.61.28.28,0,0,0-.41,0,.28.28,0,0,0,0,.4Z"/><path d="M174.2,104.78l.08.08v0s0,0,0,0l0,.05a.05.05,0,0,0,0,0s0-.06,0,0,0,0,0,0,0,.07,0,0h0v0h0c0-.06,0,0,0,0s0,0,0,0,0,.05,0,0,0,0,0,0,0,0,0,0a.21.21,0,0,1,0,.06s0,0,0,0l0,0-.12.12-.12.11s.06-.05,0,0l0,0-.06,0-.25.18a.29.29,0,0,0,0,.41.29.29,0,0,0,.4,0s-.07,0,0,0l0,0,0,0,.12-.08a2.6,2.6,0,0,0,.32-.26,1,1,0,0,0,.38-.78,1,1,0,0,0-.3-.57.31.31,0,0,0-.41,0,.3.3,0,0,0,0,.41Z"/><path d="M174.18,106.38l.08.07h0l0,0,0,0v0s0-.07,0,0,0,0,0,0,0,.07,0,0,0,0,0,0v0s0,0,0,0v0s0,0,0,0,0,0,0,0,0,.06,0,.07l0,0s0,.06,0,0,0,0,0,0l0,0-.13.12-.06,0,0,0,0,0h0l-.13.09-.21.14a.31.31,0,0,0-.13.17.28.28,0,0,0,0,.22.31.31,0,0,0,.4.11c.17-.14.36-.24.52-.39a.94.94,0,0,0,.39-.75.8.8,0,0,0-.3-.54.3.3,0,0,0-.41,0,.31.31,0,0,0,0,.41Z"/><path d="M174.3,107.86l.07.07,0,0s0,0,0,0l0,0s0,0,0,0,0-.06,0,0l0,.08s0-.07,0,0h0v0s0,0,0,0v.08h0s0,0,0,0,0,.06,0,.08l0,.06s0,0,0,0l0,0-.12.12-.06.05,0,0h0l0,0-.13.09c-.08.06-.17.11-.25.18a.27.27,0,0,0-.09.2.33.33,0,0,0,.09.21.31.31,0,0,0,.41,0l0,0,0,0,0,0,.12-.08a4.08,4.08,0,0,0,.33-.25A1,1,0,0,0,175,108a.94.94,0,0,0-.3-.56.29.29,0,1,0-.41.41Z"/><path d="M174.47,109.74l.08.06,0,0s0-.06,0,0l0,0h0s0-.07,0,0v0s0,.07,0,0,0,0,0,0,0-.08,0,0v0s0,0,0,0l0,0v0a.16.16,0,0,1,0,.07l0,0s.05-.06,0,0l-.06.06-.12.11,0,0h0l0,0-.07,0-.13.09a2.26,2.26,0,0,1-.2.13.34.34,0,0,0-.13.18.29.29,0,0,0,.42.32l.2-.12.33-.25a.9.9,0,0,0,.39-.73.76.76,0,0,0-.29-.52.31.31,0,0,0-.21-.09.27.27,0,0,0-.2.09.29.29,0,0,0,0,.41Z"/><path d="M174.61,111.19l.06.07s0,0,0,0l0,0,0,0,0,0s0,0,0,0,0,0,0,.06,0,0,0,.07,0-.07,0,0v.06c0,.08,0,0,0,0a.06.06,0,0,1,0,0s0,0,0,.06h0s0,.07-.05.1l0,0s0,.06,0,0l0,0,0,0-.07.08-.16.15a2.23,2.23,0,0,0-.24.19.28.28,0,0,0,0,.4.3.3,0,0,0,.41,0,4.25,4.25,0,0,0,.46-.4,1.12,1.12,0,0,0,.35-.86,1.05,1.05,0,0,0-.31-.63.29.29,0,1,0-.41.41Z"/><path d="M175.07,113.37a.12.12,0,0,1,.05,0l0,0s0,0,0,0,0,0,0,.06l0,.05v0s0,0,0,0,0-.08,0,0v0c0,.05,0-.08,0,0a.07.07,0,0,0,0,0l0,0s0-.06,0,0v0l-.06.1s-.05.06,0,0a.08.08,0,0,1,0,0l-.15.16-.09.07,0,0c.08-.06,0,0,0,0s-.19.14-.29.22a.29.29,0,0,0,0,.4.29.29,0,0,0,.41,0c.05,0-.06,0,0,0l.05,0,.12-.09.32-.26a1,1,0,0,0,.37-.8.94.94,0,0,0-.3-.58.29.29,0,1,0-.41.41Z"/><path d="M175.24,114.92a.12.12,0,0,1,0,0l0,0s0,0,0,0,0,0,0,.06l0,.06s0-.06,0,0v0a.43.43,0,0,1,0,.05s0-.08,0,0v0s0-.08,0,0a.09.09,0,0,0,0,0,.08.08,0,0,0,0,0v0l-.06.09s-.06.07,0,0l0,0a1.14,1.14,0,0,1-.16.15.27.27,0,0,1-.08.07l0,0c-.06,0,0,0,0,0a3.15,3.15,0,0,0-.29.22.29.29,0,0,0,0,.41.31.31,0,0,0,.41,0v0s-.07.06,0,0l0,0,.12-.09a2.69,2.69,0,0,0,.32-.27,1,1,0,0,0,.37-.8,1,1,0,0,0-.3-.59.29.29,0,1,0-.41.41Z"/><path d="M175.65,116.86a.6.6,0,0,0,.08.08s0,0,0,0,0,0,0,0l0,0v0s0-.07,0,0a.08.08,0,0,1,0,0s0,.07,0,0,0,0,0,0,0-.07,0,0a.08.08,0,0,1,0,0v0s0,0,0,0a.25.25,0,0,0,0,.07l-.05.07s.05-.06,0,0l0,0-.12.12-.06.05,0,0,0,0,0,0-.12.08-.21.14a.34.34,0,0,0-.13.18.29.29,0,0,0,.42.32c.17-.13.36-.24.52-.38a.94.94,0,0,0,.39-.76.88.88,0,0,0-.29-.55.31.31,0,0,0-.41,0,.3.3,0,0,0,0,.41Z"/><path d="M176,118.39l.05.06,0,0s0,0,0,0,0,.05,0,.06l0,0s0,0,0,0v0a.13.13,0,0,1,0,.06c0-.08,0,0,0,0v0s0-.08,0,0a.09.09,0,0,0,0,0,.08.08,0,0,0,0,0s0-.06,0,0l0,0a.47.47,0,0,1-.05.1l0,0c.05-.08,0,0,0,0l-.16.16-.08.06,0,0c-.05.05.05,0,0,0a3.15,3.15,0,0,0-.29.22.28.28,0,0,0,0,.4.29.29,0,0,0,.41,0s0,0,0,0l0,0,.11-.08a3,3,0,0,0,.33-.27,1,1,0,0,0,.36-.81,1,1,0,0,0-.3-.59.31.31,0,0,0-.41,0,.29.29,0,0,0,0,.41Z"/><path d="M176.57,120l.08.08v0s0,0,0,0l0,0a.05.05,0,0,0,0,0s0-.06,0,0,0,0,0,0,0,.07,0,0,0,0,0,0v0s0,.06,0,0,0,0,0,0,0,0,0,0,0,0,0,0,0,0,0,0l0,0,0,.06s0,0,0,0,0,0,0,0l-.13.12-.12.11s.06,0,0,0l0,0-.06,0-.25.18a.29.29,0,0,0,0,.41.29.29,0,0,0,.4,0s-.07,0,0,0l0,0,0,0,.12-.08a2.6,2.6,0,0,0,.32-.26,1,1,0,0,0,.38-.78,1,1,0,0,0-.3-.57.29.29,0,1,0-.41.41Z"/><path d="M177.24,121.44l.06.06,0,0s0,0,0,0l0,.06s0,0,0,.05,0-.06,0,0v0l0,0s0-.08,0,0v0c0,.05,0-.08,0,0a.09.09,0,0,1,0,0,.17.17,0,0,1,0,0l0,0v0l-.06.09h0l0,0a1.14,1.14,0,0,1-.16.15.27.27,0,0,1-.08.07s0,0,0,0h0l-.29.21a.29.29,0,0,0,0,.41.31.31,0,0,0,.41,0s-.07,0,0,0l.05,0,.12-.08a4.15,4.15,0,0,0,.32-.27,1,1,0,0,0,.37-.8,1,1,0,0,0-.31-.58.29.29,0,0,0-.41,0,.29.29,0,0,0,0,.4Z"/><path d="M177.82,122.56l.06.06h0l0,0a.6.6,0,0,0,.06.11v0s0,0,0,.06v0c0,.08,0-.05,0,0a.11.11,0,0,1,0,0,.14.14,0,0,1,0,.06s0-.06,0,0l-.06.11,0,.05s0,0,0,0a2.27,2.27,0,0,1-.31.31l-.07.06c-.06,0,.05,0,0,0l0,0-.15.12a.3.3,0,0,0,0,.41.31.31,0,0,0,.41,0l0,0,0,0,0,0,.16-.13a2.09,2.09,0,0,0,.28-.24,1.11,1.11,0,0,0,.35-.85,1,1,0,0,0-.31-.62.29.29,0,1,0-.41.41Z"/><polygon class="cls-9" points="174.57 144.72 174.57 147.72 175.65 150.31 176.01 150.31 175.07 146.77 174.98 144.53 174.57 144.72"/><path class="cls-21" d="M159.45,104.53l-.32,0,.1-.44h.11a.85.85,0,0,0,.28-.08.36.36,0,0,0,.14-.16.62.62,0,0,0,.05-.25,3.42,3.42,0,0,0,0-.46v0a.34.34,0,0,0-.05-.16.16.16,0,0,0-.1-.08.38.38,0,0,0-.2,0l-.86.09-.12-1.21.54-.06.08.79.39,0a.85.85,0,0,1,.6.1.67.67,0,0,1,.25.49v.56a.93.93,0,0,1-.21.66A1.1,1.1,0,0,1,159.45,104.53Z"/><path class="cls-21" d="M161.24,101.85l-.1.76-.47,0,.24-.78Zm.7-.08-.11.77-.46,0,.24-.78Z"/><path class="cls-21" d="M164.53,104l-.55,0-.12-1.14a.55.55,0,0,0-.15-.36.5.5,0,0,0-.4-.1l-.31,0-.54.15v-.44a3.82,3.82,0,0,1,.92-.21.84.84,0,0,1,1,.83Zm-1.33.14-.55,0-.12-1.18.52-.32Z"/><path class="cls-21" d="M164.9,103.51l1-.11-1.2-1.32.47-.29.77.84a1.59,1.59,0,0,0,.07-.2.92.92,0,0,0,0-.28l0-.4.54,0,0,.43a.81.81,0,0,1,0,.42,1.15,1.15,0,0,1-.28.41l.38.43-.05.39-1.72.18Z"/><polygon class="cls-2" points="52.48 92.52 52.8 96.05 53.51 102.01 33.14 127.01 27.98 128.52 24.55 124.65 36.16 97.69 47.98 91.51 52.48 92.52"/><polygon class="cls-2" points="39.55 149.82 38.46 144.22 39.42 141.62 36.31 125.74 30.48 117.95 23.99 120.43 23.04 122.28 22.68 124.36 28.44 144.81 31.23 146.46 32.17 151.26 37.79 149.19 39.55 149.82"/><path d="M34.81,123.76a13.33,13.33,0,0,0-2.16-2.8c-.18-.18-.45.1-.28.27a12.65,12.65,0,0,1,2.1,2.73.2.2,0,0,0,.34-.2Z"/><path d="M35.58,144.47a10,10,0,0,0,.13,2.26A7.59,7.59,0,0,0,36,148a1.49,1.49,0,0,0,.48.84.33.33,0,1,0,.33-.56c.08.06,0,0,0,0h0l-.09-.17c0,.06,0,0,0,0l0-.13a1.41,1.41,0,0,1-.06-.22,7.65,7.65,0,0,1-.22-1.16,10.13,10.13,0,0,1-.1-2.06c0-.41-.62-.41-.65,0Z"/><path class="cls-8" d="M40.57,107a9.19,9.19,0,0,0-7.4-1.3.28.28,0,0,0,.15.54,8.66,8.66,0,0,1,7,1.25c.3.2.59-.29.28-.49Z"/><path class="cls-8" d="M44.15,108.4c-2.12-1-4.22-1.92-6.33-2.87-.38-.17-.71.38-.33.56L43.82,109c.38.17.71-.39.33-.56Z"/><path class="cls-8" d="M35.33,106.22c1.64.27,3.18.93,4.8,1.27.41.08.58-.54.17-.63-1.62-.33-3.16-1-4.8-1.26-.41-.07-.59.55-.17.62Z"/><polygon class="cls-9" points="33.88 105.92 30.54 105.57 22.38 125.75 26.88 125.57 28.08 125.13 24.03 124.38 33.88 123.01 25.79 121.46 31.57 117.86 27.05 117.11 30.54 109.04 33.88 105.92"/><path class="cls-8" d="M37.77,105.49c-2.07-.11-4.14-.14-6.21-.25a.33.33,0,0,0-.09.64c3.11.75,6.29,1.14,9.4,1.89.4.1.58-.53.17-.63-3.11-.74-6.29-1.14-9.39-1.89l-.09.64c2.07.11,4.14.14,6.21.25.42,0,.42-.63,0-.65Z"/><path d="M34.74,123.69a28.51,28.51,0,0,0-3.6-1.28,9.75,9.75,0,0,0-3.71-.54c-.24,0-.24.41,0,.38a9.65,9.65,0,0,1,3.61.53,27,27,0,0,1,3.5,1.25c.23.09.42-.24.2-.34Z"/><path class="cls-10" d="M33.21,118.06s-5.19-.14-7.71.94"/><path class="cls-10" d="M28.24,125.24A15.22,15.22,0,0,0,23,125"/><path class="cls-8" d="M87.64,101.57a9.19,9.19,0,0,0,2.46,7.1c.25.27.66-.14.4-.4a8.69,8.69,0,0,1-2.3-6.7c0-.36-.54-.36-.56,0Z"/><path class="cls-8" d="M89.54,106.5c-.56-1.57-.73-3.23-1.23-4.82-.12-.39-.75-.22-.62.18.5,1.58.67,3.25,1.23,4.81.14.39.76.22.62-.17Z"/><path class="cls-5" d="M96.28,155.27c1.55-1,.77-3.81.77-3.81l.75-2.85-.39-2.55.28-2.34c-5.34-3.89-5.77-1.38-5.77-1.38l-.07,1.89-.14,1-1.61.43-2.19,1.19s-.77.65-.72,1.14a21.3,21.3,0,0,1-1.27,3.49s-2.16,2.56,0,3.42a8.76,8.76,0,0,1,3.31,2.26s3,1.89,3.46,1.71A37.85,37.85,0,0,0,96.28,155.27Z"/><polygon class="cls-2" points="67.52 94.24 68.26 97.7 69.37 103.61 96.29 121.37 101.66 121.27 103.78 116.55 84.64 94.3 71.51 91.93 67.52 94.24"/><polygon class="cls-2" points="90.07 146.11 90.75 140.45 89.59 137.92 91.53 121.86 96.77 113.65 103.42 115.65 104.51 117.43 105.02 119.47 100.78 140.3 98.13 142.15 97.54 147.01 91.78 145.35 90.07 146.11"/><path d="M90.72,117.46a12.94,12.94,0,0,1,1.19-3.23c.12-.22-.22-.41-.33-.19a13.14,13.14,0,0,0-1.23,3.32c0,.24.32.35.37.1Z"/><polygon class="cls-9" points="85.9 100.06 88.98 98.74 102.8 115.55 98.46 116.72 97.17 116.66 100.81 114.74 91.01 116.37 98.27 112.48 91.68 110.77 95.77 108.7 90.02 102.05 85.9 100.06"/><path d="M90.68,117.55a28,28,0,0,1,3-2.24,9.36,9.36,0,0,1,3.29-1.58c.24,0,.14-.42-.1-.37A9.78,9.78,0,0,0,93.45,115a27.06,27.06,0,0,0-3,2.3c-.18.16.09.43.28.27Z"/><path class="cls-10" d="M90.17,111.45s4.91-1.69,7.64-1.4"/><path class="cls-10" d="M97.05,116.82a15.23,15.23,0,0,1,5-1.8"/><path class="cls-11" d="M84.83,126a25.62,25.62,0,0,0-1.93-16c-.16-.33-.65,0-.5.3a24.83,24.83,0,0,1,1.87,15.56c-.07.36.48.52.56.16Z"/><polygon class="cls-1" points="67.67 89.62 67.46 82.39 68.51 80.8 71.26 79 73.2 74.03 70.71 72.1 69.49 61.6 60.37 58.57 51.38 61.33 49.75 72.09 48.35 73.45 49.43 78.69 50.52 79.39 50.56 82.31 52.77 85.07 52.63 91.2 49.45 95.31 52.77 106.61 59.67 109.64 68.78 99.71 73.2 93.08 67.67 89.62"/><g class="cls-22"><polygon class="cls-13" points="68.78 76.78 73.21 65.17 43.22 32.56 50.43 76.05 51.48 68.2 52.32 66.19 53.21 62.63 59.36 63.85 66.37 62.88 67.2 66.17 68.74 68.5 68.51 74.99 68.78 76.78"/></g><polygon points="65.65 69.72 65.72 68.31 62.03 67.55 61.21 68.5 65.65 69.72"/><polygon points="57.1 68.83 56.95 67.39 53.68 68.19 53.14 69.24 57.1 68.83"/><path d="M62,78a8.41,8.41,0,0,1-5.12.84c-.42-.07-.6.57-.18.64a9.26,9.26,0,0,0,5.64-.9c.38-.2,0-.77-.34-.58Z"/><path d="M65.85,84.11l-5.16,3.24h-4.2l-3-1.87,2.39,5.08A2.85,2.85,0,0,0,57.17,92h0a2.84,2.84,0,0,0,1.36.35h.15a2.87,2.87,0,0,0,1.85-.68l1.07-.9a2.87,2.87,0,0,0,.66-.81l2.39-4.33Z"/><path d="M66.84,82.74c-1.41,1.16-2.81,2.35-4.21,3.52l-.85.72c-.33.27.14.74.47.47,1.41-1.17,2.8-2.35,4.2-3.53l.86-.71c.33-.28-.15-.75-.47-.47Z"/><path d="M55,69.16a2.9,2.9,0,0,1,0,2.09l.56-.15a1.2,1.2,0,0,1-.24-.41c0-.1-.05-.19-.07-.29a1.72,1.72,0,0,1,0-.26,4.16,4.16,0,0,1,0-.61l0-.29s0-.11,0-.06,0,0,0,0h0q0,.12-.21,0c-.12.06-.2,0-.22,0a.23.23,0,0,1,.06-.28l.14-.08h.06a.33.33,0,0,0,0,.66.38.38,0,0,0,.37-.49.42.42,0,0,0-.5-.31c-.41.11-.39.66-.41,1a2.55,2.55,0,0,0,.52,2,.33.33,0,0,0,.55-.14,3.53,3.53,0,0,0,0-2.44.33.33,0,0,0-.64.17Z"/><path d="M63.25,68.93a3,3,0,0,1,0,2.09l.55-.15a1.27,1.27,0,0,1-.23-.41,1.53,1.53,0,0,1-.07-.29,1.56,1.56,0,0,1,0-.26,4.15,4.15,0,0,1,0-.61,2.83,2.83,0,0,1,0-.29s0-.11,0-.06,0,0,0,0h0c0,.08-.09.08-.22,0s-.19,0-.21,0a.24.24,0,0,1,0-.28l.15-.08h.06a.33.33,0,0,0,0,.66.38.38,0,0,0,.37-.49.43.43,0,0,0-.5-.31c-.41.11-.39.66-.41,1a2.59,2.59,0,0,0,.51,2,.34.34,0,0,0,.56-.14,3.53,3.53,0,0,0,0-2.44.35.35,0,0,0-.41-.24.34.34,0,0,0-.23.41Z"/><path d="M70.82,75.62l-1.44.74a.32.32,0,0,0-.12.45.34.34,0,0,0,.45.12l1.45-.73a.34.34,0,0,0-.34-.58Z"/><path d="M70.09,75l-.89,1.64a.33.33,0,1,0,.57.33l.89-1.64a.32.32,0,0,0-.12-.45.34.34,0,0,0-.45.12Z"/><path d="M72.45,74.14a4.08,4.08,0,0,0-2.33.79.34.34,0,0,0-.12.46.33.33,0,0,0,.45.12,3.4,3.4,0,0,1,2-.7.35.35,0,0,0,.34-.34.34.34,0,0,0-.34-.33Z"/><polygon points="48.28 152.57 81.4 148.69 81.55 140.85 48.76 140.82 48.28 152.57"/><polygon class="cls-2" points="81.17 117.9 80.82 143.16 76.05 145.08 63.79 144.15 48.72 142.98 47.99 141.84 48.72 139.34 41.43 113.74 36.16 105.32 38.52 97.36 49.4 92.07 52.7 88.51 52.91 90.63 52.67 94.31 58.51 104.23 67.69 91.73 67.82 88.99 67.77 88.01 67.39 85.19 70.81 88.55 86.28 94.48 87.66 110.12 81.17 117.9"/><g class="cls-23"><polyline class="cls-9" points="48.25 144.55 50.94 139.69 42.28 115.43"/></g><polygon class="cls-9" points="80.65 143.3 80.32 129.26 80.33 119.51 80.95 119.69 81.12 143.16 80.65 143.3"/><path d="M44,114.3a23.94,23.94,0,0,1,.5,3.68c0,.59,0,1.18.07,1.77a5.33,5.33,0,0,0,.09,1.6c.29.81,1,.87,1.7,1,1.11.15,2.21.31,3.33.42a23.33,23.33,0,0,0,3.92.13,1.43,1.43,0,0,0,1.42-.95,25.38,25.38,0,0,0,.55-4.52,39.28,39.28,0,0,1,.63-5.42c.09-.37-.47-.52-.55-.16-.65,2.79-.6,5.73-.95,8.55-.07.49-.05,1.32-.42,1.68s-.92.26-1.37.27c-.62,0-1.23,0-1.85,0-1.18-.07-2.37-.2-3.55-.37l-1.19-.18c-.43,0-.87-.06-1.09-.51a2.72,2.72,0,0,1-.08-1c0-.28,0-.57,0-.85,0-.59-.05-1.18-.09-1.76a20.87,20.87,0,0,0-.5-3.52c-.08-.36-.64-.21-.55.15Z"/><path d="M64.72,113.55c.17,1.29.32,2.58.48,3.87.11,1,.22,1.91.31,2.86a1.42,1.42,0,0,0,1.06,1.35,12.49,12.49,0,0,0,1.62.13q.93.08,1.86.12c1.3.07,2.6.11,3.9.05.91,0,2.09.07,2.7-.74A4.45,4.45,0,0,0,77,119a57.12,57.12,0,0,1,.41-6.92c.06-.36-.49-.52-.56-.15a33.66,33.66,0,0,0-.34,5.11c0,.92-.06,1.83-.15,2.74a2.28,2.28,0,0,1-.24,1.13c-.32.43-1,.38-1.48.42a41.29,41.29,0,0,1-6.67-.14,4.39,4.39,0,0,1-1.5-.18c-.41-.23-.41-.64-.46-1.06-.08-.83-.18-1.67-.28-2.51-.15-1.29-.31-2.58-.47-3.87,0-.36-.62-.36-.58,0Z"/><polygon class="cls-2" points="59.04 143.79 59.04 152.37 57 152.37 57 142.48 59.04 142.48 59.04 143.79"/><polygon class="cls-2" points="52.8 143.79 52.8 152.37 50.77 152.37 50.77 142.48 52.8 142.48 52.8 143.79"/><polygon class="cls-2" points="68.19 142.58 68.19 152.32 70.44 152.32 70.44 141.27 68.19 141.27 68.19 142.58"/><rect class="cls-2" x="77.89" y="140.82" width="2.04" height="9.74"/><path d="M47.7,101.08a4.63,4.63,0,0,1,2-2.57,9.46,9.46,0,0,1,2.53-.86l-.39-.16a10.8,10.8,0,0,1,.88,2.7c.08.49.75.89,1.1,1.19.76.64,1.52,1.27,2.26,1.92.33.29.66.58,1,.89.1.1.21.2.3.31a.52.52,0,0,0,.08.11l0,0c0-.11,0-.23.12-.35-.37.26,0,.87.35.61s0-.83-.26-1.11c-.52-.53-1.1-1-1.67-1.5s-1.27-1.07-1.9-1.62c-.21-.17-.41-.35-.61-.53l-.12-.13s0,.12,0,0a1.75,1.75,0,0,0,0-.32,10.19,10.19,0,0,0-.94-2.61A.34.34,0,0,0,52,97a8.81,8.81,0,0,0-2.92,1A5.55,5.55,0,0,0,47,100.9c-.15.42.52.6.68.18Z"/><path d="M52.67,99.16a13.44,13.44,0,0,0-2.69.31,17.78,17.78,0,0,0-2.56.83c-.42.17-.23.85.19.68a16.71,16.71,0,0,1,2.48-.81,12.46,12.46,0,0,1,2.58-.31c.45,0,.45-.72,0-.7Z"/><path d="M50.84,90.73a11.64,11.64,0,0,0-3.11,5.94,22.61,22.61,0,0,0-.66,3.92c0,.45.67.45.7,0A22.07,22.07,0,0,1,48.38,97a11.09,11.09,0,0,1,2.95-5.74c.34-.3-.16-.8-.49-.5Z"/><path d="M82.25,120.18a9.72,9.72,0,0,0-1.93-3.07,4.8,4.8,0,0,0-2.8-1.41.31.31,0,0,0-.38.21.3.3,0,0,0,.21.38,4.36,4.36,0,0,1,2.57,1.3,9.37,9.37,0,0,1,1.79,2.91.31.31,0,0,0,.54-.32Z"/><path class="cls-8" d="M38.52,109.53a9.33,9.33,0,0,1,3.41,6.85.31.31,0,0,0,.61,0A9.93,9.93,0,0,0,39,109.09c-.31-.25-.74.18-.44.44Z"/><path class="cls-8" d="M80.06,117.41c-.65,1.08-1,2.3-1.65,3.38a.31.31,0,0,0,.53.32c.64-1.09,1-2.31,1.65-3.39a.31.31,0,0,0-.53-.31Z"/><path class="cls-8" d="M82.25,120.18a3.06,3.06,0,0,0-1.92-1.29.85.85,0,0,0-.79.26,4.86,4.86,0,0,0-.63.79,9,9,0,0,0-.5.85c-.19.36.35.67.53.32a8.85,8.85,0,0,1,.5-.84,3.72,3.72,0,0,1,.33-.45c0-.07.11-.13.16-.19l.07-.06,0,0s0,0,0,0l.08,0h0l0,0c-.05,0-.06,0,0,0h.1a2.14,2.14,0,0,1,.53.2,2.36,2.36,0,0,1,1,.81c.22.33.75,0,.54-.32Z"/><path class="cls-8" d="M81.26,118.81a1.13,1.13,0,0,0-.74-.21c-.11,0-.22,0-.32,0s-.07,0,0,0h-.1l0,0c.09,0,.06,0,0,0l0,0,0,0-.44.44c.19.15.43.36.7.26a.33.33,0,0,0,.18-.15.27.27,0,0,0,0-.23l-.27-.78-.52.3.64.76a.3.3,0,0,0,.44,0,.31.31,0,0,0,0-.43l-.64-.77a.3.3,0,0,0-.37,0,.32.32,0,0,0-.15.34l.28.78.21-.38h0s.07,0,0,0,.07,0,0,0l0,0s0,0,0,0l0,0,0,0-.08-.06a.31.31,0,0,0-.44,0,.31.31,0,0,0,0,.44,1.1,1.1,0,0,0,.75.2h.32s.07,0,0,0h.1l0,0s-.06,0,0,0a.3.3,0,0,0,.43,0,.31.31,0,0,0,0-.44Z"/><path class="cls-8" d="M77.59,140.59c-.79.44-1.53.95-2.32,1.39A27.75,27.75,0,0,1,71,143.73c-.43.15-.25.83.18.68a28.91,28.91,0,0,0,4.39-1.8c.81-.44,1.57-1,2.38-1.41.39-.22,0-.83-.36-.61Z"/><path d="M76.78,106.55q-7,1-14,1.52c-.45,0-.45.74,0,.7q7.11-.55,14.18-1.54c.44-.07.25-.74-.19-.68Z"/><path d="M62.49,108.45c-.7,1.43-.57,3-.92,4.53-.1.44.58.63.68.19.33-1.44.18-3,.84-4.37.2-.4-.4-.76-.6-.35Z"/><path d="M76.66,107.06a15,15,0,0,1-.08,5.62c-.09.44.58.63.67.18a15.48,15.48,0,0,0,.08-6c-.08-.44-.75-.25-.67.19Z"/><path d="M76.88,112.51l-1.38.3a.34.34,0,0,0-.24.43.36.36,0,0,0,.43.24l1.38-.29a.35.35,0,0,0,.24-.43.36.36,0,0,0-.43-.25Z"/><path class="cls-8" d="M57.9,143.18a14.91,14.91,0,0,1,.94-4.05,18.9,18.9,0,0,0,.58-4.36c.12-3,.12-6,.1-9,0-6.15-.2-12.31-.29-18.46a.35.35,0,0,0-.7,0c.08,6.15.26,12.31.29,18.46,0,3,0,6-.1,9a18.46,18.46,0,0,1-.74,4.78,12.21,12.21,0,0,0-.78,3.63.35.35,0,0,0,.7,0Z"/><path d="M55.7,109.18a7.73,7.73,0,0,1-1.09,5c-.21.4.39.75.61.36A8.61,8.61,0,0,0,56.38,109a.34.34,0,0,0-.43-.24.36.36,0,0,0-.25.43Z"/><path d="M55.61,108.86a43,43,0,0,0-11.8,1.19c-.44.1-.25.78.19.67a42.39,42.39,0,0,1,11.61-1.16.35.35,0,0,0,0-.7Z"/><path d="M43.78,110.35a9.73,9.73,0,0,1-.53,3.82c-.16.42.52.61.67.18a9.91,9.91,0,0,0,.56-4c0-.45-.74-.45-.7,0Z"/><path d="M55.05,113.85a30.84,30.84,0,0,1-4.33.35c-2.09.13-4.18.26-6.26.41a13.54,13.54,0,0,0-1.81.19c-.45.09-.26.77.18.67a30.85,30.85,0,0,1,4.33-.34c2.09-.14,4.17-.26,6.26-.42a12.06,12.06,0,0,0,1.81-.18c.44-.1.26-.77-.18-.68Z"/><line class="cls-15" x1="53" y1="99.53" x2="50.09" y2="100.06"/><path d="M52.3,97.37a5.28,5.28,0,0,0-2.9.81A5.39,5.39,0,0,0,47.65,100l.05.55,4.58-1.18.61.16Z"/><path d="M71.67,96.86c-1,0-2,.16-3,.26l-1.46.14-.69,0a.75.75,0,0,0-.15,0l.06.06a.56.56,0,0,1,0-.12l.15-.45L66,96.71a1.07,1.07,0,0,0,.35,1,.71.71,0,0,0,1-.17.69.69,0,0,0-.21-1,.49.49,0,0,0-.72.5c0,.81,1.11.68,1.62.56l1-.26a1.65,1.65,0,0,1,.76-.08.35.35,0,0,0,.19-.67,9.46,9.46,0,0,0-2.55-.08c-.45,0-.45.69,0,.7a9.31,9.31,0,0,1,2.36.05l.19-.67a2.88,2.88,0,0,0-1.48.16c-.25.07-.51.15-.76.2a1.27,1.27,0,0,1-.34,0,.86.86,0,0,0-.16,0h0c-.09,0-.14,0-.14.12h-.36c.1,0,0,0,0-.05s0-.24,0-.36a.35.35,0,0,0-.69-.09,2,2,0,0,0-.21.9.6.6,0,0,0,.61.49,12,12,0,0,0,1.69-.12c1.2-.12,2.39-.28,3.59-.33.45,0,.46-.72,0-.7Z"/><path class="cls-2" d="M81.56,150.36c0-.05-.07-3-.12-3l-1.51.69L79,148l-31.57-3.45s-.08,2.93-.1,3l-.93,2v0l-1.11,3.55H82.47Z"/><g class="cls-24"><rect class="cls-9" x="31.52" y="138.3" width="17.21" height="16.16"/></g><path class="cls-2" d="M82.4,175.51h0a.1.1,0,0,0,.17.09l0,0v0A.1.1,0,0,0,82.4,175.51Z"/><path d="M58.23,152.77c.51-2,1.11-3.93,1.73-5.88.14-.43-.54-.61-.67-.18-.62,1.94-1.22,3.89-1.74,5.87a.35.35,0,0,0,.68.19Z"/><path d="M56.15,152.85c.27-1.12.47-2.24.81-3.35a12.13,12.13,0,0,1,.61-1.69,4,4,0,0,1,.35-.64.71.71,0,0,1,.28-.27c.4-.2,0-.81-.36-.61a2.19,2.19,0,0,0-.82,1.05,13.91,13.91,0,0,0-.68,1.76c-.37,1.18-.58,2.37-.86,3.57-.11.44.57.62.67.18Z"/><path class="cls-8" d="M38.13,109.19a8.47,8.47,0,0,1,2.17,3.21.33.33,0,0,0,.4.23.33.33,0,0,0,.23-.4,9.5,9.5,0,0,0-2.34-3.5c-.3-.28-.76.17-.46.46Z"/><path d="M39,99.19c2.92,0,5.81-.68,8.73-.69a.29.29,0,0,0,0-.58c-2.92,0-5.81.68-8.73.69a.29.29,0,0,0,0,.58Z"/><path d="M39.31,99s0,0,0,0,0,0,0,0,0-.07,0-.1.08-.16.13-.24a6.32,6.32,0,0,1,.33-.56c.21-.34.43-.68.65-1l.14-.21a.29.29,0,0,0-.1-.4.3.3,0,0,0-.4.1c-.38.58-.76,1.16-1.1,1.76a3.4,3.4,0,0,0-.27.54.3.3,0,0,0,.2.36.31.31,0,0,0,.36-.2Z"/><path d="M73.69,93.87,78.6,95c.33.08.48-.43.14-.51l-4.91-1.17c-.33-.08-.47.43-.14.51Z"/><polygon class="cls-17" points="70.9 97.33 74.21 98.59 73.73 96.1 78.51 96.71 77.13 100.15 76.87 105.54 74.48 105.22 72.95 104.44 71.44 103.07 70.78 100.96 70.9 97.33"/><path d="M79.61,96.65c-.93,2.47-2,3.88-1.36,6.46a10.56,10.56,0,0,1,.42,2.07c0,.47-1.63,1-1.8.36-.7-2.71-.49-6.52.95-8.92"/><path d="M74,101.85a13.46,13.46,0,0,0,1.84-1.53c.58-.54,1.14-1.1,1.73-1.64.27-.25-.14-.66-.41-.41-.57.53-1.12,1.08-1.69,1.61a12.94,12.94,0,0,1-1.76,1.47c-.31.2,0,.7.29.5Z"/><polygon class="cls-17" points="74.64 91.39 78.05 92.39 81.05 93.44 79.88 91.56 75.42 90.95 73.55 90.94 74.64 91.39"/><path d="M70.67,88.83c2.12,2.63,2.71,6.48,3,9.75l.59-.25c-2.12-2.06-5.25-1.81-7.93-2.48A.36.36,0,0,0,66,96a12.35,12.35,0,0,0-1,4.65l.45-.33a4.37,4.37,0,0,0-3.27,1c-1.12.79-2.09,1.74-3.16,2.58-.35.28.15.77.5.5.91-.72,1.74-1.52,2.67-2.22s2-1.46,3.07-1.24a.35.35,0,0,0,.44-.34,11.49,11.49,0,0,1,.86-4.3l-.4.17c2.53.63,5.63.36,7.63,2.3.2.19.63.07.6-.25-.33-3.48-1-7.45-3.23-10.25-.28-.35-.78.15-.49.5Z"/><path d="M73.67,96.05a37.55,37.55,0,0,0,4,.71c.95.14,1.95.21,2.88.44.36.09.52-.46.16-.55-.94-.23-1.93-.3-2.88-.44-1.33-.2-2.66-.39-4-.72a.29.29,0,0,0-.15.56Z"/><path d="M72.62,91.22c1.4.38,2.79.85,4.17,1.32a35.81,35.81,0,0,1,4.12,1.54c.33.16.62-.34.29-.5A36.54,36.54,0,0,0,77,92c-1.41-.48-2.83-1-4.27-1.35a.29.29,0,0,0-.15.55Z"/><path d="M62.09,113.79a90.29,90.29,0,0,0,13.36-.36c.44-.05.45-.75,0-.7a91.68,91.68,0,0,1-13.36.36c-.45,0-.45.68,0,.7Z"/><path d="M58.57,69.22A3,3,0,0,1,58,71.51a22,22,0,0,1-1.29,2c-.19.26.25.51.43.25a19.47,19.47,0,0,0,1.4-2.2,3.17,3.17,0,0,0,.5-2.47c-.12-.3-.6-.17-.48.13Z"/><path d="M57.16,72.89a1.35,1.35,0,0,0-.6,1.16,1.46,1.46,0,0,0,.7,1.29,3,3,0,0,0,1.81.61,3.75,3.75,0,0,0,1-.22,2,2,0,0,0,.79-.46,1,1,0,0,0,.26-.87c0-.29-.19-.51-.5-.49s-.33.51,0,.5c.07,0,.06,0,0,0a0,0,0,0,0,0,0s0,.11,0,.14a.46.46,0,0,1-.08.32,1.3,1.3,0,0,1-.69.42,2.48,2.48,0,0,1-.93.18,2.43,2.43,0,0,1-.84-.22c-.4-.18-.94-.46-1-.94,0-.31,0-.82.34-1s0-.57-.25-.43Z"/><path class="cls-18" d="M67.19,113.55s4.54,17.34,10.58,16.22S83,122.7,83,122.7"/><path class="cls-18" d="M80.47,96.71s2.34-3.55,2.46-3.56"/><path class="cls-18" d="M80.12,96.84s.69-3.76,1.87-4"/><ellipse class="cls-19" cx="80.62" cy="102.29" rx="1.1" ry="0.59" transform="translate(-49.59 99.09) rotate(-50.35)"/><ellipse class="cls-19" cx="80.72" cy="103.83" rx="1.1" ry="0.59" transform="translate(-50.73 99.72) rotate(-50.35)"/><ellipse class="cls-19" cx="80.78" cy="105.46" rx="1.1" ry="0.59" transform="translate(-51.97 100.36) rotate(-50.35)"/><ellipse class="cls-19" cx="80.83" cy="107.26" rx="1.1" ry="0.59" transform="translate(-53.33 101.05) rotate(-50.35)"/><ellipse class="cls-19" cx="80.74" cy="109.02" rx="1.1" ry="0.59" transform="translate(-54.72 101.62) rotate(-50.35)"/><ellipse class="cls-19" cx="80.74" cy="110.7" rx="1.1" ry="0.59" transform="translate(-56.01 102.23) rotate(-50.35)"/><ellipse class="cls-19" cx="80.92" cy="112.47" rx="1.1" ry="0.59" transform="matrix(0.64, -0.77, 0.77, 0.64, -57.31, 103)"/><ellipse class="cls-19" cx="80.98" cy="114.27" rx="1.1" ry="0.59" transform="translate(-58.68 103.7) rotate(-50.35)"/><ellipse class="cls-19" cx="81.33" cy="116.16" rx="1.1" ry="0.59" transform="translate(-60 104.65) rotate(-50.35)"/><ellipse class="cls-19" cx="81.57" cy="117.87" rx="1.1" ry="0.59" transform="translate(-61.23 105.47) rotate(-50.35)"/><ellipse class="cls-19" cx="81.96" cy="119.69" rx="1.1" ry="0.59" transform="translate(-62.5 106.42) rotate(-50.35)"/><path class="cls-19" d="M83.15,120.66c.15.31-.09.9-.53,1.3s-.91.48-1.06.16.36-1.11.8-1.51S83,120.34,83.15,120.66Z"/><ellipse class="cls-19" cx="83.07" cy="122.87" rx="1.1" ry="0.59" transform="translate(-64.54 108.42) rotate(-50.35)"/><ellipse class="cls-19" cx="83.79" cy="124.34" rx="1.1" ry="0.59" transform="translate(-65.42 109.51) rotate(-50.35)"/><ellipse class="cls-19" cx="84.45" cy="125.55" rx="1.1" ry="0.59" transform="translate(-66.11 110.46) rotate(-50.35)"/><path class="cls-20" d="M80.12,101.55l.33-5.9.65.07a.56.56,0,0,1,.33.57l-.6,4.73Z"/><path d="M80.11,102l0,0s0,0,0,0a.21.21,0,0,0,0,.06l0,.07,0,0s0,0,0,0a.32.32,0,0,1,0,.14s0-.07,0,0a.11.11,0,0,1,0,0s0,.09,0,0a.07.07,0,0,0,0,0,.49.49,0,0,1,0,.11c0,.06,0-.06,0,0s0,0,0,0a.86.86,0,0,1-.07.1l0,0s0-.06,0,0l-.07.09c0,.06-.11.11-.16.16l-.23.2a.29.29,0,0,0,0,.41.31.31,0,0,0,.41,0l.26-.24a2.16,2.16,0,0,0,.37-.43,1.17,1.17,0,0,0,.17-.63,1.25,1.25,0,0,0-.33-.75.29.29,0,0,0-.41.41Z"/><path d="M80.39,103.6l0,0h0l0,.06,0,.08,0,0s0,0,0,0a.65.65,0,0,1,0,.13c0,.06,0-.06,0,0v0s0,.09,0,0a.13.13,0,0,0,0,.06l0,.11c0,.06,0-.06,0,0a.14.14,0,0,1,0,.06.61.61,0,0,1-.07.1l0,0s0-.05,0,0l-.08.09a1.21,1.21,0,0,1-.16.16l-.23.2a.29.29,0,0,0,.41.41c.08-.09.18-.16.26-.24a2,2,0,0,0,.37-.44,1,1,0,0,0,.17-.62,1.2,1.2,0,0,0-.33-.75.3.3,0,0,0-.41,0,.31.31,0,0,0,0,.41Z"/><path d="M80.55,105.56l.06.08,0,0,0,0,0,0s0,0,0,0a.76.76,0,0,0,0,.11c0,.06,0-.07,0,0a.09.09,0,0,1,0,0h0a.13.13,0,0,0,0,.06l0,0h0c0,.07-.07.14-.11.2h0l0,0-.08.08a1.07,1.07,0,0,1-.16.14l-.23.2a.29.29,0,0,0,0,.41.28.28,0,0,0,.4,0c.15-.14.32-.26.46-.41a1.14,1.14,0,0,0,.35-.92,1.08,1.08,0,0,0-.31-.61.28.28,0,0,0-.41,0,.28.28,0,0,0,0,.4Z"/><path d="M80.66,107.63l.07.08,0,0s0,0,0,0,0,0,0,0l0,0v0s0,0,0,0,0,.07,0,0h0v0h0c0-.06,0,0,0,0s0,0,0,0,0,0,0,0,0,0,0,0l0,0,0,.06s0,0,0,0l0,0a1.36,1.36,0,0,1-.12.12l-.12.11s.06,0,0,0l0,0-.06,0-.26.18a.29.29,0,0,0,.41.41l0,0,0,0,0,0,.12-.08a2.6,2.6,0,0,0,.32-.26,1,1,0,0,0,.38-.78.93.93,0,0,0-.31-.57.29.29,0,0,0-.4,0,.29.29,0,0,0,0,.41Z"/><path d="M80.64,109.23l.08.07h0s0,0,0,0l0,0v0s0-.07,0,0,0,0,0,0,0,.07,0,0h0v0s0,0,0,0v0s0,0,0,0,0,0,0,0,0,.06,0,.07l0,0s0,.06,0,0h0l0,0-.12.12-.06.05,0,0,0,0h0l-.12.09-.21.14a.31.31,0,0,0-.13.17.28.28,0,0,0,0,.22.3.3,0,0,0,.39.11c.18-.14.37-.24.53-.39a.94.94,0,0,0,.39-.75.8.8,0,0,0-.3-.54.29.29,0,0,0-.41.41Z"/><path d="M80.76,110.71l.07.07s0,0,0,0l0,0,0,0,0,0s0-.06,0,0a.41.41,0,0,1,0,.08s0-.07,0,0h0v0s0,0,0,0,0,0,0,0v0h0s0,0,0,0,0,.06,0,.08l0,.06s0,0,0,0l0,0-.12.12-.07,0,0,0h0l0,0-.13.09c-.08.06-.17.11-.25.18a.27.27,0,0,0-.09.2.29.29,0,0,0,.09.21.31.31,0,0,0,.41,0l0,0,0,0,0,0,.12-.08.33-.25a1,1,0,0,0,.37-.77.84.84,0,0,0-.3-.56.28.28,0,0,0-.4,0,.3.3,0,0,0,0,.41Z"/><path d="M80.93,112.59l.07.06,0,0s-.05-.06,0,0l0,0v0s0-.07,0,0v0s0,.07,0,0,0,0,0,0,0-.08,0,0v0s0,0,0,0l0,0v0a.43.43,0,0,1,0,.07l0,0s.05-.06,0,0l-.06.06-.12.11,0,0h0l0,0s0,0-.07,0l-.13.09-.2.13a.34.34,0,0,0-.13.18.28.28,0,0,0,0,.22.29.29,0,0,0,.4.1l.2-.13.33-.24a.9.9,0,0,0,.39-.73.76.76,0,0,0-.29-.52.33.33,0,0,0-.21-.09.27.27,0,0,0-.2.09.29.29,0,0,0,0,.41Z"/><path d="M81.07,114l.06.07s0,0,0,0l0,0,0,0,0,0s0,0,0,0,0,0,0,.06a.17.17,0,0,1,0,.07s0-.07,0,0v.06c0,.08,0-.05,0,0a.06.06,0,0,1,0,0s0,0,0,.06,0,0,0,0a.47.47,0,0,0,0,.1.1.1,0,0,0,0,.05s0,.06,0,0,0,0,0,0l0,0-.07.08-.17.15c-.07.06-.16.12-.23.19a.28.28,0,0,0,.4.4,4.51,4.51,0,0,0,.47-.4,1,1,0,0,0,0-1.49.29.29,0,0,0-.41.41Z"/><path d="M81.53,116.22l0,0,0,0,0,0,0,.06,0,0s0-.06,0,0v0a.43.43,0,0,1,0,0s0-.08,0,0,0,0,0,0,0-.08,0,0,0,0,0,0,0,0,0,0v0a.35.35,0,0,1-.06.09s-.06.07,0,0l0,0-.15.16-.09.07,0,0c.08-.06,0,0,0,0l-.29.22a.29.29,0,0,0,0,.4.29.29,0,0,0,.41,0s-.07,0,0,0l.05,0,.12-.09.32-.26a1,1,0,0,0,.37-.8.9.9,0,0,0-.31-.58.28.28,0,0,0-.4,0,.29.29,0,0,0,0,.41Z"/><path d="M81.7,117.77l0,0,0,0s0,0,0,0a.11.11,0,0,0,0,.06l0,.06v0a.43.43,0,0,1,0,0s0-.08,0,0V118s0-.08,0,0a.09.09,0,0,0,0,0,.08.08,0,0,0,0,0s0-.06,0,0v0l-.06.09s-.06.07,0,0l0,0-.16.15a.27.27,0,0,1-.08.07l0,0c-.06,0,0,0,0,0a3.15,3.15,0,0,0-.29.22.29.29,0,0,0,0,.41.31.31,0,0,0,.41,0v0s-.07.06,0,0l0,0,.12-.09a2.69,2.69,0,0,0,.32-.27,1,1,0,0,0,.37-.8.93.93,0,0,0-.31-.59.28.28,0,0,0-.4,0,.29.29,0,0,0,0,.41Z"/><path d="M82.11,119.71a.6.6,0,0,0,.08.08s0,0,0,0,0,0,0,0,0,0,0,0h0s0-.06,0,0,0,0,0,0,0,.07,0,0,0,0,0,0,0-.07,0,0a.08.08,0,0,1,0,0v0s0,0,0,0l0,.07a.18.18,0,0,0,0,.07s0-.06,0,0l0,0-.12.12-.06,0,0,0,0,0,0,0a.57.57,0,0,1-.13.08l-.2.14a.34.34,0,0,0-.13.18.33.33,0,0,0,0,.22.29.29,0,0,0,.4.1c.17-.13.36-.24.52-.38a.94.94,0,0,0,.39-.76.82.82,0,0,0-.3-.55.29.29,0,0,0-.4,0,.29.29,0,0,0,0,.41Z"/><path d="M82.43,121.24l0,.06,0,0s0,0,0,0,0,0,0,.06l0,0s0,0,0,0v0s0,0,0,.06,0,0,0,0v0s0-.08,0,0l0,0v0s0-.06,0,0v0l-.05.1,0,0c.06-.08,0,0,0,0l-.16.16-.08.06,0,0c-.05,0,0,0,0,0a3.15,3.15,0,0,0-.29.22.27.27,0,0,0,0,.4.29.29,0,0,0,.41,0s0,0,0,0l0,0,.12-.08c.11-.09.23-.17.33-.27a1,1,0,0,0,.36-.81.93.93,0,0,0-.31-.59.29.29,0,0,0-.4,0,.29.29,0,0,0,0,.41Z"/><path d="M83,122.86l.07.08,0,0,0,0,0,0a.05.05,0,0,0,0,0s0-.06,0,0,0,0,0,0,0,.07,0,0h0v0h0c0-.06,0,0,0,0s0,0,0,0,0,0,0,0,0,0,0,0,0,0,0,0l0,.06s0,0,0,0l0,0-.12.12-.12.11h0l0,0-.06,0-.26.18a.29.29,0,0,0,.41.41s-.07,0,0,0v0l0,0,.12-.08a2.6,2.6,0,0,0,.32-.26,1,1,0,0,0,.38-.78.94.94,0,0,0-.3-.57.29.29,0,0,0-.41.41Z"/><path d="M83.7,124.29l.06.06,0,0s0,0,0,0,0,0,0,.06,0,0,0,0,0-.06,0,0v0l0,0s0-.08,0,0v0s0-.08,0,0a.11.11,0,0,1,0,0s0,0,0,.05,0-.06,0,0l0,0a.41.41,0,0,1,0,.09h0l0,0a1.14,1.14,0,0,1-.16.15l-.08.07s0,0,0,0h0l-.29.21a.29.29,0,0,0,0,.41.31.31,0,0,0,.41,0s-.07,0,0,0l0,0,.13-.08a4.15,4.15,0,0,0,.32-.27,1,1,0,0,0,.37-.8,1,1,0,0,0-.31-.58.29.29,0,0,0-.41,0,.29.29,0,0,0,0,.4Z"/><path d="M84.28,125.41l.06.06s0,0,0,0l0,0a.6.6,0,0,0,.06.11v0a.17.17,0,0,0,0,.07c0-.06,0-.07,0,0v.08c0,.08,0,0,0,0s0,0,0,.06,0,0,0,.06,0-.06,0,0l-.06.11,0,0s0,0,0,0a3,3,0,0,1-.31.31l-.07.06c-.06,0,0,0,0,0l0,0a1.58,1.58,0,0,0-.15.12.28.28,0,0,0,0,.4.29.29,0,0,0,.41,0l0,0,0,0s0,0,0,0l.16-.13a2.09,2.09,0,0,0,.28-.24,1.11,1.11,0,0,0,.35-.85,1.08,1.08,0,0,0-.31-.62.29.29,0,0,0-.41.41Z"/><polygon class="cls-9" points="81.03 147.57 81.03 150.56 82.11 153.16 82.47 153.16 81.53 149.62 81.44 147.38 81.03 147.57"/><path class="cls-21" d="M65.91,107.38l-.32,0,.09-.44.12,0a.67.67,0,0,0,.28-.07.36.36,0,0,0,.14-.16.62.62,0,0,0,0-.25V106a.5.5,0,0,0,0-.16.19.19,0,0,0-.1-.08.44.44,0,0,0-.21,0l-.85.08-.12-1.21.54-.06.08.79.38,0a.87.87,0,0,1,.61.1.67.67,0,0,1,.25.49v.56a.89.89,0,0,1-.22.66A1,1,0,0,1,65.91,107.38Z"/><path class="cls-21" d="M67.7,104.7l-.11.76-.46.05.24-.78Zm.7-.08-.11.77-.46,0,.24-.78Z"/><path class="cls-21" d="M71,106.85l-.54.05-.12-1.14a.51.51,0,0,0-.16-.36.45.45,0,0,0-.4-.1l-.3,0-.54.15v-.44a3.82,3.82,0,0,1,.92-.21.92.92,0,0,1,.71.17.9.9,0,0,1,.31.66Zm-1.32.13-.55.06L69,105.86l.52-.32Z"/><path class="cls-21" d="M71.36,106.36l1-.11-1.2-1.32.47-.29.77.84a.76.76,0,0,0,.06-.2.86.86,0,0,0,0-.28l0-.4.53,0,0,.43a.81.81,0,0,1,0,.42,1.15,1.15,0,0,1-.28.41l.38.43,0,.39-1.73.18Z"/><path class="cls-6" d="M85,153.05s-.85,2,1.32,2l1.09-.82"/><path class="cls-6" d="M87.19,154.35s-.85,2,1.32,2l1.08-.83"/><path class="cls-6" d="M81.54,156.85s-.85,2,1.32,2L84,158"/><path class="cls-6" d="M79.4,155.86s-.85,2,1.31,2L81.8,157"/><path class="cls-6" d="M86.65,149.68s-.16-2.68,1.26-2.88,1.68-.78,1.68-.78"/><line class="cls-25" x1="190.15" y1="143.88" x2="199.26" y2="121.93"/><polyline class="cls-26" points="197.09 140.92 190.03 144.2 186.55 136.7"/><line class="cls-25" x1="125.69" y1="144.88" x2="116.58" y2="122.93"/><polyline class="cls-26" points="118.75 141.92 125.81 145.2 129.3 137.7"/><text class="cls-27" transform="translate(74.06 263.42)"></text></svg>