<svg xmlns="http://www.w3.org/2000/svg" xmlns:xlink="http://www.w3.org/1999/xlink" viewBox="0 0 222.66748 270.1"><defs><style>.a{fill:#cab192;}.b{fill:#747c58;}.c{fill:#ededed;}.d{fill:#cecece;}.e{fill:#fff;}.f{fill:#080808;}.g{fill:#27421d;}.h{fill:#54593e;}.i,.j,.p,.q,.t{fill:none;}.i,.j,.t{stroke:#000;}.i,.j,.o,.p,.q,.t{stroke-linecap:round;}.i,.j,.q,.t{stroke-miterlimit:10;}.i{stroke-width:1.38334px;}.j{stroke-width:1.10591px;}.k{clip-path:url(#a);}.l{fill:#271d1d;}.m{clip-path:url(#b);}.n{fill:#707171;}.o{fill:#284220;}.o,.p,.q{stroke:#27421d;stroke-width:2px;}.o,.p{stroke-linejoin:round;}.r{fill:#525222;}.s{fill:#231f20;}</style><clipPath id="a"><polygon class="a" points="61.517 82.617 64.138 70.58 62.793 68.234 58.367 64.868 56.498 56.504 60.913 54.034 67.397 37.964 81.73 35.208 94.224 41.596 94.216 59.095 96.116 61.594 93.141 69.652 91.672 70.563 90.907 75.203 86.73 79.056 85.027 88.767 89.081 96.055 81.086 113.207 69.385 116.364 57.311 98.37 51.893 86.773 61.517 82.617"/></clipPath><clipPath id="b"><polygon class="b" points="40.178 172.535 47.858 175.614 67.553 174.125 91.77 172.242 92.951 170.412 91.77 166.395 103.496 125.251 111.964 111.719 108.166 98.921 90.688 90.425 85.386 84.699 85.044 88.106 85.421 94.025 76.044 109.963 61.279 89.882 61.437 80.298 56.268 84.762 36.53 93.113 35.049 120.709 37.449 129.23 40.178 172.535"/></clipPath></defs><circle class="c" cx="111.3335" cy="111.82944" r="108.83384"/><path class="d" d="M111.3335,5.49574c58.48339,0,106.334,47.8501,106.334,106.33359v.00021c0,58.48346-47.85059,106.33356-106.334,106.33356S5,170.313,5,111.82954v-.00021C5,53.34584,52.8501,5.49574,111.3335,5.49574m0-5A111.20484,111.20484,0,0,0,32.7002,190.46312,111.2049,111.2049,0,1,0,189.96729,33.19569,110.54252,110.54252,0,0,0,111.3335.49574Z"/><path class="e" d="M62.9165,264.43123a.68985.68985,0,0,1-.20117-.51123v-9.269q0-5.3313-5.30176-5.332H51.647a.72289.72289,0,0,1-.51074-.186.64121.64121,0,0,1-.20215-.49609v-.9917a.69064.69064,0,0,1,.71289-.71338h5.92188q7.87353,0,7.873,7.626V263.92a.723.723,0,0,1-.18554.51123.63949.63949,0,0,1-.4961.20166h-1.332A.69058.69058,0,0,1,62.9165,264.43123Zm-11.78027,0a.69056.69056,0,0,1-.20215-.51123V253.504a.68987.68987,0,0,1,.71289-.71289h1.30274a.68838.68838,0,0,1,.71289.71289V263.92a.68912.68912,0,0,1-.71289.71289H51.647A.68987.68987,0,0,1,51.13623,264.43123Z"/><path class="e" d="M78.5708,264.43123a.73063.73063,0,0,1-.542.20166h-8.2461a.69061.69061,0,0,1-.71289-.71289v-.99219a.69061.69061,0,0,1,.71289-.71289h6.07618l-.4961-7.874a28.98721,28.98721,0,0,0-.29394-2.94483,2.831,2.831,0,0,0-.75977-1.55029,2.54673,2.54673,0,0,0-1.86035-.58887H71.20947a.72368.72368,0,0,1-.51172-.186.64127.64127,0,0,1-.20214-.4961v-.9917a.69068.69068,0,0,1,.71386-.71337H72.48a5.68482,5.68482,0,0,1,3.42481.88378,4.47824,4.47824,0,0,1,1.64355,2.4336,19.29685,19.29685,0,0,1,.60449,4.061L78.7417,263.92A.60017.60017,0,0,1,78.5708,264.43123Z"/><path class="e" d="M82.6626,257.23933a.69055.69055,0,0,1-.20117-.51123v-9.083a.68915.68915,0,0,1,.71289-.71338H84.5376a.69068.69068,0,0,1,.71386.71338v9.083a.69065.69065,0,0,1-.71386.71289H83.17432A.69206.69206,0,0,1,82.6626,257.23933Z"/><path class="e" d="M101.231,247.84627a6.26672,6.26672,0,0,1,2.35644,2.61963,8.912,8.912,0,0,1,.85254,4.02978V263.92a.68912.68912,0,0,1-.71289.71289H95.729a.68914.68914,0,0,1-.71289-.71289v-.99219a.68914.68914,0,0,1,.71289-.71289h5.98243v-7.5332a5.887,5.887,0,0,0-1.19336-3.82813,3.72638,3.72638,0,0,0-3.02149-1.47265H94.24072l-2.418,14.50781a.84139.84139,0,0,1-.248.52734.71782.71782,0,0,1-.52735.2168H89.74658a.57513.57513,0,0,1-.48047-.2168.70108.70108,0,0,1-.14062-.52734L91.606,249.38094H90.0249a.68912.68912,0,0,1-.71289-.71289V247.6451a.68915.68915,0,0,1,.71289-.71338h7.78028A6.46245,6.46245,0,0,1,101.231,247.84627Z"/><path class="e" d="M109.07373,257.23933a.69436.69436,0,0,1-.20117-.51123v-9.083a.68915.68915,0,0,1,.71289-.71338h1.36426a.68915.68915,0,0,1,.71289.71338v9.083a.68912.68912,0,0,1-.71289.71289h-1.36426A.69054.69054,0,0,1,109.07373,257.23933Z"/><path class="e" d="M137.03564,247.13338a.69628.69628,0,0,1,.20118.51172v.9917a.6439.6439,0,0,1-.20118.49609.72528.72528,0,0,1-.51171.186h-1.82911a3.40117,3.40117,0,0,0-.69726,1.457,8.70132,8.70132,0,0,0-.26367,2.23193v10.94287a.62347.62347,0,0,1-.2168.49609.78486.78486,0,0,1-.52637.186H131.688a.63948.63948,0,0,1-.68164-.68213V252.82185a9.384,9.384,0,0,1,.21679-2.16992,3.21377,3.21377,0,0,1,.58887-1.333h-8.55566a.72531.72531,0,0,1-.51172-.186.64051.64051,0,0,1-.20117-.49609v-.9917a.68915.68915,0,0,1,.71289-.71338h13.26758A.69394.69394,0,0,1,137.03564,247.13338Z"/><path class="e" d="M141.28174,264.43123a.68981.68981,0,0,1-.20117-.51123V247.6451a.68915.68915,0,0,1,.71289-.71338h1.36425a.69064.69064,0,0,1,.7129.71338V263.92a.69062.69062,0,0,1-.7129.71289h-1.36425A.6921.6921,0,0,1,141.28174,264.43123Z"/><path class="e" d="M161.897,247.13338a.69627.69627,0,0,1,.20117.51172v.9917a.6439.6439,0,0,1-.20117.49609.72529.72529,0,0,1-.51172.186h-1.8291a3.40106,3.40106,0,0,0-.69726,1.457,8.7013,8.7013,0,0,0-.26368,2.23193v10.94287a.62347.62347,0,0,1-.21679.49609.78486.78486,0,0,1-.52637.186h-1.30273a.63948.63948,0,0,1-.68164-.68213V252.82185a9.384,9.384,0,0,1,.21679-2.16992,3.21365,3.21365,0,0,1,.58887-1.333h-8.55566a.72529.72529,0,0,1-.51172-.186.64051.64051,0,0,1-.20117-.49609v-.9917a.68915.68915,0,0,1,.71289-.71338h13.26757A.694.694,0,0,1,161.897,247.13338Z"/><path class="e" d="M165.92627,257.23933a.69055.69055,0,0,1-.20117-.51123v-9.083a.68915.68915,0,0,1,.71289-.71338h1.36328a.69069.69069,0,0,1,.71387.71338v9.083a.69067.69067,0,0,1-.71387.71289H166.438A.69208.69208,0,0,1,165.92627,257.23933Z"/><path class="e" d="M184.30908,254.7906a6.33661,6.33661,0,0,1-2.89844,2.58838l3.22461,4.64991a1.48776,1.48776,0,0,1,.3711.93017V263.92a.68912.68912,0,0,1-.71289.71289H173.1333a.68912.68912,0,0,1-.71289-.71289v-.99219a.67986.67986,0,0,1,.20117-.52685.72529.72529,0,0,1,.51172-.186h8.43164l-9.70215-14.07422a1.058,1.058,0,0,1-.248-.58887.57593.57593,0,0,1,.20117-.43408.64652.64652,0,0,1,.45019-.186h1.39453a.9983.9983,0,0,1,.83692.49609l5.54883,7.99805q2.63525-1.23925,2.63574-5.084V247.6451a.6803.6803,0,0,1,.20117-.52735.72368.72368,0,0,1,.51172-.186h1.209a.64544.64544,0,0,1,.4961.20166.73018.73018,0,0,1,.18554.51172v3.03759A8.09015,8.09015,0,0,1,184.30908,254.7906Z"/><polyline class="a" points="161.662 126.73 164.811 134 170.024 137.362 176.084 136.544 189.849 131.658 199.827 130.829 202.636 129.843 205.897 130.172 207.006 131.305 210.528 134.282 211.483 133.064 211.159 130.004 207.778 126.832 203.877 124.887 204.034 122.213 204.955 114.961 204.669 113.677 202.33 112.493 200.49 112.956 199.897 111.603 198.066 111.257 196.21 110.625 193.813 111.473 192.241 110.527 188.975 111.186 186.425 115.77 183.54 116.665 182.192 118.368 181.559 120.828"/><path class="f" d="M196.20631,121.98484c.27924-1.10653.85432-2.10445,1.15692-3.20185a7.08219,7.08219,0,0,0,.21253-1.56562c.00412-.08606.01232-.17182.021-.25752.00682-.06721.01518-.13424.02317-.20132.02947-.24752-.02659.1804.01177-.09013.10364-.73112.233-1.45941.38349-2.18231.07-.33642.1442-.67248.23317-1.00447.03714-.13858.08249-.27421.12222-.41188.06374-.22086-.07838.10566.04429-.09706a.84128.84128,0,0,0-1.45175-.84858,5.65365,5.65365,0,0,0-.527,1.716q-.246,1.13981-.41341,2.296a19.456,19.456,0,0,1-.26095,2.12839c-.29462,1.1254-.8915,2.14322-1.1767,3.2734a.84137.84137,0,0,0,1.62124.447Z"/><path class="f" d="M200.27319,113.14967c-.37211,1.45545-.58874,2.96042-.83248,4.44106-.30083,1.82753-.58593,3.66012-.80205,5.49985a.8455.8455,0,0,0,.84065.84065.86084.86084,0,0,0,.84064-.84065c.20353-1.73255.47859-3.46059.76356-5.18357.23772-1.43725.44969-2.89747.81092-4.31039a.84137.84137,0,0,0-1.62124-.447Z"/><path class="f" d="M192.71256,112.19161a12.88446,12.88446,0,0,0-1.10895,3.27332,16.16867,16.16867,0,0,1-.52321,1.9055,9.01429,9.01429,0,0,0-.58857,2.30443.847.847,0,0,0,.84065.84065.85849.85849,0,0,0,.84065-.84065,7.77984,7.77984,0,0,1,.54837-1.91162,15.94811,15.94811,0,0,0,.50335-1.85135c.13119-.56.2914-1.1138.46923-1.66063.08509-.26165.17461-.522.27321-.77891.02368-.06168.04775-.1232.07271-.18437-.0276.06764-.03539.07877-.00146.00521.03953-.08569.07993-.17045.12577-.253.52579-.94675-.92576-1.79569-1.45175-.84858Z"/><path class="f" d="M197.50279,129.32c-.17887-.02347.21089.03024.031.00413-.04043-.00586-.08091-.01145-.12133-.01742q-.13439-.01983-.26833-.0426c-.17106-.02934-.3414-.06323-.51-.10444a4.78574,4.78574,0,0,1-.49246-.14655c-.04455-.01611-.08978-.03788-.135-.05163.05822.01769.17007.07508.04748.01816-.07852-.03645-.15557-.076-.23056-.1193-.06765-.039-.13122-.08323-.19655-.12579-.1405-.09152.14665.131.02311.0179-.02856-.02615-.05848-.05073-.08672-.07729-.0614-.05771-.11229-.134-.176-.1876.0452.038.10877.1495.03132.037q-.03966-.0576-.07527-.11786c-.02929-.04972-.05646-.10072-.082-.15243-.01237-.025-.08268-.17909-.029-.05751.05368.12148-.01217-.03475-.022-.06109-.02035-.05453-.03965-.10945-.05861-.16448-.06966-.20226-.13325-.4064-.20924-.60645a.90931.90931,0,0,0-.38633-.5024.84079.84079,0,0,0-1.23491.94935,9.11935,9.11935,0,0,0,.57036,1.4436,3.00592,3.00592,0,0,0,1.04289,1.033,6.51361,6.51361,0,0,0,2.5682.713.83566.83566,0,0,0,.59442-.24622.84065.84065,0,0,0,0-1.18886.99065.99065,0,0,0-.59442-.24622Z"/><path class="f" d="M191.82487,127.95676c-.30544-.19585-.61059-.39227-.91039-.5967q-.22529-.15363-.44586-.314c-.07282-.0532-.14306-.11261-.218-.16273.06854.04584.11535.09017.02007.01487q-.05316-.042-.10581-.08467a8.0851,8.0851,0,0,1-.77351-.7094c-.12321-.12986-.23771-.266-.35187-.40373-.06615-.07979.10527.14522.017.02141-.026-.03644-.05289-.07223-.07868-.10883-.057-.08086-.11123-.16338-.16395-.24708a.84079.84079,0,1,0-1.45175.84859,11.03958,11.03958,0,0,0,3.61419,3.19406.84771.84771,0,0,0,1.15017-.30158.85906.85906,0,0,0-.30158-1.15017Z"/><path class="f" d="M187.23268,124.59853l-.209-3.96523a.84065.84065,0,0,0-1.6813,0c-.06062.6448-.12755,1.28938-.18088,1.93482a4.60969,4.60969,0,0,0,.14826,1.86793,3.54849,3.54849,0,0,0,2.364,2.26142.84086.84086,0,1,0,.447-1.62124c-.05006-.01445-.29534-.1026-.15039-.0403a2.34206,2.34206,0,0,1-.265-.13661c-.04287-.02534-.08406-.05311-.12622-.07955-.19516-.12235.06209.059-.03926-.02466a2.744,2.744,0,0,1-.21982-.20216q-.05217-.05355-.10125-.10985c-.01072-.01229-.10311-.13223-.05142-.06024.05224.07275-.034-.05434-.04229-.06706q-.0408-.06252-.078-.12719t-.07059-.13137c-.00758-.01515-.06737-.15564-.03417-.06947.03355.08706-.018-.05909-.02294-.07414-.01934-.05918-.03661-.11893-.05142-.17942a2.323,2.323,0,0,1-.05582-.62972c.00238-.25662.02426-.51262.04767-.768.05326-.58118.10921-1.16212.16384-1.74318h-1.6813l.209,3.96523a.84065.84065,0,1,0,1.6813,0Z"/><path class="f" d="M203.61128,129.216a9.47545,9.47545,0,0,0,1.15409-3.99823.84552.84552,0,0,0-.84065-.84065.86023.86023,0,0,0-.84065.84065c-.00924.14818-.02135.29608-.038.44362q-.00713.06321-.01522.12631.02421-.17755.00357-.03449c-.0106.06272-.01979.12567-.03076.18834a8.41266,8.41266,0,0,1-.20864.898c-.08313.28586-.185.56343-.29342.84045q-.03541.08607.02311-.05422-.02523.05839-.05135.1164-.04572.1015-.09418.20174c-.06918.14327-.14287.28413-.21966.42345a.84079.84079,0,1,0,1.45175.84859Z"/><polygon points="72.446 49.754 72.787 47.51 78.839 47.503 79.823 49.264 72.446 49.754"/><path class="g" d="M38.16527,140.42508A39.77587,39.77587,0,0,1,44.22854,116.038c.47839-.75388-.71826-1.44864-1.19447-.69819a41.02718,41.02718,0,0,0-6.25214,25.0853c.06829.88186,1.45219.88924,1.38334,0Z"/><polygon class="b" points="37.056 172.102 21.449 154.085 18.793 148.94 29.785 146.143 39.912 151.016 57.049 173.098 57.043 175.832 43.886 175.912 43.22 175.203 37.056 172.102"/><polygon class="b" points="35.471 92.61 18.793 148.94 24.702 155.701 31.834 154.498 53.008 122.929 51.233 103.331 47.478 94.541 40.5 90.325 35.471 92.61"/><polygon class="h" points="41.51 153.284 41.252 155.35 39.113 151.82 37.243 151.135 34.602 153.819 34.317 150.948 31.48 151.851 33.266 149.127 31.324 148.052 35.763 147.325 38.179 142.188 44.168 133.343 43.56 137.015 39.763 143.978 37.509 147.544 36.453 149.168 39.936 150.926 41.51 153.284"/><path class="i" d="M35.547,149.05492s-3.163,4.05569-7.14161,2.74341"/><path class="j" d="M35.781,149.44136s-.3894,4.711-3.13779,4.66519"/><path class="j" d="M35.43878,148.33714s-4.63439.93159-5.35211-1.72184"/><polygon class="b" points="83.92 95.17 90.078 95.155 100.51 94.857 140.624 134.023 142.429 143.193 135.199 148.52 90.342 124.229 81.471 102.797 83.92 95.17"/><path d="M42.51042,139.76543a9.96584,9.96584,0,0,1,3.62948-4.4542A14.532,14.532,0,0,1,51.758,133.226a.85015.85015,0,0,0,.58888-1.03715A.86235.86235,0,0,0,51.30974,131.6c-4.38745.76281-8.447,3.08051-10.25535,7.31432a.87164.87164,0,0,0,.30247,1.15356.84908.84908,0,0,0,1.15356-.30248Z"/><path class="f" d="M45.03466,136.56264l4.25244,4.55459a.85019.85019,0,0,0,1.19236,0,.86092.86092,0,0,0,0-1.19236l-4.25243-4.5546a.8502.8502,0,0,0-1.19237,0,.86093.86093,0,0,0,0,1.19237Z"/><path class="f" d="M42.73593,139.76543a3.53373,3.53373,0,0,1,.53439-.63037c.12182-.12175-.08833.04674.06363-.05319.05023-.033.09955-.067.15113-.098q.07609-.04579.1551-.08642c.02561-.01311.23541-.09693.05668-.03044a4.37361,4.37361,0,0,1,.74818-.201c.06474-.01174.13175-.01773.19583-.03254-.19508.04509-.03943.004.01074,0,.10976-.00885.21917-.01683.32928-.0205.24743-.00823.49539-.00294.74243.01284.13985.00893.279.02308.41831.03766.10089.01056-.11935-.02184.04265.00584.07516.01284.15033.02448.22523.03885a4.49965,4.49965,0,0,1,.75523.21017c-.098-.03729-.08522-.04192.001.00594l.12977.07228c.11273.06249.06995.10764.006-.00243a.94469.94469,0,0,0,.1045.10836.85056.85056,0,0,0,1.19236,0,.86028.86028,0,0,0,0-1.19237,2.97356,2.97356,0,0,0-1.66667-.81334,8.28082,8.28082,0,0,0-2.01451-.16762,5.36589,5.36589,0,0,0-1.96818.4373,4.04055,4.04055,0,0,0-1.6691,1.54792.84327.84327,0,1,0,1.456.85108Z"/><path class="f" d="M43.86714,138.2601a.781.781,0,0,1,.13768-.07585l-.2014.085a1.40306,1.40306,0,0,1,.32121-.0812l-.22414.03012a10.19316,10.19316,0,0,1,1.0664-.035,2.3363,2.3363,0,0,0,1.264-.30018.904.904,0,0,0,.38747-.50388.84334.84334,0,0,0-1.23856-.95215,3.2935,3.2935,0,0,1-.44772.25972l.20141-.085a.884.884,0,0,1-.1691.04854l.22413-.03012a.57061.57061,0,0,1-.13288.00006l.22413.03012a.37284.37284,0,0,1-.06471-.0164l.50388,1.23855.56658-1.24719a.89378.89378,0,0,0,.085-.64968.87349.87349,0,0,0-.30215-.438.84791.84791,0,0,0-1.107.06592l-1.31382,1.22716a.85021.85021,0,0,0,0,1.19237.8609.8609,0,0,0,1.19236,0l1.31382-1.22717-1.3242-1.02173-.56657,1.24719a.87122.87122,0,0,0-.0425.75039.836.836,0,0,0,.54638.48817,1.76681,1.76681,0,0,0,1.4641-.37692l-.85109-1.456a.781.781,0,0,1-.13768.07585l.20141-.085a1.40267,1.40267,0,0,1-.32121.0812l.22414-.03012a10.19061,10.19061,0,0,1-1.0664.035,2.33625,2.33625,0,0,0-1.264.30017.904.904,0,0,0-.38747.50388.84334.84334,0,0,0,1.23855.95216Z"/><polygon class="b" points="180.744 121.922 170.934 123.341 166.498 121.441 138.664 125.467 124.629 134.921 128.379 146.401 131.517 148.217 135.083 149.021 171.097 140.789 174.195 136.091 182.618 134.873 179.506 124.936 180.744 121.922"/><path d="M131.52223,125.29a22.90266,22.90266,0,0,0-5.221,3.33478.5041.5041,0,0,0,0,.70711.51057.51057,0,0,0,.70711,0,21.98546,21.98546,0,0,1,5.01863-3.17842.504.504,0,0,0,.17937-.68409.51166.51166,0,0,0-.68409-.17938Z"/><path d="M164.95758,142.308a18.92625,18.92625,0,0,0,3.9705-.78042,15.53829,15.53829,0,0,0,2.23236-.787,2.7689,2.7689,0,0,0,1.367-1.06314.86145.86145,0,0,0-.30248-1.15356.85237.85237,0,0,0-1.15356.30247c-.09267.17525.032-.044.03912-.03288.00642.01-.07037.06762-.07859.08257-.03131.057-.22659.14857.00426.00532-.04075.02529-.07929.0557-.11962.08182a5.09406,5.09406,0,0,1-.72583.37368c.20087-.08832-.07661.0295-.11326.04379q-.0996.03882-.19992.07573-.2449.09036-.49311.1715c-.35012.11526-.70386.21946-1.05948.31637q-1.03815.2829-2.0961.48717c-.28453.05505-.56994.103-.85611.14849-.06112.00971-.24011.02991.0212-.00159-.053.0064-.106.01356-.1591.01947-.09225.01027-.18459.01886-.27728.02393a.8617.8617,0,0,0-.84313.84313.851.851,0,0,0,.84313.84313Z"/><polygon class="a" points="61.517 82.617 64.138 70.58 62.793 68.234 58.367 64.868 56.498 56.504 60.913 54.034 67.397 37.964 81.73 35.208 94.224 41.596 94.216 59.095 96.116 61.594 93.141 69.652 91.672 70.563 90.907 75.203 86.73 79.056 85.027 88.767 89.081 96.055 81.086 113.207 69.385 116.364 57.311 98.37 51.893 86.773 61.517 82.617"/><g class="k"><polygon class="l" points="64.292 60.745 56.807 45.334 108.107 -1.85 93.79 61.094 93.057 43.298 83.867 43.899 74.532 40.9 73.236 44.56 68.034 47.094 64.292 60.745"/></g><polygon points="86.927 51.007 87.628 48.789 92.521 51.105 93.024 52.935 86.927 51.007"/><path d="M74.55916,68.24061a14.93873,14.93873,0,0,0,8.7413,2.78739.801.801,0,0,0,0-1.6011,13.47671,13.47671,0,0,1-7.93319-2.56879.8068.8068,0,0,0-1.09531.2872.81829.81829,0,0,0,.2872,1.0953Z"/><path d="M67.52549,74.56413l7.41445,6.39421,6.53436,1.922L86.73,79.05642,81.83,87.25532a4.62889,4.62889,0,0,1-2.43372,2.01336h0a4.62892,4.62892,0,0,1-2.2528.217l-.22629-.03443A4.62888,4.62888,0,0,1,74.13317,87.927L72.657,86.24373a4.62887,4.62887,0,0,1-.865-1.45659l-2.73709-7.45472Z"/><path d="M67.599,75.5942c1.3172,1.47226,2.70805,2.88067,4.05906,4.32176.2775.296.55616.59124.82671.89364.46214.51655,1.22012-.24563.76-.76-1.3172-1.47226-2.708-2.88067-4.05906-4.32176-.2775-.296-.55616-.59124-.82671-.89364-.46214-.51655-1.22011.24563-.76.76Z"/><path d="M87.884,52.5527a6.03255,6.03255,0,0,0-.62709,4.21069.79471.79471,0,0,0,.55914.55914.83359.83359,0,0,0,.77889-.20588,4.43124,4.43124,0,0,0,1.31351-3.14706c.05891-.64683.18044-1.49191-.49761-1.86651a.93443.93443,0,0,0-1.334.572.88017.88017,0,0,0,.83115,1.14055.80584.80584,0,0,0,.80055-.80055.81834.81834,0,0,0-.80055-.80055l-.02833-.00147.404.1093.12726.09976.20588.35326-.005.353q-.09669.3983-.63009.14494-.4905.27216-.59484-.04684-.03438-.095-.01813-.03262c.02234.06917.00437-.19189-.01273-.04833-.00392.03285-.002.06782-.00333.10091q-.00995.24972-.02736.49917c-.012.16838-.02866.33609-.04771.5038-.013.11426.015-.00928.00628-.0458a.43957.43957,0,0,1-.0216.13829q-.02059.12357-.04625.24621a4.579,4.579,0,0,1-.11829.45083,1.4607,1.4607,0,0,0-.08132.22861c.01822-.14662.04118-.09308.00712-.01955q-.02229.04816-.04625.09549-.0537.10592-.11606.2071-.03463.05592-.07226.10988c-.01343.01933-.08659.11866-.01567.02475.07833-.1037-.02933.031-.03831.041q-.03536.0396-.07256.07759a2.493,2.493,0,0,1-.19972.18069l1.338.35326c-.01776-.08368-.03254-.16767-.04828-.25172-.03952-.211.01454.17258-.00655-.041-.01472-.149-.02671-.29752-.03018-.44728q-.00519-.22419.00926-.4483.00616-.09593.0159-.19158.0065-.06376.01455-.12735-.01968.14451-.00588.05421a6.73481,6.73481,0,0,1,.20592-.83919q.03067-.09107.06478-.18094.02273-.0599.047-.11919-.05928.13908-.00458.01478c.06418-.13532.1305-.26867.20378-.3994A.80068.80068,0,1,0,87.884,52.5527Z"/><path d="M75.033,50.59783a6.03248,6.03248,0,0,0-.62709,4.21069.79468.79468,0,0,0,.55914.55913.83356.83356,0,0,0,.77889-.20588,4.43124,4.43124,0,0,0,1.3135-3.14706c.05892-.64683.18045-1.49191-.4976-1.86651a.93443.93443,0,0,0-1.334.572.88018.88018,0,0,0,.83114,1.14056.80584.80584,0,0,0,.80055-.80056.81834.81834,0,0,0-.80055-.80055l-.02833-.00147.40406.1093.12726.09976.20588.35326-.005.353q-.09669.39829-.63009.145-.49052.27214-.59485-.04684-.03438-.095-.01812-.03262c.02233.06916.00436-.1919-.01274-.04834-.00391.03285-.002.06782-.00333.10091q-.00995.24973-.02736.49918c-.012.16837-.02866.33609-.0477.50379-.013.11426.015-.00928.00628-.0458a.4402.4402,0,0,1-.0216.1383c-.01374.08237-.029.1645-.04626.24621a4.57958,4.57958,0,0,1-.11829.45082,1.46249,1.46249,0,0,0-.08132.22862c.01822-.14663.04119-.09309.00713-.01955q-.02231.04815-.04626.09548-.05368.10592-.11605.20711-.03463.05591-.07227.10987c-.01343.01934-.08659.11866-.01566.02476.07832-.10371-.02933.031-.03831.041q-.03537.03961-.07257.07759a2.49092,2.49092,0,0,1-.19971.18069l1.338.35326c-.01777-.08368-.03254-.16767-.04829-.25172-.03951-.211.01455.17258-.00655-.041-.01471-.149-.0267-.29752-.03017-.44728q-.00519-.22419.00925-.44829.00616-.09593.0159-.19159.0065-.06377.01456-.12735-.01969.14451-.00589.05422a6.73575,6.73575,0,0,1,.20593-.83919q.03068-.09107.06477-.18094.02274-.0599.047-.1192-.05929.13908-.00459.01478c.06419-.13531.1305-.26867.20378-.3994a.80068.80068,0,0,0-1.3825-.8081Z"/><path d="M59.14565,60.71455l2.119,1.51579a.808.808,0,0,0,.61688.0807.81642.81642,0,0,0,.47843-.3679.808.808,0,0,0,.0807-.61687.91106.91106,0,0,0-.3679-.47843l-2.119-1.51579a.808.808,0,0,0-.61687-.0807.81641.81641,0,0,0-.47844.3679.80809.80809,0,0,0-.0807.61687.91111.91111,0,0,0,.3679.47843Z"/><path d="M59.94277,59.12638l1.02255,2.81924a.85875.85875,0,0,0,.3679.47843.80068.80068,0,0,0,1.176-.90407l-1.02254-2.81923a.85886.85886,0,0,0-.3679-.47844.80068.80068,0,0,0-1.176.90407Z"/><path d="M57.3572,58.15885a6.02542,6.02542,0,0,1,.88243.22037q.10161.03392.202.07146.05016.01878.1.03844c.01142.00451.17577.071.05294.02087-.11018-.045.00529.00349.02705.01334q.04879.0221.0972.045.10889.05166.21569.10758a6.0036,6.0036,0,0,1,.74976.46638c.03577.0261.07042.05579.1073.08007-.03742-.02463-.11478-.09158-.03572-.02589.05493.04565.11021.09077.16409.13767.12126.10556.23747.21647.35006.33118a.80055.80055,0,0,0,1.13215-1.13215,6.748,6.748,0,0,0-3.61924-1.91827.86619.86619,0,0,0-.61688.08071.80067.80067,0,0,0,.19124,1.4632Z"/><path d="M40.5914,120.89066c2.00744-2.50406,4.70143-5.063,8.17945-4.5945a.76956.76956,0,0,0,.91466-.51932.74871.74871,0,0,0-.51932-.91467,8.24894,8.24894,0,0,0-5.20487.9583,15.57833,15.57833,0,0,0-4.42146,4.01865.76636.76636,0,0,0,0,1.05154.74886.74886,0,0,0,1.05154,0Z"/><path class="f" d="M43.10512,116.97c.53222,1.95225.57512,4.00114,1.10734,5.95339a.74419.74419,0,0,0,1.434-.39533c-.53222-1.95225-.57512-4.00114-1.10734-5.95339a.74419.74419,0,0,0-1.434.39533Z"/><path class="f" d="M40.5914,120.89066c.02138-.01941.22791-.18508.10146-.092q.10785-.07941.22174-.15007a4.54675,4.54675,0,0,1,.48375-.25617q.11979-.05279.0135-.006.06431-.02562.12928-.04944.1294-.04747.26122-.088a5.35987,5.35987,0,0,1,.52191-.13244c.08444-.017.16925-.03107.2543-.04454-.18851.02985.07224-.006.10759-.00885a3.50059,3.50059,0,0,1,.44452-.01q.05016.00226.10019.00645.12512.01293-.05721-.0102a.65934.65934,0,0,1,.07.013q.10372.0331-.09969-.0447c.14837.07537-.09745-.11472-.02159-.02538.03027.03564.06817.07306.10182.10564.07923.07669-.093-.15281.00877.01758.032.05356.06678.10526.0978.15949.06908.12075.13056.24583.18806.37245q.023.05079.04518.102-.05676-.136-.00877-.01958c.02844.0727.05763.145.0851.21813q.08388.22323.15793.45a14.09922,14.09922,0,0,1,.41416,1.52546.74374.74374,0,1,0,1.434-.39533,10.98224,10.98224,0,0,0-.98355-2.91665,1.75042,1.75042,0,0,0-1.09391-.996,4.45712,4.45712,0,0,0-1.89986.12611,4.96151,4.96151,0,0,0-2.12927,1.0976.74355.74355,0,1,0,1.05154,1.05154Z"/><path class="f" d="M42.44986,119.37865l.03456-.01629-.17762.075a.63841.63841,0,0,1,.15045-.039l-.19766.02656a1.09467,1.09467,0,0,1,.25542.005l-.19766-.02656c.27089.03731.52952.13071.79555.19052a1.74306,1.74306,0,0,0,1.20945-.0893.74374.74374,0,0,0-.17762-1.359l-.19767-.02656a.74012.74012,0,0,0-.37528.10152c-.06337.02777-.12616.05681-.18968.08422l.17762-.075a1.20648,1.20648,0,0,1-.255.08089l.19766-.02656a.54415.54415,0,0,1-.10589.00373l.19766.02656a.39372.39372,0,0,1-.07271-.01744l.17762.075a.33755.33755,0,0,1-.065-.03865l.26675,1.01732.75679-1.08486.075-.17762a.56325.56325,0,0,0,.01329-.2965.70666.70666,0,0,0-.20451-.42694.8849.8849,0,0,0-.3281-.19122.74484.74484,0,0,0-.573.075l-1.31165.91083a.79656.79656,0,0,0-.34171.44437.75994.75994,0,0,0,.075.573.75051.75051,0,0,0,.44437.3417.7367.7367,0,0,0,.573-.075l1.31166-.91084-1.01733-1.01732L42.61675,118.6a.74454.74454,0,0,0-.075.57295l.075.17762a.74726.74726,0,0,0,.26676.26676,1.06661,1.06661,0,0,0,.87212.11621,3.45247,3.45247,0,0,0,.56672-.229l-.75057-1.28407-.03457.01628.17762-.075a.63864.63864,0,0,1-.15045.039l.19766-.02656a1.09522,1.09522,0,0,1-.25542-.005l.19767.02656c-.2709-.03731-.52953-.13071-.79556-.19053a1.74306,1.74306,0,0,0-1.20945.0893.74353.74353,0,0,0-.26675,1.01733.76213.76213,0,0,0,1.01733.26675Z"/><path d="M74.30351,68.10366a5.29877,5.29877,0,0,0,1.215,2.42233,10.02557,10.02557,0,0,0,1.574,1.60759,10.9634,10.9634,0,0,0,4.60456,2.28254.863.863,0,0,0,1.03715-.58887.85184.85184,0,0,0-.58887-1.03715,9.18369,9.18369,0,0,1-3.86048-1.84889,9.89877,9.89877,0,0,1-1.428-1.42285c-.09916-.12217-.12241-.15439-.24267-.32473-.113-.16-.22081-.32354-.31892-.49314a2.84081,2.84081,0,0,1-.36576-1.0451.84861.84861,0,0,0-1.03715-.58888.86511.86511,0,0,0-.58887,1.03715Z"/><polygon class="b" points="40.178 172.535 47.858 175.614 67.553 174.125 91.77 172.242 92.951 170.412 91.77 166.395 103.496 125.251 111.964 111.719 108.166 98.921 90.688 90.425 85.386 84.699 85.044 88.106 85.421 94.025 76.044 109.963 61.279 89.882 61.437 80.298 56.268 84.762 36.53 93.113 35.049 120.709 37.449 129.23 40.178 172.535"/><g class="m"><polygon class="h" points="41.784 117.265 35.539 121.781 37.449 128.561 39.36 155.139 50.047 133.82 41.784 117.265"/></g><path d="M94.93279,104.48291a9.155,9.155,0,0,0-3.48453-4.77031,14.48457,14.48457,0,0,0-4.75215-1.72875.86175.86175,0,0,0-.95216.38746,20.66289,20.66289,0,0,0-1.4011,3.67727,4.50608,4.50608,0,0,0-.18825,1.03774c-.00275.3005.03542.1287.08464-.04813.018-.06463.14585-.11789.01819-.03037a9.75892,9.75892,0,0,0-.80059.74208c-1.918,1.68013-3.95807,3.23456-5.78541,5.01608-.63375.61786-1.76368,1.73262-.64963,2.49684.89711.6154,1.7414-.84529.85109-1.456q.5345.47226.28317.94117a.99076.99076,0,0,1,.05276-.08916c.05777-.02873-.042.04168.08583-.10881.15155-.17839.31875-.34471.485-.50922.49857-.49348,1.02566-.95888,1.55344-1.42061,1.19534-1.04577,2.42055-2.05662,3.62943-3.08655.66168-.56374,1.70338-1.20061,1.86493-2.11454A16.26875,16.26875,0,0,1,87.2,99.2224l-.95216.38747a14.43779,14.43779,0,0,1,4.00061,1.35483,7.116,7.116,0,0,1,3.05833,3.96648c.3741,1.00865,2.00456.57232,1.626-.44827Z"/><path d="M85.59494,103.16443a20.41326,20.41326,0,0,1,4.06274.48453,28.71649,28.71649,0,0,1,3.99513,1.30989A.84919.84919,0,0,0,94.69,104.37a.863.863,0,0,0-.58887-1.03715,28.28744,28.28744,0,0,0-4.11844-1.33822,22.89121,22.89121,0,0,0-4.3877-.51643.84365.84365,0,0,0,0,1.68626Z"/><path d="M87.54025,89.2087c2.6014,2.30025,3.85325,5.82116,4.67158,9.10289a33.79036,33.79036,0,0,1,.97454,5.75176c.07666,1.07623,1.76352,1.08466,1.68626,0a36.53455,36.53455,0,0,0-1.07713-6.3682c-.88861-3.49167-2.29666-7.23282-5.06289-9.67881-.81034-.71653-2.0073.47177-1.19236,1.19236Z"/><path class="f" d="M108.07588,117.55235a16.21627,16.21627,0,0,0-5.837,11.89249.74056.74056,0,0,0,1.4802,0,14.77355,14.77355,0,0,1,5.40349-10.84583c.72983-.614-.32185-1.65644-1.04666-1.04666Z"/><path d="M46.46581,114.99726q11.39568,1.578,22.86353,2.49579c1.082.08484,1.07652-1.60185,0-1.68626q-11.24327-.88158-22.41526-2.43555c-1.06127-.147-1.52021,1.47759-.44827,1.626Z"/><path d="M68.59752,117.40525c1.05039,2.14016.80148,4.66764,1.32586,6.94651a.84334.84334,0,0,0,1.626-.44827c-.56627-2.46093-.35705-5.029-1.49586-7.34933A.8514.8514,0,0,0,68.9,116.25169a.86051.86051,0,0,0-.30247,1.15356Z"/><path d="M70.44854,123.86693a144.72473,144.72473,0,0,1-21.47161-.57462c-1.07848-.11057-1.07076,1.57648,0,1.68625a144.72334,144.72334,0,0,0,21.47161.57463c1.08054-.05,1.08666-1.73658,0-1.68626Z"/><path d="M45.67968,114.08482a25.4461,25.4461,0,0,0,.12849,9.77719c.22236,1.06149,1.84819.61227,1.626-.44827a23.23771,23.23771,0,0,1-.1285-8.88064.86673.86673,0,0,0-.58887-1.03715.85047.85047,0,0,0-1.03715.58887Z"/><path d="M46.29919,124.58024l2.21559.4731a.89457.89457,0,0,0,.64968-.085.84307.84307,0,0,0,.30247-1.15356.84328.84328,0,0,0-.50388-.38747l-2.21559-.4731a.89457.89457,0,0,0-.64968.085.84309.84309,0,0,0-.30247,1.15356.84324.84324,0,0,0,.50388.38747Z"/><path class="f" d="M78.59372,172.51161c.03128-3.78691-2.028-7.2583-2.32231-11.03546-.26658-3.42132-.26289-6.87757-.28682-10.307-.05759-8.25316.09713-16.50733.2565-24.7586.07415-3.83852.15826-7.677.21164-11.51584a.84364.84364,0,0,0-1.68626,0c-.20952,15.06927-.98984,30.209-.25663,45.27264a27.13982,27.13982,0,0,0,1.12156,6.68187,18.90048,18.90048,0,0,1,1.27606,5.66239.84364.84364,0,0,0,1.68626,0Z"/><path d="M79.35865,117.49031a14.04808,14.04808,0,0,0,1.8902,9.06185c.52387.95066,1.98065.10092,1.456-.85109a12.21493,12.21493,0,0,1-1.72021-7.76249.86975.86975,0,0,0-.58887-1.03715.84961.84961,0,0,0-1.03715.58888Z"/><path d="M80.86767,118.75467a67.99765,67.99765,0,0,1,18.587,1.861c1.05427.25558,1.5041-1.37007.44827-1.626a69.73038,69.73038,0,0,0-19.03528-1.92123c-1.08176.04053-1.08706,1.727,0,1.68626Z"/><path d="M98.47771,119.74833a16.22047,16.22047,0,0,0,.89992,6.50847.86471.86471,0,0,0,1.03715.58888.85057.85057,0,0,0,.58888-1.03715,14.95942,14.95942,0,0,1-.83969-6.0602.84313.84313,0,1,0-1.68626,0Z"/><path d="M81.39447,126.738a47.55557,47.55557,0,0,0,6.92216.57465c3.38333.22245,6.76848.42181,10.14994.67176.65868.04869,1.31745.09835,1.97507.16.21589.02023.43214.03971.64733.0665a.90522.90522,0,0,1,.23739.03925c1.05779.231,1.50968-1.39427.44828-1.626a47.55707,47.55707,0,0,0-6.92216-.57464c-3.38334-.22246-6.76848-.42181-10.15-.67176-.65868-.04869-1.31745-.09835-1.97507-.16-.21588-.02023-.43213-.03971-.64733-.0665a.90528.90528,0,0,1-.23739-.03925c-1.05778-.231-1.50967,1.39427-.44827,1.626Z"/><line class="n" x1="85.0632" y1="102.36518" x2="89.7382" y2="103.20794"/><path d="M86.176,98.88021a8.46014,8.46014,0,0,1,7.47688,4.25919l-.0779.88389-7.352-1.89165-.9845.26616Z"/><path d="M55.04577,99.47167c1.92935.08282,3.8478.33924,5.76834.52883a20.48267,20.48267,0,0,0,2.66836.197,1.28147,1.28147,0,0,0,1.29342-.92973,3.1031,3.1031,0,0,0-.32941-1.66738.84721.84721,0,0,0-1.65614.22414c.00124.04974-.04953.44539-.03211.46684-.08557-.10535.48421-.04061.29563-.1226.11863.05158.35352.4659.168.55071h-.85109q.32229-.85974-.09426-.71852-.12695.028.0054.00936a1.56761,1.56761,0,0,1-.25846.005,1.85849,1.85849,0,0,1-.414-.05758c-.4297-.08763-.85057-.21482-1.27273-.33219a4.97709,4.97709,0,0,0-2.53171-.26481l.44828,1.626c1.11529-.37,2.51738-.02143,3.72555-.07113,1.08127-.04447,1.08691-1.731,0-1.68625-1.36375.05609-2.84764-.30863-4.17383.13135a.84387.84387,0,0,0,.44828,1.626q.1448-.03023.01153-.0147.08624-.00854.17289-.009c.09354.00087.18666.004.27979.01366.098.01012.43081.08125.61109.12562.5251.12925,1.04042.29543,1.56629.42165,1.01451.24349,2.93.36762,2.95829-1.16439a1.079,1.079,0,0,0-1.582-1.05062,1.39128,1.39128,0,0,0-.4432,1.92288,1.41991,1.41991,0,0,0,1.94633.37456,1.96284,1.96284,0,0,0,.70231-1.7819l-1.65614.22414c.07131.212.14341.42373.21392.636.09209.27716.02611.3601.26923.05272.23247-.29392.22252-.2228.00044-.23078-.36466-.0131-.72921-.03948-1.093-.06749-.8068-.06214-1.61191-.14482-2.41661-.22944-1.57987-.16616-3.16071-.35613-4.74871-.42429-1.085-.04658-1.08282,1.63978,0,1.68625Z"/><path class="f" d="M112.19857,112.27254c-2.61617,3.06013-5.2582,6.09806-7.87437,9.15818a.865.865,0,0,0,0,1.19237.85044.85044,0,0,0,1.19237,0c2.61617-3.06013,5.2582-6.09806,7.87436-9.15818a.865.865,0,0,0,0-1.19237.85042.85042,0,0,0-1.19236,0Z"/><path class="f" d="M104.72717,126.24431c1.2502-2.60759,3.10624-4.85288,4.45361-7.40053.507-.95869-.94795-1.81179-1.456-.85109-1.34736,2.54765-3.2034,4.793-4.45361,7.40054a.866.866,0,0,0,.30248,1.15356.85059.85059,0,0,0,1.15356-.30248Z"/><path d="M36.52661,121.78512c2.41513-2.21344,5.40863-4.18009,8.80382-3.18455a.74419.74419,0,0,0,.39533-1.434,8.10922,8.10922,0,0,0-5.22251.21188,16.267,16.267,0,0,0-5.02818,3.35512c-.70708.648.34678,1.69745,1.05154,1.05154Z"/><path class="f" d="M39.51652,118.28005c.2286,2.01053-.03973,4.042.18887,6.05256a.766.766,0,0,0,.74355.74355.74827.74827,0,0,0,.74356-.74355c-.2286-2.01053.03973-4.042-.18887-6.05256a.766.766,0,0,0-.74355-.74355.74827.74827,0,0,0-.74356.74355Z"/><path class="f" d="M36.37613,121.90139a3.18634,3.18634,0,0,1,.34437-.19983c.04557-.02262.21277-.08949.08074-.0404.07988-.0297.15908-.06055.24013-.08708q.19938-.06526.40423-.11172.11024-.02526.22151-.04563c.03168-.00578.06342-.01116.0952-.01636.01629-.00266.1531-.02172.05961-.00987-.08717.011.1204-.01173.153-.0145q.10817-.00921.21666-.01394c.13864-.00613.27751-.0069.41619-.00142a1.247,1.247,0,0,1,.356.02876c-.0122-.00461-.17886-.03162-.04647-.004.02384.005.048.00869.07187.01348.06016.01208.11991.02588.179.04243.03756.01051.18348.06465.03475.00306-.12347-.05113-.06576-.02782-.03473-.00959.0427.02509-.09825-.0778-.09825-.07773-.00086.01678.05708.03973.06033.05918.01544.09241-.05937-.08568-.05841-.07833.00206.01584.02909.04044.03719.05485.02384.0424.08376.20719.12175.23021.00054.00032-.05878-.15416-.03464-.08244.0068.02022.01625.03968.02346.05978.02021.05633.041.11237.05966.16925a8.5397,8.5397,0,0,1,.30478,1.37458c.01045.06827.01913.13683.02989.205.0135.08555-.01129-.07349-.00959-.07195.01685.01533.013.1018.01558.123q.0214.17409.03908.34862c.01962.1942.036.38878.04632.58371a.74356.74356,0,0,0,1.48711,0,11.39984,11.39984,0,0,0-.48645-2.98013,1.91851,1.91851,0,0,0-.93-1.268,3.91349,3.91349,0,0,0-1.80112-.19561,5.00253,5.00253,0,0,0-2.34939.72842.74368.74368,0,1,0,.75058,1.28408Z"/><path class="f" d="M38.43175,120.6726a.61079.61079,0,0,1,.09909-.02245l-.19766.02656a.76724.76724,0,0,1,.16969.00215l-.19767-.02656a1.88684,1.88684,0,0,1,.46511.145l-.17762-.075a2.43593,2.43593,0,0,0,1.67061.35951.78178.78178,0,0,0,.44437-.3417.74368.74368,0,0,0-.83971-1.09229,3.42888,3.42888,0,0,1-.36486.08817l.19767-.02656a.71366.71366,0,0,1-.16173.00342l.19767.02656a.48051.48051,0,0,1-.07177-.01748l.17762.075a.35935.35935,0,0,1-.063-.034l.15049.11626a.23923.23923,0,0,1-.03609-.0333v1.05155l.913-.95712a.74455.74455,0,0,0-.90106-1.16782l-1.43494.70072a.75139.75139,0,0,0-.34171.44437.75991.75991,0,0,0,.075.573.75043.75043,0,0,0,.44437.34171.82783.82783,0,0,0,.57295-.075l1.43494-.70072-.90106-1.16781-.913.95712a.75714.75714,0,0,0,0,1.05155,1.04318,1.04318,0,0,0,.8163.30384,3.44889,3.44889,0,0,0,.60455-.11937l-.39534-1.434a.61058.61058,0,0,1-.09909.02246l.19767-.02656a.76733.76733,0,0,1-.1697-.00216l.19767.02657a1.88666,1.88666,0,0,1-.4651-.145l.17762.075a2.436,2.436,0,0,0-1.67061-.35952.78176.78176,0,0,0-.44437.34171.74367.74367,0,0,0,.8397,1.09228Z"/><path d="M84.37225,53.05571c-.87861,1.23056-.57611,3.01418-.26055,4.38785a33.26922,33.26922,0,0,0,1.48123,4.45164.66735.66735,0,0,0,.79775.45295.65338.65338,0,0,0,.453-.79775,37.261,37.261,0,0,1-1.38106-4.04156c-.29113-1.12912-.70955-2.76321.02964-3.79849a.65443.65443,0,0,0-.23266-.8873.66185.66185,0,0,0-.8873.23266Z"/><path d="M85.38445,61.145a.82919.82919,0,0,1,.265.62037,2.20409,2.20409,0,0,1-.11626.90239,1.35086,1.35086,0,0,1-.69852.6773,4.08842,4.08842,0,0,1-1.214.36656,3.96359,3.96359,0,0,1-1.44675.03808,4.00875,4.00875,0,0,1-1.34848-.6089,2.399,2.399,0,0,1-.97812-.89127.6103.6103,0,0,1-.02236-.4878c.0075-.02236.06476-.15215.06589-.16057q.06594-.10829.01244-.03461-.545.05907-.25262.12492c.79864.24923,1.14028-1.00246.34481-1.25071-1.19422-.37268-1.7141,1.22169-1.41431,2.11822a4.4106,4.4106,0,0,0,2.63052,2.2457,5.27728,5.27728,0,0,0,3.40888.00806,3.01634,3.01634,0,0,0,2.17984-1.86029,2.64225,2.64225,0,0,0-.49879-2.7246.66691.66691,0,0,0-.91715,0,.6536.6536,0,0,0,0,.91715Z"/><path d="M98.5593,126.7569a14.8311,14.8311,0,0,0-.40793,4.33749c.09236,1.34164.31448,2.66675.343,4.014.01448.6839.13432,1.54-.58273,1.93684a7.9676,7.9676,0,0,1-2.27428.339q-2.81841.41895-5.65811.6744a33.42544,33.42544,0,0,1-5.9309.12556c-1.34129-.11931-1.33069-1.18258-1.49563-2.28745-.38789-2.5984-.56-5.231-.78865-7.84673a56.20844,56.20844,0,0,0-.98037-7.87281c-.21934-.93967-1.666-.5419-1.44642.39876,1.25555,5.37872.92719,11.04026,1.89072,16.47319a2.89826,2.89826,0,0,0,1.77124,2.50828,8.85229,8.85229,0,0,0,2.53.19357c1.17536.02184,2.351-.02863,3.523-.11595,2.09085-.1558,4.18285-.39289,6.25737-.69624,1.531-.22388,3.15423-.07479,4.17531-1.38924.9964-1.2827.48527-3.46018.31649-4.96705a15.72775,15.72775,0,0,1,.20427-5.42691c.21454-.93977-1.23132-1.341-1.44642-.39876Z"/><path d="M67.229,124.88388q-.06334,2.65662-.13643,5.313-.06156,2.2625-.13126,4.52477-.03185,1.01652-.06714,2.03292c-.017.48457.133,1.45584-.1803,1.84625-.59856.74585.45624,1.81382,1.06066,1.06066.88519-1.103.62082-2.89163.66444-4.23821q.07606-2.34807.13909-4.69653.08052-2.92128.15094-5.84285a.75046.75046,0,0,0-1.5,0Z"/><path d="M51.73325,140.37474a4.63887,4.63887,0,0,1-1.50675-.43575c-.60889-.363-.63023-.96311-.75429-1.6-.32183-1.65208-.5385-3.32466-.75292-4.99336a87.17411,87.17411,0,0,0-1.47275-9.77781.75065.75065,0,0,0-1.44642.39876,101.634,101.634,0,0,1,1.60637,10.80406,38.31057,38.31057,0,0,0,.82259,4.91892c.37693,1.38745,1.82088,1.91222,3.10541,2.13157.94418.16123,1.34986-1.284.39876-1.44642Z"/><polygon points="85.533 101.506 87.992 100.621 90.607 101.039 91.916 102.022 93.242 103.597 92.25 104.335 84.812 101.666 84.812 101.666 85.533 101.506"/><path d="M107.42122,104.78143a34.00969,34.00969,0,0,1-5.72879-1.01493,30.564,30.564,0,0,0-9.442-.181c-.944.122-.9562,1.62361,0,1.5a29.46726,29.46726,0,0,1,9.37249.189,32.52656,32.52656,0,0,0,5.79827,1.00689.75045.75045,0,0,0,0-1.5Z"/><path d="M107.90336,105.39851c-.5633-1.51531-1.18179-3.01173-1.77917-4.51378q-.53954-1.35663-1.08051-2.7127a13.4688,13.4688,0,0,0-.55734-1.39656c-.21463-.39865-.6351-.4602-1.04381-.60332l-2.45842-.86087L98.3449,94.3871a3.1441,3.1441,0,0,0-1.1939-.32181,22.60107,22.60107,0,0,0-2.31864.4168L92.50775,94.9c-.63239.11368-.36445,1.07758.26584.96428l3.17817-.57132a4.68362,4.68362,0,0,0,1.41883-.255c.016-.01066-.30194-.10923-.1043.02889a2.02463,2.02463,0,0,0,.45321.15871l6.14673,2.15241-.34922-.34922c1.148,2.87382,2.34374,5.73489,3.42207,8.63568.22227.59794,1.1892.33922.96428-.26584Z"/><path d="M102.72214,99.83751a.85089.85089,0,0,1,.07407.08l-.11728-.15179a.93537.93537,0,0,1,.1137.195l-.07561-.17916a1.37074,1.37074,0,0,1,.0872.33259l-.02679-.19938a2.12959,2.12959,0,0,1-.00528.53876l.02679-.19938a2.43661,2.43661,0,0,1-.15493.58048l.0756-.17916a1.6875,1.6875,0,0,1-.20605.36529l.11727-.1518c-.014.01771-.02817.035-.04284.05213a.799.799,0,0,0-.21967.53033.75.75,0,0,0,1.28033.53033,2.83771,2.83771,0,0,0,.63448-1.62455,1.95034,1.95034,0,0,0-.50033-1.58039.75.75,0,1,0-1.06066,1.06066Z"/><path d="M51.84479,94.56151c-2.193.55507-4.43989.90048-6.67366,1.24461-1.58834.2447-3.23715.37865-4.79956.765a.75065.75065,0,0,0,.39876,1.44642c1.56241-.38631,3.21122-.52026,4.79956-.765,2.23377-.34413,4.48068-.68954,6.67366-1.24462a.75064.75064,0,0,0-.39876-1.44641Z"/><path d="M54.07846,86.41277c-2.80355.76315-5.57789,1.64989-8.34393,2.5374a64.41867,64.41867,0,0,0-8.19161,2.92212c-.87022.41691-.11017,1.7107.75708,1.29521a62.85994,62.85994,0,0,1,8.02582-2.83261c2.70258-.86511,5.41277-1.73022,8.1514-2.4757a.75064.75064,0,0,0-.39876-1.44642Z"/><path d="M52.569,91.99172H42.20327a.75045.75045,0,0,0,0,1.5H52.569a.75045.75045,0,0,0,0-1.5Z"/><ellipse class="o" cx="44.30825" cy="107.44537" rx="1.028" ry="1.91966" transform="translate(-67.36739 75.25408) rotate(-51.50976)"/><ellipse class="o" cx="44.68751" cy="110.08572" rx="1.028" ry="1.91966" transform="translate(-69.29082 76.54798) rotate(-51.50976)"/><ellipse class="o" cx="45.1682" cy="112.89405" rx="1.028" ry="1.91966" transform="translate(-71.30743 77.9847) rotate(-51.50976)"/><ellipse class="o" cx="45.71959" cy="115.9695" rx="1.028" ry="1.91966" transform="translate(-73.50641 79.57763) rotate(-51.50976)"/><ellipse class="o" cx="46.50776" cy="118.93439" rx="1.028" ry="1.91966" transform="translate(-75.52944 81.31414) rotate(-51.50976)"/><ellipse class="o" cx="47.09912" cy="121.78406" rx="1.028" ry="1.91966" transform="translate(-77.53661 82.85309) rotate(-51.50976)"/><ellipse class="o" cx="47.42997" cy="124.86456" rx="1.028" ry="1.91966" transform="translate(-79.82282 84.27531) rotate(-51.50976)"/><ellipse class="o" cx="47.9656" cy="127.94645" rx="1.028" ry="1.91966" transform="translate(-82.03279 85.85834) rotate(-51.50976)"/><ellipse class="o" cx="48.05443" cy="131.28054" rx="1.028" ry="1.91966" transform="translate(-84.60889 87.18688) rotate(-51.50976)"/><ellipse class="o" cx="48.24227" cy="134.2866" rx="1.028" ry="1.91966" transform="translate(-86.89084 88.46905) rotate(-51.50976)"/><ellipse class="o" cx="48.23925" cy="137.52136" rx="1.028" ry="1.91966" transform="translate(-89.42388 89.68819) rotate(-51.50976)"/><path class="o" d="M46.55351,139.58571c-.13818.59316.47234,1.50376,1.36362,2.0339s1.72584.47905,1.864-.11411-1.00224-1.75764-1.89352-2.28777S46.69169,138.99255,46.55351,139.58571Z"/><ellipse class="o" cx="47.49177" cy="143.3202" rx="1.028" ry="1.91966" transform="translate(-94.24497 91.29288) rotate(-51.50976)"/><ellipse class="o" cx="46.79301" cy="146.08515" rx="1.028" ry="1.91966" transform="translate(-96.67301 91.79005) rotate(-51.50976)"/><ellipse class="o" cx="46.0952" cy="148.38215" rx="1.028" ry="1.91966" transform="translate(-98.73441 92.11125) rotate(-51.50976)"/><path class="p" d="M44.8916,106.00289l-2.67249-9.92226-1.07755.354a.99544.99544,0,0,0-.36333,1.09556l2.71694,7.83011Z"/><path class="q" d="M71.45412,125.46153s-1.80887,27.44714-12.49408,27.698-11.45488-10.14266-11.45488-10.14266"/><path class="q" d="M42.59018,96.0188s-5.2813-3.32-5.48862-3.3036"/><path class="q" d="M42.59018,96.0188S40.679,91.83851,38.591,91.83851"/><path d="M44.1537,109.36506a1.76215,1.76215,0,0,0-.01943,1.9504,2.97194,2.97194,0,0,0,1.24254.94385c.21645.0949.43715.178.65484.26959l-.17916-.07561c.02077.00884.04141.01792.06172.02777a.80246.80246,0,0,0,.57792.07561.75019.75019,0,0,0,.17916-1.37082c-.20717-.10045-.42729-.175-.63944-.2642l.17916.0756a3.42907,3.42907,0,0,1-.76576-.42432l.15179.11727a1.59777,1.59777,0,0,1-.274-.26936l.11728.15179a1.08626,1.08626,0,0,1-.13447-.22813l.07561.17916a.92266.92266,0,0,1-.06008-.22359l.02679.19938a.969.969,0,0,1,.00128-.22892l-.0268.19938a1.24347,1.24347,0,0,1,.08238-.29581l-.07561.17916a1.87386,1.87386,0,0,1,.11952-.23112.75012.75012,0,0,0-1.29521-.75708Z"/><path d="M43.09063,106.11876a2.48875,2.48875,0,0,0-.30383,1.21909,2.03709,2.03709,0,0,0,.32554,1.02548,3.42628,3.42628,0,0,0,1.3052,1.095c.15071.07793.31.143.456.22952a.75012.75012,0,1,0,.75708-1.2952c-.28955-.17157-.60375-.29116-.88514-.47983-.04722-.03165-.09216-.06639-.13892-.09861.24239.167.06759.05286.00851.00128a2.28284,2.28284,0,0,1-.23479-.24022c-.086-.10073.115.16327.05373.069-.01686-.02593-.03532-.05074-.05178-.077-.029-.04626-.05251-.09473-.07856-.14259-.05282-.09709.07807.2173.03008.071-.0074-.02255-.01573-.04474-.02265-.06747a1.29983,1.29983,0,0,1-.04152-.18962l.02679.19938a1.41024,1.41024,0,0,1,.00282-.367l-.02679.19938a1.73928,1.73928,0,0,1,.06042-.26059c.013-.04129.02851-.08157.04329-.12224.04041-.11114-.06831.1499-.0288.06886.013-.02678.02536-.05391.03851-.08066a.80018.80018,0,0,0,.07561-.57791.75019.75019,0,0,0-1.37081-.17916Z"/><path d="M43.94519,112.38341A2.01753,2.01753,0,0,0,43.9647,114.53a3.34216,3.34216,0,0,0,1.29728,1.03013c.15122.07255.31025.13243.45728.2133a.75012.75012,0,0,0,.75708-1.2952c-.1497-.08235-.31166-.14319-.46553-.21726a3.74059,3.74059,0,0,1-.6502-.38695l.15179.11727a1.9683,1.9683,0,0,1-.33783-.32776l.11727.15179a1.34692,1.34692,0,0,1-.173-.29043l.07561.17916a1.16024,1.16024,0,0,1-.07439-.27092l.02679.19938a1.223,1.223,0,0,1,.00043-.3042l-.02679.19938a1.61073,1.61073,0,0,1,.11232-.39474l-.07561.17915c.02551-.05837.05328-.11535.08316-.17161a.75012.75012,0,0,0-1.29521-.75708Z"/><path d="M44.67651,115.90714a1.78058,1.78058,0,0,0-.3132,1.02877,1.6755,1.6755,0,0,0,.4196,1.00785,2.30465,2.30465,0,0,0,.62246.494,5.34067,5.34067,0,0,0,.71618.329c.15483.0613.31416.11187.46761.1765l-.17916-.0756.01976.00867a.81439.81439,0,0,0,.57792.07561.76489.76489,0,0,0,.44822-.34467.757.757,0,0,0,.07561-.57792.72927.72927,0,0,0-.34467-.44822c-.25718-.11566-.526-.20037-.78581-.3095l.17916.07561a3.01865,3.01865,0,0,1-.66438-.36867l.15179.11727a1.42373,1.42373,0,0,1-.24934-.24431l.11727.15179a.96682.96682,0,0,1-.11364-.19061l.07561.17916a.80827.80827,0,0,1-.05557-.19825l.02679.19937a.83806.83806,0,0,1-.00005-.20213l-.02679.19938a1.07035,1.07035,0,0,1,.07249-.26021l-.07561.17916a1.64345,1.64345,0,0,1,.133-.24492.75592.75592,0,0,0-.26907-1.02614.76684.76684,0,0,0-1.02614.26906Z"/><path d="M45.40239,118.58465a1.96421,1.96421,0,0,0-.24885.50953.93049.93049,0,0,0-.03527.15377,1.51919,1.51919,0,0,0-.0304.33553,1.57373,1.57373,0,0,0,.42885.97737,3.33192,3.33192,0,0,0,1.35488.77679c.15139.05485.3081.0985.45672.16064a.75008.75008,0,0,0,.57792-.0756.75.75,0,0,0,.26906-1.02614l-.11727-.1518a.74929.74929,0,0,0-.331-.19287c-.23869-.09982-.49034-.16622-.7292-.267l.17916.07561a2.69331,2.69331,0,0,1-.581-.32308l.15179.11728a1.27357,1.27357,0,0,1-.22732-.22227l.11728.15179a.851.851,0,0,1-.10157-.17211l.07561.17916a.71478.71478,0,0,1-.046-.16377l.02679.19938a.72919.72919,0,0,1-.00113-.17953l-.02679.19938a.92762.92762,0,0,1,.06408-.2303l-.0756.17916a1.463,1.463,0,0,1,.14443-.25384.75019.75019,0,0,0-.847-1.10175.84277.84277,0,0,0-.44823.34467Z"/><path d="M45.86586,121.12624a1.72332,1.72332,0,0,0-.31414,1.01081,1.62667,1.62667,0,0,0,.423,1.00071,3.26838,3.26838,0,0,0,1.3442.80433c.15374.0588.31215.10679.46405.17021l-.17916-.0756.01267.00546a.81917.81917,0,0,0,.57792.07561.76489.76489,0,0,0,.44822-.34467.75708.75708,0,0,0,.07561-.57792.725.725,0,0,0-.34467-.44822c-.27325-.11939-.55788-.20684-.83268-.32215l.17916.0756a2.884,2.884,0,0,1-.63545-.35278l.15179.11727a1.35582,1.35582,0,0,1-.24042-.23639l.11727.15179a.91464.91464,0,0,1-.10822-.18391l.0756.17916a.76586.76586,0,0,1-.0515-.19094l.0268.19938a.79873.79873,0,0,1,.00247-.19439l-.02679.19937a1.02286,1.02286,0,0,1,.06544-.23119l-.07561.17916a1.55962,1.55962,0,0,1,.13965-.25362.75012.75012,0,0,0-1.29521-.75708Z"/><path d="M46.40293,124.357a1.53563,1.53563,0,0,0-.31654.96128,1.49156,1.49156,0,0,0,.433.96689,3.37467,3.37467,0,0,0,1.35963.7443c.14772.0503.3001.09037.44526.1478a.7532.7532,0,0,0,.57792-.0756.75.75,0,0,0,.26906-1.02615l-.11727-.15179a.7494.7494,0,0,0-.331-.19288c-.26456-.10467-.54168-.17253-.80463-.28337l.17916.07561a2.48035,2.48035,0,0,1-.53524-.29764l.1518.11727a1.183,1.183,0,0,1-.20195-.19542l.11727.1518a.77475.77475,0,0,1-.10073-.16928l.07561.17916a.646.646,0,0,1-.04078-.15035l.02679.19938a.66146.66146,0,0,1,.00089-.16426l-.02679.19937a.84079.84079,0,0,1,.05469-.19438l-.07561.17916a1.3351,1.3351,0,0,1,.15465-.26382.75476.75476,0,0,0,.07561-.57792.76494.76494,0,0,0-.34467-.44823.757.757,0,0,0-.57792-.0756l-.17916.0756a.75371.75371,0,0,0-.26906.26907Z"/><path d="M46.13761,126.86867a1.92686,1.92686,0,0,0,.012,2.08653,3.24107,3.24107,0,0,0,1.303,1.00633c.15035.06906.30805.12584.45446.20312a.75012.75012,0,0,0,.75708-1.29521c-.15684-.08278-.326-.1431-.48665-.218a3.5655,3.5655,0,0,1-.67162-.39391l.15179.11727a1.82155,1.82155,0,0,1-.318-.3125l.11728.15179a1.25473,1.25473,0,0,1-.15151-.25649l.07561.17916a1.07653,1.07653,0,0,1-.07031-.253l.02679.19938a1.12884,1.12884,0,0,1,.00015-.28322l-.0268.19938a1.4836,1.4836,0,0,1,.10489-.36648l-.07561.17916c.028-.06366.059-.12539.09272-.18623a.75012.75012,0,0,0-1.2952-.75708Z"/><path d="M46.32824,130.72386a1.87352,1.87352,0,0,0-.31259,1.04214,1.70987,1.70987,0,0,0,.40889,1.0198,3.18,3.18,0,0,0,1.3186.849c.158.0657.31981.12172.47775.18743l-.17916-.07561.04336.01916a.80826.80826,0,0,0,.57792.07561.76489.76489,0,0,0,.44822-.34467.757.757,0,0,0,.07561-.57792.73524.73524,0,0,0-.34467-.44822c-.23315-.10892-.47847-.189-.71552-.28861l.17916.07561a3.199,3.199,0,0,1-.71666-.3984l.15179.11727a1.49768,1.49768,0,0,1-.261-.25808l.11728.1518a1.02614,1.02614,0,0,1-.11942-.20222l.07561.17916a.86434.86434,0,0,1-.05844-.21093l.02679.19938A.90061.90061,0,0,1,47.522,131.62l-.02679.19938a1.15241,1.15241,0,0,1,.07711-.27809l-.0756.17916a1.75134,1.75134,0,0,1,.12677-.23954.75706.75706,0,0,0-.26907-1.02614.76566.76566,0,0,0-1.02614.26907Z"/><path d="M46.72536,133.404a1.7289,1.7289,0,0,0-.01754,1.93435,2.956,2.956,0,0,0,1.25481.9348c.21461.092.43309.17313.64835.26318l-.17916-.07561c.01757.00745.035.01511.05227.02332a.80514.80514,0,0,0,.57792.0756.76485.76485,0,0,0,.44822-.34467.757.757,0,0,0,.07561-.57791.73857.73857,0,0,0-.34467-.44823c-.22018-.10486-.453-.18229-.67763-.27673l.17916.07561a3.3109,3.3109,0,0,1-.74131-.41165l.15179.11727a1.54724,1.54724,0,0,1-.26743-.26385l.11727.1518a1.04858,1.04858,0,0,1-.13009-.223l.0756.17916a.89968.89968,0,0,1-.05476-.20057l.02679.19938a.92953.92953,0,0,1,.00083-.24079l-.02679.19937a1.21433,1.21433,0,0,1,.08294-.28806l-.07561.17916a1.84005,1.84005,0,0,1,.11863-.22487.75012.75012,0,0,0-1.2952-.75708Z"/><path d="M46.89618,136.85847a2.0075,2.0075,0,0,0-.24648.50581,1.32643,1.32643,0,0,0-.049.2482,1.21434,1.21434,0,0,0-.019.24618,1.5861,1.5861,0,0,0,.42813.985,2.33719,2.33719,0,0,0,.6325.47156,5.67558,5.67558,0,0,0,.72074.31163c.1505.05521.30574.09985.45395.161l-.17916-.0756.006.00254a.55823.55823,0,0,0,.27885.089.56814.56814,0,0,0,.29907-.0134.76489.76489,0,0,0,.44822-.34467.757.757,0,0,0,.07561-.57792.72046.72046,0,0,0-.34467-.44822c-.29069-.12285-.59277-.213-.88372-.335l.17916.0756a2.75054,2.75054,0,0,1-.60026-.33259l.15179.11727a1.29527,1.29527,0,0,1-.23007-.22491l.11728.15179a.86738.86738,0,0,1-.10323-.1743l.07561.17916a.7218.7218,0,0,1-.04911-.18049l.02679.19938a.75042.75042,0,0,1,.00212-.18335l-.02679.19938a.95832.95832,0,0,1,.06164-.21764l-.07561.17916a1.478,1.478,0,0,1,.14485-.25752.75019.75019,0,0,0-.847-1.10175.83859.83859,0,0,0-.44822.34467Z"/><path d="M53.19573,104.06072c-.78672-.29688-1.59654-.50815-2.40227-.74446-.36552-.1072-.726-.227-1.08082-.36579-.04252-.01663-.09588-.03884-.02272-.00793-.04571-.01931-.0911-.03948-.13638-.05979q-.1401-.06285-.27794-.13059c-.22417-.11005-.44265-.23059-.65781-.35723a.75012.75012,0,1,0-.75708,1.2952,11.03621,11.03621,0,0,0,2.46874,1.05331c.82672.24538,1.65947.45877,2.46752.7637a.75342.75342,0,0,0,.92259-.52383.77061.77061,0,0,0-.52383-.92259Z"/><polygon class="r" points="48.775 88.956 41.43 90.7 36.237 93.205 38.297 90.735 45.662 88.098 49.711 88.675 48.775 88.956"/><path class="s" d="M65.2749,114.60384a1.58451,1.58451,0,0,1-.374-1.15174l.01269-.80224.01172-.16712a1.11738,1.11738,0,0,1,.42676-.8501,1.54086,1.54086,0,0,1,1.05274-.18212l.667.06994.14258-1.3645.94335.09924L67.936,112.368l-1.47852-.1554a.77551.77551,0,0,0-.35449.02014.37093.37093,0,0,0-.17578.14722.63666.63666,0,0,0-.084.27307l-.00586.05859q-.00732.53394-.00293.79285a1.03692,1.03692,0,0,0,.08985.43494.64753.64753,0,0,0,.25293.27759,1.15453,1.15453,0,0,0,.47168.13378l.208.02186.16407.77355-.55274-.0581A1.86556,1.86556,0,0,1,65.2749,114.60384Z"/><path class="s" d="M62.70654,110.35579l.419,1.35571-.7959-.08362-.19336-1.332Zm1.21875.12805.415,1.35535-.80371-.08435-.18457-1.33118Z"/><path class="s" d="M57.85693,112.1357a1.464,1.464,0,0,1,1.78321-1.44617,7.15369,7.15369,0,0,1,1.59863.36279l-.00488.77356q-.6504-.19537-.9336-.25891a4.61891,4.61891,0,0,0-.53613-.09058.83921.83921,0,0,0-.69531.1709.96691.96691,0,0,0-.27246.62256l-.209,1.99-.94336-.09924Zm2.35743-.24866.89843.55835-.21679,2.05713-.94629-.09961Z"/><path class="s" d="M57.08838,114.10225l-3.001-.31543-.083-.67346.65723-.74915a2.21091,2.21091,0,0,1-.49219-.71509,1.54039,1.54039,0,0,1-.083-.72522l.08007-.75976.92871.09766-.07324.68969a1.98384,1.98384,0,0,0-.00293.48865,1.20523,1.20523,0,0,0,.11914.35071l1.335-1.47.81641.51733-2.085,2.29224,1.78809.188Z"/><polygon class="r" points="58.087 99.355 55.046 99.171 50.743 101.177 51.534 94.963 45.043 96.476 47.649 103.545 50.016 112.614 53.962 111.209 56.289 109.344 58.362 106.475 58.744 102.656 58.087 99.355"/><path d="M43.45555,97.188c2.47716,3.87,4.15257,6.60272,4.05353,11.19658a17.828,17.828,0,0,0,.02894,3.67506c.23536.78066,3.13215,1.13223,3.18633-.02893.227-4.86432-1.66647-12.56312-4.973-16.138"/><polygon class="h" points="100.596 124.244 99.478 129.968 133.13 147.244 133.522 139.425 132.943 137.269 131.021 144.164 130.181 126.91 126.245 140.674 120.909 130.109 118.911 137.816 105.483 130.511 100.596 124.244"/><path class="f" d="M104.18079,121.6087c-1.19023,3.40028-2.25308,6.84409-3.4433,10.24438-.3194.91245,1.07277,1.4662,1.541.64968,2.76133-4.815,4.96955-9.93456,7.73089-14.7496a.84375.84375,0,0,0-1.456-.85108c-2.76134,4.815-4.96956,9.93456-7.7309,14.74959l1.541.64968c1.19023-3.40028,2.25308-6.84409,3.4433-10.24438.35925-1.02631-1.26923-1.46756-1.626-.44827Z"/><path d="M131.34285,125.46941a50.26262,50.26262,0,0,0-2.798,6.06649,17.29123,17.29123,0,0,0-1.50694,6.37986.5003.5003,0,0,0,1,0,16.6221,16.6221,0,0,1,1.47121-6.114,48.3156,48.3156,0,0,1,2.69719-5.82761c.30856-.565-.55461-1.07032-.86347-.50472Z"/><path class="t" d="M121.50525,127.30033s-1.049,8.95605.43848,13.48507"/><path class="t" d="M133.16493,137.009a26.47376,26.47376,0,0,0-1.20794,9.09976"/><path d="M52.38285,99.6678c-.06522-.02522-.1304-.05057-.1949-.07758.0981.04109-.02418-.01112-.0612-.02807-.13476-.06167-.26927-.12351-.40248-.18848-.2971-.1449-.58976-.29885-.8799-.45717-.65142-.35544-1.29043-.73345-1.9249-1.11817-1.15255-.69887-2.28295-1.43429-3.44075-2.12444a.75056.75056,0,0,0-.75708,1.2952c1.18762.70793,2.34674,1.46287,3.52981,2.17838a24.22017,24.22017,0,0,0,3.73264,1.96674.75573.75573,0,0,0,.92259-.52383.76716.76716,0,0,0-.52383-.92258Z"/><path d="M55.67169,84.16621c-3.68308,4.56147-4.73264,10.98956-5.26627,16.66729-.07135.75922.95255,1.06944,1.43932.59618,3.15655-3.069,8.13871-2.62987,12.13641-3.63061L63.029,97.4116a17.99517,17.99517,0,0,1,1.33159,6.76885.858.858,0,0,0,1.06727.813c1.68536-.33826,3.4636,1.01466,4.72664,1.96471,1.46623,1.10289,2.7887,2.38076,4.229,3.51529.84333.6643,2.04463-.521,1.19236-1.19236-2.86128-2.25381-6.49478-6.73686-10.59631-5.91367l1.06727.813A20.13341,20.13341,0,0,0,64.485,96.56051a.8537.8537,0,0,0-.95215-.38747c-4.37643,1.09555-9.41939.69919-12.88051,4.06428l1.43931.59618c.48577-5.16852,1.412-11.31315,4.77237-15.47493.67569-.83683-.51023-2.03718-1.19236-1.19236Z"/></svg>