<svg xmlns="http://www.w3.org/2000/svg" xmlns:xlink="http://www.w3.org/1999/xlink" viewBox="0 0 222.67 273.8"><defs><style>.a{fill:#cab192;}.b{fill:#747c58;}.c{fill:#ededed;}.d{fill:#cecece;}.e{fill:#fff;}.f{fill:#080808;}.g{clip-path:url(#a);}.h{fill:#271d1d;}.i{clip-path:url(#b);}.j{fill:#54593e;}.k{fill:#707171;}.l{fill:#284220;}.l,.m,.n{stroke:#27421d;}.l,.m,.n,.q,.r{stroke-linecap:round;}.l,.m{stroke-linejoin:round;}.l,.m,.n,.r{stroke-width:2px;}.m,.n,.q,.r{fill:none;}.n,.q,.r{stroke-miterlimit:10;}.o{fill:#525222;}.p{fill:#231f20;}.q{stroke:#000;}.r{stroke:#231f20;}</style><clipPath id="a"><polygon class="a" points="151.011 82.502 148.526 71.092 149.801 68.868 153.996 65.677 155.768 57.749 151.583 55.408 145.437 40.176 131.85 37.562 120.008 43.618 120.016 60.205 118.214 62.574 121.034 70.212 122.426 71.076 123.152 75.474 127.111 79.127 128.725 88.331 124.882 95.24 132.461 111.498 143.552 114.491 154.998 97.434 160.133 86.442 151.011 82.502"/></clipPath><clipPath id="b"><polygon class="b" points="171.238 167.735 163.958 170.654 145.289 169.242 122.333 167.458 121.214 165.723 122.334 161.915 111.218 122.915 103.192 110.088 106.792 97.957 123.359 89.903 128.385 84.476 128.71 87.705 128.352 93.316 137.24 108.423 151.237 89.388 151.087 80.303 155.986 84.535 174.696 92.451 176.1 118.609 173.824 126.686 171.238 167.735"/></clipPath></defs><circle class="c" cx="113.94987" cy="113.18415" r="108.83386"/><path class="d" d="M113.94987,6.85047c58.4834,0,106.334,47.85008,106.334,106.33358v.00023c0,58.48346-47.85058,106.33358-106.334,106.33358S7.61637,171.66774,7.61637,113.18428v-.00023c0-58.4835,47.8501-106.33358,106.3335-106.33358m0-5a111.20485,111.20485,0,0,0-78.6333,189.96739A111.20489,111.20489,0,1,0,192.58366,34.55044a110.54262,110.54262,0,0,0-78.63379-32.7Z"/><path class="e" d="M15.18034,257.81281v7.59961a.557.557,0,0,1-.5752.5752h-1.0498a.55555.55555,0,0,1-.5752-.5752v-7.47461q0-4.3-4.27539-4.30029H6.88053q-.25049,1.4502-.36328,2.5249a24.02866,24.02866,0,0,0-.11133,2.4502l.04883,6.7998a.5805.5805,0,0,1-.14941.4126.51688.51688,0,0,1-.39942.1626l-3.47558-.04981a.55555.55555,0,0,1-.5752-.57519v-.75a.55555.55555,0,0,1,.5752-.5752l1.89941.02539v-5.3501q0-1.5996.08789-2.67529a17.38392,17.38392,0,0,1,.3877-2.3999H3.48014a.58259.58259,0,0,1-.41211-.1499.51453.51453,0,0,1-.16211-.39991v-.80029a.55546.55546,0,0,1,.57422-.57471H8.82975Q15.18132,251.71271,15.18034,257.81281Z"/><path class="e" d="M18.91764,260.02521a.55813.55813,0,0,1-.16211-.41259v-7.3252a.55546.55546,0,0,1,.57422-.57471h1.10059a.557.557,0,0,1,.57519.57471v7.3252a.557.557,0,0,1-.57519.57519H19.32975A.559.559,0,0,1,18.91764,260.02521Z"/><path class="e" d="M26.67936,255.68781a4.81491,4.81491,0,0,0,.25,1.57471,1.12216,1.12216,0,0,0,.75.7251l.95117.25a.488.488,0,0,1,.3125.26269,1.09143,1.09143,0,0,1,.11133.51221v.57519a.41651.41651,0,0,1-.27441.39991,1.04041,1.04041,0,0,1-.60059.07519l-.94922-.20019q-2.52538-.54931-2.52539-4.25v-3.3252a.66165.66165,0,0,1,.17578-.4248.53766.53766,0,0,1,.39942-.14991h4.625a5.27719,5.27719,0,0,1,4.1748,1.61231,6.94514,6.94514,0,0,1,1.5,4.5625q.0249.25049.02539.95019,0,.7251-.02539.9751a6.94418,6.94418,0,0,1-1.5,4.5625,5.27719,5.27719,0,0,1-4.1748,1.61231H25.60514a.557.557,0,0,1-.57519-.5752v-.82471a.54737.54737,0,0,1,.16308-.42529.58307.58307,0,0,1,.41211-.1499h4.15039a3.33681,3.33681,0,0,0,2.69922-1.125,5.09068,5.09068,0,0,0,1.02539-3.17481q.0498-.50024.04981-.875,0-.35009-.04981-.85009a4.96807,4.96807,0,0,0-1-3.1875,3.38816,3.38816,0,0,0-2.72461-1.11231H26.67936Z"/><path class="e" d="M39.09147,265.825a.56122.56122,0,0,1-.16211-.4126v-13.125a.55552.55552,0,0,1,.5752-.57471h1.10058a.55546.55546,0,0,1,.57422.57471v13.125a.55549.55549,0,0,1-.57422.5752H39.50456A.55927.55927,0,0,1,39.09147,265.825Z"/><path class="e" d="M50.20475,266.23762a.45095.45095,0,0,1-.45117-.4751v-1.1001a.61754.61754,0,0,1,.15039-.38721.95175.95175,0,0,1,.40039-.28759l.97461-.375a5.75867,5.75867,0,0,0,2.65039-1.875,5.91572,5.91572,0,0,0,.92481-3.6001,7.06722,7.06722,0,0,0-.39942-2.63721,2.55974,2.55974,0,0,0-1.3125-1.38769,6.078,6.078,0,0,0-2.51367-.42481h-5a.55549.55549,0,0,1-.57422-.57519v-.8501a.51782.51782,0,0,1,.16211-.3999.58418.58418,0,0,1,.41211-.14991h5.32617a8.36009,8.36009,0,0,1,3.61133.64991,3.9014,3.9014,0,0,1,1.9375,2.07519,9.95361,9.95361,0,0,1,.60059,3.79981,7.28628,7.28628,0,0,1-1.5752,4.9873,9.27113,9.27113,0,0,1-4.09961,2.6377l-1.05078.35009A.43645.43645,0,0,1,50.20475,266.23762Zm-4.98828,4.3623a.55856.55856,0,0,1-.16211-.41211V257.01252a.55472.55472,0,0,1,.57422-.57471H46.654a.55626.55626,0,0,1,.5752.57471v13.17529a.52147.52147,0,0,1-.5752.57471H45.62858A.55894.55894,0,0,1,45.21647,270.59992Z"/><path class="e" d="M62.04167,264.62531a6.46583,6.46583,0,0,1-1.53809-4.63769v-7.7002a.55706.55706,0,0,1,.57617-.57471h6q3.22413,0,4.625,1.44971a6.6158,6.6158,0,0,1,1.52442,4.4502q.0249.25049.02441,1.35009,0,1.1001-.02441,1.3501a6.09224,6.09224,0,0,1-1.625,4.44971q-1.55127,1.47584-4.9502,1.4751A6.08788,6.08788,0,0,1,62.04167,264.62531Zm7.96191-1.3501a4.26915,4.26915,0,0,0,1.07617-3.0874q.02344-.24975.02442-1.2251,0-.97485-.02442-1.22509a4.20242,4.20242,0,0,0-1.13867-3.04981,4.11813,4.11813,0,0,0-2.98633-1.05029H62.60417v6.3501a4.5204,4.5204,0,0,0,1.01269,3.1748,3.891,3.891,0,0,0,3.01172,1.1001A4.7615,4.7615,0,0,0,70.00358,263.27521Z"/><path class="e" d="M83.81608,252.36262a3.9014,3.9014,0,0,1,1.9375,2.07519,9.95361,9.95361,0,0,1,.60059,3.79981,7.28628,7.28628,0,0,1-1.5752,4.9873,9.27113,9.27113,0,0,1-4.09961,2.6377l-1.05078.35009a.43645.43645,0,0,1-.17383.02491.45095.45095,0,0,1-.45117-.4751v-1.1001a.61754.61754,0,0,1,.15039-.38721.95175.95175,0,0,1,.40039-.28759l.97461-.375a5.75867,5.75867,0,0,0,2.65039-1.875,5.91572,5.91572,0,0,0,.92481-3.6001,7.06722,7.06722,0,0,0-.39942-2.63721,2.55974,2.55974,0,0,0-1.3125-1.38769,6.078,6.078,0,0,0-2.51367-.42481H79.029l-2.2998-.02539a.58659.58659,0,0,1-.41309-.1499.52054.52054,0,0,1-.16211-.3999v-4.29981a.55553.55553,0,0,1,.5752-.57519h1a.51573.51573,0,0,1,.39941.16259.58275.58275,0,0,1,.15039.4126v2.8999h1.92578A8.36009,8.36009,0,0,1,83.81608,252.36262Z"/><path class="e" d="M91.04069,264.67512a6.30808,6.30808,0,0,1-1.51172-4.5625v-7.8252a.55546.55546,0,0,1,.57422-.57471h.97558a.55552.55552,0,0,1,.5752.57471v7.7002a4.455,4.455,0,0,0,1.03711,3.1748,5.04419,5.04419,0,0,0,6.17578.08789,4.39075,4.39075,0,0,0,1.03711-3.0625v-2.57519a4.83568,4.83568,0,0,0-.84961-3.04981,2.79126,2.79126,0,0,0-2.27539-1,3.64227,3.64227,0,0,0-.98828.16211,3.39667,3.39667,0,0,0-.9375.4126.4774.4774,0,0,1-.25.07519.46986.46986,0,0,1-.44922-.45019v-.7251a1.76045,1.76045,0,0,1,.0498-.47461.53227.53227,0,0,1,.25-.30029,3.86188,3.86188,0,0,1,1.11231-.51221,5.69684,5.69684,0,0,1,1.48828-.1626q4.9248,0,5.02441,5.77491.02492.25049.02442,1.47509,0,1.22535-.02442,1.4751a6.39024,6.39024,0,0,1-1.5625,4.4624q-1.46337,1.46265-4.71191,1.46241Q92.55241,266.23762,91.04069,264.67512Z"/><path class="e" d="M122.029,251.86262a.57615.57615,0,0,1,.14941.4248v6.90039a6.10939,6.10939,0,0,1-1.4375,3.9624,7.67188,7.67188,0,0,1-3.88769,2.48731l-5.44922,1.7251a.66165.66165,0,0,1-.20117.0249.52855.52855,0,0,1-.34961-.125.405.405,0,0,1-.15039-.32471v-.77539q0-.57421.40039-.69971l3.27539-1.07519-3.25-11.67481a3.10618,3.10618,0,0,1-.125-.5.51321.51321,0,0,1,.5-.5H112.654a.61161.61161,0,0,1,.375.11231.54479.54479,0,0,1,.19922.26269l3.20019,11.6001a5.0851,5.0851,0,0,0,2.7627-1.9751,5.988,5.988,0,0,0,.78711-3.20019v-6.2251a.55552.55552,0,0,1,.57519-.57471h1.04981A.5768.5768,0,0,1,122.029,251.86262Z"/><path class="e" d="M126.09049,265.825a.5574.5574,0,0,1-.16211-.4126v-13.125a.55552.55552,0,0,1,.5752-.57471h1.09961a.557.557,0,0,1,.57519.57471v13.125a.557.557,0,0,1-.57519.5752h-1.09961A.55776.55776,0,0,1,126.09049,265.825Z"/><path class="e" d="M139.74088,265.825a.55817.55817,0,0,1-.16308-.4126v-7.47461q0-4.3-4.29981-4.30029h-3.22461a.585.585,0,0,1-.41308-.1499.51786.51786,0,0,1-.16211-.39991v-.80029a.55552.55552,0,0,1,.57519-.57471h3.375q6.3501,0,6.34961,6.1001v7.59961a.55555.55555,0,0,1-.57519.5752H140.153A.55552.55552,0,0,1,139.74088,265.825Z"/><path class="e" d="M151.91569,251.87531a.56243.56243,0,0,1,.16211.41211v.80029a.52128.52128,0,0,1-.16211.39991.58667.58667,0,0,1-.41309.1499H150.028a2.75669,2.75669,0,0,0-.5625,1.17529,7.01929,7.01929,0,0,0-.21289,1.79981v8.82519a.50177.50177,0,0,1-.1748.3999.63187.63187,0,0,1-.42481.14991h-1.0498a.51665.51665,0,0,1-.55078-.54981v-8.9751a7.52859,7.52859,0,0,1,.17578-1.75,2.58708,2.58708,0,0,1,.47461-1.07519h-2.2002a.58259.58259,0,0,1-.41211-.1499.51855.51855,0,0,1-.16308-.39991v-.80029a.557.557,0,0,1,.57519-.57471h6A.56121.56121,0,0,1,151.91569,251.87531Z"/><path class="e" d="M174.17741,257.81281v7.59961a.55549.55549,0,0,1-.57422.5752h-1.05078a.55549.55549,0,0,1-.57422-.5752v-7.47461q0-4.3-4.27539-4.30029h-1.8252q-.25048,1.4502-.3623,2.5249a23.70765,23.70765,0,0,0-.11328,2.4502l.05078,6.7998a.58544.58544,0,0,1-.15039.4126.51616.51616,0,0,1-.40039.1626l-3.47461-.04981a.55549.55549,0,0,1-.57422-.57519v-.75a.55549.55549,0,0,1,.57422-.5752l1.90039.02539v-5.3501q0-1.5996.08789-2.67529a17.37025,17.37025,0,0,1,.38672-2.3999h-1.32422a.58338.58338,0,0,1-.41309-.1499.51855.51855,0,0,1-.16308-.39991v-.80029a.557.557,0,0,1,.57617-.57471h5.34961Q174.17643,251.71271,174.17741,257.81281Z"/><path class="e" d="M179.902,255.68781a4.763,4.763,0,0,0,.25,1.57471,1.12216,1.12216,0,0,0,.75.7251l.95019.25a.48346.48346,0,0,1,.3125.26269,1.07962,1.07962,0,0,1,.11231.51221v.57519a.41608.41608,0,0,1-.27539.39991,1.03712,1.03712,0,0,1-.59961.07519l-.94922-.20019q-2.5254-.54931-2.52539-4.25v-3.3252a.656.656,0,0,1,.1748-.4248.54072.54072,0,0,1,.39942-.14991h4.625a5.27937,5.27937,0,0,1,4.17578,1.61231,6.95575,6.95575,0,0,1,1.5,4.5625c.01562.167.02539.48389.02539.95019,0,.4834-.00977.8086-.02539.9751a6.95478,6.95478,0,0,1-1.5,4.5625,5.27937,5.27937,0,0,1-4.17578,1.61231H178.8278a.55707.55707,0,0,1-.57617-.5752v-.82471a.55078.55078,0,0,1,.16308-.42529.58551.58551,0,0,1,.41309-.1499h4.14941a3.33886,3.33886,0,0,0,2.7002-1.125,5.09068,5.09068,0,0,0,1.02539-3.17481c.0332-.33349.04883-.625.04883-.875,0-.23339-.01563-.5166-.04883-.85009a4.97375,4.97375,0,0,0-1-3.1875,3.39158,3.39158,0,0,0-2.72559-1.11231H179.902Z"/><path class="e" d="M192.13932,260.02521a.55887.55887,0,0,1-.16308-.41259v-7.3252a.557.557,0,0,1,.57617-.57471H193.652a.55546.55546,0,0,1,.57422.57471v7.3252a.55549.55549,0,0,1-.57422.57519h-1.09961A.55812.55812,0,0,1,192.13932,260.02521Z"/><path class="e" d="M205.16374,252.36262a3.90873,3.90873,0,0,1,1.9375,2.07519,9.95559,9.95559,0,0,1,.5996,3.79981,7.29089,7.29089,0,0,1-1.57421,4.9873,9.28,9.28,0,0,1-4.10059,2.6377l-1.0498.35009a.4388.4388,0,0,1-.17481.02491.44945.44945,0,0,1-.45019-.4751v-1.1001a.612.612,0,0,1,.15039-.38721.94848.94848,0,0,1,.39941-.28759l.97559-.375a5.75556,5.75556,0,0,0,2.64941-1.875,5.91572,5.91572,0,0,0,.9248-3.6001,7.04743,7.04743,0,0,0-.39941-2.63721,2.55292,2.55292,0,0,0-1.3125-1.38769,6.06985,6.06985,0,0,0-2.51269-.42481h-.84961l-2.30079-.02539a.58415.58415,0,0,1-.4121-.1499.51714.51714,0,0,1-.16211-.3999v-4.29981a.55548.55548,0,0,1,.57421-.57519h1a.51787.51787,0,0,1,.4004.16259.58715.58715,0,0,1,.15039.4126v2.8999h1.9248A8.36489,8.36489,0,0,1,205.16374,252.36262Z"/><path class="e" d="M225.05143,251.86262a.57219.57219,0,0,1,.14941.4248v6.9502a7.61249,7.61249,0,0,1-.86132,3.6875,5.87264,5.87264,0,0,1-2.42578,2.4248,7.09194,7.09194,0,0,1-3.5879.7876h-1.8496a5.70132,5.70132,0,0,1-2.9004-.75,5.37506,5.37506,0,0,1-2.04882-2.11231,6.39954,6.39954,0,0,1-.75-3.13769v-7.8501a.55546.55546,0,0,1,.57422-.57471h.9746a.55706.55706,0,0,1,.57618.57471l.07422,7.1001a4.49765,4.49765,0,0,0,3.17578-1.2251,4.07846,4.07846,0,0,0,.89941-2.75v-3.125a.58609.58609,0,0,1,.14941-.41211.52072.52072,0,0,1,.4004-.1626h.9746a.55706.55706,0,0,1,.57618.57471v3.2251a5.40185,5.40185,0,0,1-1.52539,3.95019,6.49446,6.49446,0,0,1-4.47461,1.69971,3.95166,3.95166,0,0,0,1.48632,2.23779,4.33654,4.33654,0,0,0,2.61329.7876h.7998a4.77609,4.77609,0,0,0,3.7002-1.375,5.19929,5.19929,0,0,0,1.32421-3.7251v-6.80029a.55706.55706,0,0,1,.57618-.57471h.97461A.5744.5744,0,0,1,225.05143,251.86262Z"/><polygon class="a" points="49.316 131.36 39.589 121.506 31.418 116.678 29.429 114.677 26.51 113.611 25.096 114.12 20.862 115.206 20.55 113.772 22.09 111.295 26.285 109.985 30.416 109.936 31.387 107.59 33.595 101.022 34.37 100.044 36.855 100 38.233 101.155 39.298 100.245 41.003 100.707 42.848 100.933 44.543 102.647 46.274 102.489 48.789 104.4 49.072 109.365 51.164 111.319 51.61 113.329 51.135 115.689 58.653 119.506 64.797 122.292 65.674 128.942 59.985 133.844 54.148 134.559 49.316 131.36"/><path class="f" d="M39.75415,110.99507c.22737-1.10608.12892-2.25083.36229-3.35027.13981-.65864.45925-1.27059.66112-1.9136q.32338-1.03009.57912-2.08082a5.49987,5.49987,0,0,0,.27542-1.68651.86353.86353,0,0,0-.84064-.84065.84674.84674,0,0,0-.84065.84065,1.84791,1.84791,0,0,1-.00452.23068c-.0034.11274-.01145.07395.00323-.01528-.01159.07047-.02325.1408-.03617.211-.059.32076-.13416.63874-.21274.95518q-.25282,1.01808-.56986,2.01975c-.07135.22437-.16462.44489-.23048.67039-.04771.16337.07838-.17446.02287-.05655q-.09682.2057-.18184.41651a4.82476,4.82476,0,0,0-.2461.80226c-.2345,1.10473-.13541,2.24656-.36229,3.35026-.21709,1.05608,1.40318,1.50775,1.62124.447Z"/><path class="f" d="M36.74376,101.04216c-.27924,1.37509-.70882,2.72856-1.10591,4.07271-.48312,1.63543-.97914,3.26957-1.53806,4.88095-.35531,1.02437,1.26828,1.46456,1.62124.447.55892-1.61138,1.05494-3.24552,1.53806-4.88095.39709-1.34416.82667-2.69762,1.10591-4.07271.21451-1.05633-1.40573-1.50821-1.62124-.447Z"/><path class="f" d="M43.5496,103.77682a6.88075,6.88075,0,0,1-.08411,1.24184c.01347-.10584-.01061.07725-.01493.10721q-.01393.09661-.02874.19309-.02986.19463-.06318.38868c-.048.27946-.10091.55817-.16185.83511a17.7148,17.7148,0,0,0-.36031,1.90429,8.0213,8.0213,0,0,1-.37513,1.9988.84777.84777,0,0,0,.58715,1.0341.85893.85893,0,0,0,1.03409-.58714,8.6662,8.6662,0,0,0,.41033-2.20439,16.23525,16.23525,0,0,1,.344-1.786c.12648-.59207.21946-1.19044.2978-1.7906a7.27727,7.27727,0,0,0,.09617-1.335.85929.85929,0,0,0-.84064-.84065.84841.84841,0,0,0-.84065.84065Z"/><path class="f" d="M33.45362,117.87847a5.67846,5.67846,0,0,0,2.6.36674,2.59123,2.59123,0,0,0,1.15514-.46314,10.701,10.701,0,0,0,1.00108-.92259.84824.84824,0,0,0,0-1.18886.85784.85784,0,0,0-1.18886,0c-.12753.12076-.24875.24751-.37171.37285a2.06417,2.06417,0,0,1-.38214.35834c.18627-.10695-.06232.03532-.09666.05541q-.055.03213-.112.06043-.1278.05946.02855-.00984a.66626.66626,0,0,1-.23676.07241q-.06015.01439-.121.02527-.14172.02281.03909-.00475a.67975.67975,0,0,1-.25022.01209c-.08475.00026-.16949-.00337-.254-.00991q-.0641-.005-.128-.01228.17473.02517.03078.0035c-.08595-.01586-.17193-.03025-.25742-.04857a9.646,9.646,0,0,1-1.009-.28834.84709.84709,0,0,0-1.0341.58714.8601.8601,0,0,0,.58714,1.0341Z"/><path class="f" d="M39.494,119.16741a10.59347,10.59347,0,0,0,4.44515-1.21469.84078.84078,0,0,0-.84858-1.45175,5.37583,5.37583,0,0,1-.479.26662c-.06139.03-.12347.05815-.18563.08648q-.13119.05715.01224-.005-.06334.02549-.12724.04959a7.66146,7.66146,0,0,1-.95257.28559c-.32628.07673-.65631.1364-.98756.1871-.09166.014-.18347.02691-.27525.04012-.18408.0265.14935-.01819-.052.00687-.18318.02279-.36631.04578-.54958.06778a.86216.86216,0,0,0-.84065.84064c.01839.41053.373.89678.84065.84065Z"/><path class="f" d="M46.17981,117.33479l1.59081-2.88839.225-.4085-1.5365-.64777q-.27984.75021-.55969,1.50041c-.04215.11276-.08441.22548-.12876.33739-.00885.02232-.08141.19381-.03253.082s-.02689.058-.037.07968c-.05046.10859-.10454.21547-.16408.31938a1.07417,1.07417,0,0,1-.19493.3c.06862-.05185.06307-.07874-.00472-.00255-.03152.03543-.064.07-.09764.10342-.04053.04021-.08313.07728-.12522.11577-.11342.10369.09889-.06477.014-.00817-.0871.05809-.172.117-.26391.16773-.04154.02293-.08383.04447-.1266.065-.12775.06133-.04819-.00791.018-.00539a1.437,1.437,0,0,0-.29829.09509c-.046.01165-.09226.02222-.13885.03125q-.04188.00831-.08408.01474-.09734.01533.08249-.01141a1.81292,1.81292,0,0,1-.28386.01245c-.05707-.00089-.11339-.00515-.17032-.0086-.17157-.01039.1813.03124-.00205-.00078a.86055.86055,0,0,0-1.03409.58714.85106.85106,0,0,0,.58714,1.0341A3.3739,3.3739,0,0,0,46.5452,117.174a5.27572,5.27572,0,0,0,.8944-1.6216c.219-.56965.42746-1.1435.64075-1.71529a.84192.84192,0,0,0-1.53649-.64777l-1.59081,2.8884-.225.4085a.84078.84078,0,0,0,1.45175.84858Z"/><path class="f" d="M51.32423,117.58126l2.32549.95508a.84186.84186,0,0,0,.64777-.08475.84059.84059,0,0,0,.30158-1.15016l-.13144-.17014a.83982.83982,0,0,0-.371-.21619l-2.3255-.95508a.84187.84187,0,0,0-.64777.08475.84059.84059,0,0,0-.30158,1.15017l.13145.17013a.83982.83982,0,0,0,.371.21619Z"/><path class="f" d="M51.88165,117.7391l.33972-1.41488a.88222.88222,0,0,0-.08474-.64777.84087.84087,0,0,0-1.5365.20082l-.33972,1.41488a.88218.88218,0,0,0,.08475.64777.84086.84086,0,0,0,1.53649-.20082Z"/><path class="f" d="M30.49057,113.677a8.161,8.161,0,0,1-.0001-.88894q.01248-.222.03737-.44308c.00609-.05411.00718-.247.00241-.02856a1.53528,1.53528,0,0,1,.035-.21958,8.066,8.066,0,0,1,.48444-1.6749.84212.84212,0,0,0-.08475-.64777.8406.8406,0,0,0-1.15016-.30158.986.986,0,0,0-.38633.5024,8.64615,8.64615,0,0,0-.61918,3.702.84065.84065,0,1,0,1.68129,0Z"/><polygon class="b" points="121.624 95.79 115.894 96.902 106.136 98.535 75.996 142.304 75.996 151.163 83.695 154.794 120.97 123.992 125.298 102.435 121.624 95.79"/><path d="M170.445,135.84386c-1.71811-4.02247-5.57872-6.22867-9.74731-6.95343a.86757.86757,0,0,0-1.03715.58887.85021.85021,0,0,0,.58888,1.03715,13.7675,13.7675,0,0,1,5.31492,1.97211A9.39762,9.39762,0,0,1,168.989,136.695a.84831.84831,0,0,0,1.15356.30247.86543.86543,0,0,0,.30247-1.15356Z"/><path class="f" d="M165.47286,132.47554l-4.03088,4.31731a.84313.84313,0,0,0,1.19236,1.19236l4.03089-4.31731a.84313.84313,0,1,0-1.19237-1.19236Z"/><path class="f" d="M170.23125,135.84386a3.8785,3.8785,0,0,0-1.56714-1.46975,5.13226,5.13226,0,0,0-1.91857-.43379,7.94879,7.94879,0,0,0-1.88621.15352,2.88372,2.88372,0,0,0-1.63425.7892.8647.8647,0,0,0,0,1.19236.85053.85053,0,0,0,1.19237,0c.00853-.00993.085-.10579.09905-.10271-.01843-.004-.17624.11022-.02592.02376.06015-.0346.344-.15558.13616-.08431a5.23348,5.23348,0,0,1,.71588-.19921c.05907-.01133.11839-.02107.17768-.03109.08068-.01362.1498-.01942.02833-.00548.13213-.01517.26432-.02839.397-.03748a7.23945,7.23945,0,0,1,.73948-.01461c.10433.00353.20811.01088.31212.01942.02752.00226.17483.02452.04906.00475-.14113-.02219.07079.0131.09864.018a4.38289,4.38289,0,0,1,.74564.1971c-.10636-.03864-.06707-.03231.01321.00957.04967.02592.09959.05109.148.07932.05913.03446.115.07311.17227.11036.17394.11316-.09984-.10857.05142.04355.08986.09036.18374.17416.26793.27045.00134.00153.1529.1951.077.09178.05411.07371.10456.15.1547.22641a.86223.86223,0,0,0,1.15356.30247.8519.8519,0,0,0,.30248-1.15356Z"/><path class="f" d="M168.56977,133.82776a2.25477,2.25477,0,0,0-1.22036-.29053,9.6598,9.6598,0,0,1-1.01084-.03321l.22413.03012a1.3299,1.3299,0,0,1-.30447-.077l.20141.085a.7406.7406,0,0,1-.13051-.07189l-.85109,1.456a1.71461,1.71461,0,0,0,1.42167.36171.836.836,0,0,0,.54638-.48817.87118.87118,0,0,0-.0425-.75039l-.53705-1.18221-1.3242,1.02173,1.24537,1.16323a.88118.88118,0,0,0,.59618.24695.84314.84314,0,0,0,.59619-1.43932l-1.24538-1.16323a.84871.84871,0,0,0-1.107-.06591.80436.80436,0,0,0-.30215.438.96548.96548,0,0,0,.085.64968l.53706,1.18221.50388-1.23855a.35235.35235,0,0,1-.06134.01554l.22414-.03011a.54158.54158,0,0,1-.126-.00006l.22414.03012a.83754.83754,0,0,1-.16029-.046l.2014.085a3.12252,3.12252,0,0,1-.42439-.24619.84333.84333,0,0,0-1.23855.95215.94707.94707,0,0,0,.38746.50388,2.25469,2.25469,0,0,0,1.22037.29053,9.66253,9.66253,0,0,1,1.01084.03321l-.22414-.03011a1.329,1.329,0,0,1,.30448.077l-.20141-.085a.74.74,0,0,1,.13051.0719.84334.84334,0,0,0,1.23855-.95216.94708.94708,0,0,0-.38747-.50388Z"/><polygon class="b" points="50.798 114.524 58.98 119.144 63.774 118.593 86.988 131.699 95.498 146.018 87.195 156.738 83.6 157.619 80.058 157.31 51.322 137.212 50.568 131.34 43.544 127.374 50.611 118.051 50.798 114.524"/><path d="M82.575,133.44566a20.80528,20.80528,0,0,1,5.23836,2.04137c.563.31306,1.06785-.55031.50472-.86348a21.82079,21.82079,0,0,0-5.47724-2.14217c-.62532-.151-.89213.81307-.26584.96428Z"/><path d="M53.96427,121.46778c-.18732-.05365-.37034-.12187-.55188-.19235-.12349-.04794-.24575-.09876-.36838-.14884.11339.04631.11014.04737-.001-.00081-.07093-.03076-.14189-.06146-.21262-.09271q-.93621-.4136-1.84023-.89651a14.91007,14.91007,0,0,1-1.71633-1.04332c-.04168-.03015-.247-.19295-.0504-.03416-.04056-.03276-.08165-.06473-.12175-.09806a3.76507,3.76507,0,0,1-.27968-.25394c-.03867-.03932-.07331-.08349-.11265-.1219-.0975-.09521.11335.195.01931.024a.967.967,0,0,0-.06567-.11205c-.076-.10024.07946.23417.03565.06872a.84335.84335,0,0,0-1.626.44828,2.25266,2.25266,0,0,0,.74212,1.05861,9.70974,9.70974,0,0,0,1.35382.96769,24.06462,24.06462,0,0,0,2.99725,1.53008,11.33877,11.33877,0,0,0,1.35017.52326.84334.84334,0,1,0,.44827-1.626Z"/><polygon class="a" points="151.011 82.502 148.526 71.092 149.801 68.868 153.996 65.677 155.768 57.749 151.583 55.408 145.437 40.176 131.85 37.562 120.008 43.618 120.016 60.205 118.214 62.574 121.034 70.212 122.426 71.076 123.152 75.474 127.111 79.127 128.725 88.331 124.882 95.24 132.461 111.498 143.552 114.491 154.998 97.434 160.133 86.442 151.011 82.502"/><g class="g"><polygon class="h" points="148.38 61.769 155.476 47.161 106.848 2.436 120.419 62.1 121.113 45.231 129.825 45.801 138.673 42.958 139.902 46.427 144.833 48.83 148.38 61.769"/></g><polygon points="140.651 51.351 140.328 49.224 134.591 49.217 133.658 50.887 140.651 51.351"/><polygon points="126.925 52.538 126.26 50.436 121.622 52.631 121.145 54.366 126.925 52.538"/><path d="M137.86081,67.52785a12.73613,12.73613,0,0,1-7.49882,2.42927.801.801,0,0,0,0,1.6011,14.19862,14.19862,0,0,0,8.30693-2.64786.82355.82355,0,0,0,.2872-1.09531.80687.80687,0,0,0-1.09531-.2872Z"/><path d="M145.3151,74.86841l-7.02817,6.06108L132.093,82.75138l-4.98185-3.62473,4.64464,7.77175a4.38775,4.38775,0,0,0,2.30692,1.90846l0,0a4.38767,4.38767,0,0,0,2.13542.20565l.2145-.03263a4.38772,4.38772,0,0,0,2.639-1.44481l1.39926-1.59557a4.38751,4.38751,0,0,0,.82-1.3807l2.59449-7.06633Z"/><path d="M144.50525,75.10465c-1.24858,1.39556-2.567,2.7306-3.84759,4.0966-.263.28058-.52718.56044-.78363.84709-.46.5141.29762,1.27672.76.76,1.24857-1.39556,2.56695-2.7306,3.84758-4.0966.263-.28058.52718-.56045.78364-.84709.46-.51411-.29762-1.27673-.76-.76Z"/><path d="M124.67076,54.79082c.06947.12391.13235.25031.19317.37859q.05406.12276-.00856-.024.01732.04214.03358.08467.03834.09914.07235.19983a6.24288,6.24288,0,0,1,.1952.79547q.014.09111-.00707-.06248.00765.06029.0138.12072.00917.09065.01507.18161.01377.2121.00877.42494c-.00329.14192-.0149.28273-.0286.424-.0199.205.03357-.17466-.00472.02777-.01506.07964-.02893.15928-.04577.2386l1.338-.35325c-.11617-.09538-.20719-.231-.32308-.32109.028.02178.09464.13169.03456.04282-.02331-.03447-.04706-.06842-.06936-.10356q-.06026-.095-.112-.195-.02309-.04461-.04461-.09c-.01227-.02587-.07542-.16321-.02061-.04315.05081.11132.00284.00175-.00614-.02263q-.02213-.06-.04211-.12081a4.31858,4.31858,0,0,1-.12-.45182q-.02181-.10322-.03949-.20726c-.00747-.04355-.01326-.08744-.02091-.13095-.01905-.10829.0193.16415.00686.05467-.01807-.159-.03492-.31784-.04662-.47747-.01156-.15773-.0199-.31567-.02675-.47367-.00172-.03987.00037-.0822-.00428-.12167-.01231-.10439-.00927.04445-.01842.07828.02886-.10668-.02728.05133-.03856.07181q-.96633.515-1.18549-.08552a.56975.56975,0,0,1-.03455-.42651l.20588-.35326.12907-.10108.404-.1093-.02685.00139a.80055.80055,0,0,0,0,1.6011.87557.87557,0,0,0,.82806-1.13392.9297.9297,0,0,0-1.32576-.56711c-.65884.36492-.54977,1.17475-.49234,1.80528a4.242,4.242,0,0,0,1.25729,3.01259.83356.83356,0,0,0,.77889.20588.79467.79467,0,0,0,.55914-.55913,5.763,5.763,0,0,0-.59862-4.02346.80068.80068,0,1,0-1.38251.80811Z"/><path d="M136.85222,52.93779c.06946.12391.13235.25031.19316.37859q.05408.12276-.00855-.024.01732.04214.03358.08467.03834.09913.07235.19983a6.24456,6.24456,0,0,1,.1952.79547q.014.09111-.00707-.06248.00765.06028.01379.12072.00918.09064.01508.18161.01377.2121.00877.42494c-.00329.14192-.0149.28273-.0286.424-.0199.205.03357-.17466-.00472.02777-.01507.07964-.02893.15928-.04577.2386l1.338-.35325c-.11617-.09538-.20719-.231-.32308-.32109.028.02178.09464.13169.03456.04283-.02331-.03448-.04706-.06843-.06936-.10357q-.06025-.095-.112-.195-.02309-.04461-.04461-.09c-.01227-.02587-.07542-.16321-.02061-.04315.05081.11132.00284.00175-.00615-.02263q-.02212-.06-.0421-.12081a4.31611,4.31611,0,0,1-.12-.45182q-.02181-.10321-.03949-.20726c-.00747-.04355-.01326-.08744-.02091-.13095-.019-.10829.01929.16415.00685.05467-.01806-.159-.03491-.31784-.04661-.47747-.01156-.15773-.0199-.31567-.02675-.47367-.00173-.03987.00037-.0822-.00428-.12167-.01231-.10439-.00927.04445-.01843.07828.02887-.10668-.02727.05133-.03856.07181q-.96632.515-1.18548-.08552a.56975.56975,0,0,1-.03455-.42651l.20587-.35326.12908-.10108.40405-.1093-.02686.00139a.80055.80055,0,0,0,0,1.6011.87557.87557,0,0,0,.82807-1.13392.9297.9297,0,0,0-1.32576-.56711c-.65884.36492-.54977,1.17475-.49234,1.80528a4.242,4.242,0,0,0,1.25729,3.01259.83356.83356,0,0,0,.77889.20588.79467.79467,0,0,0,.55914-.55913,5.763,5.763,0,0,0-.59862-4.02346.80068.80068,0,0,0-1.38251.80811Z"/><path d="M152.47129,60.3939l-2.00862,1.43681a.86405.86405,0,0,0-.3679.47844.81818.81818,0,0,0,.0807.61687.80806.80806,0,0,0,.47844.3679.78693.78693,0,0,0,.61687-.0807l2.00862-1.43682a.86406.86406,0,0,0,.3679-.47843.81821.81821,0,0,0-.0807-.61688.8081.8081,0,0,0-.47844-.3679.78693.78693,0,0,0-.61687.08071Z"/><path d="M150.99907,59.82041l-.96927,2.67236a.80493.80493,0,0,0,.55913.98477.82141.82141,0,0,0,.98478-.55914l.96927-2.67235a.80493.80493,0,0,0-.55914-.98477.82139.82139,0,0,0-.98477.55913Z"/><path d="M154.53908,57.81415A6.43425,6.43425,0,0,0,151.09,59.6432a.80055.80055,0,1,0,1.13215,1.13215c.1008-.1027.20464-.20218.31276-.29717q.07627-.067.155-.13121c.03842-.03135.14821-.10444-.02264.015.02767-.01935.054-.0409.08121-.06093a5.6882,5.6882,0,0,1,.7312-.457c.119-.0624.25024-.10883.36615-.17567-.06345.03659-.14061.05753-.02727.0122q.04713-.01886.0946-.03686.09495-.036.19112-.06859a5.7079,5.7079,0,0,1,.8605-.217.80406.80406,0,0,0,.55914-.98477.823.823,0,0,0-.98477-.55913Z"/><path d="M171.87009,117.75721a14.82653,14.82653,0,0,0-4.19895-3.81533,7.855,7.855,0,0,0-4.96355-.91228.748.748,0,0,0-.51932.91467.76378.76378,0,0,0,.91466.51932c3.2807-.44189,5.82375,1.98527,7.71561,4.34517a.74823.74823,0,0,0,1.05155,0,.76136.76136,0,0,0,0-1.05155Z"/><path class="f" d="M167.06655,114.68c-.50449,1.85054-.54516,3.79269-1.04965,5.64323a.74419.74419,0,0,0,1.434.39533c.50449-1.85054.54516-3.79269,1.04965-5.64322a.74419.74419,0,0,0-1.434-.39534Z"/><path class="f" d="M171.87009,117.75721a5.15874,5.15874,0,0,0-3.5261-1.212,1.45157,1.45157,0,0,0-.87265.32049,2.0457,2.0457,0,0,0-.42662.523,7.02588,7.02588,0,0,0-.63524,1.48845,13.36146,13.36146,0,0,0-.39258,1.446.74374.74374,0,1,0,1.434.39533,13.36129,13.36129,0,0,1,.39258-1.446q.07066-.21471.14971-.42654c.026-.06928.05372-.13785.08065-.20677q.04742-.115-.0122.02782.021-.04853.04282-.09667c.0545-.12.11278-.23859.17826-.35305.0294-.0514.06239-.1004.0927-.15118.1002-.16785-.07711.06819.00226-.00883.032-.031.0676-.06635.09651-.10013.07561-.08834-.17306.10457-.0283.03011q-.20688.07914-.10375.04628a.62738.62738,0,0,1,.06639-.0123q-.18831.02379-.06453.01105.04743-.004.095-.00611a3.31605,3.31605,0,0,1,.42136.00947c.03894.00316.29093.03936.09169.007.08057.01309.161.02614.24105.04222a5.08312,5.08312,0,0,1,.49472.12554q.12486.03845.24761.0834.06159.02258.12254.04686-.11463-.05017.00355.00182a4.41474,4.41474,0,0,1,.45854.24283c.07191.04475.14171.09243.2102.14224-.13819-.10051.06457.05957.08832.08115a.74356.74356,0,0,0,1.05155-1.05155Z"/><path class="f" d="M169.81533,116.0975a1.41557,1.41557,0,0,0-.638-.15946,2.38493,2.38493,0,0,0-.53824.07091c-.25217.0567-.49732.14523-.75411.1806l.19767-.02656a1.0383,1.0383,0,0,1-.24212.00479l.19767.02656a.60571.60571,0,0,1-.14262-.037l.17762.075-.03276-.01543-.75057,1.28407a3.33082,3.33082,0,0,0,.54644.221,1.0487,1.0487,0,0,0,.85654-.11407.79239.79239,0,0,0,.34171-.44437.73582.73582,0,0,0-.075-.57295l-.71736-1.02835-1.01732,1.01733,1.24331.86338a.74375.74375,0,0,0,1.09229-.8397.83389.83389,0,0,0-.34171-.44438l-1.24332-.86338-.17762-.075a.56314.56314,0,0,0-.2965-.01328.70659.70659,0,0,0-.42694.2045.8849.8849,0,0,0-.19122.3281.74452.74452,0,0,0,.075.573l.71736,1.02834.26675-1.01733a.31982.31982,0,0,1-.06159.03664l.17762-.075a.37161.37161,0,0,1-.06892.01653l.19766-.02656a.51519.51519,0,0,1-.10038-.00353l.19767.02656a1.14435,1.14435,0,0,1-.24173-.07668l.17762.075c-.06021-.026-.11973-.0535-.17979-.07983a.81165.81165,0,0,0-.57295-.075.75829.75829,0,0,0-.44437.34171.75049.75049,0,0,0-.075.573.73951.73951,0,0,0,.34171.44437,1.41557,1.41557,0,0,0,.638.15947,2.38552,2.38552,0,0,0,.53824-.07092c.25217-.05669.49733-.14523.75411-.1806l-.19766.02657a1.03766,1.03766,0,0,1,.24211-.00479l-.19766-.02656a.60466.60466,0,0,1,.14261.037l-.17762-.075.03276.01544a.79213.79213,0,0,0,.573.075.75834.75834,0,0,0,.44437-.3417.75061.75061,0,0,0,.075-.573.73954.73954,0,0,0-.34171-.44437Z"/><path d="M137.30654,68.30793a2.609,2.609,0,0,1-.31442.93209c-.09115.16168-.1921.31773-.298.47007-.06333.09108-.12854.18128-.1955.26972.05241-.06922-.0148.019-.03141.03968a9.35448,9.35448,0,0,1-1.382,1.38369,8.752,8.752,0,0,1-3.64,1.74127.84334.84334,0,1,0,.44827,1.626,10.43923,10.43923,0,0,0,4.384-2.17492,9.43631,9.43631,0,0,0,1.46482-1.48878,5.12558,5.12558,0,0,0,1.1902-2.35056.87132.87132,0,0,0-.58887-1.03715.84924.84924,0,0,0-1.03715.58887Z"/><polygon class="b" points="171.238 167.735 163.958 170.654 145.289 169.242 122.333 167.458 121.214 165.723 122.334 161.915 111.218 122.915 103.192 110.088 106.792 97.957 123.359 89.903 128.385 84.476 128.71 87.705 128.352 93.316 137.24 108.423 151.237 89.388 151.087 80.303 155.986 84.535 174.696 92.451 176.1 118.609 173.824 126.686 171.238 167.735"/><g class="i"><polygon class="j" points="169.716 115.345 175.635 119.625 173.824 126.052 172.013 151.245 161.883 131.037 169.716 115.345"/></g><path d="M120.91936,103.665a6.69778,6.69778,0,0,1,2.8788-3.73358,13.64456,13.64456,0,0,1,3.78169-1.27982l-.95216-.38746a15.19488,15.19488,0,0,1,1.29507,3.95585c.1538.88474,1.13987,1.48951,1.78064,2.03543,1.14589.97628,2.30727,1.93446,3.44034,2.92575.50029.43769.99994.87878,1.4725,1.34659.15769.15611.31548.31389.4597.48269.13247.155.01462.06675.07449.09426a.94028.94028,0,0,1,.05.08452q-.25522-.47439.28418-.95225c-.88935.61009-.04692,2.07206.85109,1.456.9491-.65107.23294-1.57753-.3427-2.17207-.79242-.81844-1.67457-1.555-2.53981-2.29413-.96317-.82273-1.93965-1.62985-2.89951-2.45645-.31079-.26765-.62027-.53694-.91747-.8197a1.52148,1.52148,0,0,0-.13167-.132c-.11039-.08073-.01221-.08845-.03357-.02944-.00391.0108.08391.32421.13578.248.06213-.09135-.05052-.463-.06881-.57016a16.00467,16.00467,0,0,0-1.45422-4.054.85649.85649,0,0,0-.95216-.38747,13.76691,13.76691,0,0,0-4.51506,1.64312,8.7269,8.7269,0,0,0-3.32318,4.548c-.37788,1.01884,1.25131,1.45856,1.626.44827Z"/><path d="M128.18705,100.33632a21.761,21.761,0,0,0-4.17078.4911,26.8131,26.8131,0,0,0-3.90388,1.2685.86871.86871,0,0,0-.58887,1.03715.84911.84911,0,0,0,1.03715.58887,27.22119,27.22119,0,0,1,3.787-1.24164,19.2906,19.2906,0,0,1,3.8394-.45772c1.08276-.03145,1.08727-1.71784,0-1.68626Z"/><path d="M125.18179,87.58871c-2.62748,2.3233-3.96637,5.87737-4.81042,9.19394a34.69861,34.69861,0,0,0-1.02258,6.04809c-.07713,1.08287,1.60948,1.078,1.68626,0a31.848,31.848,0,0,1,.9222-5.44041c.774-3.10389,1.95639-6.43359,4.4169-8.60925.81459-.72029-.38167-1.90921-1.19236-1.19237Z"/><path class="f" d="M105.858,116.63637a13.96644,13.96644,0,0,1,5.11067,10.25351c.02813.95039,1.50845.9544,1.4802,0a15.409,15.409,0,0,0-5.54421-11.30017c-.72451-.60951-1.77681.43239-1.04666,1.04666Z"/><path d="M164.841,111.61135q-10.58321,1.46544-21.23576,2.30709c-1.07475.08427-1.08383,1.77124,0,1.68625q10.87794-.85293,21.684-2.36732c1.07024-.1482.61471-1.77322-.44828-1.626Z"/><path d="M142.88081,114.64863c-1.08163,2.20381-.88456,4.63977-1.42235,6.97692a.86136.86136,0,0,0,.58888,1.03715.85257.85257,0,0,0,1.03715-.58888c.49592-2.15519.25905-4.55024,1.25236-6.57411a.86487.86487,0,0,0-.30248-1.15356.851.851,0,0,0-1.15356.30248Z"/><path d="M142.54433,123.24491a137.18371,137.18371,0,0,0,20.353-.54469c1.069-.10959,1.08028-1.797,0-1.68626a137.18371,137.18371,0,0,1-20.353.54469c-1.08486-.05024-1.08233,1.63614,0,1.68626Z"/><path d="M164.43909,112.7667a21.9696,21.9696,0,0,1-.1218,8.39461c-.2218,1.0588,1.40331,1.51146,1.626.44828a24.1772,24.1772,0,0,0,.1218-9.29116.85056.85056,0,0,0-1.03715-.58888.86173.86173,0,0,0-.58887,1.03715Z"/><path d="M164.99892,120.69505l-2.10015.44846a.84334.84334,0,1,0,.44827,1.626l2.10016-.44845a.84335.84335,0,0,0-.44828-1.626Z"/><path class="f" d="M136.46584,167.7129a15.475,15.475,0,0,1,1.03492-4.80378,25.05569,25.05569,0,0,0,1.16447-5.63178c.25295-3.21431.24957-6.46187.273-9.684.05724-7.86759-.09082-15.73626-.24278-23.60206-.07016-3.63106-.14965-7.26205-.20018-10.89347a.84364.84364,0,0,0-1.68626,0c.19859,14.27028.93411,28.6061.24533,42.87118a25.15538,25.15538,0,0,1-1.17963,6.49187,16.88818,16.88818,0,0,0-1.09515,5.252.84364.84364,0,0,0,1.68626,0Z"/><path d="M132.51477,115.99477a11.53093,11.53093,0,0,1-1.62616,7.32422c-.5241.95108.93159,1.80278,1.456.85109a13.36427,13.36427,0,0,0,1.79615-8.62359.84921.84921,0,0,0-1.03715-.58887.864.864,0,0,0-.58887,1.03715Z"/><path d="M132.668,115.11433a66.14251,66.14251,0,0,0-18.05523,1.8227c-1.05415.25555-.60775,1.882.44827,1.626a64.41,64.41,0,0,1,17.607-1.76246c1.08526.04065,1.08355-1.64567,0-1.68626Z"/><path d="M114.33313,117.69855a14.07919,14.07919,0,0,1-.79438,5.73279.85129.85129,0,0,0,.58888,1.03715.86017.86017,0,0,0,1.03715-.58888,15.40787,15.40787,0,0,0,.8546-6.18106.86308.86308,0,0,0-.84312-.84313.85036.85036,0,0,0-.84313.84313Z"/><path d="M131.73208,122.74042c-.0769.01679-.32084.05282-.10987.02311-.17259.0243-.34681.03958-.52021.05679-.51683.05131-1.03479.09173-1.55261.13154-1.44293.11091-2.88713.20568-4.33122.30009-3.17745.20774-6.35675.39394-9.532.63365a20.8019,20.8019,0,0,0-2.84753.28815c-1.0597.23139-.61126,1.85737.44828,1.626.07731-.01688.32079-.05.10987-.02312.173-.022.34664-.03956.52021-.05679.51683-.0513,1.03479-.09173,1.55261-.13153,1.44293-.11091,2.88713-.20569,4.33122-.3001,3.17745-.20773,6.35675-.39393,9.532-.63364a20.80034,20.80034,0,0,0,2.84753-.28816c1.0597-.23138.61126-1.85737-.44828-1.626Z"/><line class="k" x1="128.69109" y1="101.22105" x2="124.25965" y2="102.0199"/><path d="M127.63623,97.91764a8.0194,8.0194,0,0,0-7.08734,4.0373l.07384.83783,6.96894-1.7931.93321.2523Z"/><path d="M157.14463,96.836c-1.50527.06461-3.00374.24469-4.50131.40218-.74148.078-1.48332.15408-2.22665.21246-.347.02725-.69449.052-1.04226.06653-.04012.00168-.198-.01665-.22694.00687.15571-.12671.26182.84574.44176.29535.0741-.22668.15209-.45218.22812-.67821l-1.65614-.22414a1.903,1.903,0,0,0,.68747,1.727,1.38962,1.38962,0,0,0,1.905-.37081,1.365,1.365,0,0,0-.43587-1.8828,1.06544,1.06544,0,0,0-1.56566,1.03381,1.4642,1.4642,0,0,0,1.45749,1.30224,4.24752,4.24752,0,0,0,1.40228-.15615c.49847-.11964.98695-.27717,1.48469-.39968.10233-.02519.205-.04936.30823-.07068.04154-.00857.34334-.05521.25935-.04683.08825-.00881.17655-.01184.2652-.013q.08215.00044.16389.00852-.14367-.0181-.00075.01236a.84386.84386,0,0,0,.44828-1.626c-1.26131-.41846-2.6711-.07273-3.96805-.12608-1.08512-.04464-1.08306,1.64171,0,1.68626,1.14478.04708,2.49776-.27323,3.51977.06584l.44828-1.626a4.75828,4.75828,0,0,0-2.42316.251c-.384.10676-.76674.22154-1.15681.30463a1.74982,1.74982,0,0,1-.43039.06327,1.58894,1.58894,0,0,1-.245-.00474l.0757.00808q-.49215-.18978-.13776.746h-.85109c-.23059-.10542.09871-.586.16974-.60231.023-.00528.39609.07335.332.14165.00473-.00505-.02759-.38784-.02665-.4256a.84723.84723,0,0,0-1.65614-.22414,3.07345,3.07345,0,0,0-.32144,1.549,1.23266,1.23266,0,0,0,1.2215.96487,17.76212,17.76212,0,0,0,2.58542-.18326c1.82052-.17951,3.639-.42277,5.46782-.50127,1.081-.0464,1.08684-1.73291,0-1.68626Z"/><path class="f" d="M101.80815,111.77355c2.47986,2.9007,4.98424,5.78035,7.46411,8.681a.85039.85039,0,0,0,1.19236,0,.86047.86047,0,0,0,0-1.19236c-2.47986-2.9007-4.98424-5.78035-7.46411-8.681a.85039.85039,0,0,0-1.19236,0,.86047.86047,0,0,0,0,1.19236Z"/><path class="f" d="M111.4697,123.02718c-1.18507-2.47173-2.94441-4.6-4.22158-7.015a.84326.84326,0,1,0-1.456.85108c1.27717,2.41492,3.03651,4.54324,4.22157,7.015a.8508.8508,0,0,0,1.15357.30247.86132.86132,0,0,0,.30247-1.15356Z"/><polygon class="b" points="189.869 144.151 184.439 150.345 174.589 146.298 156.292 108.9 161.861 99.932 165.947 91.818 175.881 91.643 189.869 144.151"/><path d="M175.72311,118.60507a15.4689,15.4689,0,0,0-4.78331-3.19027,7.72178,7.72178,0,0,0-4.971-.20085.74419.74419,0,0,0,.39534,1.434c3.20416-.93952,6.02852.92,8.30745,3.00868.70447.64563,1.75893-.40323,1.05155-1.05155Z"/><path class="f" d="M170.41644,116.30677c-.21668,1.90578.03767,3.83144-.179,5.73722a.748.748,0,0,0,.74355.74355.76111.76111,0,0,0,.74356-.74355c.21669-1.90578-.03766-3.83144.179-5.73722a.748.748,0,0,0-.74356-.74356.76111.76111,0,0,0-.74356.74356Z"/><path class="f" d="M175.57262,118.48881a4.64059,4.64059,0,0,0-2.00786-.6698,4.5075,4.5075,0,0,0-1.75483.0877c-1.03807.29169-1.24973,1.64037-1.39435,2.552a15.27479,15.27479,0,0,0-.17816,1.58529.74842.74842,0,0,0,.74355.74355.76012.76012,0,0,0,.74356-.74355c.0083-.15739.02088-.31452.03585-.47141q.0132-.13826.029-.27626.00908-.07962.019-.15915c.00291-.02335.00634-.04668.00891-.07007.011-.09979-.02262.156-.00745.055a10.1603,10.1603,0,0,1,.27093-1.34739c.0267-.09134.05558-.1821.08836-.27145a.57129.57129,0,0,0,.04423-.11419c-.01353.12992-.06276.1354-.0285.07164.01151-.02143.021-.044.03221-.06567.01838-.03553.03882-.06968.05883-.10427.008-.01382.01868-.02645.02613-.04053.03729-.07044.05082.03271-.06221.07819.02132-.00858.03589-.04724.0564-.06029.07854-.05-.18066.11571-.05118.04484-.07126.039-.19491.06616-.05973.0333.04867-.01183.09659-.02588.14557-.03661.034-.00745.13988-.00725.15906-.02971-.00195.00228-.15908.01485-.07631.00992.04215-.00251.08464-.00939.12672-.013a4.63163,4.63163,0,0,1,.75626.00088q.04448.00352.08891.00775c.00309.00029.19184.02154.08053.00765-.09613-.012.00571.00108.02128.00375.05015.00862.10036.01665.15038.02611a4.56948,4.56948,0,0,1,.44659.10719q.11671.0345.23129.07586c.0283.01028.05623.02238.08474.032.10413.03514-.15518-.07533.01528.00686a3.40823,3.40823,0,0,1,.40651.2279.74882.74882,0,0,0,1.01732-.26675.76093.76093,0,0,0-.26675-1.01732Z"/><path class="f" d="M173.27811,117.178a2.39533,2.39533,0,0,0-1.63628.35434l.17762-.075a1.72919,1.72919,0,0,1-.418.12783l.19767-.02657a.727.727,0,0,1-.16085.002l.19766.02656a.57827.57827,0,0,1-.09393-.02128L171.14665,119a3.32265,3.32265,0,0,0,.58334.11453,1.02574,1.02574,0,0,0,.80118-.29936.75741.75741,0,0,0,0-1.05154l-.86544-.90726-.90106,1.16781,1.36018.66421a.79445.79445,0,0,0,.57295.075.75833.75833,0,0,0,.44437-.34171.7505.7505,0,0,0,.075-.573.73659.73659,0,0,0-.34171-.44438l-1.36018-.6642a.779.779,0,0,0-.57295-.075.77034.77034,0,0,0-.38624.26646.74665.74665,0,0,0,.05813.97631l.86544.90725v-1.05154a.22735.22735,0,0,1-.0342.03157l.15048-.11627a.34149.34149,0,0,1-.05969.03228l.17762-.075a.45506.45506,0,0,1-.068.01658l.19767-.02656a.6766.6766,0,0,1-.1533-.00325l.19767.02656a3.25133,3.25133,0,0,1-.34586-.08357.74374.74374,0,0,0-.39533,1.434,2.39534,2.39534,0,0,0,1.63628-.35434l-.17762.075a1.72878,1.72878,0,0,1,.418-.12782l-.19766.02656a.727.727,0,0,1,.16085-.002l-.19767-.02656a.57884.57884,0,0,1,.09393.02128.75009.75009,0,0,0,.91467-.51933.75983.75983,0,0,0-.51933-.91466Z"/><path d="M128.25525,55.11815c.69526.97375.29828,2.51346.0247,3.57456a35.31833,35.31833,0,0,1-1.30912,3.831.65357.65357,0,0,0,.45295.79776.66324.66324,0,0,0,.79776-.453,31.53685,31.53685,0,0,0,1.404-4.21971c.301-1.31045.58772-3.01147-.25038-4.18529-.48091-.67355-1.60633-.02656-1.12.65464Z"/><path d="M127.49332,61.25512a2.44069,2.44069,0,0,0-.5563,2.3193,2.66557,2.66557,0,0,0,1.79515,1.95665,4.67365,4.67365,0,0,0,4.70786-.46148,3.75746,3.75746,0,0,0,1.23894-1.15083,1.87376,1.87376,0,0,0,.13315-1.681c-.23291-.57388-.6569-.99842-1.3263-.78952-.79419.24785-.45518,1.50037.34481,1.25071q.29338-.06758-.27233-.1271-.05808-.08046.0065.026c-.00963-.08015.06707.16993.05905.14414a.54582.54582,0,0,1-.01217.42363,2.20905,2.20905,0,0,1-.92065.84543,3.07238,3.07238,0,0,1-2.62357.53768,3.88357,3.88357,0,0,1-1.14268-.34406,2.03186,2.03186,0,0,1-.47951-.35315c-.09907-.09585-.02056-.00328-.07534-.09479a1.38922,1.38922,0,0,1-.09516-.182c.02205.05371-.03631-.12924-.044-.15748a2.05548,2.05548,0,0,1-.05647-.26468,3.484,3.484,0,0,1-.00763-.37738,1.0921,1.0921,0,0,1,.08586-.41247.71345.71345,0,0,1,.15789-.19047.65329.65329,0,0,0,0-.91714.663.663,0,0,0-.91714,0Z"/><path d="M114.48938,124.73035a13.59126,13.59126,0,0,1,.25423,4.58552c-.07579.70247-.16461,1.40313-.20916,2.10861a7.41392,7.41392,0,0,0,.03058,2.437,3.02149,3.02149,0,0,0,.982,1.32058,4.05061,4.05061,0,0,0,2.17771.56034c1.86524.26775,3.72824.5195,5.6039.70656a36.55907,36.55907,0,0,0,6.32444.18592,2.60082,2.60082,0,0,0,2.57164-1.81659,46.91935,46.91935,0,0,0,.91426-7.63236,61.83021,61.83021,0,0,1,1.01741-8.69244c.21921-.9391-1.22673-1.33993-1.44642-.39876-1.07183,4.59168-.98211,9.44642-1.56922,14.11226-.09385.7458-.06733,2.05991-.61735,2.61163-.48963.49114-1.45.35919-2.09851.37528-.99639.02472-1.99315-.00605-2.98766-.06873-1.88438-.11877-3.77365-.32254-5.64362-.58313-.70257-.09791-1.403-.21044-2.1057-.30757-.6224-.086-1.44515-.0581-1.68438-.80159a7.56462,7.56462,0,0,1,.06941-2.51831c.05493-.64208.14225-1.28071.2044-1.922a14.42458,14.42458,0,0,0-.34151-4.66095c-.21476-.94073-1.66132-.54257-1.44642.39876Z"/><path d="M144.13523,122.56654q.066,2.76936.14308,5.53844.06135,2.22606.13184,4.45185c.04182,1.29086-.20689,2.98816.64127,4.045.60416.75283,1.65947-.31449,1.06066-1.06066-.28537-.35559-.144-1.28237-.15947-1.72243q-.03384-.96344-.06364-1.927-.0672-2.14437-.12442-4.289-.06852-2.518-.12932-5.03619a.75046.75046,0,0,0-1.5,0Z"/><path d="M160.67294,138.65908c1.18587-.2025,2.58172-.69116,2.95292-1.97176a32.90988,32.90988,0,0,0,.79843-4.74389,96.28659,96.28659,0,0,1,1.522-10.236c.23111-.93718-1.215-1.337-1.44642-.39876a82.7236,82.7236,0,0,0-1.39742,9.27878c-.199,1.54861-.401,3.10013-.69531,4.63409-.11153.58137-.12173,1.16885-.64188,1.52648a3.90543,3.90543,0,0,1-1.49106.46462c-.94959.16216-.547,1.60791.39876,1.44642Z"/><path d="M165.71374,137.99776l3.72679-.82467,1.9572-.43309a2.21816,2.21816,0,0,0,1.10444-.77887l1.56242-1.58813c.76174-.77428-.42977-1.96752-1.19236-1.19237L170.80681,135.28l.372-.21683-5.9134,1.30853c-1.05908.23435-.61089,1.86039.44828,1.626Z"/><path d="M168.14351,148.56407a5.99106,5.99106,0,0,1,.72551-.153c.16711-.02766.33467-.05265.50237-.07648l.14275-.02c.025-.00345.16073-.0217.0343-.00484-.13785.01838.0384-.005.06716-.00877l.15245-.0198c.82322-.10609,1.64786-.20108,2.46954-.31893a.8454.8454,0,0,0,.58887-1.03715.86983.86983,0,0,0-1.03715-.58887c-.0949.01361-.19055.02446-.28516.03992.05057-.00826.159-.021.04647-.00627l-.1512.01983q-.28016.03641-.56054.0711c-.39769.0496-.79554.098-1.19294.15a12.64757,12.64757,0,0,0-1.95071.32725.84334.84334,0,1,0,.44828,1.626Z"/><polygon points="128.246 100.407 125.915 99.567 123.436 99.964 122.195 100.895 120.938 102.389 121.878 103.089 128.93 100.558 128.93 100.558 128.246 100.407"/><path d="M107.4979,104.97234a30.84592,30.84592,0,0,0,5.50657-.95582,27.88027,27.88027,0,0,1,8.87381-.17781c.9546.12341.94558-1.37775,0-1.5a29.02886,29.02886,0,0,0-8.96044.173,32.233,32.233,0,0,1-5.41994.96065.75045.75045,0,0,0,0,1.5Z"/><path d="M107.98,104.35526c1.02215-2.74967,2.1556-5.46167,3.24379-8.18577l-.34922.34922,5.82648-2.04027a2.43012,2.43012,0,0,0,.4114-.14406c.00906-.0053.106-.02736.10777-.03774-.01048.06251-.33365-.07865-.20229.004a4.56871,4.56871,0,0,0,1.34491.24177l3.0126.54155c.62925.11311.89923-.85042.26584-.96428-1.395-.25077-2.78856-.512-4.1854-.75238a1.643,1.643,0,0,0-.9465.12091l-2.26482.79308-2.51647.8812a5.41879,5.41879,0,0,0-1.2388.44237c-.30923.21437-.43978.82473-.57089,1.15333q-.45987,1.15252-.91887,2.30539c-.66581,1.67251-1.35651,3.33838-1.98381,5.02587-.22453.604.74165.86475.96428.26584Z"/><path d="M110.91913,97.792a1.88468,1.88468,0,0,0-.4857,1.52569,2.735,2.735,0,0,0,.61286,1.56754.75.75,0,0,0,1.28033-.53033.83663.83663,0,0,0-.21967-.53033c-.01391-.01623-.02737-.03263-.04061-.04941l.11727.15179a1.59956,1.59956,0,0,1-.19531-.34625l.0756.17916a2.30937,2.30937,0,0,1-.14686-.55024l.0268.19938a2.01832,2.01832,0,0,1-.005-.51069l-.02679.19938a1.30055,1.30055,0,0,1,.08266-.31527l-.07561.17916a.88687.88687,0,0,1,.10778-.18483l-.11728.15179a.8077.8077,0,0,1,.07021-.07588.75688.75688,0,0,0,0-1.06066.76522.76522,0,0,0-1.06066,0Z"/><path d="M159.79047,95.23268c2.07873.52616,4.20858.85357,6.326,1.17977,1.50559.23195,3.0685.35892,4.5495.72511.93708.23169,1.33687-1.21447.39876-1.44642-1.481-.36619-3.04391-.49316-4.5495-.72511-2.11739-.3262-4.24724-.65361-6.326-1.17977a.75065.75065,0,0,0-.39876,1.44642Z"/><path d="M157.67317,87.50849c2.59595.70664,5.16494,1.52668,7.72672,2.34671a59.51641,59.51641,0,0,1,7.59835,2.6811c.86641.41508,1.62823-.87785.75708-1.29521a61.13619,61.13619,0,0,0-7.77417-2.77382c-2.62194-.84127-5.25173-1.68181-7.90922-2.4052a.75064.75064,0,0,0-.39876,1.44642Z"/><path d="M159.49238,92.849H169.318a.75045.75045,0,0,0,0-1.5h-9.82566a.75045.75045,0,0,0,0,1.5Z"/><ellipse class="l" cx="167.32274" cy="106.03656" rx="1.81965" ry="0.97444" transform="translate(-29.63832 127.17877) rotate(-38.49024)"/><ellipse class="l" cx="166.96323" cy="108.53935" rx="1.81965" ry="0.97444" transform="translate(-31.27413 127.49884) rotate(-38.49024)"/><ellipse class="l" cx="166.50759" cy="111.20138" rx="1.81965" ry="0.97444" transform="translate(-33.02992 127.79368) rotate(-38.49024)"/><ellipse class="l" cx="165.98492" cy="114.1166" rx="1.81965" ry="0.97444" transform="translate(-34.95787 128.10182) rotate(-38.49024)"/><ellipse class="l" cx="165.23782" cy="116.92702" rx="1.81965" ry="0.97444" transform="translate(-36.86936 128.2475) rotate(-38.49024)"/><ellipse class="l" cx="164.67727" cy="119.62822" rx="1.81965" ry="0.97444" transform="translate(-38.67234 128.48556) rotate(-38.49024)"/><ellipse class="l" cx="164.36365" cy="122.54823" rx="1.81965" ry="0.97444" transform="translate(-40.55784 128.92484) rotate(-38.49024)"/><ellipse class="l" cx="163.85593" cy="125.46955" rx="1.81965" ry="0.97444" transform="translate(-42.48634 129.24361) rotate(-38.49024)"/><ellipse class="l" cx="163.77173" cy="128.62994" rx="1.81965" ry="0.97444" transform="translate(-44.4716 129.87791) rotate(-38.49024)"/><ellipse class="l" cx="163.59367" cy="131.47938" rx="1.81965" ry="0.97444" transform="translate(-46.28373 130.38623) rotate(-38.49024)"/><ellipse class="l" cx="163.59654" cy="134.54562" rx="1.81965" ry="0.97444" transform="translate(-48.19147 131.05427) rotate(-38.49024)"/><path class="l" d="M165.19445,136.50242c.131.56225-.44773,1.42542-1.29258,1.92793s-1.63592.45409-1.7669-.10816.95-1.66607,1.79487-2.16858S165.06347,135.94016,165.19445,136.50242Z"/><ellipse class="l" cx="164.30507" cy="140.04234" rx="1.81965" ry="0.97444" transform="matrix(0.78271, -0.62238, 0.62238, 0.78271, -51.45857, 132.6896)"/><ellipse class="l" cx="164.96743" cy="142.66324" rx="1.81965" ry="0.97444" transform="translate(-52.94585 133.67133) rotate(-38.49024)"/><ellipse class="l" cx="165.62888" cy="144.84057" rx="1.81965" ry="0.97444" transform="translate(-54.15726 134.55611) rotate(-38.49024)"/><path class="m" d="M166.76977,104.66924l2.53326-9.40532,1.02141.33555a.94357.94357,0,0,1,.3444,1.03848l-2.57539,7.42216Z"/><path class="n" d="M141.59115,123.1141s1.71462,26.01716,11.84314,26.25494,10.85809-9.61424,10.85809-9.61424"/><path class="n" d="M168.95129,95.20531s5.00615-3.14708,5.20267-3.13149"/><path class="n" d="M168.95129,95.20531s1.81162-3.9625,3.79084-3.9625"/><path d="M166.20776,108.5936a1.77452,1.77452,0,0,1,.11329.21908l-.0756-.17916a1.1784,1.1784,0,0,1,.07808.2804l-.02679-.19938a.91839.91839,0,0,1,.0012.217l.02679-.19938a.8746.8746,0,0,1-.05694.21194l.0756-.17916a1.02924,1.02924,0,0,1-.12746.21625l.11728-.15179a1.51419,1.51419,0,0,1-.25975.25532l.15179-.11727a3.25058,3.25058,0,0,1-.72587.40222l.17916-.07561c-.20421.0859-.416.15769-.61546.25438a.75738.75738,0,0,0-.34467.44823.76647.76647,0,0,0,.07561.57792.757.757,0,0,0,.44822.34467.8373.8373,0,0,0,.57792-.07561c.01925-.00934.03882-.01794.0585-.02632l-.17915.0756a7.77791,7.77791,0,0,0,1.07668-.48847,2.37379,2.37379,0,0,0,.591-.4812,1.83087,1.83087,0,0,0,.25787-.3707,1.74186,1.74186,0,0,0,.17283-.621,1.83035,1.83035,0,0,0-.295-1.095.75012.75012,0,0,0-1.29521.75708Z"/><path d="M167.21545,105.51642q.02964.06025.05655.12164l-.07561-.17916a1.7953,1.7953,0,0,1,.12264.42225l-.02679-.19938a1.33658,1.33658,0,0,1,.00267.34787l.02679-.19938a1.25234,1.25234,0,0,1-.08565.30581l.0756-.17916a1.44769,1.44769,0,0,1-.168.28387l.11727-.15179a2.06673,2.06673,0,0,1-.37516.3676l.15179-.11728a3.84614,3.84614,0,0,1-.58.35634c-.13511.06912-.27736.1277-.408.20512a.75012.75012,0,0,0,.75708,1.29521c.29645-.17566.617-.29672.9008-.49731a3.08634,3.08634,0,0,0,.73143-.70081,1.96841,1.96841,0,0,0,.35607-.96822,2.3204,2.3204,0,0,0-.28425-1.2703.75444.75444,0,0,0-1.02615-.26906.769.769,0,0,0-.26906,1.02614Z"/><path d="M166.40541,111.4547c.02832.05332.05465.10733.07882.16267l-.0756-.17916a1.527,1.527,0,0,1,.10646.37418l-.02679-.19938a1.15931,1.15931,0,0,1,.00041.28835l.02679-.19938a1.09987,1.09987,0,0,1-.07051.2568l.0756-.17916a1.27628,1.27628,0,0,1-.16394.2753l.11727-.15179a1.86564,1.86564,0,0,1-.32023.31069l.15179-.11728a3.54574,3.54574,0,0,1-.61632.3668c-.14585.07021-.29938.12788-.44128.20594a.75725.75725,0,0,0-.26906,1.02614.76546.76546,0,0,0,1.02614.26906c.29666-.16319.6149-.27352.90012-.461a2.19154,2.19154,0,0,0,1.07024-1.50242,2.14122,2.14122,0,0,0-.27471-1.30343.75628.75628,0,0,0-1.02614-.26907.76655.76655,0,0,0-.26906,1.02615Z"/><path d="M165.71219,114.79484a1.55788,1.55788,0,0,1,.126.23216l-.0756-.17916a1.01452,1.01452,0,0,1,.0687.24665l-.02679-.19938a.7945.7945,0,0,1,0,.19161l.02679-.19938a.76622.76622,0,0,1-.05267.18792l.0756-.17916a.91582.91582,0,0,1-.10772.18068l.11727-.15179a1.34954,1.34954,0,0,1-.23634.23159l.15179-.11727a2.8623,2.8623,0,0,1-.62977.34946l.17916-.07561c-.2494.10476-.50729.18627-.7542.29731a.75194.75194,0,0,0-.34467.44822.7665.7665,0,0,0,.0756.57792.75705.75705,0,0,0,.44822.34467l.19938.02679a.74652.74652,0,0,0,.37854-.10239l.01874-.00823-.17916.07561c.35558-.14976.72515-.26117,1.066-.44644a1.89413,1.89413,0,0,0,1.04061-1.24052,1.60546,1.60546,0,0,0-.01974-.693,1.9069,1.9069,0,0,0-.25056-.55538.79145.79145,0,0,0-.44822-.34467.76645.76645,0,0,0-.57792.07561.75.75,0,0,0-.26907,1.02614Z"/><path d="M165.02413,117.33286a1.38678,1.38678,0,0,1,.1369.24061l-.0756-.17916a.87913.87913,0,0,1,.06075.21831l-.02679-.19938a.691.691,0,0,1-.00108.17016l.02679-.19938a.67744.67744,0,0,1-.04357.15524l.07561-.17916a.80665.80665,0,0,1-.09628.16315l.11728-.15179a1.20734,1.20734,0,0,1-.21548.21069l.1518-.11728a2.55347,2.55347,0,0,1-.55077.30625l.17916-.07561c-.22643.09552-.465.15847-.69121.25308a.83919.83919,0,0,0-.44823.34467.75.75,0,0,0,.26907,1.02614.722.722,0,0,0,.57792.07561c.12015-.05025.24654-.08633.3693-.12956a6.25981,6.25981,0,0,0,.68365-.28234,1.83673,1.83673,0,0,0,1.06608-1.18683,1.592,1.592,0,0,0-.2701-1.2205.80417.80417,0,0,0-.44822-.34467.7665.7665,0,0,0-.57792.0756.757.757,0,0,0-.34467.44823.74231.74231,0,0,0,.07561.57792Z"/><path d="M164.58481,119.742a1.47873,1.47873,0,0,1,.13236.24041l-.0756-.17916a.96982.96982,0,0,1,.062.21915l-.02679-.19938a.74889.74889,0,0,1,.00038.19886l.02679-.19938a.73219.73219,0,0,1-.04685.16639l.07561-.17916a.867.867,0,0,1-.10259.17434l.11727-.15179a1.28562,1.28562,0,0,1-.2279.22407l.15179-.11728a2.73359,2.73359,0,0,1-.60233.33441l.17916-.0756c-.26362.11062-.53649.19477-.79864.3093a.75023.75023,0,0,0-.34467.44823.76653.76653,0,0,0,.07561.57791.757.757,0,0,0,.44822.34467l.19938.02679a.74657.74657,0,0,0,.37854-.10239l.012-.00519-.17916.07561c.35353-.14761.72016-.254,1.06174-.43278a2.50362,2.50362,0,0,0,.61848-.44574,1.51359,1.51359,0,0,0,.43075-.773,1.56569,1.56569,0,0,0-.02082-.69619,1.86488,1.86488,0,0,0-.24957-.54015.79628.79628,0,0,0-.44822-.34467.76645.76645,0,0,0-.57792.07561.74995.74995,0,0,0-.26906,1.02614Z"/><path d="M164.07572,122.80448a1.26519,1.26519,0,0,1,.1466.25007l-.07561-.17916a.797.797,0,0,1,.05184.18426l-.02679-.19938a.627.627,0,0,1,.00084.15571l.02679-.19938a.61215.61215,0,0,1-.03865.14251l.07561-.17916a.7344.7344,0,0,1-.09549.16046l.11727-.15179a1.12182,1.12182,0,0,1-.19142.18524l.15179-.11728a2.35116,2.35116,0,0,1-.50735.28214l.17916-.07561c-.24925.10506-.51193.16939-.76271.26861a.81776.81776,0,0,0-.44822.34467.75.75,0,0,0,.26907,1.02614.72912.72912,0,0,0,.57791.07561c.11782-.04662.24121-.07988.3614-.11974a6.393,6.393,0,0,0,.69487-.27536,1.76176,1.76176,0,0,0,1.06139-1.15531,1.40606,1.40606,0,0,0-.02-.664,1.669,1.669,0,0,0-.25313-.51633.81548.81548,0,0,0-.44823-.34467.76648.76648,0,0,0-.57791.0756.757.757,0,0,0-.34467.44823.732.732,0,0,0,.0756.57792Z"/><path d="M164.32722,125.18528c.03195.05768.06132.11619.08789.17653l-.07561-.17916a1.4058,1.4058,0,0,1,.09942.34739l-.02679-.19938a1.07,1.07,0,0,1,.00014.26846l.02679-.19937a1.02046,1.02046,0,0,1-.06665.23981l.07561-.17916a1.18911,1.18911,0,0,1-.14361.24313l.11727-.15179a1.72628,1.72628,0,0,1-.30145.29622l.15179-.11727a3.37841,3.37841,0,0,1-.63662.37339c-.15233.071-.31263.12817-.4613.20664a.75611.75611,0,0,0-.26906,1.02614.76674.76674,0,0,0,1.02614.26906c.29344-.15488.60715-.25871.89052-.43607a2.12329,2.12329,0,0,0,1.07717-1.471,2.03708,2.03708,0,0,0-.27645-1.27061.75746.75746,0,0,0-1.02614-.26906.76525.76525,0,0,0-.26906,1.02614Z"/><path d="M164.14652,128.83962a1.66046,1.66046,0,0,1,.12016.227l-.0756-.17916a1.09236,1.09236,0,0,1,.07309.26361l-.02679-.19938a.85374.85374,0,0,1,.00015.20433l.02679-.19938a.8195.8195,0,0,1-.05539.19993l.07561-.17916a.97216.97216,0,0,1-.1132.19168l.11727-.15179a1.41964,1.41964,0,0,1-.24735.24463l.15179-.11727a3.03229,3.03229,0,0,1-.67932.37765l.17916-.07561c-.22784.09571-.46349.17282-.68759.2775a.75464.75464,0,0,0-.34467.44823.76655.76655,0,0,0,.07561.57792.75705.75705,0,0,0,.44822.34467.84942.84942,0,0,0,.57792-.07561l.0411-.01816-.17916.07561a8.87183,8.87183,0,0,0,1.07517-.4694,2.41108,2.41108,0,0,0,.59819-.46671,1.71608,1.71608,0,0,0,.26555-.37029,1.66724,1.66724,0,0,0,.1743-.61444,1.755,1.755,0,0,0-.29581-1.07353.78554.78554,0,0,0-.44822-.34467.75018.75018,0,0,0-.847,1.10175Z"/><path d="M163.77009,131.3801a1.74235,1.74235,0,0,1,.11245.21315l-.0756-.17916a1.1509,1.1509,0,0,1,.07861.27306l-.02679-.19938a.88124.88124,0,0,1,.00078.22825l.02679-.19938a.85252.85252,0,0,1-.0519.19012l.0756-.17916a.99388.99388,0,0,1-.12332.21136l.11728-.15179a1.46668,1.46668,0,0,1-.2535.2501l.15179-.11727a3.13806,3.13806,0,0,1-.70269.3902l.17916-.07561c-.21608.09084-.43988.16539-.65166.26626a.756.756,0,0,0-.34467.44822.76655.76655,0,0,0,.07561.57792.75705.75705,0,0,0,.44822.34467.843.843,0,0,0,.57792-.07561c.01634-.00778.03289-.015.04955-.0221l-.17916.07561a8.34754,8.34754,0,0,0,1.07231-.47687,2.40626,2.40626,0,0,0,.59576-.47322,1.61976,1.61976,0,0,0,.438-.99181,1.7912,1.7912,0,0,0-.29533-1.08464.78284.78284,0,0,0-.44823-.34467.75019.75019,0,0,0-.847,1.10175Z"/><path d="M163.60817,134.65462a1.40079,1.40079,0,0,1,.1373.24411l-.0756-.17916a.90855.90855,0,0,1,.05842.2063l-.02679-.19938a.71129.71129,0,0,1,.002.1738l.0268-.19938a.68474.68474,0,0,1-.04656.17108l.07561-.17916a.82175.82175,0,0,1-.09785.16522l.11728-.15179a1.22746,1.22746,0,0,1-.21809.21319l.15179-.11727a2.60749,2.60749,0,0,1-.569.31527l.17916-.07561c-.27891.117-.56833.20372-.847.3215a.74825.74825,0,0,0-.34467.44822.7665.7665,0,0,0,.0756.57792.757.757,0,0,0,.44823.34467l.19938.02679a.74648.74648,0,0,0,.37854-.1024l.00571-.00241-.17916.07561c.1216-.05021.24871-.08751.37254-.13176a6.09866,6.09866,0,0,0,.68749-.28773,2.49439,2.49439,0,0,0,.62535-.4388,1.47289,1.47289,0,0,0,.43018-.76,1.50355,1.50355,0,0,0-.01938-.67918,1.78478,1.78478,0,0,0-.25209-.53673.80235.80235,0,0,0-.44823-.34467.76651.76651,0,0,0-.57792.07561.757.757,0,0,0-.34467.44822.74439.74439,0,0,0,.07561.57792Z"/><path d="M159.28666,104.237c.766-.28905,1.5553-.49131,2.339-.72391a10.50536,10.50536,0,0,0,2.34945-1.00237.75012.75012,0,1,0-.75707-1.2952c-.19322.11372-.38921.22218-.59.322q-.13107.06513-.26436.12565c-.04307.01954-.08647.03827-.12966.0575-.11035.04913.09744-.03878-.01269.00472-.34658.13688-.69872.2547-1.05625.35956-.76376.224-1.53139.42426-2.27711.70567a.76709.76709,0,0,0-.52383.92259.75861.75861,0,0,0,.92259.52383Z"/><polygon class="o" points="163.089 88.511 170.051 90.164 174.974 92.538 173.02 90.197 166.039 87.697 162.201 88.244 163.089 88.511"/><path class="p" d="M146.31706,113.2812l-.52344.05505.15527-.73328.19727-.02063a1.09148,1.09148,0,0,0,.44726-.12707.616.616,0,0,0,.23926-.26306.99923.99923,0,0,0,.085-.41236c.00293-.16345.00293-.41394-.00293-.75146l-.00586-.05542a.5852.5852,0,0,0-.0791-.25928.3667.3667,0,0,0-.165-.13916.74225.74225,0,0,0-.33691-.01941l-1.40137.14734-.21094-2.00269.89453-.094.13575,1.2937.63086-.06641a1.46265,1.46265,0,0,1,.998.17249,1.054,1.054,0,0,1,.4043.806l.01172.1582.01172.7605a1.50412,1.50412,0,0,1-.35449,1.09192A1.77057,1.77057,0,0,1,146.31706,113.2812Z"/><path class="p" d="M149.27116,108.85944l-.17481,1.26184-.76172.08.39454-1.28467Zm1.15234-.12109-.18262,1.26269-.7539.07923.39648-1.28516Z"/><path class="p" d="M154.68229,112.4018l-.89453.09412-.19824-1.88623a.92349.92349,0,0,0-.25782-.59021.79348.79348,0,0,0-.6582-.16187,4.53352,4.53352,0,0,0-.50976.08557c-.17872.04029-.47266.12207-.88379.24573l-.00391-.7334a6.77154,6.77154,0,0,1,1.51465-.34411,1.38741,1.38741,0,0,1,1.68945,1.371Zm-2.18457.22974-.89746.09436-.20508-1.95.85156-.52918Z"/><path class="p" d="M155.2985,111.60346l1.69531-.1781-1.97656-2.17285.77539-.49024,1.26367,1.39344a1.14156,1.14156,0,0,0,.11328-.33264,1.82739,1.82739,0,0,0-.00292-.46314l-.06934-.65356.87988-.09253.07617.72021a1.48448,1.48448,0,0,1-.07714.68714,2.1374,2.1374,0,0,1-.46778.678l.624.71-.07911.63843-2.84472.299Z"/><polygon class="o" points="154.262 98.367 157.145 98.193 161.224 100.094 160.474 94.205 166.627 95.639 164.156 102.339 161.913 110.936 158.172 109.604 155.966 107.836 154.001 105.117 153.639 101.497 154.262 98.367"/><path d="M168.131,96.31358c-2.3481,3.66839-3.93622,6.25872-3.84235,10.61324a16.89942,16.89942,0,0,1-.02743,3.4836c-.2231.74-2.969,1.07324-3.02033-.02743-.21515-4.61089,1.57965-11.90858,4.71395-15.29721"/><polygon class="j" points="111.436 125.883 113.523 131.002 85.387 153.228 83.591 146.028 83.735 143.917 86.785 149.978 84.408 133.777 90.587 145.858 93.617 135.055 96.885 141.857 108.038 132.605 111.436 125.883"/><path class="f" d="M108.98584,119.89859c1.12822,3.22313,2.13569,6.48752,3.26391,9.71066l1.541-.64968c-2.61748-4.56418-4.71065-9.417-7.32812-13.98116a.84376.84376,0,0,0-1.456.85109c2.61748,4.56418,4.71065,9.417,7.32812,13.98115.46341.808,1.8637.27214,1.541-.64968-1.12821-3.22313-2.13569-6.48752-3.26391-9.71066-.3562-1.01763-1.98588-.57978-1.626.44828Z"/><path d="M82.35436,133.31708a45.75871,45.75871,0,0,1,3.56581,4.927,15.671,15.671,0,0,1,2.47781,5.4181c.109.633,1.07287.36462.96428-.26584a16.42133,16.42133,0,0,0-2.57862-5.657A47.57958,47.57958,0,0,0,83.06147,132.61c-.41217-.49508-1.11626.21565-.70711.70711Z"/><path class="q" d="M92.548,132.55211s2.61488,8.13769,2.06033,12.62222"/><path class="q" d="M83.48068,143.71579a25.09452,25.09452,0,0,1,2.789,8.24226"/><path d="M160.05719,100.07294a23.02586,23.02586,0,0,0,3.5475-1.86822c1.12151-.67812,2.22017-1.39384,3.34591-2.06489a.75056.75056,0,0,0-.75708-1.2952c-1.09748.65419-2.169,1.35119-3.26149,2.01376-.60137.36473-1.20712.723-1.82461,1.05992-.26326.14364-.52872.28343-.79795.41561-.12714.06242-.25506.12329-.3842.18147-.007.00317-.22268.09612-.08209.03759-.0612.02548-.12293.04963-.18475.07354a.772.772,0,0,0-.52383.92259.75557.75557,0,0,0,.92259.52383Z"/><path d="M155.39,85.13153c3.1771,3.93483,4.05163,9.75148,4.51087,14.63764l1.43931-.59619c-3.2883-3.197-8.07106-2.823-12.22883-3.86382a.85687.85687,0,0,0-.95215.38747,19.14272,19.14272,0,0,0-1.48645,7.24511l1.06727-.813c-3.91016-.78478-7.35825,3.46745-10.087,5.61686-.8519.671.34867,1.85694,1.19237,1.19237,1.36233-1.0731,2.613-2.28207,3.99981-3.32528,1.18639-.89246,2.86259-2.17583,4.44653-1.85793a.858.858,0,0,0,1.06727-.813,17.00263,17.00263,0,0,1,1.25622-6.394l-.95215.38746c3.77928.94607,8.501.52923,11.48473,3.43017.48393.4705,1.51073.16369,1.43931-.59618-.50706-5.39507-1.5053-11.49594-5.00476-15.83-.68183-.84445-1.86833.35517-1.19236,1.19236Z"/><path class="r" d="M156.154,131.84148s15.70251-2.24963,23.18678,5.26968"/><polyline class="a" points="114.2 143.428 113.952 145.891 112.823 152.549 113.037 153.746 115.151 154.928 116.867 154.572 117.362 155.844 119.039 156.233 120.728 156.888 122.974 156.198 124.388 157.132 127.428 156.649 129.959 152.515 132.656 151.801 133.965 150.281 134.644 148.034 142.86 148.221 149.42 148.659 153.238 143.352 150.611 136.521 145.928 133.217 140.303 133.738 127.409 137.718 118.167 138.1 115.536 138.902"/><path class="f" d="M121.11841,146.42233c-.29682,1.00019-.8587,1.89186-1.18225,2.88227a5.74181,5.74181,0,0,0-.25685,1.4598c-.0019.033-.00781.06572-.00974.09867-.00936.15942.03283-.17752.00066-.01053-.02586.13422-.04436.27011-.069.40463-.126.68912-.27825,1.37445-.45037,2.05345-.07625.30082-.15613.60122-.24951.89723-.03889.12328-.086.24364-.12624.36628-.04984.1518.08-.14776.00624-.0204-.01725.0298-.03276.05986-.05189.08866-.58523.88084.83339,1.70233,1.41492.827a5.3567,5.3567,0,0,0,.55223-1.58922q.27139-1.04634.47057-2.111a18.15859,18.15859,0,0,1,.30913-1.90228c.31179-1.03942.91249-1.96554,1.22217-3.009a.82.82,0,0,0-1.58012-.43561Z"/><path class="f" d="M117.12521,154.38176c.39371-1.30968.64855-2.66995.9269-4.00734.33868-1.62716.66565-3.25917.92819-4.90059a.84476.84476,0,0,0-.57225-1.00787.82572.82572,0,0,0-1.00786.57225c-.26254,1.64143-.58951,3.27343-.92819,4.9006-.27836,1.33738-.53319,2.69765-.9269,4.00733a.82.82,0,0,0,1.58011.43562Z"/><path class="f" d="M124.07055,155.57074a8.07826,8.07826,0,0,0,.60406-1.3574c.205-.54006.3906-1.08916.54523-1.64586a14.8108,14.8108,0,0,1,.55708-1.73712,8.26079,8.26079,0,0,0,.62111-2.10787.82329.82329,0,0,0-.81932-.81933.84049.84049,0,0,0-.81932.81933,7.18887,7.18887,0,0,1-.58233,1.72,14.52638,14.52638,0,0,0-.53734,1.68938c-.14284.51427-.31267,1.02171-.49862,1.52191q-.07513.20212-.155.40246-.03013.07524-.0611.15018c.04329-.10417.00068-.00185-.02134.04713a4.33848,4.33848,0,0,1-.248.49014c-.55173.902.86494,1.72625,1.41492.82706Z"/><path class="f" d="M120.069,139.59608a9.56029,9.56029,0,0,1,.97885.21141c.15283.04345.29916.10867.451.15253-.22011-.06356-.10394-.045-.03923-.01529q.05752.02644.114.05522.10228.05224.2.11276c.06457.04017.25792.20567.05348.026.0567.04983.1149.09665.16848.15009q.04377.04365.08458.09c.088.1-.00469-.02245-.03649-.0532a.96479.96479,0,0,1,.14575.22874c.01464.02714.04641.13.06764.13811-.03132-.012-.07155-.18144-.01513-.02931.0329.0887.06182.17877.08913.26932.05987.19846.11257.39889.17811.59562a.81953.81953,0,1,0,1.58011-.43561,8.34481,8.34481,0,0,0-.48494-1.36519,2.82121,2.82121,0,0,0-.93408-.98456,5.56088,5.56088,0,0,0-2.16566-.72673.886.886,0,0,0-.63133.08259.81946.81946,0,0,0,.19572,1.49752Z"/><path class="f" d="M125.44905,141.11268c.278.195.55562.39061.82783.59363.065.04845.12869.09863.19392.1467-.05454-.04019-.13043-.10153-.03157-.02371q.04769.03753.095.07549.19822.159.38917.32688a7.46414,7.46414,0,0,1,.69573.69486c.05224.0601.10221.12195.15294.1833.10681.12915-.08357-.11429-.02572-.0338.02322.03231.04754.06384.07073.09619a5.18583,5.18583,0,0,1,.28437.444.81946.81946,0,0,0,1.41493-.82706,10.26539,10.26539,0,0,0-3.24031-3.09135.82345.82345,0,0,0-1.121.29393.84073.84073,0,0,0,.29393,1.121Z"/><path class="f" d="M129.5092,144.36785l.04026,3.66816a.82052.82052,0,0,0,.71042.80469.80741.80741,0,0,0,.899-.58689c.085-.62407.17224-1.24789.2545-1.87233a4.52741,4.52741,0,0,0-.05088-1.83614,3.318,3.318,0,0,0-2.15595-2.21467.82538.82538,0,0,0-1.00786.57225.83852.83852,0,0,0,.57224,1.00786q.06763.02145.13376.04715-.12993-.05614-.00153.00346c.0822.04708.16581.08919.24517.14147q.05916.039.116.08138-.10895-.08328-.00105.00624c.06646.06757.13739.12933.20086.20018q.04736.05286.09163.1083-.08436-.10793-.00257.00587c.0467.08129.09484.16417.14347.24429q.05984.1283.00565-.00257.02652.06567.049.13283a2.27042,2.27042,0,0,1,.06547.2391,2.35847,2.35847,0,0,1,.02684.56087c-.00506.12527-.01587.25025-.02892.37491q-.01.0937-.02178.1872-.02026.15585-.00772.06186c-.06656.50524-.13761,1.00993-.20641,1.51488l1.60938.21781-.04026-3.66816a.81933.81933,0,0,0-1.63865,0Z"/><path class="f" d="M135.49755,148.11525l2.43728.25134a.81956.81956,0,0,0,.57935-.24.81934.81934,0,0,0,0-1.1587.93585.93585,0,0,0-.57935-.24l-2.43728-.25133a.81952.81952,0,0,0-.57935.24.81931.81931,0,0,0,0,1.1587.93577.93577,0,0,0,.57935.24Z"/><path class="f" d="M134.6414,146.21867l-.36021,1.37167a.85269.85269,0,0,0,.08259.63134.81927.81927,0,0,0,1.121.29393.847.847,0,0,0,.37653-.48965l.36021-1.37168a.85262.85262,0,0,0-.0826-.63133.81927.81927,0,0,0-1.121-.29394.847.847,0,0,0-.37653.48966Z"/><path class="f" d="M114.55822,139.449a8.79014,8.79014,0,0,0-1.20877,3.67245.82169.82169,0,0,0,.81932.81933.84226.84226,0,0,0,.81933-.81933c.00547-.05252.01284-.31355.00506-.06908a1.56532,1.56532,0,0,1,.03052-.19994q.03546-.21379.08286-.42537a7.79888,7.79888,0,0,1,.21779-.77884q.06452-.1917.13895-.37989.02126-.05373.04331-.10716-.06825.16025-.01465.03622c.024-.05256.04707-.10555.07149-.15794a7.93748,7.93748,0,0,1,.40971-.76339.81946.81946,0,1,0-1.41492-.82706Z"/><path class="b" d="M160.44317,131.82594a20.9899,20.9899,0,0,1,4.742-3.25507"/><path class="b" d="M157.92889,131.92817s9.45024-.70341,15.79263,1.05263"/><path class="b" d="M135.78,142.51774c3.22673.036,4.2115.50785,7.24442,1.60989"/><polyline class="b" points="139.634 147.109 143.117 150.074 169.447 154.245 184.808 149.626 187.685 142.5 185.313 137.246 181.925 133.1 144.385 131.267 140.261 134.65"/></svg>