<svg id="Layer_1" data-name="Layer 1" xmlns="http://www.w3.org/2000/svg" xmlns:xlink="http://www.w3.org/1999/xlink" viewBox="0 0 222.67 270.67"><defs><style>.cls-1{fill:#cab192;}.cls-2{fill:#747c58;}.cls-3{fill:#ededed;}.cls-4{fill:#cecece;}.cls-5{fill:#080808;}.cls-6{fill:#54593e;}.cls-15,.cls-17,.cls-7{fill:none;}.cls-7{stroke:#000;stroke-width:0.28px;}.cls-15,.cls-16,.cls-17,.cls-7{stroke-linecap:round;}.cls-15,.cls-7{stroke-miterlimit:10;}.cls-8{fill:#27421d;}.cls-9{clip-path:url(#clip-path);}.cls-10{fill:#271d1d;}.cls-11{clip-path:url(#clip-path-2);}.cls-12{fill:#707171;}.cls-13{clip-path:url(#clip-path-3);}.cls-14{fill:#525222;}.cls-15,.cls-16,.cls-17{stroke:#27421d;stroke-width:0.56px;}.cls-16{fill:#284220;}.cls-16,.cls-17{stroke-linejoin:round;}.cls-18{fill:#231f20;}.cls-19{clip-path:url(#clip-path-4);}.cls-20{clip-path:url(#clip-path-5);}.cls-21{clip-path:url(#clip-path-6);}.cls-22{font-size:40px;fill:#fff;font-family:Rubik-Regular, Rubik;}</style><clipPath id="clip-path"><polygon class="cls-1" points="159.19 96.74 159.04 91.44 159.81 90.27 161.83 88.96 163.25 85.31 161.43 83.9 160.53 76.21 153.85 73.99 147.27 76.01 146.07 83.9 145.04 84.89 145.83 88.73 146.63 89.24 146.66 91.38 148.28 93.41 148.18 97.9 145.85 100.91 148.28 109.19 153.34 111.41 160.01 104.13 163.25 99.27 159.19 96.74"/></clipPath><clipPath id="clip-path-2"><polygon class="cls-2" points="169.16 117.48 168.91 135.99 165.41 137.4 156.43 136.72 145.39 135.86 144.85 135.03 145.39 133.19 140.04 114.44 136.18 108.27 137.91 102.43 145.88 98.56 148.3 95.95 148.46 97.5 148.28 100.2 152.56 107.47 159.29 98.31 159.38 96.3 159.35 95.58 159.07 93.52 161.57 95.98 172.91 100.32 173.92 111.78 169.16 117.48"/></clipPath><clipPath id="clip-path-3"><path class="cls-2" d="M169.38,141.24s0-2.19-.09-2.18l-1.11.51-.66,0L144.38,137s-.06,2.14-.07,2.17l-.68,1.5h0l-.82,2.61H170Z"/></clipPath><clipPath id="clip-path-4"><polygon class="cls-1" points="60.02 97.32 59.87 92.03 60.64 90.86 62.66 89.54 64.08 85.9 62.25 84.48 61.36 76.8 54.68 74.57 48.09 76.59 46.9 84.48 45.87 85.48 46.66 89.31 47.46 89.82 47.49 91.97 49.11 93.99 49 98.48 46.68 101.49 49.1 109.77 54.16 112 60.84 104.71 64.08 99.86 60.02 97.32"/></clipPath><clipPath id="clip-path-5"><polygon class="cls-2" points="69.99 118.07 69.74 136.58 66.24 137.98 57.26 137.3 46.22 136.44 45.68 135.61 46.22 133.78 40.87 115.02 37.01 108.85 38.74 103.02 46.71 99.14 49.13 96.53 49.28 98.09 49.11 100.78 53.39 108.05 60.12 98.89 60.21 96.89 60.17 96.17 59.89 94.1 62.4 96.56 73.74 100.91 74.75 112.37 69.99 118.07"/></clipPath><clipPath id="clip-path-6"><path class="cls-2" d="M70.2,141.83s0-2.19-.08-2.18l-1.11.5-.67,0-23.13-2.53s-.06,2.15-.07,2.18l-.68,1.5h0l-.81,2.6H70.87Z"/></clipPath></defs><circle class="cls-3" cx="111.33" cy="111.33" r="108.83" transform="translate(-46.12 111.33) rotate(-45)"/><path class="cls-4" d="M111.33,5c58.49,0,106.34,47.85,106.34,106.33h0c0,58.49-47.85,106.34-106.34,106.34h0C52.85,217.67,5,169.82,5,111.33H5C5,52.85,52.85,5,111.33,5h0m0-5A111.21,111.21,0,0,0,32.7,190,111.21,111.21,0,1,0,190,32.7,110.55,110.55,0,0,0,111.33,0Z"/><polygon class="cls-1" points="197.85 90.78 197.51 87.56 198.67 84.11 198.25 80.14 195.12 79.83 191.39 81.11 190.93 83.47 193.83 88.04 197.85 90.78"/><polygon class="cls-1" points="198.44 80.88 198.04 79.54 197.07 77.89 196.76 76.01 196.09 76.3 195.56 77.59 196.01 79.24 193.4 76.87 191.5 74.66 190.74 74.45 190.41 75.08 192.31 77.53 193.88 79.4 190.15 75.33 189.31 75.02 188.85 75.27 189.4 76.42 192.52 80.02 189.25 76.61 188.33 75.85 187.74 76.28 188.42 77.45 191.31 80.98 188.17 77.98 187.55 78.31 188.74 80.69 191.46 84.17 198.44 80.88"/><polygon class="cls-1" points="114.62 92.42 114.15 89.21 112.16 86.16 111.57 82.22 114.52 81.13 118.46 81.43 119.49 83.6 117.83 88.76 114.62 92.42"/><polygon class="cls-2" points="147.15 105.64 145 104.18 141.44 101.6 118.17 105.74 115.37 108.51 116.63 112.08 138.02 114.25 146.19 108.88 147.15 105.64"/><polygon class="cls-2" points="118.43 87.78 119.34 91.86 120.75 93.32 123.33 104.89 121.71 111.84 116.63 112.08 115.44 111.12 114.59 109.83 112.44 94.41 113.83 92.48 113.05 88.98 117.43 88.72 118.43 87.78"/><path d="M123.1,105a9.29,9.29,0,0,1,1,2.31.14.14,0,0,0,.27-.07,9.66,9.66,0,0,0-1-2.38.14.14,0,0,0-.25.14Z"/><path d="M117.76,92.32a3,3,0,0,1-.23-.52,8.69,8.69,0,0,1-.29-.86,6.73,6.73,0,0,1-.21-.86,2.69,2.69,0,0,1,0-.31v-.1h0s0,0,0-.05,0,0,0,0c.16-.26-.25-.5-.41-.24a1.15,1.15,0,0,0-.07.66,6.32,6.32,0,0,0,.21,1,7.36,7.36,0,0,0,.59,1.56c.14.27.55,0,.41-.24Z"/><path class="cls-5" d="M135.75,107.17a6.35,6.35,0,0,1-1.69,4.91c-.18.19.11.49.3.29a6.77,6.77,0,0,0,1.8-5.2c0-.26-.44-.27-.41,0Z"/><path class="cls-5" d="M136,104.37c-.15,1.69-.28,3.38-.42,5.08,0,.3.45.3.48,0,.14-1.7.27-3.39.41-5.08,0-.3-.45-.3-.47,0Z"/><path class="cls-5" d="M135.22,110.91c.41-1.15.54-2.37.9-3.53.1-.29-.36-.42-.45-.13-.37,1.16-.49,2.38-.9,3.53-.11.29.35.42.45.13Z"/><polygon class="cls-6" points="134.44 111.82 133.47 114.08 117.65 112.13 119.37 109.31 120.08 108.69 119.11 111.55 123.5 105.74 121.61 111.47 125.97 109.05 124.84 112.21 131.25 112.85 134.44 111.82"/><path class="cls-5" d="M135.69,109.25c-.67,1.36-1.39,2.7-2.05,4.06l.43.19c.63-2.26,1.51-4.44,2.14-6.69a.24.24,0,0,0-.46-.13c-.63,2.26-1.51,4.44-2.14,6.69-.07.25.32.43.44.18.67-1.36,1.38-2.7,2-4.06.13-.28-.28-.52-.41-.24Z"/><path d="M123.08,105a22,22,0,0,1-.44,2.68,7.16,7.16,0,0,1-1,2.5c-.11.15.14.29.24.14a7.32,7.32,0,0,0,1-2.56,23.37,23.37,0,0,0,.46-2.76c0-.18-.27-.18-.29,0Z"/><path class="cls-7" d="M126.43,107.93s-1.76,3.37-3.35,4.6"/><path class="cls-7" d="M120.06,108.55a11.15,11.15,0,0,1-1.73,3.46"/><polygon class="cls-2" points="162.84 103.97 164.99 102.5 168.55 99.92 191.82 104.07 194.62 106.83 193.37 110.41 171.97 112.57 163.8 107.21 162.84 103.97"/><polygon class="cls-2" points="191.56 86.11 190.65 90.18 189.24 91.65 186.66 103.22 188.28 110.16 193.37 110.41 194.55 109.44 195.4 108.16 197.55 92.73 196.16 90.81 196.94 87.31 192.56 87.04 191.56 86.11"/><path d="M186.64,103.2a9.82,9.82,0,0,0-1,2.38.14.14,0,0,0,.27.08,9.35,9.35,0,0,1,1-2.32c.09-.15-.15-.3-.25-.14Z"/><path d="M192.64,90.89a7.44,7.44,0,0,0,.59-1.57,6.08,6.08,0,0,0,.21-.94,1.13,1.13,0,0,0-.07-.68c-.16-.26-.57,0-.41.24,0,.06,0,0,0,0l0,0s0,0,0,0v.07a2.66,2.66,0,0,1,0,.3,6.87,6.87,0,0,1-.21.87,8.51,8.51,0,0,1-.29.85,2.83,2.83,0,0,1-.23.54c-.14.27.27.51.41.24Z"/><path class="cls-5" d="M173.83,105.5a6.78,6.78,0,0,0,1.8,5.2c.19.19.48-.1.3-.3a6.33,6.33,0,0,1-1.69-4.9c0-.27-.39-.27-.41,0Z"/><path class="cls-5" d="M175.22,109.11c-.41-1.15-.53-2.37-.9-3.53-.09-.29-.55-.17-.45.12.36,1.16.49,2.38.9,3.53.1.29.56.16.45-.12Z"/><polygon class="cls-6" points="175.55 110.15 176.51 112.41 192.34 110.45 190.62 107.63 189.91 107.02 190.88 109.88 186.49 104.06 188.38 109.79 184.02 107.38 185.15 110.54 178.74 111.17 175.55 110.15"/><path class="cls-5" d="M173.89,107.81c.67,1.36,1.38,2.7,2.05,4.07.12.24.51.07.44-.19-.63-2.25-1.51-4.43-2.14-6.68a.24.24,0,0,0-.46.12c.63,2.26,1.51,4.44,2.14,6.69l.43-.18c-.66-1.37-1.38-2.71-2-4.07-.13-.27-.54,0-.41.24Z"/><path d="M186.62,103.27a23.37,23.37,0,0,0,.46,2.76,7.37,7.37,0,0,0,1,2.57c.1.14.35,0,.24-.15a7.11,7.11,0,0,1-1-2.49,20.65,20.65,0,0,1-.44-2.69c0-.18-.3-.18-.29,0Z"/><path class="cls-7" d="M183.56,106.26s1.76,3.37,3.35,4.59"/><path class="cls-7" d="M189.93,106.88a11.16,11.16,0,0,0,1.73,3.45"/><path class="cls-8" d="M171.77,123.41a18.77,18.77,0,0,0-1.41-11.74c-.12-.24-.48,0-.37.22a18.13,18.13,0,0,1,1.37,11.4c-.05.27.35.38.41.12Z"/><polygon class="cls-1" points="159.19 96.74 159.04 91.44 159.81 90.27 161.83 88.96 163.25 85.31 161.43 83.9 160.53 76.21 153.85 73.99 147.27 76.01 146.07 83.9 145.04 84.89 145.83 88.73 146.63 89.24 146.66 91.38 148.28 93.41 148.18 97.9 145.85 100.91 148.28 109.19 153.34 111.41 160.01 104.13 163.25 99.27 159.19 96.74"/><g class="cls-9"><polygon class="cls-10" points="160.01 87.33 163.26 78.82 141.28 54.93 146.57 86.79 147.34 81.05 147.95 79.57 148.6 76.96 153.11 77.86 158.25 77.15 158.85 79.56 159.98 81.27 159.82 86.02 160.01 87.33"/></g><polygon points="157.72 82.16 157.77 81.12 155.07 80.57 154.47 81.27 157.72 82.16"/><polygon points="151.45 81.51 151.35 80.45 148.95 81.03 148.55 81.8 151.45 81.51"/><path d="M155.07,88.2a6.24,6.24,0,0,1-3.75.62c-.31,0-.44.42-.13.47a6.87,6.87,0,0,0,4.13-.66c.28-.15,0-.57-.25-.43Z"/><path d="M157.86,92.7l-3.78,2.37H151l-2.21-1.37,1.75,3.73a2.14,2.14,0,0,0,1,1.07h0a2.06,2.06,0,0,0,1,.25h.11a2.12,2.12,0,0,0,1.36-.49l.78-.66a2.19,2.19,0,0,0,.49-.6L157,93.84Z"/><path d="M158.59,91.69l-3.08,2.59-.63.52c-.24.2.1.55.35.35l3.07-2.59.63-.52c.24-.2-.1-.54-.34-.35Z"/><path d="M149.94,81.75a2.12,2.12,0,0,1,0,1.53l.4-.11a1.11,1.11,0,0,1-.17-.3,1.42,1.42,0,0,1,0-.22c0-.05,0-.1,0-.18s0-.3,0-.45,0-.14,0-.22,0-.07,0,0,0,0,0,0h0c0,.06-.07.06-.15,0s-.15,0-.16,0,0-.13,0-.21l.11-.06h0a.26.26,0,0,0-.25.25.25.25,0,0,0,.25.24.28.28,0,0,0,.27-.36.3.3,0,0,0-.37-.22c-.3.07-.28.48-.3.72a1.89,1.89,0,0,0,.38,1.44.25.25,0,0,0,.41-.1,2.62,2.62,0,0,0,0-1.79.26.26,0,0,0-.3-.17.24.24,0,0,0-.17.3Z"/><path d="M156,81.58a2.12,2.12,0,0,1,0,1.53l.4-.11a1.11,1.11,0,0,1-.17-.3,1.42,1.42,0,0,1-.05-.22s0-.1,0-.18,0-.3,0-.45a1.49,1.49,0,0,0,0-.21s0-.08,0,0,0,0,0,0h0q0,.09-.15,0c-.09,0-.14,0-.16,0s0-.13,0-.2l.11-.07h0a.25.25,0,0,0-.25.24.25.25,0,0,0,.25.24.28.28,0,0,0,.27-.36.3.3,0,0,0-.37-.22c-.3.08-.28.48-.3.72a1.91,1.91,0,0,0,.38,1.45.25.25,0,0,0,.41-.11,2.62,2.62,0,0,0,0-1.79.26.26,0,0,0-.3-.17.24.24,0,0,0-.17.3Z"/><path d="M161.51,86.48l-1.06.54a.24.24,0,0,0-.09.33.25.25,0,0,0,.33.09l1.06-.54a.24.24,0,0,0,.09-.33.24.24,0,0,0-.33-.09Z"/><path d="M161,86l-.65,1.2a.25.25,0,0,0,.08.33.26.26,0,0,0,.34-.08l.65-1.21A.24.24,0,0,0,161,86Z"/><path d="M162.7,85.39A3,3,0,0,0,161,86a.24.24,0,1,0,.25.42,2.5,2.5,0,0,1,1.46-.52.25.25,0,0,0,.25-.24.26.26,0,0,0-.25-.25Z"/><polygon points="144.99 142.86 169.26 140.02 169.37 134.28 145.34 134.26 144.99 142.86"/><polygon class="cls-2" points="169.16 117.48 168.91 135.99 165.41 137.4 156.43 136.72 145.39 135.86 144.85 135.03 145.39 133.19 140.04 114.44 136.18 108.27 137.91 102.43 145.88 98.56 148.3 95.95 148.46 97.5 148.28 100.2 152.56 107.47 159.29 98.31 159.38 96.3 159.35 95.58 159.07 93.52 161.57 95.98 172.91 100.32 173.92 111.78 169.16 117.48"/><g class="cls-11"><polyline class="cls-6" points="145.04 137.01 147.02 133.45 140.67 115.67"/></g><polygon class="cls-6" points="168.71 136.07 168.47 125.78 168.47 118.64 168.93 118.77 169.05 135.97 168.71 136.07"/><path d="M141.87,114.82a15.38,15.38,0,0,1,.37,2.7c0,.43,0,.86,0,1.29a4.22,4.22,0,0,0,.07,1.18c.21.59.71.64,1.24.71.82.12,1.63.23,2.45.31a17.1,17.1,0,0,0,2.86.1,1.07,1.07,0,0,0,1.05-.69,18.59,18.59,0,0,0,.4-3.32,29.25,29.25,0,0,1,.46-4c.07-.27-.34-.38-.4-.12a59.81,59.81,0,0,0-.7,6.27c0,.36,0,1-.31,1.23s-.67.19-1,.2-.9,0-1.35,0c-.87-.06-1.74-.15-2.6-.28l-.87-.12c-.32,0-.65,0-.8-.38a1.77,1.77,0,0,1-.06-.69c0-.21,0-.42,0-.63,0-.43,0-.86-.06-1.29a16,16,0,0,0-.37-2.58c-.06-.26-.47-.15-.41.11Z"/><path d="M157,114.27c.12,1,.23,1.89.34,2.84.09.7.17,1.4.24,2.09a1,1,0,0,0,.77,1,11.69,11.69,0,0,0,1.19.09c.45,0,.91.07,1.37.09a27.1,27.1,0,0,0,2.85,0c.67,0,1.53,0,2-.54a3.27,3.27,0,0,0,.28-1.62,43,43,0,0,1,.3-5.07c0-.26-.36-.38-.41-.11a24.7,24.7,0,0,0-.25,3.75c0,.67,0,1.33-.1,2a1.77,1.77,0,0,1-.18.83c-.24.32-.73.28-1.08.31a29.57,29.57,0,0,1-4.89-.11,3.08,3.08,0,0,1-1.1-.12c-.3-.17-.31-.48-.34-.78-.06-.61-.13-1.23-.2-1.84-.11-1-.23-1.89-.35-2.84,0-.26-.46-.26-.42,0Z"/><polygon class="cls-2" points="152.87 136.43 152.87 142.72 151.38 142.72 151.38 135.47 152.87 135.47 152.87 136.43"/><polygon class="cls-2" points="148.31 136.43 148.31 142.72 146.81 142.72 146.81 135.47 148.31 135.47 148.31 136.43"/><polygon class="cls-2" points="159.58 135.54 159.58 142.68 161.22 142.68 161.22 134.59 159.58 134.59 159.58 135.54"/><rect class="cls-2" x="166.69" y="134.26" width="1.49" height="7.14"/><path d="M144.57,105.14a3.39,3.39,0,0,1,1.45-1.89,6.75,6.75,0,0,1,1.85-.63l-.29-.11a7.6,7.6,0,0,1,.65,2c.06.36.55.66.81.88.55.47,1.11.93,1.65,1.4l.71.65.22.23.06.08,0,0c-.05-.08,0-.17.08-.25-.27.18,0,.63.26.44s0-.61-.2-.81a16.06,16.06,0,0,0-1.22-1.11l-1.39-1.18c-.15-.13-.3-.25-.44-.39l-.09-.09s0,.08,0,0a.93.93,0,0,0,0-.24,7.63,7.63,0,0,0-.68-1.91.26.26,0,0,0-.29-.12,6.46,6.46,0,0,0-2.14.77,4.1,4.1,0,0,0-1.53,2.1c-.12.31.38.45.5.14Z"/><path d="M148.2,103.73a9.21,9.21,0,0,0-2,.23,11.15,11.15,0,0,0-1.88.61c-.3.12-.17.61.14.49a13.85,13.85,0,0,1,1.82-.6,10,10,0,0,1,1.88-.22.26.26,0,0,0,0-.51Z"/><path d="M146.86,97.55a8.55,8.55,0,0,0-2.27,4.36,16.24,16.24,0,0,0-.49,2.87c0,.33.49.33.52,0a15.88,15.88,0,0,1,.44-2.66,8.17,8.17,0,0,1,2.17-4.21c.25-.22-.12-.58-.37-.36Z"/><path d="M169.88,119.13a7.12,7.12,0,0,0-1.41-2.25,3.53,3.53,0,0,0-2.06-1,.24.24,0,0,0-.28.15c0,.11,0,.27.16.28a3.15,3.15,0,0,1,1.88,1,6.91,6.91,0,0,1,1.32,2.13.22.22,0,0,0,.31.08.22.22,0,0,0,.08-.31Z"/><path class="cls-5" d="M137.84,111.32a6.89,6.89,0,0,1,2.5,5,.23.23,0,0,0,.45,0,7.32,7.32,0,0,0-2.63-5.34c-.22-.19-.54.13-.32.31Z"/><path class="cls-5" d="M168.27,117.1c-.47.79-.73,1.69-1.21,2.48-.15.25.25.48.4.23.47-.79.73-1.69,1.2-2.48a.23.23,0,0,0-.39-.23Z"/><path class="cls-5" d="M169.88,119.13a2.29,2.29,0,0,0-1.4-.95.63.63,0,0,0-.58.2,2.8,2.8,0,0,0-.46.57,6.58,6.58,0,0,0-.38.63c-.13.26.26.49.4.23a5.54,5.54,0,0,1,.36-.62c.08-.11.15-.22.24-.33l.12-.13.06,0,0,0s0,0,0,0l.06,0s0,0,0,0h0s0,0,0,0l.07,0a1.64,1.64,0,0,1,.39.14,1.78,1.78,0,0,1,.71.59c.15.25.55,0,.39-.23Z"/><path class="cls-5" d="M169.16,118.13a.76.76,0,0,0-.55-.15h-.23s0,0,0,0h-.1c.06,0,0,0,0,0h0s0,0,0,0l-.32.32c.14.11.31.27.51.19a.25.25,0,0,0,.16-.28l-.2-.57-.38.22.46.56a.23.23,0,1,0,.32-.32l-.46-.56a.23.23,0,0,0-.28,0,.22.22,0,0,0-.1.25l.2.57.16-.28h0s.05,0,0,0,0,0,0,0l0,0,0,0,0,0,0,0-.06,0a.26.26,0,0,0-.16-.07.2.2,0,0,0-.16.07.23.23,0,0,0,0,.32.81.81,0,0,0,.55.15h.23s.05,0,0,0h.1c-.07,0,0,0,0,0h0s-.05,0,0,0a.23.23,0,0,0,.32-.32Z"/><path class="cls-5" d="M166.47,134.09c-.58.31-1.13.69-1.71,1a20.39,20.39,0,0,1-3.13,1.29c-.31.1-.17.6.14.49a20,20,0,0,0,3.22-1.32c.59-.32,1.15-.71,1.74-1,.29-.16,0-.6-.26-.44Z"/><path d="M165.87,109.14c-3.4.47-6.82.85-10.25,1.12-.33,0-.33.54,0,.51,3.47-.27,6.94-.65,10.39-1.13.33,0,.19-.54-.14-.5Z"/><path d="M155.4,110.54a14.82,14.82,0,0,0-.67,3.32c-.07.32.42.46.5.13a14.37,14.37,0,0,1,.61-3.2c.15-.29-.29-.55-.44-.25Z"/><path d="M165.78,109.52a10.53,10.53,0,0,1-.06,4.11c-.06.33.43.46.5.14a11.58,11.58,0,0,0,.06-4.39c-.06-.33-.56-.19-.5.14Z"/><path d="M166,113.51l-1,.22a.25.25,0,1,0,.14.49l1-.21a.25.25,0,0,0,.17-.32.25.25,0,0,0-.31-.18Z"/><path class="cls-5" d="M152,136a12.81,12.81,0,0,1,.72-3.1,13.77,13.77,0,0,0,.4-3.13c.08-2.17.08-4.35.07-6.52,0-4.5-.15-9-.22-13.52a.26.26,0,0,0-.51,0c.06,4.51.19,9,.21,13.52,0,2.17,0,4.35-.07,6.52a13.52,13.52,0,0,1-.5,3.46,9.76,9.76,0,0,0-.62,2.77.26.26,0,0,0,.52,0Z"/><path d="M150.43,111.07a5.7,5.7,0,0,1-.8,3.64c-.16.29.29.55.45.26a6.29,6.29,0,0,0,.84-4,.25.25,0,0,0-.31-.18.26.26,0,0,0-.18.32Z"/><path d="M150.36,110.83a31.76,31.76,0,0,0-8.64.87.26.26,0,0,0,.13.5,30.89,30.89,0,0,1,8.51-.85c.33,0,.33-.5,0-.52Z"/><path d="M141.69,111.93a7,7,0,0,1-.39,2.79c-.11.32.39.45.5.14a7.31,7.31,0,0,0,.4-2.93c0-.33-.53-.33-.51,0Z"/><path d="M150,114.5a23.51,23.51,0,0,1-3.17.25c-1.53.1-3.06.19-4.59.3a9.82,9.82,0,0,0-1.33.13c-.32.08-.18.57.14.5a23.51,23.51,0,0,1,3.17-.25c1.53-.1,3.06-.19,4.59-.31a8.68,8.68,0,0,0,1.33-.13c.32-.07.18-.56-.14-.49Z"/><line class="cls-12" x1="148.45" y1="104" x2="146.32" y2="104.39"/><path d="M147.94,102.41a3.84,3.84,0,0,0-3.41,2l0,.4,3.35-.86.45.12Z"/><path d="M162.13,102c-.72,0-1.44.12-2.16.2l-1.07.1-.51,0h-.1l0,0a.29.29,0,0,1,0-.09c0-.11.08-.22.11-.33l-.5-.07a.76.76,0,0,0,.26.7.51.51,0,0,0,.71-.12.5.5,0,0,0-.16-.7c-.27-.16-.53.09-.53.37,0,.59.82.49,1.19.4s.48-.13.72-.19a1.14,1.14,0,0,1,.55,0,.26.26,0,0,0,.14-.5,6.87,6.87,0,0,0-1.87,0c-.33,0-.33.5,0,.51a6.66,6.66,0,0,1,1.73,0l.14-.5a2.26,2.26,0,0,0-1.09.12,5.62,5.62,0,0,1-.55.15l-.25,0h-.12c-.07,0-.1,0-.1.09h-.26c.07,0,0,0,0,0s0-.17,0-.26c0-.3-.41-.33-.5-.07a1.61,1.61,0,0,0-.16.67.45.45,0,0,0,.45.36,8.52,8.52,0,0,0,1.24-.09c.88-.09,1.75-.21,2.63-.24.33,0,.33-.53,0-.52Z"/><path class="cls-2" d="M169.38,141.24s0-2.19-.09-2.18l-1.11.51-.66,0L144.38,137s-.06,2.14-.07,2.17l-.68,1.5h0l-.82,2.61H170Z"/><g class="cls-13"><rect class="cls-6" x="132.71" y="132.41" width="12.61" height="11.84"/></g><path class="cls-2" d="M170,159.67h0a.08.08,0,0,0,.13.07v-.05A.07.07,0,0,0,170,159.67Z"/><path d="M152.28,143c.38-1.45.82-2.88,1.27-4.31.1-.31-.39-.45-.5-.13-.45,1.42-.89,2.85-1.27,4.3a.26.26,0,0,0,.5.14Z"/><path d="M150.76,143.07c.2-.82.34-1.65.59-2.46a9.19,9.19,0,0,1,.45-1.24,2.55,2.55,0,0,1,.25-.46.55.55,0,0,1,.21-.2c.3-.15,0-.59-.26-.45a1.66,1.66,0,0,0-.61.77,10.06,10.06,0,0,0-.49,1.29c-.27.86-.43,1.74-.64,2.62a.26.26,0,0,0,.5.13Z"/><path class="cls-5" d="M137.55,111.08a6.43,6.43,0,0,1,1.6,2.35.24.24,0,0,0,.29.17.23.23,0,0,0,.16-.29,6.86,6.86,0,0,0-1.71-2.57c-.22-.21-.56.13-.34.34Z"/><path d="M138.21,103.75c2.14,0,4.26-.5,6.4-.51a.21.21,0,0,0,0-.42c-2.14,0-4.26.5-6.4.51a.21.21,0,0,0,0,.42Z"/><path d="M138.42,103.59a0,0,0,0,0,0,0c0,.05,0,0,0,0a.25.25,0,0,0,0-.07l.09-.18.25-.41c.15-.25.31-.5.47-.74l.11-.16a.21.21,0,1,0-.37-.21c-.28.42-.56.84-.81,1.28a2.93,2.93,0,0,0-.19.4.21.21,0,0,0,.15.26.22.22,0,0,0,.26-.15Z"/><path d="M163.61,99.85l3.6.86c.24.06.35-.31.1-.37l-3.6-.86c-.24-.06-.35.31-.1.37Z"/><polygon class="cls-14" points="161.56 102.39 163.99 103.31 163.64 101.49 167.14 101.93 166.13 104.46 165.94 108.4 164.19 108.17 163.07 107.6 161.96 106.59 161.47 105.05 161.56 102.39"/><path d="M168,101.89c-.69,1.81-1.44,2.84-1,4.73a7.3,7.3,0,0,1,.3,1.52c0,.34-1.19.74-1.31.26a9.37,9.37,0,0,1,.69-6.53"/><path d="M163.86,105.7a11.14,11.14,0,0,0,1.35-1.12c.42-.4.83-.81,1.26-1.2.2-.19-.1-.49-.3-.3-.42.38-.82.78-1.24,1.17a10.24,10.24,0,0,1-1.28,1.09c-.23.14,0,.51.21.36Z"/><polygon class="cls-14" points="164.31 98.04 166.8 98.76 169 99.54 168.15 98.16 164.88 97.71 163.51 97.71 164.31 98.04"/><path d="M161.39,96.16c1.56,1.93,2,4.75,2.22,7.14l.43-.18c-1.55-1.51-3.84-1.33-5.81-1.82a.27.27,0,0,0-.29.12,9,9,0,0,0-.7,3.41l.33-.25a3.23,3.23,0,0,0-2.4.78c-.81.57-1.53,1.27-2.31,1.89-.26.2.11.56.37.36.66-.53,1.27-1.11,2-1.62a3.1,3.1,0,0,1,2.25-.91.27.27,0,0,0,.33-.25,8.46,8.46,0,0,1,.62-3.15l-.29.12c1.85.46,4.13.26,5.59,1.69a.26.26,0,0,0,.44-.19c-.24-2.55-.71-5.45-2.36-7.5-.21-.26-.57.1-.37.36Z"/><path d="M163.59,101.45a28.4,28.4,0,0,0,2.9.52c.7.1,1.43.16,2.11.32.26.07.38-.34.11-.4-.68-.17-1.41-.22-2.11-.33a28.9,28.9,0,0,1-2.9-.52.21.21,0,0,0-.11.41Z"/><path d="M162.82,97.91c1,.28,2.05.63,3.06,1a27.38,27.38,0,0,1,3,1.12c.24.12.46-.24.21-.36a26.56,26.56,0,0,0-3.05-1.15c-1-.35-2.07-.7-3.13-1a.21.21,0,0,0-.11.41Z"/><path d="M155.11,114.45a65.33,65.33,0,0,0,9.79-.27c.32,0,.33-.54,0-.51a66.68,66.68,0,0,1-9.79.26c-.33,0-.33.5,0,.52Z"/><path d="M152.53,81.79a2.19,2.19,0,0,1-.41,1.68,14,14,0,0,1-1,1.46c-.13.2.19.38.32.19a16.9,16.9,0,0,0,1-1.61,2.35,2.35,0,0,0,.36-1.81c-.08-.22-.44-.13-.35.09Z"/><path d="M151.5,84.48a1,1,0,0,0-.44.85,1.09,1.09,0,0,0,.51,1,2.25,2.25,0,0,0,1.32.44,2.51,2.51,0,0,0,.72-.16,1.42,1.42,0,0,0,.58-.34.75.75,0,0,0,.2-.64c0-.2-.14-.37-.38-.36s-.23.38,0,.37c.06,0,.05,0,0,0v0s0,.08,0,.1a.34.34,0,0,1-.06.24.89.89,0,0,1-.5.3,1.8,1.8,0,0,1-.68.14,1.63,1.63,0,0,1-.62-.17c-.29-.12-.69-.33-.74-.69s0-.59.25-.7,0-.42-.18-.32Z"/><path class="cls-15" d="M158.85,114.27s3.32,12.71,7.75,11.88a4.6,4.6,0,0,0,3.85-5.17"/><path class="cls-15" d="M168.58,101.93s1.71-2.6,1.8-2.61"/><path class="cls-15" d="M168.32,102s.51-2.76,1.37-2.94"/><ellipse class="cls-16" cx="168.68" cy="106.03" rx="0.81" ry="0.43" transform="translate(-20.59 168.25) rotate(-50.35)"/><ellipse class="cls-16" cx="168.76" cy="107.15" rx="0.81" ry="0.43" transform="translate(-21.43 168.71) rotate(-50.35)"/><ellipse class="cls-16" cx="168.8" cy="108.35" rx="0.81" ry="0.43" transform="translate(-22.33 169.18) rotate(-50.35)"/><ellipse class="cls-16" cx="168.84" cy="109.66" rx="0.81" ry="0.43" transform="translate(-23.33 169.68) rotate(-50.35)"/><ellipse class="cls-16" cx="168.77" cy="110.96" rx="0.81" ry="0.43" transform="translate(-24.35 170.1) rotate(-50.35)"/><ellipse class="cls-16" cx="168.78" cy="112.18" rx="0.81" ry="0.43" transform="translate(-25.3 170.55) rotate(-50.35)"/><ellipse class="cls-16" cx="168.91" cy="113.48" rx="0.81" ry="0.43" transform="translate(-26.25 171.12) rotate(-50.35)"/><ellipse class="cls-16" cx="168.95" cy="114.8" rx="0.81" ry="0.43" transform="translate(-27.25 171.63) rotate(-50.35)"/><ellipse class="cls-16" cx="169.2" cy="116.18" rx="0.81" ry="0.43" transform="translate(-28.22 172.32) rotate(-50.35)"/><ellipse class="cls-16" cx="169.39" cy="117.44" rx="0.81" ry="0.43" transform="translate(-29.12 172.92) rotate(-50.35)"/><ellipse class="cls-16" cx="169.67" cy="118.77" rx="0.81" ry="0.43" transform="translate(-30.05 173.62) rotate(-50.35)"/><path class="cls-16" d="M170.54,119.48c.11.23-.06.66-.38,1s-.67.34-.78.11.26-.81.58-1.11S170.43,119.25,170.54,119.48Z"/><ellipse class="cls-16" cx="170.48" cy="121.1" rx="0.81" ry="0.43" transform="translate(-31.55 175.08) rotate(-50.35)"/><ellipse class="cls-16" cx="171.01" cy="122.18" rx="0.81" ry="0.43" transform="translate(-32.19 175.88) rotate(-50.35)"/><ellipse class="cls-16" cx="171.49" cy="123.07" rx="0.81" ry="0.43" transform="matrix(0.64, -0.77, 0.77, 0.64, -32.69, 176.58)"/><path class="cls-17" d="M168.32,105.48l.24-4.32.48,0c.13,0,.24.22.24.42l-.44,3.46Z"/><path d="M168.31,105.77l0,0s0,0,0,0l0,0,0,.06v0s0,0,0,0a.36.36,0,0,1,0,.1s0-.05,0,0v0s0,.06,0,0a.06.06,0,0,0,0,0l0,.08s0,0,0,0l0,0a.59.59,0,0,1,0,.08l0,0s0,0,0,0l-.06.06a.57.57,0,0,1-.11.11l-.17.15a.21.21,0,0,0,.3.3l.19-.17a1.39,1.39,0,0,0,.27-.32.82.82,0,0,0,.13-.46.85.85,0,0,0-.25-.54.21.21,0,0,0-.3,0,.22.22,0,0,0,0,.29Z"/><path d="M168.52,107l0,0h0l0,0,0,.06v0s0,0,0,0,0,.07,0,.1,0,0,0,0v0s0,.06,0,0v0l0,.08s0,0,0,0l0,0a.35.35,0,0,1-.05.08l0,0s0,0,0,0l-.06.06-.12.11-.16.15a.21.21,0,0,0,0,.3.2.2,0,0,0,.29,0l.2-.17a2.08,2.08,0,0,0,.27-.32.83.83,0,0,0,.12-.46.89.89,0,0,0-.24-.55.21.21,0,0,0-.3.3Z"/><path d="M168.64,108.42l0,0s0,0,0,0l0,0v0h0l0,.08s0,0,0,0v0s0,.06,0,0a.07.07,0,0,1,0,0v0s0,.06,0,0,0,.1-.08.14h0l0,0-.06.06-.11.1-.18.15a.22.22,0,0,0,0,.3.23.23,0,0,0,.3,0c.11-.11.24-.19.34-.31a.8.8,0,0,0,.25-.67.81.81,0,0,0-.23-.45.21.21,0,0,0-.29,0,.22.22,0,0,0,0,.3Z"/><path d="M168.71,109.94l.06,0v0s0,0,0,0,0,0,0,0l0,0s0,0,0,0v0s0,.05,0,0h0v0h0s0,0,0,0v0s0,0,0,0,0,0,0,0l0,0,0,0h0l0,0-.09.09-.09.08s.05,0,0,0l0,0-.05,0-.18.14a.21.21,0,0,0,0,.3.23.23,0,0,0,.3,0s-.06,0,0,0h0l0,0,.08-.06.24-.18a.74.74,0,0,0,.27-.58.62.62,0,0,0-.22-.41.21.21,0,0,0-.3,0,.23.23,0,0,0,0,.3Z"/><path d="M168.7,111.11l.06,0s0,0,0,0h0v0h0v0a0,0,0,0,0,0,0s0,0,0,0,0,0,0,0v.06s0,0,0,0l0,0,0,0h0s0,0,0,0l0,0-.09.09,0,0,0,0s0,0,0,0h0l-.09.07-.15.1a.22.22,0,0,0-.1.13.23.23,0,0,0,0,.16.2.2,0,0,0,.29.07c.13-.09.27-.17.39-.27a.73.73,0,0,0,.28-.56.56.56,0,0,0-.22-.39.21.21,0,0,0-.3,0,.22.22,0,0,0,0,.3Z"/><path d="M168.79,112.19l.05.06h0l0,0,0,0,0,0s0,0,0,0a.11.11,0,0,1,0,.06s0-.06,0,0v0s0,0,0,0v.06h0s0,0,0,0l0,0,0,0s0,0,0,0l0,0-.09.09,0,0,0,0h0l0,0-.09.07-.19.13a.2.2,0,0,0-.06.15.28.28,0,0,0,.06.15.22.22,0,0,0,.3,0l0,0h0l0,0,.09-.06.24-.19a.73.73,0,0,0,.28-.56.67.67,0,0,0-.22-.41.22.22,0,0,0-.3,0,.21.21,0,0,0,0,.3Z"/><path d="M168.91,113.57l.06.05,0,0h0v0h0s0,0,0,0v0s0,0,0,0,0,0,0,0,0-.07,0,0v0s0,0,0,0h0l0,0v0h0l0,0-.09.09h0l0,0-.05,0-.09.06-.15.1a.26.26,0,0,0-.1.13.22.22,0,0,0,0,.16.22.22,0,0,0,.29.08l.15-.1.24-.17a.69.69,0,0,0,.29-.54.57.57,0,0,0-.22-.38.21.21,0,0,0-.15-.07.23.23,0,0,0-.15.07.22.22,0,0,0,0,.3Z"/><path d="M169,114.63l0,.05s0,0,0,0v0l0,0v0s0,0,0,0,0,0,0,0a.07.07,0,0,0,0,0s0,0,0,0v0c0,.06,0,0,0,0v0s0,0,0,0,0,0,0,0l0,.07,0,0s0,0,0,0,0,0,0,0l0,0a.12.12,0,0,1-.05,0l-.12.11-.17.14a.21.21,0,0,0,.3.3c.11-.1.23-.18.34-.29a.85.85,0,0,0,.26-.63.87.87,0,0,0-.23-.47.21.21,0,0,0-.3.3Z"/><path d="M169.35,116.23a.08.08,0,0,1,0,0l0,0s0,0,0,0,0,0,0,0a.05.05,0,0,0,0,0v0a.06.06,0,0,0,0,0s0-.06,0,0v0s0-.06,0,0a.08.08,0,0,1,0,0s0,0,0,0v0h0a.16.16,0,0,1,0,.07s0,0,0,0l0,0a.63.63,0,0,1-.12.11.1.1,0,0,1-.06,0l0,0c.06-.05,0,0,0,0l-.21.16a.21.21,0,0,0,0,.3.23.23,0,0,0,.3,0s0,0,0,0l0,0,.09-.06a2.11,2.11,0,0,0,.23-.19.72.72,0,0,0,.27-.59.62.62,0,0,0-.22-.42.21.21,0,0,0-.3,0,.23.23,0,0,0,0,.3Z"/><path d="M169.48,117.36s0,0,0,0l0,0h0s0,0,0,0l0,0s0,0,0,0v0a.08.08,0,0,1,0,0s0-.06,0,0v0s0-.06,0,0,0,0,0,0v0s0,0,0,0v0a.43.43,0,0,1,0,.07h0l0,0-.12.11s0,0-.06,0l0,0s0,0,0,0l-.21.16a.21.21,0,0,0,0,.3.23.23,0,0,0,.3,0h0l0,0,0,0,.08-.06a2.23,2.23,0,0,0,.24-.19.81.81,0,0,0,.27-.59.7.7,0,0,0-.23-.44.22.22,0,0,0-.29,0,.21.21,0,0,0,0,.3Z"/><path d="M169.78,118.79l.05,0h0l0,0v0s0,0,0,0,0,0,0,0,0,.06,0,0v0s0,0,0,0v0l0,0,0,0s0,0,0,0l0,0-.09.09,0,0,0,0,0,0h0l-.09.07-.15.1a.32.32,0,0,0-.1.13.23.23,0,0,0,0,.16.2.2,0,0,0,.28.08c.13-.1.27-.18.39-.29a.7.7,0,0,0,.28-.55.54.54,0,0,0-.22-.4.21.21,0,0,0-.29,0,.21.21,0,0,0,0,.3Z"/><path d="M170,119.91l0,0,0,0h0s0,0,0,0,0,0,0,0v0s0,0,0,0,0,0,0,0v0s0-.06,0,0a0,0,0,0,1,0,0s0,0,0,0v0h0l0,.07,0,0c0-.06,0,0,0,0a.63.63,0,0,1-.11.12l-.06.05,0,0s0,0,0,0l-.22.16a.22.22,0,0,0,0,.3.23.23,0,0,0,.3,0s0,0,0,0l0,0,.09-.06.24-.2a.74.74,0,0,0,.26-.59.67.67,0,0,0-.22-.43.21.21,0,0,0-.3,0,.22.22,0,0,0,0,.3Z"/><path d="M170.45,121.09l.06.06v0l0,0,0,0v0s0,0,0,0v0h0v0h0s0,0,0,0v0s0,0,0,0,0,0,0,0l0,0,0,0h0l0,0-.09.09-.09.08s0,0,0,0l0,0,0,0-.19.14a.21.21,0,1,0,.3.3l0,0h0l0,0,.09-.06a2.11,2.11,0,0,0,.23-.19.72.72,0,0,0,.28-.57.67.67,0,0,0-.22-.41.21.21,0,0,0-.3,0,.21.21,0,0,0,0,.29Z"/><path d="M171,122.15l0,0v0s0,0,0,0l0,0s0,0,0,0,0,0,0,0v0s0,0,0,0,0-.06,0,0v0s0-.06,0,0,0,0,0,0,0,0,0,0v0l0,.06h0l0,0-.11.12-.06,0,0,0c.05-.05,0,0,0,0l-.21.15a.21.21,0,0,0,0,.3.2.2,0,0,0,.29,0s0,0,0,0l0,0,.09-.07.24-.19a.78.78,0,0,0,.27-.59.66.66,0,0,0-.23-.42.2.2,0,0,0-.29,0,.21.21,0,0,0,0,.3Z"/><path d="M171.37,123l0,.05s0,0,0,0v0a.73.73,0,0,0,.05.09s0,0,0,0v0a.09.09,0,0,0,0,0s0,0,0,0v.06c0,.06,0,0,0,0s0,0,0,0,0,0,0,0,0,0,0,0a.25.25,0,0,1,0,.07l0,0h0a2.39,2.39,0,0,1-.23.22l0,0s0,0,0,0h0l-.11.09a.21.21,0,0,0,0,.3.22.22,0,0,0,.3,0l0,0h0l.12-.09.2-.18a.83.83,0,0,0,.26-.62.81.81,0,0,0-.23-.46.21.21,0,1,0-.3.3Z"/><polygon class="cls-6" points="168.99 139.2 168.99 141.39 169.78 143.3 170.04 143.3 169.35 140.7 169.29 139.06 168.99 139.2"/><path class="cls-18" d="M157.91,109.75l-.24,0,.07-.32h.09a.47.47,0,0,0,.2-.06.23.23,0,0,0,.1-.12.34.34,0,0,0,0-.18v-.36a.23.23,0,0,0,0-.11.16.16,0,0,0-.07-.07.36.36,0,0,0-.15,0l-.62.06-.1-.89.4,0,.06.57.28,0a.68.68,0,0,1,.45.08.48.48,0,0,1,.18.36v.41a.65.65,0,0,1-.16.48A.8.8,0,0,1,157.91,109.75Z"/><path class="cls-18" d="M159.22,107.78l-.08.56-.34,0,.18-.57Zm.51,0-.08.56-.33,0,.17-.57Z"/><path class="cls-18" d="M161.63,109.36l-.4,0-.09-.84a.42.42,0,0,0-.11-.26.4.4,0,0,0-.3-.08l-.22,0-.4.11V108a4.27,4.27,0,0,1,.67-.15.62.62,0,0,1,.76.61Zm-1,.1-.39,0-.1-.87.38-.23Z"/><path class="cls-18" d="M161.9,109l.75-.08-.87-1,.34-.22.56.62a.44.44,0,0,0,0-.15.72.72,0,0,0,0-.21l0-.29.39,0,0,.32a.63.63,0,0,1,0,.31.82.82,0,0,1-.21.3l.28.32,0,.28-1.26.13Z"/><polygon class="cls-1" points="26.15 93.29 27.96 90.61 28.56 87.02 30.8 83.72 33.71 84.91 36.4 87.8 35.69 90.09 30.98 92.76 26.15 93.29"/><polygon class="cls-2" points="47.98 106.23 45.83 104.76 42.27 102.19 19 106.33 16.2 109.1 17.45 112.67 38.85 114.83 47.02 109.47 47.98 106.23"/><polygon class="cls-2" points="32.09 92.45 30 96.07 30.05 98.11 24.12 108.38 18.23 112.39 14.32 109.13 14.1 107.62 14.34 106.1 23.19 93.28 25.51 92.8 27.31 89.7 30.71 92.47 32.09 92.45"/><path d="M23.93,105.6a9.35,9.35,0,0,1,1,2.32.14.14,0,0,0,.27-.08,9.48,9.48,0,0,0-1-2.38c-.09-.15-.33,0-.24.14Z"/><path d="M28.51,95.35A6.8,6.8,0,0,1,29.07,94a7.37,7.37,0,0,1,.43-.78,1.12,1.12,0,0,1,.19-.24l0,0s.08,0,0,0l.05,0h0c.3-.09.17-.55-.12-.46a.82.82,0,0,0-.4.31,4.52,4.52,0,0,0-.39.58,11.86,11.86,0,0,0-.65,1.4c-.07.18-.14.36-.19.54a.24.24,0,0,0,.46.12Z"/><polygon class="cls-1" points="38.49 81 39.28 81.03 39.41 81.73 36.86 83.51 34.67 84.76 34.8 84.82 39.58 82.05 40.47 81.99 40.83 82.38 41.3 82.33 41.88 82.65 41.83 83.33 42.19 84.23 42.11 84.68 39.32 87.58 35.69 90.09 30.74 84.75 30.8 83.72 32.21 82.43 33.06 80.73 33.62 81.21 33.73 82.6 32.82 84.03 36.02 82.55 38.49 81"/><path class="cls-5" d="M36.57,107.76a6.28,6.28,0,0,1-1.68,4.9c-.19.2.11.49.29.3a6.75,6.75,0,0,0,1.81-5.2c0-.27-.44-.27-.42,0Z"/><path class="cls-5" d="M36.86,105c-.14,1.69-.27,3.38-.41,5.07,0,.31.45.3.47,0,.15-1.69.28-3.38.42-5.07,0-.31-.45-.31-.48,0Z"/><path class="cls-5" d="M36.05,111.49c.41-1.14.54-2.37.9-3.52a.24.24,0,0,0-.46-.13c-.36,1.16-.49,2.38-.9,3.53-.1.29.36.41.46.12Z"/><polygon class="cls-6" points="35.27 112.41 34.3 114.67 18.48 112.71 20.19 109.89 20.91 109.28 19.94 112.14 24.32 106.32 22.43 112.06 26.8 109.64 25.67 112.8 32.08 113.44 35.27 112.41"/><path class="cls-5" d="M36.52,109.83c-.67,1.37-1.39,2.7-2.06,4.07l.44.18c.63-2.25,1.51-4.43,2.13-6.69a.24.24,0,0,0-.46-.12c-.62,2.25-1.5,4.43-2.13,6.69a.24.24,0,0,0,.44.18c.66-1.37,1.38-2.71,2-4.07.13-.27-.28-.51-.41-.24Z"/><path d="M23.91,105.53a20.13,20.13,0,0,1-.45,2.69,7.22,7.22,0,0,1-.94,2.5c-.11.14.13.28.24.14a7.37,7.37,0,0,0,1-2.57,21.17,21.17,0,0,0,.45-2.76c0-.18-.26-.18-.28,0Z"/><path class="cls-7" d="M27.26,108.52s-1.76,3.37-3.35,4.59"/><path class="cls-7" d="M20.89,109.14a11.05,11.05,0,0,1-1.74,3.45"/><polygon class="cls-1" points="82.79 91.72 80.91 89.08 80.22 85.5 77.92 82.25 75.03 83.52 72.41 86.47 73.17 88.75 77.94 91.31 82.79 91.72"/><polygon class="cls-2" points="63.67 104.55 65.81 103.09 69.38 100.51 92.65 104.65 95.45 107.42 94.19 110.99 72.8 113.16 64.62 107.79 63.67 104.55"/><polygon class="cls-2" points="76.83 91.02 79.01 94.59 79 96.62 85.17 106.75 91.16 110.63 94.99 107.27 95.17 105.76 94.9 104.24 85.75 91.64 83.41 91.22 81.55 88.15 78.21 91 76.83 91.02"/><path d="M87.47,103.78a9.92,9.92,0,0,0-1,2.39.14.14,0,0,0,.28.07,9.26,9.26,0,0,1,1-2.31.14.14,0,0,0-.24-.15Z"/><path d="M80.93,93.71a8,8,0,0,0-.46-1.14,6.47,6.47,0,0,0-.77-1.29.91.91,0,0,0-.46-.36.23.23,0,0,0-.12.45c.06,0,0,0,0,0l0,0s0,0,0,0l0,0a1.06,1.06,0,0,1,.19.24,5.84,5.84,0,0,1,.45.76c.14.27.27.54.39.82a4.75,4.75,0,0,1,.2.54.24.24,0,0,0,.46-.12Z"/><polygon class="cls-1" points="70.16 79.72 69.37 79.77 69.26 80.48 71.85 82.19 74.07 83.4 73.94 83.46 69.09 80.79 68.2 80.76 67.85 81.15 67.39 81.12 66.81 81.45 66.87 82.13 66.54 83.04 66.63 83.49 69.48 86.32 73.17 88.75 77.99 83.29 77.92 82.25 76.47 81.01 75.58 79.33 75.03 79.81 74.95 81.2 75.9 82.62 72.67 81.22 70.16 79.72"/><path class="cls-5" d="M74.65,106.08a6.74,6.74,0,0,0,1.81,5.2c.19.2.48-.1.3-.29a6.35,6.35,0,0,1-1.69-4.91c0-.27-.39-.27-.42,0Z"/><path class="cls-5" d="M76.05,109.69c-.41-1.15-.53-2.37-.9-3.53-.09-.29-.55-.16-.46.13.37,1.16.49,2.38.9,3.53.11.28.57.16.46-.13Z"/><polygon class="cls-6" points="76.38 110.73 77.34 112.99 93.17 111.04 91.45 108.22 90.74 107.6 91.7 110.46 87.32 104.65 89.21 110.38 84.85 107.96 85.98 111.12 79.56 111.76 76.38 110.73"/><path class="cls-5" d="M74.72,108.39c.66,1.37,1.38,2.71,2,4.07.12.25.5.07.43-.18-.62-2.26-1.5-4.44-2.13-6.69a.24.24,0,0,0-.46.13c.63,2.25,1.51,4.43,2.14,6.68l.43-.18c-.67-1.36-1.39-2.7-2.05-4.07-.14-.27-.55,0-.41.24Z"/><path d="M87.45,103.86a21.77,21.77,0,0,0,.46,2.76,7.13,7.13,0,0,0,1,2.56c.1.15.34,0,.24-.14a7,7,0,0,1-.95-2.5,20.26,20.26,0,0,1-.45-2.68c0-.18-.3-.19-.28,0Z"/><path class="cls-7" d="M84.39,106.84s1.76,3.37,3.35,4.6"/><path class="cls-7" d="M90.75,107.46a11.31,11.31,0,0,0,1.74,3.46"/><path class="cls-8" d="M72.6,124a18.73,18.73,0,0,0-1.41-11.73c-.12-.25-.48,0-.37.21a18.31,18.31,0,0,1,1.37,11.41c-.06.26.35.38.41.11Z"/><polygon class="cls-1" points="60.02 97.32 59.87 92.03 60.64 90.86 62.66 89.54 64.08 85.9 62.25 84.48 61.36 76.8 54.68 74.57 48.09 76.59 46.9 84.48 45.87 85.48 46.66 89.31 47.46 89.82 47.49 91.97 49.11 93.99 49 98.48 46.68 101.49 49.1 109.77 54.16 112 60.84 104.71 64.08 99.86 60.02 97.32"/><g class="cls-19"><polygon class="cls-10" points="60.84 87.92 64.08 79.4 42.11 55.51 47.4 87.38 48.16 81.63 48.78 80.16 49.43 77.54 53.94 78.44 59.07 77.73 59.68 80.14 60.81 81.85 60.64 86.6 60.84 87.92"/></g><polygon points="58.55 82.74 58.6 81.71 55.89 81.15 55.29 81.85 58.55 82.74"/><polygon points="52.28 82.09 52.17 81.04 49.77 81.62 49.38 82.39 52.28 82.09"/><path d="M55.9,88.79a6.17,6.17,0,0,1-3.75.61c-.31-.05-.44.42-.13.47a6.79,6.79,0,0,0,4.13-.66c.28-.14,0-.56-.25-.42Z"/><path d="M58.69,93.28l-3.78,2.38H51.83L49.62,94.3,51.37,98a2.11,2.11,0,0,0,1,1.08h0a2.18,2.18,0,0,0,1,.25h.1a2.11,2.11,0,0,0,1.36-.5l.78-.65a2,2,0,0,0,.49-.6l1.75-3.17Z"/><path d="M59.41,92.28c-1,.85-2,1.72-3.07,2.58l-.63.53c-.24.2.1.54.34.34,1-.85,2.05-1.72,3.08-2.58l.63-.53c.24-.2-.11-.54-.35-.34Z"/><path d="M50.76,82.33a2.12,2.12,0,0,1,0,1.53l.41-.11a.81.81,0,0,1-.17-.3,1.6,1.6,0,0,1,0-.21,1,1,0,0,1,0-.19,3.38,3.38,0,0,1,0-.45c0-.07,0-.14,0-.21s0-.08,0,0,0,0,0,0h0s-.07,0-.16,0-.14,0-.16,0a.17.17,0,0,1,.05-.2l.1-.06h.05a.25.25,0,0,0-.25.24.25.25,0,0,0,.25.25c.19,0,.31-.19.27-.37a.32.32,0,0,0-.37-.22c-.3.08-.29.48-.3.73a1.86,1.86,0,0,0,.38,1.44.24.24,0,0,0,.4-.11,2.51,2.51,0,0,0,0-1.79.25.25,0,0,0-.3-.17.27.27,0,0,0-.17.3Z"/><path d="M56.78,82.17a2.1,2.1,0,0,1,0,1.52l.41-.1a.85.85,0,0,1-.17-.31,1.6,1.6,0,0,1-.05-.21.92.92,0,0,1,0-.19,3.38,3.38,0,0,1,0-.45c0-.07,0-.14,0-.21s0-.08,0,0,0,0,0,0h0s-.07,0-.16,0-.14,0-.16,0a.18.18,0,0,1,0-.2l.1-.06h0a.25.25,0,1,0,0,.49.28.28,0,0,0,.27-.36.32.32,0,0,0-.37-.23c-.3.08-.29.48-.3.73a1.86,1.86,0,0,0,.38,1.44.24.24,0,0,0,.4-.11,2.54,2.54,0,0,0,0-1.78.25.25,0,0,0-.48.13Z"/><path d="M62.33,87.06l-1,.54a.25.25,0,0,0-.09.34.24.24,0,0,0,.33.08l1.06-.53a.26.26,0,0,0,.09-.34.27.27,0,0,0-.34-.09Z"/><path d="M61.8,86.57l-.66,1.2a.25.25,0,1,0,.43.25l.65-1.2a.26.26,0,0,0-.09-.34.24.24,0,0,0-.33.09Z"/><path d="M63.53,86a2.94,2.94,0,0,0-1.71.58.25.25,0,0,0-.09.33.24.24,0,0,0,.33.09,2.49,2.49,0,0,1,1.47-.51.25.25,0,0,0,.24-.25.24.24,0,0,0-.24-.24Z"/><polygon points="45.82 143.45 70.09 140.6 70.2 134.86 46.17 134.84 45.82 143.45"/><polygon class="cls-2" points="69.99 118.07 69.74 136.58 66.24 137.98 57.26 137.3 46.22 136.44 45.68 135.61 46.22 133.78 40.87 115.02 37.01 108.85 38.74 103.02 46.71 99.14 49.13 96.53 49.28 98.09 49.11 100.78 53.39 108.05 60.12 98.89 60.21 96.89 60.17 96.17 59.89 94.1 62.4 96.56 73.74 100.91 74.75 112.37 69.99 118.07"/><g class="cls-20"><polyline class="cls-6" points="45.87 137.59 47.84 134.04 41.49 116.26"/></g><polygon class="cls-6" points="69.54 136.66 69.3 126.37 69.3 119.22 69.76 119.36 69.88 136.55 69.54 136.66"/><path d="M42.7,115.41a17.24,17.24,0,0,1,.37,2.69c0,.43,0,.86,0,1.3a3.81,3.81,0,0,0,.07,1.17c.21.59.7.64,1.24.72.81.11,1.63.22,2.44.31a17.25,17.25,0,0,0,2.87.09,1,1,0,0,0,1-.69,19.43,19.43,0,0,0,.4-3.32,27.74,27.74,0,0,1,.46-4,.21.21,0,0,0-.41-.11,62.4,62.4,0,0,0-.69,6.26c0,.36,0,1-.31,1.23s-.67.19-1,.2-.9,0-1.35,0c-.87-.05-1.74-.15-2.6-.27l-.88-.13c-.31,0-.64,0-.8-.38a2,2,0,0,1,0-.69c0-.21,0-.42,0-.62l-.06-1.3a17.11,17.11,0,0,0-.37-2.57c-.06-.27-.47-.16-.41.11Z"/><path d="M57.87,114.86c.12.94.23,1.89.34,2.84.08.69.16,1.39.23,2.09a1.07,1.07,0,0,0,.78,1,9.39,9.39,0,0,0,1.19.09c.45,0,.91.07,1.36.09.95.05,1.91.08,2.86,0,.67,0,1.53,0,2-.54a3.29,3.29,0,0,0,.28-1.62,42.85,42.85,0,0,1,.3-5.07c0-.27-.36-.38-.41-.12a24.78,24.78,0,0,0-.25,3.75c0,.67,0,1.34-.11,2a1.65,1.65,0,0,1-.17.83c-.24.32-.73.28-1.09.31a29.45,29.45,0,0,1-4.88-.1,3.29,3.29,0,0,1-1.1-.13c-.31-.17-.31-.47-.34-.78q-.09-.91-.21-1.83c-.11-1-.22-1.9-.34-2.84,0-.27-.46-.27-.42,0Z"/><polygon class="cls-2" points="53.7 137.01 53.7 143.3 52.21 143.3 52.21 136.06 53.7 136.06 53.7 137.01"/><polygon class="cls-2" points="49.13 137.01 49.13 143.3 47.64 143.3 47.64 136.06 49.13 136.06 49.13 137.01"/><polygon class="cls-2" points="60.41 136.13 60.41 143.27 62.05 143.27 62.05 135.17 60.41 135.17 60.41 136.13"/><rect class="cls-2" x="67.51" y="134.84" width="1.49" height="7.14"/><path d="M45.39,105.72a3.39,3.39,0,0,1,1.46-1.88,6.63,6.63,0,0,1,1.85-.63l-.29-.12a7.77,7.77,0,0,1,.64,2c.07.36.56.65.82.87.55.47,1.11.93,1.65,1.41.24.21.48.42.71.65l.22.23s0,.07.06.07,0,0,0,0,0-.17.09-.25c-.27.19,0,.63.26.44s0-.6-.2-.81a15.93,15.93,0,0,0-1.22-1.1c-.46-.4-.93-.79-1.4-1.18l-.44-.4-.09-.09s0,.09,0,0a2.24,2.24,0,0,0,0-.24,7.41,7.41,0,0,0-.69-1.91.26.26,0,0,0-.29-.12,6.5,6.5,0,0,0-2.13.78,4,4,0,0,0-1.53,2.1c-.12.31.38.44.49.13Z"/><path d="M49,104.31a9.9,9.9,0,0,0-2,.23,13.31,13.31,0,0,0-1.88.61c-.31.12-.17.62.13.5a11.86,11.86,0,0,1,1.83-.6,9.2,9.2,0,0,1,1.88-.23.26.26,0,0,0,0-.51Z"/><path d="M47.69,98.14a8.52,8.52,0,0,0-2.27,4.35,16.56,16.56,0,0,0-.49,2.87c0,.33.49.33.51,0a17.19,17.19,0,0,1,.45-2.66,8.13,8.13,0,0,1,2.16-4.2c.25-.22-.11-.58-.36-.36Z"/><path d="M70.71,119.72a7,7,0,0,0-1.42-2.26,3.6,3.6,0,0,0-2.05-1,.23.23,0,1,0-.12.44,3.2,3.2,0,0,1,1.88.94A6.84,6.84,0,0,1,70.32,120c0,.11.21.13.31.08a.25.25,0,0,0,.08-.31Z"/><path class="cls-5" d="M38.67,111.91a6.86,6.86,0,0,1,2.49,5c0,.29.46.29.45,0A7.28,7.28,0,0,0,39,111.59c-.23-.19-.55.13-.32.32Z"/><path class="cls-5" d="M69.1,117.68c-.47.8-.74,1.69-1.21,2.49-.15.25.24.47.39.22.47-.79.74-1.68,1.21-2.48a.23.23,0,0,0-.39-.23Z"/><path class="cls-5" d="M70.71,119.72a2.24,2.24,0,0,0-1.41-1,.59.59,0,0,0-.57.19,3.31,3.31,0,0,0-.47.58,6.5,6.5,0,0,0-.37.63c-.13.25.26.48.39.22s.24-.41.37-.61a2,2,0,0,1,.24-.33l.12-.14,0,0,0,0s0,0,0,0l.06,0h.06a1.64,1.64,0,0,1,.39.14,1.79,1.79,0,0,1,.71.6c.15.24.54,0,.39-.23Z"/><path class="cls-5" d="M70,118.71a.84.84,0,0,0-.55-.15h-.31c.06,0,0,0,0,0h0l-.32.32c.14.11.31.27.51.19a.26.26,0,0,0,.13-.1.19.19,0,0,0,0-.18l-.2-.56-.37.22.46.56a.23.23,0,0,0,.32,0,.25.25,0,0,0,0-.33l-.46-.55a.23.23,0,0,0-.28,0,.22.22,0,0,0-.1.26l.2.56.16-.27h0s0,0,0,0l0,0,0,0,0,0h0l-.06,0a.26.26,0,0,0-.16-.07.24.24,0,0,0-.16.07.22.22,0,0,0,0,.32.75.75,0,0,0,.54.15h.24s0,0,0,0h.07l0,0s0,0,0,0a.22.22,0,0,0,.32,0,.23.23,0,0,0,0-.32Z"/><path class="cls-5" d="M67.3,134.67c-.58.32-1.13.7-1.71,1A19.4,19.4,0,0,1,62.46,137c-.31.11-.18.61.14.5a22,22,0,0,0,3.22-1.32c.59-.32,1.14-.71,1.74-1,.29-.15,0-.6-.26-.44Z"/><path d="M66.7,109.73c-3.41.47-6.82.84-10.25,1.11-.33,0-.33.54,0,.52q5.2-.42,10.39-1.14c.32,0,.18-.54-.14-.49Z"/><path d="M56.23,111.12a13.78,13.78,0,0,0-.67,3.32c-.08.32.42.46.49.14a14.27,14.27,0,0,1,.62-3.2c.15-.3-.3-.56-.44-.26Z"/><path d="M66.61,110.1a10.58,10.58,0,0,1-.06,4.12c-.07.32.43.46.5.13a11.58,11.58,0,0,0,.06-4.39c-.06-.32-.56-.18-.5.14Z"/><path d="M66.78,114.1l-1,.21a.26.26,0,0,0-.18.32.25.25,0,0,0,.31.18l1-.22a.26.26,0,0,0,.18-.31.25.25,0,0,0-.31-.18Z"/><path class="cls-5" d="M52.86,136.57a12.91,12.91,0,0,1,.73-3.11,13.76,13.76,0,0,0,.39-3.13c.09-2.17.09-4.34.07-6.51,0-4.51-.15-9-.21-13.52a.26.26,0,0,0-.51,0c.06,4.51.19,9,.21,13.52,0,2.17,0,4.34-.07,6.51a14,14,0,0,1-.51,3.46,10.25,10.25,0,0,0-.61,2.78.26.26,0,0,0,.51,0Z"/><path d="M51.26,111.65a5.75,5.75,0,0,1-.8,3.64c-.16.29.28.55.44.26a6.21,6.21,0,0,0,.85-4,.25.25,0,0,0-.31-.18.25.25,0,0,0-.18.31Z"/><path d="M51.19,111.42a31.49,31.49,0,0,0-8.65.87c-.32.08-.18.57.14.49a31.2,31.2,0,0,1,8.51-.85.26.26,0,0,0,0-.51Z"/><path d="M42.52,112.51a7,7,0,0,1-.39,2.8c-.11.31.38.45.5.14a7.36,7.36,0,0,0,.4-2.94c0-.33-.54-.33-.51,0Z"/><path d="M50.78,115.08a23.53,23.53,0,0,1-3.18.25c-1.52.1-3.05.19-4.58.31a9.82,9.82,0,0,0-1.33.13c-.32.07-.19.57.14.5A21.87,21.87,0,0,1,45,116c1.53-.1,3.06-.19,4.58-.3a9.82,9.82,0,0,0,1.33-.13c.33-.07.19-.57-.13-.5Z"/><line class="cls-12" x1="49.27" y1="104.59" x2="47.14" y2="104.97"/><path d="M48.77,103a3.82,3.82,0,0,0-2.13.6,3.91,3.91,0,0,0-1.28,1.34l0,.4,3.36-.86.44.12Z"/><path d="M63,102.63c-.72,0-1.45.11-2.17.19l-1.07.1a4.07,4.07,0,0,1-.5,0h-.11l0,0,0-.09c0-.11.08-.22.11-.32l-.5-.07a.79.79,0,0,0,.25.7.52.52,0,0,0,.72-.13.51.51,0,0,0-.16-.7.36.36,0,0,0-.53.37c0,.59.81.5,1.19.41L61,103a1.2,1.2,0,0,1,.56-.06.25.25,0,0,0,.14-.49,6.89,6.89,0,0,0-1.87-.06c-.33,0-.33.5,0,.52a6.25,6.25,0,0,1,1.73,0l.14-.49a2.15,2.15,0,0,0-1.09.12c-.18,0-.37.11-.56.15a2,2,0,0,1-.24,0,.48.48,0,0,0-.12,0h0c-.07,0-.1,0-.1.08H59.3c.06,0,0,0,0,0s0-.18,0-.26a.26.26,0,0,0-.5-.07,1.4,1.4,0,0,0-.16.66.44.44,0,0,0,.45.36,8.73,8.73,0,0,0,1.24-.09c.87-.08,1.75-.2,2.63-.24.33,0,.33-.53,0-.51Z"/><path class="cls-2" d="M70.2,141.83s0-2.19-.08-2.18l-1.11.5-.67,0-23.13-2.53s-.06,2.15-.07,2.18l-.68,1.5h0l-.81,2.6H70.87Z"/><g class="cls-21"><rect class="cls-6" x="33.54" y="132.99" width="12.61" height="11.84"/></g><path class="cls-2" d="M70.82,160.25h0a.07.07,0,0,0,.12.07l0,0v0A.07.07,0,0,0,70.82,160.25Z"/><path d="M53.11,143.59c.37-1.45.81-2.88,1.27-4.3.1-.32-.4-.45-.5-.14-.45,1.43-.89,2.86-1.27,4.31a.26.26,0,0,0,.5.13Z"/><path d="M51.59,143.66c.19-.83.34-1.65.58-2.46a9.24,9.24,0,0,1,.46-1.24,3,3,0,0,1,.25-.47.77.77,0,0,1,.21-.2c.29-.14,0-.59-.26-.44a1.55,1.55,0,0,0-.61.77,9.52,9.52,0,0,0-.49,1.29c-.28.86-.43,1.73-.64,2.61-.08.32.42.46.5.14Z"/><path class="cls-5" d="M38.38,111.66A6.32,6.32,0,0,1,40,114a.24.24,0,0,0,.3.16.23.23,0,0,0,.16-.29,6.83,6.83,0,0,0-1.71-2.56c-.23-.21-.56.12-.34.33Z"/><path d="M39,104.33c2.14,0,4.26-.49,6.4-.5.27,0,.27-.43,0-.42-2.14,0-4.26.49-6.4.5a.21.21,0,0,0,0,.42Z"/><path d="M39.24,104.18a0,0,0,0,0,0,0c0,.06,0,0,0,0s0,0,0-.08l.09-.17.24-.41.48-.75.11-.15a.22.22,0,0,0-.37-.22c-.28.42-.56.85-.81,1.29a2.93,2.93,0,0,0-.19.4.21.21,0,1,0,.4.11Z"/><path d="M64.43,100.44l3.61.86a.2.2,0,0,0,.1-.38l-3.6-.86c-.25-.06-.35.32-.11.38Z"/><polygon class="cls-14" points="62.39 102.97 64.82 103.9 64.47 102.07 67.97 102.52 66.96 105.04 66.77 108.99 65.02 108.75 63.89 108.18 62.79 107.18 62.3 105.64 62.39 102.97"/><path d="M68.78,102.48c-.69,1.81-1.44,2.84-1,4.72a8.17,8.17,0,0,1,.3,1.52c0,.35-1.19.74-1.31.27a9.39,9.39,0,0,1,.69-6.54"/><path d="M64.69,106.29A10.28,10.28,0,0,0,66,105.16c.43-.4.84-.81,1.27-1.2.2-.19-.1-.48-.3-.3l-1.24,1.18a9.47,9.47,0,0,1-1.29,1.08c-.23.15,0,.51.22.37Z"/><polygon class="cls-14" points="65.14 98.62 67.63 99.35 69.83 100.12 68.97 98.75 65.71 98.3 64.33 98.29 65.14 98.62"/><path d="M62.22,96.74c1.56,1.93,2,4.75,2.21,7.15l.44-.18c-1.55-1.52-3.85-1.33-5.81-1.82a.25.25,0,0,0-.29.11,9.08,9.08,0,0,0-.7,3.41l.33-.24a3.21,3.21,0,0,0-2.4.77c-.82.58-1.53,1.27-2.31,1.89-.26.2.11.57.36.36.67-.52,1.28-1.11,2-1.62a3.14,3.14,0,0,1,2.25-.91.26.26,0,0,0,.33-.25,8.27,8.27,0,0,1,.62-3.15l-.29.12c1.85.47,4.13.27,5.59,1.69.15.14.46.05.44-.18-.24-2.55-.71-5.46-2.37-7.51-.2-.26-.57.11-.36.36Z"/><path d="M64.42,102c1,.24,1.93.38,2.9.53.7.1,1.42.15,2.11.32a.21.21,0,0,0,.11-.41c-.69-.17-1.41-.22-2.11-.32a28.43,28.43,0,0,1-2.9-.53c-.26-.06-.38.35-.11.41Z"/><path d="M63.65,98.5c1,.28,2,.62,3.05,1a25.05,25.05,0,0,1,3,1.13c.24.11.45-.25.21-.37a28,28,0,0,0-3-1.14c-1-.35-2.07-.7-3.13-1a.21.21,0,0,0-.11.41Z"/><path d="M55.94,115a66.72,66.72,0,0,0,9.79-.26c.32,0,.33-.55,0-.52a65.37,65.37,0,0,1-9.79.27c-.33,0-.33.5,0,.51Z"/><path d="M53.36,82.38A2.19,2.19,0,0,1,53,84.06c-.28.5-.62,1-1,1.46-.13.19.18.37.32.18a14.11,14.11,0,0,0,1-1.61,2.31,2.31,0,0,0,.37-1.81c-.09-.22-.44-.12-.35.1Z"/><path d="M52.33,85.07a.94.94,0,0,0-.44.85,1.07,1.07,0,0,0,.5.94,2.31,2.31,0,0,0,1.33.45,2.52,2.52,0,0,0,.72-.17,1.29,1.29,0,0,0,.58-.33.72.72,0,0,0,.19-.64c0-.21-.14-.38-.37-.36s-.23.38,0,.36c0,0,0,0,0,0v0s0,.09,0,.11a.31.31,0,0,1-.06.23.9.9,0,0,1-.51.31,1.75,1.75,0,0,1-.68.13,1.84,1.84,0,0,1-.61-.16c-.3-.13-.69-.34-.74-.69s0-.6.25-.71,0-.42-.18-.31Z"/><path class="cls-15" d="M59.68,114.86s3.32,12.7,7.75,11.88a4.6,4.6,0,0,0,3.84-5.18"/><path class="cls-15" d="M69.41,102.52s1.71-2.6,1.8-2.61"/><path class="cls-15" d="M69.15,102.61s.51-2.75,1.37-2.93"/><ellipse class="cls-16" cx="69.51" cy="106.61" rx="0.81" ry="0.43" transform="translate(-56.93 92.1) rotate(-50.35)"/><ellipse class="cls-16" cx="69.58" cy="107.73" rx="0.81" ry="0.43" transform="translate(-57.77 92.56) rotate(-50.35)"/><ellipse class="cls-16" cx="69.63" cy="108.93" rx="0.81" ry="0.43" transform="translate(-58.67 93.03) rotate(-50.35)"/><ellipse class="cls-16" cx="69.67" cy="110.25" rx="0.81" ry="0.43" transform="translate(-59.67 93.54) rotate(-50.35)"/><ellipse class="cls-16" cx="69.6" cy="111.54" rx="0.81" ry="0.43" transform="translate(-60.69 93.95) rotate(-50.35)"/><ellipse class="cls-16" cx="69.6" cy="112.77" rx="0.81" ry="0.43" transform="translate(-61.64 94.4) rotate(-50.35)"/><ellipse class="cls-16" cx="69.73" cy="114.07" rx="0.81" ry="0.43" transform="translate(-62.59 94.97) rotate(-50.35)"/><ellipse class="cls-16" cx="69.78" cy="115.38" rx="0.81" ry="0.43" transform="translate(-63.59 95.48) rotate(-50.35)"/><ellipse class="cls-16" cx="70.03" cy="116.77" rx="0.81" ry="0.43" transform="translate(-64.56 96.18) rotate(-50.35)"/><ellipse class="cls-16" cx="70.21" cy="118.02" rx="0.81" ry="0.43" transform="translate(-65.46 96.77) rotate(-50.35)"/><ellipse class="cls-16" cx="70.5" cy="119.36" rx="0.81" ry="0.43" transform="translate(-66.39 97.47) rotate(-50.35)"/><path class="cls-16" d="M71.37,120.06c.11.24-.07.67-.39,1s-.67.35-.78.12.27-.82.59-1.11S71.26,119.83,71.37,120.06Z"/><ellipse class="cls-16" cx="71.31" cy="121.69" rx="0.81" ry="0.43" transform="translate(-67.89 98.94) rotate(-50.35)"/><ellipse class="cls-16" cx="71.83" cy="122.77" rx="0.81" ry="0.43" transform="translate(-68.53 99.74) rotate(-50.35)"/><ellipse class="cls-16" cx="72.32" cy="123.65" rx="0.81" ry="0.43" transform="translate(-69.03 100.43) rotate(-50.35)"/><path class="cls-17" d="M69.15,106.06l.24-4.32.47.05a.42.42,0,0,1,.25.42l-.44,3.47Z"/><path d="M69.14,106.36l0,0h0l0,0,0,.06v0h0s0,.07,0,.1,0,0,0,0v0s0,.06,0,0v0l0,.09s0,0,0,0l0,0,0,.07,0,0h0l-.06.07a1.14,1.14,0,0,0-.11.11l-.17.15a.21.21,0,0,0,0,.3.21.21,0,0,0,.29,0l.2-.17a2.69,2.69,0,0,0,.27-.32.83.83,0,0,0,.12-.46.89.89,0,0,0-.24-.55.21.21,0,0,0-.3.3Z"/><path d="M69.35,107.57l0,0h0l0,0a.21.21,0,0,1,0,.06v0s0,0,0,0,0,.07,0,.09,0,0,0,0v0s0,.07,0,0a.06.06,0,0,1,0,0,.29.29,0,0,1,0,.09h0l0,0,0,.07,0,0h0l0,.06-.12.12-.17.15a.22.22,0,0,0,0,.3.23.23,0,0,0,.3,0c.06-.07.13-.12.19-.18a1.18,1.18,0,0,0,.27-.32.75.75,0,0,0,.13-.46.92.92,0,0,0-.24-.54.21.21,0,0,0-.3,0,.22.22,0,0,0,0,.3Z"/><path d="M69.46,109l.05.06s0,0,0,0a.08.08,0,0,1,0,0l0,0s0,0,0,0a.47.47,0,0,0,0,.09s0-.06,0,0v0s0,.06,0,0a.06.06,0,0,0,0,0v0h0a1.19,1.19,0,0,1-.09.15s0,0,0,0l0,0-.06.06-.12.11-.17.14a.21.21,0,0,0,.3.3c.11-.1.23-.19.34-.3a.86.86,0,0,0,.25-.67.75.75,0,0,0-.23-.45.2.2,0,0,0-.3,0,.21.21,0,0,0,0,.29Z"/><path d="M69.54,110.52l.06.06h0s0,0,0,0a.08.08,0,0,0,0,0l0,0s0,0,0,0v0s0,0,0,0h0v0h0s0,0,0,0v0h0s0,0,0,0l0,0,0,0s0,0,0,0l0,0-.09.09-.09.08s0,0,0,0h0l0,0-.19.13a.23.23,0,0,0,0,.3.21.21,0,0,0,.3,0l0,0h0l0,0,.09-.06.24-.19a.71.71,0,0,0,.27-.57.67.67,0,0,0-.22-.42.21.21,0,0,0-.3.3Z"/><path d="M69.53,111.69l.06,0h0s0,0,0,0l0,0v0s0,0,0,0v0s0,0,0,0,0,0,0,0v.06s0,0,0,0,0,0,0,.05l0,0s0,0,0,0,0,0,0,0l0,0a.38.38,0,0,1-.09.09l0,0,0,0s0,0,0,0h0l-.1.06a1.21,1.21,0,0,1-.14.1s-.09.07-.1.13a.18.18,0,0,0,0,.16.21.21,0,0,0,.29.08c.13-.1.26-.18.38-.28a.69.69,0,0,0,.29-.55.62.62,0,0,0-.22-.4.21.21,0,0,0-.3.3Z"/><path d="M69.61,112.78l.06,0,0,0,0,0,0,0,0,0v0s0,0,0,.06,0-.06,0,0h0v0s0,0,0,0V113h0s0,0,0,0a.11.11,0,0,1,0,.06l0,0h0l0,0-.09.08,0,0,0,0h0l-.09.06-.19.14a.2.2,0,0,0-.06.14.19.19,0,0,0,.06.15.21.21,0,0,0,.3,0s-.05,0,0,0h0l0,0,.09-.06a1.88,1.88,0,0,0,.24-.18.71.71,0,0,0,.27-.57.58.58,0,0,0-.22-.4.21.21,0,0,0-.3,0,.23.23,0,0,0,0,.3Z"/><path d="M69.74,114.15l.06,0,0,0s0,0,0,0v0s0-.05,0,0v0s0,0,0,0v0s0-.06,0,0v0l0,0v0s0,0,0,0l0,0-.09.08,0,0h0l0,0a.1.1,0,0,0,0,0l-.09.06a.78.78,0,0,0-.15.1.19.19,0,0,0-.1.12.25.25,0,0,0,0,.17.22.22,0,0,0,.29.07l.14-.09.25-.18a.67.67,0,0,0,.28-.53.55.55,0,0,0-.21-.39.22.22,0,0,0-.3,0,.22.22,0,0,0,0,.3Z"/><path d="M69.84,115.22l0,0s0,0,0,0l0,0,0,0v0s0,0,0,0,0,0,0,0a.06.06,0,0,0,0,0s0,0,0,0a0,0,0,0,1,0,0c0,.06,0,0,0,0v0s0,0,0,0h0l0,.07,0,0s0,0,0,0,0,0,0,0l0,0,0,.06-.12.1-.17.14a.2.2,0,0,0,0,.3.21.21,0,0,0,.29,0,3.24,3.24,0,0,0,.34-.29.8.8,0,0,0,.26-.63.75.75,0,0,0-.23-.46.22.22,0,0,0-.3,0,.23.23,0,0,0,0,.3Z"/><path d="M70.18,116.81l0,0,0,0h0s0,0,0,0l0,0v0a0,0,0,0,1,0,0s0-.06,0,0v0s0-.06,0,0,0,0,0,0,0,0,0,0,0,0,0,0v0l0,.06h0l0,0-.12.12-.06,0,0,0c.06,0,0,0,0,0l-.21.15a.21.21,0,0,0,0,.3.22.22,0,0,0,.3,0s0,0,0,0l0,0a.27.27,0,0,0,.08-.07,1.55,1.55,0,0,0,.24-.19.74.74,0,0,0,.27-.58.72.72,0,0,0-.22-.43.22.22,0,0,0-.3,0,.21.21,0,0,0,0,.3Z"/><path d="M70.3,118a.08.08,0,0,1,0,0l0,0h0s0,0,0,0,0,0,0,0,0,0,0,0v0s0,0,0,0,0-.06,0,0v0s0-.06,0,0,0,0,0,0l0,0s0,0,0,0v0l0,.06s0,0,0,0l0,0a.57.57,0,0,1-.11.11l-.06,0,0,0s0,0,0,0l-.21.16a.21.21,0,0,0,0,.3.2.2,0,0,0,.29,0h0l0,0,0,0,.09-.06.24-.2a.78.78,0,0,0,.27-.59.7.7,0,0,0-.23-.43.21.21,0,0,0-.3,0,.23.23,0,0,0,0,.3Z"/><path d="M70.6,119.37l.06.06s0,0,0,0,0,0,0,0v0h0v0a0,0,0,0,0,0,0s0,.05,0,0,0,0,0,0,0,0,0,0v0s0,0,0,0l0,0,0,0s0,0,0,0l0,0-.09.09-.05,0,0,0s0,0,0,0h0l-.09.06-.15.1a.26.26,0,0,0-.1.13.22.22,0,0,0,0,.16.22.22,0,0,0,.29.08c.13-.1.27-.18.39-.28a.73.73,0,0,0,.28-.55.62.62,0,0,0-.22-.41.21.21,0,0,0-.3.3Z"/><path d="M70.84,120.49s0,0,0,0l0,0v0l0,0,0,0v0s0,0,0,0,0,0,0,0v0s0-.06,0,0a.08.08,0,0,1,0,0v0a.25.25,0,0,1,0,.07l0,0c0-.06,0,0,0,0l-.12.12,0,0,0,0s0,0,0,0l-.21.16a.21.21,0,1,0,.3.3h0l0,0,.09-.07a2.11,2.11,0,0,0,.23-.19.75.75,0,0,0,.27-.59.72.72,0,0,0-.22-.44.23.23,0,0,0-.3,0,.21.21,0,0,0,0,.3Z"/><path d="M71.28,121.68l0,.06h0l0,0,0,0v0s0,0,0,0v0h0s0,0,0,0v0s0,0,0,0h0v0h0s0,0,0,0v0l0,0s0,0,0,0l0,0-.09.09-.1.07s0,0,0,0h0l0,0-.19.13a.21.21,0,0,0,0,.3.23.23,0,0,0,.3,0l0,0h0l0,0,.09-.06a2.11,2.11,0,0,0,.23-.19.73.73,0,0,0,.28-.57.67.67,0,0,0-.22-.42.22.22,0,0,0-.3,0,.21.21,0,0,0,0,.3Z"/><path d="M71.77,122.73s0,0,0,0l0,0h0l0,0s0,0,0,0,0,0,0,0v0a.08.08,0,0,0,0,0s0-.06,0,0,0,0,0,0,0-.06,0,0a0,0,0,0,0,0,0,.08.08,0,0,0,0,0s0,0,0,0v0l0,.07s0,0,0,0l0,0a.57.57,0,0,1-.11.11l-.06,0,0,0s0,0,0,0l-.21.16a.22.22,0,0,0,0,.3.23.23,0,0,0,.3,0s-.05,0,0,0l0,0,.09-.06a2.11,2.11,0,0,0,.23-.19.76.76,0,0,0,.28-.59.73.73,0,0,0-.23-.43.21.21,0,0,0-.3,0,.23.23,0,0,0,0,.3Z"/><path d="M72.2,123.55l0,0s0,0,0,0v0s0,.06,0,.08,0,0,0,0v0a.06.06,0,0,0,0,0s0,0,0,0v0c0,.06,0,0,0,0a.06.06,0,0,0,0,0,.08.08,0,0,0,0,0s0,0,0,0l0,.08,0,0s0,0,0,0l-.23.23-.06,0s0,0,0,0l0,0-.11.08a.21.21,0,1,0,.3.3l0,0h0l.12-.09a1.12,1.12,0,0,0,.2-.18.81.81,0,0,0,.27-.62.85.85,0,0,0-.23-.45.21.21,0,0,0-.3.3Z"/><polygon class="cls-6" points="69.82 139.78 69.82 141.98 70.6 143.88 70.87 143.88 70.18 141.29 70.12 139.65 69.82 139.78"/><path class="cls-18" d="M58.73,110.33l-.23,0,.07-.33h.09a.52.52,0,0,0,.2-.06.22.22,0,0,0,.1-.11.36.36,0,0,0,0-.19v-.36a.36.36,0,0,0,0-.11.13.13,0,0,0-.07-.06.33.33,0,0,0-.15,0l-.63.07-.09-.9.4,0,.06.58.28,0a.6.6,0,0,1,.44.08.42.42,0,0,1,.18.35v.41a.69.69,0,0,1-.15.49A.8.8,0,0,1,58.73,110.33Z"/><path class="cls-18" d="M60.05,108.37l-.08.56-.34,0,.18-.57Zm.51-.06-.08.56-.34,0,.18-.57Z"/><path class="cls-18" d="M62.45,109.94l-.39,0-.09-.84a.38.38,0,0,0-.12-.26.36.36,0,0,0-.29-.07l-.23,0-.39.11v-.33a2.8,2.8,0,0,1,.67-.15.71.71,0,0,1,.52.12.69.69,0,0,1,.23.49Zm-1,.1-.4,0-.09-.86.38-.24Z"/><path class="cls-18" d="M62.73,109.59l.75-.08-.88-1,.35-.22.56.62a.88.88,0,0,0,.05-.15.66.66,0,0,0,0-.2l0-.29.39,0,0,.33a.73.73,0,0,1,0,.3,1,1,0,0,1-.21.3l.28.32,0,.28-1.26.14Z"/><polygon class="cls-1" points="111.57 82.98 111.63 81.58 112.15 79.74 111.98 77.85 112.7 77.96 113.53 79.08 113.51 80.78 115.45 77.83 116.72 75.21 117.41 74.82 117.89 75.35 116.67 78.2 115.61 80.41 118.21 75.52 118.93 75.01 119.44 75.14 119.2 76.39 117.09 80.66 119.39 76.54 120.1 75.57 120.77 75.84 120.4 77.14 118.5 81.28 120.78 77.6 121.46 77.75 120.91 80.36 119.15 84.41 111.57 82.98"/><text class="cls-22" transform="translate(13.57 264.14)"> </text></svg>