<svg id="Layer_1" data-name="Layer 1" xmlns="http://www.w3.org/2000/svg" xmlns:xlink="http://www.w3.org/1999/xlink" viewBox="0 0 222.67 270.67"><defs><style>.cls-1{fill:#cab192;}.cls-2{fill:#747c58;}.cls-3{fill:#ededed;}.cls-4{fill:#cecece;}.cls-5{fill:#080808;}.cls-6{fill:#27421d;}.cls-7{clip-path:url(#clip-path);}.cls-8{fill:#271d1d;}.cls-9{clip-path:url(#clip-path-2);}.cls-10{fill:#54593e;}.cls-11{fill:#707171;}.cls-12{clip-path:url(#clip-path-3);}.cls-13{fill:#525222;}.cls-14,.cls-16,.cls-18{fill:none;}.cls-14,.cls-15,.cls-16{stroke:#27421d;stroke-width:1.02px;}.cls-14,.cls-15,.cls-16,.cls-18{stroke-linecap:round;}.cls-14,.cls-18{stroke-miterlimit:10;}.cls-15{fill:#284220;}.cls-15,.cls-16{stroke-linejoin:round;}.cls-17{fill:#231f20;}.cls-18{stroke:#000;stroke-width:0.51px;}.cls-19{fill:#cab092;}.cls-20{font-size:40px;fill:#fff;font-family:Rubik-Regular, Rubik;}</style><clipPath id="clip-path"><polygon class="cls-1" points="116.27 88.17 116 78.59 117.39 76.47 121.04 74.08 123.61 67.49 120.31 64.93 118.69 51.01 106.59 46.98 94.68 50.65 92.51 64.93 90.65 66.73 92.08 73.67 93.54 74.6 93.58 78.48 96.51 82.14 96.33 90.28 92.11 95.72 96.51 110.7 105.66 114.73 117.75 101.55 123.61 92.76 116.27 88.17"/></clipPath><clipPath id="clip-path-2"><polygon class="cls-2" points="134.31 125.73 133.86 159.23 127.52 161.77 111.27 160.54 91.28 158.99 90.31 157.48 91.28 154.16 81.6 120.21 74.61 109.04 77.75 98.48 92.17 91.47 96.55 86.74 96.83 89.55 96.52 94.44 104.26 107.59 116.44 91.02 116.61 87.39 116.55 86.08 116.04 82.34 120.58 86.8 141.1 94.66 142.93 115.41 134.31 125.73"/></clipPath><clipPath id="clip-path-3"><path class="cls-2" d="M134.7,168.73c0-.06-.09-4-.16-3.94l-2,.91s-1.18,0-1.19,0l-41.89-4.58s-.1,3.89-.13,3.94l-1.23,2.71v0l-1.47,4.72h49.29Z"/></clipPath></defs><circle class="cls-3" cx="111.33" cy="111.33" r="108.83" transform="translate(-22.6 194.11) rotate(-76.72)"/><path class="cls-4" d="M111.33,5c58.49,0,106.34,47.85,106.34,106.33h0c0,58.49-47.85,106.34-106.34,106.34h0C52.85,217.67,5,169.82,5,111.33H5C5,52.85,52.85,5,111.33,5h0m0-5A111.21,111.21,0,0,0,32.7,190,111.21,111.21,0,1,0,190,32.7,110.55,110.55,0,0,0,111.33,0Z"/><polygon class="cls-2" points="89.61 96.16 90.32 100.81 91.74 108.64 66.76 143.38 60.05 145.79 55.21 140.94 68.41 104.32 83.57 95.18 89.61 96.16"/><polygon class="cls-2" points="130.27 94.21 129.55 98.85 128.14 106.69 153.11 141.43 159.82 143.83 164.67 138.99 151.46 102.37 136.3 93.23 130.27 94.21"/><path class="cls-5" d="M145.29,110.56c-.75-2.08-1-4.29-1.63-6.39-.17-.52-1-.3-.83.23.66,2.1.88,4.31,1.63,6.39.18.52,1,.29.83-.23Z"/><path class="cls-6" d="M139,136.45a33.87,33.87,0,0,0-2.55-21.24c-.21-.44-.87-.06-.66.39a33,33,0,0,1,2.48,20.64c-.1.48.64.69.73.21Z"/><polygon class="cls-1" points="116.27 88.17 116 78.59 117.39 76.47 121.04 74.08 123.61 67.49 120.31 64.93 118.69 51.01 106.59 46.98 94.68 50.65 92.51 64.93 90.65 66.73 92.08 73.67 93.54 74.6 93.58 78.48 96.51 82.14 96.33 90.28 92.11 95.72 96.51 110.7 105.66 114.73 117.75 101.55 123.61 92.76 116.27 88.17"/><g class="cls-7"><polygon class="cls-8" points="117.76 71.14 123.63 55.74 83.84 12.48 93.42 70.17 94.81 59.77 95.92 57.09 97.09 52.37 105.26 54 114.55 52.71 115.66 57.07 117.69 60.16 117.4 68.76 117.76 71.14"/></g><polygon points="113.6 61.77 113.69 59.9 108.8 58.9 107.71 60.16 113.6 61.77"/><polygon points="102.26 60.6 102.06 58.69 97.72 59.74 97.01 61.13 102.26 60.6"/><path d="M108.81,72.72a11.19,11.19,0,0,1-6.8,1.11c-.55-.09-.79.76-.23.85a12.22,12.22,0,0,0,7.47-1.19c.51-.26.06-1-.44-.77Z"/><path d="M113.86,80.86,107,85.16h-5.57l-4-2.47,3.17,6.74a3.79,3.79,0,0,0,1.74,1.94h0a3.8,3.8,0,0,0,1.81.46h.19a3.82,3.82,0,0,0,2.46-.9l1.41-1.19a3.87,3.87,0,0,0,.89-1.08l3.16-5.74Z"/><path d="M115.17,79c-1.87,1.55-3.72,3.12-5.57,4.68l-1.14,1c-.44.36.19,1,.63.62,1.86-1.54,3.71-3.11,5.57-4.67l1.13-1c.44-.37-.19-1-.62-.63Z"/><path d="M99.51,61a3.89,3.89,0,0,1,0,2.77l.74-.2a1.57,1.57,0,0,1-.31-.55c0-.12-.07-.25-.1-.38s0-.19,0-.34a7.3,7.3,0,0,1,0-.81c0-.13,0-.26,0-.39s0-.14,0-.08,0,0,0,0h0c0,.1-.13.1-.29,0-.16.07-.25,0-.29-.05a.32.32,0,0,1,.08-.37l.19-.11h.08a.44.44,0,0,0-.44.44.44.44,0,0,0,.44.44.51.51,0,0,0,.49-.65.56.56,0,0,0-.66-.41c-.55.14-.52.87-.55,1.32a3.43,3.43,0,0,0,.69,2.61.44.44,0,0,0,.73-.2,4.6,4.6,0,0,0,0-3.23.44.44,0,0,0-.54-.31.45.45,0,0,0-.31.54Z"/><path d="M110.41,60.73a3.89,3.89,0,0,1,0,2.77l.74-.2a1.62,1.62,0,0,1-.31-.54c0-.13-.07-.26-.1-.39s0-.19,0-.34a7.3,7.3,0,0,1,0-.81c0-.13,0-.26,0-.39s0-.14,0-.07,0,0,0,0,0,0,0,0-.12.1-.28,0c-.16.07-.26.06-.29,0a.31.31,0,0,1,.08-.36l.19-.12h.08a.44.44,0,0,0-.44.44.46.46,0,0,0,.44.45.51.51,0,0,0,.49-.66.55.55,0,0,0-.66-.4c-.55.13-.52.87-.55,1.31a3.46,3.46,0,0,0,.68,2.61.45.45,0,0,0,.74-.2,4.6,4.6,0,0,0,0-3.23.45.45,0,0,0-.54-.31.44.44,0,0,0-.31.54Z"/><path d="M120.46,69.6l-1.92,1a.44.44,0,0,0-.16.6.46.46,0,0,0,.61.16l1.91-1a.44.44,0,0,0-.44-.77Z"/><path d="M119.49,68.71l-1.19,2.18a.45.45,0,0,0,.16.6.44.44,0,0,0,.6-.16l1.19-2.17a.45.45,0,0,0-.16-.61.45.45,0,0,0-.6.16Z"/><path d="M122.62,67.64a5.33,5.33,0,0,0-3.1,1,.45.45,0,0,0-.16.6.45.45,0,0,0,.61.16,4.56,4.56,0,0,1,2.65-.93.44.44,0,0,0,0-.88Z"/><polygon points="90.56 171.67 134.49 166.52 134.69 156.13 91.2 156.09 90.56 171.67"/><polygon class="cls-2" points="134.31 125.73 133.86 159.23 127.52 161.77 111.27 160.54 91.28 158.99 90.31 157.48 91.28 154.16 81.6 120.21 74.61 109.04 77.75 98.48 92.17 91.47 96.55 86.74 96.83 89.55 96.52 94.44 104.26 107.59 116.44 91.02 116.61 87.39 116.55 86.08 116.04 82.34 120.58 86.8 141.1 94.66 142.93 115.41 134.31 125.73"/><g class="cls-9"><polyline class="cls-10" points="90.65 161.07 94.22 154.63 82.73 122.45"/></g><polygon class="cls-10" points="133.5 159.38 133.06 140.75 133.06 127.82 133.9 128.06 134.12 159.19 133.5 159.38"/><path d="M84.91,120.91a28.67,28.67,0,0,1,.67,4.87c0,.79.07,1.57.09,2.35a8,8,0,0,0,.12,2.13c.39,1.07,1.29,1.16,2.26,1.29,1.47.21,2.94.42,4.42.57a30,30,0,0,0,5.19.16A1.88,1.88,0,0,0,99.55,131a32.58,32.58,0,0,0,.73-6,50.91,50.91,0,0,1,.84-7.19c.11-.48-.63-.69-.74-.21-.86,3.7-.78,7.6-1.26,11.35-.08.65-.06,1.74-.56,2.22s-1.21.35-1.81.36c-.82,0-1.63,0-2.45-.05-1.57-.1-3.15-.28-4.7-.5L88,130.78c-.57-.08-1.17-.09-1.45-.68a3.52,3.52,0,0,1-.11-1.26l0-1.13c0-.78-.06-1.56-.11-2.33a29.19,29.19,0,0,0-.67-4.67c-.11-.48-.85-.28-.74.2Z"/><path d="M112.37,119.92c.21,1.71.42,3.42.62,5.13.15,1.26.3,2.53.42,3.79a1.94,1.94,0,0,0,1.41,1.8,17,17,0,0,0,2.15.16c.82.07,1.64.13,2.47.17,1.72.08,3.45.14,5.17.06,1.21-.06,2.77.09,3.58-1,.55-.72.46-2.07.52-2.93.19-3,0-6.17.53-9.18.09-.48-.64-.69-.73-.2a43.89,43.89,0,0,0-.46,6.78c0,1.21-.07,2.42-.19,3.62a3.11,3.11,0,0,1-.32,1.5c-.43.58-1.32.51-2,.56a54.49,54.49,0,0,1-8.85-.18,5.7,5.7,0,0,1-2-.24c-.55-.3-.55-.85-.61-1.4-.11-1.11-.24-2.22-.37-3.33q-.3-2.56-.63-5.13c-.06-.49-.83-.49-.76,0Z"/><polygon class="cls-2" points="104.82 160.02 104.82 171.4 102.13 171.4 102.13 158.29 104.82 158.29 104.82 160.02"/><polygon class="cls-2" points="96.56 160.02 96.56 171.4 93.86 171.4 93.86 158.29 96.56 158.29 96.56 160.02"/><polygon class="cls-2" points="116.97 158.42 116.97 171.34 119.95 171.34 119.95 156.69 116.97 156.69 116.97 158.42"/><rect class="cls-2" x="129.83" y="156.09" width="2.7" height="12.92"/><path d="M89.79,103.38A6.07,6.07,0,0,1,92.42,100a11.71,11.71,0,0,1,3.36-1.14l-.53-.22a13.88,13.88,0,0,1,1.16,3.58c.12.66,1,1.19,1.48,1.58,1,.85,2,1.69,3,2.55.44.38.87.77,1.28,1.17.14.14.28.28.4.42s.08.13.11.14a.25.25,0,0,1,0,.07c-.07-.15,0-.3.16-.46-.5.34,0,1.15.46.81.64-.44,0-1.1-.35-1.47a29.76,29.76,0,0,0-2.21-2c-.84-.72-1.69-1.42-2.52-2.14-.27-.23-.55-.46-.8-.71,0-.05-.19-.2-.17-.17s0,.16.06,0a1.51,1.51,0,0,0,0-.42,13.57,13.57,0,0,0-1.24-3.47.47.47,0,0,0-.52-.21,11.83,11.83,0,0,0-3.87,1.4,7.36,7.36,0,0,0-2.77,3.8c-.21.56.69.81.9.25Z"/><path d="M96.38,100.82a18.42,18.42,0,0,0-3.56.42,23.65,23.65,0,0,0-3.4,1.1c-.55.22-.31,1.12.24.9a24,24,0,0,1,3.3-1.08,17.09,17.09,0,0,1,3.42-.41c.59,0,.6-1,0-.93Z"/><path d="M94,89.64c-2.25,2-3.4,5-4.12,7.89a29.48,29.48,0,0,0-.88,5.19c0,.6.89.6.93,0a29,29,0,0,1,.81-4.8c.69-2.75,1.74-5.7,3.92-7.62.45-.4-.21-1-.66-.66Z"/><path d="M135.61,128.71a12.78,12.78,0,0,0-2.56-4.08,6.45,6.45,0,0,0-3.71-1.87.43.43,0,0,0-.51.29.41.41,0,0,0,.29.5,5.79,5.79,0,0,1,3.41,1.72,12.26,12.26,0,0,1,2.37,3.86.43.43,0,0,0,.57.14.41.41,0,0,0,.14-.56Z"/><path class="cls-5" d="M77.61,114.58a12.35,12.35,0,0,1,4.52,9.09.41.41,0,0,0,.82,0A13.18,13.18,0,0,0,78.19,114c-.4-.34-1,.24-.58.58Z"/><path class="cls-5" d="M132.7,125c-.85,1.44-1.33,3.06-2.18,4.49a.41.41,0,0,0,.7.42c.86-1.44,1.34-3.06,2.19-4.5.27-.45-.44-.86-.71-.41Z"/><path class="cls-5" d="M135.61,128.71a4.05,4.05,0,0,0-2.54-1.72,1.14,1.14,0,0,0-1,.35,6,6,0,0,0-.84,1,13.07,13.07,0,0,0-.67,1.14c-.25.47.46.89.7.42s.43-.76.66-1.12c.14-.2.28-.41.44-.6l.22-.24.1-.09.06,0h0l.1-.06h0l.05,0h0s0,0,0,0a.61.61,0,0,0,.13,0,2.78,2.78,0,0,1,.7.25,3.2,3.2,0,0,1,1.28,1.08c.29.44,1,0,.71-.42Z"/><path class="cls-5" d="M134.31,126.89a1.45,1.45,0,0,0-1-.27,3.1,3.1,0,0,1-.43,0h0l-.08,0-.05,0c.12,0,.08,0,0,0a.05.05,0,0,0,0,0c-.05,0,.09.07,0,0l-.58.58c.25.21.57.49.92.35a.44.44,0,0,0,.25-.19.39.39,0,0,0,0-.32l-.36-1-.69.4.84,1a.41.41,0,0,0,.58-.58l-.84-1a.41.41,0,0,0-.69.4l.37,1,.28-.5h0c-.07,0,.1,0,0,0s.09,0,0,0l-.06,0-.05,0,0,0,0,0-.1-.09a.41.41,0,0,0-.58,0,.42.42,0,0,0,0,.58,1.41,1.41,0,0,0,1,.28h.42s.1,0,0,0h0l.08,0,.05,0c-.12,0-.08,0-.05,0a.05.05,0,0,1,0,0c.06,0-.08-.07,0,0a.41.41,0,0,0,.58,0,.42.42,0,0,0,0-.58Z"/><path class="cls-5" d="M129.44,155.78c-1.05.58-2,1.26-3.09,1.84a37.21,37.21,0,0,1-5.66,2.33c-.56.19-.32,1.09.25.89a38.27,38.27,0,0,0,5.82-2.39c1.07-.58,2.08-1.28,3.15-1.87.53-.29.06-1.09-.47-.8Z"/><path d="M128.36,110.63q-9.26,1.28-18.56,2c-.59,0-.6,1,0,.93q9.44-.75,18.81-2.06c.59-.08.34-1-.25-.89Z"/><path d="M109.4,113.15c-.93,1.89-.75,4-1.21,6-.13.58.76.83.9.25.44-1.91.24-4,1.11-5.79.27-.54-.53-1-.8-.47Z"/><path d="M128.2,111.3a19.45,19.45,0,0,1-.11,7.45c-.12.59.78.84.9.25a20.6,20.6,0,0,0,.1-7.94c-.1-.59-1-.34-.89.24Z"/><path d="M128.5,118.54l-1.83.39a.47.47,0,0,0-.33.57.48.48,0,0,0,.58.32l1.82-.39a.46.46,0,1,0-.24-.89Z"/><path class="cls-5" d="M103.32,159.21a13.37,13.37,0,0,1,.87-4.14,22.08,22.08,0,0,0,1-4.89c.22-2.79.22-5.6.24-8.4,0-6.82-.08-13.65-.21-20.48-.06-3.21-.13-6.42-.18-9.64a.47.47,0,0,0-.93,0c.17,12.43.82,24.92.21,37.34a22.14,22.14,0,0,1-1.07,5.82,14.44,14.44,0,0,0-.91,4.39.47.47,0,0,0,.94,0Z"/><path d="M100.4,114.11A10.31,10.31,0,0,1,99,120.7c-.29.52.51,1,.8.47a11.37,11.37,0,0,0,1.54-7.3.47.47,0,0,0-.57-.33.48.48,0,0,0-.33.57Z"/><path d="M100.28,113.69a57.23,57.23,0,0,0-15.65,1.57.47.47,0,0,0,.25.9,56.19,56.19,0,0,1,15.4-1.54c.6,0,.6-.91,0-.93Z"/><path d="M84.58,115.67a12.46,12.46,0,0,1-.7,5.06c-.2.57.7.81.9.25a13.33,13.33,0,0,0,.73-5.31c0-.6-1-.6-.93,0Z"/><path d="M99.53,120.32a41.43,41.43,0,0,1-5.74.45c-2.77.18-5.53.34-8.3.55a17.72,17.72,0,0,0-2.41.24c-.58.13-.33,1,.25.9a41.55,41.55,0,0,1,5.74-.45c2.77-.18,5.54-.35,8.3-.55a17.57,17.57,0,0,0,2.41-.25c.59-.12.34-1-.25-.89Z"/><line class="cls-11" x1="96.81" y1="101.32" x2="92.96" y2="102.02"/><path d="M95.9,98.45a7.06,7.06,0,0,0-3.85,1.08A7,7,0,0,0,89.73,102l.06.73,6.07-1.56.81.22Z"/><path d="M121.59,97.77c-1.31.06-2.62.22-3.92.35-.65.07-1.29.14-1.94.19l-.91.06a1.33,1.33,0,0,0-.2,0l.08.08a1,1,0,0,1,0-.16c.06-.2.13-.39.2-.59l-.91-.13a1.41,1.41,0,0,0,.46,1.28.94.94,0,0,0,1.29-.23.91.91,0,0,0-.28-1.27.66.66,0,0,0-1,.67c0,1.07,1.47.9,2.15.74.43-.11.86-.25,1.29-.35a2.19,2.19,0,0,1,1-.1.47.47,0,0,0,.25-.9,12.73,12.73,0,0,0-3.38-.1c-.6,0-.6.91,0,.93a12.12,12.12,0,0,1,3.13.07l.25-.9a4,4,0,0,0-2,.22c-.33.1-.67.2-1,.27a2.32,2.32,0,0,1-.45.06c-.07,0-.15,0-.21,0h0q-.18-.1-.18.15H115c.12.06.05,0,.05-.06s-.05-.32,0-.48a.47.47,0,0,0-.92-.12,2.69,2.69,0,0,0-.28,1.21.8.8,0,0,0,.81.64,15.58,15.58,0,0,0,2.25-.16c1.58-.16,3.17-.37,4.76-.44.59,0,.6-1,0-.93Z"/><path class="cls-2" d="M134.7,168.73c0-.06-.09-4-.16-3.94l-2,.91s-1.18,0-1.19,0l-41.89-4.58s-.1,3.89-.13,3.94l-1.23,2.71v0l-1.47,4.72h49.29Z"/><g class="cls-12"><rect class="cls-10" x="68.33" y="152.74" width="22.83" height="21.43"/></g><path class="cls-2" d="M135.82,202.09h0a.13.13,0,0,0,.22.12l0,0v-.05A.13.13,0,0,0,135.82,202.09Z"/><path d="M103.75,171.93c.68-2.62,1.48-5.21,2.3-7.79.19-.57-.71-.82-.89-.25-.83,2.58-1.62,5.17-2.31,7.8a.47.47,0,0,0,.9.24Z"/><path d="M101,172.05c.36-1.49.61-3,1.07-4.46a17.59,17.59,0,0,1,.81-2.24,6.19,6.19,0,0,1,.46-.84,1.29,1.29,0,0,1,.37-.37c.54-.26.07-1.06-.47-.8a2.89,2.89,0,0,0-1.09,1.39,17.35,17.35,0,0,0-.89,2.34c-.5,1.56-.78,3.14-1.16,4.73-.14.58.76.83.9.25Z"/><path class="cls-5" d="M77.1,114.13A11.49,11.49,0,0,1,80,118.39a.43.43,0,0,0,.83-.22,12.53,12.53,0,0,0-3.11-4.65c-.4-.37-1,.23-.6.61Z"/><path d="M78.29,100.86c3.87,0,7.7-.89,11.58-.91a.39.39,0,0,0,0-.77c-3.88,0-7.71.9-11.58.92a.38.38,0,0,0,0,.76Z"/><path d="M78.66,100.58a.08.08,0,0,0,0,0c0,.1,0,.06,0,0s0-.09.07-.14.11-.21.17-.32.29-.49.44-.74c.28-.45.57-.9.86-1.35l.19-.28a.38.38,0,1,0-.66-.39c-.51.76-1,1.53-1.46,2.33a4.84,4.84,0,0,0-.36.72.38.38,0,0,0,.74.2Z"/><path d="M124.26,93.81l6.52,1.56c.44.1.63-.58.18-.68l-6.51-1.56c-.44-.11-.63.57-.19.68Z"/><polygon class="cls-13" points="120.56 98.4 124.96 100.07 124.32 96.77 130.65 97.58 128.82 102.14 128.48 109.29 125.31 108.86 123.28 107.83 121.28 106.01 120.4 103.22 120.56 98.4"/><path d="M132.12,97.5c-1.24,3.28-2.61,5.14-1.81,8.56a13.27,13.27,0,0,1,.55,2.75c-.05.62-2.16,1.34-2.38.48-.93-3.6-.65-8.64,1.26-11.83"/><path d="M124.71,104.4a18.32,18.32,0,0,0,2.44-2c.77-.72,1.52-1.46,2.29-2.17.37-.34-.18-.88-.54-.54-.76.69-1.49,1.42-2.24,2.13a19,19,0,0,1-2.33,2c-.41.26,0,.93.38.66Z"/><polygon class="cls-13" points="125.53 90.53 130.04 91.84 134.03 93.24 132.47 90.75 126.56 89.94 124.08 89.93 125.53 90.53"/><path d="M120.25,87.12c2.82,3.49,3.6,8.6,4,12.94l.79-.33c-2.81-2.74-7-2.4-10.53-3.3a.47.47,0,0,0-.52.22,16.28,16.28,0,0,0-1.26,6.17l.59-.45c-1.59-.32-3.08.52-4.34,1.41-1.48,1-2.77,2.3-4.18,3.41-.47.37.19,1,.66.66,1.2-.95,2.31-2,3.53-2.94s2.61-1.94,4.08-1.64a.47.47,0,0,0,.59-.45,15.17,15.17,0,0,1,1.13-5.7l-.53.21c3.36.84,7.47.48,10.12,3.06.27.26.84.09.8-.33-.44-4.62-1.29-9.88-4.28-13.59-.38-.47-1,.19-.66.65Z"/><path d="M124.23,96.7c1.72.43,3.49.69,5.25,1a37.86,37.86,0,0,1,3.82.58.38.38,0,0,0,.2-.74c-1.24-.3-2.56-.4-3.82-.58-1.75-.26-3.52-.52-5.25-1a.38.38,0,0,0-.2.74Z"/><path d="M122.84,90.3c1.86.51,3.7,1.13,5.53,1.74a48.58,48.58,0,0,1,5.47,2c.44.21.83-.45.38-.66a49.38,49.38,0,0,0-5.51-2.07c-1.88-.63-3.76-1.27-5.67-1.79a.38.38,0,0,0-.2.74Z"/><path d="M108.88,120.23a119.2,119.2,0,0,0,17.72-.48c.59-.06.59-1,0-.93a119.2,119.2,0,0,1-17.72.48c-.6,0-.6.9,0,.93Z"/><path d="M104.21,61.12c.38,1-.27,2.19-.74,3a30.62,30.62,0,0,1-1.72,2.64c-.24.35.33.68.57.34a26.21,26.21,0,0,0,1.86-2.92c.5-.94,1.08-2.21.66-3.28-.15-.39-.79-.22-.63.18Z"/><path d="M102.34,66a1.8,1.8,0,0,0-.8,1.54,2,2,0,0,0,.92,1.72,4.09,4.09,0,0,0,2.4.8,4.52,4.52,0,0,0,1.31-.29,2.64,2.64,0,0,0,1-.61,1.34,1.34,0,0,0,.35-1.16c-.06-.38-.25-.68-.68-.65s-.42.69,0,.66c.1,0,.09,0,0-.06s0,0,0,0a.72.72,0,0,0,0,.19.62.62,0,0,1-.11.42,1.72,1.72,0,0,1-.92.56,3.49,3.49,0,0,1-1.23.24,3.33,3.33,0,0,1-1.11-.3c-.54-.23-1.25-.6-1.35-1.24-.06-.42,0-1.08.46-1.28s0-.76-.33-.58Z"/><path class="cls-14" d="M115.65,119.92s6,23,14,21.5,7-9.37,7-9.37"/><path class="cls-14" d="M133.26,97.57s3.1-4.7,3.26-4.72"/><path class="cls-14" d="M132.79,97.75s.92-5,2.48-5.32"/><ellipse class="cls-15" cx="133.45" cy="104.98" rx="1.46" ry="0.78" transform="translate(-32.54 140.74) rotate(-50.35)"/><ellipse class="cls-15" cx="133.58" cy="107.01" rx="1.46" ry="0.78" transform="translate(-34.05 141.58) rotate(-50.35)"/><ellipse class="cls-15" cx="133.66" cy="109.19" rx="1.46" ry="0.78" transform="translate(-35.7 142.43) rotate(-50.35)"/><ellipse class="cls-15" cx="133.73" cy="111.57" rx="1.46" ry="0.78" transform="translate(-37.51 143.34) rotate(-50.35)"/><ellipse class="cls-15" cx="133.61" cy="113.91" rx="1.46" ry="0.78" transform="translate(-39.35 144.09) rotate(-50.35)"/><ellipse class="cls-15" cx="133.61" cy="116.13" rx="1.46" ry="0.78" transform="translate(-41.06 144.9) rotate(-50.35)"/><ellipse class="cls-15" cx="133.85" cy="118.48" rx="1.46" ry="0.78" transform="translate(-42.79 145.93) rotate(-50.35)"/><ellipse class="cls-15" cx="133.93" cy="120.87" rx="1.46" ry="0.78" transform="translate(-44.59 146.86) rotate(-50.35)"/><ellipse class="cls-15" cx="134.39" cy="123.37" rx="1.46" ry="0.78" transform="translate(-46.36 148.12) rotate(-50.35)"/><ellipse class="cls-15" cx="134.72" cy="125.65" rx="1.46" ry="0.78" transform="translate(-47.99 149.2) rotate(-50.35)"/><ellipse class="cls-15" cx="135.23" cy="128.06" rx="1.46" ry="0.78" transform="translate(-49.66 150.46) rotate(-50.35)"/><path class="cls-15" d="M136.81,129.34c.2.42-.11,1.2-.7,1.73s-1.21.63-1.41.21.48-1.47,1.06-2S136.62,128.92,136.81,129.34Z"/><ellipse class="cls-15" cx="136.7" cy="132.27" rx="1.46" ry="0.78" transform="translate(-52.37 153.12) rotate(-50.35)"/><ellipse class="cls-15" cx="137.65" cy="134.23" rx="1.46" ry="0.78" transform="translate(-53.53 154.56) rotate(-50.35)"/><ellipse class="cls-15" cx="138.53" cy="135.84" rx="1.46" ry="0.78" transform="translate(-54.45 155.82) rotate(-50.35)"/><path class="cls-16" d="M132.79,104l.44-7.83.86.09a.77.77,0,0,1,.44.77l-.8,6.27Z"/><path d="M132.78,104.53l0,0s0,0,0,0l0,.08.06.1,0,0s0,0,0,0,0,.13.05.18,0-.09,0,0v.07s0,.11,0,0a.13.13,0,0,0,0,.06.75.75,0,0,1-.05.16c0,.07,0-.08,0,0a.25.25,0,0,1,0,.07.64.64,0,0,1-.08.14l0,.06s.06-.07,0,0l-.1.11c-.07.08-.14.14-.21.21s-.21.17-.31.27a.38.38,0,0,0,.54.54c.11-.11.24-.2.35-.31a2.7,2.7,0,0,0,.49-.58,1.45,1.45,0,0,0,.23-.83,1.61,1.61,0,0,0-.44-1,.38.38,0,0,0-.54,0,.39.39,0,0,0,0,.54Z"/><path d="M133.15,106.72l0,0h0l.05.08.06.11,0,0s0,0,0,0a.48.48,0,0,1,.05.18c0,.06,0-.09,0,0v.07s0,.11,0,0a.17.17,0,0,1,0,.07c0,.05,0,.1,0,.15s0-.08,0,0l0,.07-.09.14,0,0c0,.06.06-.07,0,0l-.1.12-.21.21a3.85,3.85,0,0,0-.3.27.38.38,0,0,0,0,.54.39.39,0,0,0,.54,0c.11-.11.23-.21.35-.31a3.29,3.29,0,0,0,.48-.58,1.57,1.57,0,0,0,.24-.83,1.65,1.65,0,0,0-.45-1,.37.37,0,0,0-.54,0,.39.39,0,0,0,0,.54Z"/><path d="M133.36,109.32a.39.39,0,0,1,.08.1l0,0a.43.43,0,0,1,0,.07s0,0,0,0,0,0,0,0,0,.14,0,.16,0-.1,0,0v.07s0,.11,0,0,0,.06,0,.08,0,0,0,.06-.06.11,0,0a2.26,2.26,0,0,1-.16.26c0,.08.05-.06,0,0l0,.06-.1.11-.21.19-.31.26a.39.39,0,0,0,0,.55.4.4,0,0,0,.54,0c.2-.19.42-.34.61-.55a1.53,1.53,0,0,0,.46-1.21,1.44,1.44,0,0,0-.42-.82.38.38,0,0,0-.54,0,.4.4,0,0,0,0,.54Z"/><path d="M133.5,112.06l.11.11,0,0,0,0,.05.06s0,0,0,0,0-.08,0,0l0,0s0,.09,0,0,0,0,0,0v.05s0,.08,0,0,0,0,0,0,0,0,0,0,0,.07,0,0,0,0,0,0l0,.06-.06.08s0,0,0,0l0,.05-.16.16-.17.14s.09-.06,0,0l0,0-.08.06-.34.24a.39.39,0,0,0,0,.54.38.38,0,0,0,.54,0s-.09.07,0,0l0,0,.06,0,.16-.11a4.78,4.78,0,0,0,.42-.34,1.29,1.29,0,0,0,.5-1,1.16,1.16,0,0,0-.4-.75.38.38,0,1,0-.54.54Z"/><path d="M133.48,114.18a.52.52,0,0,1,.11.1s0,.07,0,0,0,0,0,0l0,.06v0s0-.09,0,0a.43.43,0,0,1,0,0s0,.08,0,0,0,0,0,0v0c0,.07,0,0,0,0v0s0,0,0,0,0,0,0,0,0,.08-.05.1l0,0s-.06.07,0,0,0,0,0,0l0,0c-.06,0-.11.11-.17.15a.27.27,0,0,1-.08.07.08.08,0,0,1,0,0s.07-.06,0,0l0,0-.17.12-.27.18a.41.41,0,0,0-.14.53.4.4,0,0,0,.53.13c.23-.17.48-.31.7-.5a1.27,1.27,0,0,0,.51-1,1.08,1.08,0,0,0-.39-.72.4.4,0,0,0-.55,0,.39.39,0,0,0,0,.54Z"/><path d="M133.63,116.15l.11.09s0,0,0,0,0-.07,0,0l0,.06,0,0c0,.05,0-.09,0,0s0,.09,0,.11,0-.1,0-.06v.07c0,.07,0,0,0,0a.21.21,0,0,1,0,.06.06.06,0,0,1,0,0s0,0,0,0,0-.06,0,0,0,.07-.06.1a.35.35,0,0,1-.05.08s.06-.07,0,0,0,0,0,0l-.16.16-.09.07,0,0h0s.08,0,0,0l-.16.12-.34.25a.34.34,0,0,0-.12.27.42.42,0,0,0,.12.27.4.4,0,0,0,.54,0s-.1.07,0,0l0,0,.06,0,.16-.11a5,5,0,0,0,.43-.34,1.28,1.28,0,0,0,.5-1,1.15,1.15,0,0,0-.39-.74.41.41,0,0,0-.55,0,.4.4,0,0,0,0,.55Z"/><path d="M133.86,118.63l.1.09,0,0s-.06-.08,0,0,0,0,0,0v0s0-.1,0,0,0,0,0,0,0,.09,0,0,0,0,0,0,0-.11,0,0a.06.06,0,0,1,0,0s0,0,0,0l0-.06v0a.41.41,0,0,1-.05.09l0,0,0,0a.6.6,0,0,1-.08.08.75.75,0,0,1-.16.15l0,0h0l0,0s-.06,0-.08.06l-.17.12a2.53,2.53,0,0,0-.27.18.38.38,0,0,0-.18.23.37.37,0,0,0,0,.29.39.39,0,0,0,.52.14l.26-.17.44-.32a1.21,1.21,0,0,0,.52-1,1,1,0,0,0-.39-.7.44.44,0,0,0-.27-.11.4.4,0,0,0-.27.11.39.39,0,0,0,0,.54Z"/><path d="M134.05,120.57l.08.09s0,0,0,0l0,0a.22.22,0,0,1,0,.08l0,0s0,0,0,0a.32.32,0,0,0,0,.09.12.12,0,0,0,0,.08s0-.09,0,0V121c0,.11,0-.06,0,0a.13.13,0,0,1,0,.06s0,0,0,.08,0-.06,0,0a.75.75,0,0,1-.07.12l0,.07s-.07.08,0,0,0,0,0,0l-.06.06-.1.11-.21.19c-.1.08-.22.16-.32.25a.4.4,0,0,0,0,.54.38.38,0,0,0,.54,0,7.87,7.87,0,0,0,.62-.53,1.5,1.5,0,0,0,.47-1.14,1.44,1.44,0,0,0-.42-.84.39.39,0,1,0-.54.55Z"/><path d="M134.66,123.45l.07.07,0,0s0,0,0,0,0,0,0,.07a.25.25,0,0,1,0,.07c0-.06,0-.08,0,0v0a.64.64,0,0,1,0,.07c0,.06,0-.11,0,0v.07c0,.06,0-.11,0,0s0,0,0,.07l0,.06,0,0,0,0a.75.75,0,0,1-.07.12s-.08.09,0,0l-.05.06a2.08,2.08,0,0,1-.21.21l-.11.09-.05,0h0c-.13.1-.26.18-.38.28a.38.38,0,0,0,.54.54c.06,0-.09.07,0,0l.07,0,.16-.12a4.46,4.46,0,0,0,.42-.34,1.34,1.34,0,0,0,.49-1.06,1.21,1.21,0,0,0-.4-.77.38.38,0,0,0-.54.54Z"/><path d="M134.88,125.5l.08.08,0,0,0,0s0,.05.05.07a.25.25,0,0,1,0,.07c0-.06,0-.07,0,0l0,0s0,.05,0,.07,0-.1,0,0v.07c0,.06,0-.11,0,0a.64.64,0,0,1,0,.07s0,0,0,.07l0,0,0,0-.07.12h0l0,.05a1.89,1.89,0,0,1-.2.2l-.11.09-.06,0c-.07.06.06,0,0,0s-.26.18-.38.29a.38.38,0,1,0,.54.54l0,0-.05,0,.07,0,.15-.11a5,5,0,0,0,.43-.35,1.4,1.4,0,0,0,.49-1.07,1.25,1.25,0,0,0-.41-.79.38.38,0,1,0-.54.54Z"/><path d="M135.42,128.09a.52.52,0,0,1,.11.1s.06.07,0,0,0,0,0,0l0,.05v0l0-.05v0s0,.1,0,0,0,0,0,.05,0-.09,0,0a.09.09,0,0,1,0,.05v0c0,.06,0,0,0,0l-.06.09s0,.06,0,.09.06-.08,0,0l0,0a1.29,1.29,0,0,1-.17.16l-.07.07,0,0,0,0,0,0-.16.12-.28.18a.48.48,0,0,0-.17.23.39.39,0,0,0,0,.3.39.39,0,0,0,.52.13c.23-.17.48-.31.7-.5a1.3,1.3,0,0,0,.51-1,1.06,1.06,0,0,0-.39-.72.39.39,0,1,0-.55.54Z"/><path d="M135.85,130.11l.08.08,0,0s0,0,0,0l.05.07s0,.05,0,.08,0-.08,0,0l0,0s0,0,0,.07,0-.06,0,0v.07c0,.06,0-.11,0,0s0,.05,0,.07,0,0,0,.05,0-.08,0,0l0,0a.75.75,0,0,1-.07.12l0,.06c.07-.1,0,0,0,0l-.21.21-.1.08-.05,0c-.08.06.06,0,0,0s-.27.19-.39.29a.38.38,0,0,0,.54.54l0,0,.07-.05.15-.11a3.73,3.73,0,0,0,.43-.36,1.37,1.37,0,0,0,.49-1.07,1.35,1.35,0,0,0-.41-.78.38.38,0,0,0-.54.54Z"/><path d="M136.65,132.26l.1.11,0,0,0,0,0,.06,0,.06c0,.05,0-.09,0,0s0,0,0,.05,0,.09,0,0,0,0,0,0v0s0,.08,0,0,0,0,0,0,0,0,0,0,0,.07,0,0,0,0,0,0l0,.05a.35.35,0,0,1-.05.08c0,.05,0,0,0,0l0,0a1.29,1.29,0,0,1-.17.16l-.16.14c-.05,0,.08-.06,0,0l0,0-.09.06-.33.24a.39.39,0,0,0,0,.55.4.4,0,0,0,.54,0s-.1.07-.05,0l0,0,.07,0,.15-.11a2.79,2.79,0,0,0,.43-.34,1.32,1.32,0,0,0,.5-1,1.16,1.16,0,0,0-.4-.75.39.39,0,0,0-.54,0,.38.38,0,0,0,0,.54Z"/><path d="M137.54,134.16l.08.08,0,0s0,0,0,0,0,.05.05.08a.25.25,0,0,0,0,.07c0-.06,0-.08,0,0v0a.14.14,0,0,1,0,.07c0,.06,0-.11,0,0v.07c0,.06,0-.11,0,0s0,.05,0,.07,0,0,0,.06,0-.08,0,0l0,0-.07.12h0l0,0-.21.21-.11.09,0,0c.09-.08,0,0,0,0s-.26.18-.38.28a.37.37,0,0,0,0,.54.39.39,0,0,0,.54,0c.05,0-.09.07,0,0l.06,0,.16-.12a3.65,3.65,0,0,0,.43-.35,1.37,1.37,0,0,0,.49-1.06,1.2,1.2,0,0,0-.41-.78.38.38,0,1,0-.54.54Z"/><path d="M138.31,135.64l.08.09s0,0,0,0l0,0s.05.11.08.14,0-.06,0,0v0s0,.05,0,.08,0-.09,0,0v.09c0,.11,0-.07,0,0s0,0,0,.07a.24.24,0,0,1,0,.08c0,.07,0-.08,0,0l-.08.14,0,.06c-.05.08,0,0,0,0a3.11,3.11,0,0,1-.41.4l-.1.08c-.07.06.07-.05,0,0l0,0-.2.15a.4.4,0,0,0,0,.54.39.39,0,0,0,.55,0l0,0,0,0c.05,0,0,0,0,0a1.84,1.84,0,0,0,.22-.17,3.73,3.73,0,0,0,.36-.32,1.48,1.48,0,0,0,.48-1.12,1.38,1.38,0,0,0-.42-.83.38.38,0,0,0-.54.54Z"/><polygon class="cls-10" points="134 165.04 134 169.01 135.43 172.46 135.91 172.46 134.66 167.76 134.54 164.79 134 165.04"/><path class="cls-17" d="M113.94,111.73l-.42,0,.13-.59.15,0a.92.92,0,0,0,.36-.1.51.51,0,0,0,.2-.21,1,1,0,0,0,.07-.34c0-.13,0-.33,0-.6v0a.53.53,0,0,0-.06-.21.32.32,0,0,0-.14-.12.71.71,0,0,0-.27,0l-1.13.12-.17-1.62.72-.07.11,1L114,109a1.14,1.14,0,0,1,.8.14.82.82,0,0,1,.33.64v.74a1.18,1.18,0,0,1-.29.88A1.35,1.35,0,0,1,113.94,111.73Z"/><path class="cls-17" d="M116.32,108.17l-.14,1-.61.06.31-1Zm.93-.09-.15,1-.61.07.32-1Z"/><path class="cls-17" d="M120.68,111l-.72.07-.16-1.52a.71.71,0,0,0-.21-.47.63.63,0,0,0-.53-.13,2.07,2.07,0,0,0-.41.07l-.71.19v-.59a5.47,5.47,0,0,1,1.22-.27,1.22,1.22,0,0,1,.95.22,1.25,1.25,0,0,1,.42.88Zm-1.76.18-.72.08-.17-1.57.69-.43Z"/><path class="cls-17" d="M121.17,110.38l1.37-.14L121,108.49l.62-.39,1,1.12a1.43,1.43,0,0,0,.09-.27,2.25,2.25,0,0,0,0-.37l-.06-.53.71-.07.06.58a1.25,1.25,0,0,1-.06.55,1.53,1.53,0,0,1-.38.54l.5.58-.06.51-2.29.24Z"/><polygon class="cls-2" points="119.28 133.57 126.79 132.73 129.7 130.47 151.03 128.07 163.22 132.34 162.66 141.54 160.7 143.49 158.22 144.77 130.04 145.64 126.85 142.77 120.39 143.5 120.77 135.56 119.28 133.57"/><path d="M148.08,133.93a17,17,0,0,1,3-3.44c.25-.22-.12-.58-.36-.36a17,17,0,0,0-3.08,3.54c-.18.28.26.53.44.26Z"/><polygon class="cls-10" points="150.3 110.11 154.75 109.92 163.94 137.28 158 136.68 156.44 136 161.86 135.34 148.94 132.73 159.77 131.34 152.41 126.1 158.45 125.47 154.47 114.51 150.3 110.11"/><path class="cls-5" d="M145.15,110.09c2.75,0,5.5.14,8.25.17l-.12-.85c-4.17.74-8.41,1-12.58,1.75-.55.1-.32.93.22.83,4.17-.74,8.42-1,12.59-1.75.49-.09.36-.84-.11-.84-2.75,0-5.5-.15-8.25-.17a.43.43,0,0,0,0,.86Z"/><path d="M147.92,134.05a37.85,37.85,0,0,1,4.67-1.37,12.8,12.8,0,0,1,4.88-.44c.32.06.46-.43.14-.49a13,13,0,0,0-4.88.38,38.2,38.2,0,0,0-4.94,1.42c-.31.12-.18.61.13.5Z"/><path class="cls-18" d="M150.22,126.23s6.88.23,10.12,1.87"/><path class="cls-18" d="M127.65,131.54s6.54-2.14,10.16-1.71"/><path class="cls-18" d="M161.29,143s-6.54,2.14-10.15,1.71"/><path class="cls-18" d="M138,145s-6.86.56-10.27-.7"/><path class="cls-18" d="M156.21,136.14a20.15,20.15,0,0,1,7,.12"/><path class="cls-5" d="M76.36,106a11.47,11.47,0,0,1-3,8.88c-.34.35.2.89.53.54A12.18,12.18,0,0,0,77.11,106c0-.48-.79-.48-.75,0Z"/><path class="cls-5" d="M76.26,109.74c-1.21,2.47-2.51,4.89-3.72,7.36l.79.33c1.13-4.08,2.73-8,3.86-12.11a.43.43,0,0,0-.83-.23c-1.13,4.09-2.73,8-3.86,12.11-.13.46.57.78.79.33,1.2-2.47,2.5-4.89,3.71-7.36.24-.5-.5-.93-.74-.43Z"/><polygon class="cls-2" points="100.6 135.53 93.08 134.68 90.17 132.42 68.84 130.02 56.66 134.29 57.21 143.49 59.18 145.44 61.66 146.72 89.83 147.59 93.03 144.72 99.48 145.45 99.1 137.51 100.6 135.53"/><path d="M72.24,135.63a17.71,17.71,0,0,0-3.08-3.55c-.25-.21-.61.15-.37.36a17,17,0,0,1,3,3.44c.18.28.62,0,.44-.25Z"/><polygon class="cls-10" points="69.57 112.06 65.13 111.87 55.93 139.24 61.88 138.64 63.44 137.96 58.02 137.29 70.94 134.69 60.1 133.29 67.47 128.06 61.42 127.43 65.4 116.47 69.57 112.06"/><path class="cls-5" d="M74.72,111.18c-2.75,0-5.49.15-8.24.17-.47,0-.61.76-.12.85,4.17.74,8.42,1,12.59,1.75.54.09.77-.73.23-.83-4.17-.74-8.42-1-12.59-1.75l-.11.84c2.75,0,5.49-.14,8.24-.17a.43.43,0,0,0,0-.86Z"/><path d="M72.08,135.51a36.26,36.26,0,0,0-4.94-1.42,13.18,13.18,0,0,0-4.88-.39c-.32.06-.18.55.14.5a12.85,12.85,0,0,1,4.89.44A37.66,37.66,0,0,1,72,136c.31.11.44-.38.13-.49Z"/><path class="cls-18" d="M69.65,128.19s-6.87.23-10.12,1.87"/><path class="cls-18" d="M58.58,144.91s6.54,2.13,10.16,1.71"/><path class="cls-19" d="M100.68,140c.93-.36,5.33.24,5.33.24l-1.57-2.66-4.55-.44-3.41-2.34-4.26,7.8s9.07,4.17,9.46,4.2S114,143.58,114,143.58l.13-3-3.15-2.39-2.54,1.5.34,1.82Z"/><path class="cls-18" d="M63.66,138.09a20.3,20.3,0,0,0-7,.13"/><path class="cls-18" d="M101.68,146.81s12.22-2.2,12.27-3.23"/><path class="cls-18" d="M112.92,131.91s1.31-1.14,2.46-.76,2.63.9,2.63.9"/><path d="M127.38,135.64a13.63,13.63,0,0,1-2.67.7,11.51,11.51,0,0,1-1.55.19,4.12,4.12,0,0,1-.61,0h-.06l-.12,0s-.11,0,0,0l-.09-.06a.42.42,0,0,0-.58.16.42.42,0,0,0,.15.58,2,2,0,0,0,1.21.24,12.13,12.13,0,0,0,1.7-.2,13.5,13.5,0,0,0,2.86-.73.43.43,0,0,0,.3-.52.44.44,0,0,0-.53-.31Z"/><path class="cls-19" d="M122.36,133.22l-.72,9.57Z"/><path class="cls-19" d="M115.65,131.56l6.71,1.66-.72,9.57h-.29l-3.56-2.11-4.57-.16L111.48,138s4.44.31,5.34-.11l-8.14-1,.47,1.8-2.44,1.66-3.31-2.18-.05-3s11.64-4,12-4"/><text class="cls-20" transform="translate(28.65 262.76)">תפוס בלם</text></svg>