<svg xmlns="http://www.w3.org/2000/svg" viewBox="0 0 222.66736 279.91406"><defs><style>.a{fill:#ededed;}.b{fill:#cecece;}.c{fill:#fff100;opacity:0.39;}.d,.g,.i{fill:#c9b092;}.e{fill:#050505;}.f{fill:#f0ea4e;opacity:0.3;}.g,.i{stroke:#000;}.g,.h,.i,.j,.k,.l{stroke-miterlimit:10;}.g{stroke-width:1.78728px;}.h,.k,.l{fill:none;}.h,.j,.k,.l{stroke:#231f20;}.h{stroke-width:2.82797px;}.i{stroke-width:1.81905px;}.j{fill:#231f20;}.j,.k{stroke-width:5px;}.l{stroke-width:4.97658px;}.m{fill:#fff;}</style></defs><circle class="a" cx="111.33362" cy="111.33368" r="108.83359" transform="translate(-46.11594 111.33364) rotate(-45)"/><path class="b" d="M111.33377,5c58.48349,0,106.33359,47.8501,106.33359,106.3335v.00024c0,58.4834-47.8501,106.3335-106.33359,106.3335h-.00021C52.85007,217.66724,5,169.81714,5,111.33374v-.00024C5,52.8501,52.85007,5,111.33356,5h.00021m0-5A111.205,111.205,0,0,0,32.69992,189.96729,111.205,111.205,0,1,0,189.96741,32.7,110.54179,110.54179,0,0,0,111.33377,0Z"/><circle class="c" cx="82.64515" cy="62.32394" r="17.58268"/><path class="d" d="M56.73811,110.57061s1.70308,15.39581.76567,17.53518,1.61951,6.17479,1.61951,6.17479l8.12845,8.53656,6.68937,4.24554-.78074,4.49058-2.37214,8.62752s-1.66508,11.944,28.02363,2.04974l2.08869-10.98518,5.42432-10.93751.70683-13.90162s7.517-11.58011,1.96054-18.30069"/><path class="e" d="M93.67171,107.88917c.38664-4.99762-.19523-4.51653-.19523-4.51653,5.40113-4.7568,6.73114-24.22717,6.73114-24.22717l-15.557-.7571L69.10748,77.38653s-.87383,19.49617,3.9565,24.83164c0,0-.52392-.54364-.70318,4.46571-.17933,5.00934-2.30886,36.36466-2.30886,36.36466a6.06481,6.06481,0,0,0,4.30681,6.02575l7.30857.41336,5.23949.29633a6.06492,6.06492,0,0,0,4.95878-5.50172S93.285,112.88678,93.67171,107.88917Z"/><ellipse class="f" cx="85.12014" cy="54.43343" rx="29.3228" ry="21.66151" transform="translate(26.17952 136.49706) rotate(-86.91142)"/><path class="g" d="M73.66758,91.33333S62.94384,86.74971,59.448,94.03979s1.55317,6.21389,1.55317,6.21389,1.88041-2.35057,4.14709-1.86046S73.23,99.44231,73.23,99.44231s3.42574.67525,3.59982-.051,4.26376-1.52277,2.61324-3.43265A37.34178,37.34178,0,0,0,73.66758,91.33333Z"/><path class="g" d="M59.87527,100.28768s-4.91477,4.42152-4.49111,6.56948,3.86077,5.11239,3.86077,5.11239l7.21379-3.69748s8.92259,1.29879,10.68952,1.88454,5.49771,1.44093,5.54168.626,1.808-.1755,2.69388-3.26055a7.94023,7.94023,0,0,0-.94015-5.90868l-7.6138-2.222L63.09067,98.65Z"/><path class="g" d="M59.24493,111.96955s-5.2274,5.27588-4.51083,6.13189,1.09968,7.08851,3.816,6.74467,9.26085-4.89478,9.26085-4.89478,8.9713.32061,9.12425.81927,5.81261-1.06208,5.81261-1.06208l2.37229-4.38116-1.1837-4.31407-6.7882-.85668-10.68952-1.88454Z"/><path class="g" d="M59.44531,124.922s-5.40086,4.0947-3.13675,8.46707S64.335,144.44759,66.483,144.56349a15.90713,15.90713,0,0,1,4.43525,1.05666l-6.68074-9.51474s-.42366-2.148.83166-2.08022,5.2182-.04537,5.2182-.04537l1.2817-.42125,6.43395-2.75875s5.592-3.45805,5.15951-5.443.53464-6.35179-3.59881-4.85572-9.83127-.91955-9.83127-.91955Z"/><circle class="h" cx="84.54742" cy="61.0598" r="18.84682"/><path class="i" d="M96.61965,126.86449l.88174-10.38982s-12.10415-5.08759-11.92479-6.81891-4.09936-11.32611,3.57461-9.56838,18.19037,9.02687,18.19037,9.02687"/><ellipse class="f" cx="155.68677" cy="58.93253" rx="21.9921" ry="21.54142" transform="translate(88.45301 211.21856) rotate(-86.91199)"/><line class="j" x1="139.99738" y1="190.84045" x2="100.70815" y2="189.98228"/><polyline class="k" points="130.886 199.368 140.565 190.878 131.544 180.594"/><polyline class="l" points="109.182 198.564 99.594 190.152 108.615 179.869"/><path class="m" d="M58.02339,251.49023a.77855.77855,0,0,1,.2041.57813v9.38379a8.26368,8.26368,0,0,1-1.97168,5.38916,10.52989,10.52989,0,0,1-5.27051,3.38281l-7.41113,2.34619a.9126.9126,0,0,1-.27246.03369.71908.71908,0,0,1-.47559-.16992.54688.54688,0,0,1-.2041-.44189V270.938q0-.7815.544-.95166l4.4541-1.4961L43.20015,252.646a4.2023,4.2023,0,0,1-.16992-.67969.69577.69577,0,0,1,.67968-.68018h1.56348a.83236.83236,0,0,1,.51074.15283.74413.74413,0,0,1,.27149.35743l4.35254,15.77588a6.912,6.912,0,0,0,3.75683-2.686,8.14976,8.14976,0,0,0,1.07031-4.35205v-8.46582a.75746.75746,0,0,1,.78223-.78223h1.42774A.77971.77971,0,0,1,58.02339,251.49023Z"/><path class="m" d="M63.54878,270.479a.75827.75827,0,0,1-.2207-.561V252.06836a.74645.74645,0,0,1,.2207-.57813.79318.79318,0,0,1,.56055-.2041h1.49609a.756.756,0,0,1,.78223.78223V269.918a.756.756,0,0,1-.78223.78223H64.10933A.7572.7572,0,0,1,63.54878,270.479Z"/><path class="m" d="M81.14253,270.02a.61347.61347,0,0,1-.2207.49316.78862.78862,0,0,1-.52735.187H71.31636a.75593.75593,0,0,1-.78125-.78223v-1.08789a.75514.75514,0,0,1,.78125-.78174H78.0146l-.54394-8.63623q-.16993-2.20972-.35645-3.24707a3.09278,3.09278,0,0,0-.833-1.68262,2.73838,2.73838,0,0,0-2.00683-.646H72.88081a.79364.79364,0,0,1-.56054-.20411.70178.70178,0,0,1-.22168-.54394V252a.75668.75668,0,0,1,.78222-.78174h1.39356a6.23851,6.23851,0,0,1,3.75781.96875,4.91777,4.91777,0,0,1,1.80176,2.669,21.26261,21.26261,0,0,1,.66308,4.4541l.64551,10.60791Z"/><path class="m" d="M97.956,252.28906a6.872,6.872,0,0,1,2.584,2.87305,9.78053,9.78053,0,0,1,.93457,4.41992V269.918a.756.756,0,0,1-.78222.78223H91.92085a.701.701,0,0,1-.54394-.2212.79057.79057,0,0,1-.20411-.561v-1.08789a.79386.79386,0,0,1,.20411-.561.704.704,0,0,1,.54394-.2207h6.56152v-8.26221a6.46241,6.46241,0,0,0-1.30859-4.19873,4.09056,4.09056,0,0,0-3.31543-1.61523H90.25484l-2.61817,15.91211a.89322.89322,0,0,1-.28906.57812.80623.80623,0,0,1-.56152.2378H85.35835a.62955.62955,0,0,1-.52637-.2378.77059.77059,0,0,1-.15332-.57812l2.71973-15.91211H85.665a.75594.75594,0,0,1-.78222-.78174v-1.12207a.756.756,0,0,1,.78222-.78223H94.1982A7.09709,7.09709,0,0,1,97.956,252.28906Z"/><path class="m" d="M115.15913,270.479a.75827.75827,0,0,1-.2207-.561V252.06836a.74645.74645,0,0,1,.2207-.57813.79318.79318,0,0,1,.56055-.2041h6.42676q4.35059,0,6.47656,2.07422,2.124,2.07421,2.125,6.22168V269.918a.756.756,0,0,1-.78223.78223H115.71968A.7572.7572,0,0,1,115.15913,270.479Zm12.665-2.43066V259.752q0-5.84692-5.84765-5.84765h-4.2168v14.144Z"/><path class="m" d="M148.34273,252.28906a6.872,6.872,0,0,1,2.584,2.87305,9.78053,9.78053,0,0,1,.93457,4.41992V269.918a.756.756,0,0,1-.78223.78223h-8.77148a.701.701,0,0,1-.54395-.2212.79061.79061,0,0,1-.2041-.561v-1.08789a.7939.7939,0,0,1,.2041-.561.704.704,0,0,1,.54395-.2207h6.56152v-8.26221a6.46241,6.46241,0,0,0-1.30859-4.19873,4.09057,4.09057,0,0,0-3.31543-1.61523h-3.60352l-2.61816,15.91211a.89322.89322,0,0,1-.28906.57812.80624.80624,0,0,1-.56153.2378h-1.42773a.62955.62955,0,0,1-.52637-.2378.77059.77059,0,0,1-.15332-.57812l2.71973-15.91211h-1.7334a.756.756,0,0,1-.78223-.78174v-1.12207a.756.756,0,0,1,.78223-.78223h8.5332A7.0971,7.0971,0,0,1,148.34273,252.28906Z"/><path class="m" d="M157.18257,270.479a.75827.75827,0,0,1-.2207-.561V252.06836a.74645.74645,0,0,1,.2207-.57813.79316.79316,0,0,1,.56055-.2041h1.49609a.756.756,0,0,1,.78223.78223V269.918a.756.756,0,0,1-.78223.78223h-1.49609A.75718.75718,0,0,1,157.18257,270.479Z"/><path class="m" d="M179.80855,251.49023a.78249.78249,0,0,1,.2041.57813v1.08789a.70789.70789,0,0,1-.2207.54395.79727.79727,0,0,1-.56153.2041h-2.00586a3.74337,3.74337,0,0,0-.76465,1.59765,9.52283,9.52283,0,0,0-.28906,2.44825v12.002a.68116.68116,0,0,1-.23828.54394.85827.85827,0,0,1-.57812.20411h-1.42774a.70232.70232,0,0,1-.74805-.748V257.74609a10.25305,10.25305,0,0,1,.23829-2.37988,3.52561,3.52561,0,0,1,.6455-1.46191h-9.38379a.79559.79559,0,0,1-.56152-.2041.70449.70449,0,0,1-.2207-.54395v-1.08789a.756.756,0,0,1,.78222-.78223h14.55176A.78126.78126,0,0,1,179.80855,251.49023Z"/></svg>