<svg id="Layer_1" data-name="Layer 1" xmlns="http://www.w3.org/2000/svg" viewBox="0 0 222.67 270.67"><defs><style>.cls-1{fill:#ededed;}.cls-2{fill:#cecece;}.cls-3,.cls-4{fill:#c9b092;}.cls-4,.cls-8{stroke:#000;}.cls-10,.cls-4,.cls-8,.cls-9{stroke-miterlimit:10;}.cls-4{stroke-width:0.34px;}.cls-5{fill:#747c58;}.cls-6{fill:#080808;}.cls-7{fill:#54593e;}.cls-10,.cls-8{fill:none;}.cls-8{stroke-linecap:round;stroke-width:0.5px;}.cls-9{fill:#231f20;}.cls-10,.cls-9{stroke:#231f20;stroke-width:2.51px;}.cls-11{font-size:39px;fill:#fff;font-family:Rubik-Regular, Rubik;}</style></defs><circle class="cls-1" cx="111.33" cy="111.33" r="108.83" transform="translate(-46.12 111.33) rotate(-45)"/><path class="cls-2" d="M111.33,5c58.49,0,106.34,47.85,106.34,106.33h0c0,58.49-47.85,106.34-106.34,106.34h0C52.85,217.67,5,169.82,5,111.33H5C5,52.85,52.85,5,111.33,5h0m0-5A111.21,111.21,0,0,0,32.7,190,111.21,111.21,0,1,0,190,32.7,110.55,110.55,0,0,0,111.33,0Z"/><path class="cls-3" d="M55.37,101.48s-.89,4.18-.69,4.79-.62,1.65-.62,1.65l-2.47,2.13-2,1,.09,1.25.41,2.44s.13,3.33-7.75-.21l-.28-3.07-1.19-3.16.19-3.84s-1.74-3.39,0-5.08"/><path class="cls-4" d="M52,105l.74-2.27s-2.43-1.77-2.3-2.15-.32-2.74,1.3-1.94a15.72,15.72,0,0,1,3.58,3"/><path class="cls-4" d="M40.86,99.45s-.8-2.59,1-3.23,1.41.51,1.41.51-.59.38-.53.92,0,1.9,0,1.9.08.81-.09.83-.46,1-.86.53A8.43,8.43,0,0,1,40.86,99.45Z"/><path class="cls-4" d="M43.27,96.47s1.15-1,1.63-.89,1.1,1,1.1,1l-1,1.59s.08,2.1.18,2.52.2,1.31,0,1.3-.08.42-.82.55A1.86,1.86,0,0,1,43,102.2l-.33-1.82.15-3.21Z"/><path class="cls-4" d="M46,96.6s1.35-1.09,1.53-.9,1.62.43,1.47,1a8.49,8.49,0,0,1-1.35,2,12.67,12.67,0,0,0,0,2.14c.11,0-.39,1.32-.39,1.32l-1.07.45-1-.38,0-1.6L45,98.19Z"/><path class="cls-4" d="M49,97s1.08-1.16,2-.53,2.37,2.13,2.35,2.63a3.55,3.55,0,0,0,.14,1.06l-2.05-1.78s-.49-.15-.5.14-.14,1.21-.14,1.21l-.13.29-.79,1.43s-.94,1.21-1.39,1.06-1.49,0-1-1a3.73,3.73,0,0,0,0-2.3Z"/><polygon class="cls-5" points="101.4 145.34 97.64 142.63 91.4 137.87 49.71 144.19 44.58 149 46.66 155.43 84.72 160.28 99.55 151.08 101.4 145.34"/><polygon class="cls-5" points="50.99 112.17 52.43 119.49 54.88 122.16 58.96 142.92 55.74 155.23 46.66 155.43 44.59 153.66 43.13 151.32 40.01 123.72 42.57 120.35 41.34 114.07 49.16 113.8 50.99 112.17"/><path d="M58.54,143.13a16.64,16.64,0,0,1,1.68,4.18c.07.31.56.18.48-.13a17.42,17.42,0,0,0-1.72-4.3.25.25,0,0,0-.44.25Z"/><path d="M49.58,120.23l-.09-.18,0-.06s0,0,0,0a1.12,1.12,0,0,0,0-.13c-.08-.19-.15-.38-.22-.58q-.27-.77-.48-1.56a11.54,11.54,0,0,1-.32-1.48,4.09,4.09,0,0,1,0-.61v-.11c0-.08,0,.06,0,0l0-.09c0-.07,0,.08,0,0a.42.42,0,0,0-.73-.43,1.91,1.91,0,0,0-.15,1.18,11,11,0,0,0,.33,1.71,14.06,14.06,0,0,0,1,2.82c.25.48,1,.06.73-.43Z"/><path class="cls-6" d="M81.64,142.58c-.34,3-.64,6-1,9-.06.54.79.53.85,0,.33-3,.64-6,1-9,.06-.55-.79-.54-.84,0Z"/><polygon class="cls-7" points="78.45 155.78 76.63 159.77 48.49 155.56 51.68 150.61 52.98 149.55 51.13 154.6 59.21 144.43 55.58 154.57 63.47 150.45 61.31 156.04 72.72 157.47 78.45 155.78"/><path class="cls-6" d="M80.79,151.25c-1.25,2.41-2.59,4.76-3.85,7.16l.78.33c1.22-4,2.89-7.84,4.11-11.83.16-.52-.66-.75-.82-.23-1.22,4-2.89,7.84-4.11,11.84a.43.43,0,0,0,.78.32c1.25-2.4,2.59-4.76,3.84-7.16.26-.48-.48-.91-.73-.43Z"/><path d="M58.51,143a37.17,37.17,0,0,1-.92,4.77,12.74,12.74,0,0,1-1.81,4.41c-.2.26.24.51.43.25a12.7,12.7,0,0,0,1.86-4.53A37.15,37.15,0,0,0,59,143c0-.32-.46-.32-.5,0Z"/><path class="cls-8" d="M64.34,148.48s-3.29,5.93-6.19,8"/><path class="cls-8" d="M53,149.29a19.85,19.85,0,0,1-3.26,6.09"/><path class="cls-3" d="M145.82,74.41s-.89,4.18-.69,4.8-.62,1.65-.62,1.65L142,83l-1.95,1,.09,1.26.42,2.44s.12,3.32-7.76-.21l-.27-3.08-1.19-3.15.19-3.84s-1.75-3.39,0-5.08"/><path class="cls-4" d="M142.49,77.9l.75-2.27s-2.44-1.77-2.31-2.15-.32-2.74,1.3-2a16.08,16.08,0,0,1,3.59,3"/><path class="cls-4" d="M131.32,72.39s-.81-2.6,1-3.24,1.41.51,1.41.51-.59.38-.53.92.05,1.9.05,1.9.07.81-.1.84-.46,1-.86.52A8.88,8.88,0,0,1,131.32,72.39Z"/><path class="cls-4" d="M133.72,69.4s1.15-1,1.64-.88,1.09,1,1.09,1l-1,1.58s.09,2.1.18,2.53.2,1.31,0,1.3-.08.42-.82.55a1.86,1.86,0,0,1-1.35-.36l-.33-1.82.16-3.21Z"/><path class="cls-4" d="M136.45,69.54s1.35-1.09,1.53-.9,1.62.42,1.48,1a8.66,8.66,0,0,1-1.36,2,13.7,13.7,0,0,0,0,2.13c.11.05-.39,1.33-.39,1.33l-1.07.44-1-.38,0-1.59-.18-2.53Z"/><path class="cls-4" d="M139.45,69.89s1.08-1.15,2-.52,2.38,2.13,2.35,2.63a3.84,3.84,0,0,0,.14,1l-2-1.78s-.49-.15-.5.15-.14,1.21-.14,1.21l-.12.28-.8,1.43s-.94,1.22-1.39,1.07-1.48,0-1-1a3.79,3.79,0,0,0,0-2.31Z"/><polygon class="cls-5" points="181.67 153.69 180.61 149.18 179.02 141.49 143.39 118.94 136.36 119.21 133.72 125.43 159.29 154.03 176.51 156.8 181.67 153.69"/><polygon class="cls-5" points="141.45 85.11 142.88 92.42 145.34 95.1 149.41 115.85 146.2 128.17 137.12 128.37 135.05 126.59 133.59 124.26 130.46 96.65 133.02 93.28 131.79 87 139.62 86.73 141.45 85.11"/><path d="M140,93.17A1.42,1.42,0,0,1,140,93l0-.07s0,0,0,0l-.06-.13c-.07-.19-.15-.39-.21-.58-.18-.52-.35-1-.49-1.56a11.91,11.91,0,0,1-.32-1.48,4.16,4.16,0,0,1,0-.61.49.49,0,0,1,0-.12c0-.07,0,.06,0,0s0-.06,0-.08-.05.08,0,0c.29-.46-.44-.89-.73-.43a1.91,1.91,0,0,0-.15,1.18,12.29,12.29,0,0,0,.33,1.71,13.85,13.85,0,0,0,1,2.82c.25.49,1,.06.73-.42Z"/><path class="cls-6" d="M168.58,138.62c-2.23,2.06-4.43,4.13-6.66,6.19-.4.37.2,1,.6.6,2.23-2.06,4.43-4.13,6.66-6.19.4-.37-.2-1-.6-.6Z"/><polygon class="cls-7" points="157.5 146.53 153.5 148.34 135.01 126.72 140.67 125.07 142.35 125.12 137.63 127.73 150.41 125.35 141.02 130.62 149.68 132.69 144.38 135.49 152.06 144.04 157.5 146.53"/><path class="cls-6" d="M162.25,144.64c-2.52,1-5.07,1.89-7.59,2.88l.32.78c3.54-2.22,7.32-4,10.86-6.24.46-.29,0-1-.43-.73-3.53,2.21-7.32,4-10.86,6.23-.38.25-.13,1,.33.78,2.52-1,5.08-1.89,7.6-2.89.5-.19.28-1-.23-.81Z"/><path d="M135.72,127.33a16.67,16.67,0,0,1-2.14-4c-.11-.3-.6-.17-.49.13a17.43,17.43,0,0,0,2.19,4.08c.19.26.63,0,.44-.25Z"/><line class="cls-9" x1="159.77" y1="78.58" x2="160.25" y2="103.14"/><polyline class="cls-10" points="165.33 84.05 159.78 78.23 153.59 84.13"/><text class="cls-11" transform="translate(7.7 262.12)">הגבר מהירות</text></svg>