<svg xmlns="http://www.w3.org/2000/svg" viewBox="0 0 222.66737 279.91431"><defs><style>.a{fill:#ededed;}.b{fill:#cecece;}.c{fill:#fff100;opacity:0.39;}.d,.g,.i{fill:#c9b092;}.e{fill:#f0ea4e;opacity:0.3;}.f{fill:#050505;}.g,.i{stroke:#000;}.g,.h,.i,.j,.k{stroke-miterlimit:10;}.g{stroke-width:1.78728px;}.h,.j,.k{fill:none;stroke:#231f20;}.h{stroke-width:2.82797px;}.i{stroke-width:1.81905px;}.j{stroke-width:5.01521px;}.k{stroke-width:5px;}.l{fill:#fff;}</style></defs><circle class="a" cx="111.33374" cy="111.33362" r="108.83356" transform="translate(-46.11586 111.3337) rotate(-45)"/><path class="b" d="M111.3338,5c58.48345,0,106.33357,47.8501,106.33357,106.3335v.00024c0,58.48364-47.85012,106.33374-106.33357,106.33374h-.00024C52.85007,217.66748,5,169.81738,5,111.33374v-.00024C5,52.8501,52.85007,5,111.33356,5h.00024m0-5A111.20515,111.20515,0,0,0,32.69991,189.96753,111.20509,111.20509,0,1,0,189.96741,32.7,110.54176,110.54176,0,0,0,111.3338,0Z"/><circle class="c" cx="139.53975" cy="73.2062" r="7.51518"/><path class="d" d="M128.46658,93.82777s.72793,6.58048.32726,7.49488.69221,2.63923.69221,2.63923l3.47426,3.64869,2.85917,1.81463-.33371,1.91936-1.0139,3.68757s-.71168,5.10511,11.97785.8761l.89275-4.69528,2.31846-4.6749.30211-5.94183s3.21294-4.94957.838-7.82207"/><ellipse class="e" cx="140.59761" cy="69.83364" rx="12.53314" ry="9.25855" transform="translate(63.29003 206.4644) rotate(-86.91142)"/><path class="f" d="M143.70356,91.19236c.15527-2.007-.0784-1.81376-.0784-1.81376,2.169-1.91026,2.70311-9.72923,2.70311-9.72923l-6.24742-.304L133.839,78.943s-.35092,7.82934,1.58886,9.972c0,0-.21039-.21832-.28238,1.79335s-.9272,14.60345-.9272,14.60345a2.43554,2.43554,0,0,0,1.72954,2.41985l2.935.166,2.1041.119a2.43557,2.43557,0,0,0,1.99136-2.2094S143.54827,93.19932,143.70356,91.19236Z"/><path class="g" d="M135.70256,85.60539s-4.58353-1.95913-6.07772,1.15679.66386,2.65594.66386,2.65594a2.06943,2.06943,0,0,1,1.77255-.7952c.96882.20948,3.4543.4484,3.4543.4484s1.46423.28862,1.53863-.02178,1.82241-.65087,1.117-1.46719A15.9601,15.9601,0,0,0,135.70256,85.60539Z"/><path class="g" d="M129.80746,89.43265s-2.10067,1.88984-1.91959,2.80792,1.65017,2.18514,1.65017,2.18514l3.08332-1.58038s3.81369.55513,4.56891.80549,2.34982.61588,2.36862.26755.77278-.075,1.15142-1.39362a3.39383,3.39383,0,0,0-.40184-2.52549l-3.25429-.94972-5.87239-.31687Z"/><path class="g" d="M129.538,94.42571s-2.23429,2.255-1.928,2.62089.47,3.02977,1.63105,2.8828,3.95827-2.09212,3.95827-2.09212a24.7882,24.7882,0,0,1,3.89989.35017c.06537.21314,2.48442-.45395,2.48442-.45395l1.014-1.8726-.50593-1.84391-2.90141-.36617-4.56891-.80549Z"/><path class="g" d="M129.62369,99.96182s-2.30843,1.75015-1.34071,3.619,3.43068,4.72665,4.34874,4.77619a6.79866,6.79866,0,0,1,1.89571.45164l-2.85548-4.06679s-.18108-.91808.35547-.88913,2.23036-.01939,2.23036-.01939l.54782-.18005,2.75-1.17915s2.39012-1.478,2.20528-2.32645.22851-2.71488-1.53821-2.07543-4.20207-.393-4.20207-.393Z"/><circle class="h" cx="140.35282" cy="72.66588" r="8.0555"/><path class="i" d="M145.51273,100.7921l.37687-4.44081s-5.17355-2.17454-5.09689-2.91454-1.75214-4.841,1.52786-4.08971,7.77492,3.85826,7.77492,3.85826"/><ellipse class="e" cx="173.96696" cy="88.34254" rx="9.39985" ry="9.20722" transform="translate(76.38113 257.29791) rotate(-86.91199)"/><ellipse class="e" cx="184.54254" cy="117.8482" rx="9.39985" ry="9.20722" transform="translate(56.92419 295.77433) rotate(-86.91199)"/><ellipse class="e" cx="107.33114" cy="145.64146" rx="9.39985" ry="9.20722" transform="translate(-43.88075 244.97108) rotate(-86.91199)"/><ellipse class="e" cx="170.93733" cy="147.35386" rx="9.39985" ry="9.20722" transform="translate(14.58908 310.10507) rotate(-86.91199)"/><ellipse class="e" cx="138.33852" cy="160.52813" rx="9.39985" ry="9.20722" transform="translate(-29.40878 290.01816) rotate(-86.91199)"/><ellipse class="e" cx="95.44542" cy="116.20247" rx="9.39985" ry="9.20722" transform="translate(-25.72995 205.2495) rotate(-86.91199)"/><ellipse class="e" cx="109.41518" cy="67.16994" rx="9.39985" ry="9.20722" transform="translate(36.44861 172.80782) rotate(-86.91199)"/><ellipse class="e" cx="77.02935" cy="72.66588" rx="9.39985" ry="9.20722" transform="translate(0.31942 145.66889) rotate(-86.91199)"/><ellipse class="e" cx="47.52337" cy="81.6313" rx="9.39985" ry="9.20722" transform="translate(-36.54947 124.68821) rotate(-86.91199)"/><polyline class="j" points="150.145 174.691 155.685 175.099 155.257 180.91"/><path class="k" d="M120.39315,175.22774s16.869,18.96867,35.08222.04285"/><polyline class="j" points="84.403 130.065 83.995 135.605 78.183 135.177"/><path class="k" d="M83.86587,100.31282s-18.96867,16.869-.04285,35.08223"/><polyline class="j" points="198.211 105.853 198.619 100.313 204.43 100.741"/><path class="k" d="M198.7475,135.605s18.96867-16.869.04285-35.08222"/><polyline class="j" points="128.685 54.692 123.145 54.284 123.573 48.472"/><path class="k" d="M158.43684,54.15512s-16.869-18.96867-35.08222-.04285"/><path class="l" d="M19.9126,252.17065a5.31454,5.31454,0,0,1,2.63476,2.82178,13.55012,13.55012,0,0,1,.81641,5.168,9.91314,9.91314,0,0,1-2.14258,6.7832,12.61336,12.61336,0,0,1-5.57617,3.58692l-1.42773.47607a.601.601,0,0,1-.23829.03369.61.61,0,0,1-.61132-.646v-1.49561a.99626.99626,0,0,1,.748-.91846l1.32617-.50976a7.83445,7.83445,0,0,0,3.60352-2.54981,8.03977,8.03977,0,0,0,1.25781-4.896,9.59271,9.59271,0,0,0-.54394-3.5874,3.47266,3.47266,0,0,0-1.78516-1.88672,8.25088,8.25088,0,0,0-3.417-.57813H13.40186l-3.12793-.03418a.79581.79581,0,0,1-.56153-.20361.70446.70446,0,0,1-.2207-.54395v-5.84814a.756.756,0,0,1,.78223-.78223H11.6333a.70581.70581,0,0,1,.544.22119.79229.79229,0,0,1,.2041.561v3.94385h2.61816A11.3738,11.3738,0,0,1,19.9126,252.17065Z"/><path class="l" d="M43.2876,270.02026a.69758.69758,0,0,1-.67969.68018H41.07764a.88306.88306,0,0,1-.67969-.25488q-.23877-.2549-.27246-.28907l-7.752-10.91406a5.34565,5.34565,0,0,0-1.98926,2.499,9.213,9.213,0,0,0-.52637,3.17919v4.99756a.75746.75746,0,0,1-.78223.78223H27.81787a.756.756,0,0,1-.78223-.78223v-5.13379a11.53832,11.53832,0,0,1,.76465-4.38574,7.67209,7.67209,0,0,1,3.00977-3.36621L27.648,252.61255a1.25754,1.25754,0,0,1-.23828-.646.69759.69759,0,0,1,.67969-.68017h1.49609a1.16278,1.16278,0,0,1,.95215.57812l7.13965,9.96192a5.66785,5.66785,0,0,0,1.78515-1.4961,3.8205,3.8205,0,0,0,.69727-1.54687,11.75474,11.75474,0,0,0,.13574-1.98877V252.0686a.75746.75746,0,0,1,.78223-.78222h1.32617a.75746.75746,0,0,1,.78223.78222v4.86182a9.0019,9.0019,0,0,1-.79981,3.96094,7.81054,7.81054,0,0,1-3.21289,3.07715l3.876,5.40576A1.035,1.035,0,0,1,43.2876,270.02026Z"/><path class="l" d="M60.271,252.28931a6.872,6.872,0,0,1,2.584,2.873,9.78058,9.78058,0,0,1,.93457,4.41993v10.33593a.756.756,0,0,1-.78223.78223H54.23584a.701.701,0,0,1-.544-.22119.79064.79064,0,0,1-.2041-.561v-1.08789a.79389.79389,0,0,1,.2041-.561.704.704,0,0,1,.544-.22071h6.56152v-8.2622a6.46241,6.46241,0,0,0-1.30859-4.19873,4.09058,4.09058,0,0,0-3.31543-1.61524H52.56982l-2.61816,15.91211a.89325.89325,0,0,1-.28906.57813.80622.80622,0,0,1-.56153.23779H47.67334a.62954.62954,0,0,1-.52637-.23779.77058.77058,0,0,1-.15332-.57813l2.71973-15.91211H47.98a.756.756,0,0,1-.78223-.78174V252.0686a.756.756,0,0,1,.78223-.78222h8.5332A7.0971,7.0971,0,0,1,60.271,252.28931Z"/><path class="l" d="M87.9458,251.50757a.75981.75981,0,0,1,.2207.561v9.45166a10.33813,10.33813,0,0,1-1.17285,5.01514,7.972,7.972,0,0,1-3.29785,3.29785,9.64908,9.64908,0,0,1-4.87891,1.07129H76.30127a7.81675,7.81675,0,0,1-3.97852-1.02,7.18912,7.18912,0,0,1-2.7705-2.87305,8.81889,8.81889,0,0,1-1.00391-4.26709V252.0686a.747.747,0,0,1,.22168-.57812.79152.79152,0,0,1,.56055-.2041h1.32617a.756.756,0,0,1,.78222.78222l.10157,9.65577q3.09375-.23731,4.30176-1.666a5.60066,5.60066,0,0,0,1.206-3.73975v-4.25a.75746.75746,0,0,1,.78223-.78222h1.32617a.756.756,0,0,1,.78222.78222v4.38575a7.33955,7.33955,0,0,1-2.07421,5.37207,8.83316,8.83316,0,0,1-6.08594,2.312,5.37664,5.37664,0,0,0,2.02344,3.043,5.89277,5.89277,0,0,0,3.55273,1.0708h1.08789a6.49412,6.49412,0,0,0,5.03223-1.86963,7.06725,7.06725,0,0,0,1.80176-5.06592v-9.248a.756.756,0,0,1,.78222-.78222h1.32617A.76062.76062,0,0,1,87.9458,251.50757Z"/><path class="l" d="M106.06689,270.47925a.75829.75829,0,0,1-.2207-.561v-10.166q0-5.84692-5.81445-5.84766H93.70752a.79318.79318,0,0,1-.56055-.2041.70446.70446,0,0,1-.2207-.54395V252.0686a.74642.74642,0,0,1,.2207-.57812.79318.79318,0,0,1,.56055-.2041h6.49414q8.63671,0,8.63672,8.36425v10.26758a.75746.75746,0,0,1-.78223.78223h-1.42871A.75721.75721,0,0,1,106.06689,270.47925Zm-12.91992,0a.75829.75829,0,0,1-.2207-.561V258.49438a.75514.75514,0,0,1,.78125-.78173h1.42871a.75514.75514,0,0,1,.78125.78173v11.42383a.75591.75591,0,0,1-.78125.78223H93.70752A.75719.75719,0,0,1,93.147,270.47925Z"/><path class="l" d="M122.523,270.47925a.75829.75829,0,0,1-.2207-.561V252.0686a.74642.74642,0,0,1,.2207-.57812.79316.79316,0,0,1,.56055-.2041h1.49609a.756.756,0,0,1,.78223.78222v17.84961a.756.756,0,0,1-.78223.78223H123.0835A.75717.75717,0,0,1,122.523,270.47925Z"/><path class="l" d="M146.06787,270.02026a.69758.69758,0,0,1-.67969.68018h-1.53027a.88309.88309,0,0,1-.67969-.25488q-.23877-.2549-.27246-.28907l-7.75195-10.91406a5.34565,5.34565,0,0,0-1.98926,2.499,9.21323,9.21323,0,0,0-.52637,3.17919v4.99756a.75746.75746,0,0,1-.78222.78223h-1.25782a.756.756,0,0,1-.78222-.78223v-5.13379a11.53813,11.53813,0,0,1,.76465-4.38574,7.67206,7.67206,0,0,1,3.00976-3.36621l-3.16211-4.41992a1.25754,1.25754,0,0,1-.23828-.646.69759.69759,0,0,1,.67969-.68017h1.49609a1.16275,1.16275,0,0,1,.95215.57812l7.13965,9.96192a5.66791,5.66791,0,0,0,1.78516-1.4961,3.8206,3.8206,0,0,0,.69726-1.54687,11.75474,11.75474,0,0,0,.13574-1.98877V252.0686a.75746.75746,0,0,1,.78223-.78222h1.32617a.75746.75746,0,0,1,.78223.78222v4.86182a9.00176,9.00176,0,0,1-.79981,3.96094,7.81041,7.81041,0,0,1-3.21289,3.07715l3.876,5.40576A1.035,1.035,0,0,1,146.06787,270.02026Z"/><path class="l" d="M159.14014,274.71265a.74787.74787,0,0,1-.22071-.57813V252.0686a.74642.74642,0,0,1,.22071-.57812.79316.79316,0,0,1,.56054-.2041h1.42871a.75591.75591,0,0,1,.78125.78222v22.06592a.75514.75514,0,0,1-.78125.78174h-1.42871A.795.795,0,0,1,159.14014,274.71265Z"/><path class="l" d="M179.71045,252.28931a6.872,6.872,0,0,1,2.584,2.873,9.78058,9.78058,0,0,1,.93457,4.41993v10.33593a.756.756,0,0,1-.78222.78223h-8.77149a.701.701,0,0,1-.54394-.22119.79059.79059,0,0,1-.2041-.561v-1.08789a.79384.79384,0,0,1,.2041-.561.704.704,0,0,1,.54394-.22071h6.56153v-8.2622a6.46242,6.46242,0,0,0-1.3086-4.19873,4.09056,4.09056,0,0,0-3.31543-1.61524h-3.60351l-2.61817,15.91211a.8932.8932,0,0,1-.28906.57813.80622.80622,0,0,1-.56152.23779h-1.42774a.62951.62951,0,0,1-.52636-.23779.77058.77058,0,0,1-.15332-.57813l2.71972-15.91211h-1.7334a.75594.75594,0,0,1-.78222-.78174V252.0686a.756.756,0,0,1,.78222-.78222h8.53321A7.09709,7.09709,0,0,1,179.71045,252.28931Z"/><path class="l" d="M188.311,262.59155a.75978.75978,0,0,1-.22071-.561V252.0686a.74639.74639,0,0,1,.22071-.57812.79394.79394,0,0,1,.56152-.2041h1.49609a.75591.75591,0,0,1,.78125.78222v9.96192a.75516.75516,0,0,1-.78125.78174h-1.49609A.7594.7594,0,0,1,188.311,262.59155Z"/><path class="l" d="M196.16455,262.59155a.75981.75981,0,0,1-.2207-.561V252.0686a.74642.74642,0,0,1,.2207-.57812.794.794,0,0,1,.56152-.2041h1.4961a.75593.75593,0,0,1,.78125.78222v9.96192a.75517.75517,0,0,1-.78125.78174h-1.4961A.75942.75942,0,0,1,196.16455,262.59155Z"/><path class="l" d="M217.17627,270.47925a.75829.75829,0,0,1-.2207-.561v-10.166q0-5.84692-5.81446-5.84766h-6.32422a.79316.79316,0,0,1-.56054-.2041.70446.70446,0,0,1-.22071-.54395V252.0686a.74642.74642,0,0,1,.22071-.57812.79316.79316,0,0,1,.56054-.2041H211.311q8.63672,0,8.63671,8.36425v10.26758a.75746.75746,0,0,1-.78222.78223h-1.42871A.75717.75717,0,0,1,217.17627,270.47925Zm-12.91992,0a.7583.7583,0,0,1-.22071-.561V258.49438a.75516.75516,0,0,1,.78125-.78173h1.42872a.75516.75516,0,0,1,.78125.78173v11.42383a.75593.75593,0,0,1-.78125.78223h-1.42872A.75717.75717,0,0,1,204.25635,270.47925Z"/></svg>