<svg id="Layer_1" data-name="Layer 1" xmlns="http://www.w3.org/2000/svg" xmlns:xlink="http://www.w3.org/1999/xlink" viewBox="0 0 222.67 270.67"><defs><style>.cls-1{fill:#cab192;}.cls-2{fill:#747c58;}.cls-3{fill:#ededed;}.cls-4{fill:#cecece;}.cls-5{fill:#54593e;}.cls-6{fill:#080808;}.cls-15,.cls-17,.cls-19,.cls-20,.cls-7{fill:none;}.cls-7{stroke:#000;stroke-width:0.44px;}.cls-15,.cls-16,.cls-17,.cls-7{stroke-linecap:round;}.cls-15,.cls-18,.cls-19,.cls-20,.cls-7{stroke-miterlimit:10;}.cls-8{fill:#27421d;}.cls-9{clip-path:url(#clip-path);}.cls-10{fill:#271d1d;}.cls-11{clip-path:url(#clip-path-2);}.cls-12{fill:#707171;}.cls-13{clip-path:url(#clip-path-3);}.cls-14{fill:#525222;}.cls-15,.cls-16,.cls-17{stroke:#27421d;stroke-width:0.87px;}.cls-16{fill:#284220;}.cls-16,.cls-17{stroke-linejoin:round;}.cls-18{fill:#231f20;}.cls-18,.cls-19,.cls-20{stroke:#231f20;}.cls-18,.cls-19{stroke-width:2.18px;}.cls-20{stroke-width:2.17px;}.cls-21{font-size:40px;fill:#fff;font-family:Rubik-Regular, Rubik;}</style><clipPath id="clip-path"><polygon class="cls-1" points="126.69 103.35 126.46 95.14 127.64 93.33 130.77 91.29 132.97 85.65 130.15 83.46 128.76 71.55 118.41 68.1 108.21 71.24 106.36 83.45 104.77 85 105.99 90.94 107.24 91.73 107.28 95.05 109.78 98.19 109.62 105.14 106.02 109.8 109.78 122.63 117.61 126.07 127.95 114.79 132.97 107.27 126.69 103.35"/></clipPath><clipPath id="clip-path-2"><polygon class="cls-2" points="142.13 135.48 141.74 164.15 136.31 166.32 122.41 165.27 105.31 163.94 104.47 162.65 105.31 159.81 97.02 130.76 91.05 121.2 93.73 112.17 106.07 106.17 109.81 102.12 110.06 104.53 109.79 108.71 116.41 119.96 126.84 105.78 126.98 102.67 126.93 101.56 126.49 98.36 130.38 102.17 147.94 108.9 149.5 126.65 142.13 135.48"/></clipPath><clipPath id="clip-path-3"><path class="cls-2" d="M142.46,172.28c0-.06-.08-3.39-.13-3.37l-1.73.78-1-.05-35.84-3.91s-.09,3.32-.11,3.36l-1,2.32v0l-1.25,4h42.17Z"/></clipPath></defs><circle class="cls-3" cx="111.33" cy="111.33" r="108.83" transform="translate(-46.12 111.33) rotate(-45)"/><path class="cls-4" d="M111.33,5c58.49,0,106.34,47.85,106.34,106.33h0c0,58.49-47.85,106.34-106.34,106.34h0C52.85,217.67,5,169.82,5,111.33H5C5,52.85,52.85,5,111.33,5h0m0-5A111.21,111.21,0,0,0,32.7,190,111.21,111.21,0,1,0,190,32.7,110.55,110.55,0,0,0,111.33,0Z"/><polygon class="cls-1" points="128.61 53.56 124.58 52.88 120.14 54.08 115.18 53.26 115.02 49.3 116.92 44.69 119.93 44.29 125.46 48.29 128.61 53.56"/><polygon class="cls-1" points="116.79 49.04 113.46 49.8 111.01 49.28 109.15 50.17 108.78 51.18 111.58 51.47 114.08 52.76 116.09 53.23 116.79 49.04"/><polygon class="cls-1" points="102.37 50.83 104.82 48.87 105.86 46.81 107.56 45.98 108.5 46.29 107.11 48.47 106.6 51.01 105.8 52.73 102.37 50.83"/><polygon class="cls-2" points="121.41 130.33 120.53 125.44 118.84 117.18 144.38 79.81 151.42 77.1 156.67 82.1 143.62 121.17 127.81 131.22 121.41 130.33"/><polygon class="cls-2" points="120.73 53.88 124.85 60.48 125.17 64.1 136.87 82.84 147.28 90.45 153.01 84.96 153.07 82.29 152.37 79.56 135.4 56.06 131.51 55.02 127.97 49.35 122.97 54.01 120.73 53.88"/><path d="M151.3,82.63a14.65,14.65,0,0,0,2.09,3.43c.18.22.48-.09.31-.31a14.37,14.37,0,0,1-2-3.34c-.12-.26-.49,0-.38.22Z"/><polygon class="cls-5" points="145.55 104.55 149.36 104.62 156.67 81.03 151.59 81.66 150.27 82.28 154.93 82.73 143.92 85.22 153.22 86.2 147.03 90.82 152.21 91.24 149.03 100.7 145.55 104.55"/><path class="cls-6" d="M142,104c2.32.38,4.65.68,7,1.06a.37.37,0,0,0,.2-.71c-3.41-1.23-6.95-2.08-10.36-3.31-.44-.16-.64.55-.19.71,3.41,1.23,6.95,2.08,10.35,3.31l.2-.71c-2.32-.38-4.66-.68-7-1.06-.46-.08-.66.63-.19.71Z"/><path d="M143.8,82.51a33.24,33.24,0,0,0,4.25,1.12,11.18,11.18,0,0,0,4.19.23c.27-.06.16-.48-.12-.42a11,11,0,0,1-4.19-.28,32.45,32.45,0,0,1-4-1.07c-.27-.09-.38.33-.12.42Z"/><path class="cls-7" d="M145.89,86.35s5.83.81,8.81-.1"/><path class="cls-7" d="M135.87,79.18s4.22,4.12,7.15,5.15"/><path d="M157,82.92a9.65,9.65,0,0,0-.91-1.67,10.18,10.18,0,0,0-1.4-1.86,1.48,1.48,0,0,0-.76-.49.38.38,0,0,0-.45.25.37.37,0,0,0,.26.46.45.45,0,0,1,.11,0c-.11,0,0,0,.07,0l.06,0c-.05,0,0,0,0,0l.16.15a5.62,5.62,0,0,1,.61.71A18,18,0,0,1,156,82.44c.08.14.15.28.22.42a1.3,1.3,0,0,1,.08.17.3.3,0,0,1,0,.08c0,.08,0,0,0,0a.38.38,0,0,0,.46.26.37.37,0,0,0,.25-.45Z"/><polygon class="cls-2" points="110.77 132.02 112.03 127.43 114.36 119.71 94.75 82.96 88.63 80.02 83.39 84.47 91.5 122.15 104.88 132.51 110.77 132.02"/><polygon class="cls-2" points="107.07 54.34 104.51 61.63 104.78 65.13 97.54 85.83 89.72 95.69 83.95 91.96 83.49 89.45 83.68 86.69 94.75 60.15 97.94 58.18 100.14 51.91 105.16 55.04 107.07 54.34"/><path d="M84.92,81.15a14.84,14.84,0,0,1-2,3.34c-.17.21.14.52.31.31a14.72,14.72,0,0,0,2.09-3.43c.11-.26-.26-.48-.37-.22Z"/><polygon class="cls-5" points="97.2 110.78 93.44 111.36 83.05 88.95 88.16 88.9 89.55 89.33 85 90.41 96.24 91.41 87.16 93.62 93.91 97.37 88.83 98.48 93.24 107.43 97.2 110.78"/><path class="cls-6" d="M94.37,102c-2.32.38-4.66.67-7,1.06l.2.71c3.41-1.24,7-2.08,10.36-3.31.44-.16.25-.88-.2-.71-3.41,1.23-7,2.07-10.36,3.31a.37.37,0,0,0,.2.71c2.32-.39,4.65-.68,7-1.06.47-.08.27-.79-.19-.71Z"/><path d="M92.68,80.83a33.08,33.08,0,0,1-4,1.07,11.18,11.18,0,0,1-4.19.27c-.27,0-.39.37-.12.42a11.17,11.17,0,0,0,4.19-.23,31.24,31.24,0,0,0,4.25-1.11c.27-.09.15-.52-.11-.42Z"/><path d="M100.31,70.57A30.07,30.07,0,0,1,98,74.05a10.76,10.76,0,0,1-2.94,3,.22.22,0,0,0,.22.38,11.37,11.37,0,0,0,3-3,34.39,34.39,0,0,0,2.43-3.64.22.22,0,0,0-.38-.22Z"/><path class="cls-8" d="M146.17,144.65A29,29,0,0,0,144,126.48c-.18-.38-.74,0-.56.33a28.31,28.31,0,0,1,2.12,17.67c-.09.41.54.59.63.17Z"/><polygon class="cls-1" points="126.69 103.35 126.46 95.14 127.64 93.33 130.77 91.29 132.97 85.65 130.15 83.46 128.76 71.55 118.41 68.1 108.21 71.24 106.36 83.45 104.77 85 105.99 90.94 107.24 91.73 107.28 95.05 109.78 98.19 109.62 105.14 106.02 109.8 109.78 122.63 117.61 126.07 127.95 114.79 132.97 107.27 126.69 103.35"/><g class="cls-9"><polygon class="cls-10" points="127.96 88.78 132.98 75.59 98.94 38.58 107.13 87.94 108.32 79.04 109.27 76.75 110.28 72.71 117.27 74.1 125.22 73 126.16 76.74 127.91 79.38 127.65 86.74 127.96 88.78"/></g><polygon points="124.4 80.76 124.48 79.16 120.29 78.3 119.36 79.38 124.4 80.76"/><polygon points="114.7 79.75 114.53 78.12 110.82 79.02 110.21 80.21 114.7 79.75"/><path d="M120.3,90.13a9.57,9.57,0,0,1-5.81.94c-.48-.07-.68.66-.2.73a10.5,10.5,0,0,0,6.4-1c.43-.22,0-.87-.39-.65Z"/><path d="M124.62,97.09l-5.85,3.68H114l-3.42-2.12,2.71,5.77a3.24,3.24,0,0,0,1.48,1.66h0a3.24,3.24,0,0,0,1.55.39h.17a3.28,3.28,0,0,0,2.1-.76l1.21-1a3.24,3.24,0,0,0,.76-.93l2.7-4.91Z"/><path d="M125.75,95.53c-1.6,1.33-3.18,2.67-4.77,4l-1,.81c-.38.31.16.84.53.53,1.6-1.32,3.18-2.66,4.77-4l1-.81c.38-.31-.16-.84-.53-.54Z"/><path d="M112.35,80.13a3.34,3.34,0,0,1,0,2.37l.63-.17a1.56,1.56,0,0,1-.27-.47c0-.11-.06-.22-.08-.33a2.19,2.19,0,0,1,0-.29,4,4,0,0,1,0-.69l0-.34s0-.11,0-.06,0,0,0,0h0q0,.12-.24,0c-.14.06-.22,0-.25,0a.27.27,0,0,1,.06-.31l.17-.1h.07a.38.38,0,1,0,0,.75.42.42,0,0,0,.41-.56.45.45,0,0,0-.56-.34c-.47.12-.45.74-.47,1.12a3,3,0,0,0,.59,2.23.38.38,0,0,0,.63-.16,4,4,0,0,0,0-2.77.39.39,0,0,0-.47-.26.38.38,0,0,0-.26.46Z"/><path d="M121.67,79.87a3.21,3.21,0,0,1,0,2.36l.64-.16a1.37,1.37,0,0,1-.27-.47,2.34,2.34,0,0,1-.11-.62,5.3,5.3,0,0,1,0-.69l0-.34s0-.12,0-.06,0,0,0,0,0,0,0,0-.1.08-.24,0-.22,0-.25,0a.27.27,0,0,1,.07-.32l.17-.09h.06a.38.38,0,0,0-.38.37.39.39,0,0,0,.38.38.43.43,0,0,0,.42-.56.48.48,0,0,0-.57-.35c-.46.12-.44.75-.47,1.13a3,3,0,0,0,.59,2.23.38.38,0,0,0,.63-.16,4,4,0,0,0,0-2.77.38.38,0,1,0-.73.2Z"/><path d="M130.27,87.46l-1.64.83a.38.38,0,0,0,.38.65l1.64-.83a.38.38,0,1,0-.38-.65Z"/><path d="M129.44,86.69l-1,1.86a.38.38,0,0,0,.13.52.39.39,0,0,0,.52-.13l1-1.86a.38.38,0,0,0-.13-.52.39.39,0,0,0-.52.13Z"/><path d="M132.12,85.78a4.6,4.6,0,0,0-2.65.9.38.38,0,0,0,.38.65,3.92,3.92,0,0,1,2.27-.8.38.38,0,0,0,.38-.38.37.37,0,0,0-.38-.37Z"/><polygon points="104.69 174.79 142.28 170.39 142.45 161.49 105.23 161.46 104.69 174.79"/><polygon class="cls-2" points="142.13 135.48 141.74 164.15 136.31 166.32 122.41 165.27 105.31 163.94 104.47 162.65 105.31 159.81 97.02 130.76 91.05 121.2 93.73 112.17 106.07 106.17 109.81 102.12 110.06 104.53 109.79 108.71 116.41 119.96 126.84 105.78 126.98 102.67 126.93 101.56 126.49 98.36 130.38 102.17 147.94 108.9 149.5 126.65 142.13 135.48"/><g class="cls-11"><polyline class="cls-5" points="104.77 165.72 107.83 160.21 97.99 132.68"/></g><polygon class="cls-5" points="141.43 164.27 141.06 148.34 141.06 137.27 141.77 137.48 141.96 164.11 141.43 164.27"/><path d="M99.86,131.36a24.32,24.32,0,0,1,.57,4.17c0,.67.06,1.34.08,2a6.49,6.49,0,0,0,.1,1.82c.33.91,1.1,1,1.93,1.11,1.26.17,2.52.35,3.78.48a25.44,25.44,0,0,0,4.45.14,1.61,1.61,0,0,0,1.61-1.07,28.55,28.55,0,0,0,.63-5.14,43.71,43.71,0,0,1,.71-6.15.33.33,0,0,0-.63-.17c-.73,3.15-.67,6.49-1.08,9.7-.07.56-.05,1.49-.47,1.9s-1,.3-1.56.31c-.69,0-1.39,0-2.09,0-1.34-.09-2.69-.24-4-.43l-1.35-.19c-.48-.07-1-.08-1.24-.59a3.17,3.17,0,0,1-.09-1.07l0-1c0-.67-.05-1.33-.09-2a25.4,25.4,0,0,0-.57-4c-.09-.41-.73-.24-.63.17Z"/><path d="M123.35,130.51c.19,1.46.36,2.93.54,4.39.12,1.08.25,2.16.35,3.24a1.64,1.64,0,0,0,1.21,1.54,13.85,13.85,0,0,0,1.84.14c.7.06,1.4.11,2.11.15,1.47.07,2.95.11,4.42.05,1-.05,2.38.07,3.07-.84a5.06,5.06,0,0,0,.44-2.51c.17-2.6,0-5.28.46-7.85.08-.41-.55-.59-.63-.18a37.65,37.65,0,0,0-.39,5.81c0,1-.06,2.07-.16,3.1a2.64,2.64,0,0,1-.28,1.28c-.37.49-1.12.44-1.68.48a45.45,45.45,0,0,1-7.56-.16,4.82,4.82,0,0,1-1.71-.2c-.47-.26-.47-.73-.52-1.2-.1-.95-.21-1.9-.32-2.85-.17-1.46-.35-2.93-.54-4.39,0-.41-.7-.42-.65,0Z"/><polygon class="cls-2" points="116.89 164.83 116.89 174.56 114.58 174.56 114.58 163.34 116.89 163.34 116.89 164.83"/><polygon class="cls-2" points="109.82 164.83 109.82 174.56 107.51 174.56 107.51 163.34 109.82 163.34 109.82 164.83"/><polygon class="cls-2" points="127.29 163.46 127.29 174.51 129.83 174.51 129.83 161.97 127.29 161.97 127.29 163.46"/><rect class="cls-2" x="138.29" y="161.46" width="2.31" height="11.06"/><path d="M104,116.36a5.23,5.23,0,0,1,2.25-2.92,10.37,10.37,0,0,1,2.87-1l-.45-.18a11.93,11.93,0,0,1,1,3.06c.1.56.86,1,1.26,1.36.85.72,1.72,1.44,2.56,2.18.37.32.75.65,1.1,1,.12.12.23.23.34.36l.09.12,0,.06c-.07-.13,0-.26.13-.4-.42.29,0,1,.4.69s0-.94-.3-1.26c-.59-.61-1.25-1.15-1.89-1.71s-1.45-1.21-2.16-1.83a7.92,7.92,0,0,1-.69-.61s-.15-.17-.14-.14,0,.14,0,0a1.5,1.5,0,0,0,0-.37,11.63,11.63,0,0,0-1.06-3,.41.41,0,0,0-.45-.19,10.21,10.21,0,0,0-3.31,1.21,6.23,6.23,0,0,0-2.37,3.25c-.18.48.59.68.77.21Z"/><path d="M109.67,114.17a15.59,15.59,0,0,0-3,.36,19.75,19.75,0,0,0-2.91.94c-.47.19-.26,1,.21.77a21.64,21.64,0,0,1,2.82-.93,14.39,14.39,0,0,1,2.93-.34c.51,0,.51-.82,0-.8Z"/><path d="M107.59,104.6c-1.93,1.71-2.91,4.32-3.52,6.75a25.71,25.71,0,0,0-.76,4.45c0,.51.76.51.8,0a25,25,0,0,1,.69-4.12c.59-2.35,1.49-4.87,3.35-6.51.39-.34-.18-.9-.56-.57Z"/><path d="M143.24,138a10.88,10.88,0,0,0-2.19-3.5,5.6,5.6,0,0,0-3.18-1.6.37.37,0,0,0-.43.25.35.35,0,0,0,.24.43,4.91,4.91,0,0,1,2.92,1.47,10.58,10.58,0,0,1,2,3.3.36.36,0,0,0,.48.13.37.37,0,0,0,.13-.48Z"/><path class="cls-6" d="M93.61,125.94a10.59,10.59,0,0,1,3.87,7.78.35.35,0,0,0,.7,0,11.27,11.27,0,0,0-4.08-8.27c-.34-.29-.83.2-.49.49Z"/><path class="cls-6" d="M140.75,134.88c-.73,1.23-1.14,2.62-1.87,3.85a.35.35,0,0,0,.6.35c.73-1.23,1.15-2.61,1.88-3.84a.35.35,0,0,0-.61-.36Z"/><path class="cls-6" d="M143.24,138a3.49,3.49,0,0,0-2.17-1.48,1,1,0,0,0-.9.3,5,5,0,0,0-.71.89,9.7,9.7,0,0,0-.58,1c-.21.4.4.75.6.35a9.18,9.18,0,0,1,.57-1c.12-.18.24-.35.37-.51a2,2,0,0,1,.19-.21l.08-.08.06,0h0l.09-.06h0c-.06,0-.07,0,0,0s0,0,0,0l.11,0a2.54,2.54,0,0,1,.6.22,2.78,2.78,0,0,1,1.09.92c.24.38.85,0,.61-.35Z"/><path class="cls-6" d="M142.12,136.48a1.19,1.19,0,0,0-.84-.24h-.37s-.08,0,0,0h0l-.07,0h0c.1,0,.07,0,0,0l0,0,0,0-.49.5c.21.17.48.41.79.29a.34.34,0,0,0,.24-.43l-.31-.88-.59.34.73.87a.35.35,0,0,0,.49,0,.36.36,0,0,0,0-.5l-.72-.86a.33.33,0,0,0-.42-.06.36.36,0,0,0-.17.4l.32.88.24-.43h0c-.06,0,.09,0,0,0s.07,0,0,0l0,0-.05,0,0,0,0,0-.09-.08a.35.35,0,0,0-.24-.1.37.37,0,0,0-.25.1.36.36,0,0,0,0,.5,1.19,1.19,0,0,0,.84.23,2.23,2.23,0,0,1,.37,0s.08,0,0,0h0l.07,0h0c-.1,0-.07,0,0,0l0,0,0,0a.35.35,0,0,0,.49-.49Z"/><path class="cls-6" d="M138,161.2c-.9.49-1.74,1.08-2.64,1.57a31.48,31.48,0,0,1-4.85,2c-.48.17-.28.94.21.77a31.8,31.8,0,0,0,5-2.05c.92-.49,1.78-1.09,2.7-1.6.45-.24,0-.93-.4-.68Z"/><path d="M137,122.56q-7.91,1.09-15.88,1.73c-.51,0-.51.83,0,.79q8.07-.63,16.1-1.75c.5-.07.29-.84-.22-.77Z"/><path d="M120.81,124.72c-.79,1.62-.64,3.42-1,5.14-.11.5.66.71.77.21.38-1.63.21-3.42,1-4.95.22-.46-.46-.86-.69-.4Z"/><path d="M136.89,123.14a16.45,16.45,0,0,1-.09,6.37c-.1.5.67.72.77.22a17.68,17.68,0,0,0,.09-6.8c-.09-.51-.86-.29-.77.21Z"/><path d="M137.15,129.33l-1.56.33a.41.41,0,0,0-.28.49.4.4,0,0,0,.49.28l1.56-.33a.41.41,0,0,0,.28-.49.4.4,0,0,0-.49-.28Z"/><path class="cls-6" d="M115.6,164.13a17.19,17.19,0,0,1,1.08-4.61,21.74,21.74,0,0,0,.66-5c.13-3.37.13-6.74.11-10.12,0-7-.24-13.95-.33-20.93a.4.4,0,0,0-.8,0c.1,7,.29,14,.33,20.93,0,3.38,0,6.75-.11,10.12a21.09,21.09,0,0,1-.81,5.42,13.93,13.93,0,0,0-.92,4.21.4.4,0,0,0,.79,0Z"/><path d="M113.11,125.54a8.88,8.88,0,0,1-1.23,5.64c-.25.45.44.85.68.4a9.67,9.67,0,0,0,1.32-6.25.41.41,0,0,0-.49-.28.41.41,0,0,0-.28.49Z"/><path d="M113,125.18a49.08,49.08,0,0,0-13.39,1.35c-.49.12-.28.89.22.77A48.26,48.26,0,0,1,113,126a.4.4,0,0,0,0-.79Z"/><path d="M99.57,126.87a10.68,10.68,0,0,1-.6,4.34c-.17.48.6.69.77.21a11.34,11.34,0,0,0,.63-4.55c0-.51-.83-.51-.8,0Z"/><path d="M112.37,130.85a34.5,34.5,0,0,1-4.92.39c-2.36.16-4.73.29-7.1.47a14.38,14.38,0,0,0-2.06.21c-.5.11-.29.88.21.77a34.5,34.5,0,0,1,4.92-.39c2.37-.16,4.73-.3,7.1-.47a17.75,17.75,0,0,0,2.06-.21c.5-.11.29-.88-.21-.77Z"/><line class="cls-12" x1="110.04" y1="114.6" x2="106.74" y2="115.19"/><path d="M109.26,112.14a6,6,0,0,0-3.3.93,5.88,5.88,0,0,0-2,2.07l0,.63,5.19-1.34.7.19Z"/><path d="M131.24,111.56c-1.12,0-2.24.18-3.35.3-.56.06-1.11.12-1.66.16l-.78,0h-.17l.06.07s0-.09,0-.14.11-.33.17-.5l-.78-.11a1.22,1.22,0,0,0,.39,1.09.82.82,0,0,0,1.11-.19.79.79,0,0,0-.24-1.09.56.56,0,0,0-.82.57c0,.92,1.25.77,1.84.63.37-.09.73-.21,1.1-.3A2,2,0,0,1,129,112a.4.4,0,0,0,.21-.77,10.81,10.81,0,0,0-2.9-.08c-.51,0-.51.77,0,.79A10.07,10.07,0,0,1,129,112l.21-.77a3.37,3.37,0,0,0-1.69.19c-.28.08-.57.17-.86.23a1.58,1.58,0,0,1-.38,0c-.06,0-.12,0-.18,0h0c-.1-.06-.15,0-.15.13h-.41c.11.05,0,0,0,0s0-.28,0-.41a.4.4,0,0,0-.78-.1,2.2,2.2,0,0,0-.24,1,.68.68,0,0,0,.69.55,13.92,13.92,0,0,0,1.93-.14c1.35-.13,2.71-.31,4.07-.37.51,0,.51-.82,0-.8Z"/><path class="cls-2" d="M142.46,172.28c0-.06-.08-3.39-.13-3.37l-1.73.78-1-.05-35.84-3.91s-.09,3.32-.11,3.36l-1,2.32v0l-1.25,4h42.17Z"/><g class="cls-13"><rect class="cls-5" x="85.67" y="158.59" width="19.54" height="18.34"/></g><path class="cls-2" d="M143.42,200.82h0a.11.11,0,0,0,.19.11l0,0v0A.11.11,0,0,0,143.42,200.82Z"/><path d="M116,175c.58-2.25,1.26-4.46,2-6.67.15-.49-.62-.7-.77-.21-.7,2.21-1.39,4.42-2,6.67a.4.4,0,0,0,.77.21Z"/><path d="M113.62,175.11c.31-1.27.53-2.55.91-3.81a15.54,15.54,0,0,1,.7-1.91,4.57,4.57,0,0,1,.4-.72,1,1,0,0,1,.32-.32c.45-.22,0-.91-.41-.68a2.45,2.45,0,0,0-.93,1.19,16,16,0,0,0-.77,2c-.42,1.34-.66,2.7-1,4.05-.12.5.65.71.77.21Z"/><path class="cls-6" d="M93.17,125.56a9.81,9.81,0,0,1,2.47,3.65.36.36,0,0,0,.7-.2,10.47,10.47,0,0,0-2.65-4c-.35-.32-.87.19-.52.52Z"/><path d="M94.19,114.2c3.32,0,6.59-.76,9.91-.78a.33.33,0,0,0,0-.65c-3.32,0-6.59.77-9.91.78a.33.33,0,0,0,0,.65Z"/><path d="M94.51,114s0,0,0,0,0,0,0,0a.61.61,0,0,0,0-.12l.15-.27c.12-.22.25-.43.37-.64.24-.39.49-.77.74-1.15l.17-.25a.33.33,0,1,0-.57-.33c-.44.65-.87,1.31-1.25,2a3.93,3.93,0,0,0-.3.62.31.31,0,0,0,.22.4.34.34,0,0,0,.41-.23Z"/><path d="M133.52,108.17l5.58,1.33c.38.09.54-.49.16-.58l-5.58-1.33c-.37-.09-.53.49-.16.58Z"/><polygon class="cls-14" points="130.36 112.1 134.12 113.53 133.57 110.7 139 111.39 137.43 115.3 137.13 121.41 134.42 121.05 132.69 120.17 130.98 118.61 130.22 116.22 130.36 112.1"/><path d="M140.25,111.33c-1.06,2.8-2.23,4.4-1.55,7.32a11.38,11.38,0,0,1,.47,2.35c0,.54-1.85,1.15-2,.41-.79-3.07-.55-7.39,1.08-10.12"/><path d="M133.91,117.23a15.81,15.81,0,0,0,2.09-1.74c.66-.62,1.3-1.25,2-1.86.31-.29-.15-.75-.46-.47-.65.6-1.28,1.22-1.92,1.83a14.52,14.52,0,0,1-2,1.67c-.35.23,0,.8.33.57Z"/><polygon class="cls-14" points="134.61 105.36 138.47 106.48 141.88 107.68 140.55 105.55 135.49 104.86 133.37 104.85 134.61 105.36"/><path d="M130.09,102.45c2.41,3,3.08,7.36,3.43,11.07l.68-.29c-2.41-2.34-6-2-9-2.81a.4.4,0,0,0-.45.18,14,14,0,0,0-1.07,5.28l.5-.38a4.9,4.9,0,0,0-3.71,1.2c-1.26.89-2.37,2-3.58,2.92-.4.32.17.88.56.56,1-.81,2-1.72,3-2.51s2.23-1.66,3.49-1.41a.4.4,0,0,0,.5-.38,12.91,12.91,0,0,1,1-4.88l-.45.18c2.87.72,6.39.42,8.66,2.62.23.22.71.08.68-.28-.37-4-1.1-8.46-3.66-11.63-.32-.4-.88.16-.57.56Z"/><path d="M133.5,110.64a45.4,45.4,0,0,0,4.49.81c1.08.16,2.21.24,3.27.5a.33.33,0,0,0,.17-.63c-1.06-.26-2.18-.34-3.27-.5-1.5-.22-3-.44-4.49-.81a.33.33,0,0,0-.17.63Z"/><path d="M132.31,105.16c1.59.44,3.16,1,4.73,1.5a42.31,42.31,0,0,1,4.68,1.74c.38.18.71-.38.33-.56a40,40,0,0,0-4.72-1.77c-1.6-.55-3.21-1.09-4.85-1.54a.33.33,0,0,0-.17.63Z"/><path d="M120.36,130.78a102.32,102.32,0,0,0,15.16-.41c.51-.05.51-.85,0-.8a102.32,102.32,0,0,1-15.16.41c-.51,0-.51.77,0,.8Z"/><path d="M116.37,80.2c.33.83-.24,1.87-.64,2.6s-1,1.52-1.46,2.26c-.21.3.28.58.48.29a22.55,22.55,0,0,0,1.6-2.5,3.61,3.61,0,0,0,.56-2.8c-.13-.34-.68-.19-.54.15Z"/><path d="M114.77,84.36a1.51,1.51,0,0,0-.68,1.32,1.64,1.64,0,0,0,.79,1.46,3.46,3.46,0,0,0,2.05.69,3.81,3.81,0,0,0,1.11-.25,2.13,2.13,0,0,0,.9-.52,1.13,1.13,0,0,0,.3-1c0-.32-.21-.58-.57-.56s-.37.59,0,.57c.08,0,.07,0,0-.06l0,0a.45.45,0,0,0,0,.16.55.55,0,0,1-.1.37,1.46,1.46,0,0,1-.78.47,2.74,2.74,0,0,1-1.06.2,2.62,2.62,0,0,1-1-.25c-.46-.2-1.07-.52-1.15-1.06,0-.36,0-.93.39-1.1s0-.65-.28-.49Z"/><path class="cls-15" d="M126.15,130.51s5.15,19.67,12,18.4,6-8,6-8"/><path class="cls-15" d="M141.23,111.39s2.65-4,2.79-4"/><path class="cls-15" d="M140.82,111.54s.79-4.27,2.13-4.55"/><ellipse class="cls-16" cx="141.39" cy="117.73" rx="1.25" ry="0.67" transform="translate(-39.48 151.47) rotate(-50.35)"/><ellipse class="cls-16" cx="141.5" cy="119.47" rx="1.25" ry="0.67" transform="translate(-40.78 152.18) rotate(-50.35)"/><ellipse class="cls-16" cx="141.57" cy="121.33" rx="1.25" ry="0.67" transform="translate(-42.18 152.91) rotate(-50.35)"/><ellipse class="cls-16" cx="141.63" cy="123.37" rx="1.25" ry="0.67" transform="translate(-43.73 153.69) rotate(-50.35)"/><ellipse class="cls-16" cx="141.52" cy="125.37" rx="1.25" ry="0.67" transform="translate(-45.31 154.34) rotate(-50.35)"/><ellipse class="cls-16" cx="141.53" cy="127.27" rx="1.25" ry="0.67" transform="translate(-46.77 155.03) rotate(-50.35)"/><ellipse class="cls-16" cx="141.73" cy="129.28" rx="1.25" ry="0.67" transform="translate(-48.25 155.91) rotate(-50.35)"/><ellipse class="cls-16" cx="141.8" cy="131.32" rx="1.25" ry="0.67" transform="translate(-49.79 156.7) rotate(-50.35)"/><ellipse class="cls-16" cx="142.19" cy="133.47" rx="1.25" ry="0.67" transform="translate(-51.3 157.78) rotate(-50.35)"/><ellipse class="cls-16" cx="142.48" cy="135.41" rx="1.25" ry="0.67" transform="translate(-52.7 158.7) rotate(-50.35)"/><ellipse class="cls-16" cx="142.91" cy="137.48" rx="1.25" ry="0.67" transform="translate(-54.13 159.79) rotate(-50.35)"/><path class="cls-16" d="M144.27,138.57a1.55,1.55,0,0,1-.6,1.48c-.5.46-1,.54-1.21.18s.41-1.26.9-1.72S144.1,138.21,144.27,138.57Z"/><ellipse class="cls-16" cx="144.17" cy="141.08" rx="1.25" ry="0.67" transform="translate(-56.45 162.06) rotate(-50.35)"/><ellipse class="cls-16" cx="144.99" cy="142.76" rx="1.25" ry="0.67" transform="translate(-57.45 163.29) rotate(-50.35)"/><ellipse class="cls-16" cx="145.74" cy="144.13" rx="1.25" ry="0.67" transform="translate(-58.23 164.37) rotate(-50.35)"/><path class="cls-17" d="M140.82,116.89l.38-6.7.73.08a.63.63,0,0,1,.38.65l-.68,5.37Z"/><path d="M140.81,117.34l0,0s0,0,0,0l0,.07a.41.41,0,0,1,0,.09l0,0s0,0,0,0,0,.11,0,.15,0-.08,0,0v.06s0,.1,0,0a.13.13,0,0,1,0,.06.65.65,0,0,1,0,.13c0,.06,0-.07,0,0l0,.07-.07.11,0,0h0l-.09.1-.18.18a2.68,2.68,0,0,0-.26.23.33.33,0,1,0,.46.46l.3-.27a2.18,2.18,0,0,0,.42-.49,1.39,1.39,0,0,0,.2-.71,1.41,1.41,0,0,0-.38-.85.34.34,0,0,0-.47,0,.35.35,0,0,0,0,.46Z"/><path d="M141.13,119.21l0,.05s0,0,0,0a.43.43,0,0,0,0,.07.41.41,0,0,1,.05.09l0,0s0,0,0,0,0,.11,0,.15,0-.08,0,0v.06s0,.1,0,0a.13.13,0,0,1,0,.06.5.5,0,0,1,0,.13c0,.06,0-.07,0,0l0,.06a.41.41,0,0,1-.07.11l0,0s0-.06,0,0l-.09.1-.18.18-.26.23a.33.33,0,1,0,.46.46l.3-.26a2.48,2.48,0,0,0,.42-.5,1.36,1.36,0,0,0,.2-.71,1.41,1.41,0,0,0-.38-.85.34.34,0,0,0-.47,0,.35.35,0,0,0,0,.46Z"/><path d="M141.31,121.44l.07.08c0-.06,0,0,0,0l0,.06,0,0s0,0,0,0l0,.13c0,.06,0-.08,0,0v0s0,.1,0,0,0,0,0,.07,0,0,0,0-.05.09,0,0l-.13.23h0l0,0-.09.09-.18.17-.27.22a.34.34,0,0,0,0,.46.33.33,0,0,0,.47,0c.17-.16.36-.29.52-.46a1.32,1.32,0,0,0,.39-1,1.26,1.26,0,0,0-.35-.7.33.33,0,0,0-.47,0,.34.34,0,0,0,0,.46Z"/><path d="M141.43,123.79l.09.09s0,0,0,0,0,0,0,0,0,0,0,.06a.08.08,0,0,0,0,0s0-.07,0,0a.06.06,0,0,1,0,0s0,.08,0,0,0,0,0,0v0s0,.07,0,0,0,0,0,0a.06.06,0,0,1,0,0s0,.06,0,0,0,0,0,0l0,0,0,.07,0,0,0,0-.14.14-.14.12s.07,0,0,0l0,0-.07,0a3.06,3.06,0,0,0-.29.21.32.32,0,0,0,0,.46.33.33,0,0,0,.46,0l0,0h0l.05,0,.14-.09c.12-.09.25-.19.36-.29a1.14,1.14,0,0,0,.43-.89,1,1,0,0,0-.34-.64.33.33,0,0,0-.47,0,.34.34,0,0,0,0,.46Z"/><path d="M141.42,125.6l.09.08s.05.06,0,0,0,0,0,0l0,0v0l0,0s0,0,0,0,0,.07,0,0,0,0,0,0v0c0,.06,0,0,0,0v0s0,0,0,0v0s0,.07,0,.08l0,0h0l0,0a1.59,1.59,0,0,1-.13.13l-.08.06,0,0,0,0,0,0-.15.1-.23.15a.43.43,0,0,0-.15.2.36.36,0,0,0,0,.25.33.33,0,0,0,.45.12c.2-.15.41-.27.6-.43a1.09,1.09,0,0,0,.44-.86.94.94,0,0,0-.34-.61.33.33,0,1,0-.46.46Z"/><path d="M141.55,127.28l.08.09,0,0s0,0,0,0l0,0a.08.08,0,0,0,0,0s0-.07,0,0a.32.32,0,0,1,0,.09s0-.08,0,0v.06c0,.06,0,0,0,0s0,0,0,0v0h0s0,0,0,0,0,.06,0,.08l-.05.07c0,.05.05-.06,0,0l0,0a.86.86,0,0,1-.13.14l-.08.06,0,0h0s.07,0,0,0l-.15.1-.29.21a.34.34,0,0,0,0,.46.35.35,0,0,0,.47,0l0,0h0l0,0,.13-.09a2.63,2.63,0,0,0,.37-.29,1.09,1.09,0,0,0,.43-.87,1,1,0,0,0-.34-.63.33.33,0,0,0-.46.46Z"/><path d="M141.74,129.41l.09.08s0,0,0,0-.05-.07,0,0,0,0,0,0v0s0-.08,0-.05v0s0,.08,0,0,0,0,0,0,0-.09,0,0,0,0,0,0,0,0,0,0l0-.05v0s0,0,0,.08l0,0s.06-.07,0,0l-.06.07-.14.13,0,0,0,0,0,0a.24.24,0,0,0-.08.06.71.71,0,0,0-.14.1l-.24.15a.36.36,0,0,0-.15.19.33.33,0,0,0,.48.37l.23-.14.37-.28a1,1,0,0,0,.45-.83.86.86,0,0,0-.33-.59.35.35,0,0,0-.24-.1.34.34,0,0,0-.23.1.33.33,0,0,0,0,.46Z"/><text/><path d="M142.42,133.53l.06.06,0,0s0,0,0,0,0,0,0,.06l0,.06s0-.07,0,0v0s0,0,0,.06,0-.1,0,0v.06s0-.09,0,0a.43.43,0,0,0,0,.05.14.14,0,0,0,0,.06c0-.06,0-.07,0,0v0l-.06.11s-.07.07,0,0l0,.05a1.53,1.53,0,0,1-.18.18l-.09.08-.05,0c.09-.07,0,0,0,0a3.81,3.81,0,0,0-.32.24.31.31,0,0,0,0,.46.33.33,0,0,0,.46,0c.05,0-.08.06,0,0l.05,0,.14-.1a3.37,3.37,0,0,0,.36-.3,1.14,1.14,0,0,0,.42-.9,1.07,1.07,0,0,0-.35-.66.33.33,0,0,0-.46.46Z"/><path d="M142.61,135.29l.07.06,0,0s0,0,0,0,0,0,0,.06,0,0,0,.06,0-.06,0,0v0a.64.64,0,0,1,0,.07c0,.05,0-.1,0,0v.06c0,.06,0-.09,0,0a.13.13,0,0,1,0,.06.11.11,0,0,0,0,0s0-.06,0,0v0l-.06.11h0l0,0-.18.17-.09.08,0,0c-.06.05.06,0,0,0l-.33.25a.33.33,0,0,0,0,.46.34.34,0,0,0,.47,0h0s-.08.06-.05,0l.06,0,.13-.1a3.47,3.47,0,0,0,.37-.3,1.19,1.19,0,0,0,.42-.91,1.07,1.07,0,0,0-.35-.67.33.33,0,0,0-.47,0,.34.34,0,0,0,0,.46Z"/><path d="M143.08,137.5l.09.09h0s0,0,0,0l0,0v0l0,0s0,0,0,0,0,.08,0,0,0,0,0,0,0-.07,0,0a.06.06,0,0,1,0,0v0c0,.05,0-.05,0,0l0,.08-.05.07s.05-.06,0,0l0,0-.14.13-.07.06,0,0,0,0,0,0-.14.1-.24.16a.36.36,0,0,0-.15.19.33.33,0,0,0,.48.37c.2-.15.41-.27.6-.43a1.11,1.11,0,0,0,.44-.86.9.9,0,0,0-.34-.62.32.32,0,0,0-.46,0,.33.33,0,0,0,0,.46Z"/><path d="M143.44,139.23l.07.07,0,0,0,0s0,.06,0,.07,0,0,0,.06,0-.06,0,0v0s0,0,0,.06,0-.05,0,0v.06c0,.06,0-.09,0,0s0,0,0,.06l0,0s0-.07,0,0l0,0a.6.6,0,0,1-.06.11l0,0c.06-.09,0,0,0,0l-.19.18-.08.07,0,0c-.07,0,.05,0,0,0l-.33.25a.33.33,0,0,0,0,.46.34.34,0,0,0,.47,0l0,0,.06,0,.13-.1a2.17,2.17,0,0,0,.37-.31,1.15,1.15,0,0,0,.41-.91,1.09,1.09,0,0,0-.34-.67.34.34,0,0,0-.47,0,.33.33,0,0,0,0,.46Z"/><path d="M144.12,141.07l.09.09,0,0,0,0,0,.06,0,0s0-.08,0,0a.09.09,0,0,1,0,.05s0,.07,0,0,0,0,0,0v.05h0c0-.07,0,0,0,0l0,.05h0c0-.05,0,0,0,0l0,0a.35.35,0,0,1,0,.08l0,0,0,0-.14.14-.14.12s.07-.05,0,0l0,0-.07.05-.29.21a.33.33,0,0,0,0,.47.34.34,0,0,0,.46,0l0,0,0,0,.05,0,.14-.1a3.26,3.26,0,0,0,.36-.29,1.11,1.11,0,0,0,.43-.89,1,1,0,0,0-.34-.64.33.33,0,0,0-.47.46Z"/><path d="M144.89,142.7l.06.06,0,0h0l0,.06,0,.06v0s0,0,0,.06,0-.1,0,0V143c0,.06,0-.09,0,0a.43.43,0,0,1,0,0,.14.14,0,0,0,0,.06c0-.06,0-.07,0,0v0l-.06.1h0l0,.05a1.53,1.53,0,0,1-.18.18l-.09.07-.05,0c.08-.07,0,0,0,0a3.92,3.92,0,0,0-.32.25.31.31,0,0,0,0,.46.33.33,0,0,0,.46,0c.05,0-.08.05,0,0l.05,0,.14-.1c.12-.1.25-.19.36-.3a1.16,1.16,0,0,0,.42-.91,1.07,1.07,0,0,0-.35-.66.32.32,0,0,0-.46,0,.33.33,0,0,0,0,.46Z"/><path d="M145.55,144l.06.08s0,0,0,0l0,0s0,.1.07.13v0s0,.05,0,.07,0-.07,0,0v.09c0,.08,0-.06,0,0s0,.05,0,.07a.14.14,0,0,1,0,.06c0,.06,0-.07,0,0l-.06.12,0,.06c-.05.06,0,0,0,0a2.89,2.89,0,0,1-.35.35.27.27,0,0,0-.08.07c-.06,0,.05,0,0,0l0,0-.17.13a.33.33,0,0,0,0,.47.34.34,0,0,0,.46,0l0,0,0,0,0,0,.19-.15a2,2,0,0,0,.31-.27,1.09,1.09,0,0,0,0-1.67.33.33,0,0,0-.46.46Z"/><text/><path class="cls-7" d="M95.3,84.19s2.65,5.25,5.09,7.18"/><path class="cls-1" d="M120.11,44.38c-1-.5-10.09-5.29-11.57-5.27a4,4,0,0,0-2.23.57l-.1.6.59.65,3.28,1.66,3,1.76s1.56,1.15,1.52,1.43a16,16,0,0,0,.88,2.48"/><path class="cls-1" d="M100.5,52.53l.35-5.11,4.44-10.64L108.08,35l.72,1.26A41.54,41.54,0,0,0,107.38,41a37.93,37.93,0,0,1-1.92,4.92l.35,1.87.78.88,1.21,4.25-2.61,3.59Z"/><line class="cls-18" x1="61.96" y1="44.5" x2="83.27" y2="44.97"/><polyline class="cls-19" points="66.9 39.87 61.65 44.48 66.55 50.06"/><polyline class="cls-20" points="78.68 40.31 83.88 44.87 78.98 50.45"/><text class="cls-21" transform="translate(68.56 262.31)">פיבוט</text></svg>