<svg xmlns="http://www.w3.org/2000/svg" xmlns:xlink="http://www.w3.org/1999/xlink" viewBox="0 0 222.66748 273.8"><defs><style>.a{fill:#cab192;}.b{fill:#747c58;}.c{fill:#ededed;}.d{fill:#cecece;}.e{fill:#fff;}.f{fill:#080808;}.g{clip-path:url(#a);}.h{fill:#271d1d;}.i{clip-path:url(#b);}.j{fill:#54593e;}.k{fill:#707171;}.l{fill:#284220;}.l,.m,.n{stroke:#27421d;}.l,.m,.n,.q,.r{stroke-linecap:round;}.l,.m{stroke-linejoin:round;}.l,.m,.n,.r{stroke-width:2px;}.m,.n,.q,.r,.s{fill:none;}.n,.q,.r,.s{stroke-miterlimit:10;}.o{fill:#525222;}.p{fill:#231f20;}.q{stroke:#000;}.r{stroke:#231f20;}.s{stroke:#080808;}</style><clipPath id="a"><polygon class="a" points="129.351 86.581 126.752 74.643 128.086 72.316 132.475 68.978 134.329 60.683 129.95 58.233 123.52 42.296 109.305 39.562 96.915 45.898 96.923 63.253 95.038 65.731 97.988 73.723 99.445 74.626 100.204 79.228 104.347 83.049 106.036 92.679 102.015 99.908 109.944 116.918 121.548 120.049 133.523 102.203 138.896 90.703 129.351 86.581"/></clipPath><clipPath id="b"><polygon class="b" points="150.514 175.757 142.898 178.81 123.365 177.333 99.348 175.466 98.177 173.651 99.348 169.667 87.718 128.863 79.321 115.443 83.087 102.75 100.421 94.324 105.679 88.646 106.019 92.024 105.644 97.895 114.944 113.701 129.588 93.785 129.431 84.28 134.557 88.708 154.133 96.99 155.601 124.358 153.221 132.808 150.514 175.757"/></clipPath></defs><circle class="c" cx="111.3335" cy="113.18415" r="108.83386"/><path class="d" d="M111.3335,6.85047c58.48339,0,106.334,47.85008,106.334,106.33358v.00023c0,58.48346-47.85059,106.33358-106.334,106.33358S5,171.66774,5,113.18428v-.00023C5,54.70055,52.8501,6.85047,111.3335,6.85047m0-5A111.20485,111.20485,0,0,0,32.7002,191.81786,111.20489,111.20489,0,1,0,189.96729,34.55044a110.54262,110.54262,0,0,0-78.63379-32.7Z"/><path class="e" d="M19.59326,257.48566v7.90381a.578.578,0,0,1-.59765.59815H17.90283a.57952.57952,0,0,1-.59765-.59815v-7.77392q0-4.47144-4.44532-4.47217H10.96143q-.26074,1.50879-.377,2.62646a24.68277,24.68277,0,0,0-.11718,2.54785l.05273,7.07178a.61.61,0,0,1-.15625.4292.53991.53991,0,0,1-.416.16895l-3.61425-.05176a.58033.58033,0,0,1-.59864-.59815v-.78027a.57956.57956,0,0,1,.59864-.59766l1.97558.02588v-5.564q0-1.66407.0918-2.78223a18.03143,18.03143,0,0,1,.40234-2.49609H7.42529a.60716.60716,0,0,1-.42871-.15576.53681.53681,0,0,1-.16894-.416v-.832a.57877.57877,0,0,1,.59765-.59815h5.56348Q19.59375,251.14142,19.59326,257.48566Z"/><path class="e" d="M23.481,259.78644a.57834.57834,0,0,1-.16992-.42871v-7.61816a.58027.58027,0,0,1,.59765-.59815h1.14453a.5773.5773,0,0,1,.59766.59815v7.61816a.57653.57653,0,0,1-.59766.59766H23.90869A.57458.57458,0,0,1,23.481,259.78644Z"/><path class="e" d="M31.55322,255.2757a4.93924,4.93924,0,0,0,.25977,1.6377,1.16706,1.16706,0,0,0,.7793.75439l.98828.25977a.50474.50474,0,0,1,.32519.27295,1.12553,1.12553,0,0,1,.11621.5332v.59814a.43188.43188,0,0,1-.28515.41553,1.07072,1.07072,0,0,1-.624.07813l-.98828-.208q-2.62646-.57129-2.626-4.41992v-3.458a.69481.69481,0,0,1,.18164-.4419.56394.56394,0,0,1,.416-.15625h4.81055a5.48864,5.48864,0,0,1,4.3418,1.67725,7.22717,7.22717,0,0,1,1.56054,4.74512q.0249.26.02539.98779,0,.75439-.02539,1.01416a7.22719,7.22719,0,0,1-1.56054,4.74512,5.49,5.49,0,0,1-4.3418,1.67676H30.43408a.57952.57952,0,0,1-.59765-.59815v-.85791a.57.57,0,0,1,.16992-.44189.60338.60338,0,0,1,.42773-.15625h4.31641a3.47342,3.47342,0,0,0,2.80859-1.16993,5.28651,5.28651,0,0,0,1.06543-3.30175q.05127-.52.05176-.91016,0-.364-.05176-.88379a5.16369,5.16369,0,0,0-1.04-3.31494,3.52078,3.52078,0,0,0-2.834-1.15723H31.55322Z"/><path class="e" d="M44.46143,265.81867a.57867.57867,0,0,1-.169-.4292v-13.6499a.57884.57884,0,0,1,.59863-.59815h1.14356a.58032.58032,0,0,1,.59863.59815v13.6499a.57957.57957,0,0,1-.59863.59815H44.89111A.5825.5825,0,0,1,44.46143,265.81867Z"/><path class="e" d="M56.01807,266.24738a.46775.46775,0,0,1-.46778-.49365v-1.144a.64005.64005,0,0,1,.15528-.40284.9945.9945,0,0,1,.416-.29931l1.01465-.39014a5.98391,5.98391,0,0,0,2.75586-1.94971,6.14718,6.14718,0,0,0,.96191-3.74414,7.32871,7.32871,0,0,0-.416-2.74316,2.65535,2.65535,0,0,0-1.36524-1.44287,6.3118,6.3118,0,0,0-2.6123-.4419h-5.2002a.57654.57654,0,0,1-.59765-.59814v-.88379a.53947.53947,0,0,1,.168-.416.60991.60991,0,0,1,.42968-.15625h5.53809a8.6973,8.6973,0,0,1,3.75684.67627,4.06255,4.06255,0,0,1,2.01562,2.15772,10.3658,10.3658,0,0,1,.623,3.95215,7.5785,7.5785,0,0,1-1.6377,5.187,9.64281,9.64281,0,0,1-4.26367,2.74316l-1.09277.36377A.44656.44656,0,0,1,56.01807,266.24738Zm-5.1875,4.53711a.58214.58214,0,0,1-.168-.42871V256.65363a.57654.57654,0,0,1,.59765-.59814h1.06641a.578.578,0,0,1,.59766.59814v13.70215a.54311.54311,0,0,1-.59766.59766H51.26025A.5825.5825,0,0,1,50.83057,270.78449Z"/><path class="e" d="M68.32861,264.57062A6.71911,6.71911,0,0,1,66.73,259.74738v-8.00781a.57884.57884,0,0,1,.59863-.59815h6.23926q3.353,0,4.80957,1.50831a6.87349,6.87349,0,0,1,1.58594,4.62793q.02637.26.02637,1.4038,0,1.14479-.02637,1.4043a6.33339,6.33339,0,0,1-1.68945,4.62793q-1.6128,1.53443-5.14844,1.53369A6.33273,6.33273,0,0,1,68.32861,264.57062Zm8.28125-1.4038a4.4392,4.4392,0,0,0,1.11817-3.21143c.0166-.17285.02636-.59766.02636-1.27393,0-.67578-.00976-1.10058-.02636-1.27392a4.372,4.372,0,0,0-1.18262-3.17188,4.288,4.288,0,0,0-3.10742-1.09228H68.91455v6.604a4.70653,4.70653,0,0,0,1.05274,3.30225,4.04862,4.04862,0,0,0,3.13281,1.144A4.95383,4.95383,0,0,0,76.60986,263.16682Z"/><path class="e" d="M90.9751,251.81769a4.06449,4.06449,0,0,1,2.01465,2.15772,10.36405,10.36405,0,0,1,.624,3.95215,7.5834,7.5834,0,0,1-1.6377,5.187,9.65166,9.65166,0,0,1-4.26464,2.74316l-1.0918.36377a.453.453,0,0,1-.18164.02588.46774.46774,0,0,1-.46875-.49365v-1.144a.64141.64141,0,0,1,.15625-.40284.9945.9945,0,0,1,.416-.29931l1.01465-.39014a5.98391,5.98391,0,0,0,2.75586-1.94971,6.14718,6.14718,0,0,0,.96192-3.74414,7.32869,7.32869,0,0,0-.416-2.74316,2.65533,2.65533,0,0,0-1.36523-1.44287,6.31379,6.31379,0,0,0-2.61329-.4419h-.88281l-2.39258-.02588a.60986.60986,0,0,1-.42968-.15625.53872.53872,0,0,1-.168-.416V248.1258a.57654.57654,0,0,1,.59765-.59814h1.04a.54163.54163,0,0,1,.416.16894.60586.60586,0,0,1,.15527.4292v3.01562h2.002A8.69906,8.69906,0,0,1,90.9751,251.81769Z"/><path class="e" d="M98.48877,264.62238a6.556,6.556,0,0,1-1.57227-4.74463v-8.13818a.5773.5773,0,0,1,.59766-.59815h1.01367a.5773.5773,0,0,1,.59766.59815v8.00781a4.63293,4.63293,0,0,0,1.08008,3.30225,5.24367,5.24367,0,0,0,6.42187.09082,4.57171,4.57171,0,0,0,1.07813-3.18506v-2.67773a5.02229,5.02229,0,0,0-.88282-3.17188,2.90265,2.90265,0,0,0-2.36718-1.04,3.7539,3.7539,0,0,0-1.02637.16895,3.53437,3.53437,0,0,0-.97559.42871.49623.49623,0,0,1-.25976.07812.4911.4911,0,0,1-.46778-.46777v-.75391a1.8513,1.8513,0,0,1,.05176-.49414.558.558,0,0,1,.25977-.312,4.01877,4.01877,0,0,1,1.15722-.5332,5.942,5.942,0,0,1,1.54786-.16895q5.12109,0,5.22558,6.00586c.0166.17383.02637.68506.02637,1.53418,0,.84961-.00977,1.36084-.02637,1.53418a6.64515,6.64515,0,0,1-1.625,4.64063q-1.522,1.52124-4.90137,1.521Q100.061,266.24738,98.48877,264.62238Z"/><path class="e" d="M130.71533,251.29767a.6.6,0,0,1,.15625.4419v7.17627a6.348,6.348,0,0,1-1.49512,4.1206,7.98382,7.98382,0,0,1-4.043,2.58741l-5.668,1.79394a.68664.68664,0,0,1-.208.02588.54971.54971,0,0,1-.36328-.12988.41911.41911,0,0,1-.15625-.33838v-.80567q0-.59764.416-.728l3.40625-1.11817-3.38086-12.14209a3.26234,3.26234,0,0,1-.12988-.52.53406.53406,0,0,1,.52051-.52h1.19531a.63347.63347,0,0,1,.39063.11719.56414.56414,0,0,1,.207.273l3.32812,12.064a5.28039,5.28039,0,0,0,2.87305-2.05371,6.2237,6.2237,0,0,0,.81934-3.32813v-6.47412a.57882.57882,0,0,1,.59863-.59815h1.0918A.59758.59758,0,0,1,130.71533,251.29767Z"/><path class="e" d="M134.93994,265.81867a.5787.5787,0,0,1-.16894-.4292v-13.6499a.57882.57882,0,0,1,.59863-.59815h1.14355a.58033.58033,0,0,1,.59864.59815v13.6499a.57958.57958,0,0,1-.59864.59815h-1.14355A.5825.5825,0,0,1,134.93994,265.81867Z"/><path class="e" d="M149.13525,265.81867a.58176.58176,0,0,1-.168-.4292v-7.77392q0-4.47144-4.47266-4.47217h-3.35352a.60957.60957,0,0,1-.42968-.15576.53609.53609,0,0,1-.168-.416v-.832a.5773.5773,0,0,1,.59765-.59815h3.50977q6.60351,0,6.60351,6.34424v7.90381a.57654.57654,0,0,1-.59765.59815h-1.0918A.58252.58252,0,0,1,149.13525,265.81867Z"/><path class="e" d="M161.79736,251.31086a.57912.57912,0,0,1,.16895.42871v.832a.53682.53682,0,0,1-.16895.416.6088.6088,0,0,1-.42871.15576h-1.53418a2.86422,2.86422,0,0,0-.585,1.22217,7.29816,7.29816,0,0,0-.22168,1.87207v9.17822a.52084.52084,0,0,1-.18164.416.65469.65469,0,0,1-.4414.15577H157.313a.53687.53687,0,0,1-.57227-.57178v-9.334a7.87962,7.87962,0,0,1,.18164-1.82031,2.6972,2.6972,0,0,1,.49414-1.11816h-2.28808a.60714.60714,0,0,1-.42871-.15576.53751.53751,0,0,1-.16992-.416v-.832a.58032.58032,0,0,1,.59863-.59815h6.24023A.58218.58218,0,0,1,161.79736,251.31086Z"/><path class="e" d="M173.186,264.57062a6.71938,6.71938,0,0,1-1.59961-4.82324v-8.00781a.57877.57877,0,0,1,.59765-.59815h6.24024q3.35448,0,4.81054,1.50831a6.8833,6.8833,0,0,1,1.58594,4.62793q.0249.26.02539,1.4038,0,1.14479-.02539,1.4043a6.33768,6.33768,0,0,1-1.69043,4.62793q-1.61279,1.53443-5.14746,1.53369A6.32828,6.32828,0,0,1,173.186,264.57062Zm8.28027-1.4038a4.44335,4.44335,0,0,0,1.11816-3.21143q.02637-.25928.02539-1.27393,0-1.01367-.02539-1.27392a4.37242,4.37242,0,0,0-1.18359-3.17188,4.28394,4.28394,0,0,0-3.10645-1.09228H173.77v6.604a4.71115,4.71115,0,0,0,1.05273,3.30225,4.05235,4.05235,0,0,0,3.13379,1.144A4.95386,4.95386,0,0,0,181.46631,263.16682Z"/><path class="e" d="M188.47314,265.81867a.57946.57946,0,0,1-.16992-.4292v-13.6499a.58032.58032,0,0,1,.59864-.59815h1.14355a.57882.57882,0,0,1,.59863.59815v13.6499a.57808.57808,0,0,1-.59863.59815h-1.14355A.58028.58028,0,0,1,188.47314,265.81867Z"/><path class="e" d="M201.78564,265.81867a.61736.61736,0,0,1-.45507.16895h-6.916a.57808.57808,0,0,1-.59863-.59815v-.832a.57805.57805,0,0,1,.59863-.59766h5.0957l-.416-6.604a24.57641,24.57641,0,0,0-.24707-2.47021,2.36592,2.36592,0,0,0-.6377-1.29981,2.133,2.133,0,0,0-1.55957-.49414h-1.04a.60771.60771,0,0,1-.42871-.15576.53681.53681,0,0,1-.16894-.416v-.832a.578.578,0,0,1,.59765-.59814h1.06641a4.773,4.773,0,0,1,2.87305.74072,3.76116,3.76116,0,0,1,1.37695,2.041,16.16031,16.16031,0,0,1,.50781,3.40625l.49414,8.11181A.51076.51076,0,0,1,201.78564,265.81867Z"/><path class="e" d="M205.21729,259.78644a.57831.57831,0,0,1-.16993-.42871v-7.61816a.58028.58028,0,0,1,.59766-.59815h1.14453a.5773.5773,0,0,1,.59766.59815v7.61816a.57653.57653,0,0,1-.59766.59766H205.645A.57456.57456,0,0,1,205.21729,259.78644Z"/><path class="e" d="M211.40479,265.81867a.57943.57943,0,0,1-.16993-.4292v-.85791a.58032.58032,0,0,1,.59864-.59814h3.71777a4.34846,4.34846,0,0,0,3.32812-1.144,5.07988,5.07988,0,0,0,1.16993-3.32763q.02635-.364.02636-.91016,0-.52-.02636-.88379a4.93372,4.93372,0,0,0-1.15625-3.34131,4.429,4.429,0,0,0-3.3418-1.13086H211.8335a.57957.57957,0,0,1-.59864-.59814v-.85791a.58033.58033,0,0,1,.59864-.59815h3.84863a6.53874,6.53874,0,0,1,4.91406,1.65137,6.98117,6.98117,0,0,1,1.68945,4.771c.01758.24267.0254.57178.0254.98779s-.00782.75391-.0254,1.01416a6.98117,6.98117,0,0,1-1.68945,4.771,6.53862,6.53862,0,0,1-4.91406,1.65088H211.8335A.58024.58024,0,0,1,211.40479,265.81867Z"/><path class="b" d="M75.94841,148.99023s4.24913,7.75568,2.27647,10.12587-8.16529,6.264-14.46507,5.92546-12.22523-.1693-12.90243-3.21668-1.35439-9.55624-.84649-11.804,4.006-4.7907,4.006-4.7907"/><polygon class="b" points="92.418 96.563 86.745 98.825 77.034 102.408 54.598 153.28 56.327 162.387 64.95 164.616 97.251 125.679 97.491 102.676 92.418 96.563"/><path d="M149.65119,142.40977c-1.79409-4.20036-5.82209-6.50037-10.17488-7.25716a.86758.86758,0,0,0-1.03715.58888.8502.8502,0,0,0,.58887,1.03715,14.43168,14.43168,0,0,1,5.57009,2.06726,9.86743,9.86743,0,0,1,3.597,4.415.84831.84831,0,0,0,1.15356.30247.86543.86543,0,0,0,.30247-1.15356Z"/><path class="f" d="M144.51031,138.89354l-4.21735,4.517a.84313.84313,0,1,0,1.19237,1.19236l4.21734-4.517a.84313.84313,0,0,0-1.19236-1.19236Z"/><path class="f" d="M149.42755,142.40977a4.01926,4.01926,0,0,0-1.62563-1.52374,5.323,5.323,0,0,0-1.98764-.44854,8.27288,8.27288,0,0,0-1.9631.15923,2.98509,2.98509,0,0,0-1.69263.81568.8647.8647,0,0,0,0,1.19236.85053.85053,0,0,0,1.19237,0c.03215-.03742.07239-.07.10363-.10746-.05137.06166-.132.08417-.01922.01876.0419-.02431.08258-.05043.12542-.07322.0386-.02053.21907-.08672.02635-.01892a5.19183,5.19183,0,0,1,.749-.20843c.0618-.01186.12385-.0221.1859-.03252.07079-.0119.16385-.02167.04-.00713.13819-.01622.27657-.02971.41539-.03921a7.5705,7.5705,0,0,1,.7737-.01529c.10914.0037.21776.01121.32655.02032.026.00218.17856.02437.05652.00566-.13718-.021.0819.01487.10838.0195a4.43173,4.43173,0,0,1,.78013.20622c-.11014-.04082-.04865-.02333.02314.01395.052.027.1042.05345.15488.083.06185.03605.12048.07625.18023.11547.17842.1171-.0944-.10429.0617.05166a3.45847,3.45847,0,0,1,.52889.62376.86222.86222,0,0,0,1.15356.30247.8519.8519,0,0,0,.30248-1.15356Z"/><path class="f" d="M147.70321,140.31441a2.32193,2.32193,0,0,0-1.25713-.29865,10.11,10.11,0,0,1-1.0576-.03474l.22414.03011a1.39032,1.39032,0,0,1-.31856-.08053l.20141.085a.77446.77446,0,0,1-.13655-.07523l-.85108,1.456a1.75876,1.75876,0,0,0,1.45738.37451.836.836,0,0,0,.54637-.48817.87122.87122,0,0,0-.04249-.75039l-.5619-1.2369-1.3242,1.02173,1.303,1.217a.84313.84313,0,0,0,1.19236-1.19237l-1.303-1.217a.84871.84871,0,0,0-1.107-.06591.80436.80436,0,0,0-.30215.438.96548.96548,0,0,0,.085.64968l.5619,1.2369.50388-1.23856a.36868.36868,0,0,1-.06417.01627l.22413-.03012a.56621.56621,0,0,1-.13179-.00006l.22414.03012a.87658.87658,0,0,1-.16771-.04814l.20141.085a3.266,3.266,0,0,1-.444-.25758.84334.84334,0,0,0-1.23855.95216.94709.94709,0,0,0,.38747.50388,2.322,2.322,0,0,0,1.25713.29865,10.10724,10.10724,0,0,1,1.0576.03474l-.22414-.03012a1.39135,1.39135,0,0,1,.31856.08053l-.20141-.085a.77441.77441,0,0,1,.13655.07522.84333.84333,0,0,0,1.23855-.95215.94705.94705,0,0,0-.38747-.50388Z"/><path d="M59.67325,142.86949a21.81754,21.81754,0,0,1,5.78262,1.08636c.61235.20268.87488-.7627.26584-.96428a22.84533,22.84533,0,0,0-6.04846-1.12208c-.64325-.03183-.64157.96825,0,1Z"/><polygon class="a" points="129.351 86.581 126.752 74.643 128.086 72.316 132.475 68.978 134.329 60.683 129.95 58.233 123.52 42.296 109.305 39.562 96.915 45.898 96.923 63.253 95.038 65.731 97.988 73.723 99.445 74.626 100.204 79.228 104.347 83.049 106.036 92.679 102.015 99.908 109.944 116.918 121.548 120.049 133.523 102.203 138.896 90.703 129.351 86.581"/><g class="g"><polygon class="h" points="126.599 64.889 134.023 49.605 83.146 2.811 97.345 65.235 98.071 47.586 107.186 48.182 116.444 45.208 117.729 48.837 122.888 51.351 126.599 64.889"/></g><polygon points="118.513 53.988 118.175 51.764 112.172 51.756 111.196 53.503 118.513 53.988"/><polygon points="104.152 55.231 103.456 53.031 98.604 55.328 98.105 57.143 104.152 55.231"/><path d="M115.61212,70.946a13.35914,13.35914,0,0,1-7.86439,2.54669.801.801,0,0,0,0,1.6011,14.82154,14.82154,0,0,0,8.67249-2.76529.82353.82353,0,0,0,.2872-1.0953.80686.80686,0,0,0-1.0953-.2872Z"/><path d="M123.39252,78.59408l-7.35326,6.34146-6.48044,1.90616-5.2123-3.7924,4.8595,8.13125a4.59065,4.59065,0,0,0,2.41363,1.99674h0a4.59065,4.59065,0,0,0,2.23421.21517l.22442-.03414a4.59065,4.59065,0,0,0,2.76108-1.51164l1.464-1.66937a4.59075,4.59075,0,0,0,.85791-1.44458l2.71451-7.3932Z"/><path d="M122.56279,78.85883c-1.30633,1.46011-2.6857,2.8569-4.02556,4.2861-.27521.29355-.55157.58636-.81989.88627-.46.51411.29762,1.27672.76.76,1.30633-1.46012,2.6857-2.85691,4.02556-4.2861.27521-.29355.55157-.58637.81989-.88627.46-.51411-.29762-1.27673-.76-.76Z"/><path d="M101.82522,57.56907c.07267.12965.13844.2619.20209.3961q.05462.12407-.00521-.01623.01812.04407.03513.08858.04011.10371.0757.20908a6.65561,6.65561,0,0,1,.20423.83226q.01381.09042-.00608-.05552.008.06306.01443.12629.0096.09484.01578.19.0144.22192.00917.4446c-.00344.14846-.01537.29585-.02992.44358-.0209.21222.03306-.1707-.00626.0389-.01564.08335-.03027.16665-.04789.24964l1.338-.35325c-.06213-.051-.12235-.10377-.17931-.16052a1.33832,1.33832,0,0,0-.15871-.17542c.0313.02066.091.12684.03037.03731-.02441-.03606-.04924-.07159-.07257-.10836q-.063-.09936-.1172-.204-.02416-.04666-.04667-.0942c-.01181-.02486-.078-.16655-.02344-.04956.05026.10774.00036-.00462-.00829-.0281q-.02316-.0628-.04406-.1264a4.52019,4.52019,0,0,1-.12552-.47272q-.02281-.108-.04132-.21684c-.0078-.04557-.01386-.09149-.02187-.137-.01941-.11034.01857.1589.00585.04735-.019-.16634-.03653-.33254-.04877-.49955-.0121-.165-.02082-.33028-.028-.49559-.0018-.04172.00037-.086-.00448-.12729-.01225-.10442-.00787.0344-.018.07206.02862-.107-.02353.04242-.03661.06627q-.95709.50939-1.17451-.08505a.5645.5645,0,0,1-.03428-.42212l.20588-.35326.12754-.1.40406-.1093-.0281.00146a.80055.80055,0,0,0,0,1.6011.87863.87863,0,0,0,.83066-1.1395.93523.93523,0,0,0-1.33269-.57121c-.67477.37294-.55543,1.21271-.49677,1.85681a4.40084,4.40084,0,0,0,1.3046,3.12576.83356.83356,0,0,0,.77889.20588.79467.79467,0,0,0,.55914-.55913,5.98984,5.98984,0,0,0-.62258-4.181.80068.80068,0,0,0-1.3825.80811Z"/><path d="M114.57016,55.63032c.07267.12965.13844.26191.20209.39611q.05461.12405-.00521-.01624.01812.04407.03513.08859.04011.10371.0757.20907a6.6544,6.6544,0,0,1,.20422.83227q.01383.09042-.00607-.05553.008.06306.01443.1263.0096.09485.01578.19.0144.22191.00917.44459c-.00344.14846-.01537.29585-.02992.44359-.02091.21221.03306-.17071-.00626.0389-.01564.08335-.03027.16665-.04789.24964l1.338-.35326c-.06213-.051-.12236-.10376-.17931-.16051a1.33976,1.33976,0,0,0-.15871-.17543c.0313.02066.091.12684.03036.03731-.0244-.03606-.04923-.07159-.07256-.10835q-.063-.09937-.11721-.204-.02415-.04666-.04667-.09419c-.0118-.02487-.078-.16656-.02343-.04956.05026.10773.00036-.00462-.00829-.0281q-.02316-.06281-.04406-.1264a4.51724,4.51724,0,0,1-.12552-.47273q-.02281-.108-.04132-.21684c-.00781-.04556-.01386-.09149-.02187-.137-.01941-.11033.01857.1589.00585.04735-.019-.16634-.03653-.33254-.04877-.49955-.0121-.165-.02082-.33027-.028-.49558-.00181-.04172.00037-.086-.00448-.1273-.01225-.10441-.00787.0344-.018.07206.02862-.10695-.02354.04243-.03661.06628q-.95709.50939-1.17451-.085a.56453.56453,0,0,1-.03428-.42213l.20587-.35325.12755-.1.40405-.1093-.02809.00147a.80055.80055,0,0,0,0,1.6011.87863.87863,0,0,0,.83065-1.13951.93522.93522,0,0,0-1.33268-.57121c-.67478.37295-.55543,1.21272-.49677,1.85682a4.40086,4.40086,0,0,0,1.3046,3.12576.83361.83361,0,0,0,.77889.20588.7947.7947,0,0,0,.55914-.55914,5.98981,5.98981,0,0,0-.62258-4.181.80068.80068,0,1,0-1.3825.8081Z"/><path d="M130.89844,63.482l-2.10154,1.50328a.864.864,0,0,0-.3679.47843.81814.81814,0,0,0,.0807.61687.808.808,0,0,0,.47844.3679.78689.78689,0,0,0,.61687-.0807l2.10153-1.50328a.86405.86405,0,0,0,.3679-.47844.81814.81814,0,0,0-.0807-.61687.80808.80808,0,0,0-.47843-.3679.78693.78693,0,0,0-.61687.08071Z"/><path d="M129.37513,62.85985l-1.01411,2.796a.80494.80494,0,0,0,.55914.98478.8214.8214,0,0,0,.98477-.55914l1.01411-2.796a.80493.80493,0,0,0-.55914-.98477.82139.82139,0,0,0-.98477.55913Z"/><path d="M133.053,60.78665a6.69841,6.69841,0,0,0-3.59229,1.90413.80055.80055,0,0,0,1.13215,1.13215c.10546-.10745.2141-.21153.32722-.31092q.0798-.07011.16211-.13727c.03788-.0309.14966-.10228-.01619.00992.02919-.01975.05657-.04285.085-.06376a5.95322,5.95322,0,0,1,.765-.47818c.1228-.06439.26675-.11.38309-.18379-.0662.042-.13022.05323-.01969.009q.04932-.01973.099-.03856.09933-.03768.2-.07177a5.97183,5.97183,0,0,1,.90031-.22707.80407.80407,0,0,0,.55913-.98478.823.823,0,0,0-.98477-.55913Z"/><path d="M151.15155,123.49112a15.489,15.489,0,0,0-4.38621-3.98644,8.17936,8.17936,0,0,0-5.16665-.951.748.748,0,0,0-.51933.91467.76378.76378,0,0,0,.91466.51932c3.44681-.46426,6.11684,2.07376,8.106,4.555a.74822.74822,0,0,0,1.05154,0,.76135.76135,0,0,0,0-1.05155Z"/><path class="f" d="M146.1833,120.25636c-.52782,1.93614-.57038,3.96813-1.0982,5.90426a.74419.74419,0,0,0,1.434.39534c.52782-1.93614.57037-3.96813,1.0982-5.90427a.74419.74419,0,0,0-1.434-.39533Z"/><path class="f" d="M151.15155,123.49112a4.85346,4.85346,0,0,0-1.85446-1.01726,4.91114,4.91114,0,0,0-1.81042-.24071,1.46678,1.46678,0,0,0-.8887.32524,2.16015,2.16015,0,0,0-.441.54028,7.31152,7.31152,0,0,0-.66116,1.54908,13.98278,13.98278,0,0,0-.41074,1.51287.74374.74374,0,1,0,1.434.39534,13.97986,13.97986,0,0,1,.41074-1.51287q.07393-.22464.15663-.44627c.02724-.07248.05619-.14423.08439-.21633q.04789-.11619-.00931.02088.022-.05076.04481-.10114c.057-.12558.118-.24962.1865-.36937.03077-.05379.06527-.10506.097-.15817.10156-.17-.07153.06055.00775-.01621.03338-.03232.07092-.06941.101-.10476.07584-.0892-.17047.10137-.02265.02613q-.204.078-.10034.045a.65411.65411,0,0,1,.06947-.01287q-.18327.02323-.05837.01033.04962-.00415.09936-.00639a3.469,3.469,0,0,1,.44086.00991c.0359.00291.29534.0388.10507.00855.08434.01341.16845.02735.25219.04417a5.31621,5.31621,0,0,1,.51761.13135q.13065.04023.25907.08725.06444.02364.12821.049-.10763-.0473.01192.00537a4.52817,4.52817,0,0,1,.47976.25405q.11277.0702.21991.14883c-.12839-.09435.07767.07056.09938.09028a.75978.75978,0,0,0,1.05154,0,.75125.75125,0,0,0,0-1.05155Z"/><path class="f" d="M149.00871,121.76a1.73529,1.73529,0,0,0-1.2042-.08918c-.26383.05932-.52033.15195-.789.189l.19767-.02656a1.08654,1.08654,0,0,1-.25332.005l.19767.02656a.63359.63359,0,0,1-.14922-.03871l.17762.075-.03427-.01615-.75058,1.28408a3.43417,3.43417,0,0,0,.56351.22769,1.06383,1.06383,0,0,0,.86966-.11587.79238.79238,0,0,0,.3417-.44437.73582.73582,0,0,0-.075-.573l-.75055-1.07591-1.01732,1.01732,1.30083.90332a.74374.74374,0,0,0,1.09228-.83971.83386.83386,0,0,0-.34171-.44437l-1.30083-.90332-.17762-.075a.56314.56314,0,0,0-.2965-.01328.70659.70659,0,0,0-.42694.2045.885.885,0,0,0-.19122.32811.7445.7445,0,0,0,.075.573l.75054,1.07591.26675-1.01732a.33484.33484,0,0,1-.06444.03832l.17762-.075a.38964.38964,0,0,1-.07211.01729l.19767-.02656a.53916.53916,0,0,1-.105-.00369l.19766.02656a1.197,1.197,0,0,1-.2529-.08023l.17762.075c-.063-.02719-.12528-.056-.18811-.08353a.81163.81163,0,0,0-.573-.075.74374.74374,0,0,0-.17762,1.359,1.73534,1.73534,0,0,0,1.2042.08918c.26383-.05932.52033-.15195.789-.189l-.19767.02656a1.08545,1.08545,0,0,1,.25332-.005l-.19767-.02656a.6331.6331,0,0,1,.14922.03871l-.17762-.075.03427.01615a.79213.79213,0,0,0,.573.075.74374.74374,0,0,0,.17762-1.359Z"/><path d="M115.05112,71.74051a4.03891,4.03891,0,0,1-.88821,1.80794,9.744,9.744,0,0,1-1.44593,1.44769,9.11993,9.11993,0,0,1-3.82555,1.83184.84334.84334,0,1,0,.44827,1.626,10.88053,10.88053,0,0,0,4.56964-2.2655,9.87024,9.87024,0,0,0,1.53257-1.55765,5.3238,5.3238,0,0,0,1.23523-2.44208.87132.87132,0,0,0-.58887-1.03715.84924.84924,0,0,0-1.03715.58888Z"/><polygon class="b" points="150.514 175.757 142.898 178.81 123.365 177.333 99.348 175.466 98.177 173.651 99.348 169.667 87.718 128.863 79.321 115.443 83.087 102.75 100.421 94.324 105.679 88.646 106.019 92.024 105.644 97.895 114.944 113.701 129.588 93.785 129.431 84.28 134.557 88.708 154.133 96.99 155.601 124.358 153.221 132.808 150.514 175.757"/><g class="i"><polygon class="j" points="148.922 120.942 155.115 125.421 153.221 132.145 151.326 158.504 140.727 137.361 148.922 120.942"/></g><path d="M97.8307,108.7124a7.04946,7.04946,0,0,1,3.02989-3.9296,14.31026,14.31026,0,0,1,3.96593-1.34294l-.95215-.38747a16.09831,16.09831,0,0,1,1.3603,4.15852c.16042.9097,1.19309,1.541,1.85158,2.102,1.1989,1.02144,2.414,2.02394,3.59948,3.06108.52344.45794,1.0462.91944,1.54062,1.40889.16491.16325.33054.32811.481.505.12867.15133.02592.07792.084.1065a.97962.97962,0,0,1,.05232.08843q-.25192-.46978.28334-.94293c-.88935.61009-.04692,2.07206.85109,1.456.96678-.6632.216-1.60976-.36644-2.21129-.82908-.8563-1.752-1.627-2.6573-2.40025-1.00772-.86078-2.02937-1.70525-3.03363-2.57008-.32514-.28-.64927-.56149-.95991-.85761a1.5975,1.5975,0,0,0-.13776-.1381c-.1097-.08046-.018-.09483-.03817-.03474-.00458.01366.07995.31357.13368.23579.06355-.092-.0521-.4776-.0706-.58617a16.68808,16.68808,0,0,0-1.51756-4.2322.85648.85648,0,0,0-.95215-.38747,14.37321,14.37321,0,0,0-4.7146,1.7152,9.08709,9.08709,0,0,0-3.459,4.7351c-.37788,1.01884,1.25131,1.45856,1.626.44827Z"/><path d="M105.47218,105.27907a22.71232,22.71232,0,0,0-4.35334.51242,28.05391,28.05391,0,0,0-4.08446,1.32718.8687.8687,0,0,0-.58887,1.03715.84911.84911,0,0,0,1.03715.58887,28.48033,28.48033,0,0,1,3.96216-1.29908,20.23839,20.23839,0,0,1,4.02736-.48028c1.08276-.03145,1.08727-1.71784,0-1.68626Z"/><path d="M102.35548,91.93037c-2.74421,2.42652-4.14138,6.13818-5.0229,9.602a36.24377,36.24377,0,0,0-1.06849,6.3175c-.07713,1.08286,1.60948,1.078,1.68626,0a33.48606,33.48606,0,0,1,.96625-5.70244c.81133-3.25367,2.0521-6.74414,4.63125-9.02471.81458-.72028-.38168-1.9092-1.19237-1.19236Z"/><path class="f" d="M82.13442,122.26991a14.64576,14.64576,0,0,1,5.3571,10.752c.02813.95039,1.50845.9544,1.4802,0a16.08832,16.08832,0,0,0-5.79065-11.79867c-.7245-.60952-1.7768.43239-1.04665,1.04666Z"/><path d="M143.832,117.07425q-11.078,1.534-22.22843,2.4152c-1.07476.08428-1.08384,1.77125,0,1.68626q11.37588-.892,22.67671-2.47543c1.07024-.1482.61471-1.77322-.44828-1.626Z"/><path d="M120.87931,120.23411c-1.12969,2.30174-.92247,4.84911-1.48421,7.29034a.86134.86134,0,0,0,.58888,1.03715.85257.85257,0,0,0,1.03715-.58888c.51988-2.25935.27282-4.76568,1.31422-6.88753a.86487.86487,0,0,0-.30248-1.15356.851.851,0,0,0-1.15356.30248Z"/><path d="M120.49359,129.16934a143.53085,143.53085,0,0,0,21.29443-.56988c1.069-.10959,1.08028-1.797,0-1.68626a143.52945,143.52945,0,0,1-21.29443.56988c-1.08486-.05023-1.08233,1.63614,0,1.68626Z"/><path d="M143.43875,118.23508a23.03711,23.03711,0,0,1-.12744,8.80366c-.2218,1.05879,1.40331,1.51145,1.626.44827a25.24509,25.24509,0,0,0,.12743-9.70021.85056.85056,0,0,0-1.03715-.58887.86173.86173,0,0,0-.58887,1.03715Z"/><path d="M143.99724,126.57815l-2.19731.4692a.84916.84916,0,0,0-.58887,1.03715.863.863,0,0,0,1.03715.58887l2.1973-.4692a.84917.84917,0,0,0,.58888-1.03715.863.863,0,0,0-1.03715-.58887Z"/><path class="f" d="M114.09492,175.7333a15.54987,15.54987,0,0,1,1.03224-4.87452,26.76027,26.76027,0,0,0,1.27091-6.06987c.2642-3.36393.25952-6.76325.2838-10.1353.05934-8.2392-.096-16.47949-.25519-24.71681-.0731-3.78155-.15584-7.563-.20843-11.34494a.84364.84364,0,0,0-1.68626,0c.20835,14.98312.99565,30.04087.24874,45.01782a25.95057,25.95057,0,0,1-1.23313,6.65616,17.50853,17.50853,0,0,0-1.13893,5.46746.84363.84363,0,0,0,1.68625,0Z"/><path d="M110.03769,121.61246a12.1066,12.1066,0,0,1-1.70531,7.69308c-.5241.95107.9316,1.80278,1.456.85108a13.93981,13.93981,0,0,0,1.8753-8.99243.84921.84921,0,0,0-1.03715-.58888.864.864,0,0,0-.58888,1.03715Z"/><path d="M110.16044,120.74067a69.16161,69.16161,0,0,0-18.88,1.90562c-1.05415.25555-.60775,1.882.44827,1.626a67.43,67.43,0,0,1,18.43178-1.84539c1.08526.04066,1.08355-1.64566,0-1.68625Z"/><path d="M91.01641,123.40543a14.831,14.831,0,0,1-.8325,6.00834.85127.85127,0,0,0,.58887,1.03715.86017.86017,0,0,0,1.03715-.58888,16.09168,16.09168,0,0,0,.89274-6.45661.86308.86308,0,0,0-.84313-.84313.85037.85037,0,0,0-.84313.84313Z"/><path d="M109.19157,128.71813c-.07306.016-.3306.05467-.12533.02557-.18054.02559-.36287.04141-.54427.05942-.54074.05368-1.08266.096-1.62443.13762-1.50968.116-3.02068.2152-4.53157.314-3.32443.21734-6.6508.41215-9.97294.66295a21.687,21.687,0,0,0-2.96888.30009c-1.05971.23139-.61126,1.85737.44827,1.626.07347-.01605.33055-.05188.12533-.02558.181-.02319.36268-.04139.54427-.05942.54073-.05368,1.08266-.096,1.62442-.13761,1.50969-.11605,3.02068-.21521,4.53157-.314,3.32444-.21734,6.6508-.41216,9.97295-.663a21.6872,21.6872,0,0,0,2.96888-.30009c1.05971-.23138.61126-1.85737-.44827-1.626Z"/><line class="k" x1="105.99953" y1="106.16572" x2="101.36311" y2="107.00153"/><path d="M104.89588,102.70951a8.39034,8.39034,0,0,0-7.41518,4.22405l.07726.87659,7.2913-1.876.97638.264Z"/><path d="M135.76926,101.61679c-1.5749.0676-3.14269.256-4.70953.42079-.77578.08159-1.55194.1612-2.32965.22228-.363.02852-.72661.05436-1.09047.06961-.0377.00158-.21265-.01616-.23743.00719.13037-.12285.24533.80793.42457.25964.07754-.23716.15914-.47309.23868-.70958l-1.65614-.22414a1.95606,1.95606,0,0,0,.7,1.77321,1.4145,1.4145,0,0,0,1.9398-.374,1.38859,1.38859,0,0,0-.442-1.91653,1.07573,1.07573,0,0,0-1.57939,1.048,1.49284,1.49284,0,0,0,1.48591,1.32347,4.39917,4.39917,0,0,0,1.45677-.162c.52154-.12518,1.0326-.29,1.55337-.41817.18434-.04537.51187-.11483.6042-.12434.09225-.00951.18479-.01266.27748-.01355q.08593.00045.17146.00892-.13491-.01594.00959.01433a.84387.84387,0,0,0,.44827-1.626c-1.31589-.43657-2.788-.07486-4.14123-.13052-1.08511-.04463-1.08306,1.64171,0,1.68626,1.19739.04925,2.59368-.29442,3.693.07029l.44827-1.626a4.94171,4.94171,0,0,0-2.51451.26262c-.40176.1117-.8022.23179-1.21032.31873a2.0458,2.0458,0,0,1-.46067.06758,1.586,1.586,0,0,1-.25633-.005l.06884.00706q-.47965-.18957-.15346.70922h-.85108c-.19486-.08909.09769-.54328.16827-.55889.02017-.00446.35461.06667.3014.12562.01085-.012-.03174-.44047-.03125-.46031a.84723.84723,0,0,0-1.65614-.22414,3.1992,3.1992,0,0,0-.3363,1.59994,1.25,1.25,0,0,0,1.24039.98087,18.475,18.475,0,0,0,2.705-.19174c1.90473-.18781,3.8073-.44233,5.72075-.52446,1.081-.0464,1.08684-1.73291,0-1.68626Z"/><path class="f" d="M77.90064,117.17878c2.59458,3.03487,5.21481,6.04773,7.80938,9.0826a.8504.8504,0,0,0,1.19237,0,.86048.86048,0,0,0,0-1.19237c-2.59458-3.03487-5.21481-6.04773-7.80938-9.0826a.8504.8504,0,0,0-1.19237,0,.86048.86048,0,0,0,0,1.19237Z"/><path class="f" d="M87.94786,129.00023c-1.23989-2.58607-3.08061-4.81284-4.41686-7.33947-.50753-.95966-1.96355-.10854-1.456.85109,1.33624,2.52663,3.177,4.75339,4.41685,7.33947a.8508.8508,0,0,0,1.15356.30247.86132.86132,0,0,0,.30248-1.15356Z"/><polygon class="b" points="170.007 151.081 164.326 157.562 154.02 153.327 134.877 114.2 140.704 104.817 144.979 96.327 155.372 96.144 170.007 151.081"/><path d="M155.1828,124.3782a16.14058,16.14058,0,0,0-4.98939-3.329,8.04792,8.04792,0,0,0-5.18269-.21014.74419.74419,0,0,0,.39534,1.434c3.36493-.98666,6.33162.963,8.7252,3.1567.70446.64563,1.75893-.40323,1.05154-1.05155Z"/><path class="f" d="M149.68938,121.94927c-.22671,1.99393.03941,4.00867-.1873,6.0026a.748.748,0,0,0,.74355.74356.76111.76111,0,0,0,.74356-.74356c.22671-1.99393-.03941-4.00867.1873-6.0026a.748.748,0,0,0-.74355-.74356.76111.76111,0,0,0-.74356.74356Z"/><path class="f" d="M155.03232,124.26194a4.81862,4.81862,0,0,0-2.08339-.69609,4.69019,4.69019,0,0,0-1.82685.09053c-1.07093.30092-1.2859,1.70722-1.43483,2.646a15.89225,15.89225,0,0,0-.18517,1.64947.74842.74842,0,0,0,.74355.74356.76013.76013,0,0,0,.74356-.74356c.00868-.16467.02185-.32907.03751-.49321q.0138-.14466.03032-.289.0095-.08331.01983-.16651c.003-.02443.00665-.04884.00931-.07331.01106-.1016-.02205.1512-.00656.04841a10.66419,10.66419,0,0,1,.28346-1.40972c.02794-.09556.05816-.19052.09245-.284.00818-.02232.05245-.09834.04628-.11947.01747.05985-.07085.14926-.02636.06673.01208-.0224.022-.04608.0337-.0687.01924-.03718.04063-.07291.06156-.1091.00836-.01445.01959-.02766.02733-.0424.03927-.07477.04139.04644-.05971.07484.02106-.00591.03844-.05136.059-.06308.082-.04671-.179.11325-.04659.04153-.07689.04166-.18938.0643-.05427.03138.05092-.01241.10106-.02707.1523-.0383.02052-.0045.16513-.03579.16642-.03109.00122.00443-.15772.01434-.0707.00916.04411-.00263.08856-.00983.13259-.01356a4.84441,4.84441,0,0,1,.79124.00092c.031.00246.062.0051.093.0081.00055,0,.19457.022.08883.00862-.09235-.01168.01333.00224.02683.00454.05249.00894.105.01742.15734.02731a4.7821,4.7821,0,0,1,.46725.11216q.1221.03609.242.07936c.02961.01076.05882.02345.08866.03349.10768.03621-.15258-.07429.02421.01064a3.528,3.528,0,0,1,.4253.23844.74883.74883,0,0,0,1.01733-.26675.76094.76094,0,0,0-.26675-1.01732Z"/><path class="f" d="M152.63988,122.894a2.47244,2.47244,0,0,0-1.68547.36726l.17762-.075a1.80908,1.80908,0,0,1-.43735.13374l.19767-.02656a.76131.76131,0,0,1-.16829.00213l.19766.02656a.60583.60583,0,0,1-.09827-.02227l-.39534,1.434a3.42929,3.42929,0,0,0,.60119.1186,1.04039,1.04039,0,0,0,.81391-.30313.75742.75742,0,0,0,0-1.05155l-.90547-.94922-.90106,1.16781,1.4231.69493a.79445.79445,0,0,0,.57295.075.74374.74374,0,0,0,.17762-1.359l-1.4231-.69493a.74455.74455,0,0,0-.90106,1.16781l.90547.94922v-1.05155a.23676.23676,0,0,1-.03578.033l.15048-.11626a.35679.35679,0,0,1-.06245.03377l.17762-.075a.47526.47526,0,0,1-.07117.01734l.19766-.02656a.70776.70776,0,0,1-.16039-.00339l.19767.02656a3.40081,3.40081,0,0,1-.36185-.08744.74374.74374,0,0,0-.39534,1.434,2.47242,2.47242,0,0,0,1.68547-.36726l-.17762.075a1.8089,1.8089,0,0,1,.43735-.13374l-.19767.02656a.7614.7614,0,0,1,.1683-.00213l-.19767-.02656a.606.606,0,0,1,.09828.02227.75009.75009,0,0,0,.91466-.51933.75981.75981,0,0,0-.51933-.91466Z"/><path d="M105.56944,57.91509c.73243,1.02582.31715,2.64489.02886,3.763a36.95325,36.95325,0,0,1-1.36967,4.0082.65357.65357,0,0,0,.453.79776.66324.66324,0,0,0,.79776-.453,32.996,32.996,0,0,0,1.469-4.41491c.31323-1.36354.61319-3.13429-.25894-4.35577a.66672.66672,0,0,0-.8873-.23266.6538.6538,0,0,0-.23266.8873Z"/><path d="M104.76757,64.37229a2.52348,2.52348,0,0,0-.57432,2.39741,2.75814,2.75814,0,0,0,1.85724,2.02619,4.86176,4.86176,0,0,0,4.90252-.4798,3.89821,3.89821,0,0,0,1.28549-1.1933,1.9319,1.9319,0,0,0,.13628-1.73564c-.23783-.58587-.66753-1.0183-1.35075-.80508-.79419.24784-.45518,1.50036.34481,1.2507q.29253-.06612-.25574-.12526-.05423-.07474.01149.03323c-.00907-.06671.07628.19473.06481.158a.602.602,0,0,1-.01424.46276,2.33824,2.33824,0,0,1-.97552.89889,3.244,3.244,0,0,1-2.768.56557,4.08721,4.08721,0,0,1-1.20271-.363,1.34707,1.34707,0,0,1-.69083-.66979,2.19276,2.19276,0,0,1-.11716-.85167,1.21737,1.21737,0,0,1,.09091-.43952.67335.67335,0,0,1,.1729-.21253.65328.65328,0,0,0,0-.91714.663.663,0,0,0-.91714,0Z"/><path d="M91.17435,130.75327a14.24832,14.24832,0,0,1,.26722,4.80686c-.07928.735-.17221,1.468-.21882,2.20614a7.7251,7.7251,0,0,0,.03075,2.54051,3.13027,3.13027,0,0,0,1.01847,1.36636,4.22706,4.22706,0,0,0,2.26313.57734c1.94846.27968,3.89456.5426,5.8539.738a38.25145,38.25145,0,0,0,6.617.19452,2.685,2.685,0,0,0,2.65713-1.87516,49.10767,49.10767,0,0,0,.95532-7.97619,64.75647,64.75647,0,0,1,1.06571-9.10374c.21921-.9391-1.22673-1.33993-1.44642-.39876-1.1207,4.801-1.02668,9.87723-1.64057,14.75582-.09954.7911-.07243,2.17049-.65607,2.757-.51987.52241-1.53093.3857-2.2201.4028-1.04249.02586-2.08535-.00634-3.12586-.07192-1.97466-.12445-3.95438-.33822-5.9139-.61134-.73507-.10245-1.46792-.22019-2.20311-.32179-.66372-.09173-1.52367-.06937-1.783-.85462a7.82035,7.82035,0,0,1,.06788-2.65231c.05747-.67178.14883-1.33995.21386-2.01094a15.061,15.061,0,0,0-.35608-4.86733c-.21475-.94072-1.66131-.54257-1.44641.39876Z"/><path d="M122.19277,128.4986q.06909,2.89746.1497,5.79463.06418,2.329.13794,4.65778c.04333,1.33774-.21831,3.11222.66077,4.20761.60416.75283,1.65947-.31449,1.06066-1.06066-.30864-.38459-.16032-1.35188-.177-1.82664q-.03541-1.008-.06659-2.01615-.07031-2.24355-.13017-4.48742-.0717-2.63447-.13531-5.26915a.75046.75046,0,0,0-1.5,0Z"/><path d="M139.45156,145.30208c1.22739-.2096,2.68083-.71143,3.06528-2.03874a34.4448,34.4448,0,0,0,.83474-4.95872,100.78586,100.78586,0,0,1,1.593-10.71408c.23112-.93718-1.215-1.337-1.44642-.39876a86.4666,86.4666,0,0,0-1.46081,9.69877c-.20859,1.62331-.42025,3.24971-.72872,4.85767-.11839.6171-.13229,1.23446-.684,1.61511a4.09711,4.09711,0,0,1-1.57182.49233c-.94959.16215-.547,1.60791.39876,1.44642Z"/><path d="M144.72438,144.606l3.89918-.86281,2.04774-.45313a2.28571,2.28571,0,0,0,1.13832-.80486l1.63469-1.6616c.76174-.77428-.42977-1.96752-1.19236-1.19237l-2.161,2.19653.37205-.21683-6.18694,1.369c-1.05908.23436-.61089,1.8604.44828,1.626Z"/><path d="M147.26654,155.6611a6.266,6.266,0,0,1,.75907-.16008c.17485-.029.35016-.05509.52562-.08l.14935-.02088c.02358-.00325.16336-.02241.04107-.00576-.13421.01828.04806-.00627.07545-.00987l.1595-.02072c.85784-.11055,1.71717-.20948,2.5734-.33228a.84541.84541,0,0,0,.58888-1.03715.86984.86984,0,0,0-1.03715-.58888c-.0989.01419-.20021.02311-.29835.04177.056-.01064.14772-.01952.03825-.00516l-.1582.02074q-.29311.0381-.58646.07439c-.41609.05189-.83234.10257-1.24813.15689a13.16275,13.16275,0,0,0-2.03057.341.84334.84334,0,0,0,.44827,1.626Z"/><polygon points="105.533 105.314 103.095 104.435 100.501 104.851 99.203 105.825 97.888 107.387 98.872 108.12 106.249 105.472 106.249 105.472 105.533 105.314"/><path d="M83.826,110.05584a32.22178,32.22178,0,0,0,5.75207-.99879,29.19746,29.19746,0,0,1,9.29351-.18727c.9546.12341.94557-1.37776,0-1.5a30.34366,30.34366,0,0,0-9.3657.17973,33.77676,33.77676,0,0,1-5.67988,1.00633.75045.75045,0,0,0,0,1.5Z"/><path d="M84.30815,109.43877c1.06943-2.87686,2.25531-5.71431,3.39384-8.56443l-.34922.34922,6.096-2.13465a2.51191,2.51191,0,0,0,.43043-.15072c.231-.136-.08009-.031-.0866-.03533a4.64181,4.64181,0,0,0,1.40712.25295l3.152.5666c.62925.11312.89923-.85042.26583-.96428-1.45954-.26237-2.91756-.5356-4.379-.78718a1.69449,1.69449,0,0,0-.978.12651l-2.36959.82976-2.63287.922a5.61534,5.61534,0,0,0-1.29058.46051c-.31769.22117-.45206.85548-.58667,1.19285q-.48114,1.20584-.96137,2.412c-.69662,1.74987-1.41926,3.4928-2.07558,5.25835-.22453.604.74165.86474.96428.26584Z"/><path d="M87.43,102.60262a1.94,1.94,0,0,0-.498,1.57173,2.82163,2.82163,0,0,0,.63105,1.61552.75.75,0,0,0,1.28033-.53033.83663.83663,0,0,0-.21967-.53033c-.01455-.017-.02864-.03414-.04249-.05169l.11728.15179a1.67336,1.67336,0,0,1-.20435-.36228l.0756.17916a2.41551,2.41551,0,0,1-.15365-.57568l.02679.19938a2.1113,2.1113,0,0,1-.00524-.53432l-.0268.19938a1.36027,1.36027,0,0,1,.08649-.32985l-.07561.17916a.92724.92724,0,0,1,.11276-.19338l-.11728.15179a.84492.84492,0,0,1,.07346-.07939.75688.75688,0,0,0,0-1.06066.76522.76522,0,0,0-1.06066,0Z"/><path d="M138.54671,99.86689c2.17489.5505,4.40325.89306,6.61859,1.23435,1.57523.24267,3.21044.37552,4.76.75865.93708.23169,1.33687-1.21447.39876-1.44642-1.54951-.38313-3.18472-.516-4.75995-.75865-2.21534-.34129-4.44371-.68385-6.61859-1.23434a.75064.75064,0,0,0-.39876,1.44641Z"/><path d="M136.33147,91.78541c2.716.73932,5.40385,1.59729,8.08413,2.45526a62.33154,62.33154,0,0,1,7.95812,2.80861c.86641.41509,1.62823-.87784.75708-1.2952a63.8979,63.8979,0,0,0-8.12549-2.89864c-2.74322-.88018-5.49466-1.7596-8.27508-2.51645a.75064.75064,0,0,0-.39876,1.44642Z"/><path d="M138.22561,97.37168h10.28017a.75045.75045,0,0,0,0-1.5H138.22561a.75045.75045,0,0,0,0,1.5Z"/><ellipse class="l" cx="146.41818" cy="111.20399" rx="1.90382" ry="1.01951" transform="translate(-37.39669 115.29097) rotate(-38.49024)"/><ellipse class="l" cx="146.04204" cy="113.82255" rx="1.90382" ry="1.01951" transform="translate(-39.10817 115.62585) rotate(-38.49024)"/><ellipse class="l" cx="145.56532" cy="116.60771" rx="1.90382" ry="1.01951" transform="translate(-40.94518 115.93432) rotate(-38.49024)"/><ellipse class="l" cx="145.01848" cy="119.65778" rx="1.90382" ry="1.01951" transform="translate(-42.96231 116.25672) rotate(-38.49024)"/><ellipse class="l" cx="144.23681" cy="122.59821" rx="1.90382" ry="1.01951" transform="translate(-44.96222 116.40913) rotate(-38.49024)"/><ellipse class="l" cx="143.65034" cy="125.42436" rx="1.90382" ry="1.01951" transform="translate(-46.8486 116.65821) rotate(-38.49024)"/><ellipse class="l" cx="143.32221" cy="128.47944" rx="1.90382" ry="1.01951" transform="translate(-48.82132 117.11781) rotate(-38.49024)"/><ellipse class="l" cx="142.791" cy="131.53589" rx="1.90382" ry="1.01951" transform="translate(-50.83902 117.45132) rotate(-38.49024)"/><ellipse class="l" cx="142.70291" cy="134.84247" rx="1.90382" ry="1.01951" transform="translate(-52.91612 118.11496) rotate(-38.49024)"/><ellipse class="l" cx="142.51661" cy="137.82372" rx="1.90382" ry="1.01951" transform="translate(-54.81207 118.6468) rotate(-38.49024)"/><ellipse class="l" cx="142.51961" cy="141.03179" rx="1.90382" ry="1.01951" transform="translate(-56.80806 119.34574) rotate(-38.49024)"/><path class="l" d="M144.19144,143.07911c.137.58826-.46844,1.49135-1.35237,2.01711s-1.71159.4751-1.84863-.11316.994-1.74314,1.87789-2.2689S144.0544,142.49085,144.19144,143.07911Z"/><ellipse class="l" cx="143.26092" cy="146.78278" rx="1.90382" ry="1.01951" transform="translate(-60.22629 121.05672) rotate(-38.49024)"/><ellipse class="l" cx="143.95392" cy="149.52491" rx="1.90382" ry="1.01951" transform="translate(-61.78237 122.08386) rotate(-38.49024)"/><ellipse class="l" cx="144.64597" cy="151.80296" rx="1.90382" ry="1.01951" transform="translate(-63.04981 123.00956) rotate(-38.49024)"/><path class="m" d="M145.83963,109.77342l2.65045-9.84039,1.06865.35107a.98721.98721,0,0,1,.36033,1.08652l-2.69452,7.76549Z"/><path class="n" d="M119.49631,129.07148s1.79394,27.22064,12.391,27.46943,11.36035-10.059,11.36035-10.059"/><path class="n" d="M148.12206,99.87171s5.23772-3.29265,5.44333-3.27634"/><path class="n" d="M148.12206,99.87171s1.89542-4.14579,3.9662-4.14579"/><path d="M145.28158,113.8618a1.85606,1.85606,0,0,1,.11853.22921l-.0756-.17916a1.23311,1.23311,0,0,1,.08169.29337l-.02679-.19938a.961.961,0,0,1,.00126.227l.02679-.19938a.915.915,0,0,1-.05958.22175l.0756-.17916a1.07685,1.07685,0,0,1-.13335.22625l.11727-.15179a1.58416,1.58416,0,0,1-.27176.26714l.15179-.11727a3.401,3.401,0,0,1-.75944.42082l.17916-.07561c-.21089.08871-.42971.1628-.63564.26265a.75734.75734,0,0,0-.34467.44823.7665.7665,0,0,0,.0756.57792.75705.75705,0,0,0,.44822.34467.83729.83729,0,0,0,.57792-.07561c.02015-.00977.04062-.01877.06121-.02754l-.17916.07561a8.07657,8.07657,0,0,0,1.1182-.50758,2.4555,2.4555,0,0,0,.61138-.498,1.87709,1.87709,0,0,0,.26437-.38082,1.78441,1.78441,0,0,0,.17609-.63225,1.88261,1.88261,0,0,0-.30388-1.12814.75012.75012,0,0,0-1.29521.75708Z"/><path d="M146.33588,110.64228q.031.063.05917.12726l-.07561-.17915a1.87814,1.87814,0,0,1,.12831.44178l-.02679-.19938a1.39841,1.39841,0,0,1,.00279.364l.02679-.19938a1.31028,1.31028,0,0,1-.08961.32l.0756-.17916a1.88516,1.88516,0,0,1-.14843.26c-.06079.094.13984-.17.05425-.06973-.01743.02043-.03445.04115-.05238.06115q-.04608.0514-.09582.09938-.05366.05193-.11076.10012c-.02038.01727-.04138.03375-.06193.05081-.08079.06706.169-.12576.07954-.06186-.07861.05617-.15773.11088-.2401.16147-.244.14985-.51188.25317-.75732.3986a.75012.75012,0,0,0,.75708,1.2952c.31017-.18378.64553-.31044.94247-.52031a3.18355,3.18355,0,0,0,.75282-.72078,2.02561,2.02561,0,0,0,.3678-.9955,2.39363,2.39363,0,0,0-.29266-1.31154.75443.75443,0,0,0-1.02614-.26906.769.769,0,0,0-.26907,1.02614Z"/><path d="M145.48837,116.85524c.02963.05579.05718.1123.08247.1702l-.0756-.17916a1.59745,1.59745,0,0,1,.11138.39149l-.02679-.19938a1.213,1.213,0,0,1,.00043.30169l.02679-.19938a1.15056,1.15056,0,0,1-.07377.26868l.0756-.17916a1.33532,1.33532,0,0,1-.17153.288l.11728-.15179a1.95215,1.95215,0,0,1-.335.32506l.1518-.11728a3.70915,3.70915,0,0,1-.64484.38376c-.1526.07346-.31323.1338-.46169.21547a.75725.75725,0,0,0-.26906,1.02614.76547.76547,0,0,0,1.02614.26907c.31038-.17074.64335-.28618.94176-.48235a2.25818,2.25818,0,0,0,1.10318-1.54656,2.20527,2.20527,0,0,0-.28329-1.34161.75629.75629,0,0,0-1.02615-.26906.76655.76655,0,0,0-.26906,1.02614Z"/><path d="M144.76309,120.34989a1.6307,1.6307,0,0,1,.13186.2429l-.07561-.17916a1.06163,1.06163,0,0,1,.07189.25806l-.0268-.19938a.83046.83046,0,0,1,0,.20047l.02679-.19938a.80187.80187,0,0,1-.05511.19662l.07561-.17916a.95853.95853,0,0,1-.11271.189l.11727-.15179a1.41214,1.41214,0,0,1-.24727.2423l.15179-.11727a2.99426,2.99426,0,0,1-.65891.36563l.17916-.07561c-.25814.10844-.52523.19263-.7808.30756a.75206.75206,0,0,0-.34467.44823.76651.76651,0,0,0,.07561.57792.757.757,0,0,0,.44822.34467l.19938.02679a.74658.74658,0,0,0,.37854-.1024l.0196-.00861-.17916.07561c.36929-.15553.753-.27118,1.10707-.46359a1.94922,1.94922,0,0,0,1.0728-1.27717,1.64221,1.64221,0,0,0-.02065-.70657,1.96668,1.96668,0,0,0-.25865-.57278.7915.7915,0,0,0-.44823-.34467.75018.75018,0,0,0-.847,1.10175Z"/><path d="M144.0432,123.00531a1.45186,1.45186,0,0,1,.14324.25174l-.07561-.17916a.91994.91994,0,0,1,.06356.2284l-.02679-.19938a.723.723,0,0,1-.00113.178l.02679-.19938a.70786.70786,0,0,1-.04559.16242l.07561-.17915a.8441.8441,0,0,1-.10073.17069l.11728-.15179a1.263,1.263,0,0,1-.22544.22043l.15179-.11727a2.67144,2.67144,0,0,1-.57624.32041l.17916-.07561c-.2369.09994-.48647.1658-.72319.26479a.83909.83909,0,0,0-.44822.34467.74995.74995,0,0,0,.26906,1.02614.72207.72207,0,0,0,.57792.07561c.12571-.05257.25795-.09033.38639-.13556a6.47288,6.47288,0,0,0,.707-.2919,1.89017,1.89017,0,0,0,1.09945-1.221,1.632,1.632,0,0,0-.27909-1.25023.80417.80417,0,0,0-.44822-.34467.7665.7665,0,0,0-.57792.0756.757.757,0,0,0-.34467.44823.74231.74231,0,0,0,.07561.57792Z"/><path d="M143.58355,125.52592a1.54677,1.54677,0,0,1,.13849.25153l-.0756-.17916a1.01445,1.01445,0,0,1,.0649.22929l-.02679-.19938a.78345.78345,0,0,1,.0004.20806l.02679-.19938a.76665.76665,0,0,1-.049.17409l.0756-.17916a.90686.90686,0,0,1-.10733.1824l.11727-.15179a1.345,1.345,0,0,1-.23844.23443l.1518-.11727a2.8608,2.8608,0,0,1-.6302.34988l.17916-.07561c-.273.11457-.5558.2015-.82729.32012a.75013.75013,0,0,0-.34467.44822.7665.7665,0,0,0,.0756.57792.757.757,0,0,0,.44823.34467l.19938.02679a.74648.74648,0,0,0,.37854-.1024l.01256-.00542-.17916.0756c.36713-.15328.74786-.26366,1.10256-.44929a2.58919,2.58919,0,0,0,.64007-.46095,1.55092,1.55092,0,0,0,.44176-.79347,1.60117,1.60117,0,0,0-.02179-.71,1.92256,1.92256,0,0,0-.25761-.55685.79633.79633,0,0,0-.44822-.34467.7665.7665,0,0,0-.57792.07561.75.75,0,0,0-.26907,1.02614Z"/><path d="M143.05092,128.73a1.32378,1.32378,0,0,1,.15337.26164l-.0756-.17916a.83407.83407,0,0,1,.05424.19279l-.02679-.19938a.6564.6564,0,0,1,.00088.16291l.02679-.19938a.64124.64124,0,0,1-.04044.1491l.0756-.17916a.76813.76813,0,0,1-.0999.16788l.11727-.15179a1.17354,1.17354,0,0,1-.20028.19381l.1518-.11728a2.4596,2.4596,0,0,1-.53082.29519l.17916-.07561c-.26078.10992-.53562.17722-.798.281a.8178.8178,0,0,0-.44822.34467.75.75,0,0,0,.26906,1.02615.72918.72918,0,0,0,.57792.0756c.12327-.04877.25236-.08357.37811-.12527a6.61319,6.61319,0,0,0,.71873-.2846,1.81254,1.81254,0,0,0,1.09454-1.188,1.43505,1.43505,0,0,0-.02088-.67627,1.719,1.719,0,0,0-.26135-.53193.81543.81543,0,0,0-.44822-.34467.76645.76645,0,0,0-.57792.07561.757.757,0,0,0-.34467.44822.732.732,0,0,0,.07561.57792Z"/><path d="M143.31405,131.221c.03343.06034.06416.12156.09195.1847l-.0756-.17916a1.47149,1.47149,0,0,1,.104.36345l-.02679-.19938a1.12023,1.12023,0,0,1,.00014.28089l.02679-.19938a1.06834,1.06834,0,0,1-.06973.25091l.07561-.17916a1.24446,1.24446,0,0,1-.15026.25437l.11728-.15179a1.806,1.806,0,0,1-.3154.30993l.15179-.11728a3.53393,3.53393,0,0,1-.66607.39066c-.15937.07426-.32709.13411-.48264.2162a.75613.75613,0,0,0-.26906,1.02615.76674.76674,0,0,0,1.02614.26906c.307-.162.63524-.27068.93172-.45625a2.18738,2.18738,0,0,0,1.11043-1.51373,2.09688,2.09688,0,0,0-.28512-1.30726.75745.75745,0,0,0-1.02614-.26907.76525.76525,0,0,0-.26906,1.02614Z"/><path d="M143.125,135.04434a1.73746,1.73746,0,0,1,.12572.23756l-.0756-.17916a1.14245,1.14245,0,0,1,.07647.27579l-.02679-.19938a.893.893,0,0,1,.00016.21378l.02679-.19938a.85762.85762,0,0,1-.058.20919l.0756-.17916a1.01769,1.01769,0,0,1-.11843.20055l.11727-.15179a1.48484,1.48484,0,0,1-.2588.25594l.15179-.11727a3.17248,3.17248,0,0,1-.71074.39512l.17916-.07561c-.23559.099-.47938.17859-.7111.28684a.75461.75461,0,0,0-.34467.44823.76647.76647,0,0,0,.07561.57792.757.757,0,0,0,.44822.34467.84944.84944,0,0,0,.57792-.07561l.043-.019-.17916.07561a9.21284,9.21284,0,0,0,1.11661-.48762,2.49358,2.49358,0,0,0,.61884-.48288,1.76129,1.76129,0,0,0,.27241-.38039,1.70708,1.70708,0,0,0,.17763-.62536,1.80479,1.80479,0,0,0-.30476-1.10567.78554.78554,0,0,0-.44822-.34467.75018.75018,0,0,0-.847,1.10175Z"/><path d="M142.73115,137.70234a1.82155,1.82155,0,0,1,.11765.223l-.0756-.17916a1.20464,1.20464,0,0,1,.08225.28569l-.02679-.19938a.92218.92218,0,0,1,.00082.2388l.02679-.19937a.892.892,0,0,1-.05431.19891l.07561-.17916a1.04037,1.04037,0,0,1-.129.22114l.11728-.15179a1.53529,1.53529,0,0,1-.26522.26167l.15179-.11728a3.28363,3.28363,0,0,1-.7352.40825l.17916-.0756c-.2233.09387-.45467.17084-.67351.27507a.756.756,0,0,0-.34467.44822.7665.7665,0,0,0,.0756.57792.757.757,0,0,0,.44823.34467.843.843,0,0,0,.57791-.07561c.0171-.00814.03441-.01573.05184-.02312l-.17916.07561a8.669,8.669,0,0,0,1.11363-.49543,2.48906,2.48906,0,0,0,.61629-.48969,1.77218,1.77218,0,0,0,.27307-.388,1.75345,1.75345,0,0,0,.175-.62512,1.84251,1.84251,0,0,0-.30425-1.1173.75012.75012,0,1,0-1.29521.75708Z"/><path d="M142.56174,141.12833a1.46565,1.46565,0,0,1,.14365.2554l-.0756-.17916a.95079.95079,0,0,1,.06113.21584l-.0268-.19938a.74357.74357,0,0,1,.00211.18184l.02679-.19938a.71615.71615,0,0,1-.0487.179l.0756-.17916a.86023.86023,0,0,1-.10237.17287l.11727-.15179a1.28346,1.28346,0,0,1-.22817.22305l.15179-.11727a2.7281,2.7281,0,0,1-.5953.32985l.17916-.07561c-.28905.12121-.58912.21083-.87791.33287a.74834.74834,0,0,0-.34467.44823.76655.76655,0,0,0,.07561.57792.75705.75705,0,0,0,.44822.34467l.19938.02679a.74658.74658,0,0,0,.37854-.1024l.006-.00252-.17916.0756c.12722-.05252.26022-.09155.38977-.13785a6.30522,6.30522,0,0,0,.711-.29755,2.58,2.58,0,0,0,.64725-.45367,1.50868,1.50868,0,0,0,.44116-.77984,1.53669,1.53669,0,0,0-.02027-.69215,1.83928,1.83928,0,0,0-.26027-.55327.80225.80225,0,0,0-.44822-.34467.76645.76645,0,0,0-.57792.07561.757.757,0,0,0-.34467.44822.74439.74439,0,0,0,.07561.57792Z"/><path d="M138.00115,109.28772c.80139-.30242,1.62724-.514,2.44715-.7574a10.95237,10.95237,0,0,0,2.44985-1.04523.75012.75012,0,0,0-.75708-1.29521c-.20215.119-.40721.23246-.61731.33686q-.13715.06815-.2766.13146-.06758.03066-.13566.06016c-.11425.04947.09188-.03655-.02156.00843-.36237.14368-.73111.26651-1.10511.3762-.79908.23435-1.60222.44388-2.38244.73831a.76709.76709,0,0,0-.52383.92259.75861.75861,0,0,0,.92259.52383Z"/><polygon class="o" points="141.989 92.867 149.273 94.597 154.423 97.081 152.379 94.632 145.075 92.016 141.06 92.588 141.989 92.867"/><path class="p" d="M124.44189,118.78327l-.54785.05762.16114-.76721.20605-.02161a1.157,1.157,0,0,0,.46973-.13269.6475.6475,0,0,0,.25-.27539,1.03646,1.03646,0,0,0,.08886-.43128q.00586-.25707-.00293-.7865l-.00585-.05786a.60194.60194,0,0,0-.083-.271.37613.37613,0,0,0-.17285-.14624.77931.77931,0,0,0-.35254-.01966l-1.4668.15406-.2207-2.09546.93652-.09839.14258,1.35327.66015-.06934a1.52369,1.52369,0,0,1,1.043.18055,1.1044,1.1044,0,0,1,.42481.843l.01172.1659.01269.79577a1.57635,1.57635,0,0,1-.37207,1.14222A1.84875,1.84875,0,0,1,124.44189,118.78327Z"/><path class="p" d="M127.53271,114.15729l-.18261,1.32007-.79785.08374.41211-1.34411Zm1.20606-.12683-.19238,1.32117-.78809.08276.415-1.34448Z"/><path class="p" d="M133.19385,117.86335l-.93555.09839-.207-1.97339a.96528.96528,0,0,0-.27051-.6178.8329.8329,0,0,0-.68945-.16956,4.56892,4.56892,0,0,0-.53223.09c-.18652.04187-.49609.12769-.9248.25684l-.00586-.76722a7.10254,7.10254,0,0,1,1.58594-.35986,1.45242,1.45242,0,0,1,1.76855,1.43433Zm-2.28711.24035-.93848.09876-.21387-2.04028.89063-.55384Z"/><path class="p" d="M133.83838,117.028l1.77344-.1864-2.06836-2.27307.8125-.51331,1.32129,1.45813a1.13532,1.13532,0,0,0,.11816-.34814,1.90257,1.90257,0,0,0-.00293-.48438l-.07227-.68408.92188-.09692.0791.75342a1.5677,1.5677,0,0,1-.08105.71948,2.24036,2.24036,0,0,1-.48926.709l.65234.74329-.083.6676-2.97656.31287Z"/><polygon class="o" points="132.753 103.18 135.769 102.998 140.037 104.987 139.252 98.825 145.69 100.325 143.105 107.336 140.758 116.33 136.844 114.937 134.536 113.087 132.48 110.242 132.102 106.454 132.753 103.18"/><path d="M147.26384,101.03124c-2.45672,3.83808-4.11831,6.54824-4.02009,11.10419a17.68117,17.68117,0,0,1-.02869,3.64474c-.23343.77421-3.10631,1.12288-3.16-.0287-.2251-4.82418,1.65272-12.45944,4.932-16.00481"/><polygon class="j" points="87.82 129.483 90.965 134.338 66.383 162.677 63.131 155.626 62.867 153.428 67.185 159.062 61.579 142.874 70.289 154.085 71.295 142.39 75.982 148.744 85.639 137.057 87.82 129.483"/><path class="f" d="M85.42039,125.69686c1.1804,3.37223,2.23448,6.78762,3.41488,10.15985l1.541-.64968c-2.73855-4.7753-4.92855-9.85258-7.6671-14.62788a.84376.84376,0,0,0-1.456.85109c2.73855,4.7753,4.92855,9.85258,7.6671,14.62788.4634.80805,1.8637.27214,1.541-.64968-1.18041-3.37223-2.23449-6.78762-3.41489-10.15985-.35621-1.01764-1.98588-.57978-1.626.44827Z"/><path d="M59.3197,142.723a48.93115,48.93115,0,0,1,4.63072,4.35375,16.398,16.398,0,0,1,3.64752,5.08115c.22289.59761,1.18984.33894.96428-.26584a17.10692,17.10692,0,0,0-3.71234-5.31536,48.58222,48.58222,0,0,0-4.82308-4.5608c-.49315-.4059-1.20456.29767-.7071.7071Z"/><path class="q" d="M69.70738,140.02576s4.27632,7.85417,4.58172,12.572"/><path class="q" d="M62.56648,153.27074a26.25528,26.25528,0,0,1,4.47569,7.92767"/><path d="M138.80732,104.93105a24.043,24.043,0,0,0,3.70331-1.95114c1.17339-.70949,2.32287-1.45832,3.50069-2.1604a.75056.75056,0,0,0-.75708-1.29521c-1.14825.68446-2.26939,1.4137-3.41236,2.10692-.6292.3816-1.263.75645-1.909,1.10894-.27545.15029-.55318.29655-.83487.43484-.133.0653-.26685.129-.402.18986-.00213.001-.22278.09654-.09418.04283-.064.02673-.12861.05193-.19329.07694a.772.772,0,0,0-.52383.92259.75558.75558,0,0,0,.92259.52383Z"/><path d="M133.96106,89.30437c3.33137,4.12589,4.24939,10.21858,4.731,15.34231l1.43931-.59618c-3.43351-3.33824-8.43576-2.94572-12.77729-4.03252a.85687.85687,0,0,0-.95215.38746A19.979,19.979,0,0,0,124.852,107.966l1.06727-.813c-4.0712-.81711-7.67531,3.62934-10.51564,5.86665-.8519.671.34867,1.85694,1.19237,1.19237,1.428-1.1248,2.739-2.39191,4.19272-3.4852,1.25257-.942,3.01151-2.28313,4.68227-1.9478a.858.858,0,0,0,1.06727-.813,17.83788,17.83788,0,0,1,1.31966-6.70948l-.95216.38747c3.963.99206,8.90418.55666,12.0332,3.59886.48392.4705,1.51073.16369,1.43931-.59618-.52944-5.63313-1.57078-12.00913-5.22484-16.53467-.68184-.84445-1.86834.35517-1.19237,1.19236Z"/><path class="r" d="M134.73278,138.20257s16.42885-2.35369,24.25933,5.51344"/><polyline class="a" points="90.839 150.325 90.579 152.901 89.397 159.868 89.622 161.12 91.833 162.357 93.629 161.984 94.147 163.315 95.901 163.722 97.668 164.408 100.018 163.686 101.497 164.663 104.678 164.157 107.326 159.833 110.147 159.085 111.518 157.495 112.228 155.144 120.824 155.34 127.688 155.798 131.682 150.246 128.934 143.098 124.034 139.642 118.149 140.187 104.658 144.351 94.989 144.75 92.236 145.59"/><path class="f" d="M98.11312,153.468c-.31057,1.04652-.89843,1.97939-1.23695,3.01559a5.98877,5.98877,0,0,0-.26737,1.51726c-.002.03454-.008.06876-.01019.10324-.01062.16312.02787-.17265-.00067-.00094-.02347.14123-.04639.28248-.07213.42334-.13178.721-.29113,1.438-.47121,2.14844-.07978.31473-.16335.629-.261.93873q-.061.19349-.13208.38322c-.05732.15386.07794-.14372.00271-.01228-.0179.03126-.03428.06262-.05429.09275-.58524.88084.83339,1.70233,1.41492.827a5.57231,5.57231,0,0,0,.57395-1.65368q.284-1.09474.49234-2.20859a18.99709,18.99709,0,0,1,.32343-1.99028c.32622-1.08755.95471-2.05648,1.2787-3.14823a.82.82,0,0,0-1.58011-.43562Z"/><path class="f" d="M93.86211,161.77542c.41192-1.37026.67854-2.79346.96978-4.1927.35434-1.70244.69643-3.40993.97112-5.12729a.84475.84475,0,0,0-.57225-1.00786.82573.82573,0,0,0-1.00787.57225c-.27468,1.71735-.61677,3.42485-.97112,5.12728-.29123,1.39925-.55785,2.82245-.96977,4.19271a.82.82,0,0,0,1.58011.43561Z"/><path class="f" d="M101.13254,163.01035a8.39737,8.39737,0,0,0,.62818-1.41114c.21453-.565.40867-1.13953.57045-1.722a15.49871,15.49871,0,0,1,.58284-1.81748,8.6103,8.6103,0,0,0,.6485-2.1953.82328.82328,0,0,0-.81932-.81932.8405.8405,0,0,0-.81933.81932,7.50523,7.50523,0,0,1-.61062,1.80964,15.19992,15.19992,0,0,0-.56219,1.76752c-.14944.53806-.32714,1.069-.52168,1.59231q-.07862.21147-.1622.42107c-.021.05249-.0421.105-.06392.15713.04244-.10146-.00759.017-.02615.05837a4.51838,4.51838,0,0,1-.25948.51281c-.55174.90205.86493,1.72625,1.41492.82706Z"/><path class="f" d="M96.9887,146.27933a10.00052,10.00052,0,0,1,1.02413.22119c.15891.04517.313.11849.4719.15958-.20761-.0537-.10079-.0438-.032-.01217q.06019.02766.11923.05777.107.05466.20926.118c.064.03978.263.21011.06363.03311.059.05242.12021.10113.17628.157q.04578.04566.08849.09416a.45756.45756,0,1,0-.03225-.048c.04192.08262.1079.15671.15248.23932a.87279.87279,0,0,1,.07078.1445c.00626-.00533-.074-.18872-.012-.02161.03441.0928.06467.187.09325.28178.06264.20763.11777.41734.18634.62317a.81953.81953,0,1,0,1.58011-.43562,8.67642,8.67642,0,0,0-.50355-1.41927,2.91158,2.91158,0,0,0-.96369-1.01652,5.79371,5.79371,0,0,0-2.25678-.75652.886.886,0,0,0-.63133.08259.81945.81945,0,0,0,.19572,1.49752Z"/><path class="f" d="M102.62666,147.8699c.29082.20406.58132.40868.86613.62109.06795.05069.13447.10345.20288.15349-.06027-.04408-.12125-.09436-.02536-.01888q.04989.03927.09944.079.20739.16639.40716.342a7.80919,7.80919,0,0,1,.72792.727c.05466.06288.107.12756.16.19178.10993.13308-.08034-.11033-.021-.0277.02429.03381.04974.0668.074.10064a5.425,5.425,0,0,1,.29753.46449.81946.81946,0,0,0,1.41493-.82705,10.69743,10.69743,0,0,0-3.3766-3.22076.82345.82345,0,0,0-1.121.29393.84072.84072,0,0,0,.29393,1.121Z"/><path class="f" d="M106.89339,151.30837l.04212,3.83784a.82052.82052,0,0,0,.71042.80469.80742.80742,0,0,0,.899-.58688c.08851-.64958.17928-1.29891.26492-1.94887a4.712,4.712,0,0,0-.05188-1.911,3.43218,3.43218,0,0,0-2.2292-2.29064.82538.82538,0,0,0-1.00787.57224.83854.83854,0,0,0,.57225,1.00787q.07076.02244.13994.04933-.12246-.05277.00745.00744c.0862.04894.17349.09332.25651.148q.0619.0408.12133.08514-.10272-.07791.00658.01246c.06979.07049.14374.1353.21015.20944q.04954.05529.09587.11331-.07971-.10116.00324.01381c.04922.085.09937.17147.1501.25559q.06028.12989.00973.00637.02775.0687.05127.139a2.37616,2.37616,0,0,1,.0685.25016,4.67923,4.67923,0,0,1-.033,1.2598c-.06956.52862-.144,1.05665-.216,1.585l1.60938.21781-.04212-3.83784a.81933.81933,0,0,0-1.63865,0Z"/><path class="f" d="M113.12084,155.19122l2.55.263a.81956.81956,0,0,0,.57935-.24.81931.81931,0,0,0,0-1.1587.93584.93584,0,0,0-.57935-.24l-2.55-.263a.81955.81955,0,0,0-.57935.24.81934.81934,0,0,0,0,1.1587.93583.93583,0,0,0,.57935.24Z"/><path class="f" d="M112.26163,153.25488l-.37687,1.43512a.85264.85264,0,0,0,.0826.63134.81926.81926,0,0,0,1.121.29393.847.847,0,0,0,.37653-.48965l.37687-1.43512a.85264.85264,0,0,0-.0826-.63134.81926.81926,0,0,0-1.121-.29393.847.847,0,0,0-.37653.48965Z"/><path class="f" d="M91.24564,146.1811a9.1535,9.1535,0,0,0-1.2595,3.8232.82167.82167,0,0,0,.81932.81932.84223.84223,0,0,0,.81932-.81932c.00484-.04642.02743-.32218.00665-.08236.00605-.06983.02047-.14006.03193-.20918q.03711-.22368.08669-.44505a8.162,8.162,0,0,1,.22787-.81487q.0675-.20057.14538-.39746.02224-.05622.04531-.11211-.06563.15409-.0115.02884c.02513-.055.04924-.11044.0748-.16525a8.30144,8.30144,0,0,1,.42866-.7987.81946.81946,0,0,0-1.41493-.82706Z"/><path class="b" d="M139.22038,138.18631a21.961,21.961,0,0,1,4.96129-3.40564"/><path class="b" d="M136.58979,138.29327s9.88739-.736,16.52315,1.10132"/><path class="b" d="M113.41634,149.37268c3.376.03772,4.40631.53134,7.57952,1.68436"/><polyline class="b" points="118.105 141.141 122.42 137.601 161.696 139.519 165.24 143.857 167.723 149.354 164.713 156.81 148.641 161.642 121.092 157.279 117.448 154.176"/><polyline class="a" points="65.723 162.597 73.179 156.039 74.833 153.594 77.625 151.928 79.178 152.176 83.742 152.465 83.782 150.931 81.716 148.685 77.148 148.157 72.892 148.914 71.437 146.691 67.885 140.371 66.898 139.517 64.335 139.958 63.143 141.413 61.871 140.686 60.209 141.493 58.357 142.087 56.949 144.179 55.138 144.354 52.927 146.81 53.605 151.968 51.836 154.385 51.77 156.538 52.719 158.871"/><path class="f" d="M66.91045,156.29961c-.4369-1.05794-.56817-2.20694-.98523-3.27016a17.28625,17.28625,0,0,0-1.07993-1.95834c-.34813-.63571-.67215-1.28567-.97813-1.94263q-.11975-.25712-.2342-.51668c.00078.00177-.107-.25111-.05144-.11762q-.04543-.10915-.08854-.21931c-.04792-.12309-.09534-.247-.13407-.37339-.02865-.09349-.06812-.40374-.03721-.071a.86351.86351,0,0,0-.84065-.84065.84675.84675,0,0,0-.84064.84065,5.86373,5.86373,0,0,0,.61543,1.79794c.31542.703.65776,1.39512,1.02077,2.07474.31937.59794.773,1.15236,1.03028,1.776.43478,1.05384.546,2.21092.98232,3.26735a.86821.86821,0,0,0,1.0341.58715.846.846,0,0,0,.58714-1.0341Z"/><path class="f" d="M65.787,146.75878c.57576,1.40964,1.29446,2.76575,1.98957,4.1188.82427,1.60444,1.66174,3.20508,2.56069,4.76923a.84128.84128,0,0,0,1.45175-.84858c-.87937-1.53009-1.69936-3.09537-2.50675-4.66434-.40024-.77776-.79557-1.55815-1.18-2.34386-.15169-.31-.30183-.62084-.44772-.93365-.05835-.12511-.11615-.25049-.17247-.37653-.02406-.05385-.04734-.108-.07141-.16186-.08776-.19625.05448.13314-.00242-.00617a.86769.86769,0,0,0-1.0341-.58714.84617.84617,0,0,0-.58714,1.0341Z"/><path class="f" d="M59.49134,150.75705a13.09351,13.09351,0,0,0,1.05042,3.32466,16.20085,16.20085,0,0,1,.66938,1.71015,9.40124,9.40124,0,0,0,.88989,2.25588c.56169.923,2.01629.07909,1.45175-.84858a7.95525,7.95525,0,0,1-.73725-1.911,17.35258,17.35258,0,0,0-.75256-1.892c-.03816-.08819-.03224-.07511-.09-.219q-.08081-.20145-.15728-.40461-.1551-.41091-.29436-.82757c-.08384-.25132-.16356-.50418-.23427-.75954-.02937-.10607-.05762-.21252-.08235-.31977-.01735-.07527-.0698-.39425-.03211-.10862a.86845.86845,0,0,0-.84065-.84065c-.40807,0-.90047.38732-.84065.84065Z"/><path class="f" d="M70.50852,156.15489c-.174.09675-.34877.19229-.52664.28182q-.10124.051-.20367.09945c-.02934.01383-.31488.13265-.14432.06625a4.7561,4.7561,0,0,1-.49157.16618c-.0938.02517-.18832.04363-.2833.06335q-.14719.02365.01068-.00091-.05306.0054-.10632.00774c-.08281.0044-.165-.00143-.24757.00034q-.14725-.01341.01234.00763-.07048-.01118-.14-.02741c-.07108-.01675-.139-.03889-.20846-.06118q-.13572-.05163.0024.00194-.06454-.03089-.12728-.06531c-.31695-.17279-.59946-.40162-.90262-.59628a.84767.84767,0,0,0-1.15017.30158.8591.8591,0,0,0,.30158,1.15017,10.66169,10.66169,0,0,0,.99787.64571,2.94348,2.94348,0,0,0,1.46189.32411,6.09655,6.09655,0,0,0,2.59372-.91343.84078.84078,0,0,0-.84858-1.45175Z"/><path class="f" d="M65.19947,158.46963a20.19666,20.19666,0,0,1-2.17158.068c-.16989-.0067-.33961-.01756-.50887-.03368-.03273-.00312-.3507-.04536-.16409-.01685-.077-.01177-.15389-.024-.23051-.03809a5.84732,5.84732,0,0,1-1.04917-.29506.84407.84407,0,0,0-1.03409.58714.86441.86441,0,0,0,.58714,1.0341,10.63009,10.63009,0,0,0,4.57117.37571.84065.84065,0,1,0,0-1.68129Z"/><path class="f" d="M59.39128,158.42351,57.197,155.77084l-.31574-.3817a.84177.84177,0,0,0-1.3203,1.01872c.3221.53165.64107,1.06535.96679,1.59479a5.27938,5.27938,0,0,0,1.07972,1.35052,3.47178,3.47178,0,0,0,3.373.61175.85956.85956,0,0,0,.58714-1.0341.85041.85041,0,0,0-1.0341-.58714,2.70045,2.70045,0,0,1-.32658.10177c-.04442.0105-.08921.01881-.13393.02781-.20777.04179.10626.00109-.01387.00094-.11455-.00014-.227.01178-.34205.00655-.05717-.00259-.11373-.00919-.17078-.013.06984.00469.11674.02062.02013-.00017a3.35781,3.35781,0,0,1-.33178-.0845c-.02145-.007-.20211-.07094-.092-.02933.10824.0409-.0827-.04067-.08638-.04255a2.50281,2.50281,0,0,1-.265-.15627c-.06766-.0457-.1082-.08714-.02171-.01213-.04675-.04054-.09342-.08086-.13825-.12358a3.23147,3.23147,0,0,1-.22835-.24222c-.01281-.015-.13478-.17192-.07329-.08874.06009.0813-.06858-.09881-.06605-.09517-.13525-.19407-.25858-.3961-.38126-.59824q-.4354-.71745-.86974-1.43555l-1.3203,1.01872,2.19427,2.65267.31573.3817a.84368.84368,0,0,0,1.18886,0,.86377.86377,0,0,0,0-1.18886Z"/><path class="f" d="M52.08157,159.33786l-2.20391,1.43565a.88771.88771,0,0,0-.38633.5024.84087.84087,0,0,0,1.23491.94936l2.20391-1.43566a.88771.88771,0,0,0,.38633-.5024.84086.84086,0,0,0-1.23491-.94935Z"/><path class="f" d="M53.86712,160.31215l-.62539-1.388a.9405.9405,0,0,0-.50239-.38633.8591.8591,0,0,0-.64777.08474.84851.84851,0,0,0-.38633.5024l-.03.22348a.8368.8368,0,0,0,.11477.42429l.62539,1.388a.94057.94057,0,0,0,.5024.38633.85915.85915,0,0,0,.64777-.08475.84854.84854,0,0,0,.38633-.50239l.03-.22348a.83665.83665,0,0,0-.11477-.42429Z"/><path class="f" d="M75.221,152.3857a8.98653,8.98653,0,0,0-1.36937-3.66135.84079.84079,0,0,0-1.45175.84859,8.51832,8.51832,0,0,1,.45795.792,2.464,2.464,0,0,1,.20769.44171l-.03689-.08855q.02352.05631.04621.113.04539.1133.08745.22788a8.42745,8.42745,0,0,1,.43747,1.77376.83733.83733,0,0,0,.38632.5024.84062.84062,0,0,0,1.15017-.30158.99376.99376,0,0,0,.08475-.64777Z"/><polyline class="s" points="163.386 156.766 148.892 161.163 121.089 157.126"/></svg>