<svg id="Layer_1" data-name="Layer 1" xmlns="http://www.w3.org/2000/svg" viewBox="0 0 222.67 270.67"><defs><style>.cls-1{fill:#ededed;}.cls-2{fill:#cecece;}.cls-3{fill:#cab192;}.cls-4{fill:#747c58;}.cls-5{fill:#080808;}.cls-6{fill:#54593e;}.cls-10,.cls-7,.cls-9{fill:none;}.cls-7{stroke:#000;stroke-linecap:round;stroke-width:0.57px;}.cls-10,.cls-7,.cls-8,.cls-9{stroke-miterlimit:10;}.cls-8{fill:#231f20;}.cls-10,.cls-8,.cls-9{stroke:#231f20;}.cls-8,.cls-9{stroke-width:2.84px;}.cls-10{stroke-width:2.83px;}.cls-11{font-size:40px;fill:#fff;font-family:Rubik-Regular, Rubik;}</style></defs><circle class="cls-1" cx="111.33" cy="111.33" r="108.83" transform="translate(-46.12 111.33) rotate(-45)"/><path class="cls-2" d="M111.33,5c58.49,0,106.34,47.85,106.34,106.33h0c0,58.49-47.85,106.34-106.34,106.34h0C52.85,217.67,5,169.82,5,111.33H5C5,52.85,52.85,5,111.33,5h0m0-5A111.21,111.21,0,0,0,32.7,190,111.21,111.21,0,1,0,190,32.7,110.55,110.55,0,0,0,111.33,0Z"/><polygon class="cls-3" points="84.25 86.39 80.81 80.85 79.89 73.56 75.66 66.73 69.7 68.89 64.05 74.49 65.28 79.18 74.55 84.94 84.25 86.39"/><polyline class="cls-3" points="74.75 65.81 76.65 67.9 66.85 79.97 58.88 76.03 54.63 72.74 55.47 71.62 63.79 74.31 55.46 70.42 53.2 68.89 53.89 67.6 56.23 68.17 65.15 71.52 56.33 67.7 54.34 66.09 54.95 65.22 56.73 65.06 67.09 69.2 62.59 67.18 56.99 64.39 57.04 62.95 58.61 62.66 63.99 65.03 70.8 67.04"/><polygon class="cls-3" points="70.36 69.89 72.64 65.83 72.92 62.4 74.79 60.31 76.26 60.22 75.56 63.99 76.28 67.78 76.13 70.6 70.36 69.89"/><polygon class="cls-4" points="172.67 82.89 167.81 80.92 159.68 77.39 115.64 95.57 111.31 102.23 115.33 108.72 158.4 103.77 172.18 89.68 172.67 82.89"/><polygon class="cls-4" points="80.07 77.76 87.94 80.76 91.97 80.01 114.31 88.52 124.19 98.96 118.95 107.79 116.01 108.71 112.9 108.72 84.56 95.2 82.87 90.73 76.11 88.15 80.53 80.49 80.07 77.76"/><path d="M125.05,92a18.64,18.64,0,0,1,3,4.13c.17.32.66,0,.49-.29a19.9,19.9,0,0,0-3-4.25c-.25-.26-.65.14-.4.41Z"/><path d="M89.66,96.44l-.5-.17c-.24-.09-.4-.16-.59-.25-.56-.24-1.11-.51-1.65-.79a12.59,12.59,0,0,1-1.54-.93,3,3,0,0,1-.47-.39l-.1-.11c-.09-.09,0,0,0,0l-.06-.1c0-.07,0,.11,0,0a.48.48,0,0,0-.93.25,1.81,1.81,0,0,0,.6.82,7.62,7.62,0,0,0,1.16.82,20.67,20.67,0,0,0,2.7,1.36,9.25,9.25,0,0,0,1.14.44.48.48,0,0,0,.26-.92Z"/><path class="cls-5" d="M148.19,92.48c2.22,2.6,4.47,5.18,6.69,7.78.4.47,1.08-.21.68-.68-2.23-2.6-4.47-5.18-6.7-7.78-.4-.47-1.07.21-.67.68Z"/><polygon class="cls-6" points="150.31 100.54 149.38 105.4 117.36 108.37 119.53 102.08 120.67 100.56 120 106.61 126.13 93.27 124.87 105.37 132.43 98.73 131.56 105.44 144.47 103.93 150.31 100.54"/><path d="M125,91.83a40.63,40.63,0,0,1,.29,5.4,14.35,14.35,0,0,1-.77,5.41c-.14.33.35.62.49.29a14.3,14.3,0,0,0,.84-5.39,40.37,40.37,0,0,0-.28-5.71c0-.36-.61-.37-.57,0Z"/><path class="cls-7" d="M132.85,96.32s-2,7.4-4.62,10.5"/><path class="cls-7" d="M120.58,100.29a22.55,22.55,0,0,1-1.93,7.56"/><polygon class="cls-3" points="83.26 157.44 77.03 155.5 71.56 150.58 63.9 148.17 60.81 153.71 60.19 161.64 64.18 164.38 74.97 162.68 83.26 157.44"/><polyline class="cls-3" points="62.61 148.08 65.41 148.41 65.9 163.96 57.28 166.19 51.92 166.48 51.82 165.08 59.88 161.67 51.03 164.18 48.32 164.5 48 163.07 50.14 161.97 59.08 158.68 49.91 161.56 47.35 161.63 47.24 160.58 48.49 159.29 59.03 155.65 54.31 157.06 48.25 158.62 47.34 157.49 48.34 156.25 53.96 154.52 60.43 151.59"/><polygon class="cls-3" points="61.95 154.04 61.02 149.47 58.99 146.7 59.04 143.89 60.1 142.86 62.04 146.17 65.05 148.56 66.78 150.8 61.95 154.04"/><polygon class="cls-4" points="170.05 131.27 165.2 129.31 157.06 125.77 113.02 143.95 108.69 150.62 112.71 157.1 155.78 152.16 169.56 138.06 170.05 131.27"/><polygon class="cls-4" points="74.44 153.64 82.36 150.76 84.92 147.56 107.38 139.39 121.69 140.83 123.5 150.93 121.88 153.55 119.53 155.59 89.25 163.89 85.04 161.62 78.25 164.09 76.58 155.4 74.44 153.64"/><path d="M122.43,140.41a19.12,19.12,0,0,1,3,4.13c.17.33.66,0,.49-.28a19.41,19.41,0,0,0-3-4.25c-.25-.27-.65.14-.4.4Z"/><path d="M93.88,161.52s-.15.07,0,0l-.1,0-.29.11-.68.23c-.58.18-1.17.34-1.76.47a12.35,12.35,0,0,1-1.7.3,5,5,0,0,1-.67,0h-.06l-.13,0-.1,0c.13.05,0,0,0,0-.51-.34-1,.49-.49.83a2.32,2.32,0,0,0,1.35.21,14.1,14.1,0,0,0,1.93-.31,15.78,15.78,0,0,0,3.22-1,.48.48,0,0,0,.17-.66.48.48,0,0,0-.65-.17Z"/><path class="cls-5" d="M145.57,140.86c2.22,2.6,4.47,5.19,6.69,7.79.4.47,1.08-.21.68-.68-2.22-2.6-4.47-5.18-6.69-7.78-.41-.47-1.08.21-.68.67Z"/><polygon class="cls-6" points="147.69 148.92 146.76 153.79 114.74 156.75 116.91 150.46 118.05 148.95 117.38 154.99 123.51 141.65 122.25 153.75 129.81 147.11 128.94 153.82 141.85 152.31 147.69 148.92"/><path d="M122.35,140.21a42.38,42.38,0,0,1,.28,5.4,14.4,14.4,0,0,1-.77,5.42c-.14.33.35.62.49.28a14.25,14.25,0,0,0,.84-5.38,40.44,40.44,0,0,0-.28-5.72c0-.36-.61-.36-.56,0Z"/><path class="cls-7" d="M130.23,144.71s-2,7.39-4.62,10.49"/><path class="cls-7" d="M118,148.67a22.55,22.55,0,0,1-1.93,7.56"/><line class="cls-8" x1="70.44" y1="130.53" x2="71.05" y2="102.79"/><polyline class="cls-9" points="64.42 124.1 70.42 130.93 77.68 124.56"/><polyline class="cls-10" points="64.99 108.77 70.93 102 78.19 108.37"/><text class="cls-11" transform="translate(72.88 262.95)">האט</text></svg>