<svg xmlns="http://www.w3.org/2000/svg" viewBox="0 0 222.66742 280.96851"><defs><style>.a{fill:#ededed;}.b{fill:#cecece;}.c{fill:#fff100;opacity:0.39;}.d,.g,.i{fill:#c9b092;}.e{fill:#f0ea4e;opacity:0.3;}.f{fill:#050505;}.g,.i{stroke:#000;}.g,.h,.i,.j,.k,.l{stroke-miterlimit:10;}.g{stroke-width:1.78728px;}.h,.k,.l{fill:none;}.h,.j,.k,.l{stroke:#231f20;}.h{stroke-width:2.82797px;}.i{stroke-width:1.81905px;}.j{fill:#231f20;}.j,.k{stroke-width:5px;}.l{stroke-width:4.97658px;}.m{fill:#fff;}</style></defs><circle class="a" cx="111.33368" cy="111.33368" r="108.83371" transform="matrix(0.25667, -0.9665, 0.9665, 0.25667, -24.84608, 190.36183)"/><path class="b" d="M111.3338,5c58.48352,0,106.33362,47.8501,106.33362,106.33374S169.81732,217.66748,111.3338,217.66748h-.00024C52.85016,217.66748,5,169.81738,5,111.33374S52.85016,5,111.33356,5h.00024m0-5A111.20516,111.20516,0,0,0,32.69989,189.96753,111.20512,111.20512,0,1,0,189.96747,32.7,110.54181,110.54181,0,0,0,111.3338,0Z"/><circle class="c" cx="99.33514" cy="120.82124" r="15.21728"/><path class="d" d="M76.91338,162.57727s1.474,13.32462.66266,15.17618,1.40164,5.3441,1.40164,5.3441l7.03493,7.38813,5.78945,3.67439-.67571,3.88646-2.053,7.46686s-1.44107,10.33718,24.25361,1.774l1.8077-9.50734,4.69459-9.46609.61174-12.03143s6.50578-10.02225,1.69678-15.83871"/><ellipse class="e" cx="101.47717" cy="113.99224" rx="25.378" ry="18.74738" transform="translate(-17.81705 209.18012) rotate(-86.91142)"/><path class="f" d="M109.18735,163.70637c.37821-4.88865-.191-4.418-.191-4.418,5.28336-4.65309,6.58437-23.69893,6.58437-23.69893l-15.21776-.7406-15.20428-.98s-.85478,19.07108,3.87023,24.29021c0,0-.51248-.53178-.68784,4.36834-.17542,4.90012-2.25852,35.57177-2.25852,35.57177a5.93259,5.93259,0,0,0,4.21291,5.89437l7.14921.40434,5.12525.28987a5.93267,5.93267,0,0,0,4.85066-5.38176S108.80908,168.595,109.18735,163.70637Z"/><path class="g" d="M91.56532,145.928s-9.28107-3.967-12.3066,2.34236,1.34422,5.37794,1.34422,5.37794,1.62743-2.03435,3.58918-1.61018,6.99452.908,6.99452.908,2.96488.58441,3.11553-.04411,3.69016-1.31792,2.26168-2.97086A32.31816,32.31816,0,0,0,91.56532,145.928Z"/><path class="g" d="M79.62849,153.67771s-4.25358,3.8267-3.88691,5.68569S79.083,163.788,79.083,163.788l6.24332-3.20006s7.72223,1.12407,9.25145,1.631,4.7581,1.24708,4.79616.54175,1.56477-.15189,2.33147-2.82191a6.872,6.872,0,0,0-.81367-5.11378L94.30217,152.902l-11.89084-.64161Z"/><path class="g" d="M79.083,163.788s-4.52416,4.56612-3.904,5.307.95175,6.13488,3.30267,5.8373,8.015-4.23628,8.015-4.23628,7.76439.27748,7.89676.709,5.03065-.9192,5.03065-.9192l2.05314-3.79176-1.02445-3.73369-5.875-.74144-9.25145-1.631Z"/><path class="g" d="M79.25638,174.99793s-4.67428,3.54384-2.71477,7.328,6.94668,9.57087,8.80564,9.67117a13.76724,13.76724,0,0,1,3.83858.91451l-5.782-8.23472s-.36666-1.859.71978-1.80037,4.51619-.03927,4.51619-.03927l1.10927-.36458,5.56839-2.38761s4.83968-2.99284,4.46541-4.71077.46271-5.49728-3.11467-4.20248-8.50866-.79584-8.50866-.79584Z"/><circle class="h" cx="100.9815" cy="119.72716" r="16.31136"/><path class="i" d="M111.42965,176.67914l.76312-8.99208s-10.47578-4.40315-10.32054-5.90156-3.54788-9.80241,3.09372-8.28114,15.74321,7.81248,15.74321,7.81248"/><ellipse class="e" cx="101.91526" cy="34.7448" rx="19.0335" ry="18.64345" transform="translate(61.73076 134.64038) rotate(-86.91199)"/><line class="j" x1="150.79052" y1="87.62235" x2="151.53324" y2="53.6187"/><polyline class="k" points="143.41 79.737 150.758 88.114 159.659 80.306"/><polyline class="l" points="144.106 60.953 151.386 52.654 160.286 60.462"/><path class="m" d="M17.09515,260.58862a.89108.89108,0,0,1-.25976-.66015V248.20874a.8786.8786,0,0,1,.25976-.68018.93782.93782,0,0,1,.66016-.23974h1.75977a.89034.89034,0,0,1,.92089.91992v11.71973a.89113.89113,0,0,1-.92089.92041H17.75531A.89376.89376,0,0,1,17.09515,260.58862Z"/><path class="m" d="M26.33441,260.58862a.891.891,0,0,1-.25976-.66015V248.20874a.87857.87857,0,0,1,.25976-.68018.93782.93782,0,0,1,.66016-.23974h1.75976a.89034.89034,0,0,1,.9209.91992v11.71973a.89113.89113,0,0,1-.9209.92041H26.99457A.89376.89376,0,0,1,26.33441,260.58862Z"/><path class="m" d="M47.17426,248.32886a6.25113,6.25113,0,0,1,3.0996,3.31982,15.93009,15.93009,0,0,1,.96,6.08008q0,5.12035-2.51954,7.98a14.84694,14.84694,0,0,1-6.56054,4.21973l-1.67969.56006a.693.693,0,0,1-.28027.04.71775.71775,0,0,1-.71973-.75976v-1.76026a1.17191,1.17191,0,0,1,.87988-1.08007l1.56055-.59961a9.213,9.213,0,0,0,4.23926-3,9.46316,9.46316,0,0,0,1.48047-5.76026,11.26939,11.26939,0,0,0-.64063-4.21972,4.08356,4.08356,0,0,0-2.09961-2.22022,9.70839,9.70839,0,0,0-4.01953-.68017H39.5141l-3.67969-.04a.93228.93228,0,0,1-.66015-.23975.82715.82715,0,0,1-.25977-.64014v-6.87988a.88883.88883,0,0,1,.91992-.91992H37.434a.82871.82871,0,0,1,.63965.25977.9367.9367,0,0,1,.24023.66015v4.64014H41.394A13.38066,13.38066,0,0,1,47.17426,248.32886Z"/><path class="m" d="M74.67426,269.32886a.82114.82114,0,0,1-.79981.7998H72.07367a1.04106,1.04106,0,0,1-.79981-.2998c-.18652-.2002-.29394-.31348-.32031-.34033l-9.11914-12.83985a6.28206,6.28206,0,0,0-2.34082,2.93994,10.85061,10.85061,0,0,0-.61914,3.74024v5.87988a.89034.89034,0,0,1-.9209.91992H56.47406a.8888.8888,0,0,1-.91992-.91992v-6.04a13.5803,13.5803,0,0,1,.89941-5.16016,9.026,9.026,0,0,1,3.54-3.96l-3.71973-5.1997a1.48789,1.48789,0,0,1-.28027-.76026.82018.82018,0,0,1,.80078-.7998h1.75977a1.36939,1.36939,0,0,1,1.12012.67969l8.39941,11.72021a6.68455,6.68455,0,0,0,2.10059-1.76025,4.49127,4.49127,0,0,0,.81933-1.81983,13.8679,13.8679,0,0,0,.16016-2.33984v-5.56006a.8888.8888,0,0,1,.91992-.91992h1.56055a.88882.88882,0,0,1,.91992.91992v5.71973a10.59479,10.59479,0,0,1-.94043,4.66015,9.19473,9.19473,0,0,1-3.7793,3.62012L74.394,268.5686A1.22155,1.22155,0,0,1,74.67426,269.32886Z"/><path class="m" d="M90.05316,269.8689a.8926.8926,0,0,1-.25976-.66016v-21a.87857.87857,0,0,1,.25976-.68018.93616.93616,0,0,1,.66016-.23974h7.55957q5.11962,0,7.62012,2.43994,2.50048,2.44042,2.5,7.31982v12.16016a.88882.88882,0,0,1-.91993.91992H90.71332A.89373.89373,0,0,1,90.05316,269.8689Zm14.90039-2.86036v-9.75976q0-6.87965-6.87988-6.87988h-4.96v16.63964Z"/><path class="m" d="M130.5932,247.52856a.92042.92042,0,0,1,.24024.68018v1.27979a.82781.82781,0,0,1-.26075.64013.9359.9359,0,0,1-.66015.24024h-2.35938a4.40114,4.40114,0,0,0-.90039,1.87988,11.236,11.236,0,0,0-.33984,2.87988v14.12012a.80017.80017,0,0,1-.28028.63965,1.00775,1.00775,0,0,1-.67968.24023h-1.67969a.82517.82517,0,0,1-.87988-.87988V254.88843a12.11152,12.11152,0,0,1,.27929-2.79981,4.14228,4.14228,0,0,1,.76075-1.71972h-11.04a.93263.93263,0,0,1-.66016-.24024.82711.82711,0,0,1-.25977-.64013v-1.27979a.88882.88882,0,0,1,.91993-.91992h17.11914A.92188.92188,0,0,1,130.5932,247.52856Z"/><path class="m" d="M144.03363,270.52856a.71922.71922,0,0,1-.7207-.75976v-1.76026a1.17314,1.17314,0,0,1,.87988-1.08007l1.56055-.59961a9.22119,9.22119,0,0,0,4.24023-3,9.46341,9.46341,0,0,0,1.47949-5.76026,11.29177,11.29177,0,0,0-.63964-4.21972,4.08525,4.08525,0,0,0-2.10059-2.22022,9.70842,9.70842,0,0,0-4.01953-.68017h-8a.88882.88882,0,0,1-.91992-.91993V248.1687a.82857.82857,0,0,1,.25976-.64014.93616.93616,0,0,1,.66016-.23974h8.47949a13.49543,13.49543,0,0,1,5.82031,1.04,6.25291,6.25291,0,0,1,3.10059,3.31982,15.9492,15.9492,0,0,1,.96,6.08008q0,5.12035-2.52051,7.98a14.84374,14.84374,0,0,1-6.55957,4.21973l-1.68066.56006A.69078.69078,0,0,1,144.03363,270.52856Zm-7.98047,7a.87671.87671,0,0,1-.25976-.67968V255.7688a.8888.8888,0,0,1,.91992-.91992H138.353a.88882.88882,0,0,1,.91992.91992v21.08008a.88958.88958,0,0,1-.91992.91992h-1.63965A.93428.93428,0,0,1,136.05316,277.52856Z"/><path class="m" d="M181.07367,257.04858v12.16016a.89034.89034,0,0,1-.9209.91992h-1.67969a.88882.88882,0,0,1-.91992-.91992v-11.96q0-6.87965-6.87988-6.87988H167.7934q-.39991,2.51952-.58008,4.17968a29.9873,29.9873,0,0,0-.13965,3.78028l.0791,10.87988a.8888.8888,0,0,1-.91992.91992l-5.55957-.08008a.8888.8888,0,0,1-.91992-.91992v-1.20019a.88956.88956,0,0,1,.91992-.91993l3.08008.04v-8.56q-.041-2.51954.09961-4.25977a24.70335,24.70335,0,0,1,.66015-3.85986H162.353a.93591.93591,0,0,1-.66016-.24024.8305.8305,0,0,1-.25977-.64013v-1.27979a.882.882,0,0,1,.25977-.68018.9378.9378,0,0,1,.66016-.23974h8.56054Q181.0722,247.28882,181.07367,257.04858Z"/><path class="m" d="M202.53265,269.8689a.89264.89264,0,0,1-.25976-.66016v-11.96q0-6.87965-6.83985-6.87988h-7.44043a.93425.93425,0,0,1-.66015-.24024.82711.82711,0,0,1-.25977-.64013v-1.27979a.87858.87858,0,0,1,.25977-.68018.93613.93613,0,0,1,.66015-.23974h7.63965q10.16016,0,10.16016,9.83984v12.08008a.88882.88882,0,0,1-.91992.91992h-1.67969A.89221.89221,0,0,1,202.53265,269.8689Zm-15.20019,0a.89261.89261,0,0,1-.25977-.66016V255.7688a.88882.88882,0,0,1,.91992-.91992h1.67969a.8888.8888,0,0,1,.91992.91992v13.43994a.8888.8888,0,0,1-.91992.91992h-1.67969A.89371.89371,0,0,1,187.33246,269.8689Z"/></svg>