<svg xmlns="http://www.w3.org/2000/svg" viewBox="0 0 222.66737 282.01294"><defs><style>.a{fill:#ededed;}.b{fill:#cecece;}.c{fill:#fff100;opacity:0.39;}.d,.g,.i{fill:#c9b092;}.e{fill:#f0ea4e;opacity:0.3;}.f{fill:#050505;}.g,.i{stroke:#000;}.g,.h,.i,.j,.k{stroke-miterlimit:10;}.g{stroke-width:1.78728px;}.h,.j,.k{fill:none;stroke:#231f20;}.h{stroke-width:2.82797px;}.i{stroke-width:1.81905px;}.j{stroke-width:5.01521px;}.k{stroke-width:5px;}.l{fill:#fff;}</style></defs><circle class="a" cx="111.33379" cy="111.33362" r="108.83356" transform="translate(-46.11585 111.33374) rotate(-45)"/><path class="b" d="M111.33382,5c58.48346,0,106.33355,47.8501,106.33355,106.3335v.00024c0,58.48364-47.85009,106.33374-106.33355,106.33374h-.00022C52.85011,217.66748,5,169.81738,5,111.33374v-.00024C5,52.8501,52.85011,5,111.3336,5h.00022m0-5A111.20511,111.20511,0,0,0,32.7,189.96753,111.20508,111.20508,0,1,0,189.96742,32.7,110.54175,110.54175,0,0,0,111.33382,0Z"/><circle class="c" cx="111.21092" cy="52.82784" r="10.42328"/><path class="d" d="M95.85283,81.42921s1.00961,9.12688.4539,10.39513.96007,3.66051.96007,3.66051l4.81867,5.0606,3.96556,2.51683-.46283,2.66208-1.40624,5.11453s-.98709,7.0806,16.61284,1.21512l1.23821-6.51219,3.21562-6.48392.419-8.2411s4.45622-6.86487,1.16223-10.84894"/><ellipse class="e" cx="112.67814" cy="48.15022" rx="17.38301" ry="12.84128" transform="translate(58.52678 158.07035) rotate(-86.91142)"/><path class="f" d="M118.14725,82.96372c.25847-3.341-.13051-3.01934-.13051-3.01934,3.6107-3.18,4.49983-16.19611,4.49983-16.19611l-10.4-.50614-10.39077-.66973s-.58417,13.03339,2.645,16.6002c0,0-.35024-.36343-.47008,2.98537-.11989,3.3488-1.5435,24.31015-1.5435,24.31015a4.05439,4.05439,0,0,0,2.87915,4.02828l4.88585.27633,3.50266.1981a4.05447,4.05447,0,0,0,3.315-3.678S117.88874,86.30468,118.14725,82.96372Z"/><path class="g" d="M105.88888,70.025s-6.3572-2.71724-8.42958,1.60443.92074,3.68369.92074,3.68369a2.87024,2.87024,0,0,1,2.45846-1.10291c1.34373.29055,4.791.62192,4.791.62192s2.03084.4003,2.134-.03021,2.52762-.90273,1.54917-2.03493A22.13652,22.13652,0,0,0,105.88888,70.025Z"/><path class="g" d="M97.71258,75.33333s-2.91355,2.62115-2.6624,3.89449,2.28873,3.0307,2.28873,3.0307l4.27645-2.19192s5.28945.76994,6.33691,1.11718,3.25912.85421,3.28519.37108,1.07181-.104,1.597-1.9329a4.70711,4.70711,0,0,0-.55734-3.50276L107.76352,74.802l-8.14479-.43948Z"/><path class="g" d="M97.33891,82.25852S94.24,85.38615,94.66482,85.89361s.65191,4.20217,2.2622,3.99834,5.49-2.9017,5.49-2.9017,5.31833.19006,5.409.48567,3.44581-.62962,3.44581-.62962l1.40633-2.59722-.70172-2.55744-4.02415-.50786-6.33691-1.11718Z"/><path class="g" d="M97.4577,89.93691s-3.20172,2.4274-1.85952,5.0194,4.75823,6.5557,6.03154,6.62441a9.42984,9.42984,0,0,1,2.62929.6264l-3.96044-5.64048s-.25116-1.27335.493-1.23319,3.09342-.0269,3.09342-.0269l.75982-.24972L108.459,93.4214s3.315-2.05,3.05864-3.2267.31694-3.76545-2.13343-2.87856-5.82813-.54512-5.82813-.54512Z"/><circle class="h" cx="112.33862" cy="52.07843" r="11.17269"/><path class="i" d="M119.49523,91.08848l.5227-6.15925s-7.17553-3.016-7.0692-4.04236-2.43016-6.71429,2.11909-5.67228,10.78353,5.35127,10.78353,5.35127"/><ellipse class="e" cx="158.96022" cy="73.82139" rx="13.03726" ry="12.77009" transform="translate(76.68286 228.57405) rotate(-86.91199)"/><ellipse class="e" cx="173.62817" cy="114.74468" rx="13.03726" ry="12.77009" transform="translate(49.69679 281.93946) rotate(-86.91199)"/><ellipse class="e" cx="66.53874" cy="153.29292" rx="13.03726" ry="12.77009" transform="translate(-90.11603 211.47719) rotate(-86.91199)"/><ellipse class="e" cx="154.75823" cy="155.66796" rx="13.03726" ry="12.77009" transform="translate(-9.02049 301.81568) rotate(-86.91199)"/><ellipse class="e" cx="109.54485" cy="173.94019" rx="13.03726" ry="12.77009" transform="translate(-70.04393 273.95586) rotate(-86.91199)"/><ellipse class="e" cx="50.05367" cy="112.46211" rx="13.03726" ry="12.77009" transform="translate(-64.94152 156.38479) rotate(-86.91199)"/><ellipse class="e" cx="68.18299" cy="69.81418" rx="13.03726" ry="12.77009" transform="translate(-5.20282 134.1373) rotate(-86.91199)"/><polyline class="j" points="124.205 193.216 131.889 193.782 131.295 201.842"/><path class="k" d="M82.94,193.96054s23.39665,26.30886,48.65778.05943"/><polyline class="j" points="33.023 131.321 32.457 139.005 24.396 138.411"/><path class="k" d="M32.27794,90.05625S5.96908,113.4529,32.21851,138.714"/><polyline class="j" points="190.87 97.741 191.436 90.056 199.496 90.65"/><path class="k" d="M191.61463,139.00519s26.30886-23.39665.05943-48.65778"/><polyline class="j" points="95.395 29.167 87.71 28.601 88.304 20.541"/><path class="k" d="M136.65927,28.42237s-23.39664-26.30886-48.65778-.05943"/><path class="l" d="M31.05564,248.573a.92043.92043,0,0,1,.24023.68017v11.04a9.71988,9.71988,0,0,1-2.32031,6.33985,12.38733,12.38733,0,0,1-6.2002,3.98l-8.71972,2.76025a1.06571,1.06571,0,0,1-.32032.04.84853.84853,0,0,1-.55957-.2002.646.646,0,0,1-.24023-.52v-1.24024q0-.91919.64062-1.11963L18.8154,268.573l-5.19922-18.64014a5.04506,5.04506,0,0,1-.20019-.7998.81841.81841,0,0,1,.7998-.79981h1.83985a.97078.97078,0,0,1,.5996.17969.87454.87454,0,0,1,.32032.41992l5.12011,18.56006a8.12841,8.12841,0,0,0,4.41993-3.15967,9.58826,9.58826,0,0,0,1.25976-5.12012v-9.96a.89031.89031,0,0,1,.91992-.91992H30.376A.921.921,0,0,1,31.05564,248.573Z"/><path class="l" d="M37.55466,270.91333a.8926.8926,0,0,1-.25977-.66016v-21a.87855.87855,0,0,1,.25977-.68017.9361.9361,0,0,1,.66015-.23975h1.75977a.88882.88882,0,0,1,.91992.91992v21a.88882.88882,0,0,1-.91992.91993H38.21481A.89372.89372,0,0,1,37.55466,270.91333Z"/><path class="l" d="M58.25583,270.37329a.72024.72024,0,0,1-.26074.57959.92552.92552,0,0,1-.61914.22022H46.69528a.88884.88884,0,0,1-.91992-.91993V268.9729a.88956.88956,0,0,1,.91992-.91992h7.87989l-.63965-10.15967q-.20068-2.6001-.41992-3.82031a3.62776,3.62776,0,0,0-.98047-1.98,3.21865,3.21865,0,0,0-2.35938-.75977H48.53513a.93188.93188,0,0,1-.65918-.24023.82784.82784,0,0,1-.26074-.64014V249.1731a.89031.89031,0,0,1,.91992-.91993h1.64062a7.33666,7.33666,0,0,1,4.41992,1.14014,5.779,5.779,0,0,1,2.12012,3.13965,24.93436,24.93436,0,0,1,.7793,5.24023l.76074,12.48Z"/><path class="l" d="M78.03513,249.51294a8.083,8.083,0,0,1,3.04,3.38037,11.51129,11.51129,0,0,1,1.09961,5.19971v12.16015a.88884.88884,0,0,1-.91993.91993H70.93454a.82848.82848,0,0,1-.63965-.25977.93512.93512,0,0,1-.24023-.66016V268.9729a.93557.93557,0,0,1,.24023-.65967.82882.82882,0,0,1,.63965-.26025h7.7207v-9.71973a7.60637,7.60637,0,0,0-1.54-4.93994,4.81228,4.81228,0,0,0-3.9004-1.90039H68.97458L65.8945,270.21313a1.04323,1.04323,0,0,1-.33984.68018.94857.94857,0,0,1-.66016.27979H63.21481a.74343.74343,0,0,1-.62011-.27979.90946.90946,0,0,1-.17969-.68018l3.2002-18.72021h-2.04a.88884.88884,0,0,1-.91993-.91992v-1.31983a.88884.88884,0,0,1,.91993-.91992h10.04A8.34329,8.34329,0,0,1,78.03513,249.51294Z"/><path class="l" d="M118.334,258.093v12.16015a.89037.89037,0,0,1-.9209.91993h-1.67969a.88882.88882,0,0,1-.91992-.91993v-11.96q0-6.87963-6.87989-6.87988h-2.87988q-.3999,2.51953-.58008,4.17969a29.98728,29.98728,0,0,0-.13964,3.78027l.0791,10.87988a.88884.88884,0,0,1-.91992.91993l-5.55958-.08008a.88883.88883,0,0,1-.91992-.91992v-1.2002a.88956.88956,0,0,1,.91992-.91992l3.08008.04V259.533q-.041-2.51954.09961-4.25977a24.70366,24.70366,0,0,1,.66016-3.85986H99.61325a.93592.93592,0,0,1-.66015-.24023.8305.8305,0,0,1-.25977-.64014v-1.27979a.882.882,0,0,1,.25977-.68017.93774.93774,0,0,1,.66015-.23975h8.56055Q118.33249,248.33325,118.334,258.093Z"/><path class="l" d="M141.13278,248.573a.92039.92039,0,0,1,.24024.68017v11.04a9.71988,9.71988,0,0,1-2.32031,6.33985,12.38737,12.38737,0,0,1-6.2002,3.98l-8.71973,2.76025a1.06559,1.06559,0,0,1-.32031.04.84853.84853,0,0,1-.55957-.2002.646.646,0,0,1-.24023-.52v-1.24024q0-.91919.64062-1.11963l5.23926-1.76025-5.19922-18.64014a5.04506,5.04506,0,0,1-.20019-.7998.81841.81841,0,0,1,.7998-.79981h1.83984a.97079.97079,0,0,1,.59961.17969.8746.8746,0,0,1,.32032.41992l5.12011,18.56006a8.12834,8.12834,0,0,0,4.41992-3.15967,9.58817,9.58817,0,0,0,1.25977-5.12012v-9.96a.89031.89031,0,0,1,.91992-.91992h1.68067A.921.921,0,0,1,141.13278,248.573Z"/><path class="l" d="M158.53317,270.37329a.72024.72024,0,0,1-.26074.57959.92552.92552,0,0,1-.61914.22022H146.97263a.88882.88882,0,0,1-.91992-.91993V268.9729a.88955.88955,0,0,1,.91992-.91992h7.87988l-.63965-10.15967q-.20068-2.6001-.41992-3.82031a3.62762,3.62762,0,0,0-.98047-1.98,3.21862,3.21862,0,0,0-2.35937-.75977h-1.64063a.93188.93188,0,0,1-.65918-.24023.82784.82784,0,0,1-.26074-.64014V249.1731a.89031.89031,0,0,1,.91992-.91993h1.64063a7.33668,7.33668,0,0,1,4.41992,1.14014,5.779,5.779,0,0,1,2.12012,3.13965,24.93444,24.93444,0,0,1,.77929,5.24023l.76074,12.48Z"/><path class="l" d="M183.93259,258.093v12.16015a.89036.89036,0,0,1-.9209.91993H181.332a.88884.88884,0,0,1-.91992-.91993v-11.96q0-6.87963-6.87988-6.87988h-2.87989q-.3999,2.51953-.58007,4.17969a29.98525,29.98525,0,0,0-.13965,3.78027l.0791,10.87988a.88884.88884,0,0,1-.91992.91993l-5.55957-.08008a.88882.88882,0,0,1-.91992-.91992v-1.2002a.88955.88955,0,0,1,.91992-.91992l3.08008.04V259.533q-.041-2.51954.09961-4.25977a24.70355,24.70355,0,0,1,.66015-3.85986h-2.16015a.936.936,0,0,1-.66016-.24023.83053.83053,0,0,1-.25977-.64014v-1.27979a.882.882,0,0,1,.25977-.68017.93776.93776,0,0,1,.66016-.23975h8.56054Q183.93112,248.33325,183.93259,258.093Z"/><path class="l" d="M205.39157,270.91333a.89259.89259,0,0,1-.25976-.66016v-11.96q0-6.87963-6.83985-6.87988h-7.44043a.93429.93429,0,0,1-.66015-.24023.82715.82715,0,0,1-.25977-.64014v-1.27979a.87855.87855,0,0,1,.25977-.68017.9361.9361,0,0,1,.66015-.23975h7.63965q10.16016,0,10.16016,9.83985v12.08007a.88884.88884,0,0,1-.91992.91993h-1.67969A.8922.8922,0,0,1,205.39157,270.91333Zm-15.20019,0a.8926.8926,0,0,1-.25977-.66016V256.81323a.88883.88883,0,0,1,.91992-.91992h1.67969a.88882.88882,0,0,1,.91992.91992v13.43994a.88882.88882,0,0,1-.91992.91993h-1.67969A.89372.89372,0,0,1,190.19138,270.91333Z"/></svg>