<svg id="Layer_1" data-name="Layer 1" xmlns="http://www.w3.org/2000/svg" xmlns:xlink="http://www.w3.org/1999/xlink" viewBox="0 0 222.67 270.67"><defs><style>.cls-1{fill:#cab192;}.cls-2{fill:#747c58;}.cls-3{fill:#ededed;}.cls-4{fill:#cecece;}.cls-5,.cls-6{fill:#c9b092;}.cls-6,.cls-9{stroke:#000;}.cls-17,.cls-6,.cls-9{stroke-miterlimit:10;}.cls-6{stroke-width:0.33px;}.cls-7{fill:#54593e;}.cls-8{fill:#080808;}.cls-17,.cls-19,.cls-9{fill:none;}.cls-17,.cls-18,.cls-19,.cls-9{stroke-linecap:round;}.cls-9{stroke-width:0.49px;}.cls-10{fill:#27421d;}.cls-11{clip-path:url(#clip-path);}.cls-12{fill:#271d1d;}.cls-13{clip-path:url(#clip-path-2);}.cls-14{fill:#707171;}.cls-15{clip-path:url(#clip-path-3);}.cls-16{fill:#525222;}.cls-17,.cls-18,.cls-19{stroke:#27421d;stroke-width:0.98px;}.cls-18{fill:#284220;}.cls-18,.cls-19{stroke-linejoin:round;}.cls-20{fill:#231f20;}.cls-21{font-size:40px;fill:#fff;font-family:Rubik-Regular, Rubik;}</style><clipPath id="clip-path"><polygon class="cls-1" points="126.19 108.77 125.93 99.61 127.26 97.59 130.75 95.31 133.2 89.01 130.05 86.56 128.5 73.26 116.94 69.41 105.56 72.91 103.49 86.56 101.71 88.28 103.07 94.92 104.47 95.8 104.51 99.51 107.31 103.01 107.13 110.78 103.11 115.98 107.31 130.3 116.05 134.15 127.6 121.55 133.2 113.16 126.19 108.77"/></clipPath><clipPath id="clip-path-2"><polygon class="cls-2" points="143.43 144.66 143 176.67 136.94 179.1 121.41 177.93 102.31 176.44 101.38 175 102.31 171.83 93.06 139.38 86.39 128.71 89.38 118.62 103.16 111.92 107.34 107.4 107.61 110.09 107.32 114.76 114.71 127.33 126.36 111.49 126.52 108.02 126.45 106.77 125.97 103.2 130.31 107.45 149.92 114.97 151.66 134.8 143.43 144.66"/></clipPath><clipPath id="clip-path-3"><path class="cls-2" d="M143.8,185.75c0-.06-.08-3.78-.15-3.77l-1.92.87s-1.13,0-1.14,0l-40-4.37c-.06,0-.11,3.71-.13,3.76l-1.17,2.59v0l-1.4,4.51H145Z"/></clipPath></defs><circle class="cls-3" cx="111.33" cy="111.33" r="108.83" transform="translate(-46.12 111.33) rotate(-45)"/><path class="cls-4" d="M111.33,5c58.49,0,106.34,47.85,106.34,106.33h0c0,58.49-47.85,106.34-106.34,106.34h0C52.85,217.67,5,169.82,5,111.33H5C5,52.85,52.85,5,111.33,5h0m0-5A111.21,111.21,0,0,0,32.7,190,111.21,111.21,0,1,0,190,32.7,110.55,110.55,0,0,0,111.33,0Z"/><path class="cls-5" d="M102.39,53.43s3.31,2.51,3.55,3.08,1.5.83,1.5.83h3.16l2.05-.52.73,1,1.24,2.05s2,2.52,5.56-5.07l-1.75-2.43-1.13-3.06-2.57-2.7s-.86-3.6-3.19-3.75"/><path class="cls-6" d="M107.05,53.89l-2-1.2s.67-2.84.33-3-1.5-2.21-2.19-.6a15.59,15.59,0,0,0-.75,4.45"/><path class="cls-6" d="M111.76,42.76S110.7,40.34,109,41s-.71,1.26-.71,1.26a1.11,1.11,0,0,1,1,.34c.3.43,1.17,1.43,1.17,1.43s.46.64.6.55.94.41,1-.16A9,9,0,0,0,111.76,42.76Z"/><path class="cls-6" d="M108.1,42.09s-1.5,0-1.76.39a3,3,0,0,0-.16,1.44l1.76.51s1.27,1.6,1.47,2,.68,1.09.82,1,.32.25,1-.12a1.81,1.81,0,0,0,.76-1.12L111,44.58l-2.15-2.26Z"/><path class="cls-6" d="M106.18,43.92s-1.68.06-1.69.31-.92,1.34-.42,1.7a8.11,8.11,0,0,0,2.28.63,13.84,13.84,0,0,1,1.38,1.55c0,.11,1.12.73,1.12.73l1.07-.35.48-.9-1-1.19-1.47-2Z"/><path class="cls-6" d="M104.2,46.08s-1.52-.16-1.83.91-.39,3.07-.05,3.42a3.63,3.63,0,0,1,.56.86l.38-2.6s.26-.42.46-.21.87.8.87.8l.27.13,1.49.54s1.46.3,1.69-.1,1.08-1,.16-1.35a3.68,3.68,0,0,1-1.47-1.68Z"/><polygon class="cls-2" points="120.29 138.91 119.32 133.44 117.42 124.22 145.95 82.49 153.81 79.46 159.67 85.05 145.09 128.67 127.45 139.89 120.29 138.91"/><polygon class="cls-2" points="113.11 59.56 119.21 65.76 120.43 69.62 137.73 87.22 150.92 93 155.84 85.62 155.25 82.69 153.84 79.89 129.63 58.38 125.15 58.2 119.92 52.87 115.59 59.16 113.11 59.56"/><path d="M153.67,85.64A16.53,16.53,0,0,0,156,89.47c.19.24.54-.11.34-.35a16.29,16.29,0,0,1-2.26-3.73c-.12-.29-.54,0-.42.25Z"/><polygon class="cls-7" points="147.25 110.11 151.51 110.19 159.67 83.85 154 84.55 152.53 85.24 157.72 85.75 145.44 88.53 155.82 89.62 148.9 94.79 154.69 95.25 151.14 105.81 147.25 110.11"/><path class="cls-8" d="M143.32,109.5c2.59.43,5.2.76,7.79,1.19a.42.42,0,0,0,.22-.8c-3.81-1.37-7.76-2.32-11.57-3.69-.5-.18-.71.61-.22.79,3.81,1.38,7.76,2.32,11.57,3.7l.22-.8c-2.59-.42-5.2-.75-7.79-1.18-.52-.09-.74.71-.22.79Z"/><path d="M145.3,85.5a33.88,33.88,0,0,0,4.75,1.25,12.47,12.47,0,0,0,4.67.26c.31-.06.18-.53-.13-.47a12.33,12.33,0,0,1-4.68-.31,34.82,34.82,0,0,1-4.48-1.2c-.3-.1-.43.37-.13.47Z"/><path class="cls-9" d="M147.63,89.79s6.52.91,9.84-.11"/><path class="cls-9" d="M135.66,84s4.71,4.59,8,5.75"/><path d="M160.06,86a11.5,11.5,0,0,0-1-1.86A11.77,11.77,0,0,0,157.49,82a1.7,1.7,0,0,0-.85-.55.41.41,0,1,0-.22.79l.12,0c-.12,0,0,0,.08.06l.07.05h0l.18.16a6.15,6.15,0,0,1,.68.8,19.53,19.53,0,0,1,1.33,2.06l.25.47.09.18,0,.09c0,.09,0,0,0,0a.43.43,0,0,0,.51.29.4.4,0,0,0,.28-.5Z"/><path class="cls-5" d="M131.24,52s-3.3,2.51-3.55,3.08-1.5.82-1.5.82H123L121,55.4l-.73,1-1.24,2s-2,2.52-5.56-5.07l1.75-2.43,1.13-3.07,2.57-2.69s.87-3.6,3.2-3.76"/><path class="cls-6" d="M126.59,52.47l2-1.19s-.66-2.85-.33-3,1.5-2.22,2.19-.61a15.22,15.22,0,0,1,.75,4.45"/><path class="cls-6" d="M121.88,41.35s1.05-2.42,2.76-1.76.71,1.26.71,1.26a1.1,1.1,0,0,0-1,.34c-.3.43-1.17,1.42-1.17,1.42s-.46.65-.6.55-.94.41-1-.16A8.54,8.54,0,0,1,121.88,41.35Z"/><path class="cls-6" d="M125.54,40.68s1.49,0,1.76.39a3.12,3.12,0,0,1,.15,1.44l-1.76.51s-1.27,1.6-1.47,2-.68,1.09-.81,1-.33.25-1-.12a1.76,1.76,0,0,1-.76-1.12l.91-1.55,2.14-2.25Z"/><path class="cls-6" d="M127.45,42.51s1.68.06,1.7.31.92,1.34.42,1.7a8.61,8.61,0,0,1-2.29.63,12.13,12.13,0,0,0-1.37,1.55c0,.11-1.13.73-1.13.73l-1.07-.36-.47-.89,1-1.19,1.47-2Z"/><path class="cls-6" d="M129.43,44.67s1.52-.16,1.83.91.39,3.07.06,3.42a3.48,3.48,0,0,0-.57.86l-.37-2.6s-.27-.42-.46-.22-.87.8-.87.8l-.28.13-1.48.55s-1.46.3-1.7-.1-1.07-1-.16-1.36a3.67,3.67,0,0,0,1.48-1.67Z"/><polygon class="cls-2" points="113.34 137.49 114.32 132.03 116.21 122.81 87.69 81.08 79.83 78.05 73.97 83.64 88.54 127.26 106.19 138.48 113.34 137.49"/><polygon class="cls-2" points="120.52 58.15 114.43 64.35 113.2 68.21 95.91 85.81 82.71 91.58 77.8 84.21 78.38 81.28 79.8 78.48 104 56.97 108.48 56.78 113.72 51.46 118.05 57.75 120.52 58.15"/><path d="M79.54,84a15.94,15.94,0,0,1-2.26,3.73c-.19.24.15.59.35.35A16.9,16.9,0,0,0,80,84.22c.13-.28-.29-.53-.42-.24Z"/><polygon class="cls-7" points="86.38 108.7 82.13 108.78 73.97 82.44 79.63 83.14 81.11 83.83 75.91 84.34 88.2 87.12 77.82 88.21 84.73 93.37 78.94 93.84 82.5 104.4 86.38 108.7"/><path class="cls-8" d="M90.1,107.3c-2.59.42-5.2.75-7.79,1.18l.21.79c3.81-1.37,7.77-2.32,11.57-3.69.49-.18.28-1-.22-.8-3.8,1.38-7.76,2.32-11.56,3.7a.41.41,0,0,0,.21.79c2.6-.42,5.2-.75,7.8-1.18.52-.09.3-.88-.22-.79Z"/><path d="M88.21,83.62a36.68,36.68,0,0,1-4.49,1.2,12.12,12.12,0,0,1-4.68.3c-.3-.06-.43.41-.13.47a12.31,12.31,0,0,0,4.68-.25,37.3,37.3,0,0,0,4.75-1.25c.29-.1.16-.57-.13-.47Z"/><path d="M113.72,67.3a34.91,34.91,0,0,1-3.58,3.07,12.26,12.26,0,0,1-4,2.26.24.24,0,0,0,.13.47,12.58,12.58,0,0,0,4.15-2.31,36.72,36.72,0,0,0,3.67-3.15c.23-.22-.12-.56-.34-.34Z"/><path class="cls-9" d="M119.69,59.07s-4.65-4.65-5.85-7.91"/><path class="cls-10" d="M147.94,154.9a32.38,32.38,0,0,0-2.44-20.29c-.2-.43-.83-.06-.63.37a31.59,31.59,0,0,1,2.37,19.72c-.1.46.61.66.7.2Z"/><polygon class="cls-1" points="126.19 108.77 125.93 99.61 127.26 97.59 130.75 95.31 133.2 89.01 130.05 86.56 128.5 73.26 116.94 69.41 105.56 72.91 103.49 86.56 101.71 88.28 103.07 94.92 104.47 95.8 104.51 99.51 107.31 103.01 107.13 110.78 103.11 115.98 107.31 130.3 116.05 134.15 127.6 121.55 133.2 113.16 126.19 108.77"/><g class="cls-11"><polygon class="cls-12" points="127.61 92.5 133.22 77.78 95.2 36.45 104.35 91.57 105.68 81.63 106.74 79.08 107.86 74.56 115.67 76.11 124.55 74.88 125.6 79.05 127.55 82.01 127.27 90.22 127.61 92.5"/></g><polygon points="123.64 83.55 123.72 81.76 119.05 80.8 118.01 82.01 123.64 83.55"/><polygon points="112.8 82.43 112.61 80.6 108.47 81.6 107.78 82.94 112.8 82.43"/><path d="M119.06,94a10.72,10.72,0,0,1-6.49,1.06c-.53-.09-.76.73-.23.81a11.72,11.72,0,0,0,7.15-1.14c.48-.25.05-1-.43-.73Z"/><path d="M123.88,101.78l-6.54,4.11H112l-3.82-2.36,3,6.44a3.65,3.65,0,0,0,1.65,1.86h0a3.76,3.76,0,0,0,1.74.43h.18a3.67,3.67,0,0,0,2.35-.85l1.35-1.14a3.62,3.62,0,0,0,.84-1l3-5.49Z"/><path d="M125.14,100.05c-1.79,1.47-3.55,3-5.33,4.46l-1.08.91c-.42.35.18.94.59.6,1.79-1.48,3.55-3,5.33-4.47l1.08-.91c.42-.34-.18-.94-.59-.59Z"/><path d="M110.18,82.84a3.78,3.78,0,0,1,0,2.65l.7-.19a1.81,1.81,0,0,1-.3-.52l-.09-.37c0-.1,0-.18,0-.32a6.77,6.77,0,0,1,0-.78c0-.12,0-.25,0-.37s0-.13,0-.07,0,0,0,0h0q0,.15-.27,0c-.15.07-.24.06-.28,0a.31.31,0,0,1,.08-.35l.18-.11h.08a.42.42,0,0,0-.42.42.42.42,0,0,0,.42.42.49.49,0,0,0,.47-.63.54.54,0,0,0-.64-.38c-.52.13-.49.83-.52,1.25a3.31,3.31,0,0,0,.65,2.5.43.43,0,0,0,.71-.19,4.44,4.44,0,0,0,0-3.09.43.43,0,0,0-.52-.29.42.42,0,0,0-.29.51Z"/><path d="M120.59,82.55a3.64,3.64,0,0,1,0,2.64l.71-.18a1.6,1.6,0,0,1-.3-.52,2.83,2.83,0,0,1-.09-.37,1.48,1.48,0,0,1,0-.33,5,5,0,0,1,0-.77c0-.13,0-.25,0-.37s0-.14,0-.08,0,0,0,0h0q0,.13-.27,0c-.16.07-.25,0-.28-.05s0-.22.07-.35l.19-.1.07,0a.42.42,0,0,0-.42.43.43.43,0,0,0,.42.42.49.49,0,0,0,.47-.63.52.52,0,0,0-.63-.38c-.53.13-.5.83-.53,1.25a3.28,3.28,0,0,0,.66,2.5.42.42,0,0,0,.7-.19,4.44,4.44,0,0,0,0-3.09.42.42,0,1,0-.81.22Z"/><path d="M130.19,91l-1.83.93a.42.42,0,0,0-.15.58.43.43,0,0,0,.57.15l1.84-.93a.42.42,0,1,0-.43-.73Z"/><path d="M129.26,90.18l-1.13,2.07a.44.44,0,0,0,.15.58.43.43,0,0,0,.58-.15L130,90.6a.42.42,0,0,0-.15-.58.44.44,0,0,0-.58.16Z"/><path d="M132.26,89.15a5.16,5.16,0,0,0-3,1,.44.44,0,0,0-.15.58.41.41,0,0,0,.57.15,4.35,4.35,0,0,1,2.54-.89.42.42,0,1,0,0-.84Z"/><polygon points="101.62 188.55 143.6 183.64 143.79 173.7 102.23 173.67 101.62 188.55"/><polygon class="cls-2" points="143.43 144.66 143 176.67 136.94 179.1 121.41 177.93 102.31 176.44 101.38 175 102.31 171.83 93.06 139.38 86.39 128.71 89.38 118.62 103.16 111.92 107.34 107.4 107.61 110.09 107.32 114.76 114.71 127.33 126.36 111.49 126.52 108.02 126.45 106.77 125.97 103.2 130.31 107.45 149.92 114.97 151.66 134.8 143.43 144.66"/><g class="cls-13"><polyline class="cls-7" points="101.71 178.43 105.12 172.28 94.14 141.53"/></g><polygon class="cls-7" points="142.65 176.81 142.23 159.01 142.24 146.65 143.03 146.89 143.24 176.63 142.65 176.81"/><path d="M96.23,140.05a28.22,28.22,0,0,1,.63,4.66c0,.75.07,1.5.09,2.24a7.19,7.19,0,0,0,.12,2c.36,1,1.22,1.11,2.15,1.24,1.41.2,2.81.4,4.23.54a28.31,28.31,0,0,0,5,.16,1.83,1.83,0,0,0,1.81-1.19,31.59,31.59,0,0,0,.69-5.74,49.33,49.33,0,0,1,.8-6.87c.11-.46-.6-.66-.7-.2-.83,3.53-.75,7.26-1.21,10.84-.08.62-.06,1.67-.53,2.12s-1.16.34-1.74.35c-.78,0-1.55,0-2.33,0-1.5-.1-3-.26-4.5-.47l-1.51-.22c-.54-.08-1.11-.09-1.38-.66a3.41,3.41,0,0,1-.1-1.2c0-.36,0-.72,0-1.08,0-.74,0-1.49-.1-2.23a28,28,0,0,0-.64-4.46c-.1-.46-.81-.26-.7.19Z"/><path d="M122.46,139.1c.21,1.64.41,3.27.6,4.91.14,1.21.28,2.41.4,3.62a1.84,1.84,0,0,0,1.34,1.72,15.61,15.61,0,0,0,2.06.15c.78.07,1.57.12,2.36.16a47.86,47.86,0,0,0,4.94.06c1.15-.05,2.65.09,3.42-.93.52-.69.44-2,.49-2.8.19-2.91,0-5.9.52-8.78.08-.46-.62-.65-.71-.19a42.59,42.59,0,0,0-.43,6.48c0,1.16-.07,2.31-.18,3.46a3,3,0,0,1-.31,1.44c-.41.55-1.26.48-1.88.53a50.76,50.76,0,0,1-8.45-.18,5.2,5.2,0,0,1-1.9-.22c-.52-.29-.53-.82-.58-1.34q-.16-1.59-.36-3.18c-.19-1.64-.39-3.27-.6-4.91-.06-.46-.79-.46-.73,0Z"/><polygon class="cls-2" points="115.25 177.43 115.25 188.3 112.67 188.3 112.67 175.77 115.25 175.77 115.25 177.43"/><polygon class="cls-2" points="107.36 177.43 107.36 188.3 104.78 188.3 104.78 175.77 107.36 175.77 107.36 177.43"/><polygon class="cls-2" points="126.86 175.9 126.86 188.24 129.7 188.24 129.7 174.24 126.86 174.24 126.86 175.9"/><rect class="cls-2" x="139.15" y="173.67" width="2.58" height="12.35"/><path d="M100.89,123.3A5.85,5.85,0,0,1,103.4,120a11.6,11.6,0,0,1,3.21-1.09l-.51-.2a13.31,13.31,0,0,1,1.12,3.42c.11.62,1,1.13,1.4,1.51,1,.81,1.92,1.61,2.87,2.43.41.37.83.73,1.22,1.12.13.13.26.26.38.4s.08.12.1.13l0,.07c-.08-.14,0-.29.14-.44-.47.33,0,1.1.45.77s0-1-.34-1.4c-.66-.68-1.39-1.3-2.11-1.91l-2.41-2c-.26-.23-.52-.45-.77-.69l-.15-.16s0,.16,0,.05a1.36,1.36,0,0,0,0-.4,12.73,12.73,0,0,0-1.19-3.31.46.46,0,0,0-.5-.21,11.2,11.2,0,0,0-3.69,1.34,7,7,0,0,0-2.65,3.63c-.2.54.66.77.86.24Z"/><path d="M107.18,120.86a17,17,0,0,0-3.4.4,22,22,0,0,0-3.25,1c-.53.21-.3,1.07.24.86a21.87,21.87,0,0,1,3.15-1,16.23,16.23,0,0,1,3.26-.39c.57,0,.57-.91,0-.89Z"/><path d="M104.86,110.18c-2.15,1.9-3.24,4.81-3.93,7.53a28,28,0,0,0-.85,5c0,.58.85.57.89,0a27.52,27.52,0,0,1,.78-4.59c.65-2.62,1.66-5.44,3.74-7.28.43-.38-.2-1-.63-.62Z"/><path d="M99.54,63.65c-2.89.18-5.51,1.77-7.74,3.49a27.91,27.91,0,0,0-3.73,3.39c-.38.43.24,1.06.63.63A27.42,27.42,0,0,1,92.11,68c2.11-1.67,4.67-3.31,7.43-3.48.56,0,.57-.93,0-.89Z"/><path d="M144.67,147.51a12.17,12.17,0,0,0-2.44-3.9,6.18,6.18,0,0,0-3.55-1.79.41.41,0,0,0-.49.28.4.4,0,0,0,.28.48,5.54,5.54,0,0,1,3.25,1.63A11.72,11.72,0,0,1,144,147.9a.39.39,0,0,0,.68-.39Z"/><path class="cls-8" d="M89.25,134a11.84,11.84,0,0,1,4.32,8.69.39.39,0,0,0,.78,0,12.62,12.62,0,0,0-4.55-9.24c-.38-.32-.93.23-.55.55Z"/><path class="cls-8" d="M141.89,144c-.81,1.37-1.27,2.92-2.09,4.29a.39.39,0,0,0,.68.4c.81-1.37,1.28-2.92,2.09-4.3.26-.43-.42-.82-.68-.39Z"/><path class="cls-8" d="M144.67,147.51a3.84,3.84,0,0,0-2.42-1.64,1.08,1.08,0,0,0-1,.33,5.06,5.06,0,0,0-.79,1,10.1,10.1,0,0,0-.65,1.09c-.23.45.45.85.68.4a11.53,11.53,0,0,1,.63-1.07c.13-.19.27-.39.42-.57l.21-.23.09-.09.06-.05h0l.1-.06h0l.12,0a2.71,2.71,0,0,1,.67.25,3,3,0,0,1,1.22,1c.27.43.95,0,.68-.39Z"/><path class="cls-8" d="M143.43,145.77a1.34,1.34,0,0,0-1-.26,2.82,2.82,0,0,1-.41,0h0l-.08,0h0c.11,0,.07,0,0,0l0,0c-.05,0,.08.06,0,0l-.56.56c.24.19.54.46.88.33a.44.44,0,0,0,.24-.18.45.45,0,0,0,0-.3l-.35-1-.66.38.81,1a.38.38,0,0,0,.55,0,.39.39,0,0,0,0-.55l-.8-1a.39.39,0,0,0-.66.38l.35,1,.27-.48h0c-.07,0,.09,0,0,0s.08,0,0,0l-.06,0s0,0-.05,0l0,0,0,0a.39.39,0,0,1-.1-.08.43.43,0,0,0-.28-.11.41.41,0,0,0-.28.11.4.4,0,0,0,0,.56,1.38,1.38,0,0,0,1,.26h.4s.09,0,0,0h0l.07,0h0c-.11,0-.07,0,0,0l0,0,0,0a.4.4,0,0,0,.56,0,.4.4,0,0,0,0-.55Z"/><path class="cls-8" d="M138.77,173.37c-1,.55-1.94,1.21-3,1.76a34,34,0,0,1-5.41,2.22c-.54.19-.31,1.05.24.86a36.88,36.88,0,0,0,5.56-2.28c1-.56,2-1.23,3-1.79.51-.28.06-1-.45-.77Z"/><path d="M137.74,130.23q-8.84,1.22-17.73,1.93c-.57,0-.57.93,0,.88q9-.71,18-2c.56-.07.32-.93-.24-.85Z"/><path d="M119.63,132.64c-.89,1.8-.72,3.82-1.16,5.74-.13.56.73.79.86.24.42-1.83.22-3.82,1.06-5.54.25-.51-.51-1-.76-.44Z"/><path d="M137.59,130.87a18.74,18.74,0,0,1-.1,7.12c-.12.56.74.8.85.24a19.58,19.58,0,0,0,.1-7.59c-.1-.57-.95-.33-.85.23Z"/><path d="M137.87,137.78l-1.74.38a.43.43,0,0,0-.31.54.44.44,0,0,0,.54.31l1.75-.37a.45.45,0,0,0,.31-.55.46.46,0,0,0-.55-.31Z"/><path class="cls-8" d="M113.81,176.65c0-2.86,1.54-5.54,1.8-8.4s.24-5.55.26-8.31c0-6.51-.08-13-.2-19.55-.06-3-.13-6.11-.17-9.17a.45.45,0,0,0-.89,0c.17,11.9.79,23.86.2,35.76a21.22,21.22,0,0,1-1,5.47,13.86,13.86,0,0,0-.87,4.2.45.45,0,0,0,.89,0Z"/><path d="M111,133.56a9.94,9.94,0,0,1-1.38,6.29c-.28.5.49,1,.77.45a10.9,10.9,0,0,0,1.47-7,.45.45,0,0,0-.86.24Z"/><path d="M110.91,133.15a54.52,54.52,0,0,0-15,1.51c-.56.13-.33,1,.23.86A53.62,53.62,0,0,1,110.91,134c.57,0,.57-.87,0-.89Z"/><path d="M95.91,135a11.88,11.88,0,0,1-.67,4.84c-.19.54.67.77.86.24a12.53,12.53,0,0,0,.7-5.08c0-.56-.93-.57-.89,0Z"/><path d="M110.2,139.49a41.08,41.08,0,0,1-5.49.43c-2.64.17-5.29.33-7.93.53a16,16,0,0,0-2.3.23c-.56.12-.32,1,.24.86a39.21,39.21,0,0,1,5.48-.44c2.65-.17,5.29-.33,7.93-.53a14.69,14.69,0,0,0,2.3-.23c.56-.12.33-1-.23-.85Z"/><line class="cls-14" x1="107.6" y1="121.34" x2="103.91" y2="122"/><path d="M106.72,118.59a6.78,6.78,0,0,0-3.68,1,6.69,6.69,0,0,0-2.21,2.33l.06.69,5.79-1.49.78.21Z"/><path d="M131.27,117.94c-1.25.06-2.5.21-3.74.34-.62.06-1.24.13-1.86.18l-.86.05h-.19l.07.07a.88.88,0,0,1,0-.15c.06-.19.12-.38.19-.57l-.88-.12a1.38,1.38,0,0,0,.45,1.22.89.89,0,0,0,1.23-.22.87.87,0,0,0-.27-1.21.63.63,0,0,0-.91.64c0,1,1.4.86,2,.7.41-.1.82-.23,1.23-.33a2.15,2.15,0,0,1,1-.09.45.45,0,0,0,.24-.86,11.7,11.7,0,0,0-3.24-.09c-.57,0-.57.86,0,.88a11.14,11.14,0,0,1,3,.07l.24-.86a3.66,3.66,0,0,0-1.88.21c-.32.09-.64.18-1,.25a3.07,3.07,0,0,1-.42.07,1.48,1.48,0,0,0-.21,0h0c-.12-.07-.17,0-.18.15h-.45c.12,0,.06,0,.06-.06s0-.31,0-.46c0-.51-.71-.58-.87-.11a2.56,2.56,0,0,0-.27,1.15.76.76,0,0,0,.77.61,14,14,0,0,0,2.15-.15c1.52-.15,3-.35,4.55-.42.57,0,.57-.91,0-.89Z"/><path class="cls-2" d="M143.8,185.75c0-.06-.08-3.78-.15-3.77l-1.92.87s-1.13,0-1.14,0l-40-4.37c-.06,0-.11,3.71-.13,3.76l-1.17,2.59v0l-1.4,4.51H145Z"/><g class="cls-15"><rect class="cls-7" x="80.38" y="170.47" width="21.82" height="20.48"/></g><path class="cls-2" d="M144.87,217.63h0a.12.12,0,0,0,.21.11l0,0v-.05A.12.12,0,0,0,144.87,217.63Z"/><path d="M114.23,188.81c.65-2.51,1.41-5,2.2-7.45.17-.55-.69-.78-.86-.24-.79,2.47-1.55,4.94-2.2,7.45a.45.45,0,0,0,.86.24Z"/><path d="M111.6,188.92c.34-1.43.59-2.86,1-4.26a16.08,16.08,0,0,1,.78-2.14,5.31,5.31,0,0,1,.44-.81.93.93,0,0,1,.35-.34c.52-.26.07-1-.45-.77a2.75,2.75,0,0,0-1,1.33,15.81,15.81,0,0,0-.86,2.23c-.47,1.49-.74,3-1.1,4.52-.13.55.72.79.86.24Z"/><path class="cls-8" d="M88.76,133.57a11,11,0,0,1,2.75,4.08.41.41,0,0,0,.51.28.41.41,0,0,0,.28-.5,12,12,0,0,0-3-4.44c-.39-.36-1,.22-.58.58Z"/><path d="M89.9,120.9c3.7,0,7.36-.86,11.06-.88a.37.37,0,0,0,0-.73c-3.7,0-7.36.86-11.06.88a.37.37,0,0,0,0,.73Z"/><path d="M90.25,120.63s0,0,0,0,0,0,0,0,0-.09.07-.14.1-.2.16-.3.27-.47.42-.71c.27-.43.54-.86.82-1.29l.18-.27a.36.36,0,0,0-.13-.5.37.37,0,0,0-.5.13c-.49.73-1,1.46-1.4,2.22a6.22,6.22,0,0,0-.33.69.36.36,0,0,0,.25.45.37.37,0,0,0,.45-.25Z"/><path d="M133.82,114.15l6.23,1.49c.42.11.6-.54.18-.64L134,113.5c-.42-.1-.6.55-.18.65Z"/><polygon class="cls-16" points="130.28 118.55 134.49 120.14 133.88 116.98 139.93 117.75 138.18 122.12 137.85 128.95 134.83 128.53 132.89 127.55 130.98 125.82 130.13 123.15 130.28 118.55"/><path d="M141.33,117.68c-1.18,3.14-2.49,4.92-1.73,8.18a12.78,12.78,0,0,1,.53,2.63c0,.59-2.06,1.28-2.28.46-.89-3.44-.61-8.26,1.21-11.31"/><path d="M134.26,124.27a17.89,17.89,0,0,0,2.33-1.94c.73-.69,1.45-1.4,2.19-2.08.34-.32-.17-.84-.52-.52-.73.67-1.42,1.37-2.14,2a16.49,16.49,0,0,1-2.23,1.87c-.4.26,0,.89.37.63Z"/><polygon class="cls-16" points="135.03 111.02 139.35 112.28 143.16 113.61 141.67 111.23 136.02 110.45 133.65 110.45 135.03 111.02"/><path d="M130,107.77c2.69,3.33,3.44,8.22,3.83,12.36l.76-.32c-2.69-2.61-6.66-2.29-10.06-3.15a.45.45,0,0,0-.5.21,15.44,15.44,0,0,0-1.2,5.9l.56-.43c-1.52-.31-2.95.5-4.15,1.34-1.41,1-2.64,2.2-4,3.27-.45.35.18,1,.63.62,1.15-.9,2.2-1.92,3.37-2.8s2.5-1.86,3.9-1.57a.45.45,0,0,0,.56-.43,14.63,14.63,0,0,1,1.08-5.45l-.5.2c3.21.8,7.14.46,9.67,2.92.26.25.8.09.76-.31-.42-4.42-1.23-9.44-4.09-13-.36-.45-1,.19-.63.63Z"/><path d="M133.79,116.92a50.26,50.26,0,0,0,5,.9c1.21.18,2.46.27,3.65.56a.36.36,0,0,0,.19-.7c-1.18-.3-2.44-.38-3.64-.56a50.29,50.29,0,0,1-5-.91.37.37,0,0,0-.2.71Z"/><path d="M132.46,110.8c1.79.49,3.54,1.08,5.29,1.67a45.4,45.4,0,0,1,5.22,2c.43.2.8-.43.37-.63a46.33,46.33,0,0,0-5.27-2c-1.79-.61-3.59-1.22-5.41-1.71a.36.36,0,0,0-.2.7Z"/><path d="M119.12,139.4a115.41,115.41,0,0,0,16.94-.45c.56-.06.57-.95,0-.89a114,114,0,0,1-16.94.45c-.57,0-.57.86,0,.89Z"/><path d="M114.66,82.92c.37.93-.26,2.09-.7,2.9s-1.07,1.71-1.64,2.53c-.24.33.31.65.54.32a25.35,25.35,0,0,0,1.78-2.79c.47-.9,1-2.11.63-3.13-.15-.37-.76-.21-.61.17Z"/><path d="M112.88,87.57a1.67,1.67,0,0,0-.76,1.47,1.85,1.85,0,0,0,.88,1.64,3.88,3.88,0,0,0,2.29.76,4.12,4.12,0,0,0,1.25-.28,2.46,2.46,0,0,0,1-.58,1.27,1.27,0,0,0,.33-1.1c-.05-.36-.24-.65-.64-.63s-.41.66,0,.64c.09,0,.09,0,0-.06v0a1.25,1.25,0,0,0,0,.19.56.56,0,0,1-.1.4,1.63,1.63,0,0,1-.88.53,3,3,0,0,1-1.17.23,3.08,3.08,0,0,1-1.07-.28c-.51-.22-1.19-.58-1.28-1.19a1.23,1.23,0,0,1,.44-1.23c.36-.17,0-.72-.32-.54Z"/><path class="cls-17" d="M125.59,139.1s5.75,22,13.41,20.55,6.65-9,6.65-9"/><path class="cls-17" d="M142.42,117.75s3-4.49,3.12-4.51"/><path class="cls-17" d="M142,117.92s.89-4.77,2.38-5.08"/><ellipse class="cls-18" cx="142.6" cy="124.83" rx="1.4" ry="0.75" transform="translate(-44.51 154.97) rotate(-50.35)"/><ellipse class="cls-18" cx="142.73" cy="126.78" rx="1.4" ry="0.75" transform="translate(-45.96 155.77) rotate(-50.35)"/><ellipse class="cls-18" cx="142.81" cy="128.85" rx="1.4" ry="0.75" transform="translate(-47.53 156.58) rotate(-50.35)"/><ellipse class="cls-18" cx="142.88" cy="131.13" rx="1.4" ry="0.75" transform="translate(-49.26 157.46) rotate(-50.35)"/><ellipse class="cls-18" cx="142.76" cy="133.36" rx="1.4" ry="0.75" transform="translate(-51.02 158.18) rotate(-50.35)"/><ellipse class="cls-18" cx="142.76" cy="135.48" rx="1.4" ry="0.75" transform="translate(-52.65 158.95) rotate(-50.35)"/><ellipse class="cls-18" cx="142.99" cy="137.73" rx="1.4" ry="0.75" transform="translate(-54.3 159.94) rotate(-50.35)"/><ellipse class="cls-18" cx="143.07" cy="140.01" rx="1.4" ry="0.75" transform="translate(-56.03 160.82) rotate(-50.35)"/><ellipse class="cls-18" cx="143.5" cy="142.4" rx="1.4" ry="0.75" transform="translate(-57.71 162.02) rotate(-50.35)"/><ellipse class="cls-18" cx="143.82" cy="144.58" rx="1.4" ry="0.75" transform="translate(-59.27 163.05) rotate(-50.35)"/><ellipse class="cls-18" cx="144.31" cy="146.89" rx="1.4" ry="0.75" transform="translate(-60.87 164.26) rotate(-50.35)"/><path class="cls-18" d="M145.82,148.11c.19.4-.11,1.14-.67,1.65s-1.16.6-1.35.2.45-1.4,1-1.92S145.63,147.7,145.82,148.11Z"/><ellipse class="cls-18" cx="145.71" cy="150.91" rx="1.4" ry="0.75" transform="translate(-63.46 166.8) rotate(-50.35)"/><ellipse class="cls-18" cx="146.62" cy="152.78" rx="1.4" ry="0.75" transform="matrix(0.64, -0.77, 0.77, 0.64, -64.57, 168.18)"/><ellipse class="cls-18" cx="147.46" cy="154.32" rx="1.4" ry="0.75" transform="matrix(0.64, -0.77, 0.77, 0.64, -65.45, 169.38)"/><path class="cls-19" d="M142,123.89l.42-7.48.82.09a.75.75,0,0,1,.43.73l-.77,6Z"/><path d="M142,124.4l0,0s0,0,0,0l.05.07.06.1v0s0,0,0,0,0,.13,0,.17,0-.09,0,0v.07s0,.11,0,0,0,0,0,.07a.57.57,0,0,1,0,.14c0,.07,0-.07,0,0l0,.07-.08.13,0,0c0,.05.05-.07,0,0l-.1.11-.2.2-.29.26a.36.36,0,1,0,.51.51l.34-.29a2.75,2.75,0,0,0,.46-.56,1.37,1.37,0,0,0,.22-.79,1.58,1.58,0,0,0-.42-1,.37.37,0,0,0-.52.52Z"/><path d="M142.32,126.49l.05.05h0a.35.35,0,0,0,0,.08.47.47,0,0,1,.05.1l0,0s0,0,0,0,0,.13.05.17,0-.09,0,0V127s0,.11,0,0a.17.17,0,0,1,0,.07c0,.05,0,.1,0,.14s0-.07,0,0a.16.16,0,0,0,0,.07l-.08.13,0,0s.06-.07,0,0l-.09.11-.2.2c-.1.09-.2.16-.3.26a.37.37,0,0,0,0,.51.37.37,0,0,0,.52,0l.34-.29a2.75,2.75,0,0,0,.46-.56,1.37,1.37,0,0,0,.22-.79,1.62,1.62,0,0,0-.42-1,.37.37,0,0,0-.52,0,.38.38,0,0,0,0,.52Z"/><path d="M142.52,129l.08.09c-.06-.07,0,0,0,0l0,.06,0,.05s0,0,0,0a.56.56,0,0,0,0,.15c0,.06,0-.1,0,0v.06c0,.05,0,.11,0,0s0,.05,0,.08a.43.43,0,0,0,0,.05s-.06.1,0,0c-.05.08-.09.17-.15.25s.05-.05,0,0l0,.06a.47.47,0,0,1-.1.1c-.06.07-.13.13-.19.19a3.61,3.61,0,0,0-.3.25.35.35,0,0,0,0,.51.36.36,0,0,0,.51,0,7.17,7.17,0,0,0,.58-.52,1.3,1.3,0,0,0,0-1.94.37.37,0,0,0-.52.52Z"/><path d="M142.66,131.6l.09.1,0,0s0,0,0,0l0,.06,0,.05s0-.08,0,0a.43.43,0,0,1,0,.05s0,.08,0,0,0,0,0,0v0s0,.08,0,0,0,0,0,0a.43.43,0,0,0,0,.05s0,.07,0,0,0,0,0,0,0,0,0,.05l-.06.08c0,.05,0,0,0,0l0,0-.15.16-.16.13s.08-.06,0,0l0,0-.08.05a3.81,3.81,0,0,0-.32.24.35.35,0,0,0,0,.51.37.37,0,0,0,.52,0l-.05,0,0,0,.06,0,.15-.1c.14-.11.28-.21.41-.33a1.26,1.26,0,0,0,.48-1,1.17,1.17,0,0,0-.39-.72.36.36,0,0,0-.51,0,.37.37,0,0,0,0,.52Z"/><path d="M142.64,133.62l.1.1s0,.06,0,0l0,0,0,.05v0s0-.08,0,0,0,0,0,0,0,.08,0,0,0,0,0,0v0c0,.07,0,0,0,0v0l0,.05c0,.06,0,0,0,0s0,.08-.05.09l0,0s0,.07,0,0,0,0,0,0l0,0-.16.15-.08.06s0,0,0,0l0,0,0,0-.17.11-.25.18a.41.41,0,0,0-.17.22.35.35,0,0,0,0,.28.37.37,0,0,0,.5.13c.22-.17.46-.3.67-.48a1.2,1.2,0,0,0,.49-1,1,1,0,0,0-.37-.69.38.38,0,0,0-.52,0,.37.37,0,0,0,0,.52Z"/><path d="M142.78,135.5l.1.09,0,0s0-.06,0,0a.1.1,0,0,0,0,0,.08.08,0,0,0,0,.05c0,.05,0-.08,0,0s0,.09,0,.11,0-.1,0-.06v.07c0,.07,0,0,0,0a.21.21,0,0,1,0,.06.08.08,0,0,1,0,0v0s0-.06,0-.05,0,.07,0,.09l-.06.08c0,.05.06-.07,0,0l0,0a.71.71,0,0,1-.15.15l-.08.07,0,0h0l0,0-.16.12-.32.23a.36.36,0,0,0-.11.26.37.37,0,0,0,.62.26l0,0h0l.06,0,.15-.1c.14-.11.28-.21.41-.33a1.21,1.21,0,0,0,.48-1,1.11,1.11,0,0,0-.38-.71.38.38,0,0,0-.52,0,.37.37,0,0,0,0,.52Z"/><path d="M143,137.88l.1.08,0,0s-.06-.08,0,0l0,0v0s0-.09,0-.05l0,0s0,.09,0,0,0,0,0,0,0-.1,0,0a.09.09,0,0,1,0,.05s0,0,0,0l0-.06v0l-.05.08,0,0c0,.05.06-.07,0,0l-.07.08a1.07,1.07,0,0,1-.16.14l0,0,0,0,.05,0-.09.06-.16.11-.26.17a.36.36,0,0,0-.16.22.35.35,0,0,0,0,.28.37.37,0,0,0,.5.13l.25-.16a4.56,4.56,0,0,0,.42-.31,1.15,1.15,0,0,0,.5-.92,1,1,0,0,0-.37-.67.43.43,0,0,0-.26-.11.36.36,0,0,0-.26.11.37.37,0,0,0,0,.52Z"/><path d="M143.18,139.72l.08.09h0l0,0a.43.43,0,0,0,0,.07l0,0s0,0,0,0a.26.26,0,0,0,0,.08.19.19,0,0,0,0,.08s0-.08,0,0v.08c0,.1,0-.06,0,0a.07.07,0,0,1,0,.05s0,.05,0,.08,0-.06,0,0l-.06.12-.05.06s-.06.08,0,0l0,0-.05.06-.09.1-.21.18-.3.25a.36.36,0,0,0,0,.51.37.37,0,0,0,.52,0,6.94,6.94,0,0,0,.59-.51,1.24,1.24,0,0,0,0-1.88.36.36,0,0,0-.52.51Z"/><path d="M143.76,142.48l.07.07,0,0s0,0,0,0l0,.07a.25.25,0,0,0,0,.07c0-.06,0-.07,0,0v0s0,0,0,.06,0-.1,0,0a.13.13,0,0,0,0,.06c0,.06,0-.1,0,0s0,0,0,.06a.14.14,0,0,0,0,.06c0-.06,0-.08,0,0l0,0a.41.41,0,0,1-.07.11s-.07.09,0,0,0,0-.05,0l-.2.2-.1.09a.1.1,0,0,0-.05,0c.09-.08,0,0,0,0s-.25.17-.37.27a.37.37,0,0,0,0,.52.38.38,0,0,0,.52,0c.05-.05-.09.06,0,0l.06,0,.16-.11a3.19,3.19,0,0,0,.4-.33,1.29,1.29,0,0,0,.47-1,1.18,1.18,0,0,0-.38-.74.37.37,0,1,0-.52.52Z"/><path d="M144,144.44l.08.07,0,0s0,0,0,0,0,.05.05.07l0,.07v0s0,.05,0,.07,0-.11,0,0v.06c0,.06,0-.1,0,0s0,0,0,.06l0,.06c0-.06,0-.07,0,0v0L144,145s-.07.09,0,0l0,.05-.19.19-.11.09-.05,0c-.07.06.06,0,0,0l-.37.28a.37.37,0,0,0,.52.52l0,0s-.09.07,0,0l.06-.05L144,146a4.23,4.23,0,0,0,.41-.33,1.33,1.33,0,0,0,.47-1,1.25,1.25,0,0,0-.39-.76.37.37,0,0,0-.52.52Z"/><path d="M144.49,146.91l.1.1s.06.06,0,0,0,0,0,0l0,.05v0s0-.09,0-.05,0,0,0,0,0,.09,0,0,0,0,0,0,0-.09,0,0a.09.09,0,0,1,0,.05v0c0,.06,0-.05,0,0l0,.09-.06.08s.06-.07,0,0l0,0-.15.15-.08.06,0,0,0,0,0,0a.91.91,0,0,1-.16.11l-.26.18a.41.41,0,0,0-.17.22.39.39,0,0,0,0,.28.36.36,0,0,0,.5.13c.22-.17.46-.3.67-.48a1.26,1.26,0,0,0,.49-1,1.07,1.07,0,0,0-.38-.7.37.37,0,1,0-.52.52Z"/><path d="M144.9,148.85l.07.07,0,0s0,0,0,0,0,.05,0,.07a.25.25,0,0,1,0,.07c0-.06,0-.07,0,0v0s0,0,0,.07,0-.06,0,0v.06c0,.06,0-.1,0,0s0,0,0,.06,0,0,0,.05,0-.07,0,0v0l-.07.12,0,.06c.07-.1,0,0,0,0a2.08,2.08,0,0,1-.21.21l-.09.08,0,0c-.07.06.06,0,0,0l-.37.28a.37.37,0,0,0,0,.52.38.38,0,0,0,.52,0c.06-.06-.06,0,0,0l.06,0,.15-.11a4.62,4.62,0,0,0,.41-.34,1.31,1.31,0,0,0,.47-1,1.27,1.27,0,0,0-.39-.75.37.37,0,0,0-.52.52Z"/><path d="M145.66,150.9l.1.1,0,0,0,0,.05.07s0,0,0,0,0-.07,0,0l0,0s0,.08,0,0,0,0,0,0v0s0,.08,0,0,0,0,0,0l0,0s0,.07,0,0,0,0,0,0l0,0-.05.09,0,0s0,0,0,0l-.16.16-.16.13s.08-.06,0,0l0,0-.07.06L145,152a.37.37,0,0,0,0,.52.4.4,0,0,0,.52,0s-.09.06-.05,0h0l.06,0,.15-.1a3.19,3.19,0,0,0,.4-.33,1.25,1.25,0,0,0,.48-1,1.16,1.16,0,0,0-.38-.72.37.37,0,0,0-.52.52Z"/><path d="M146.52,152.72l.07.07,0,0s0,0,0,0l.05.07,0,.07c0-.06,0-.07,0,0v0a.64.64,0,0,1,0,.07c0,.05,0-.11,0,0v.07c0,.06,0-.11,0,0s0,0,0,.06a.14.14,0,0,0,0,.06c0-.06,0-.07,0,0v0l-.07.12s-.08.08,0,0l0,.06-.2.2-.1.08-.06,0c.1-.08,0,0,0,0s-.25.17-.37.27a.35.35,0,0,0,0,.51.37.37,0,0,0,.52,0l0,0,.06,0,.15-.11A2.69,2.69,0,0,0,147,154a1.31,1.31,0,0,0,.47-1,1.15,1.15,0,0,0-.39-.74.36.36,0,1,0-.51.52Z"/><path d="M147.25,154.13l.07.08s0,0,0,0l0,0s0,.11.08.14,0-.06,0,0v0s0,.06,0,.08,0-.08,0,0v.09c0,.1,0-.06,0,0s0,0,0,.07l0,.07c0,.07,0-.08,0,0a.54.54,0,0,1-.07.13.43.43,0,0,1,0,.07c-.05.07,0,0,0,0a3.59,3.59,0,0,1-.39.39l-.1.07c-.06.06.07,0,0,0l0,0c-.06.05-.13.09-.19.15a.37.37,0,0,0,0,.52.38.38,0,0,0,.52,0l0,0,0,0,0,0,.21-.16a2.5,2.5,0,0,0,.34-.31,1.37,1.37,0,0,0,.45-1.07,1.32,1.32,0,0,0-.39-.79.37.37,0,1,0-.52.52Z"/><polygon class="cls-7" points="143.13 182.22 143.13 186.01 144.5 189.31 144.96 189.31 143.76 184.82 143.65 181.98 143.13 182.22"/><path class="cls-20" d="M124,131.28l-.41,0,.12-.56.15,0a.77.77,0,0,0,.35-.09.46.46,0,0,0,.18-.21.89.89,0,0,0,.07-.31c0-.13,0-.32,0-.58v0a.47.47,0,0,0-.06-.2.24.24,0,0,0-.13-.11.52.52,0,0,0-.26,0l-1.08.11-.16-1.54.69-.07.11,1,.48-.05a1.12,1.12,0,0,1,.77.13.81.81,0,0,1,.31.62v.71a1.14,1.14,0,0,1-.28.84A1.34,1.34,0,0,1,124,131.28Z"/><path class="cls-20" d="M126.24,127.88l-.14,1-.58.06.3-1Zm.88-.09-.14,1-.58.06.31-1Z"/><path class="cls-20" d="M130.4,130.61l-.69.07-.15-1.45a.73.73,0,0,0-.2-.46.65.65,0,0,0-.51-.12l-.39.06-.68.19v-.56a5,5,0,0,1,1.16-.27,1.21,1.21,0,0,1,.91.22,1.19,1.19,0,0,1,.39.84Zm-1.68.17-.69.08-.16-1.51.66-.4Z"/><path class="cls-20" d="M130.87,130l1.31-.14-1.52-1.67.59-.37,1,1.07a.87.87,0,0,0,.08-.26,1,1,0,0,0,0-.35l-.05-.51.67-.07.06.56a1.1,1.1,0,0,1-.06.52,1.66,1.66,0,0,1-.36.53l.48.54-.06.49-2.19.23Z"/><path d="M74.36,84.76c0-.06,0,.09,0,0l0-.06.09-.18.21-.4c.19-.34.39-.67.59-1a12,12,0,0,1,1.39-1.89l.2-.19L77,81c.07-.07,0,0,0,0l.16-.1s-.08,0,0,0l.07,0a.42.42,0,0,0,.29-.51.41.41,0,0,0-.5-.28,1.47,1.47,0,0,0-.76.46,6.21,6.21,0,0,0-.79.91A17.44,17.44,0,0,0,74,83.62a7.89,7.89,0,0,0-.46.92.41.41,0,1,0,.79.22Z"/><path d="M113.92,51.05c0-.06,0,.09,0,0l0-.06a1.42,1.42,0,0,1,.08-.18l.21-.4c.19-.34.39-.68.59-1a11.42,11.42,0,0,1,1.4-1.89l.19-.19.09-.08c.07-.06,0,0,0,0l.15-.09s-.08,0,0,0h.08a.42.42,0,0,0,.29-.51.44.44,0,0,0-.51-.29,1.66,1.66,0,0,0-.76.46,7.67,7.67,0,0,0-.79.92,18.64,18.64,0,0,0-1.42,2.19,7.89,7.89,0,0,0-.46.92.42.42,0,0,0,.29.51.43.43,0,0,0,.51-.29Z"/><path class="cls-9" d="M91.13,87.37s3,5.87,5.69,8"/><text class="cls-21" transform="translate(29.11 263.12)">דומם מנוע</text></svg>