<svg xmlns="http://www.w3.org/2000/svg" xmlns:xlink="http://www.w3.org/1999/xlink" viewBox="0 0 222.66748 273.8"><defs><style>.a,.f{fill:#cab192;}.b{fill:#747c58;}.c{fill:#ededed;}.d{fill:#cecece;}.e{fill:#fff;}.f{stroke:#231f20;stroke-width:0.2px;}.f,.g,.j,.k,.s,.v{stroke-miterlimit:10;}.g,.j,.k,.r,.s,.v{fill:none;}.g,.j,.k,.v{stroke:#000;}.g,.j,.k,.q,.r,.s,.v{stroke-linecap:round;}.g{stroke-width:0.8px;}.h{fill:#27421d;}.i{fill:#54593e;}.j{stroke-width:1.38334px;}.k{stroke-width:1.10591px;}.l{fill:#080808;}.m{clip-path:url(#a);}.n{fill:#271d1d;}.o{clip-path:url(#b);}.p{fill:#707171;}.q{fill:#284220;}.q,.r,.s{stroke:#27421d;stroke-width:2px;}.q,.r{stroke-linejoin:round;}.t{fill:#525222;}.u{fill:#231f20;}</style><clipPath id="a"><polygon class="a" points="149.278 93.107 146.875 83.403 148.108 81.511 152.166 78.797 153.88 72.055 149.832 70.063 143.886 57.107 130.744 54.885 119.289 60.036 119.296 74.144 117.554 76.158 120.281 82.655 121.628 83.389 122.33 87.13 126.16 90.237 127.722 98.065 124.004 103.942 131.335 117.77 142.064 120.315 153.135 105.807 158.102 96.458 149.278 93.107"/></clipPath><clipPath id="b"><polygon class="b" points="168.844 165.601 161.802 168.084 143.743 166.883 121.539 165.365 120.456 163.89 121.539 160.651 110.787 127.48 103.023 116.57 106.505 106.252 122.531 99.403 127.392 94.786 127.706 97.532 127.36 102.305 135.958 115.154 149.497 98.964 149.352 91.237 154.091 94.837 172.189 101.57 173.547 123.818 171.346 130.687 168.844 165.601"/></clipPath></defs><circle class="c" cx="111.3335" cy="112.50666" r="108.83386"/><path class="d" d="M111.3335,6.173c58.48339,0,106.334,47.85008,106.334,106.33358v.00023c0,58.48346-47.85059,106.33358-106.334,106.33358S5,170.99025,5,112.50679v-.00023C5,54.02306,52.8501,6.173,111.3335,6.173m0-5A111.20485,111.20485,0,0,0,32.7002,191.14037,111.20489,111.20489,0,1,0,189.96729,33.873a110.54262,110.54262,0,0,0-78.63379-32.7Z"/><path class="e" d="M20.66357,255.17292v9.42432a.6906.6906,0,0,1-.71289.71289H18.64893a.68912.68912,0,0,1-.71289-.71289v-9.269q0-5.3313-5.30079-5.332H10.37158q-.31054,1.79809-.44922,3.13086a29.27938,29.27938,0,0,0-.13965,3.03809l.06153,8.43213a.723.723,0,0,1-.18555.51123.64089.64089,0,0,1-.49609.20166l-4.3086-.062a.68914.68914,0,0,1-.71289-.71289v-.93017a.68914.68914,0,0,1,.71289-.71289l2.35547.03076v-6.63379q0-1.98341.1084-3.31689a21.65831,21.65831,0,0,1,.48047-2.97608H6.15576a.72368.72368,0,0,1-.51172-.186.64128.64128,0,0,1-.20215-.4961v-.9917a.69069.69069,0,0,1,.71387-.71338h6.63379Q20.66308,247.609,20.66357,255.17292Z"/><path class="e" d="M25.51416,265.10847a.68981.68981,0,0,1-.20117-.51123V248.32233a.68915.68915,0,0,1,.71289-.71338h1.36426a.69064.69064,0,0,1,.71289.71338v16.27491a.69061.69061,0,0,1-.71289.71289H26.02588A.69212.69212,0,0,1,25.51416,265.10847Z"/><path class="e" d="M41.38721,265.10847a.7345.7345,0,0,1-.543.20166h-8.2461a.68914.68914,0,0,1-.71289-.71289v-.99219a.68914.68914,0,0,1,.71289-.71289h6.07618l-.4961-7.874a28.92623,28.92623,0,0,0-.29492-2.94482,2.82439,2.82439,0,0,0-.75976-1.55029,2.54262,2.54262,0,0,0-1.85938-.58887H34.02393a.72525.72525,0,0,1-.51172-.186.64051.64051,0,0,1-.20117-.49609v-.9917a.68915.68915,0,0,1,.71289-.71338h1.27148a5.69,5.69,0,0,1,3.42578.88379,4.48194,4.48194,0,0,1,1.64258,2.43359,19.36087,19.36087,0,0,1,.60449,4.061l.58887,9.67188A.60254.60254,0,0,1,41.38721,265.10847Z"/><path class="e" d="M53.97217,265.10847a.73217.73217,0,0,1-.542.20166h-8.2461a.68912.68912,0,0,1-.71289-.71289v-.99219a.68912.68912,0,0,1,.71289-.71289h6.07617l-.49609-7.874a29.21318,29.21318,0,0,0-.29492-2.94482,2.82433,2.82433,0,0,0-.75977-1.55029,2.54415,2.54415,0,0,0-1.85937-.58887H46.60986a.72529.72529,0,0,1-.51172-.186.64055.64055,0,0,1-.20117-.49609v-.9917a.68915.68915,0,0,1,.71289-.71338h1.27149a5.68673,5.68673,0,0,1,3.4248.88379,4.48336,4.48336,0,0,1,1.64356,2.43359,19.369,19.369,0,0,1,.60351,4.061l.58985,9.67188A.60606.60606,0,0,1,53.97217,265.10847Z"/><path class="e" d="M58.28174,265.10847a.69056.69056,0,0,1-.20215-.51123V248.32233a.69064.69064,0,0,1,.71289-.71338h1.36426a.68915.68915,0,0,1,.71289.71338v16.27491a.68912.68912,0,0,1-.71289.71289H58.79248A.68987.68987,0,0,1,58.28174,265.10847Z"/><path class="e" d="M65.87549,265.10847a.68981.68981,0,0,1-.20117-.51123v-1.02295a.68915.68915,0,0,1,.71289-.71338H70.8208a5.18612,5.18612,0,0,0,3.96777-1.36377,6.06559,6.06559,0,0,0,1.39454-3.96778q.03075-.43433.03125-1.08545,0-.61962-.03125-1.05371a5.87863,5.87863,0,0,0-1.37989-3.98339,5.2721,5.2721,0,0,0-3.98242-1.34864H66.38721a.68912.68912,0,0,1-.71289-.71289v-1.023a.68915.68915,0,0,1,.71289-.71338H70.9751q3.96827,0,5.85937,1.96875a8.32084,8.32084,0,0,1,2.01465,5.68848q.03077.43433.03125,1.17773,0,.74415-.03125,1.209a8.32122,8.32122,0,0,1-2.01465,5.689q-1.89111,1.96875-5.85937,1.96827H66.38721A.6921.6921,0,0,1,65.87549,265.10847Z"/><path class="e" d="M99.5415,248.41511a4.84536,4.84536,0,0,1,2.40235,2.57324,12.35088,12.35088,0,0,1,.74414,4.71191,9.038,9.038,0,0,1-1.95313,6.18457,11.50209,11.50209,0,0,1-5.084,3.27051l-1.30176.43359a.53972.53972,0,0,1-.21777.03125.558.558,0,0,1-.55762-.58886v-1.36426a.7581.7581,0,0,1,.18652-.48047,1.17825,1.17825,0,0,1,.4961-.35644l1.209-.46485a7.13413,7.13413,0,0,0,3.28516-2.32519,7.33074,7.33074,0,0,0,1.14746-4.46387,8.72994,8.72994,0,0,0-.49609-3.27051,3.1662,3.1662,0,0,0-1.62793-1.7207,7.52414,7.52414,0,0,0-3.11524-.52686H93.605l-2.85254-.03125a.72533.72533,0,0,1-.51172-.186.64286.64286,0,0,1-.20117-.49561v-5.332a.68838.68838,0,0,1,.71289-.71289h1.24024a.6422.6422,0,0,1,.49609.20117.72582.72582,0,0,1,.18555.51172v3.5957H95.062A10.37414,10.37414,0,0,1,99.5415,248.41511Z"/><path class="e" d="M106.20557,265.10847a.68982.68982,0,0,1-.20118-.51123v-.99219a.68914.68914,0,0,1,.7129-.71289H115.645v-7.564q0-5.30127-5.30078-5.30127h-3.31641a.68838.68838,0,0,1-.71289-.71289v-.9917a.68915.68915,0,0,1,.71289-.71338h3.47168q3.96827,0,5.95215,1.92237a7.55,7.55,0,0,1,1.98438,5.67285v7.688h1.14648a.68912.68912,0,0,1,.71289.71289v.99219a.68912.68912,0,0,1-.71289.71289H106.71729A.69209.69209,0,0,1,106.20557,265.10847Z"/><path class="e" d="M123.814,265.10847a.6906.6906,0,0,1-.20214-.51123v-1.02295a.69063.69063,0,0,1,.71289-.71338h4.43359a5.18708,5.18708,0,0,0,3.96875-1.36377,6.06559,6.06559,0,0,0,1.39453-3.96778c.01953-.28955.03125-.65136.03125-1.08545,0-.41308-.01172-.76416-.03125-1.05371a5.88344,5.88344,0,0,0-1.37988-3.98339,5.27454,5.27454,0,0,0-3.9834-1.34864h-4.43359a.6906.6906,0,0,1-.71289-.71289v-1.023a.69063.69063,0,0,1,.71289-.71338h4.58886q3.96827,0,5.8584,1.96875a8.31653,8.31653,0,0,1,2.01563,5.68848c.01953.28955.03125.68213.03125,1.17773,0,.4961-.01172.89942-.03125,1.209a8.31691,8.31691,0,0,1-2.01563,5.689q-1.88964,1.96875-5.8584,1.96827h-4.58886A.68988.68988,0,0,1,123.814,265.10847Z"/><path class="e" d="M164.25244,255.17292v9.42432a.68912.68912,0,0,1-.71289.71289h-1.30176a.69061.69061,0,0,1-.71289-.71289v-9.269q0-5.3313-5.30078-5.332h-2.26269q-.31056,1.79809-.4502,3.13086a29.55454,29.55454,0,0,0-.13965,3.03809l.0625,8.43213a.72732.72732,0,0,1-.18554.51123.64377.64377,0,0,1-.4961.20166l-4.30957-.062a.69061.69061,0,0,1-.71289-.71289v-.93017a.69061.69061,0,0,1,.71289-.71289l2.35645.03076v-6.63379q0-1.98341.10742-3.31689a21.65679,21.65679,0,0,1,.48047-2.97608h-1.64258a.72533.72533,0,0,1-.51172-.186.64055.64055,0,0,1-.20117-.4961v-.9917a.68915.68915,0,0,1,.71289-.71338h6.63476Q164.25147,247.609,164.25244,255.17292Z"/><path class="e" d="M180.29541,248.5235a6.2583,6.2583,0,0,1,2.35547,2.61963,8.912,8.912,0,0,1,.85254,4.02979v9.42432a.69061.69061,0,0,1-.71289.71289h-7.998a.68912.68912,0,0,1-.71289-.71289v-.99219a.68912.68912,0,0,1,.71289-.71289h5.9834V255.359a5.89246,5.89246,0,0,0-1.19336-3.82812,3.73265,3.73265,0,0,0-3.02344-1.47266H173.3042l-2.418,14.50782a.84145.84145,0,0,1-.24805.52734.71717.71717,0,0,1-.52636.2168h-1.30274a.57513.57513,0,0,1-.48047-.2168.70437.70437,0,0,1-.13867-.52734l2.47949-14.50782h-1.58105a.68912.68912,0,0,1-.71289-.71289v-1.023a.68915.68915,0,0,1,.71289-.71338h7.78125A6.46739,6.46739,0,0,1,180.29541,248.5235Z"/><path class="e" d="M197.686,265.10847a.69056.69056,0,0,1-.20215-.51123v-9.269q0-5.3313-5.332-5.332h-3.999a.72533.72533,0,0,1-.51172-.186.64058.64058,0,0,1-.20117-.4961v-.9917a.68915.68915,0,0,1,.71289-.71338h4.18555q7.87208,0,7.87305,7.564v9.42432a.68914.68914,0,0,1-.71289.71289h-1.30176A.68832.68832,0,0,1,197.686,265.10847Z"/><path class="e" d="M216.84326,265.10847a.68985.68985,0,0,1-.20117-.51123v-9.269q0-5.3313-5.30176-5.332h-5.76562a.72531.72531,0,0,1-.51172-.186.64055.64055,0,0,1-.20117-.4961v-.9917a.68915.68915,0,0,1,.71289-.71338h5.9209q7.87353,0,7.874,7.626v9.36231a.72729.72729,0,0,1-.18555.51123.64232.64232,0,0,1-.49609.20166h-1.333A.69058.69058,0,0,1,216.84326,265.10847Zm-11.78027,0a.68981.68981,0,0,1-.20117-.51123v-10.416a.68838.68838,0,0,1,.71289-.71289h1.30273a.68987.68987,0,0,1,.71289.71289v10.416a.69061.69061,0,0,1-.71289.71289h-1.30273A.6921.6921,0,0,1,205.063,265.10847Z"/><polygon class="f" points="32.343 99.267 31.402 93.611 38.069 98.313 32.343 99.267"/><path class="g" d="M33.10365,76.66578s1.59921.54138,2.20616-.41691,4.72454.75006,4.72454.75006,1.97183,2.53552,1.91552,4.13447-.37124,1.86159-.67426,1.77247"/><path class="g" d="M32.20614,79.02516l1.33282.392a6.43663,6.43663,0,0,1,4.91025.6867c2.18558,1.47676,2.28453,2.21636,2.71721,3.97775s-2.10214,2.68963-3.08774,1.66947-1.49331-2.02208-.91092-2.70339.19321.55417-.58239.68131a3.57085,3.57085,0,0,1-1.93018-.66125"/><path class="g" d="M33.44679,75.51148s4.24511-3.61286,5.63624-2.59665,2.92172,1.24094,4.04468,2.74967,2.24523,1.9572,1.25846,3.0643-1.75,3.3584-2.12076,3.25483"/><path class="g" d="M33.88339,83.06473s-1.91656-.9309-1.54434-1.48456"/><path class="f" d="M42.45077,94.42266S46.867,86.85428,46.28168,80.1606s-.20992-9.6503-.94582-10.14382-3.26534-2.10115-3.85178,4.88342c-2.50659-1.65581-3.22311-1.24578-3.22311-1.24578l-1.576.41582S32.25235,62.34293,30.34,62.97812c-2.14428-1.58657-2.79413-.54351-2.79413-.54351s3.76606,9.23324,4.21331,9.56144,1.74188,4.94707,1.74188,4.94707-2.14377.91112-2.4685,1.4959-1.38643.67584-1.12345,1.36226-.98116.19656-.253,2.06216.115.88223.55808,3.09142S31.402,93.61061,31.402,93.61061s6.3815,6.46888,8.51907,5.48357S42.45077,94.42266,42.45077,94.42266Z"/><path class="g" d="M33.3291,78.12658s1.665.35661,2.12715-.6622,4.79492.21119,4.79492.21119S42.57648,79.96784,42.7538,81.56s-.0967,1.88808-.41021,1.83386"/><path class="g" d="M32.78306,80.56767l1.379.23849a6.45907,6.45907,0,0,1,4.96986.12742c2.38289,1.21815,2.58888,1.94049,3.27485,3.63856S40.71419,87.47658,39.588,86.576s-1.77586-1.837-1.29763-2.57837.27243.52781-.47823.74135a3.66819,3.66819,0,0,1-2.01067-.43818"/><path class="g" d="M32.48338,85.51752s4.34134.40147,4.76536-.75"/><path class="g" d="M33.50107,76.94312s3.68321-4.06166,5.21105-3.21068,3.07856.90129,4.41227,2.27095,2.51211,1.68791,1.69493,2.89712-1.24582,3.528-1.6286,3.46708"/><path class="g" d="M41.64847,91.37168S40.29464,86.44262,39.588,86.576"/><path class="g" d="M40.72175,90.64429s-2.0034-3.99962-1.42109-3.94779"/><path class="g" d="M35.03555,84.38479s-2.03649-.70713-1.74808-1.29818"/><path class="h" d="M172.01532,139.71348a30.261,30.261,0,0,0-5.74048-20.292c-.51619-.71525-1.71675-.02549-1.19447.6982a29.0916,29.0916,0,0,1,5.55162,19.59377c-.07808.88662,1.30572.88136,1.38333,0Z"/><polygon class="b" points="171.706 165.252 186.017 150.726 188.452 146.579 178.373 144.323 169.088 148.252 153.374 166.055 153.38 168.259 165.444 168.324 166.055 167.752 171.706 165.252"/><polygon class="b" points="173.16 101.164 188.452 146.579 183.034 152.029 176.495 151.06 157.08 125.608 158.707 109.808 162.151 102.72 168.548 99.321 173.16 101.164"/><polygon class="i" points="167.623 150.081 167.86 151.746 169.821 148.9 171.536 148.348 173.957 150.512 174.218 148.198 176.819 148.926 175.182 146.729 176.962 145.862 172.892 145.277 170.677 141.135 165.186 134.004 165.743 136.964 169.225 142.578 171.291 145.453 172.259 146.762 169.066 148.18 167.623 150.081"/><path class="j" d="M173.09015,146.67105s2.9002,3.26978,6.54821,2.21179"/><path class="k" d="M172.8756,146.9826s.357,3.79813,2.87707,3.76118"/><path class="k" d="M173.1894,146.09236s4.24931.75106,4.9074-1.38818"/><polygon class="b" points="128.306 108.721 123.072 106.859 114.297 103.502 66.782 120.75 62.113 127.069 66.444 133.226 112.912 128.532 127.784 115.163 128.306 108.721"/><path d="M168.10089,138.413c-1.77236-3.645-5.61719-5.38617-9.44509-5.972a.87018.87018,0,0,0-1.03715.58887.84951.84951,0,0,0,.58888,1.03715c3.42572.52432,6.8424,1.917,8.43733,5.19711a.85114.85114,0,0,0,1.15356.30247.86083.86083,0,0,0,.30247-1.15356Z"/><path class="l" d="M163.248,135.52266l-3.89909,3.672a.85053.85053,0,0,0,0,1.19237.86058.86058,0,0,0,1.19236,0l3.8991-3.672a.85052.85052,0,0,0,0-1.19236.86057.86057,0,0,0-1.19237,0Z"/><path class="l" d="M167.89413,138.413a3.844,3.844,0,0,0-1.71243-1.37442,5.30546,5.30546,0,0,0-1.75087-.30925,8.74243,8.74243,0,0,0-1.80352.14431,2.86052,2.86052,0,0,0-1.55357.69665.84313.84313,0,0,0,1.19236,1.19236c.11249-.115-.02705-.02053-.035.01511.00295-.01324.07028-.04691.083-.053.04661-.02219.09583-.04847.14132-.0729-.08265.04438-.12813.04717-.01382.00967a4.79211,4.79211,0,0,1,.66829-.16813c.0463-.00812.09275-.01523.13916-.02272.2341-.03776-.17839.016.05931-.007.11872-.01152.23719-.02363.35622-.03165.23461-.01578.47-.02234.70509-.01788.09691.00184.19379.00553.29051.01207.04315.00292.08619.00672.12927.01044.0027.00024.15431.01809.06135.006-.104-.01349.10105.01622.12057.01953.07384.01252.14752.02623.22077.04189.11646.02489.23218.05437.34567.09057.05492.01752.10838.04117.16346.05751.09221.02736-.11712-.06684.01869.01125.10079.058.20022.114.29882.176.17726.11147-.09693-.105.058.04663.04553.04458.09418.08586.13927.131q.07093.0711.13727.14649c.01519.01723.15546.19506.08476.10045a.86951.86951,0,0,0,1.15356.30247.84911.84911,0,0,0,.30248-1.15356Z"/><path class="l" d="M166.27709,136.65306a2.40241,2.40241,0,0,0-1.20846-.26462,9.3626,9.3626,0,0,1-.98864-.03115l.22414.03012a1.267,1.267,0,0,1-.3083-.07761l.2014.085a.756.756,0,0,1-.08753-.0458l-.85108,1.456a4.40081,4.40081,0,0,0,.58159.28275,1.34711,1.34711,0,0,0,.81484.03759.82243.82243,0,0,0,.54637-.48817.84748.84748,0,0,0-.04249-.75038l-.5195-1.00551-1.3242,1.02172,1.20465.98937a.90788.90788,0,0,0,.59619.24695.858.858,0,0,0,.59618-.24695.84838.84838,0,0,0,.24695-.59618.8237.8237,0,0,0-.24695-.59618l-1.20465-.98937a.88768.88768,0,0,0-.59619-.24695.871.871,0,0,0-.51086.181.85038.85038,0,0,0-.21715,1.08764l.51949,1.00552.50388-1.23856a.3798.3798,0,0,1-.06183.01357l.22414-.03012a.60569.60569,0,0,1-.12706-.00142l.22413.03011a.95519.95519,0,0,1-.19378-.05611l.20141.085a4.01727,4.01727,0,0,1-.36408-.19138.84327.84327,0,0,0-.85108,1.456,2.40237,2.40237,0,0,0,1.20845.26462,9.36243,9.36243,0,0,1,.98864.03115l-.22413-.03012a1.267,1.267,0,0,1,.3083.07761l-.20141-.085a.75275.75275,0,0,1,.08753.04579.84327.84327,0,0,0,.85109-1.456Z"/><polygon class="b" points="41.461 92.41 47.369 98.483 51.576 99.689 68.337 116.92 72.302 130.11 62.778 135.078 59.516 134.512 56.572 133.105 36.712 108.976 37.415 104.481 32.343 99.267 40.494 94.895 41.461 92.41"/><path d="M76.795,117.55236a17.849,17.849,0,0,1,3.16518,3.87354.50037.50037,0,0,0,.86347-.50472,18.81877,18.81877,0,0,0-3.32154-4.07593c-.47112-.43748-1.17991.26806-.70711.70711Z"/><path d="M56.50587,124.06343c-.10127-.03241-.201-.06889-.30027-.107-.06279-.02413-.12484-.05-.18744-.07461-.09292-.03647-.242-.03907.05813.02539a4.87806,4.87806,0,0,1-.95252-.43185q-1.20042-.57039-2.36106-1.22084a24.43321,24.43321,0,0,1-2.29517-1.42869q-.098-.07011-.19476-.1419-.06261-.0465-.12459-.09381.18918.14686.04857.03605c-.14054-.1201-.28511-.23421-.4202-.36077-.10208-.09563-.196-.19773-.292-.29921-.19029-.20109.088.17078.016.025-.026-.05267-.06623-.10153-.09509-.15332a1.12156,1.12156,0,1,0-1.93655,1.132,5.808,5.808,0,0,0,1.73585,1.69778,23.123,23.123,0,0,0,2.344,1.47737,24.25762,24.25762,0,0,0,4.361,2.08109,1.12166,1.12166,0,0,0,.59622-2.16264Z"/><polygon class="a" points="149.278 93.107 146.875 83.403 148.108 81.511 152.166 78.797 153.88 72.055 149.832 70.063 143.886 57.107 130.744 54.885 119.289 60.036 119.296 74.144 117.554 76.158 120.281 82.655 121.628 83.389 122.33 87.13 126.16 90.237 127.722 98.065 124.004 103.942 131.335 117.77 142.064 120.315 153.135 105.807 158.102 96.458 149.278 93.107"/><g class="m"><polygon class="n" points="146.733 75.473 153.597 63.049 106.56 25.008 119.686 75.755 120.358 61.408 128.785 61.892 137.344 59.474 138.533 62.425 143.302 64.468 146.733 75.473"/></g><polygon points="139.257 66.612 138.945 64.804 133.395 64.798 132.493 66.218 139.257 66.612"/><polygon points="125.98 67.622 125.337 65.834 120.851 67.702 120.389 69.177 125.98 67.622"/><path d="M136.54505,80.26822a13.44154,13.44154,0,0,1-7.24044,2.04984.801.801,0,0,0,0,1.6011,15.01661,15.01661,0,0,0,8.04854-2.26844c.868-.55011.06563-1.93626-.8081-1.3825Z"/><path d="M143.76882,86.61493l-6.79838,5.15516L130.979,93.31967l-4.819-3.08295,4.49278,6.61013a4.16561,4.16561,0,0,0,2.2315,1.62322h0A4.79551,4.79551,0,0,0,134.95,98.645l.20748-.02775a4.43309,4.43309,0,0,0,2.55273-1.22886l1.35351-1.35708a3.66832,3.66832,0,0,0,.79317-1.17434l2.50966-6.01016Z"/><path d="M142.973,86.75907c-1.21382,1.193-2.48767,2.32669-3.72886,3.49094-.25185.23623-.50464.47178-.75094.71384-.49409.48559.266,1.2454.76.76,1.21382-1.19294,2.48767-2.32668,3.72886-3.49093.25185-.23624.50465-.47178.75094-.71384.49409-.48559-.266-1.2454-.76-.76Z"/><path d="M123.77686,69.59865c.06459.10126.12566.20449.18116.311.03148.06045.05964.12229.08942.18355.07384.15191-.05483-.1507-.00164-.004a4.26851,4.26851,0,0,1,.19843.70187q.00682.037.01264.07409.01956.131-.008-.06407a.82821.82821,0,0,0,.01621.17421q.01215.17444.00754.34939-.00232.08737-.00878.17456c-.00208.02763-.03162.239-.0066.09242.02526-.148-.01221.06564-.01708.09137-.01248.06581-.02726.131-.043.19614l1.176-.47843c-.11262-.08121.1084.0938.03675.02924-.02187-.01971-.04493-.03812-.06675-.05794q-.07224-.06563-.1378-.13815c-.02389-.0265-.04585-.05442-.06925-.08127-.05914-.06784.11882.17082.03611.04349-.03449-.05312-.06957-.10521-.10112-.16024q-.0471-.08217-.08749-.16791c-.0138-.0292-.06611-.15026-.01049-.02032.05262.12293.01174.02462.00159-.00284a3.34027,3.34027,0,0,1-.11612-.38875c-.03-.1266-.05166-.25437-.07259-.38269-.01936-.11875.004.07745.01093.08355a.42825.42825,0,0,1-.01261-.108q-.01058-.09713-.01862-.19451c-.01132-.13548-.01942-.27122-.02609-.407-.00134-.02731-.0019-.05473-.00351-.082-.00775-.13108-.0109.04028-.01925.07976.03054-.14429-.14792.23208-.14205.22441q-.79462.40365-1.03646-.15078a.52852.52852,0,0,1-.08942-.51167l.20588-.35326-.01275.01288.35326-.20588.16771-.0198a.80055.80055,0,1,0,0,1.6011.86478.86478,0,0,0,.82981-.60941.9074.9074,0,0,0-.08428-.69773.92731.92731,0,0,0-1.27513-.34541c-.601.36326-.51458,1.086-.44785,1.68093a5.10626,5.10626,0,0,0,.38084,1.52868,2.91218,2.91218,0,0,0,.99864,1.184.80551.80551,0,0,0,1.176-.47843,4.56281,4.56281,0,0,0-.58169-3.51429.80068.80068,0,1,0-1.3825.80811Z"/><path d="M135.56,68.02258c.06459.10126.12566.20449.18116.311.03148.06045.05964.1223.08942.18356.07384.1519-.05483-.15071-.00164-.004a4.26981,4.26981,0,0,1,.19844.70187q.00681.037.01264.0741.01954.131-.008-.06408a.82751.82751,0,0,0,.01622.17421q.01214.17445.00753.34939-.00231.08739-.00878.17457c-.00208.02762-.03162.239-.0066.09242.02526-.148-.01221.06564-.01708.09136-.01248.06582-.02726.13105-.043.19615l1.176-.47843c-.11262-.08121.1084.0938.03675.02923-.02187-.0197-.04493-.03812-.06674-.05793q-.07226-.06564-.13781-.13816c-.02389-.02649-.04585-.05442-.06925-.08127-.05914-.06784.11882.17082.03611.04349-.03449-.05311-.06957-.10521-.10112-.16024q-.0471-.08215-.08748-.1679c-.0138-.0292-.06612-.15027-.0105-.02033.05262.12294.01174.02462.00159-.00284a3.33969,3.33969,0,0,1-.11612-.38875c-.03-.1266-.05166-.25437-.07259-.38269-.01936-.11874.004.07745.01093.08355a.42817.42817,0,0,1-.01261-.108q-.01057-.09712-.01862-.19451c-.01132-.13549-.01942-.27122-.02609-.407-.00134-.02731-.0019-.05472-.00351-.082-.00775-.13108-.0109.04027-.01925.07976.03054-.14429-.14791.23207-.14205.2244q-.79463.40365-1.03645-.15078a.52849.52849,0,0,1-.08943-.51167l.20588-.35325-.01275.01287.35326-.20588.16771-.01979a.80055.80055,0,1,0,0,1.6011.86481.86481,0,0,0,.82981-.60941.90735.90735,0,0,0-.08428-.69773.9273.9273,0,0,0-1.27513-.34542c-.601.36326-.51458,1.086-.44785,1.68093a5.1064,5.1064,0,0,0,.38084,1.52869,2.91231,2.91231,0,0,0,.99864,1.184.8055.8055,0,0,0,1.176-.47844,4.56278,4.56278,0,0,0-.58169-3.51428.80068.80068,0,1,0-1.3825.8081Z"/><path d="M150.67783,74.20055l-1.94295,1.22206a.83931.83931,0,0,0-.3679.47843.80075.80075,0,0,0,1.176.90407l1.94295-1.22206a.83939.83939,0,0,0,.3679-.47843.80076.80076,0,0,0-1.176-.90407Z"/><path d="M149.24171,73.78429l-.93758,2.27293a.80146.80146,0,0,0,.0807.61687.80052.80052,0,0,0,1.09531.2872l.162-.12518a.79983.79983,0,0,0,.20588-.35326l.93758-2.27293a.80146.80146,0,0,0-.0807-.61687.8005.8005,0,0,0-1.09531-.28719l-.162.12517a.79993.79993,0,0,0-.20588.35326Z"/><path d="M152.68426,71.99432a6.51976,6.51976,0,0,0-3.34787,1.58644.80581.80581,0,0,0,0,1.13215.81908.81908,0,0,0,1.13214,0c.04732-.04238.095-.08428.14373-.12508.02444-.02046.04932-.04037.07386-.0607.08183-.06775-.02132.01776-.04882.03646.11309-.07692.2206-.16126.33562-.23571a5.66746,5.66746,0,0,1,.70668-.3884c.02988-.01377.06-.027.09-.04056.098-.04435-.02126.01173-.05472.02259.06247-.02027.12311-.04936.18475-.0723q.18675-.06951.3779-.12643a6.15354,6.15354,0,0,1,.83238-.18455.80023.80023,0,0,0,.47844-.3679.80052.80052,0,0,0-.2872-1.09531.92906.92906,0,0,0-.61687-.0807Z"/><path d="M169.47277,123.01474c-2.26613-2.48461-5.1746-4.49072-8.68891-4.07613a.76652.76652,0,0,0-.74355.74355.74814.74814,0,0,0,.74355.74356,6.91456,6.91456,0,0,1,4.02179.68579,13.12338,13.12338,0,0,1,3.61558,2.95478c.64632.70863,1.69562-.34538,1.05154-1.05155Z"/><path class="l" d="M164.78566,120.44648c-.48581,1.56689-.52953,3.23287-1.01534,4.79976a.75048.75048,0,0,0,.51933.91466.7594.7594,0,0,0,.91466-.51933c.48581-1.56688.52953-3.23287,1.01533-4.79975a.75048.75048,0,0,0-.51932-.91466.7594.7594,0,0,0-.91466.51932Z"/><path class="l" d="M169.47277,123.01474a5.18527,5.18527,0,0,0-3.30679-1.06951,1.70718,1.70718,0,0,0-.78485.16752,1.81634,1.81634,0,0,0-.56458.543,5.324,5.324,0,0,0-.64265,1.29765,10.28838,10.28838,0,0,0-.40358,1.29287.74374.74374,0,1,0,1.434.39533,10.28889,10.28889,0,0,1,.40358-1.29287c.02591-.06777.05421-.13462.08017-.20236-.07011.183-.004.01042.00994-.02082.05617-.12589.116-.25028.18208-.3713.05233-.09583.11716-.18411.17036-.27889.06226-.11094-.12411.12417.01025-.01162.02891-.02921.06465-.059.09042-.0907.03231-.03969-.17052.10543-.03261.03068.10492-.05687-.20568.06107-.04519.02724-.23173.04884-.06491.00991-.0022.00583.0562-.00367.11249-.00545.16881-.00586a4.05865,4.05865,0,0,1,.43034.02123c.04312.00427.21986.03124.03455.00206.08.0126.1599.02532.23946.04067a5.902,5.902,0,0,1,.90962.26032c.16378.05985-.08778-.04719.054.02335.07385.03674.14852.07108.221.11052.0706.03838.13994.07912.20742.12277.03052.01974.23426.17373.08489.05447a.76253.76253,0,0,0,1.05154,0,.75156.75156,0,0,0,0-1.05155Z"/><path class="l" d="M167.48027,121.58572a1.50127,1.50127,0,0,0-.63295-.15087,2.6532,2.6532,0,0,0-.51045.06178c-.24114.04655-.47659.12072-.72042.15348l.19766-.02656a1.14873,1.14873,0,0,1-.26659.00557l.19766.02656a.6265.6265,0,0,1-.143-.03623l.17762.075-.01647-.00717-.573,1.359a2.21952,2.21952,0,0,0,.36958.12667,1.1028,1.1028,0,0,0,.83445-.11072.74558.74558,0,0,0,.355-.54321.56325.56325,0,0,0-.01328-.2965.74287.74287,0,0,0-.19122-.3281l-.69391-.87464-.90106,1.16781,1.20267.73433a.74367.74367,0,1,0,.75057-1.28407l-1.20267-.73434a.74394.74394,0,0,0-.95919.19151.70864.70864,0,0,0-.15965.45053l.02656.19767a.7428.7428,0,0,0,.19123.3281l.6939.87464.15049-1.16781a.22318.22318,0,0,1-.03885.02281l.17762-.075a.366.366,0,0,1-.06449.01945l.19767-.02656a.49321.49321,0,0,1-.12,0l.19767.02656a2.00776,2.00776,0,0,1-.40774-.13312.74135.74135,0,0,0-.57295.075.76969.76969,0,0,0-.30423.35556.73031.73031,0,0,0,.30423.92851,1.50127,1.50127,0,0,0,.63295.15087,2.654,2.654,0,0,0,.51045-.06177c.24114-.04656.47659-.12072.72042-.15349l-.19766.02656a1.14928,1.14928,0,0,1,.26659-.00557l-.19766-.02656a.626.626,0,0,1,.143.03624l-.17762-.075.01647.00717a.55339.55339,0,0,0,.27645.08823.56314.56314,0,0,0,.2965-.01328.75833.75833,0,0,0,.44438-.3417.75056.75056,0,0,0,.075-.573.71824.71824,0,0,0-.34171-.44437Z"/><path d="M135.99552,81.00152a4.71281,4.71281,0,0,1-2.06571,2.51244,9.08,9.08,0,0,1-3.58472,1.51317.851.851,0,0,0-.58887,1.03715.861.861,0,0,0,1.03714.58887,10.35735,10.35735,0,0,0,4.14323-1.79443,9.46751,9.46751,0,0,0,1.49693-1.32054,4.35753,4.35753,0,0,0,1.188-2.08838.86857.86857,0,0,0-.58887-1.03715.84992.84992,0,0,0-1.03715.58887Z"/><polygon class="b" points="168.844 165.601 161.802 168.084 143.743 166.883 121.539 165.365 120.456 163.89 121.539 160.651 110.787 127.48 103.023 116.57 106.505 106.252 122.531 99.403 127.392 94.786 127.706 97.532 127.36 102.305 135.958 115.154 149.497 98.964 149.352 91.237 154.091 94.837 172.189 101.57 173.547 123.818 171.346 130.687 168.844 165.601"/><g class="o"><polygon class="i" points="167.372 121.041 173.097 124.682 171.346 130.148 169.594 151.576 159.795 134.388 167.372 121.041"/></g><path d="M120.11229,111.34236a5.98819,5.98819,0,0,1,3.0397-3.38657,15.54958,15.54958,0,0,1,3.46877-.99089l-.95216-.38746c.25552.47185.487.96016.69884,1.453a10.27534,10.27534,0,0,1,.41388,1.11625c.09524.31932.07993.64528.16636.95592.20314.7301,1.28488,1.28854,1.83636,1.70207,1.09883.82395,2.212,1.629,3.30046,2.46673.44957.346.89773.69631,1.32531,1.06942.14764.12884.28815.264.43081.39813.0514.04831.09967.13609.15851.17213q-.11195-.1516-.04361-.0507.269.50759.29032-.97307a.84376.84376,0,0,0,.85109,1.456c1.24815-.75286-.20021-1.95722-.83593-2.48319-1.152-.95314-2.36542-1.83355-3.5662-2.7235-.54332-.40267-1.09029-.80141-1.62478-1.21581-.10874-.08431-.27176-.2108-.3974-.3179a1.54227,1.54227,0,0,0-.18482-.16115c-.14249-.084-.02074-.16714.01126.03954.111.717.07019-.07276.0498-.1911a5.09008,5.09008,0,0,0-.14152-.59182,11.60049,11.60049,0,0,0-.4291-1.15552c-.25785-.61639-.53523-1.22858-.8536-1.8165a.86631.86631,0,0,0-.95216-.38747,15.84682,15.84682,0,0,0-4.05427,1.24581,7.3853,7.3853,0,0,0-3.462,3.90658c-.41852.98765,1.03357,1.84805,1.456.85109Z"/><path d="M127.20078,108.15025a23.82566,23.82566,0,0,0-4.04081.4221,28.58637,28.58637,0,0,0-3.77717,1.079.86374.86374,0,0,0-.58887,1.03715.851.851,0,0,0,1.03714.58888,29.01033,29.01033,0,0,1,3.66228-1.05579,21.06721,21.06721,0,0,1,3.70743-.38508.84364.84364,0,0,0,0-1.68625Z"/><path d="M124.27428,97.34488c-2.45563,1.90831-3.8172,4.96117-4.66084,7.87714a26.46253,26.46253,0,0,0-.98951,5.17583c-.08759,1.08172,1.59913,1.076,1.68625,0,.01034-.12762.02444-.255.03883-.3822q.02337-.20668.051-.41286c-.02895.21788.01657-.11239.0221-.14917.0171-.11375.03419-.22749.05232-.34108a28.72757,28.72757,0,0,1,.72719-3.31c.76913-2.71175,1.98412-5.49272,4.26506-7.26528a.84845.84845,0,0,0,0-1.19236.86367.86367,0,0,0-1.19237,0Z"/><path class="l" d="M105.73442,122.334c.05053.03737.2902.22048.18252.1364q.15491.121.30637.24623.36074.298.70166.61885a12.48083,12.48083,0,0,1,1.55421,1.73948,10.40834,10.40834,0,0,1,2.042,5.78605c.032.95,1.51232.95432,1.48019,0a12.83751,12.83751,0,0,0-5.51981-9.80512.74524.74524,0,0,0-1.0126.26551.75745.75745,0,0,0,.26551,1.0126Z"/><path d="M162.87311,117.71442q-10.3533,1.26055-20.75826,1.98788c-1.07668.07423-1.0849,1.76105,0,1.68625q10.40523-.71737,20.75826-1.98787c1.06357-.12949,1.07658-1.81734,0-1.68626Z"/><path d="M141.39032,120.38576c-1.04852,1.8777-.86383,3.99795-1.37862,5.96422a.84334.84334,0,1,0,1.626.44827,23.45332,23.45332,0,0,0,.46957-3.01741c.01691-.13367.05016-.35765.08642-.56277.04027-.22785.0871-.45465.14428-.67888a5.12364,5.12364,0,0,1,.50837-1.30234.84327.84327,0,0,0-1.456-.85109Z"/><path d="M141.08865,127.88682a150.813,150.813,0,0,0,19.6875-.46328c1.0721-.09664,1.08226-1.78381,0-1.68626a150.81293,150.81293,0,0,1-19.6875.46328c-1.08513-.04418-1.08312,1.64216,0,1.68626Z"/><path d="M162.241,118.88223a16.33348,16.33348,0,0,1-.11781,7.0729c-.25134,1.055,1.37423,1.50515,1.626.44827a18.34218,18.34218,0,0,0,.11782-7.96945.84335.84335,0,0,0-1.626.44828Z"/><path d="M162.80175,125.47054l-2.0315.38143a.84987.84987,0,0,0-.50388.38747.84308.84308,0,0,0,.30248,1.15356.94365.94365,0,0,0,.64968.085l2.03149-.38142a.84991.84991,0,0,0,.50388-.38747.84309.84309,0,0,0-.30247-1.15356.94371.94371,0,0,0-.64968-.085Z"/><path class="l" d="M135.23646,165.58235a10.912,10.912,0,0,1,.90911-3.80312,20.178,20.178,0,0,0,1.19147-4.81057c.29348-2.77694.2661-5.613.29017-8.40194.05754-6.66608-.08415-13.33344-.23022-19.99756-.069-3.14618-.14749-6.29226-.19744-9.43882a.84363.84363,0,0,0-1.68625,0c.1932,12.17084.91742,24.41917.23059,36.58364a18.96549,18.96549,0,0,1-1.17277,5.47561,12.61853,12.61853,0,0,0-1.02092,4.39276.84364.84364,0,0,0,1.68626,0Z"/><path d="M131.36042,121.62781a8.71251,8.71251,0,0,1-1.57021,6.13239c-.57806.92212.88034,1.76943,1.456.85109a12.8534,12.8534,0,0,0,1.60473-3.543,9.024,9.024,0,0,0,.13547-3.88878.85039.85039,0,0,0-1.03715-.58887.862.862,0,0,0-.58887,1.03715Z"/><path d="M131.53526,120.71944a72.41045,72.41045,0,0,0-17.47225,1.55478c-1.06077.22606-.61187,1.852.44828,1.626a70.49343,70.49343,0,0,1,17.024-1.49454c1.08539.03571,1.0841-1.65059,0-1.68626Z"/><path d="M113.77225,123.04343a10.255,10.255,0,0,1-.76742,4.84243.84565.84565,0,0,0,.58888,1.03715.8687.8687,0,0,0,1.03715-.58887,11.76583,11.76583,0,0,0,.82765-5.29071.84313.84313,0,0,0-1.68626,0Z"/><path d="M130.62258,127.2102c-.22844.04385.14439-.01193-.099.01515-.16747.01864-.33533.03365-.5032.04831-.50008.04365-1.001.078-1.50184.11187-1.39593.09435-2.79281.17495-4.18961.25524-3.07354.17668-6.14847.33494-9.22037.53894a22.69741,22.69741,0,0,0-2.76175.24959c-1.06457.20438-.61382,1.82993.44827,1.626.22837-.04384-.14439.01131.099-.01516.16754-.01822.33533-.03365.50321-.0483.50008-.04365,1.001-.078,1.50184-.11187,1.39593-.09435,2.79281-.17495,4.18961-.25525,3.07354-.17668,6.14847-.33493,9.22037-.53893a22.6994,22.6994,0,0,0,2.76175-.24959c1.06457-.20439.61382-1.82993-.44827-1.626Z"/><line class="p" x1="127.68834" y1="109.02875" x2="123.40179" y2="109.7082"/><path d="M126.668,106.2191a8.714,8.714,0,0,0-4.27717,1.06032,7.30554,7.30554,0,0,0-2.57845,2.37353l.07143.71261,6.74109-1.52509.9027.21458Z"/><path d="M155.21158,105.17307c-1.34214.05065-2.67995.18609-4.01673.3107-.68344.06371-1.367.12712-2.05136.17985-.32834.0253-.65688.04827-.98569.06651a2.16535,2.16535,0,0,1-.76246-.00281l.37205.21683q.05145.62348.13788.28894l.07355-.19228.17163-.44866-1.65614-.22414a1.68992,1.68992,0,0,0,.76157,1.62806,1.40608,1.40608,0,0,0,1.79755-.411,1.24887,1.24887,0,0,0-.39239-1.74665,1.05636,1.05636,0,0,0-1.59977.918,1.34282,1.34282,0,0,0,1.22139,1.24694,4.16356,4.16356,0,0,0,1.54671-.0997c.46862-.097.92977-.22649,1.39671-.33083.20888-.04668.4497-.09627.58487-.10942.08973-.00872.18079-.0143.271-.01413q.08372-.00034.16714.00635-.14026-.022.00291.007a.84386.84386,0,0,0,.44828-1.626,15.68663,15.68663,0,0,0-3.84564-.11174c-1.0853-.03926-1.08371,1.64706,0,1.68626.59067.02136,1.18275-.02619,1.773-.043.31578-.009.63222-.014.948-.00071a2.09528,2.09528,0,0,1,.67637.09517l.44828-1.626a5.3004,5.3004,0,0,0-2.408.22566c-.38669.095-.77281.19558-1.16532.26413a1.70821,1.70821,0,0,1-.37955.03366q-.06178.00115-.12341-.00292-.09705-.007.0333.00871c-.16215.06117-.1185-.18192-.01544.05107l.11511.42554-.13958.291-.37205.21683.08388-.0346h-.44828l-.299-.40154.26834-.42607c.12055-.06044.32755.16469.33954.16026a1.3644,1.3644,0,0,1-.00924-.28025.83934.83934,0,0,0-.73106-.82807.85693.85693,0,0,0-.92508.60394,2.46333,2.46333,0,0,0-.31093,1.38449,1.21688,1.21688,0,0,0,1.20814.91317,18.74708,18.74708,0,0,0,2.50089-.15587c1.76146-.15271,3.52136-.35963,5.28905-.42635,1.08173-.04082,1.08705-1.72728,0-1.68625Z"/><path class="l" d="M101.66485,118.09313c2.39964,2.468,4.82043,4.91546,7.22007,7.38352.75784.77944,1.94962-.41353,1.19237-1.19237-2.39964-2.468-4.82043-4.91546-7.22007-7.38352-.75784-.77944-1.94962.41353-1.19237,1.19237Z"/><path class="l" d="M111.05381,127.512c-1.15893-2.1265-2.84053-3.89874-4.08355-5.96648a.84327.84327,0,0,0-1.456.85109c1.243,2.06774,2.92463,3.84,4.08356,5.96648a.84326.84326,0,1,0,1.456-.85109Z"/><path d="M173.19982,123.73587a15.38983,15.38983,0,0,0-4.63766-2.74175,8.41438,8.41438,0,0,0-4.82141-.17109.74419.74419,0,0,0,.39533,1.434c2.99739-.77159,5.72922.6912,8.01219,2.5304a.76609.76609,0,0,0,1.05155,0,.749.749,0,0,0,0-1.05155Z"/><path class="l" d="M168.02516,121.85967c-.20954,1.61929.03636,3.26042-.17317,4.8797a.74461.74461,0,0,0,.74355.74356.76667.76667,0,0,0,.74356-.74356c.20953-1.61928-.03637-3.26041.17317-4.8797a.74461.74461,0,0,0-.74356-.74355.76666.76666,0,0,0-.74355.74355Z"/><path class="l" d="M173.04933,123.61961a5.30551,5.30551,0,0,0-3.5116-.5375,1.44591,1.44591,0,0,0-1.07888.84122,5.48751,5.48751,0,0,0-.42217,1.37572,11.67442,11.67442,0,0,0-.18469,1.44032.748.748,0,0,0,.74355.74356.7607.7607,0,0,0,.74356-.74356c.00851-.14135.02155-.2824.03711-.42315q.00666-.06025.014-.12045l.00781-.06273c.00923-.08253-.014.09955-.01242.09018.01683-.09755.02806-.19625.044-.294a6.68635,6.68635,0,0,1,.27944-1.16713.83358.83358,0,0,0,.04486-.11905c-.01445.08014-.06278.13345-.011.03085.0349-.06913.08064-.13408.11437-.20307.03713-.076-.12067.12735-.05906.074.01107-.00959.0179-.02488.02963-.03386.09567-.07321-.03165.01788-.06783.04257a.54853.54853,0,0,1,.06542-.03868c-.00843.00419-.17475.049-.11392.05236a.33291.33291,0,0,0,.07635-.02027c.041-.01007.08224-.01882.12369-.02673.02977-.00567.18147-.02411.05852-.01193-.12541.01242.04032-.00323.06984-.0059q.08953-.00807.17936-.01236a5.28579,5.28579,0,0,1,.72994.01682q.0441.004.08813.00873c.01845.00195.14954.01755.04873.00462-.09726-.01248.00333.00079.01946.00348.03941.00658.07888.01273.11822.01978q.20606.03691.40858.091c.14213.03832.27849.08834.41709.137.07979.028-.04024-.01716-.046-.02.03359.01657.06823.03106.10188.04757.0659.03232.13.06769.19339.10465a.74368.74368,0,0,0,.75057-1.28408Z"/><path class="l" d="M170.824,122.49355a1.731,1.731,0,0,0-1.05962.09734,3.68075,3.68075,0,0,1-.755.24735l.19767-.02656a.78467.78467,0,0,1-.184.00158l.19767.02656a.65847.65847,0,0,1-.07611-.0163l-.39534,1.434a3.63353,3.63353,0,0,0,.57177.10156,1.067,1.067,0,0,0,.79114-.28735.74953.74953,0,0,0,0-1.05154l-.83714-.77165-.90106,1.16781,1.3157.56493a.81522.81522,0,0,0,.573.075.75839.75839,0,0,0,.44437-.34171.75055.75055,0,0,0,.075-.57295.7164.7164,0,0,0-.34171-.44438l-1.31571-.56493a.79589.79589,0,0,0-.57295-.075.7703.7703,0,0,0-.38624.26646.74049.74049,0,0,0,.05813.9763l.83714.77165v-1.05154l-.01659.01485.15048-.11627a.32316.32316,0,0,1-.05705.03317l.17763-.075a.44468.44468,0,0,1-.06632.01806l.19766-.02656a.70532.70532,0,0,1-.179-.00222l.19767.02656c-.10841-.016-.214-.04433-.32054-.06929a.78209.78209,0,0,0-.573.075.74368.74368,0,0,0,.17762,1.359,1.73109,1.73109,0,0,0,1.05963-.09734,3.68009,3.68009,0,0,1,.755-.24736l-.19766.02657a.78513.78513,0,0,1,.184-.00159l-.19766-.02656a.659.659,0,0,1,.07611.01631.74374.74374,0,1,0,.39533-1.434Z"/><path d="M127.34985,69.99684a1.80314,1.80314,0,0,1,.231,1.25385,7.195,7.195,0,0,1-.30044,1.54562,25.9181,25.9181,0,0,1-1.21111,3.13834.66955.66955,0,0,0,.23265.8873.65329.65329,0,0,0,.8873-.23266,25.38756,25.38756,0,0,0,1.43066-3.77133c.31977-1.23747.5099-2.67955-.35288-3.73827a.653.653,0,0,0-.91714,0,.66348.66348,0,0,0,0,.91715Z"/><path d="M126.646,74.86642a2.06419,2.06419,0,0,0-.66442,2.21412,2.51353,2.51353,0,0,0,1.83435,1.71794,5.75777,5.75777,0,0,0,3.06217.181,5.65209,5.65209,0,0,0,1.41462-.61506,3.55322,3.55322,0,0,0,1.15549-.94372,1.60668,1.60668,0,0,0,.14332-1.66882,1.03168,1.03168,0,0,0-1.27085-.64471.64907.64907,0,0,0,.3448,1.25071c-.04591.01236-.29342-.06248-.29152-.14831-.00131.0594.08516.13351.09761.197a.33148.33148,0,0,1-.064.24313,2.1631,2.1631,0,0,1-.81515.62092,4.1816,4.1816,0,0,1-1.16356.483,3.74824,3.74824,0,0,1-1.26259.01017,5.1767,5.1767,0,0,1-1.09729-.24685,2.10547,2.10547,0,0,1-.4411-.21733,1.23165,1.23165,0,0,1-.15955-.12085c.00234.0021-.149-.17266-.084-.08067a1.11569,1.11569,0,0,1-.18464-.63534.78381.78381,0,0,1,.05134-.36485c.01115-.03339.09734-.14651.04962-.11147a.668.668,0,0,0,.23265-.8873.65335.65335,0,0,0-.88729-.23265Z"/><path d="M113.92731,129.054a10.55192,10.55192,0,0,1,.21383,4.11515c-.07863.61856-.15788,1.2362-.1904,1.85934a4.11961,4.11961,0,0,0,.15808,2.0345c.62454,1.20144,1.68769,1.27937,2.887,1.42734,1.72107.21235,3.4383.42516,5.16577.58261a45.177,45.177,0,0,0,5.60886.22944c1.17513-.03935,2.51565-.05426,3.19185-1.218a7.98648,7.98648,0,0,0,.57877-2.74985c.16847-1.22183.29725-2.44858.42-3.6757a50.72582,50.72582,0,0,1,1.03748-7.90947.75064.75064,0,0,0-1.44642-.39876c-1.06787,4.03763-.92228,8.35211-1.58716,12.46239-.11972.74011-.08989,1.68783-.91233,1.91657a9.37677,9.37677,0,0,1-2.30142.08939c-.85085.00008-1.70136-.03293-2.55049-.08587-1.67717-.10455-3.35568-.26554-5.02431-.46369-.63512-.07542-1.26858-.16371-1.90306-.24416-.5281-.067-1.31952.02144-1.67092-.45652-.36483-.49624-.16825-1.43806-.11674-2.0502.04973-.591.13941-1.177.20752-1.76586a11.03222,11.03222,0,0,0-.3195-4.09739.75064.75064,0,0,0-1.44642.39876Z"/><path d="M142.603,127.18383q.06388,2.35545.1384,4.71063.05935,1.89336.12754,3.78645c.04135,1.12249-.177,2.63829.62748,3.5197.65217.71455,1.71058-.34857,1.06066-1.06066-.21405-.23453-.13154-.99717-.14707-1.38572q-.03274-.81942-.06156-1.639-.065-1.82382-.12035-3.648-.06629-2.14161-.1251-4.28345a.75046.75046,0,0,0-1.5,0Z"/><path d="M158.631,140.97917a3.52922,3.52922,0,0,0,2.76274-1.45082,7.24513,7.24513,0,0,0,.46022-1.84075c.14405-.738.26556-1.48034.38059-2.22335a76.45469,76.45469,0,0,1,1.51449-8.98132.75064.75064,0,0,0-1.44642-.39875,66.60632,66.60632,0,0,0-1.3979,8.21187c-.19846,1.33445-.39858,2.675-.70947,3.98879-.10944.4625-.18714.76133-.67812.96415a5.74676,5.74676,0,0,1-1.28489.28376c-.95192.13385-.54688,1.57939.39876,1.44642Z"/><polygon points="127.257 108.336 125.003 107.622 122.605 107.96 121.405 108.752 120.189 110.022 121.098 110.617 127.919 108.465 127.919 108.465 127.257 108.336"/><path d="M107.18807,112.33145a33.75274,33.75274,0,0,0,5.33305-.817,30.60425,30.60425,0,0,1,8.57716-.14722c.95753.10884.94976-1.392,0-1.5a31.88317,31.88317,0,0,0-8.674.15112,35.11922,35.11922,0,0,1-5.23622.81306.75045.75045,0,0,0,0,1.5Z"/><path d="M107.61981,111.83381c.99132-2.34293,2.0855-4.64616,3.13773-6.96227l-.29882.22978,5.65932-1.74251a1.54463,1.54463,0,0,0,.40758-.12549c.169-.12592-.17067-.03833-.13309-.01857a4.97464,4.97464,0,0,0,1.30094.20563l2.9141.46061c.62957.09951.9007-.86394.26584-.96428l-3.86951-.61163a6.35421,6.35421,0,0,0-2.788.59327c-1.30029.40036-2.693.70294-3.95314,1.21718-.354.14446-.41254.34778-.55931.67109q-.458,1.00894-.91517,2.01829c-.68163,1.505-1.38807,3.00245-2.03193,4.52419-.24785.58578.61327,1.09605.86347.50471Z"/><path d="M110.4801,106.033a1.42105,1.42105,0,0,0-.41563.686,1.84016,1.84016,0,0,0-.06141.69093,2.32633,2.32633,0,0,0,.6,1.41251.75.75,0,1,0,1.06066-1.06066c-.02689-.02757-.05206-.05631-.07611-.0864l.11727.15179a1.43133,1.43133,0,0,1-.17669-.30487l.07561.17916a1.801,1.801,0,0,1-.12233-.447l.02679.19938a1.514,1.514,0,0,1-.002-.38664l-.02679.19938a1.04741,1.04741,0,0,1,.0674-.25009l-.07561.17916a.79491.79491,0,0,1,.0842-.147l-.11727.15179a.6789.6789,0,0,1,.10254-.10671.75388.75388,0,0,0,.21967-.53033.76321.76321,0,0,0-.21967-.53033.75469.75469,0,0,0-.53033-.21967l-.19938.02679a.7494.7494,0,0,0-.331.19288Z"/><path d="M157.7644,104.04354c2.017.4489,4.07291.72625,6.11913,1.00343,1.45806.19751,2.96109.30374,4.40076.61673.941.20459,1.3431-1.24112.39876-1.44642-1.44028-.31312-2.94171-.41908-4.40076-.61673-2.04622-.27718-4.10212-.55453-6.11913-1.00343-.94047-.20931-1.34213,1.23646-.39876,1.44642Z"/><path d="M155.71632,97.47385c2.53653.60714,5.05239,1.31352,7.56236,2.02082a63.37523,63.37523,0,0,1,7.43495,2.31981c.88829.37414,1.27633-1.07679.39876-1.44642a63.37771,63.37771,0,0,0-7.435-2.31981c-2.51-.70729-5.02583-1.41368-7.56236-2.02082-.93827-.22458-1.33865,1.22145-.39876,1.44642Z"/><path d="M157.48257,102.02011H166.987a.75045.75045,0,0,0,0-1.5h-9.50441a.75045.75045,0,0,0,0,1.5Z"/><ellipse class="q" cx="165.05691" cy="113.12451" rx="1.68585" ry="0.86533" transform="translate(-34.91613 105.93264) rotate(-32.36573)"/><ellipse class="q" cx="164.70916" cy="115.25322" rx="1.68585" ry="0.86533" transform="translate(-36.1097 106.07718) rotate(-32.36573)"/><ellipse class="q" cx="164.26841" cy="117.51736" rx="1.68585" ry="0.86533" transform="translate(-37.39021 106.19298) rotate(-32.36573)"/><ellipse class="q" cx="163.76284" cy="119.99686" rx="1.68585" ry="0.86533" transform="translate(-38.79608 106.30753) rotate(-32.36573)"/><ellipse class="q" cx="163.04016" cy="122.38722" rx="1.68585" ry="0.86533" transform="translate(-40.18796 106.29201) rotate(-32.36573)"/><ellipse class="q" cx="162.49794" cy="124.68469" rx="1.68585" ry="0.86533" transform="translate(-41.50208 106.35866) rotate(-32.36573)"/><ellipse class="q" cx="162.19457" cy="127.16825" rx="1.68585" ry="0.86533" transform="translate(-42.87871 106.58209) rotate(-32.36573)"/><ellipse class="q" cx="161.70345" cy="129.65293" rx="1.68585" ry="0.86533" transform="translate(-44.28512 106.70518) rotate(-32.36573)"/><ellipse class="q" cx="161.622" cy="132.34095" rx="1.68585" ry="0.86533" transform="translate(-45.73672 107.07917) rotate(-32.36573)"/><ellipse class="q" cx="161.44977" cy="134.7645" rx="1.68585" ry="0.86533" transform="translate(-47.06086 107.36347) rotate(-32.36573)"/><ellipse class="q" cx="161.45254" cy="137.37244" rx="1.68585" ry="0.86533" transform="translate(-48.45652 107.7701) rotate(-32.36573)"/><path class="q" d="M162.99821,139.03676c.12669.47822-.43309,1.21237-1.25032,1.63978s-1.58243.38622-1.70913-.092.91895-1.41705,1.73618-1.84445S162.87151,138.55855,162.99821,139.03676Z"/><ellipse class="q" cx="162.13791" cy="142.04759" rx="1.68585" ry="0.86533" transform="translate(-50.85275 108.86329) rotate(-32.36573)"/><ellipse class="q" cx="162.77861" cy="144.27675" rx="1.68585" ry="0.86533" transform="translate(-51.94654 109.55257) rotate(-32.36573)"/><ellipse class="q" cx="163.41844" cy="146.12865" rx="1.68585" ry="0.86533" transform="translate(-52.8385 110.18279) rotate(-32.36573)"/><path class="r" d="M164.522,111.96156l2.45043-7.99955.988.2854a.75507.75507,0,0,1,.33314.88326l-2.49119,6.31281Z"/><path class="s" d="M140.16662,127.64954s1.65857,22.12848,11.45593,22.33073,10.50308-8.17724,10.50308-8.17724"/><path class="s" d="M166.63222,103.91216s4.84247-2.6767,5.03256-2.66344"/><path class="s" d="M166.63222,103.91216s1.75239-3.37024,3.6669-3.37024"/><path d="M163.95722,115.35594a1.3624,1.3624,0,0,1,.12494.2202l-.0756-.17916a.873.873,0,0,1,.06178.21611l-.02679-.19938a.68518.68518,0,0,1,.00017.16865l.02679-.19938a.66985.66985,0,0,1-.042.154l.07561-.17916a.80036.80036,0,0,1-.10244.17289l.11727-.15179a1.21047,1.21047,0,0,1-.20316.19865l.15179-.11728a2.56077,2.56077,0,0,1-.56825.31684l.17916-.07561c-.26941.11338-.54875.19837-.8177.31316a.74881.74881,0,0,0-.34467.44823.76646.76646,0,0,0,.07561.57792.757.757,0,0,0,.44822.34467l.19938.02679a.74658.74658,0,0,0,.37854-.1024l.00557-.00238-.17916.07561c.11675-.0487.23879-.08519.35771-.12817a6.04069,6.04069,0,0,0,.67469-.28418,1.813,1.813,0,0,0,1.0383-1.17565,1.50016,1.50016,0,0,0-.016-.6708,1.71581,1.71581,0,0,0-.2445-.52546.80136.80136,0,0,0-.44822-.34467.76645.76645,0,0,0-.57792.07561.757.757,0,0,0-.34467.44822.74537.74537,0,0,0,.07561.57792Z"/><path d="M164.932,112.73869a1.933,1.933,0,0,1,.09341.18927l-.0756-.17916a1.29676,1.29676,0,0,1,.08454.30459l-.02679-.19938a1.00016,1.00016,0,0,1-.00043.25377l.02679-.19938a.96192.96192,0,0,1-.06431.22719l.07561-.17916a1.13387,1.13387,0,0,1-.13812.23091l.11728-.15179a1.66451,1.66451,0,0,1-.28993.28238l.15179-.11727a3.29735,3.29735,0,0,1-.62192.36184c-.149.06887-.30571.12431-.45133.20026a.75582.75582,0,0,0-.26906,1.02614.76711.76711,0,0,0,1.02614.26906c.28818-.15029.59557-.25119.87352-.42432a2.079,2.079,0,0,0,1.03675-1.32648,1.85215,1.85215,0,0,0-.01412-.73617,2.16279,2.16279,0,0,0-.239-.58937.75012.75012,0,1,0-1.2952.75707Z"/><path d="M164.1484,117.7894a1.67124,1.67124,0,0,1,.10829.20932l-.07561-.17916a1.11031,1.11031,0,0,1,.07386.26829l-.02679-.19938a.87172.87172,0,0,1-.00015.20792l.02679-.19938a.83886.83886,0,0,1-.05639.2034l.07561-.17916a.99988.99988,0,0,1-.12464.2079l.11727-.15179a1.48414,1.48414,0,0,1-.25288.246l.15179-.11727a3.20082,3.20082,0,0,1-.70478.38929l.17916-.0756c-.1999.08414-.40714.15468-.60241.24924a.75722.75722,0,0,0-.34467.44822.7665.7665,0,0,0,.0756.57792.757.757,0,0,0,.44823.34467.83765.83765,0,0,0,.57792-.07561c.01868-.009.03766-.0174.05676-.02553l-.17916.07561a7.70123,7.70123,0,0,0,1.05011-.476,2.34937,2.34937,0,0,0,.579-.46834,1.81434,1.81434,0,0,0,.25464-.36231,1.69573,1.69573,0,0,0,.172-.61128,1.76536,1.76536,0,0,0-.28439-1.06407.78068.78068,0,0,0-.44823-.34467.75019.75019,0,0,0-.847,1.10175Z"/><path d="M163.47785,120.6303a1.19018,1.19018,0,0,1,.14035.23858l-.07561-.17916a.75018.75018,0,0,1,.04906.17609l-.02679-.19938a.59461.59461,0,0,1-.00012.149l.02679-.19938a.58641.58641,0,0,1-.03826.1366l.07561-.17916a.70838.70838,0,0,1-.08574.14437l.11727-.1518a1.06885,1.06885,0,0,1-.18328.17981l.15179-.11727a2.28084,2.28084,0,0,1-.50326.28091l.17916-.0756c-.24177.10185-.49639.16483-.73961.26111a.839.839,0,0,0-.44822.34467.74995.74995,0,0,0,.26906,1.02614.72915.72915,0,0,0,.57792.07561c.11427-.04524.23386-.07773.3504-.11651a6.35151,6.35151,0,0,0,.67936-.26951,1.73379,1.73379,0,0,0,1.04241-1.12876,1.37164,1.37164,0,0,0-.01772-.65252,1.59636,1.59636,0,0,0-.24536-.50094.81695.81695,0,0,0-.44823-.34467.7665.7665,0,0,0-.57792.0756.75705.75705,0,0,0-.34467.44822.73084.73084,0,0,0,.07561.57792Z"/><path d="M162.92956,122.94077l.0217.02769-.11727-.15179a1.04425,1.04425,0,0,1,.1256.20972l-.07561-.17916a.65516.65516,0,0,1,.04423.15537l-.02679-.19938a.51868.51868,0,0,1,.00018.132l.02679-.19938a.51536.51536,0,0,1-.03419.12144l.0756-.17916a.62847.62847,0,0,1-.07732.12893l.11728-.15179a.96382.96382,0,0,1-.16674.16169l.15179-.11727a2.08,2.08,0,0,1-.45471.25136l.17916-.0756c-.26541.11086-.54479.17361-.81367.27259a.80662.80662,0,0,0-.44823.34467.75.75,0,0,0,.26907,1.02614.73887.73887,0,0,0,.57792.0756c.1172-.04314.23932-.07366.35855-.1106a6.52087,6.52087,0,0,0,.67124-.25338,2.422,2.422,0,0,0,.61649-.39088,1.2892,1.2892,0,0,0,.42258-.69447,1.26418,1.26418,0,0,0-.024-.64741,1.9122,1.9122,0,0,0-.359-.61758.74983.74983,0,0,0-.53033-.21967.76322.76322,0,0,0-.53033.21967.75464.75464,0,0,0-.21967.53033l.02679.19938a.74919.74919,0,0,0,.19288.331Z"/><path d="M162.38732,124.83806a1.13869,1.13869,0,0,1,.1441.24047l-.07561-.17916a.708.708,0,0,1,.04637.1668l-.02679-.19938a.562.562,0,0,1-.00031.14142l.02679-.19938a.55681.55681,0,0,1-.03661.12986l.0756-.17916a.67528.67528,0,0,1-.082.13755l.11728-.15179a1.02424,1.02424,0,0,1-.1758.17187l.15179-.11728a2.19962,2.19962,0,0,1-.48671.27048l.17916-.0756c-.25068.105-.51459.16788-.76744.26513a.81323.81323,0,0,0-.44823.34467.75.75,0,0,0,.26907,1.02615.73293.73293,0,0,0,.57792.0756c.1143-.044.23368-.07539.35014-.113a6.42854,6.42854,0,0,0,.67913-.26385,1.71241,1.71241,0,0,0,1.04044-1.105,1.416,1.416,0,0,0-.263-1.14345.83909.83909,0,0,0-.44822-.34467.76645.76645,0,0,0-.57792.07561.757.757,0,0,0-.34467.44822.72578.72578,0,0,0,.0756.57792Z"/><path d="M162.01216,127.59456q.02075.0248.04055.0503l-.11727-.15179a.93229.93229,0,0,1,.11347.18959l-.0756-.17916a.58632.58632,0,0,1,.03955.14085l-.02679-.19938a.4728.4728,0,0,1,.00067.11032l.02679-.19938a.4646.4646,0,0,1-.02975.11145l.0756-.17916a.56566.56566,0,0,1-.06973.11875l.11727-.15179a.87294.87294,0,0,1-.153.14971l.15179-.11727a1.89766,1.89766,0,0,1-.41453.23053l.17916-.0756c-.28568.12009-.58667.18258-.87791.284a.79928.79928,0,0,0-.44822.34467.74995.74995,0,0,0,.26906,1.02614.74651.74651,0,0,0,.57792.07561c.28719-.1.58393-.16223.86618-.27909a4.0995,4.0995,0,0,0,.41695-.18914,2.43253,2.43253,0,0,0,.35794-.25315,1.231,1.231,0,0,0,.42485-.6777,1.20508,1.20508,0,0,0-.02428-.63561,1.83372,1.83372,0,0,0-.36-.60437.75413.75413,0,0,0-.53033-.21967.76325.76325,0,0,0-.53033.21967.75464.75464,0,0,0-.21967.53033l.02679.19938a.74916.74916,0,0,0,.19288.331Z"/><path d="M162.13816,129.46773a1.55639,1.55639,0,0,1,.11446.21482l-.07561-.17916a1.02377,1.02377,0,0,1,.06938.24987l-.02679-.19938a.80419.80419,0,0,1-.00029.19408l.02679-.19938a.77828.77828,0,0,1-.0535.19032l.07561-.17916a.93291.93291,0,0,1-.10893.18292l.11727-.15179a1.37268,1.37268,0,0,1-.238.23423l.15179-.11727a2.94684,2.94684,0,0,1-.65535.36418l.17916-.07561c-.22615.09517-.45993.17171-.68265.27518a.75419.75419,0,0,0-.34467.44822.7665.7665,0,0,0,.0756.57792.757.757,0,0,0,.44823.34467l.19938.02679a.74648.74648,0,0,0,.37854-.1024l.03237-.01437-.17916.07561a9.54811,9.54811,0,0,0,1.04259-.45137,1.892,1.892,0,0,0,1.0081-1.22931,1.62868,1.62868,0,0,0-.01963-.69677,1.91666,1.91666,0,0,0-.23953-.53992.78681.78681,0,0,0-.44822-.34467.75019.75019,0,0,0-.847,1.10175Z"/><path d="M161.96336,132.57587a1.25653,1.25653,0,0,1,.13621.238l-.07561-.17916a.80617.80617,0,0,1,.05189.18763l-.02679-.19938a.63856.63856,0,0,1,0,.15853l.02679-.19938a.62686.62686,0,0,1-.04008.145l.07561-.17916a.75078.75078,0,0,1-.08978.153l.11727-.15179a1.13307,1.13307,0,0,1-.20245.19852l.15179-.11727a2.44518,2.44518,0,0,1-.53633.29719l.17916-.07561c-.22393.09381-.45957.15521-.68363.24735a.83921.83921,0,0,0-.44822.34467.75.75,0,0,0,.26906,1.02615.72423.72423,0,0,0,.57792.0756c.11422-.047.23409-.08091.35073-.12128a6.24483,6.24483,0,0,0,.6797-.27726,1.77616,1.77616,0,0,0,1.04378-1.15375,1.43159,1.43159,0,0,0-.01693-.6616,1.65691,1.65691,0,0,0-.24489-.513.80876.80876,0,0,0-.44822-.34467.7665.7665,0,0,0-.57792.0756.757.757,0,0,0-.34467.44823.73794.73794,0,0,0,.0756.57792Z"/><path d="M161.59925,134.73664a1.308,1.308,0,0,1,.131.23018l-.07561-.17915a.8467.8467,0,0,1,.05558.19491l-.02679-.19938a.6651.6651,0,0,1,.0016.16453l.02679-.19938a.64569.64569,0,0,1-.04494.16229l.07561-.17916a.78432.78432,0,0,1-.09416.15709l.11728-.15179a1.172,1.172,0,0,1-.19833.19452l.15179-.11727a2.49994,2.49994,0,0,1-.55985.31148l.17916-.07561c-.21534.09018-.44188.15078-.65679.24088a.83906.83906,0,0,0-.44823.34467.75.75,0,0,0,.26907,1.02614.72173.72173,0,0,0,.57792.07561c.11655-.04887.23908-.08418.35814-.12634a6.21,6.21,0,0,0,.66857-.27674,2.50887,2.50887,0,0,0,.618-.42549,1.44877,1.44877,0,0,0,.42926-.73549,1.54865,1.54865,0,0,0-.25985-1.19358.8048.8048,0,0,0-.44822-.34467.7665.7665,0,0,0-.57792.0756.757.757,0,0,0-.34467.44823.74171.74171,0,0,0,.07561.57792Z"/><path d="M161.55989,137.67352l.01107.01409-.11727-.1518a1.0699,1.0699,0,0,1,.13656.22666l-.07561-.17916a.66394.66394,0,0,1,.04393.1575l-.02679-.19938a.52781.52781,0,0,1-.00044.13373l.0268-.19937a.52594.52594,0,0,1-.03506.123l.07561-.17916a.64133.64133,0,0,1-.07855.13056l.11727-.15179a.97941.97941,0,0,1-.16871.16362l.15179-.11727a2.10417,2.10417,0,0,1-.45833.254l.17916-.0756c-.263.11026-.54.1733-.80623.27236a.8081.8081,0,0,0-.44822.34467.74995.74995,0,0,0,.26906,1.02614.73747.73747,0,0,0,.57792.07561c.11613-.04321.23719-.07386.35538-.11083a6.45159,6.45159,0,0,0,.67953-.25849,1.667,1.667,0,0,0,1.03413-1.08744,1.28032,1.28032,0,0,0-.02306-.65076,1.92679,1.92679,0,0,0-.35928-.62158.749.749,0,0,0-.53033-.21967.76321.76321,0,0,0-.53033.21967.75461.75461,0,0,0-.21967.53033l.02679.19938a.7494.7494,0,0,0,.19288.331Z"/><path d="M157.29009,111.702c.744-.2468,1.50588-.4182,2.2634-.61595a10.96127,10.96127,0,0,0,2.27759-.86361.75561.75561,0,0,0,.26906-1.02614.76737.76737,0,0,0-1.02614-.26907q-.2733.14141-.55408.26663c-.046.02046-.09407.03865-.0194.0087-.04336.01739-.08659.03507-.13011.05208q-.12707.04967-.25567.09533c-.33518.11912-.67732.21686-1.02166.30565-.73752.19016-1.478.35988-2.20175.6a.75019.75019,0,0,0,.39876,1.44642Z"/><polygon class="t" points="160.962 98.218 167.696 99.624 172.458 101.644 170.568 99.653 163.816 97.526 160.103 97.991 160.962 98.218"/><path class="u" d="M144.74072,119.286l-.50683.04687.15039-.62366.18945-.01745a1.16017,1.16017,0,0,0,.43262-.10791.55166.55166,0,0,0,.23242-.22388.78024.78024,0,0,0,.084-.35059c.002-.13916.001-.35241-.00488-.6394l-.00586-.04687a.45389.45389,0,0,0-.07617-.22046.33723.33723,0,0,0-.16016-.11853.80928.80928,0,0,0-.32617-.01661l-1.35547.12537-.2041-1.70312.86719-.08.13086,1.1001.61035-.05652a1.57821,1.57821,0,0,1,.96484.14661.87034.87034,0,0,1,.39063.68554l.01269.13477.01172.64685a1.188,1.188,0,0,1-.34375.92846A1.83787,1.83787,0,0,1,144.74072,119.286Z"/><path class="u" d="M147.59619,115.52558l-.16894,1.07312-.73633.068.38086-1.09265Zm1.11621-.10315-.17871,1.074-.72851.06726.38378-1.0929Z"/><path class="u" d="M152.83057,118.53828l-.86524.07995L151.773,117.014a.74221.74221,0,0,0-.249-.50207.84486.84486,0,0,0-.63672-.1377,4.8548,4.8548,0,0,0-.49219.07288q-.25927.05127-.85547.20911l-.00488-.62391a7.3626,7.3626,0,0,1,1.46582-.2926,1.65063,1.65063,0,0,1,1.13574.23438,1.25879,1.25879,0,0,1,.499.93164Zm-2.11328.19543-.86817.08008-.19824-1.65845.82324-.44971Z"/><path class="u" d="M153.42627,117.8592l1.63965-.15149-1.91016-1.848.749-.417,1.22167,1.18518a.86684.86684,0,0,0,.11036-.28295,1.328,1.328,0,0,0-.00391-.39356l-.06641-.55615.85157-.07874.07324.61255a1.12549,1.12549,0,0,1-.07422.58447,1.80582,1.80582,0,0,1-.45215.57642l.60352.60413-.07715.543-2.751.25415Z"/><polygon class="t" points="152.423 106.602 155.212 106.453 159.157 108.071 158.432 103.061 164.384 104.281 161.994 109.98 159.824 117.292 156.205 116.159 154.072 114.655 152.171 112.342 151.821 109.263 152.423 106.602"/><path d="M165.83876,104.85478c-2.27133,3.12009-3.80753,5.32326-3.71672,9.02693a12.64868,12.64868,0,0,1-.02654,2.96292c-.2158.62938-2.8719.91283-2.92158-.02333-.20811-3.92172,1.528-10.12866,4.55983-13.0108"/><polygon class="i" points="104.182 125.462 103.177 130.08 68.641 132.893 70.98 126.925 72.208 125.487 71.488 131.222 78.099 118.567 76.744 130.047 84.894 123.746 83.961 130.112 97.883 128.681 104.182 125.462"/><path class="l" d="M108.60078,124.94814c1.09015,2.73842,2.067,5.52083,3.15719,8.25925l1.541-.64968c-2.521-3.86482-4.56753-8.02664-7.08852-11.89145-.59064-.90548-2.05125-.0614-1.456.85109,2.521,3.86481,4.56753,8.02663,7.08853,11.89144.49088.75256,1.913.28457,1.541-.64968-1.09015-2.73841-2.067-5.52083-3.1572-8.25924a.87032.87032,0,0,0-1.03715-.58888.84835.84835,0,0,0-.58887,1.03715Z"/><path d="M76.66641,117.33172a34.24822,34.24822,0,0,1,.28888,5.06792,11.87447,11.87447,0,0,1-.80065,4.9426c-.28053.5763.58155,1.08387.86347.50472a12.75267,12.75267,0,0,0,.93461-5.29943,35.789,35.789,0,0,0-.322-5.48165c-.08548-.63479-1.04915-.36444-.96428.26584Z"/><path class="v" d="M85.3468,121.46541s-2.16791,7.01558-4.98122,9.957"/><path class="v" d="M72.1085,125.22544a19.22854,19.22854,0,0,1-2.08181,7.17083"/><path d="M158.03543,108.16034a23.71128,23.71128,0,0,0,3.43594-1.59954c1.08424-.57649,2.15035-1.1869,3.23795-1.757.85531-.44833.09793-1.74338-.75708-1.29521-1.05933.55528-2.09808,1.14922-3.15344,1.712-.57622.30727-1.15585.60868-1.74443.89169a11.32263,11.32263,0,0,1-1.4177.60163.76776.76776,0,0,0-.52383.92259.75726.75726,0,0,0,.92259.52383Z"/><path d="M153.49485,95.43318c2.95361,3.2205,3.9048,8.15131,4.3553,12.3607l1.43931-.59618c-3.29032-2.81654-7.84846-2.43888-11.84116-3.31873a.86594.86594,0,0,0-.95215.38747,14.92235,14.92235,0,0,0-1.44161,6.22582l1.06726-.813c-3.67041-.64372-6.86654,2.77469-9.61337,4.67791-.886.61389-.0439,2.07615.85109,1.456,1.32333-.9169,2.55882-1.95391,3.89771-2.84966,1.22434-.81912,2.86233-1.9308,4.4163-1.65826a.85981.85981,0,0,0,1.06727-.813,12.89878,12.89878,0,0,1,1.21138-5.37473L147,105.505c3.589.79088,8.14512.35817,11.09707,2.88506.49123.42049,1.52418.19678,1.43931-.59618-.50169-4.68767-1.56194-9.96877-4.8492-13.55306-.73509-.80152-1.92507.39345-1.19236,1.19236Z"/><path class="g" d="M31.79475,69.36711s2.618.28722,2.41984-.41343"/></svg>