<svg id="Layer_1" data-name="Layer 1" xmlns="http://www.w3.org/2000/svg" xmlns:xlink="http://www.w3.org/1999/xlink" viewBox="0 0 222.67 270.67"><defs><style>.cls-1{fill:#cab192;}.cls-2{fill:#747c58;}.cls-3{fill:#ededed;}.cls-4{fill:#cecece;}.cls-5,.cls-6{fill:#c9b092;}.cls-21,.cls-6,.cls-9{stroke:#000;}.cls-17,.cls-21,.cls-25,.cls-26,.cls-6,.cls-9{stroke-miterlimit:10;}.cls-6{stroke-width:0.2px;}.cls-7{fill:#080808;}.cls-8{fill:#54593e;}.cls-17,.cls-19,.cls-21,.cls-26,.cls-9{fill:none;}.cls-17,.cls-18,.cls-19,.cls-21,.cls-9{stroke-linecap:round;}.cls-9{stroke-width:0.3px;}.cls-10{fill:#27421d;}.cls-11{clip-path:url(#clip-path);}.cls-12{fill:#271d1d;}.cls-13{clip-path:url(#clip-path-2);}.cls-14{fill:#707171;}.cls-15{clip-path:url(#clip-path-3);}.cls-16{fill:#525222;}.cls-17,.cls-18,.cls-19{stroke:#27421d;stroke-width:0.61px;}.cls-18{fill:#284220;}.cls-18,.cls-19{stroke-linejoin:round;}.cls-20,.cls-25{fill:#231f20;}.cls-21{stroke-width:0.15px;}.cls-22{clip-path:url(#clip-path-4);}.cls-23{clip-path:url(#clip-path-5);}.cls-24{clip-path:url(#clip-path-6);}.cls-25,.cls-26{stroke:#231f20;stroke-width:1.52px;}.cls-27{font-size:40px;fill:#fff;font-family:Rubik-Regular, Rubik;}</style><clipPath id="clip-path"><polygon class="cls-1" points="71.59 94.74 71.42 89.02 72.25 87.76 74.43 86.33 75.96 82.4 74 80.87 73.03 72.57 65.81 70.17 58.71 72.36 57.41 80.87 56.3 81.95 57.16 86.09 58.02 86.64 58.05 88.96 59.8 91.14 59.69 95.99 57.18 99.24 59.8 108.18 65.26 110.58 72.47 102.72 75.96 97.48 71.59 94.74"/></clipPath><clipPath id="clip-path-2"><polygon class="cls-2" points="82.35 117.14 82.08 137.13 78.3 138.64 68.6 137.91 56.68 136.98 56.1 136.08 56.68 134.1 50.91 113.85 46.74 107.19 48.61 100.89 57.21 96.7 59.82 93.89 59.99 95.56 59.8 98.48 64.42 106.32 71.69 96.44 71.79 94.27 71.75 93.49 71.45 91.26 74.16 93.92 86.4 98.61 87.49 110.99 82.35 117.14"/></clipPath><clipPath id="clip-path-3"><path class="cls-2" d="M82.58,142.79s0-2.36-.09-2.35l-1.2.55-.72,0-25-2.73s-.06,2.32-.08,2.35l-.73,1.62h0L53.9,145H83.3Z"/></clipPath><clipPath id="clip-path-4"><polygon class="cls-1" points="167.8 95.64 167.64 89.92 168.47 88.66 170.65 87.24 172.17 83.31 170.21 81.78 169.24 73.48 162.03 71.07 154.92 73.26 153.63 81.77 152.52 82.85 153.37 86.99 154.24 87.54 154.27 89.86 156.01 92.04 155.9 96.89 153.39 100.14 156.01 109.08 161.47 111.48 168.68 103.62 172.17 98.38 167.8 95.64"/></clipPath><clipPath id="clip-path-5"><polygon class="cls-2" points="178.56 118.04 178.29 138.03 174.51 139.54 164.81 138.81 152.89 137.88 152.31 136.98 152.89 135 147.12 114.75 142.95 108.09 144.82 101.79 153.42 97.61 156.03 94.79 156.2 96.47 156.02 99.38 160.63 107.22 167.9 97.34 168 95.17 167.96 94.39 167.66 92.16 170.37 94.82 182.61 99.51 183.7 111.89 178.56 118.04"/></clipPath><clipPath id="clip-path-6"><path class="cls-2" d="M178.79,143.7s0-2.37-.09-2.36l-1.2.55-.72,0-25-2.73s-.06,2.31-.08,2.34l-.73,1.62h0l-.88,2.82h29.4Z"/></clipPath></defs><circle class="cls-3" cx="111.33" cy="111.33" r="108.83" transform="translate(-46.12 111.33) rotate(-45)"/><path class="cls-4" d="M111.33,5c58.49,0,106.34,47.85,106.34,106.33h0c0,58.49-47.85,106.34-106.34,106.34h0C52.85,217.67,5,169.82,5,111.33H5C5,52.85,52.85,5,111.33,5h0m0-5A111.21,111.21,0,0,0,32.7,190,111.21,111.21,0,1,0,190,32.7,110.55,110.55,0,0,0,111.33,0Z"/><path class="cls-5" d="M112.26,114a16.56,16.56,0,0,0,2.84.73c.39-.08,1,.48,1,.48l1.11,1.62.47,1.24.76,0,1.49-.09s2,.13-.63,4.65l-1.86,0-2,.52-2.3-.37s-2.15.83-3.06-.31"/><path class="cls-6" d="M114.15,116.26l-1.32-.59s-1.23,1.35-1.44,1.25-1.68,0-1.09-.91a9.42,9.42,0,0,1,2-2"/><path class="cls-6" d="M110.11,122.63s-1.62.32-1.89-.79.4-.82.4-.82.19.38.52.38,1.14.1,1.14.1.5,0,.5.11.54.34.26.55A5.17,5.17,0,0,1,110.11,122.63Z"/><path class="cls-6" d="M108.46,121s-.54-.76-.42-1,.68-.6.68-.6l.89.73s1.27.08,1.53,0,.8,0,.78.08.25.08.28.53a1.15,1.15,0,0,1-.3.79l-1.12.08-1.92-.3Z"/><path class="cls-6" d="M108.72,119.35s-.56-.88-.44-1,.36-.95.73-.82a5.06,5.06,0,0,1,1.13,1,7.59,7.59,0,0,0,1.28.15c0-.06.78.32.78.32l.19.67-.29.57-1-.09-1.53,0Z"/><path class="cls-6" d="M109.13,117.57s-.62-.72-.18-1.26,1.43-1.29,1.73-1.24a2.54,2.54,0,0,0,.65,0l-1.21,1.12s-.12.28.06.31l.72.16.16.1.81.57s.67.64.55.9-.11.89-.64.57a2.31,2.31,0,0,0-1.39-.17Z"/><polygon class="cls-2" points="152.69 97.67 150.16 98.88 145.82 100.82 137.08 124.79 138.14 128.91 142.16 129.67 155.78 110.86 155.19 100.32 152.69 97.67"/><polygon class="cls-2" points="117.94 116.83 122.42 117.4 124.42 116.5 137.13 118.1 143.59 122.28 141.98 127.54 140.57 128.39 138.95 128.79 122.49 125.34 121.04 123.23 117.2 122.74 118.53 118.19 117.94 116.83"/><path d="M139.07,119.79a10.24,10.24,0,0,1,2.7.33c.19,0,.28-.25.09-.3a10.5,10.5,0,0,0-2.79-.33c-.19,0-.19.31,0,.3Z"/><path d="M122.29,119.18h-.23l-.39,0c-.32,0-.65,0-1,0a5.64,5.64,0,0,1-.92-.11,2,2,0,0,1-.35-.09c-.05,0,0,0,0,0l-.06,0s-.07,0,0,0a.08.08,0,0,1,0,0c-.22-.25-.58.11-.37.36a1.19,1.19,0,0,0,.66.31,9,9,0,0,0,1,.13,9.13,9.13,0,0,0,1.81,0,.26.26,0,0,0,.18-.32.27.27,0,0,0-.32-.18Z"/><path class="cls-7" d="M145.48,107.36,150,110.5c.27.19.53-.25.26-.44l-4.52-3.14c-.27-.19-.52.26-.25.44Z"/><polygon class="cls-8" points="151.57 112.89 153.16 115.02 142.76 128.74 141.06 125.61 140.87 124.61 143.02 127.06 139.96 119.81 144.29 124.69 144.4 119.3 146.73 122.07 150.8 116.42 151.57 112.89"/><path class="cls-7" d="M149.84,110.33c.92,1.36,1.78,2.76,2.69,4.12l.4-.31c-1.46-1.49-2.79-3.11-4.19-4.65-.3-.33-.59-.65-.9-1s-.59.13-.36.37c1.46,1.49,2.8,3.1,4.2,4.65.29.33.59.65.89,1s.57-.06.4-.31c-.91-1.36-1.77-2.76-2.68-4.12-.19-.27-.63,0-.45.26Z"/><path d="M139,119.77a21.25,21.25,0,0,1,2.26,1.88,7.3,7.3,0,0,1,1.82,2.24c.08.17.34,0,.27-.16a8,8,0,0,0-1.87-2.3,22.63,22.63,0,0,0-2.33-1.92c-.16-.11-.31.15-.15.26Z"/><path class="cls-9" d="M143.6,118.27s2.19,3.46,2.47,5.61"/><path class="cls-9" d="M140.73,124.55A12,12,0,0,1,143,128"/><polygon class="cls-2" points="55.68 99.5 56.11 102.28 56.95 106.95 42.06 127.67 38.05 129.11 35.16 126.22 43.04 104.37 52.08 98.92 55.68 99.5"/><polygon class="cls-2" points="79.94 98.34 79.51 101.11 78.67 105.78 93.56 126.5 97.57 127.94 100.45 125.05 92.58 103.21 83.53 97.75 79.94 98.34"/><path class="cls-7" d="M88.9,108.09c-.45-1.24-.58-2.56-1-3.81-.09-.31-.59-.18-.49.14.39,1.25.53,2.57,1,3.81.11.31.61.17.5-.14Z"/><path class="cls-10" d="M85.17,123.53a20.23,20.23,0,0,0-1.53-12.66c-.12-.27-.52,0-.39.23a19.69,19.69,0,0,1,1.47,12.31c0,.29.39.41.45.12Z"/><polygon class="cls-1" points="71.59 94.74 71.42 89.02 72.25 87.76 74.43 86.33 75.96 82.4 74 80.87 73.03 72.57 65.81 70.17 58.71 72.36 57.41 80.87 56.3 81.95 57.16 86.09 58.02 86.64 58.05 88.96 59.8 91.14 59.69 95.99 57.18 99.24 59.8 108.18 65.26 110.58 72.47 102.72 75.96 97.48 71.59 94.74"/><g class="cls-11"><polygon class="cls-12" points="72.47 84.58 75.97 75.39 52.24 49.59 57.95 84 58.78 77.8 59.45 76.2 60.15 73.38 65.02 74.35 70.56 73.58 71.22 76.19 72.43 78.03 72.26 83.16 72.47 84.58"/></g><polygon points="69.99 78.99 70.05 77.88 67.13 77.28 66.48 78.03 69.99 78.99"/><polygon points="63.23 78.29 63.11 77.15 60.52 77.78 60.1 78.61 63.23 78.29"/><path d="M67.14,85.52a6.65,6.65,0,0,1-4.06.66c-.33-.05-.47.46-.14.51A7.32,7.32,0,0,0,67.4,86c.3-.16,0-.61-.26-.46Z"/><path d="M70.15,90.38l-4.08,2.56H62.74l-2.38-1.48,1.89,4a2.21,2.21,0,0,0,1,1.16h0a2.26,2.26,0,0,0,1.08.28h.11a2.26,2.26,0,0,0,1.47-.54l.84-.71a2.16,2.16,0,0,0,.53-.64l1.89-3.43Z"/><path d="M70.93,89.29l-3.32,2.79-.68.57c-.26.22.11.59.37.37,1.11-.92,2.22-1.86,3.32-2.79l.68-.56c.26-.22-.11-.59-.37-.38Z"/><path d="M61.59,78.55a2.34,2.34,0,0,1,0,1.65l.44-.11a1.09,1.09,0,0,1-.19-.33,1.55,1.55,0,0,1-.05-.23,1,1,0,0,1,0-.2,3.85,3.85,0,0,1,0-.48c0-.08,0-.16,0-.24v0s0,0,0,0h0c0,.06-.07.06-.17,0s-.15,0-.17,0a.19.19,0,0,1,.05-.22l.11-.07h0a.28.28,0,0,0-.27.27.27.27,0,0,0,.27.26.3.3,0,0,0,.29-.39.33.33,0,0,0-.39-.24c-.33.08-.31.52-.33.78a2,2,0,0,0,.41,1.56.26.26,0,0,0,.44-.12,2.79,2.79,0,0,0,0-1.93.28.28,0,0,0-.33-.18.27.27,0,0,0-.18.32Z"/><path d="M68.09,78.37a2.34,2.34,0,0,1,0,1.65l.44-.11a.89.89,0,0,1-.18-.33,1,1,0,0,1-.06-.23,1,1,0,0,1,0-.2,4,4,0,0,1,0-.49c0-.07,0-.15,0-.23s0-.08,0,0,0,0,0,0h0c0,.06-.07.06-.17,0s-.15,0-.17,0a.19.19,0,0,1,0-.22l.11-.07h.05a.27.27,0,0,0,0,.53.3.3,0,0,0,.29-.39.32.32,0,0,0-.39-.24c-.33.08-.31.52-.33.78a2,2,0,0,0,.41,1.56.27.27,0,0,0,.44-.12,2.79,2.79,0,0,0,0-1.93.27.27,0,0,0-.32-.18.26.26,0,0,0-.19.32Z"/><path d="M74.08,83.66l-1.14.58a.27.27,0,0,0,.27.46l1.14-.58a.26.26,0,0,0,.09-.36.27.27,0,0,0-.36-.1Z"/><path d="M73.5,83.13l-.7,1.3a.26.26,0,0,0,.09.36.27.27,0,0,0,.36-.1L74,83.4a.27.27,0,0,0-.09-.36.27.27,0,0,0-.37.09Z"/><path d="M75.38,82.49a3.15,3.15,0,0,0-1.85.63.26.26,0,1,0,.26.45A2.76,2.76,0,0,1,75.38,83a.27.27,0,0,0,0-.53Z"/><polygon points="56.25 144.54 82.45 141.47 82.57 135.27 56.63 135.25 56.25 144.54"/><polygon class="cls-2" points="82.35 117.14 82.08 137.13 78.3 138.64 68.6 137.91 56.68 136.98 56.1 136.08 56.68 134.1 50.91 113.85 46.74 107.19 48.61 100.89 57.21 96.7 59.82 93.89 59.99 95.56 59.8 98.48 64.42 106.32 71.69 96.44 71.79 94.27 71.75 93.49 71.45 91.26 74.16 93.92 86.4 98.61 87.49 110.99 82.35 117.14"/><g class="cls-13"><polyline class="cls-8" points="56.3 138.22 58.44 134.38 51.58 115.19"/></g><polygon class="cls-8" points="81.86 137.21 81.6 126.1 81.6 118.39 82.1 118.53 82.23 137.1 81.86 137.21"/><path d="M52.88,114.27a17.6,17.6,0,0,1,.4,2.9c0,.47,0,.94.06,1.4a4.46,4.46,0,0,0,.07,1.27c.22.64.76.69,1.34.78.88.12,1.76.24,2.64.33a17.83,17.83,0,0,0,3.1.1,1.11,1.11,0,0,0,1.12-.75,19.47,19.47,0,0,0,.44-3.58,29.52,29.52,0,0,1,.5-4.29c.07-.28-.37-.4-.44-.12a66.42,66.42,0,0,0-.75,6.77c0,.39,0,1-.34,1.32s-.72.21-1.08.22-1,0-1.46,0c-.94-.06-1.88-.16-2.8-.3l-1-.13c-.34,0-.69-.06-.86-.41a2.08,2.08,0,0,1-.06-.75l0-.68c0-.46,0-.93-.06-1.39a17.24,17.24,0,0,0-.4-2.78c-.06-.29-.5-.17-.44.12Z"/><path d="M69.26,113.67c.13,1,.25,2,.37,3.07.09.75.18,1.5.25,2.26a1.15,1.15,0,0,0,.84,1.07,10.86,10.86,0,0,0,1.28.1l1.48.1c1,0,2,.08,3.08,0,.72,0,1.66.06,2.14-.58A3.67,3.67,0,0,0,79,118a45.36,45.36,0,0,1,.31-5.47c.06-.29-.38-.41-.44-.13a27.46,27.46,0,0,0-.26,4c0,.72-.05,1.44-.12,2.16a1.94,1.94,0,0,1-.19.9c-.26.34-.79.3-1.17.33a32.12,32.12,0,0,1-5.28-.11,3.27,3.27,0,0,1-1.18-.14c-.33-.18-.33-.51-.37-.84-.07-.66-.14-1.32-.22-2-.12-1-.25-2-.38-3.07,0-.28-.49-.29-.45,0Z"/><polygon class="cls-2" points="64.76 137.6 64.76 144.38 63.15 144.38 63.15 136.56 64.76 136.56 64.76 137.6"/><polygon class="cls-2" points="59.83 137.6 59.83 144.38 58.22 144.38 58.22 136.56 59.83 136.56 59.83 137.6"/><polygon class="cls-2" points="72.01 136.64 72.01 144.35 73.78 144.35 73.78 135.61 72.01 135.61 72.01 136.64"/><rect class="cls-2" x="79.68" y="135.25" width="1.61" height="7.71"/><path d="M55.79,103.81a3.69,3.69,0,0,1,1.57-2,7.39,7.39,0,0,1,2-.68l-.31-.12a8.16,8.16,0,0,1,.69,2.13c.07.39.6.71.88.94l1.79,1.52c.26.23.52.46.76.7l.24.25s.05.08.06.09l0,0c0-.09,0-.18.09-.28-.29.21,0,.69.28.48s0-.65-.21-.87a16.48,16.48,0,0,0-1.32-1.19c-.5-.43-1-.85-1.5-1.28-.17-.14-.33-.28-.48-.43a.88.88,0,0,1-.1-.1s0,.1,0,0a2.3,2.3,0,0,0,0-.26,7.93,7.93,0,0,0-.74-2.06.28.28,0,0,0-.32-.13,6.78,6.78,0,0,0-2.3.84,4.31,4.31,0,0,0-1.65,2.26c-.13.34.41.48.53.15Z"/><path d="M59.72,102.28a11.58,11.58,0,0,0-2.12.25,14.15,14.15,0,0,0-2,.66c-.33.13-.19.67.15.54a13.64,13.64,0,0,1,2-.65,10.72,10.72,0,0,1,2-.24.28.28,0,0,0,0-.56Z"/><path d="M58.27,95.62a9.18,9.18,0,0,0-2.45,4.7,17.18,17.18,0,0,0-.53,3.1c0,.35.53.35.55,0a17.39,17.39,0,0,1,.49-2.87A8.81,8.81,0,0,1,58.66,96c.27-.24-.12-.63-.39-.39Z"/><path d="M83.12,118.92a7.49,7.49,0,0,0-1.52-2.43,3.82,3.82,0,0,0-2.22-1.12.25.25,0,0,0-.3.17c0,.12,0,.29.17.3a3.47,3.47,0,0,1,2,1,7.24,7.24,0,0,1,1.42,2.31.24.24,0,1,0,.42-.25Z"/><path class="cls-7" d="M48.53,110.49a7.39,7.39,0,0,1,2.69,5.42.25.25,0,0,0,.49,0,7.9,7.9,0,0,0-2.84-5.77c-.24-.2-.58.15-.34.35Z"/><path class="cls-7" d="M81.39,116.72c-.51.86-.8,1.83-1.31,2.68a.25.25,0,0,0,.43.25c.51-.86.79-1.82,1.3-2.68a.24.24,0,0,0-.42-.25Z"/><path class="cls-7" d="M83.12,118.92a2.38,2.38,0,0,0-1.51-1,.67.67,0,0,0-.63.2,3.33,3.33,0,0,0-.49.63,5.72,5.72,0,0,0-.41.67c-.14.28.28.53.43.25a5.45,5.45,0,0,1,.39-.66,3.32,3.32,0,0,1,.26-.36l.13-.15.06,0,0,0s0,0,0,0l.06,0h0l.08,0a1.62,1.62,0,0,1,.42.15,1.88,1.88,0,0,1,.76.64c.17.26.59,0,.42-.25Z"/><path class="cls-7" d="M82.35,117.84a.84.84,0,0,0-.59-.17H81.5s0,0,0,0h-.1c.07,0,0,0,0,0l0,0s0,.05,0,0l-.35.35c.16.12.34.29.55.2a.24.24,0,0,0,.15-.11.26.26,0,0,0,0-.19l-.22-.61-.41.24.5.6a.25.25,0,1,0,.35-.35l-.5-.6a.26.26,0,0,0-.3,0,.24.24,0,0,0-.11.28l.21.61.17-.3h0c-.05,0,0,0,0,0s.06,0,0,0l0,0,0,0,0,0,0,0-.06,0a.26.26,0,0,0-.17-.07.26.26,0,0,0-.18.07.26.26,0,0,0,0,.35.88.88,0,0,0,.59.16h.26s0,0,0,0H82c-.07,0,0,0,0,0l0,0s0,0,0,0a.25.25,0,0,0,.35,0,.25.25,0,0,0,0-.34Z"/><path class="cls-7" d="M79.44,135.07c-.62.34-1.21.75-1.84,1.09a20.71,20.71,0,0,1-3.38,1.39c-.33.12-.19.65.15.54a22.81,22.81,0,0,0,3.47-1.43c.64-.35,1.24-.76,1.88-1.11a.28.28,0,0,0-.28-.48Z"/><path d="M78.8,108.13q-5.52.77-11.07,1.21c-.36,0-.36.58,0,.55,3.75-.29,7.49-.71,11.22-1.22.35,0,.2-.59-.15-.54Z"/><path d="M67.49,109.64c-.55,1.12-.45,2.38-.72,3.58-.08.35.45.5.53.15.26-1.14.14-2.38.67-3.45.16-.32-.32-.6-.48-.28Z"/><path d="M78.7,108.54a11.64,11.64,0,0,1-.06,4.44c-.08.35.46.5.53.15a12.4,12.4,0,0,0,.07-4.74c-.07-.35-.6-.2-.54.15Z"/><path d="M78.88,112.85l-1.09.23a.28.28,0,0,0-.19.34.28.28,0,0,0,.34.2l1.09-.23a.28.28,0,0,0-.15-.54Z"/><path class="cls-7" d="M63.86,137.11a13,13,0,0,1,.77-3.29,14.59,14.59,0,0,0,.43-3.36c.1-2.39.1-4.78.08-7.16,0-4.85-.16-9.7-.23-14.55a.28.28,0,0,0-.55,0c.07,4.85.2,9.7.23,14.55,0,2.34,0,4.68-.08,7a14.86,14.86,0,0,1-.55,3.81,10.55,10.55,0,0,0-.66,3,.28.28,0,0,0,.56,0Z"/><path d="M62.12,110.21a6.11,6.11,0,0,1-.86,3.93c-.17.31.31.59.48.28a6.81,6.81,0,0,0,.92-4.36.28.28,0,0,0-.54.15Z"/><path d="M62.05,110a34.17,34.17,0,0,0-9.34.94c-.34.08-.2.62.15.53a34.22,34.22,0,0,1,9.19-.92c.35,0,.35-.54,0-.55Z"/><path d="M52.69,111.14a7.74,7.74,0,0,1-.42,3c-.12.34.41.48.53.15a8,8,0,0,0,.44-3.17c0-.35-.58-.36-.55,0Z"/><path d="M61.6,113.91a23.92,23.92,0,0,1-3.42.27c-1.65.11-3.3.21-5,.33a11.52,11.52,0,0,0-1.44.15c-.35.07-.2.61.15.53a24,24,0,0,1,3.42-.27c1.65-.11,3.31-.2,5-.33a9.76,9.76,0,0,0,1.44-.14c.35-.08.2-.61-.15-.54Z"/><line class="cls-14" x1="59.98" y1="102.58" x2="57.68" y2="103"/><path d="M59.43,100.87a4.14,4.14,0,0,0-2.29.64A4.37,4.37,0,0,0,55.75,103l0,.44,3.62-.93.49.13Z"/><path d="M74.76,100.47c-.78,0-1.56.12-2.34.2l-1.16.11-.54,0h-.11l0,.05,0-.1.12-.35-.55-.07a.89.89,0,0,0,.28.76.57.57,0,0,0,.77-.14.54.54,0,0,0-.17-.76.39.39,0,0,0-.57.4c0,.64.88.54,1.28.44s.51-.14.77-.21a1.4,1.4,0,0,1,.61,0,.28.28,0,0,0,.14-.54,7.51,7.51,0,0,0-2-.06c-.36,0-.36.54,0,.56a6.51,6.51,0,0,1,1.87,0l.14-.54a2.35,2.35,0,0,0-1.17.13c-.2.06-.4.12-.6.16a1.26,1.26,0,0,1-.27,0,.48.48,0,0,0-.12,0h0c-.07,0-.1,0-.11.1H70.8c.08,0,0,0,0,0s0-.19,0-.28c0-.33-.45-.36-.55-.08a1.54,1.54,0,0,0-.16.72.48.48,0,0,0,.48.39,10.07,10.07,0,0,0,1.34-.1c.94-.09,1.89-.22,2.84-.26.35,0,.36-.57,0-.55Z"/><path class="cls-2" d="M82.58,142.79s0-2.36-.09-2.35l-1.2.55-.72,0-25-2.73s-.06,2.32-.08,2.35l-.73,1.62h0L53.9,145H83.3Z"/><g class="cls-15"><rect class="cls-8" x="42.99" y="133.25" width="13.62" height="12.78"/></g><path class="cls-2" d="M83.25,162.69h0a.07.07,0,0,0,.13.07l0,0v0A.08.08,0,0,0,83.25,162.69Z"/><path d="M64.12,144.7c.41-1.56.88-3.11,1.37-4.65.11-.34-.42-.49-.53-.15-.49,1.54-1,3.09-1.38,4.65a.28.28,0,0,0,.54.15Z"/><path d="M62.48,144.77c.21-.89.36-1.78.63-2.66a10.61,10.61,0,0,1,.49-1.33,3.15,3.15,0,0,1,.28-.51.54.54,0,0,1,.22-.21c.32-.16,0-.64-.28-.48a1.7,1.7,0,0,0-.66.83,11.06,11.06,0,0,0-.53,1.39c-.3.93-.46,1.88-.69,2.82-.08.35.45.5.54.15Z"/><path class="cls-7" d="M48.22,110.22a6.94,6.94,0,0,1,1.72,2.55.26.26,0,0,0,.31.17.25.25,0,0,0,.18-.31,7.42,7.42,0,0,0-1.85-2.77c-.24-.22-.6.14-.36.36Z"/><path d="M48.93,102.31c2.31,0,4.6-.54,6.91-.55a.23.23,0,0,0,0-.45c-2.31,0-4.6.53-6.91.54a.23.23,0,0,0,0,.46Z"/><path d="M49.15,102.14a0,0,0,0,0,0,0c0,.06,0,0,0,0l0-.08c0-.07.07-.13.1-.19s.17-.3.26-.44.34-.54.52-.81l.11-.17a.23.23,0,0,0-.39-.23c-.31.45-.61.91-.88,1.39a3.42,3.42,0,0,0-.21.43.24.24,0,0,0,.16.28.22.22,0,0,0,.28-.16Z"/><path d="M76.35,98.1l3.89.93a.21.21,0,0,0,.11-.41l-3.89-.93c-.26-.06-.37.35-.11.41Z"/><polygon class="cls-16" points="74.14 100.84 76.77 101.84 76.39 99.86 80.17 100.35 79.07 103.07 78.87 107.33 76.98 107.08 75.77 106.46 74.58 105.38 74.05 103.71 74.14 100.84"/><path d="M81,100.3c-.74,2-1.55,3.07-1.08,5.11a8.52,8.52,0,0,1,.33,1.64c0,.37-1.29.8-1.42.28a10.09,10.09,0,0,1,.75-7"/><path d="M76.62,104.42a11.37,11.37,0,0,0,1.46-1.22c.46-.43.9-.87,1.36-1.29.22-.2-.1-.53-.32-.33l-1.34,1.27A10.37,10.37,0,0,1,76.39,104c-.24.16,0,.56.23.4Z"/><polygon class="cls-16" points="77.11 96.14 79.8 96.93 82.18 97.76 81.25 96.28 77.72 95.79 76.24 95.79 77.11 96.14"/><path d="M74,94.11c1.68,2.08,2.15,5.13,2.39,7.72l.47-.2c-1.68-1.63-4.15-1.43-6.28-2a.27.27,0,0,0-.31.12,9.69,9.69,0,0,0-.75,3.69l.35-.27a3.46,3.46,0,0,0-2.59.84c-.88.62-1.65,1.37-2.49,2-.28.23.11.62.39.4.72-.57,1.38-1.21,2.11-1.76a3.44,3.44,0,0,1,2.43-1,.29.29,0,0,0,.36-.26,9,9,0,0,1,.67-3.41l-.31.13c2,.5,4.45.29,6,1.82.16.16.5.06.48-.19-.26-2.76-.77-5.9-2.56-8.11-.22-.28-.61.12-.39.39Z"/><path d="M76.33,99.82a30.39,30.39,0,0,0,3.14.57c.75.11,1.53.17,2.27.35a.23.23,0,0,0,.12-.44c-.74-.18-1.52-.24-2.27-.35a29.72,29.72,0,0,1-3.13-.57c-.29-.07-.41.37-.13.44Z"/><path d="M75.5,96c1.12.3,2.21.67,3.3,1a29,29,0,0,1,3.26,1.21c.27.13.5-.26.23-.39A27.06,27.06,0,0,0,79,96.64c-1.11-.38-2.24-.76-3.38-1.07a.23.23,0,0,0-.12.44Z"/><path d="M67.18,113.86a71.79,71.79,0,0,0,10.57-.28c.35,0,.35-.59,0-.56a70.44,70.44,0,0,1-10.57.28c-.36,0-.36.54,0,.56Z"/><path d="M64.39,78.6A2.34,2.34,0,0,1,64,80.41a16.36,16.36,0,0,1-1,1.58c-.15.21.19.41.34.2a16.54,16.54,0,0,0,1.11-1.74,2.53,2.53,0,0,0,.39-2c-.09-.24-.47-.14-.38.1Z"/><path d="M63.28,81.5a1.07,1.07,0,0,0-.48.92,1.16,1.16,0,0,0,.55,1,2.41,2.41,0,0,0,1.43.48,2.59,2.59,0,0,0,.78-.17,1.53,1.53,0,0,0,.63-.36.8.8,0,0,0,.2-.69c0-.23-.15-.41-.4-.39s-.25.41,0,.39c.06,0,.06,0,0,0v0s0,.09,0,.11a.35.35,0,0,1-.06.25,1,1,0,0,1-.55.34,2.06,2.06,0,0,1-.73.14,2,2,0,0,1-.67-.18c-.32-.14-.74-.36-.8-.74s0-.65.28-.77,0-.45-.2-.34Z"/><path class="cls-17" d="M71.21,113.67s3.59,13.72,8.37,12.83,4.16-5.59,4.16-5.59"/><path class="cls-17" d="M81.72,100.35s1.85-2.81,2-2.82"/><path class="cls-17" d="M81.44,100.45s.55-3,1.48-3.17"/><ellipse class="cls-18" cx="81.83" cy="104.77" rx="0.87" ry="0.47" transform="translate(-51.05 100.92) rotate(-50.35)"/><ellipse class="cls-18" cx="81.91" cy="105.98" rx="0.87" ry="0.47" transform="translate(-51.95 101.42) rotate(-50.35)"/><ellipse class="cls-18" cx="81.96" cy="107.27" rx="0.87" ry="0.47" transform="translate(-52.93 101.93) rotate(-50.35)"/><ellipse class="cls-18" cx="82" cy="108.7" rx="0.87" ry="0.47" transform="matrix(0.64, -0.77, 0.77, 0.64, -54.01, 102.47)"/><ellipse class="cls-18" cx="81.93" cy="110.09" rx="0.87" ry="0.47" transform="translate(-55.11 102.92) rotate(-50.35)"/><ellipse class="cls-18" cx="81.93" cy="111.42" rx="0.87" ry="0.47" transform="translate(-56.13 103.4) rotate(-50.35)"/><ellipse class="cls-18" cx="82.07" cy="112.82" rx="0.87" ry="0.47" transform="translate(-57.16 104.02) rotate(-50.35)"/><ellipse class="cls-18" cx="82.12" cy="114.24" rx="0.87" ry="0.47" transform="translate(-58.24 104.57) rotate(-50.35)"/><ellipse class="cls-18" cx="82.39" cy="115.74" rx="0.87" ry="0.47" transform="translate(-59.29 105.32) rotate(-50.35)"/><ellipse class="cls-18" cx="82.59" cy="117.09" rx="0.87" ry="0.47" transform="translate(-60.27 105.97) rotate(-50.35)"/><ellipse class="cls-18" cx="82.9" cy="118.53" rx="0.87" ry="0.47" transform="translate(-61.26 106.72) rotate(-50.35)"/><path class="cls-18" d="M83.84,119.29c.12.26-.07.72-.42,1s-.72.37-.84.12.28-.88.63-1.19S83.72,119,83.84,119.29Z"/><ellipse class="cls-18" cx="83.77" cy="121.05" rx="0.87" ry="0.47" transform="translate(-62.88 108.3) rotate(-50.35)"/><ellipse class="cls-18" cx="84.34" cy="122.21" rx="0.87" ry="0.47" transform="translate(-63.57 109.17) rotate(-50.35)"/><ellipse class="cls-18" cx="84.87" cy="123.17" rx="0.87" ry="0.47" transform="translate(-64.12 109.92) rotate(-50.35)"/><path class="cls-19" d="M81.44,104.18l.26-4.67.51.06c.15,0,.27.24.27.45L82,103.76Z"/><path d="M81.43,104.5l0,0h0l0,0a.21.21,0,0,1,0,.06v0s0,0,0,0a.17.17,0,0,1,0,.1s0,0,0,0v0s0,.06,0,0,0,0,0,0l0,.09s0,0,0,0,0,0,0,0a.56.56,0,0,1-.05.08l0,0h0l-.06.07a.8.8,0,0,1-.13.13l-.18.16a.23.23,0,0,0,.32.32c.07-.07.14-.12.21-.18a1.93,1.93,0,0,0,.29-.35.88.88,0,0,0,.14-.5,1,1,0,0,0-.26-.59.25.25,0,0,0-.33,0,.26.26,0,0,0,0,.33Z"/><path d="M81.66,105.8l0,0s0,0,0,0l0,0,0,.06v0s0,0,0,0,0,.08,0,.11,0-.06,0,0v0s0,.07,0,0a.06.06,0,0,0,0,0l0,.09s0,0,0,0,0,0,0,0l0,.08,0,0h0l-.06.07-.12.12-.19.16a.23.23,0,0,0,0,.32.23.23,0,0,0,.33,0l.21-.18a1.64,1.64,0,0,0,.29-.35.92.92,0,0,0,.13-.49.94.94,0,0,0-.26-.59.23.23,0,1,0-.32.32Z"/><path d="M81.78,107.35l0,.06s0,0,0,0l0,0v0s0,0,0,0,0,.08,0,.09,0-.06,0,0v0s0,.06,0,0a.07.07,0,0,0,0,.05v0s0,.06,0,0l-.1.15s0,0,0,0l0,0-.06.06-.12.12-.19.15a.24.24,0,0,0,0,.33.23.23,0,0,0,.32,0,3.8,3.8,0,0,0,.37-.33.9.9,0,0,0,.27-.72.86.86,0,0,0-.25-.49.23.23,0,0,0-.32.32Z"/><path d="M81.87,109l.06.06v0l0,0,0,0,0,0s0-.05,0,0v0s0,.06,0,0h0v0h0c0-.05,0,0,0,0v0s0,.05,0,0,0,0,0,0l0,0,0,0s0,0,0,0l0,0-.09.1-.1.08s0,0,0,0l0,0,0,0-.2.14a.23.23,0,0,0,0,.33.23.23,0,0,0,.32,0l0,0h0l0,0,.1-.06c.08-.07.17-.13.25-.21a.78.78,0,0,0,.3-.62.72.72,0,0,0-.24-.44.22.22,0,0,0-.32,0,.22.22,0,0,0,0,.32Z"/><path d="M81.85,110.25l.07.06s0,0,0,0,0,0,0,0,0,0,0,0v0s0,0,0,0,0,0,0,0h0s0,0,0,0v0s0,0,0,.06l0,0s0,0,0,0,0,0,0,0l0,0-.1.09,0,0,0,0,0,0h0l-.1.07-.16.11a.3.3,0,0,0-.11.14.25.25,0,0,0,0,.17.23.23,0,0,0,.31.09c.14-.11.29-.19.42-.31a.73.73,0,0,0,.3-.59.62.62,0,0,0-.23-.43.24.24,0,0,0-.33,0,.24.24,0,0,0,0,.32Z"/><path d="M81.94,111.42a.17.17,0,0,1,.06.06l0,0s0,0,0,0l0,0v0s0-.05,0,0,0,0,0,.06v0h0v0s0,0,0,0v.07h0s0,0,0,0,0,0,0,.06l0,0s0,0,0,0l0,0-.1.09-.05,0,0,0h0s0,0,0,0l-.1.07-.2.14a.26.26,0,0,0-.07.17.26.26,0,0,0,.07.16.23.23,0,0,0,.32,0l0,0h0l0,0,.1-.06.26-.2a.76.76,0,0,0,.29-.61.66.66,0,0,0-.23-.44.25.25,0,0,0-.33,0,.23.23,0,0,0,0,.32Z"/><path d="M82.08,112.91l.06,0,0,0s0,0,0,0l0,0h0s0,0,0,0v0s0,0,0,0v0s0-.07,0,0v0a0,0,0,0,0,0,0s0,0,0,0v0l0,0,0,0s0,0,0,0l0,0-.1.09h0l0,0s0,0,0,0l0,0-.1.07-.16.11a.24.24,0,0,0-.11.13.28.28,0,0,0,0,.18.24.24,0,0,0,.32.08l.15-.1a2.48,2.48,0,0,0,.26-.19.74.74,0,0,0,.32-.58.6.6,0,0,0-.24-.41.24.24,0,0,0-.16-.07.21.21,0,0,0-.16.07.22.22,0,0,0,0,.32Z"/><path d="M82.19,114.06l0,0h0v0l0,.05v0s0,0,0,0,0,0,0,.06a.07.07,0,0,1,0,.05v0c0,.06,0,0,0,0v0s0,0,0,0,0,0,0,0l0,.08a.05.05,0,0,0,0,0s0,0,0,0,0,0,0,0l0,0-.06.06-.13.11-.19.15a.24.24,0,0,0,0,.32.24.24,0,0,0,.33,0c.12-.11.25-.19.36-.31a.9.9,0,0,0,.29-.68.92.92,0,0,0-.25-.5.24.24,0,0,0-.33,0,.24.24,0,0,0,0,.32Z"/><path d="M82.55,115.78l0,0,0,0v0s0,0,0,0a.08.08,0,0,0,0,0v0a.08.08,0,0,0,0,0s0-.07,0,0v0s0-.07,0,0a.06.06,0,0,1,0,0s0,0,0,0,0,0,0,0v0l0,.07s0,0,0,0l0,0a.46.46,0,0,1-.12.12l-.07.06,0,0c.06,0,0,0,0,0l-.23.17a.23.23,0,1,0,.32.32h0l0,0,.09-.07a1.73,1.73,0,0,0,.25-.21.83.83,0,0,0,.3-.63.74.74,0,0,0-.24-.46.25.25,0,0,0-.33,0,.23.23,0,0,0,0,.32Z"/><path d="M82.69,117l0,0,0,0s0,0,0,0,0,0,0,0a.08.08,0,0,1,0,0s0,0,0,0v0a.06.06,0,0,1,0,0s0-.06,0,0v0s0-.07,0,0,0,0,0,0,0,0,0,0v0l0,.07s0,.06,0,0l0,0-.12.12-.07.06,0,0s0,0,0,0l-.23.17a.23.23,0,0,0,.32.32h0l0,0,0,0,.1-.07c.08-.07.17-.13.25-.21a.81.81,0,0,0,.29-.64.74.74,0,0,0-.24-.47.23.23,0,0,0-.32,0,.25.25,0,0,0,0,.33Z"/><path d="M83,118.55s0,0,.06.06,0,0,0,0,0,0,0,0l0,0v0s0-.06,0,0a0,0,0,0,1,0,0s0,.06,0,0,0,0,0,0,0,0,0,0v0s0,0,0,0l0,.06,0,0v0l0,0-.1.09a.1.1,0,0,1,0,0l0,0s0,0,0,0v0l-.1.06-.16.12a.24.24,0,0,0-.11.13.28.28,0,0,0,0,.18.23.23,0,0,0,.31.08c.14-.1.28-.19.41-.3a.76.76,0,0,0,.31-.6.63.63,0,0,0-.24-.44.23.23,0,1,0-.32.33Z"/><path d="M83.27,119.76l0,0,0,0s0,0,0,0,0,0,0,0,0,0,0,0,0,0,0,0v0s0,0,0,0,0,0,0,0v0s0-.06,0,0a.06.06,0,0,0,0,0,0,0,0,0,0,0,0s0-.05,0,0v0l0,.08,0,0c0-.06,0,0,0,0a.8.8,0,0,1-.13.13l0,0,0,0s0,0,0,0l-.23.17a.24.24,0,0,0,0,.33.23.23,0,0,0,.32,0s0,0,0,0l0,0,.1-.07c.08-.07.17-.13.25-.21a.81.81,0,0,0,.29-.64.79.79,0,0,0-.24-.47.23.23,0,0,0-.32,0,.23.23,0,0,0,0,.33Z"/><path d="M83.74,121l.06.06,0,0,0,0s0,0,0,0v0s0,0,0,0v0s0,0,0,0,0,0,0,0v0s0,0,0,0,0,0,0,0v0s0,0,0,0,0,0,0,0v0a.1.1,0,0,1,0,0s0,0,0,0l0,0-.1.1-.1.08s.05,0,0,0l0,0,0,0-.2.14a.25.25,0,0,0,0,.33.23.23,0,0,0,.32,0l0,0h0l0,0,.09-.06a1.73,1.73,0,0,0,.25-.21.76.76,0,0,0,.3-.62.67.67,0,0,0-.24-.44.22.22,0,0,0-.32,0,.23.23,0,0,0,0,.32Z"/><path d="M84.28,122.17l0,0,0,0s0,0,0,0l0,0s0,0,0,0,0,0,0,0v0a.06.06,0,0,0,0,0s0-.06,0,0,0,0,0,0,0-.06,0,0a.2.2,0,0,1,0,.08s0,0,0,0h0a.3.3,0,0,1,0,.08s0,0,0,0l0,0-.13.12-.06.06,0,0c.06,0,0,0,0,0a2.68,2.68,0,0,0-.23.17.23.23,0,0,0,0,.32.25.25,0,0,0,.33,0s-.06,0,0,0l0,0,.09-.07.26-.2a.84.84,0,0,0,.29-.64.77.77,0,0,0-.24-.46.23.23,0,0,0-.32,0,.22.22,0,0,0,0,.32Z"/><path d="M84.73,123.05l0,.06h0l0,0a.73.73,0,0,0,0,.09v0a.07.07,0,0,1,0,0v0c0,.06,0,0,0,0a.06.06,0,0,1,0,0s0,0,0,0,0,0,0,0a.36.36,0,0,1,0,.09l0,0h0a1.88,1.88,0,0,1-.25.24l-.06,0s0,0,0,0l0,0-.12.09a.24.24,0,0,0,0,.33.24.24,0,0,0,.32,0l0,0,0,0,0,0,.13-.1a2,2,0,0,0,.21-.2.86.86,0,0,0,.28-.67.84.84,0,0,0-.24-.49.24.24,0,0,0-.33,0,.23.23,0,0,0,0,.32Z"/><polygon class="cls-8" points="82.16 140.59 82.16 142.96 83.01 145.01 83.3 145.01 82.56 142.21 82.49 140.44 82.16 140.59"/><path class="cls-20" d="M70.19,108.79l-.25,0,.08-.35h.09a.58.58,0,0,0,.22-.06.24.24,0,0,0,.11-.13.4.4,0,0,0,0-.2c0-.07,0-.19,0-.36v0a.4.4,0,0,0,0-.13.16.16,0,0,0-.08-.06.26.26,0,0,0-.16,0l-.67.07-.1-1,.43,0,.06.62.3,0a.7.7,0,0,1,.48.08.53.53,0,0,1,.2.39V108a.78.78,0,0,1-.17.53A.9.9,0,0,1,70.19,108.79Z"/><path class="cls-20" d="M71.61,106.66l-.08.61-.37,0,.19-.62Zm.56-.06-.09.61-.36,0,.19-.62Z"/><path class="cls-20" d="M74.21,108.36l-.43,0-.09-.91a.49.49,0,0,0-.13-.28.37.37,0,0,0-.31-.08l-.25,0-.42.12V107a3.34,3.34,0,0,1,.73-.17.74.74,0,0,1,.57.14.69.69,0,0,1,.24.52Zm-1,.11-.43,0-.1-.94.41-.25Z"/><path class="cls-20" d="M74.51,108l.81-.09-.95-1,.37-.23.61.67a.64.64,0,0,0,.06-.16,2.11,2.11,0,0,0,0-.23l0-.31.42,0,0,.35a.72.72,0,0,1,0,.33.84.84,0,0,1-.22.32l.3.35,0,.3-1.37.15Z"/><polygon class="cls-2" points="73.38 121.82 77.86 121.31 79.6 119.97 92.32 118.54 99.59 121.08 99.26 126.57 98.09 127.73 96.61 128.5 79.8 129.02 77.89 127.31 74.05 127.74 74.27 123 73.38 121.82"/><path d="M90.56,122a10,10,0,0,1,1.79-2c.15-.13-.07-.34-.22-.21a10,10,0,0,0-1.83,2.11c-.11.16.15.32.26.15Z"/><polygon class="cls-8" points="91.89 107.82 94.54 107.71 100.02 124.03 96.48 123.67 95.55 123.27 98.78 122.87 91.07 121.32 97.53 120.48 93.14 117.36 96.75 116.99 94.37 110.45 91.89 107.82"/><path class="cls-7" d="M88.81,107.81c1.64,0,3.28.09,4.92.1l-.07-.5c-2.48.44-5,.6-7.5,1-.33.06-.19.55.13.5,2.49-.44,5-.61,7.51-1,.29-.05.21-.5-.07-.5-1.64,0-3.28-.09-4.92-.1a.26.26,0,0,0,0,.51Z"/><path d="M90.47,122.1a22.63,22.63,0,0,1,2.78-.81,7.55,7.55,0,0,1,2.91-.26c.2,0,.28-.26.08-.3a8,8,0,0,0-2.91.23,21.47,21.47,0,0,0-2.94.85c-.19.07-.11.36.08.29Z"/><path class="cls-9" d="M91.84,117.44s4.1.14,6,1.12"/><path class="cls-9" d="M78.38,120.61s3.9-1.28,6.05-1"/><path class="cls-9" d="M98.44,127.41s-3.9,1.28-6.06,1"/><path class="cls-9" d="M84.53,128.66s-4.1.33-6.13-.42"/><path class="cls-9" d="M95.41,123.35a12,12,0,0,1,4.18.08"/><path class="cls-7" d="M47.78,105.36a6.84,6.84,0,0,1-1.82,5.3c-.2.21.12.53.32.32a7.33,7.33,0,0,0,1.95-5.62c0-.29-.47-.29-.45,0Z"/><path class="cls-7" d="M47.72,107.6c-.72,1.47-1.5,2.92-2.22,4.39l.47.2c.68-2.43,1.63-4.79,2.31-7.22a.26.26,0,0,0-.5-.14c-.68,2.44-1.63,4.79-2.3,7.22-.08.28.34.47.47.2.72-1.47,1.49-2.92,2.21-4.39.15-.3-.3-.56-.44-.26Z"/><polygon class="cls-2" points="62.24 122.99 57.75 122.48 56.02 121.13 43.3 119.7 36.03 122.25 36.36 127.74 37.53 128.9 39.01 129.66 55.82 130.18 57.72 128.47 61.57 128.91 61.34 124.17 62.24 122.99"/><path d="M45.32,123.05a10.06,10.06,0,0,0-1.84-2.12c-.14-.13-.36.09-.21.22a10.3,10.3,0,0,1,1.79,2c.1.16.37,0,.26-.15Z"/><polygon class="cls-8" points="43.73 108.99 41.08 108.88 35.59 125.2 39.14 124.84 40.07 124.43 36.84 124.04 44.55 122.49 38.08 121.65 42.48 118.53 38.87 118.16 41.24 111.61 43.73 108.99"/><path class="cls-7" d="M46.8,108.47c-1.64,0-3.28.08-4.92.09-.27,0-.36.46-.06.51,2.48.44,5,.6,7.5,1,.33.06.47-.43.14-.49-2.49-.44-5-.6-7.51-1.05l-.07.51c1.64,0,3.28-.09,4.92-.1a.26.26,0,0,0,0-.51Z"/><path d="M45.23,123a21.6,21.6,0,0,0-2.95-.85,7.52,7.52,0,0,0-2.91-.23c-.19,0-.11.33.08.29a7.79,7.79,0,0,1,2.92.27,22.63,22.63,0,0,1,2.78.81c.18.07.26-.23.08-.29Z"/><path class="cls-9" d="M43.78,118.61s-4.1.14-6,1.11"/><path class="cls-9" d="M37.18,128.58s3.9,1.28,6,1"/><path class="cls-9" d="M40.2,124.52a12,12,0,0,0-4.17.07"/><path class="cls-9" d="M69.59,120.83s.78-.68,1.47-.46,1.56.54,1.56.54"/><path d="M78.21,123.06a8.63,8.63,0,0,1-1.59.41,7.16,7.16,0,0,1-.93.11,2.16,2.16,0,0,1-.36,0s0,0,0,0l-.07,0s-.07,0,0,0l0,0a.26.26,0,0,0-.26.44,1.12,1.12,0,0,0,.72.14,6.79,6.79,0,0,0,1-.12,8.24,8.24,0,0,0,1.71-.43.26.26,0,0,0,.18-.31.25.25,0,0,0-.32-.18Z"/><path class="cls-5" d="M70.72,129.12c1.12.93,3.06-.32,3.06-.32l2.32-.1,1.84-.9,1.83-.34c1.68-4.95-.31-4.68-.31-4.68l-1.45.39-.75.12-.7-1.12-1.42-1.36s-.67-.44-1-.28a17.07,17.07,0,0,1-2.93-.14s-2.45-1-2.59.8a7,7,0,0,1-.93,3s-.72,2.69-.47,3A29.57,29.57,0,0,0,70.72,129.12Z"/><path class="cls-21" d="M69.74,120.1s-1.74-.16-1.18,1.46l.88.63"/><path class="cls-21" d="M69.27,122s-1.74-.17-1.18,1.46l.87.62"/><path class="cls-21" d="M68.41,125.92s-1.75-.17-1.19,1.46l.88.62"/><path class="cls-21" d="M68.65,124.06s-1.75-.16-1.19,1.46l.88.63"/><path class="cls-21" d="M72.67,120.53s2-.75,2.47.28,1,1.08,1,1.08"/><path class="cls-5" d="M64.25,129.75c-1.19.84-3-.57-3-.57l-2.31-.3-1.75-1.06-1.8-.49c-1.25-5.08.72-4.64.72-4.64l1.41.51.73.19.8-1.06,1.53-1.24s.71-.37,1-.18a17.08,17.08,0,0,0,2.93.11s2.53-.82,2.51,1a6.91,6.91,0,0,0,.67,3.11s.49,2.73.21,3A29.47,29.47,0,0,1,64.25,129.75Z"/><path class="cls-21" d="M66,120.86s1.75,0,1,1.55l-.93.55"/><path class="cls-21" d="M66.3,122.82s1.75,0,1.06,1.56l-.93.55"/><path class="cls-21" d="M66.83,126.76s1.75,0,1,1.56l-.92.55"/><path class="cls-21" d="M66.75,124.89s1.75,0,1,1.56l-.93.55"/><path class="cls-21" d="M63,121s-1.91-.92-2.48.06-1.08,1-1.08,1"/><polygon class="cls-2" points="176.15 99.24 175.72 102.01 174.88 106.69 189.77 127.41 193.78 128.84 196.67 125.95 188.79 104.11 179.75 98.66 176.15 99.24"/><path class="cls-7" d="M185.11,109c-.45-1.24-.58-2.56-1-3.81-.1-.32-.6-.18-.5.13.39,1.25.53,2.57,1,3.81.11.31.61.18.5-.13Z"/><path class="cls-10" d="M181.38,124.44a20.19,20.19,0,0,0-1.53-12.67c-.12-.27-.52,0-.39.23a19.73,19.73,0,0,1,1.48,12.32c-.06.28.38.4.44.12Z"/><polygon class="cls-1" points="167.8 95.64 167.64 89.92 168.47 88.66 170.65 87.24 172.17 83.31 170.21 81.78 169.24 73.48 162.03 71.07 154.92 73.26 153.63 81.77 152.52 82.85 153.37 86.99 154.24 87.54 154.27 89.86 156.01 92.04 155.9 96.89 153.39 100.14 156.01 109.08 161.47 111.48 168.68 103.62 172.17 98.38 167.8 95.64"/><g class="cls-22"><polygon class="cls-12" points="168.69 85.48 172.19 76.29 148.46 50.49 154.16 84.9 155 78.7 155.66 77.1 156.36 74.28 161.23 75.26 166.77 74.49 167.43 77.09 168.65 78.93 168.47 84.06 168.69 85.48"/></g><polygon points="166.2 79.89 166.26 78.78 163.34 78.18 162.69 78.94 166.2 79.89"/><polygon points="159.44 79.19 159.32 78.06 156.73 78.68 156.31 79.51 159.44 79.19"/><path d="M163.35,86.43a6.78,6.78,0,0,1-4.06.66c-.33-.06-.47.45-.14.5a7.24,7.24,0,0,0,4.46-.71c.3-.15,0-.61-.26-.45Z"/><path d="M166.36,91.28l-4.08,2.56H159l-2.38-1.47,1.89,4a2.33,2.33,0,0,0,1,1.16h0a2.4,2.4,0,0,0,1.08.27h.12a2.25,2.25,0,0,0,1.46-.54l.85-.71a2.51,2.51,0,0,0,.53-.64l1.88-3.43Z"/><path d="M167.14,90.19,163.82,93l-.68.57c-.26.22.11.59.37.37,1.12-.92,2.22-1.86,3.33-2.79l.67-.56c.27-.22-.11-.59-.37-.38Z"/><path d="M157.8,79.46a2.24,2.24,0,0,1,0,1.65l.44-.12a1.06,1.06,0,0,1-.18-.33.86.86,0,0,1-.06-.23c0-.06,0-.11,0-.2a3.85,3.85,0,0,1,0-.48,2,2,0,0,0,0-.23v-.07s0,0,0,0-.07.06-.16,0-.16,0-.18,0a.19.19,0,0,1,0-.22l.11-.07h0c-.14,0-.26.13-.26.26a.26.26,0,0,0,.26.26.3.3,0,0,0,.29-.39.33.33,0,0,0-.39-.24c-.33.08-.31.52-.33.79a2,2,0,0,0,.41,1.55.27.27,0,0,0,.44-.11,2.79,2.79,0,0,0,0-1.93.27.27,0,0,0-.32-.19.27.27,0,0,0-.19.33Z"/><path d="M164.3,79.27a2.24,2.24,0,0,1,0,1.65l.44-.11a1.06,1.06,0,0,1-.18-.33.86.86,0,0,1-.06-.23c0-.06,0-.11,0-.2a4,4,0,0,1,0-.49,1.64,1.64,0,0,0,0-.23s0-.08,0,0v0h0c0,.06-.08.06-.17,0s-.16,0-.18,0a.19.19,0,0,1,0-.22l.12-.07h0a.27.27,0,0,0-.26.27.26.26,0,0,0,.26.26.3.3,0,0,0,.29-.39.32.32,0,0,0-.39-.24c-.33.08-.31.52-.33.78a2.06,2.06,0,0,0,.41,1.56.26.26,0,0,0,.44-.12,2.79,2.79,0,0,0,0-1.93.26.26,0,0,0-.51.14Z"/><path d="M170.3,84.56l-1.15.59a.26.26,0,0,0-.09.36.27.27,0,0,0,.36.09l1.14-.58a.26.26,0,1,0-.26-.46Z"/><path d="M169.72,84l-.71,1.3a.27.27,0,0,0,.09.36.28.28,0,0,0,.36-.09l.71-1.3a.26.26,0,0,0-.45-.27Z"/><path d="M171.59,83.39a3.25,3.25,0,0,0-1.85.63.28.28,0,0,0-.1.36.26.26,0,0,0,.36.09,2.76,2.76,0,0,1,1.59-.55.26.26,0,0,0,.26-.26.28.28,0,0,0-.26-.27Z"/><polygon points="152.46 145.45 178.67 142.38 178.78 136.18 152.84 136.15 152.46 145.45"/><polygon class="cls-2" points="178.56 118.04 178.29 138.03 174.51 139.54 164.81 138.81 152.89 137.88 152.31 136.98 152.89 135 147.12 114.75 142.95 108.09 144.82 101.79 153.42 97.61 156.03 94.79 156.2 96.47 156.02 99.38 160.63 107.22 167.9 97.34 168 95.17 167.96 94.39 167.66 92.16 170.37 94.82 182.61 99.51 183.7 111.89 178.56 118.04"/><g class="cls-23"><polyline class="cls-8" points="152.52 139.13 154.65 135.28 147.79 116.09"/></g><polygon class="cls-8" points="178.07 138.11 177.81 127 177.82 119.29 178.31 119.44 178.44 138 178.07 138.11"/><path d="M149.09,115.17a16.84,16.84,0,0,1,.4,2.91c0,.46,0,.93.06,1.4a4.41,4.41,0,0,0,.07,1.26c.23.64.76.7,1.34.78.88.12,1.76.24,2.64.33a16.92,16.92,0,0,0,3.1.1,1.13,1.13,0,0,0,1.13-.74,20.59,20.59,0,0,0,.43-3.59,30.66,30.66,0,0,1,.5-4.28.23.23,0,0,0-.44-.12,66.22,66.22,0,0,0-.75,6.76c0,.39,0,1-.33,1.32s-.73.21-1.09.22a14.29,14.29,0,0,1-1.46,0c-.93-.06-1.87-.16-2.8-.29l-.95-.14c-.33,0-.69-.06-.86-.41a2.06,2.06,0,0,1-.06-.75c0-.22,0-.45,0-.67,0-.47,0-.93-.07-1.4a16.2,16.2,0,0,0-.4-2.78c-.06-.29-.5-.17-.44.12Z"/><path d="M165.47,114.58c.13,1,.25,2,.37,3.06.09.75.18,1.5.25,2.26a1.13,1.13,0,0,0,.84,1.07,10.86,10.86,0,0,0,1.28.1l1.48.1c1,0,2.06.08,3.08,0,.72,0,1.66.06,2.14-.58a3.67,3.67,0,0,0,.31-1.75,43.41,43.41,0,0,1,.32-5.47c.05-.29-.39-.41-.44-.12a26,26,0,0,0-.27,4c0,.72-.05,1.45-.12,2.16a1.94,1.94,0,0,1-.19.9c-.26.34-.78.3-1.17.33a32.12,32.12,0,0,1-5.28-.11,3.27,3.27,0,0,1-1.18-.14c-.33-.18-.33-.51-.37-.84-.07-.66-.14-1.32-.22-2-.12-1-.24-2-.37-3.06,0-.29-.5-.29-.46,0Z"/><polygon class="cls-2" points="160.97 138.5 160.97 145.29 159.36 145.29 159.36 137.47 160.97 137.47 160.97 138.5"/><polygon class="cls-2" points="156.04 138.5 156.04 145.29 154.43 145.29 154.43 137.47 156.04 137.47 156.04 138.5"/><polygon class="cls-2" points="168.22 137.54 168.22 145.25 169.99 145.25 169.99 136.51 168.22 136.51 168.22 137.54"/><rect class="cls-2" x="175.89" y="136.15" width="1.61" height="7.71"/><path d="M152,104.71a3.63,3.63,0,0,1,1.57-2,7.06,7.06,0,0,1,2-.68l-.31-.13A8.16,8.16,0,0,1,156,104c.07.39.6.71.88,1,.6.5,1.2,1,1.79,1.52a10,10,0,0,1,.76.7,1.88,1.88,0,0,1,.24.25s0,.07.07.08,0,0,0,0,0-.18.09-.27c-.29.2,0,.68.28.48s0-.66-.21-.88a16.48,16.48,0,0,0-1.32-1.19l-1.5-1.28c-.16-.14-.33-.27-.48-.42s-.11-.12-.1-.1,0,.09,0,0a1,1,0,0,0,0-.25,8,8,0,0,0-.74-2.07.28.28,0,0,0-.31-.13,7,7,0,0,0-2.31.84,4.31,4.31,0,0,0-1.65,2.26c-.13.34.41.48.53.15Z"/><path d="M155.93,103.19a11.57,11.57,0,0,0-2.12.24,14.15,14.15,0,0,0-2,.66c-.33.13-.18.67.15.54a15,15,0,0,1,2-.65,10.72,10.72,0,0,1,2-.24.28.28,0,0,0,0-.55Z"/><path d="M154.48,96.52a9.22,9.22,0,0,0-2.45,4.7,18.1,18.1,0,0,0-.53,3.1c0,.36.53.36.56,0a17.55,17.55,0,0,1,.48-2.87,8.79,8.79,0,0,1,2.34-4.54c.26-.24-.13-.63-.4-.39Z"/><path d="M179.34,119.82a7.69,7.69,0,0,0-1.53-2.43,3.91,3.91,0,0,0-2.22-1.12.26.26,0,0,0-.3.17c0,.12,0,.29.17.3a3.43,3.43,0,0,1,2,1,7.2,7.2,0,0,1,1.42,2.3.26.26,0,0,0,.34.09.27.27,0,0,0,.09-.34Z"/><path class="cls-7" d="M144.74,111.39a7.4,7.4,0,0,1,2.69,5.43c0,.31.5.31.49,0a7.84,7.84,0,0,0-2.84-5.77c-.24-.2-.58.14-.34.34Z"/><path class="cls-7" d="M177.6,117.63c-.51.85-.8,1.82-1.3,2.68-.17.27.26.51.42.24.51-.85.8-1.82,1.3-2.68.17-.27-.26-.51-.42-.24Z"/><path class="cls-7" d="M179.34,119.82a2.44,2.44,0,0,0-1.52-1,.66.66,0,0,0-.62.2,3,3,0,0,0-.5.63,5.77,5.77,0,0,0-.4.68c-.15.28.27.52.42.24a7.16,7.16,0,0,1,.39-.66,3.32,3.32,0,0,1,.26-.36.93.93,0,0,1,.14-.14l.05-.06,0,0h0l.06,0h0s0,0,0,0,0,0,0,0l.08,0a1.5,1.5,0,0,1,.42.15,1.89,1.89,0,0,1,.76.64.25.25,0,0,0,.43-.25Z"/><path class="cls-7" d="M178.56,118.74a.84.84,0,0,0-.59-.17h-.26s-.05,0,0,0h-.11c.07,0,0,0,0,0h0s.05,0,0,0l-.34.35c.15.12.33.29.55.2A.25.25,0,0,0,178,119a.24.24,0,0,0,0-.19l-.22-.61-.41.24.5.6a.25.25,0,0,0,.35,0,.24.24,0,0,0,0-.34l-.5-.61a.26.26,0,0,0-.3,0,.25.25,0,0,0-.11.28l.22.61.17-.3h0s.06,0,0,0,0,0,0,0l0,0,0,0,0,0,0,0-.06,0a.24.24,0,0,0-.34,0,.24.24,0,0,0,0,.35.82.82,0,0,0,.59.16h.25s.06,0,0,0h.1c-.07,0,0,0,0,0h0s0,0,0,0a.25.25,0,0,0,.35,0,.25.25,0,0,0,0-.34Z"/><path class="cls-7" d="M175.65,136c-.62.34-1.21.75-1.84,1.1a21.59,21.59,0,0,1-3.38,1.38c-.33.12-.19.66.15.54a23.36,23.36,0,0,0,3.48-1.43c.64-.34,1.24-.76,1.87-1.11.32-.17,0-.65-.28-.48Z"/><path d="M175,109c-3.68.5-7.37.91-11.07,1.2-.36,0-.36.58,0,.55q5.63-.44,11.22-1.22c.35,0,.2-.58-.15-.53Z"/><path d="M163.7,110.54a15.58,15.58,0,0,0-.72,3.58c-.08.35.45.5.53.15.27-1.14.15-2.38.67-3.45.16-.32-.32-.6-.48-.28Z"/><path d="M174.91,109.44a11.44,11.44,0,0,1-.06,4.44c-.07.35.46.5.53.15a12.39,12.39,0,0,0,.07-4.74c-.07-.35-.6-.2-.54.15Z"/><path d="M175.09,113.75,174,114a.27.27,0,0,0-.19.34.28.28,0,0,0,.34.19l1.09-.23a.28.28,0,0,0,.19-.34.29.29,0,0,0-.34-.2Z"/><path class="cls-7" d="M160.07,138a12.81,12.81,0,0,1,.77-3.29,15.34,15.34,0,0,0,.44-3.37c.09-2.38.09-4.77.07-7.16,0-4.85-.16-9.7-.23-14.55a.28.28,0,0,0-.55,0c.07,4.85.2,9.7.23,14.55,0,2.34,0,4.69-.07,7a14.87,14.87,0,0,1-.56,3.81,10.19,10.19,0,0,0-.65,3,.28.28,0,0,0,.55,0Z"/><path d="M158.33,111.11a6.1,6.1,0,0,1-.86,3.93c-.17.31.31.6.48.28a6.73,6.73,0,0,0,.92-4.35.29.29,0,0,0-.34-.2.29.29,0,0,0-.2.34Z"/><path d="M158.26,110.86a34.17,34.17,0,0,0-9.34.94.28.28,0,0,0,.15.54,33.47,33.47,0,0,1,9.19-.92c.36,0,.35-.55,0-.56Z"/><path d="M148.9,112a7.56,7.56,0,0,1-.42,3c-.12.34.41.48.53.15a8,8,0,0,0,.44-3.17c0-.35-.58-.36-.55,0Z"/><path d="M157.81,114.82a27.21,27.21,0,0,1-3.42.27c-1.65.1-3.3.2-4.95.33a10,10,0,0,0-1.44.14c-.35.08-.2.61.15.53a27.37,27.37,0,0,1,3.43-.27c1.65-.1,3.3-.2,4.95-.33a9.75,9.75,0,0,0,1.43-.14c.35-.08.2-.61-.15-.53Z"/><line class="cls-14" x1="156.19" y1="103.48" x2="153.89" y2="103.9"/><path d="M155.65,101.77a4.18,4.18,0,0,0-2.3.65,4.28,4.28,0,0,0-1.39,1.45l0,.43,3.62-.93.49.13Z"/><path d="M171,101.37c-.78,0-1.56.12-2.34.21l-1.15.11-.55,0h-.11l0,0,0-.09.12-.36-.55-.07a.89.89,0,0,0,.28.76.57.57,0,0,0,.77-.14.54.54,0,0,0-.17-.76.39.39,0,0,0-.57.4c0,.64.88.54,1.28.44l.78-.2a1.21,1.21,0,0,1,.6-.06.28.28,0,0,0,.15-.54,7.58,7.58,0,0,0-2-.06c-.36,0-.36.54,0,.56a6.51,6.51,0,0,1,1.87,0l.15-.54a2.37,2.37,0,0,0-1.18.13c-.2.06-.4.12-.6.16a1.26,1.26,0,0,1-.27,0,.48.48,0,0,0-.12,0h0c-.07,0-.1,0-.11.09H167c.08,0,0,0,0,0s0-.19,0-.28c0-.32-.45-.36-.55-.07a1.6,1.6,0,0,0-.16.71.48.48,0,0,0,.48.39,8.64,8.64,0,0,0,1.34-.1c1-.09,1.89-.22,2.84-.26.36,0,.36-.57,0-.55Z"/><path class="cls-2" d="M178.79,143.7s0-2.37-.09-2.36l-1.2.55-.72,0-25-2.73s-.06,2.31-.08,2.34l-.73,1.62h0l-.88,2.82h29.4Z"/><g class="cls-24"><rect class="cls-8" x="139.2" y="134.15" width="13.62" height="12.78"/></g><path class="cls-2" d="M179.46,163.59h0a.08.08,0,0,0,.13.08l0,0v0A.08.08,0,0,0,179.46,163.59Z"/><path d="M160.33,145.6c.41-1.56.88-3.11,1.37-4.65.11-.34-.42-.48-.53-.14-.49,1.54-1,3.08-1.38,4.65a.28.28,0,0,0,.54.14Z"/><path d="M158.69,145.67c.21-.89.37-1.78.64-2.66a9.19,9.19,0,0,1,.48-1.33,3.05,3.05,0,0,1,.28-.5.58.58,0,0,1,.22-.22c.32-.16,0-.64-.28-.48a1.63,1.63,0,0,0-.65.83,10.24,10.24,0,0,0-.54,1.39c-.29.93-.46,1.88-.69,2.82-.08.35.46.5.54.15Z"/><path class="cls-7" d="M144.43,111.12a6.82,6.82,0,0,1,1.72,2.55.25.25,0,1,0,.49-.14,7.42,7.42,0,0,0-1.85-2.77c-.24-.22-.6.14-.36.36Z"/><path d="M145.14,103.21c2.31,0,4.6-.53,6.91-.54a.23.23,0,0,0,0-.46c-2.31,0-4.6.53-6.91.54a.23.23,0,0,0,0,.46Z"/><path d="M145.36,103a0,0,0,0,0,0,0c0,.06,0,0,0,0a.59.59,0,0,0,0-.08l.1-.19c.08-.15.17-.3.26-.44s.34-.54.52-.81c0,0,.07-.11.11-.17a.23.23,0,0,0-.08-.31.24.24,0,0,0-.31.08c-.31.46-.61.92-.88,1.39-.07.14-.15.28-.21.43a.23.23,0,0,0,.16.28.22.22,0,0,0,.28-.16Z"/><path d="M172.56,99l3.89.93c.26.07.38-.34.11-.4l-3.88-.93c-.27-.07-.38.34-.12.4Z"/><polygon class="cls-16" points="170.35 101.74 172.98 102.74 172.6 100.77 176.38 101.25 175.29 103.97 175.08 108.24 173.19 107.98 171.98 107.37 170.79 106.28 170.26 104.62 170.35 101.74"/><path d="M177.25,101.2c-.74,2-1.55,3.07-1.08,5.11a7.82,7.82,0,0,1,.33,1.64c0,.37-1.29.8-1.42.29a10.11,10.11,0,0,1,.75-7.06"/><path d="M172.83,105.32a11.3,11.3,0,0,0,1.46-1.21c.46-.43.9-.88,1.37-1.3.21-.2-.11-.52-.33-.33-.45.42-.89.86-1.33,1.28a9.69,9.69,0,0,1-1.4,1.16c-.24.16,0,.56.23.4Z"/><polygon class="cls-16" points="173.32 97.05 176.01 97.83 178.39 98.66 177.46 97.18 173.94 96.69 172.45 96.69 173.32 97.05"/><path d="M170.17,95c1.68,2.08,2.15,5.13,2.39,7.71l.48-.2c-1.68-1.63-4.16-1.43-6.28-2a.29.29,0,0,0-.32.13,9.64,9.64,0,0,0-.75,3.68l.35-.27a3.44,3.44,0,0,0-2.58.84c-.89.62-1.66,1.37-2.5,2-.28.22.12.61.39.39.72-.57,1.38-1.2,2.11-1.75a3.37,3.37,0,0,1,2.44-1,.29.29,0,0,0,.35-.27,9,9,0,0,1,.67-3.4l-.31.12c2,.5,4.45.29,6,1.83.16.15.5,0,.48-.2-.26-2.75-.77-5.89-2.56-8.11-.22-.27-.61.12-.39.4Z"/><path d="M172.55,100.73a29.7,29.7,0,0,0,3.13.56c.75.11,1.53.17,2.28.35.28.07.4-.37.12-.44-.74-.18-1.53-.24-2.28-.35a29.7,29.7,0,0,1-3.13-.56.23.23,0,0,0-.12.44Z"/><path d="M171.71,96.91c1.12.3,2.21.67,3.3,1a28.47,28.47,0,0,1,3.27,1.22c.26.12.49-.27.23-.4a30.31,30.31,0,0,0-3.29-1.23c-1.12-.38-2.24-.76-3.38-1.07a.23.23,0,0,0-.13.44Z"/><path d="M163.39,114.76a70.41,70.41,0,0,0,10.57-.28c.35,0,.35-.59,0-.56a71.76,71.76,0,0,1-10.57.29c-.36,0-.36.54,0,.55Z"/><path d="M160.6,79.5a2.33,2.33,0,0,1-.44,1.81,16.36,16.36,0,0,1-1,1.58c-.15.21.19.41.34.2a16.54,16.54,0,0,0,1.11-1.74A2.53,2.53,0,0,0,161,79.4c-.09-.24-.47-.13-.38.1Z"/><path d="M159.49,82.41a1.05,1.05,0,0,0-.48.91,1.19,1.19,0,0,0,.55,1,2.4,2.4,0,0,0,1.43.47,2.59,2.59,0,0,0,.78-.17,1.53,1.53,0,0,0,.63-.36.83.83,0,0,0,.21-.69c0-.23-.15-.41-.4-.39s-.26.41,0,.39c0,0,0,0,0,0a0,0,0,0,0,0,0,.27.27,0,0,0,0,.12.45.45,0,0,1-.07.25,1,1,0,0,1-.55.33,2,2,0,0,1-.73.14,2,2,0,0,1-.67-.18c-.31-.13-.74-.36-.8-.74s0-.64.28-.76,0-.45-.2-.34Z"/><path class="cls-17" d="M167.43,114.58s3.58,13.71,8.36,12.82,4.16-5.59,4.16-5.59"/><path class="cls-17" d="M177.93,101.25s1.85-2.81,1.95-2.82"/><path class="cls-17" d="M177.65,101.35s.55-3,1.48-3.17"/><ellipse class="cls-18" cx="178.05" cy="105.67" rx="0.87" ry="0.47" transform="translate(-16.93 175.33) rotate(-50.35)"/><ellipse class="cls-18" cx="178.12" cy="106.88" rx="0.87" ry="0.47" transform="translate(-17.83 175.82) rotate(-50.35)"/><ellipse class="cls-18" cx="178.17" cy="108.18" rx="0.87" ry="0.47" transform="translate(-18.81 176.33) rotate(-50.35)"/><ellipse class="cls-18" cx="178.21" cy="109.6" rx="0.87" ry="0.47" transform="translate(-19.89 176.88) rotate(-50.35)"/><ellipse class="cls-18" cx="178.14" cy="110.99" rx="0.87" ry="0.47" transform="translate(-20.99 177.33) rotate(-50.35)"/><ellipse class="cls-18" cx="178.14" cy="112.32" rx="0.87" ry="0.47" transform="translate(-22.01 177.81) rotate(-50.35)"/><ellipse class="cls-18" cx="178.28" cy="113.72" rx="0.87" ry="0.47" transform="translate(-23.04 178.42) rotate(-50.35)"/><ellipse class="cls-18" cx="178.33" cy="115.14" rx="0.87" ry="0.47" transform="translate(-24.12 178.98) rotate(-50.35)"/><ellipse class="cls-18" cx="178.61" cy="116.64" rx="0.87" ry="0.47" transform="translate(-25.17 179.73) rotate(-50.35)"/><ellipse class="cls-18" cx="178.8" cy="117.99" rx="0.87" ry="0.47" transform="translate(-26.14 180.37) rotate(-50.35)"/><ellipse class="cls-18" cx="179.11" cy="119.43" rx="0.87" ry="0.47" transform="translate(-27.14 181.13) rotate(-50.35)"/><path class="cls-18" d="M180.05,120.2c.12.25-.07.71-.42,1s-.72.37-.84.12.29-.87.63-1.19S179.93,120,180.05,120.2Z"/><ellipse class="cls-18" cx="179.98" cy="121.95" rx="0.87" ry="0.47" transform="translate(-28.76 182.71) rotate(-50.35)"/><ellipse class="cls-18" cx="180.55" cy="123.11" rx="0.87" ry="0.47" transform="translate(-29.45 183.57) rotate(-50.35)"/><ellipse class="cls-18" cx="181.08" cy="124.07" rx="0.87" ry="0.47" transform="translate(-30 184.32) rotate(-50.35)"/><path class="cls-19" d="M177.65,105.08l.26-4.67.52.06c.14,0,.26.24.26.45l-.48,3.74Z"/><path d="M177.65,105.4l0,0h0l0,0,0,.06v0a.19.19,0,0,1,0,.1s0-.05,0,0,0,0,0,0,0,.07,0,0a.06.06,0,0,0,0,0l0,.09s0,0,0,0l0,0-.05.09,0,0s0,0,0,0l-.06.07-.12.12-.19.16a.23.23,0,0,0,0,.32.24.24,0,0,0,.33,0l.2-.18a1.59,1.59,0,0,0,.29-.35.87.87,0,0,0,.14-.49,1,1,0,0,0-.26-.59.22.22,0,0,0-.32,0,.22.22,0,0,0,0,.32Z"/><path d="M177.87,106.7l0,0s0,0,0,0l0,0,0,.07v0s0,0,0,0,0,.08,0,.11,0-.06,0,0v0s0,.07,0,0a.06.06,0,0,1,0,0,.29.29,0,0,1,0,.09s0,0,0,0a.08.08,0,0,1,0,0,.35.35,0,0,1-.05.08l0,0s0,0,0,0l-.06.07-.12.12-.18.16a.23.23,0,0,0,0,.33.23.23,0,0,0,.32,0c.06-.07.14-.12.21-.19a1.87,1.87,0,0,0,.29-.34.89.89,0,0,0,.13-.5.94.94,0,0,0-.26-.59.22.22,0,0,0-.32,0,.23.23,0,0,0,0,.32Z"/><path d="M178,108.26a.12.12,0,0,1,0,0l0,0,0,0v0s0,0,0,0a.93.93,0,0,0,0,.1s0-.06,0,0v0h0a.09.09,0,0,0,0,0v0s0,.07,0,0l-.09.16s0,0,0,0l0,0-.06.07-.12.11-.19.16a.23.23,0,0,0,0,.32.24.24,0,0,0,.33,0c.11-.11.25-.2.36-.32a.84.84,0,0,0,0-1.22.24.24,0,0,0-.33,0,.26.26,0,0,0,0,.33Z"/><path d="M178.08,109.89l.06.06v0s0,0,0,0l0,0,0,0s0,0,0,0v0s0,.06,0,0,0,0,0,0v0s0,.05,0,0,0,0,0,0v0h0l0,0,0,0s0,0,0,0,0,0,0,0a.94.94,0,0,1-.1.1l-.1.08s.05,0,0,0h0l-.05,0a1.49,1.49,0,0,0-.2.15.22.22,0,0,0,0,.32.23.23,0,0,0,.32,0l0,0h0l0,0,.1-.06.25-.2a.81.81,0,0,0,.3-.62.72.72,0,0,0-.24-.45.23.23,0,1,0-.32.32Z"/><path d="M178.07,111.15l.06.06h0s0,0,0,0v0h0s0,0,0,0a0,0,0,0,0,0,0s0,0,0,0,0,0,0,0v.07s0,0,0,0,0,.05,0,.06l0,0s0,0,0,0,0,0,0,0l0,0-.1.09a.1.1,0,0,1-.05,0l0,0,0,0h0l-.1.07-.16.11a.25.25,0,0,0-.08.32.23.23,0,0,0,.31.08c.14-.11.29-.19.42-.3a.75.75,0,0,0,.3-.6.62.62,0,0,0-.23-.43.23.23,0,0,0-.32,0,.22.22,0,0,0,0,.32Z"/><path d="M178.16,112.33l.06.06h0s0,0,0,0a.08.08,0,0,0,0,0l0,0s0,0,0,0a.64.64,0,0,1,0,.07s0-.07,0,0h0v0s0,0,0,0v.06h0s0,0,0,0,0,0,0,.06l0,0s0,0,0,0l0,0-.09.1-.05,0,0,0h0s0,0,0,0l-.1.07-.2.15a.24.24,0,0,0-.07.16.26.26,0,0,0,.07.16.23.23,0,0,0,.32,0l0,0h0l0,0,.09-.07a1.64,1.64,0,0,0,.26-.2.8.8,0,0,0,.3-.61.72.72,0,0,0-.24-.44.23.23,0,0,0-.32,0,.24.24,0,0,0,0,.33Z"/><path d="M178.29,113.81l.06,0,0,0s0,0,0,0l0,0v0s0-.06,0,0v0s0,0,0,0v0s0-.06,0,0v0s0,0,0,0,0,0,0,0v0l0,.05,0,0h0l0,0-.1.09,0,0h0s0,0,0,0l0,0-.1.06-.16.11a.21.21,0,0,0-.08.31.22.22,0,0,0,.31.08l.15-.1.27-.19a.75.75,0,0,0,.31-.58.65.65,0,0,0-.23-.41.26.26,0,0,0-.17-.07.26.26,0,0,0-.16.07.23.23,0,0,0,0,.32Z"/><path d="M178.4,115l0,.06s0,0,0,0l0,0s0,0,0,0v0s0,0,0,0l0,0a.11.11,0,0,0,0,0s0-.06,0,0v0c0,.07,0,0,0,0v0s0,0,0,0,0,0,0,0a.3.3,0,0,1,0,.08.08.08,0,0,1,0,0s0,0,0,0,0,0,0,0l0,0-.06.06a.69.69,0,0,1-.13.11l-.18.15a.24.24,0,0,0,0,.33.24.24,0,0,0,.32,0c.12-.11.25-.2.37-.32a.78.78,0,0,0,0-1.18.24.24,0,0,0-.33,0,.24.24,0,0,0,0,.32Z"/><path d="M178.77,116.68l0,0,0,0v0a.09.09,0,0,0,0,0s0,0,0,0,0,0,0,0v0s0,0,0,0,0-.06,0,0,0,0,0,0,0-.06,0,0a.06.06,0,0,0,0,0l0,0s0,0,0,0v0a.16.16,0,0,1,0,.07h0l0,0a.8.8,0,0,1-.13.13l-.06,0,0,0c.06-.05,0,0,0,0l-.23.17a.23.23,0,0,0,0,.32.25.25,0,0,0,.33,0s-.06,0,0,0l0,0,.09-.07a2.65,2.65,0,0,0,.26-.21.82.82,0,0,0,.29-.63.77.77,0,0,0-.24-.46.23.23,0,0,0-.32,0,.22.22,0,0,0,0,.32Z"/><path d="M178.9,117.91l0,0,0,0s0,0,0,0a.13.13,0,0,1,0,.05l0,0v0a.08.08,0,0,1,0,0s0-.06,0,0v0s0-.07,0,0a.08.08,0,0,1,0,0s0,0,0,0,0,0,0,0v0a.18.18,0,0,1-.05.07s0,.06,0,0l0,0a.46.46,0,0,1-.12.12l-.06.06,0,0h0l-.23.17a.23.23,0,1,0,.32.33l0,0s-.06,0,0,0l0,0,.09-.07a1.64,1.64,0,0,0,.25-.21.83.83,0,0,0,.3-.64.71.71,0,0,0-.25-.46.22.22,0,0,0-.32,0,.23.23,0,0,0,0,.32Z"/><path d="M179.22,119.45l.07.06s0,0,0,0,0,0,0,0,0,0,0,0v0s0,.06,0,0,0,0,0,0,0,0,0,0v0s0,0,0,0,0,0,0,.06l0,0s0,0,0,0l0,0-.1.1,0,0,0,0,0,0h0l-.1.07-.16.11c-.05,0-.09.07-.1.13a.22.22,0,0,0,0,.18.23.23,0,0,0,.31.08c.14-.1.29-.19.42-.3a.78.78,0,0,0,.3-.6.62.62,0,0,0-.23-.43.24.24,0,0,0-.33,0,.24.24,0,0,0,0,.32Z"/><path d="M179.48,120.66l0,0,0,0s0,0,0,0,0,0,0,.05l0,0s0,0,0,0v0a.09.09,0,0,1,0,0c0-.07,0,0,0,0v0s0-.06,0,0,0,0,0,0a.1.1,0,0,1,0,0s0,0,0,0v0l0,.07,0,0c0-.07,0,0,0,0a.8.8,0,0,1-.13.13s0,0-.05,0l0,0s0,0,0,0l-.23.17a.24.24,0,0,0,0,.33.23.23,0,0,0,.32,0s0,0,0,0l0,0,.1-.07a1.64,1.64,0,0,0,.25-.21.79.79,0,0,0,.29-.64.74.74,0,0,0-.24-.46.22.22,0,0,0-.32,0,.23.23,0,0,0,0,.32Z"/><path d="M180,121.94l.06.06,0,0,0,0,0,0v0s0,0,0,0v0s0,.06,0,0h0v0h0s0,0,0,0v0s0,0,0,0,0,0,0,0v0l0,.05,0,0,0,0-.09.1-.1.08s.05,0,0,0h0l-.05,0-.2.15a.23.23,0,0,0,0,.32.25.25,0,0,0,.33,0l0,0h0l0,0,.09-.06.26-.2a.8.8,0,0,0,.29-.62.66.66,0,0,0-.23-.45.24.24,0,0,0-.33,0,.23.23,0,0,0,0,.32Z"/><path d="M180.49,123.07l0,.05,0,0s0,0,0,0,0,0,0,0,0,0,0,0v0s0,0,0,0,0-.06,0,0v0s0-.07,0,0,0,0,0,0l0,0v0l-.05.07s0,0,0,0l0,0-.13.12-.06.06,0,0c.05-.05,0,0,0,0l-.22.17a.22.22,0,0,0,0,.32.23.23,0,0,0,.32,0s0,0,0,0l0,0,.09-.07.26-.21a.79.79,0,0,0,.29-.64.77.77,0,0,0-.24-.46.23.23,0,0,0-.32,0,.22.22,0,0,0,0,.32Z"/><path d="M180.94,124a.12.12,0,0,1,.05.05s0,0,0,0v0a.73.73,0,0,0,.05.09s0,0,0,0v0a.07.07,0,0,1,0,0v0c0,.06,0,0,0,0a.06.06,0,0,1,0,0s0,0,0,.05,0-.05,0,0a.56.56,0,0,0-.05.08l0,0h0a3,3,0,0,1-.25.25l-.06,0h0l0,0-.12.1a.22.22,0,0,0,0,.32.23.23,0,0,0,.32,0l0,0,0,0s0,0,0,0l.13-.1a2,2,0,0,0,.21-.2.84.84,0,0,0,.29-.66.92.92,0,0,0-.25-.5.25.25,0,0,0-.33,0,.26.26,0,0,0,0,.33Z"/><polygon class="cls-8" points="178.38 141.49 178.38 143.86 179.22 145.92 179.51 145.92 178.77 143.11 178.7 141.34 178.38 141.49"/><path class="cls-20" d="M166.41,109.69l-.26,0,.08-.35h.09a.53.53,0,0,0,.22-.06.25.25,0,0,0,.11-.12.42.42,0,0,0,0-.2,2.1,2.1,0,0,0,0-.36v0a.34.34,0,0,0,0-.12.14.14,0,0,0-.08-.07.25.25,0,0,0-.16,0l-.67.07-.1-1,.43,0,.06.62.3,0a.69.69,0,0,1,.48.09.49.49,0,0,1,.2.38v.44a.77.77,0,0,1-.17.53A.9.9,0,0,1,166.41,109.69Z"/><path class="cls-20" d="M167.82,107.57l-.08.6-.37,0,.19-.62Zm.56-.06-.09.6-.36,0,.19-.61Z"/><path class="cls-20" d="M170.42,109.27l-.43,0-.09-.9a.49.49,0,0,0-.13-.29.41.41,0,0,0-.31-.08l-.25,0-.42.12v-.35a3.11,3.11,0,0,1,.72-.16.74.74,0,0,1,.57.13.76.76,0,0,1,.25.52Zm-1,.11-.43,0-.1-.93.41-.26Z"/><path class="cls-20" d="M170.72,108.88l.81-.08-.95-1,.38-.23.6.67a.64.64,0,0,0,.06-.16.56.56,0,0,0,0-.22l0-.32.43,0,0,.34a.72.72,0,0,1,0,.33.94.94,0,0,1-.22.33l.3.34,0,.31-1.36.14Z"/><polygon class="cls-2" points="169.59 122.72 174.07 122.22 175.81 120.87 188.53 119.44 195.8 121.99 195.47 127.47 194.3 128.63 192.82 129.4 176.01 129.92 174.11 128.21 170.26 128.64 170.48 123.91 169.59 122.72"/><path d="M186.77,122.93a10,10,0,0,1,1.79-2.05c.15-.13-.07-.34-.21-.21a10,10,0,0,0-1.84,2.11c-.11.17.15.32.26.15Z"/><polygon class="cls-8" points="188.1 108.72 190.75 108.61 196.23 124.93 192.69 124.58 191.76 124.17 194.99 123.77 187.28 122.22 193.75 121.39 189.35 118.27 192.96 117.89 190.59 111.35 188.1 108.72"/><path class="cls-7" d="M185,108.71c1.64,0,3.27.09,4.91.1l-.06-.5c-2.49.44-5,.6-7.51,1-.33.06-.19.56.13.5,2.49-.44,5-.6,7.51-1,.29,0,.22-.5-.07-.5-1.64,0-3.27-.09-4.91-.1a.26.26,0,0,0,0,.51Z"/><path d="M186.68,123a22.63,22.63,0,0,1,2.78-.81,7.59,7.59,0,0,1,2.92-.26c.19,0,.27-.26.08-.3a8,8,0,0,0-2.92.23,23.46,23.46,0,0,0-2.94.85c-.18.07-.11.36.08.29Z"/><path class="cls-9" d="M188.05,118.34s4.1.14,6,1.12"/><path class="cls-9" d="M174.59,121.51s3.9-1.28,6-1"/><path class="cls-9" d="M194.65,128.32s-3.9,1.27-6.05,1"/><path class="cls-9" d="M180.74,129.56s-4.09.33-6.13-.42"/><path class="cls-9" d="M191.62,124.25a12,12,0,0,1,4.18.08"/><path class="cls-7" d="M144,106.26a6.8,6.8,0,0,1-1.82,5.3c-.2.21.12.53.32.32a7.26,7.26,0,0,0,1.95-5.62c0-.28-.47-.29-.45,0Z"/><path class="cls-9" d="M165.8,121.73s.78-.68,1.47-.46,1.57.55,1.57.55"/><path d="M174.43,124a8.17,8.17,0,0,1-1.6.41,7,7,0,0,1-.92.12h-.37c.06,0,0,0,0,0l-.07,0s-.07,0,0,0,0,0-.05,0a.26.26,0,0,0-.26.44,1.13,1.13,0,0,0,.72.14,8.83,8.83,0,0,0,1-.11,8.33,8.33,0,0,0,1.7-.44.26.26,0,0,0,.18-.31c0-.12-.19-.24-.31-.18Z"/><path class="cls-5" d="M166.93,130c1.12.93,3.06-.31,3.06-.31l2.32-.11,1.84-.9,1.84-.34c1.68-5-.32-4.68-.32-4.68l-1.45.39-.75.13-.7-1.13-1.42-1.36s-.67-.43-1-.28a16.11,16.11,0,0,1-2.93-.14s-2.44-1-2.58.8a6.86,6.86,0,0,1-.94,3s-.72,2.69-.47,3A29.57,29.57,0,0,0,166.93,130Z"/><path class="cls-21" d="M166,121s-1.74-.16-1.18,1.46l.88.63"/><path class="cls-21" d="M165.48,122.94s-1.74-.16-1.18,1.46l.88.63"/><path class="cls-21" d="M164.62,126.82s-1.75-.16-1.19,1.46l.88.62"/><path class="cls-21" d="M164.86,125s-1.74-.16-1.19,1.46l.88.63"/><path class="cls-21" d="M168.88,121.43s2-.75,2.47.28,1,1.08,1,1.08"/><path class="cls-21" d="M163,127.66s1.75,0,1.06,1.56l-.93.55"/><path class="cls-21" d="M159.26,121.93s-1.91-.92-2.49.07-1.08,1-1.08,1"/><line class="cls-25" x1="126.09" y1="135.31" x2="140.81" y2="137.34"/><polyline class="cls-26" points="129.88 132.51 125.88 135.28 128.82 139.53"/><text class="cls-27" transform="translate(51.11 264.01)"></text></svg>