<svg xmlns="http://www.w3.org/2000/svg" xmlns:xlink="http://www.w3.org/1999/xlink" viewBox="0 0 222.66748 273.8"><defs><style>.a{fill:#cab192;}.b{fill:#747c58;}.c{fill:#ededed;}.d{fill:#cecece;}.e{fill:#fff;}.f{fill:#080808;}.g,.p,.r,.t,.u{fill:none;}.g,.t{stroke:#000;}.g,.p,.q,.r{stroke-linecap:round;}.g,.p,.t,.u{stroke-miterlimit:10;}.h{fill:#27421d;}.i{clip-path:url(#a);}.j{fill:#271d1d;}.k{clip-path:url(#b);}.l{fill:#54593e;}.m{fill:#707171;}.n{clip-path:url(#c);}.o{fill:#525222;}.p,.q,.r{stroke:#27421d;stroke-width:2px;}.q{fill:#284220;}.q,.r{stroke-linejoin:round;}.s{fill:#231f20;}.u{stroke:#080808;}</style><clipPath id="a"><polygon class="a" points="121.156 85.79 120.853 75.113 122.399 72.752 126.471 70.098 129.326 62.757 125.655 59.902 123.85 44.405 110.379 39.919 97.108 43.997 94.696 59.898 92.624 61.906 94.213 69.639 95.837 70.67 95.891 74.992 99.153 79.07 98.944 88.128 94.253 94.191 99.147 110.88 109.342 115.366 122.801 100.685 129.326 90.897 121.156 85.79"/></clipPath><clipPath id="b"><polygon class="b" points="141.248 127.61 140.742 164.923 133.683 167.753 115.582 166.384 93.324 164.654 92.239 162.972 93.324 159.28 82.547 121.466 74.764 109.029 78.255 97.266 94.319 89.458 99.192 84.195 99.506 87.326 99.159 92.766 107.778 107.414 121.349 88.958 121.54 84.91 121.464 83.46 120.897 79.294 125.954 84.253 148.81 93.017 150.846 116.121 141.248 127.61"/></clipPath><clipPath id="c"><path class="b" d="M141.68117,175.50417c-.02368-.07288-.10036-4.41044-.17435-4.39043l-2.24093,1.01526c-.01731.00471-1.3154-.05707-1.33322-.059l-46.64119-5.09592c-.06183-.00676-.121,4.323-.14665,4.37971l-1.36839,3.02444-.0063.01654-1.6359,5.25745h54.894Z"/></clipPath></defs><circle class="c" cx="111.3335" cy="113.54044" r="108.83386"/><path class="d" d="M111.3335,7.20676c58.48339,0,106.334,47.85008,106.334,106.33358v.00023c0,58.48346-47.85059,106.33358-106.334,106.33358S5,172.024,5,113.54057v-.00023C5,55.05684,52.8501,7.20676,111.3335,7.20676m0-5A111.20485,111.20485,0,0,0,32.7002,192.17415,111.20489,111.20489,0,1,0,189.96729,34.90673a110.54266,110.54266,0,0,0-78.63379-32.7Z"/><path class="e" d="M14.05127,266.18131a.55738.55738,0,0,1-.16211-.4126V258.2941q0-4.3-4.27539-4.30029H4.96338a.58417.58417,0,0,1-.41211-.1499.51785.51785,0,0,1-.16211-.3999v-.8003a.55545.55545,0,0,1,.57422-.5747H9.73877q6.3501,0,6.34961,6.1499v7.5498a.58044.58044,0,0,1-.14942.4126.51685.51685,0,0,1-.39941.1626H14.46338A.557.557,0,0,1,14.05127,266.18131Zm-9.5,0a.55738.55738,0,0,1-.16211-.4126v-8.3999a.55472.55472,0,0,1,.57422-.57471H6.01416a.55472.55472,0,0,1,.57422.57471v8.3999a.55549.55549,0,0,1-.57422.5752H4.96338A.557.557,0,0,1,4.55127,266.18131Z"/><path class="e" d="M27.07666,252.71891a3.91231,3.91231,0,0,1,1.9375,2.07519,9.97467,9.97467,0,0,1,.59961,3.79981,7.29111,7.29111,0,0,1-1.5752,4.9873,9.27438,9.27438,0,0,1-4.10058,2.6377l-1.04883.3501a.44463.44463,0,0,1-.17578.0249.448.448,0,0,1-.44922-.4751v-1.1001a.61067.61067,0,0,1,.14941-.3872.9609.9609,0,0,1,.39942-.2876l.97558-.375a5.75554,5.75554,0,0,0,2.64942-1.875,5.90876,5.90876,0,0,0,.92578-3.6001,7.04508,7.04508,0,0,0-.40039-2.63721,2.55292,2.55292,0,0,0-1.3125-1.38769,6.065,6.065,0,0,0-2.51172-.42481h-.85059l-2.2998-.02539a.5809.5809,0,0,1-.41211-.1499.51451.51451,0,0,1-.16309-.3999V249.1691a.557.557,0,0,1,.5752-.57519h1a.5207.5207,0,0,1,.40039.1626.5864.5864,0,0,1,.14941.41259V252.069h1.92481A8.37259,8.37259,0,0,1,27.07666,252.71891Z"/><path class="e" d="M33.07666,266.18131a.55365.55365,0,0,1-.16211-.4126v-13.125a.55545.55545,0,0,1,.57422-.5747h1.09961a.557.557,0,0,1,.57617.5747v13.125a.55709.55709,0,0,1-.57617.5752H33.48877A.55551.55551,0,0,1,33.07666,266.18131Z"/><path class="e" d="M49.53857,252.21891a.57617.57617,0,0,1,.14942.4248v6.90039a6.10421,6.10421,0,0,1-1.4375,3.96241,7.66916,7.66916,0,0,1-3.88672,2.4873l-5.4502,1.7251a.65466.65466,0,0,1-.20019.0249.52668.52668,0,0,1-.34961-.125.40209.40209,0,0,1-.15039-.32471v-.77539c0-.38281.13281-.61621.40039-.6997l3.27441-1.0752-3.25-11.6748a3.232,3.232,0,0,1-.125-.5.51319.51319,0,0,1,.5-.5h1.15039a.61156.61156,0,0,1,.375.1123.5532.5532,0,0,1,.2002.2627L43.938,264.0441a5.08141,5.08141,0,0,0,2.76269-1.97509,5.98817,5.98817,0,0,0,.78809-3.2002v-6.2251a.55545.55545,0,0,1,.57422-.5747h1.05078A.57589.57589,0,0,1,49.53857,252.21891Z"/><path class="e" d="M55.4126,256.0441a4.81464,4.81464,0,0,0,.25,1.57471,1.12216,1.12216,0,0,0,.75.7251l.95117.25a.488.488,0,0,1,.3125.26269,1.09146,1.09146,0,0,1,.11133.51221v.5752a.4165.4165,0,0,1-.27442.3999,1.04029,1.04029,0,0,1-.60058.07519l-.94922-.20019q-2.52538-.54931-2.52539-4.25v-3.3252a.66162.66162,0,0,1,.17578-.4248.53765.53765,0,0,1,.39941-.1499h4.625a5.27719,5.27719,0,0,1,4.17481,1.6123,6.94526,6.94526,0,0,1,1.5,4.5625q.0249.25048.02539.9502,0,.72508-.02539.97509a6.94428,6.94428,0,0,1-1.5,4.5625,5.2772,5.2772,0,0,1-4.17481,1.61231h-4.2998a.557.557,0,0,1-.5752-.5752v-.8247a.54735.54735,0,0,1,.16309-.4253.58307.58307,0,0,1,.41211-.1499h4.15039a3.33681,3.33681,0,0,0,2.69922-1.125,5.09065,5.09065,0,0,0,1.02539-3.1748q.0498-.50025.0498-.875,0-.3501-.0498-.8501a4.96807,4.96807,0,0,0-1-3.1875,3.38816,3.38816,0,0,0-2.72461-1.11231H55.4126Z"/><path class="e" d="M81.00049,252.71891a3.91235,3.91235,0,0,1,1.9375,2.07519,9.97467,9.97467,0,0,1,.59961,3.79981,7.29111,7.29111,0,0,1-1.5752,4.9873,9.27438,9.27438,0,0,1-4.10058,2.6377l-1.04883.3501a.44463.44463,0,0,1-.17578.0249.448.448,0,0,1-.44922-.4751v-1.1001a.61067.61067,0,0,1,.14941-.3872.9609.9609,0,0,1,.39942-.2876l.97558-.375a5.75554,5.75554,0,0,0,2.64942-1.875,5.90883,5.90883,0,0,0,.92578-3.6001,7.04508,7.04508,0,0,0-.40039-2.63721,2.55292,2.55292,0,0,0-1.3125-1.38769,6.065,6.065,0,0,0-2.51172-.42481H76.2124l-2.2998-.02539a.5809.5809,0,0,1-.41211-.1499.51448.51448,0,0,1-.16309-.3999V249.1691a.557.557,0,0,1,.5752-.57519h1a.52072.52072,0,0,1,.40039.1626.5864.5864,0,0,1,.14941.41259V252.069h1.92481A8.37259,8.37259,0,0,1,81.00049,252.71891Z"/><path class="e" d="M87.00049,266.18131a.55362.55362,0,0,1-.16211-.4126v-.8247a.55549.55549,0,0,1,.57422-.5752h3.57519a4.18068,4.18068,0,0,0,3.2002-1.1001,4.88367,4.88367,0,0,0,1.125-3.1997c.01562-.2334.02539-.52491.02539-.875,0-.3335-.00977-.6167-.02539-.8501a4.74711,4.74711,0,0,0-1.11328-3.2124,4.25154,4.25154,0,0,0-3.21192-1.08741H87.4126a.55548.55548,0,0,1-.57422-.57519v-.8252a.55545.55545,0,0,1,.57422-.5747h3.70019a6.28656,6.28656,0,0,1,4.72559,1.5874,6.7141,6.7141,0,0,1,1.625,4.5874c.01562.23389.02441.55029.02441.9502s-.00879.72509-.02441.97509a6.71322,6.71322,0,0,1-1.625,4.58741,6.28466,6.28466,0,0,1-4.72559,1.5874H87.4126A.55551.55551,0,0,1,87.00049,266.18131Z"/><path class="e" d="M112.062,266.59391a.44945.44945,0,0,1-.45019-.4751v-1.1001a.61752.61752,0,0,1,.15039-.3872.94566.94566,0,0,1,.40039-.2876l.97461-.375a5.75867,5.75867,0,0,0,2.65039-1.875,5.92266,5.92266,0,0,0,.92383-3.6001,7.04744,7.04744,0,0,0-.39942-2.63721,2.55292,2.55292,0,0,0-1.3125-1.38769,6.07,6.07,0,0,0-2.51269-.42481h-5a.55548.55548,0,0,1-.57422-.57519v-.8501a.51449.51449,0,0,1,.16211-.3999.58253.58253,0,0,1,.41211-.1499H112.812a8.3649,8.3649,0,0,1,3.61231.6499,3.90869,3.90869,0,0,1,1.9375,2.07519,9.95557,9.95557,0,0,1,.59961,3.79981,7.29087,7.29087,0,0,1-1.57422,4.9873,9.28219,9.28219,0,0,1-4.09961,2.6377l-1.05078.3501A.439.439,0,0,1,112.062,266.59391Zm-4.9873,4.3623a.55477.55477,0,0,1-.16211-.41211V257.36881a.55472.55472,0,0,1,.57422-.57471h1.02539a.55472.55472,0,0,1,.57422.57471V270.5441a.52133.52133,0,0,1-.57422.57471h-1.02539A.5574.5574,0,0,1,107.07471,270.95621Z"/><path class="e" d="M123.89893,264.9816a6.46551,6.46551,0,0,1-1.53711-4.63769v-7.7002a.5555.5555,0,0,1,.57519-.5747h6q3.22413,0,4.625,1.4497a6.6158,6.6158,0,0,1,1.52442,4.4502q.02636.25048.02539,1.3501,0,1.10008-.02539,1.35009a6.08822,6.08822,0,0,1-1.625,4.44971q-1.54981,1.47584-4.94922,1.4751A6.09026,6.09026,0,0,1,123.89893,264.9816Zm7.96289-1.35009a4.26894,4.26894,0,0,0,1.07519-3.08741q.0249-.24975.02442-1.22509,0-.97486-.02442-1.2251a4.206,4.206,0,0,0-1.13769-3.04981,4.119,4.119,0,0,0-2.98731-1.05029h-4.35058v6.3501a4.52064,4.52064,0,0,0,1.01367,3.1748,3.8882,3.8882,0,0,0,3.01172,1.1001A4.76159,4.76159,0,0,0,131.86182,263.63151Z"/><path class="e" d="M140.41162,256.0441a4.78882,4.78882,0,0,0,.25,1.57471,1.12216,1.12216,0,0,0,.75.7251l.9502.25a.48574.48574,0,0,1,.3125.26269,1.07977,1.07977,0,0,1,.1123.51221v.5752a.4165.4165,0,0,1-.27441.3999,1.04032,1.04032,0,0,1-.60059.07519l-.95019-.20019q-2.5254-.54931-2.52442-4.25v-3.3252a.66617.66617,0,0,1,.17481-.4248.54.54,0,0,1,.40039-.1499h4.625a5.27855,5.27855,0,0,1,4.1748,1.6123,6.94516,6.94516,0,0,1,1.5,4.5625q.0249.25048.02442.9502,0,.72508-.02442.97509a6.94418,6.94418,0,0,1-1.5,4.5625,5.27856,5.27856,0,0,1-4.1748,1.61231h-4.30078a.55549.55549,0,0,1-.57422-.5752v-.8247a.55026.55026,0,0,1,.16211-.4253.58635.58635,0,0,1,.41211-.1499h4.15039a3.34017,3.34017,0,0,0,2.70019-1.125,5.08455,5.08455,0,0,0,1.02442-3.1748c.0332-.3335.05078-.625.05078-.875,0-.2334-.01758-.51661-.05078-.8501a4.96253,4.96253,0,0,0-1-3.1875,3.3855,3.3855,0,0,0-2.72461-1.11231h-3.0752Z"/><path class="e" d="M162.32373,266.18131a.55738.55738,0,0,1-.16211-.4126V258.2941q0-4.3-4.27539-4.30029h-4.64941a.585.585,0,0,1-.41309-.1499.51785.51785,0,0,1-.16211-.3999v-.8003a.5555.5555,0,0,1,.5752-.5747h4.77441q6.3501,0,6.35059,6.1499v7.5498a.58543.58543,0,0,1-.15039.4126.51616.51616,0,0,1-.40039.1626h-1.07422A.55775.55775,0,0,1,162.32373,266.18131Zm-9.5,0a.55738.55738,0,0,1-.16211-.4126v-8.3999a.55478.55478,0,0,1,.5752-.57471h1.0498a.55626.55626,0,0,1,.5752.57471v8.3999a.557.557,0,0,1-.5752.5752h-1.0498A.55775.55775,0,0,1,152.82373,266.18131Z"/><path class="e" d="M168.27393,266.18131a.55362.55362,0,0,1-.16211-.4126v-13.125a.55545.55545,0,0,1,.57422-.5747h1.0996a.557.557,0,0,1,.57618.5747v13.125a.55709.55709,0,0,1-.57618.5752H168.686A.55551.55551,0,0,1,168.27393,266.18131Z"/><path class="e" d="M188.02393,266.18131a.55436.55436,0,0,1-.16309-.4126V258.2941q0-4.3-4.2998-4.30029h-3.22461a.58333.58333,0,0,1-.41309-.1499.51855.51855,0,0,1-.16309-.3999v-.8003a.557.557,0,0,1,.57618-.5747h3.375q6.34863,0,6.34961,6.10009v7.59961a.55555.55555,0,0,1-.5752.5752H188.436A.554.554,0,0,1,188.02393,266.18131Z"/><path class="e" d="M193.97314,266.18131a.55365.55365,0,0,1-.1621-.4126v-13.125a.55543.55543,0,0,1,.57421-.5747h1.09961a.557.557,0,0,1,.57618.5747v13.125a.55709.55709,0,0,1-.57618.5752h-1.09961A.55554.55554,0,0,1,193.97314,266.18131Z"/><path class="e" d="M208.97314,258.40641a5.1132,5.1132,0,0,1-2.33789,2.0874l2.59961,3.75a1.19537,1.19537,0,0,1,.30078.75v.7749a.55553.55553,0,0,1-.57519.5752h-9a.55555.55555,0,0,1-.5752-.5752v-.7998a.55191.55191,0,0,1,.16211-.42481.587.587,0,0,1,.41309-.15039h6.7998L198.936,253.0441a.852.852,0,0,1-.20118-.47509.46352.46352,0,0,1,.16309-.3501.52191.52191,0,0,1,.3623-.1499h1.125a.8049.8049,0,0,1,.67579.3999l4.4746,6.45019q2.124-.99975,2.125-4.10009v-2.1753a.54917.54917,0,0,1,.16211-.4248.58419.58419,0,0,1,.41211-.1499h.97559a.51573.51573,0,0,1,.39941.16259.58236.58236,0,0,1,.15039.41211v2.4502A6.51449,6.51449,0,0,1,208.97314,258.40641Z"/><path class="e" d="M223.71045,252.21891a.57616.57616,0,0,1,.14941.4248v6.90039a6.10415,6.10415,0,0,1-1.4375,3.96241,7.66907,7.66907,0,0,1-3.88672,2.4873l-5.45019,1.7251a.65477.65477,0,0,1-.2002.0249.52668.52668,0,0,1-.34961-.125.40212.40212,0,0,1-.15039-.32471v-.77539c0-.38281.13282-.61621.40039-.6997l3.27442-1.0752-3.25-11.6748a3.23063,3.23063,0,0,1-.125-.5.51319.51319,0,0,1,.5-.5h1.15039a.6116.6116,0,0,1,.375.1123.55318.55318,0,0,1,.20019.2627l3.19922,11.60009a5.08144,5.08144,0,0,0,2.7627-1.97509,5.98817,5.98817,0,0,0,.78808-3.2002v-6.2251a.55545.55545,0,0,1,.57422-.5747h1.05078A.57593.57593,0,0,1,223.71045,252.21891Z"/><polygon class="b" points="145.234 89.77 149.374 92.972 156.529 98.213 163.015 145.414 159.442 152.509 151.813 152.312 134.386 112.617 139.613 93.61 145.234 89.77"/><polygon class="b" points="134.296 89.415 138.436 92.616 145.591 97.858 152.077 145.059 148.505 152.153 140.876 151.956 123.448 112.261 128.675 93.254 134.296 89.415"/><path d="M161.18646,123.78766a19.6526,19.6526,0,0,0-5.20682.93791c-.60938.19821-.34861,1.16414.26584.96427a18.61914,18.61914,0,0,1,4.941-.90218c.641-.02841.64449-1.02857,0-1Z"/><path d="M155.51769,120.22118a13.3281,13.3281,0,0,0,1.65237-1.73652,13.74842,13.74842,0,0,0,1.8128-2.52188,2.41552,2.41552,0,0,0,.3299-1.51581.84576.84576,0,0,0-1.03714-.58887.869.869,0,0,0-.58888,1.03715c-.00277-.01832-.04217-.26319-.02262-.1306.00365.02476-.00982.05385-.00461.07764-.01286-.05871.05331-.24916.00749-.09634-.01071.03572-.01865.07228-.02971.108-.01026.03311-.02266.06543-.03368.09827-.04263.127-.00588-.00337.02907-.06287-.04456.07587-.0752.16322-.11588.24167a8.87837,8.87837,0,0,1-.70628,1.109q-.09984.13784-.20257.27354c-.01834.02427-.13123.17119-.05667.07493.073-.09416-.05492.06968-.07706.09767q-.23415.29606-.478.58429-.43942.5204-.90674,1.01657a8.43085,8.43085,0,0,1-.76415.74184.84588.84588,0,0,0,0,1.19237.86679.86679,0,0,0,1.19236,0Z"/><path class="f" d="M147.68112,107.29215a13.89465,13.89465,0,0,0-3.74936,10.706c.0896.94,1.57068.94931,1.48019,0a12.45461,12.45461,0,0,1,3.31583-9.65937c.64581-.69873-.39841-1.748-1.04666-1.04666Z"/><path class="f" d="M145.96034,115.0566c.77294-2.316,2.10163-4.4164,2.97-6.71261a.85005.85005,0,0,0-.58888-1.03715.86178.86178,0,0,0-1.03715.58888q-.06234.16487-.12951.32772c.06058-.14788-.06887.15752-.08638.197-.10778.2431-.21987.48428-.33336.72476-.27491.58246-.55852,1.16077-.83664,1.7417a32.58518,32.58518,0,0,0-1.5841,3.72142.84334.84334,0,1,0,1.626.44827Z"/><path class="f" d="M144.75006,111.14189c-.64261,2.99342-1.17375,6.00989-1.81636,9.00331a.84392.84392,0,0,0,1.626.44827c1.81694-4.35319,3.13664-8.9038,4.95358-13.257a.849.849,0,0,0-.58888-1.03715.86369.86369,0,0,0-1.03714.58887c-1.81695,4.35319-3.13664,8.90381-4.95358,13.257l1.626.44827c.64261-2.99341,1.17375-6.00989,1.81636-9.00331.22717-1.05822-1.398-1.51043-1.626-.44827Z"/><path d="M159.98407,126.01212a41.576,41.576,0,0,0-4.1523,3.88594,14.74576,14.74576,0,0,0-3.22277,4.57133c-.22819.60245.73814.86288.96428.26584a13.96472,13.96472,0,0,1,3.12975-4.30495,41.9713,41.9713,0,0,1,3.98815-3.71106c.49921-.40656-.212-1.11032-.70711-.7071Z"/><path class="g" d="M152.76709,121.79074s-1.4151,7.53145-.41981,11.45851"/><path class="h" d="M146.81867,139.635a38.10162,38.10162,0,0,0-2.87734-23.90057c-.41164-.87244-1.70524-.11195-1.29521.75708a36.37371,36.37371,0,0,1,2.72613,22.74474c-.19256.94231,1.253,1.34536,1.44642.39875Z"/><polygon class="a" points="121.156 85.79 120.853 75.113 122.399 72.752 126.471 70.098 129.326 62.757 125.655 59.902 123.85 44.405 110.379 39.919 97.108 43.997 94.696 59.898 92.624 61.906 94.213 69.639 95.837 70.67 95.891 74.992 99.153 79.07 98.944 88.128 94.253 94.191 99.147 110.88 109.342 115.366 122.801 100.685 129.326 90.897 121.156 85.79"/><g class="i"><polygon class="j" points="122.81 66.824 129.346 49.663 85.043 1.494 95.703 65.74 97.253 54.153 98.489 51.178 99.797 45.912 108.894 47.728 119.241 46.293 120.47 51.154 122.738 54.594 122.41 64.17 122.81 66.824"/></g><polygon points="118.179 56.388 118.282 54.305 112.832 53.19 111.624 54.597 118.179 56.388"/><polygon points="105.55 55.083 105.334 52.956 100.498 54.124 99.702 55.677 105.55 55.083"/><path d="M112.657,68.26065a12.06651,12.06651,0,0,1-7.27907,1.19383.89249.89249,0,0,0-1.064.60415.87159.87159,0,0,0,.60415,1.06405,14.06153,14.06153,0,0,0,8.61214-1.36823.86514.86514,0,1,0-.87317-1.4938Z"/><path d="M118.46761,77.64254l-7.6208,4.78515-6.203.01421-4.45416-2.7502,3.52622,7.50526a4.25431,4.25431,0,0,0,1.93306,2.16579h0a4.25422,4.25422,0,0,0,2.017.50852h.21038a4.25428,4.25428,0,0,0,2.74035-1.00015l1.57395-1.32542a4.2545,4.2545,0,0,0,.98734-1.20394l3.51739-6.39526Z"/><path d="M119.66516,75.35444c-2.0788,1.724-4.13688,3.47311-6.20584,5.20884q-.63216.53034-1.26605,1.05864a.87223.87223,0,0,0,0,1.22439.88492.88492,0,0,0,1.22439,0c2.0788-1.724,4.13688-3.47311,6.20584-5.20885q.63216-.53034,1.266-1.05863a.87223.87223,0,0,0,0-1.22439.88492.88492,0,0,0-1.22439,0Z"/><path d="M102.1318,55.67062a4.75824,4.75824,0,0,1,.221.77533q.01175.061.02186.12225.02217.14547-.00422-.0458a.88143.88143,0,0,1,.01942.1853q.017.20119.017.40327,0,.20187-.017.40327c-.00508.05921-.0199.126-.01945.1853-.00177-.23325.00036-.02072-.012.04592a4.75461,4.75461,0,0,1-.22682.80582l1.44705-.382a.52605.52605,0,0,0-.06987-.07986c.02805.01952.1051.14788.03972.05065-.04337-.06449-.08593-.12893-.12376-.19691-.02074-.03726-.11072-.23538-.05793-.10444.0533.13221-.02562-.07427-.03843-.1136a3.06932,3.06932,0,0,1-.1053-.43157c-.006-.03476-.0094-.07032-.01641-.10486.00726.03574.02145.19146.01163.071-.00657-.08078-.014-.16124-.01791-.24223a7.17854,7.17854,0,0,1,.02014-.90368c.01118-.14467.02523-.28911.0406-.43339.00408-.03835.02375-.20333.00253-.03408-.01923.15332-.00637.0416.00675.00886q.02029-.06472-.0201.04457-.109.36-.65855.04573-.54995.26971-.66559-.09743a.71.71,0,0,1,.16416-.81586l.382-.22265.184-.02781a.86854.86854,0,0,0-.86578.86578.8895.8895,0,0,0,.86578.86578.93893.93893,0,0,0,.90621-1.20332.99157.99157,0,0,0-1.19563-.71153c-.82116.21472-.84,1.13849-.88586,1.82488a4.17178,4.17178,0,0,0,.8732,3.17037.86076.86076,0,0,0,.84236.22266.90121.90121,0,0,0,.60469-.6047,5.504,5.504,0,0,0,.00028-3.80129.88536.88536,0,0,0-1.065-.60469.87579.87579,0,0,0-.6047,1.065Z"/><path d="M114.26889,55.3301a4.75853,4.75853,0,0,1,.221.77533q.01175.061.02186.12225.02217.14547-.00422-.04579a.88136.88136,0,0,1,.01942.1853q.017.20118.017.40327,0,.20185-.017.40326c-.00508.05921-.0199.126-.01945.1853-.00177-.23324.00036-.02072-.012.04592a4.75435,4.75435,0,0,1-.22682.80582l1.44705-.382a.52605.52605,0,0,0-.06987-.07986c.02805.01953.1051.14789.03972.05066-.04337-.06449-.08593-.12893-.12376-.19692-.02074-.03726-.11072-.23537-.05793-.10443.0533.1322-.02562-.07428-.03843-.11361a3.06952,3.06952,0,0,1-.1053-.43156c-.006-.03477-.0094-.07032-.01641-.10486.00726.03573.02145.19146.01163.071-.00658-.08077-.014-.16123-.01792-.24222a7.18054,7.18054,0,0,1,.02015-.90369c.01118-.14467.02523-.28911.0406-.43339.00408-.03834.02375-.20333.00252-.03407-.01922.15332-.00636.04159.00676.00885q.02029-.06471-.0201.04457-.10905.36-.65855.04574-.54995.2697-.66559-.09744a.71.71,0,0,1,.16416-.81586l.382-.22265.18395-.02781a.86855.86855,0,0,0-.86577.86578.88949.88949,0,0,0,.86577.86578.93893.93893,0,0,0,.90622-1.20332.99157.99157,0,0,0-1.19563-.71153c-.82116.21472-.84,1.13849-.88586,1.82488a4.17175,4.17175,0,0,0,.8732,3.17038.86075.86075,0,0,0,.84236.22265.90122.90122,0,0,0,.60469-.60469,5.504,5.504,0,0,0,.00028-3.80129.88537.88537,0,0,0-1.065-.6047.87579.87579,0,0,0-.6047,1.065Z"/><path d="M125.62945,64.78515l-2.13492,1.0844a.86592.86592,0,0,0,.874,1.49515l2.13492-1.08441a.86591.86591,0,1,0-.87395-1.49514Z"/><path d="M124.41367,63.92638l-1.31879,2.42031a.86592.86592,0,0,0,1.49515.87394l1.31879-2.4203a.86592.86592,0,1,0-1.49515-.874Z"/><path d="M128.22963,62.54506a6.32866,6.32866,0,0,0-3.64123,1.22271.94652.94652,0,0,0-.39788.51741.88481.88481,0,0,0,.08728.66713.8749.8749,0,0,0,1.18455.3106,5.55779,5.55779,0,0,1,.68927-.4434c.12852-.0695.26018-.1314.39278-.19256q.12805-.05554-.05575.02321.05067-.02062.10174-.04022.08937-.0343.17991-.06544a5.51582,5.51582,0,0,1,.79264-.20891.8493.8493,0,0,0,.18877-.03162q-.20991.02694-.06755.00917.05431-.00642.10874-.01175c.14526-.01422.29084-.02176.43673-.02477a.86578.86578,0,1,0,0-1.73156Z"/><polygon points="92.524 178.773 141.447 173.041 141.667 161.464 93.232 161.422 92.524 178.773"/><polygon class="b" points="141.248 127.61 140.742 164.923 133.683 167.753 115.582 166.384 93.324 164.654 92.239 162.972 93.324 159.28 82.547 121.466 74.764 109.029 78.255 97.266 94.319 89.458 99.192 84.195 99.506 87.326 99.159 92.766 107.778 107.414 121.349 88.958 121.54 84.91 121.464 83.46 120.897 79.294 125.954 84.253 148.81 93.017 150.846 116.121 141.248 127.61"/><g class="k"><polyline class="l" points="92.624 166.974 96.603 159.8 83.806 123.963"/></g><polygon class="l" points="140.339 165.085 139.852 144.341 139.858 129.937 140.785 130.21 141.03 164.874 140.339 165.085"/><path d="M85.92364,122.33388a31.75064,31.75064,0,0,1,.728,5.33977c.05028.87121.07914,1.74349.1069,2.61565a8.65156,8.65156,0,0,0,.15943,2.489,2.83281,2.83281,0,0,0,.86254,1.12863,3.369,3.369,0,0,0,1.858.50394c1.66828.23669,3.33275.46779,5.00973.63809a33.67251,33.67251,0,0,0,5.78358.18687,2.442,2.442,0,0,0,2.41784-1.63078,37.88628,37.88628,0,0,0,.82249-6.77425,56.56053,56.56053,0,0,1,.92221-7.92022c.21888-.93915-1.227-1.34-1.44642-.39876-.96475,4.13942-.87992,8.5128-1.41531,12.718-.082.64427-.05721,1.76705-.5251,2.24155-.42009.426-1.23652.2988-1.795.31345-.90784.02381-1.81659-.00449-2.72269-.06215-1.72128-.10953-3.44759-.29537-5.15518-.53761-.58678-.08324-1.17214-.17617-1.75923-.25736-.54236-.075-1.15852-.0213-1.41909-.61017a4.01434,4.01434,0,0,1-.07285-1.23809c-.01353-.41962-.026-.83927-.04-1.25888-.02906-.86775-.06253-1.73547-.1201-2.60187a33.21466,33.21466,0,0,0-.75328-5.28357c-.21722-.94017-1.66383-.54222-1.44642.39876Z"/><path d="M116.48427,121.13962q.36426,2.85686.69929,5.71742c.16486,1.40534.326,2.81132.46647,4.21934a2.439,2.439,0,0,0,1.88734,2.325,46.93383,46.93383,0,0,0,5.14788.36941c1.91679.09566,3.83914.15347,5.75738.06531,1.4495-.06662,3.23655.07242,4.22-1.18338.68718-.87747.5982-2.42453.6669-3.49029.21625-3.35494-.03429-6.8218.58526-10.13777.17629-.94354-1.26907-1.348-1.44641-.39876a50.044,50.044,0,0,0-.51378,7.642c-.04155,1.34507-.08429,2.69319-.21508,4.03315a3.53052,3.53052,0,0,1-.26577,1.44155c-.37831.57993-1.34867.47928-1.95478.52724a59.39893,59.39893,0,0,1-9.84691-.20706,6.97879,6.97879,0,0,1-2.02164-.18884c-.538-.259-.50075-.80987-.55274-1.31132-.12817-1.23625-.2693-2.47116-.41413-3.70555q-.33561-2.86036-.69929-5.71742c-.12044-.94452-1.622-.95655-1.5,0Z"/><polygon class="b" points="108.408 165.805 108.408 178.476 105.402 178.476 105.402 163.873 108.408 163.873 108.408 165.805"/><polygon class="b" points="99.205 165.805 99.205 178.476 96.198 178.476 96.198 163.873 99.205 163.873 99.205 165.805"/><polygon class="b" points="121.938 164.02 121.938 178.409 125.248 178.409 125.248 162.087 121.938 162.087 121.938 164.02"/><rect class="b" x="136.25927" y="161.4224" width="3.00662" height="14.38883"/><path d="M92.044,102.8261a6.39318,6.39318,0,0,1,2.74793-3.5637,13.14714,13.14714,0,0,1,3.64418-1.2314l-1.02973-.419a14.20316,14.20316,0,0,1,1.24281,3.788c.14868.89582,1.10531,1.48747,1.75414,2.04025,1.11105.9466,2.23713,1.87565,3.33574,2.8368.48509.42438.96955.85207,1.42774,1.30566.15329.15175.30254.30665.44572.468.151.17013-.0112.04824.05747.0723a.90807.90807,0,0,1,.04849.08195q-.28392-.52416.30939-1.05236c-.96182.6598-.05075,2.24089.92043,1.57467.98252-.674.29252-1.62859-.31318-2.25418-.76833-.79356-1.62366-1.50777-2.4626-2.22438-.93389-.79772-1.88068-1.58031-2.81136-2.38178-.3014-.25955-.60074-.52125-.88957-.79477a1.5074,1.5074,0,0,0-.12768-.128c-.11871-.08692,0-.081-.02517-.019.0078-.01921.11182.44487.1519.29757a1.63925,1.63925,0,0,0-.07008-.57791,15.654,15.654,0,0,0-1.41952-3.95327.92629.92629,0,0,0-1.02974-.419A13.42153,13.42153,0,0,0,93.551,97.87517a8.5666,8.5666,0,0,0-3.26549,4.46613c-.40868,1.10186,1.35326,1.5774,1.75851.4848Z"/><path d="M98.99979,99.47917a21.23406,21.23406,0,0,0-4.06906.47954,25.99723,25.99723,0,0,0-3.78519,1.22994.93947.93947,0,0,0-.63685,1.12165.9183.9183,0,0,0,1.12165.63685,26.39306,26.39306,0,0,1,3.67185-1.20389,18.48936,18.48936,0,0,1,3.6976-.44043c1.171-.034,1.17586-1.85782,0-1.82366Z"/><path d="M96.01919,87.14674c-2.55921,2.26294-3.86625,5.72543-4.68843,8.95605a33.78857,33.78857,0,0,0-.99486,5.8893c-.08341,1.17109,1.74062,1.16584,1.82365,0a30.478,30.478,0,0,1,.8908-5.24994c.74671-2.99455,1.88432-6.20668,4.25836-8.30589.881-.779-.41278-2.06476-1.28952-1.28952Z"/><path d="M142.99562,130.76a14.50907,14.50907,0,0,0-2.90464-4.61548,7.50258,7.50258,0,0,0-4.29209-2.17224.8323.8323,0,0,0-.98919.56164.80969.80969,0,0,0,.56164.98918,7.09962,7.09962,0,0,1,1.12781.24055,4.21016,4.21016,0,0,1,.90648.36893,5.79281,5.79281,0,0,1,1.608,1.20961,13.67557,13.67557,0,0,1,2.59332,4.22953.80918.80918,0,0,0,1.10022.28849.82522.82522,0,0,0,.28848-1.10021Z"/><path class="f" d="M77.8592,115.43655a13.46122,13.46122,0,0,1,4.931,9.88323c.03042,1.02782,1.63135,1.03216,1.6008,0a15.02131,15.02131,0,0,0-5.39991-11.01517c-.78353-.65918-1.92158.46762-1.13194,1.13194Z"/><path class="f" d="M139.15806,126.65816c-.94982,1.5989-1.48792,3.40433-2.43774,5.00323a.80427.80427,0,0,0,1.3887.81173c.94982-1.5989,1.48792-3.40433,2.43774-5.00323a.80427.80427,0,0,0-1.3887-.81173Z"/><path class="f" d="M142.99562,130.76a5.09364,5.09364,0,0,0-3.03513-2.07441,1.453,1.453,0,0,0-.79.01529,2.13741,2.13741,0,0,0-.7144.4599,6.77339,6.77339,0,0,0-.98438,1.23377,12.967,12.967,0,0,0-.7514,1.26685.80427.80427,0,0,0,1.3887.81173,12.9847,12.9847,0,0,1,.7347-1.24185q.11654-.17531.23953-.34621c.0244-.03374.18734-.24652.05093-.073.04672-.05943.09386-.1185.14252-.17636.07874-.09361.16037-.18506.24733-.27115.03376-.03343.06976-.06449.10361-.09775.14995-.14732-.09892.0482.00449-.007a.52683.52683,0,0,0,.11169-.06714c.0298-.032-.21185.06114-.05657.0294q-.24974.02454-.12952.01875.10229.00623-.09617-.01639a.54108.54108,0,0,1,.145.02669,3.14669,3.14669,0,0,1,.39994.11752c.04.01441.24914.10431.06546.02185.079.03547.15755.07164.23484.11076q.21169.10716.41257.23411.10261.06495.20178.135.04286.02992.08479.06112-.10507-.08335.00244.00259a4.58461,4.58461,0,0,1,.35548.32777c.06224.06529.12192.1331.17831.20351-.11819-.14759.04583.07656.06473.10637a.80427.80427,0,1,0,1.3887-.81172Z"/><path class="f" d="M141.48857,128.66316a1.72319,1.72319,0,0,0-1.13069-.40408c-.24989-.0119-.50149.00749-.75017-.02584l.21378.02873a.98339.98339,0,0,1-.2346-.06115l.19209.08106a.57947.57947,0,0,1-.11742-.06917l.16274.12573-.02541-.02191-1.13722,1.13723a3.39108,3.39108,0,0,0,.46811.35645,1.09535,1.09535,0,0,0,.89643.11865.85626.85626,0,0,0,.48058-.36955.79824.79824,0,0,0,.08106-.61964l-.405-1.14627-1.344.78239.93914,1.12786a.80806.80806,0,0,0,.56861.23553.81829.81829,0,0,0,.56861-.23553.80911.80911,0,0,0,.23553-.56861l-.02872-.21377a.80331.80331,0,0,0-.20681-.35484l-.93913-1.12787-.16275-.12574a.59847.59847,0,0,0-.299-.09542.76885.76885,0,0,0-.51275.09542.96068.96068,0,0,0-.28849.28849.8066.8066,0,0,0-.08106.61964l.405,1.14627.56165-.98919a.3128.3128,0,0,1-.06217.01776l.21377-.02873a.3524.3524,0,0,1-.06365-.00029l.21378.02872a.462.462,0,0,1-.08616-.02359l.19209.08106a.9442.9442,0,0,1-.19248-.11749l.16275.12574c-.06035-.04687-.11842-.0965-.17771-.14468a.86834.86834,0,0,0-.56861-.23553.81833.81833,0,0,0-.56861.23553.80414.80414,0,0,0,0,1.13723,1.72309,1.72309,0,0,0,1.13069.40407c.24988.01191.50149-.00749.75016.02584l-.21377-.02872a.98316.98316,0,0,1,.2346.06115l-.1921-.08107a.58032.58032,0,0,1,.11743.06918l-.16275-.12574.02541.02191a.8477.8477,0,0,0,.56861.23553.81831.81831,0,0,0,.56862-.23553.80415.80415,0,0,0,0-1.13722Z"/><path class="f" d="M135.62429,160.73868c-1.17072.64246-2.26841,1.40675-3.43985,2.04719a39.8295,39.8295,0,0,1-6.21391,2.55391c-1.10326.37951-.62924,2.14173.4848,1.75851a43.249,43.249,0,0,0,6.58093-2.7004c1.19682-.64843,2.315-1.42958,3.50846-2.08454,1.02914-.56478.11-2.14016-.92043-1.57467Z"/><path d="M134.51429,110.41478q-10.24888,1.41915-20.56507,2.23358c-1.16232.09114-1.17215,1.91556,0,1.82365q10.55988-.828,21.04987-2.29872c1.15744-.16027.6648-1.91769-.4848-1.75851Z"/><path d="M113.16538,113.40307a10.78014,10.78014,0,0,0-.9407,3.50484,31.91472,31.91472,0,0,1-.44792,3.28251.93153.93153,0,0,0,.63686,1.12165.922.922,0,0,0,1.12165-.63685c.48537-2.10935.24392-4.394,1.20478-6.35172a.93533.93533,0,0,0-.32712-1.24755.92031.92031,0,0,0-1.24755.32712Z"/><path d="M134.05873,111.65105a21.178,21.178,0,0,1-.1181,8.08924.93386.93386,0,0,0,.63686,1.12166.921.921,0,0,0,1.12165-.63686,23.5649,23.5649,0,0,0,.1181-9.05884.91985.91985,0,0,0-1.12165-.63685.93193.93193,0,0,0-.63686,1.12165Z"/><path d="M134.66743,119.22233l-2.03631.43482a.912.912,0,0,0-.21782,1.66659.99684.99684,0,0,0,.70262.09192l2.03631-.43482a.912.912,0,0,0,.21781-1.66659.99676.99676,0,0,0-.70261-.09192Z"/><path class="f" d="M107.12122,164.9017a14.41914,14.41914,0,0,1,.95578-4.49431,24.85484,24.85484,0,0,0,1.1757-5.61082c.25149-3.16895.2448-6.372.26675-9.54877.05229-7.56819-.0896-15.13732-.23572-22.70378-.06822-3.53225-.14558-7.06443-.19476-10.597a.91238.91238,0,0,0-1.82366,0c.19254,13.82807.90323,27.71894.23911,41.54207a24.36841,24.36841,0,0,1-1.13881,6.28575,16.54237,16.54237,0,0,0-1.068,5.12687.91238.91238,0,0,0,1.82366,0Z"/><path d="M103.105,114.781a11.07793,11.07793,0,0,1-1.56721,7.02887c-.5668,1.02857,1.0075,1.94967,1.57467.92043a13.06117,13.06117,0,0,0,1.751-8.43409.91839.91839,0,0,0-1.12165-.63686.93435.93435,0,0,0-.63686,1.12165Z"/><path d="M103.34454,113.8079a64.229,64.229,0,0,0-17.5314,1.77066c-1.14.27637-.65726,2.03537.4848,1.7585a62.35487,62.35487,0,0,1,17.0466-1.70551c1.17368.044,1.17183-1.77975,0-1.82365Z"/><path d="M85.47272,116.40788a13.296,13.296,0,0,1-.76685,5.53343.91718.91718,0,0,0,.63686,1.12165.935.935,0,0,0,1.12165-.63685,15.00944,15.00944,0,0,0,.832-6.01823.91183.91183,0,0,0-1.82365,0Z"/><path d="M102.412,121.20551c-.09473.02068-.3168.05157-.08146.019-.16744.02314-.33623.03837-.50439.05506-.50112.04975-1.00334.08894-1.50541.12754-1.39907.10754-2.79935.19943-4.19954.291-3.08085.20142-6.1635.382-9.24223.61438a20.35307,20.35307,0,0,0-2.786.28277c-1.14605.25023-.66106,2.0087.4848,1.75851.09516-.02078.31672-.04857.08145-.01905.16783-.02106.33609-.03835.5044-.05506.50111-.04975,1.00333-.08894,1.5054-.12753,1.39907-.10755,2.79936-.19944,4.19954-.291,3.08085-.20141,6.1635-.382,9.24223-.61437a20.35463,20.35463,0,0,0,2.786-.28277c1.14605-.25024.66106-2.00871-.4848-1.75851Z"/><line class="m" x1="99.4885" y1="100.43133" x2="95.19179" y2="101.2059"/><path d="M98.46571,97.22836a7.77556,7.77556,0,0,0-6.87187,3.91455l.0716.81236,6.75707-1.73858.90484.24462Z"/><path d="M127.077,96.08523c-1.4595.06265-2.91243.23725-4.36446.39-.71894.0756-1.43823.14939-2.159.206-.33642.02642-.67337.05038-1.01057.06451a.74017.74017,0,0,0-.22.00666c.21018-.12622.32863.989.51928.40578.07186-.21979.14748-.43843.2212-.6576l-1.79108-.2424a1.93028,1.93028,0,0,0,.71329,1.756,1.44271,1.44271,0,0,0,1.97618-.39338,1.41921,1.41921,0,0,0-.45646-1.95462,1.12742,1.12742,0,0,0-1.66,1.08384,1.51436,1.51436,0,0,0,1.5075,1.357,4.22614,4.22614,0,0,0,1.38473-.15478c.48332-.116.95694-.26875,1.43955-.38753.09922-.02442.19879-.04786.29886-.06853.0351-.00724.39214-.05705.22639-.042.08572-.00776.17108-.011.25714-.01255q.07965.00042.15891.00826-.17658-.02456-.02581.00862a.91262.91262,0,0,0,.4848-1.75851c-1.23205-.40876-2.60589-.07352-3.87249-.12562-1.17352-.04827-1.1713,1.77547,0,1.82365.592.02435,1.18577-.02985,1.77725-.049.31647-.01023.63379-.016.95019-.0008a1.74033,1.74033,0,0,1,.66025.11025l.4848-1.75851a4.70281,4.70281,0,0,0-2.39964.24338c-.37232.10351-.74343.2148-1.12164.29537-.0937.02-.18876.04-.28368.05346.17173-.02429-.09622.00406-.10855.00451a1.78005,1.78005,0,0,1-.23755-.00459l.09848.0112q-.56222-.20578-.11105.89573h-.92043q-.03315-.09054-.07269-.17854-.20655-.3284.2598-.57787l.30871.05434a.23164.23164,0,0,1,.12453.13762c.02293.0097-.01921-.123-.0147-.05466-.00707-.10722-.00569-.2143-.003-.32166a.91626.91626,0,0,0-1.79108-.2424,3.02285,3.02285,0,0,0-.31167,1.55208,1.29127,1.29127,0,0,0,1.27532,1.00479,17.475,17.475,0,0,0,2.50682-.17769c1.76517-.174,3.52834-.40992,5.30159-.486,1.16911-.05018,1.17539-1.8741,0-1.82365Z"/><path class="b" d="M141.68117,175.50417c-.02368-.07288-.10036-4.41044-.17435-4.39043l-2.24093,1.01526c-.01731.00471-1.3154-.05707-1.33322-.059l-46.64119-5.09592c-.06183-.00676-.121,4.323-.14665,4.37971l-1.36839,3.02444-.0063.01654-1.6359,5.25745h54.894Z"/><g class="n"><rect class="l" x="67.76703" y="157.69248" width="25.42723" height="23.86466"/></g><path class="b" d="M142.9263,212.65518h0a.14383.14383,0,0,0,.24684.13593l.03408-.04.00025-.05257A.14382.14382,0,0,0,142.9263,212.65518Z"/><path d="M107.5918,179.17219c.76182-2.92108,1.6503-5.80566,2.56556-8.6817.35673-1.12095-1.40336-1.60078-1.75851-.4848-.91526,2.876-1.80374,5.76062-2.56556,8.6817a.91261.91261,0,0,0,1.75851.4848Z"/><path d="M104.52862,179.29828c.39883-1.6603.68466-3.32217,1.18715-4.96023.13656-.44516.28169-.88781.43992-1.32576.15871-.43929.26162-.70843.43149-1.075a8.31764,8.31764,0,0,1,.51256-.93711c.03005-.04774.16812-.20725.01734-.03206.03955-.04594.08015-.09057.12-.13616a1.38275,1.38275,0,0,1,.11987-.11186c-.19463.17533-.06026.05117.01425.01447a.92087.92087,0,0,0,.32712-1.24755.93051.93051,0,0,0-1.24756-.32712,3.5029,3.5029,0,0,0-1.3606,1.69282,19.99538,19.99538,0,0,0-1.03635,2.69093c-.55183,1.73839-.85938,3.50327-1.28372,5.26981-.274,1.14057,1.48407,1.62726,1.7585.4848Z"/><path class="f" d="M77.27317,114.95138a13.42908,13.42908,0,0,1,1.00074,1.04135q.12114.14087.23834.28505c.0347.04273.069.08578.10331.12884.16433.20626-.04591-.0625.04539.05845q.22391.2966.43156.60491a13.19468,13.19468,0,0,1,.739,1.241q.16271.31094.30873.6302c.02862.06259.05646.1255.08441.18838.01985.04467.04738.11007.01252.027.05326.1269.10324.25517.1524.3837a.86029.86029,0,0,0,1.0341.58714.8501.8501,0,0,0,.58714-1.0341,14.257,14.257,0,0,0-3.54873-5.33075.84065.84065,0,0,0-1.18886,1.18885Z"/><path d="M78.85909,100.24342c4.31346-.01757,8.57926-.99879,12.89271-1.01635a.75045.75045,0,0,0,0-1.5c-4.31345.01756-8.57925.99878-12.89271,1.01635a.75045.75045,0,0,0,0,1.5Z"/><path d="M79.5823,99.6928c.05833-.15515-.08672.18808-.01762.03958.02405-.05168.04824-.10322.07373-.15422.05919-.11845.1223-.23494.18683-.35056.15641-.28023.32189-.55539.49009-.82867.31126-.50572.6333-1.00485.96061-1.50031q.10561-.15987.21228-.319a.7549.7549,0,0,0-.26906-1.02614.768.768,0,0,0-1.02614.26906c-.56912.84573-1.13,1.70319-1.6311,2.59124a6.34492,6.34492,0,0,0-.426.8803.75349.75349,0,0,0,.52383.92259.7705.7705,0,0,0,.92259-.52383Z"/><path d="M129.97274,92.349l7.25841,1.73744c.86364.20673,1.23217-1.12428.367-1.33136l-7.25841-1.73744c-.86364-.20673-1.23217,1.12428-.367,1.33136Z"/><polygon class="o" points="125.928 97.18 130.829 99.041 130.116 95.358 137.174 96.258 135.135 101.346 134.75 109.302 131.223 108.823 128.961 107.677 126.736 105.654 125.752 102.544 125.928 97.18"/><path d="M138.80467,96.1743c-1.38439,3.65131-2.90191,5.73017-2.01726,9.53359a15.15084,15.15084,0,0,1,.61775,3.06161c-.05941.69037-2.40728,1.48868-2.65513.5324-1.03829-4.006-.7214-9.62307,1.40435-13.17376"/><path d="M130.72137,104.13462a20.75069,20.75069,0,0,0,2.7816-2.31508c.8574-.80031,1.688-1.62926,2.55065-2.42385A.75.75,0,1,0,134.993,98.335c-.84411.7775-1.65723,1.58819-2.49532,2.37216-.45688.42737-.91869.84992-1.39447,1.25624-.21612.18456-.43509.366-.65958.5403.10028-.07786.01218-.01-.0383.02761q-.06843.051-.13773.10094-.14917.10722-.30327.20714a.76648.76648,0,0,0-.26907,1.02614.75806.75806,0,0,0,1.02615.26907Z"/><polygon class="o" points="131.463 88.408 136.491 89.871 140.929 91.426 139.201 88.658 132.615 87.751 129.847 87.742 131.463 88.408"/><path d="M125.309,84.89767c3.06284,3.79331,3.90345,9.41624,4.3461,14.12592l1.55658-.64476c-3.205-3.11607-7.84661-2.75627-11.89867-3.77061a.92669.92669,0,0,0-1.02973.419,18.68021,18.68021,0,0,0-1.45413,7.07245l1.15422-.87925c-3.83912-.77053-7.191,3.35847-9.8721,5.47036-.92131.72571.37708,2.00823,1.28952,1.28951,1.31458-1.03548,2.52132-2.20234,3.85912-3.20943,1.12282-.84527,2.73585-2.09355,4.23866-1.79194a.92787.92787,0,0,0,1.15423-.87925,16.36792,16.36792,0,0,1,1.20515-6.152l-1.02974.419c3.64275.91188,8.21856.506,11.094,3.30162.52335.50883,1.63382.177,1.55658-.64476-.49426-5.25884-1.4696-11.19139-4.88023-15.41543-.7374-.91326-2.02057.38411-1.28952,1.28951Z"/><path d="M129.93277,95.593a58.75192,58.75192,0,0,0,5.84609,1.05772c1.40575.2072,2.87148.30945,4.2534.6501.9372.231,1.337-1.21513.39876-1.44642-1.38191-.34065-2.84766-.44288-4.2534-.65009a58.76008,58.76008,0,0,1-5.84609-1.05773.75065.75065,0,0,0-.39876,1.44642Z"/><path d="M128.38174,88.46513c2.07568.56608,4.12189,1.25813,6.15944,1.94635a52.983,52.983,0,0,1,6.01254,2.23672c.866.4162,1.62777-.87677.75708-1.2952a55.07156,55.07156,0,0,0-6.22052-2.3371c-2.087-.70683-4.18317-1.41722-6.30978-1.99719a.75064.75064,0,0,0-.39876,1.44642Z"/><path d="M112.92058,121.88a133.01377,133.01377,0,0,0,19.73418-.52813c1.1561-.11852,1.1683-1.94342,0-1.82365a133.01509,133.01509,0,0,1-19.73418.52813c-1.17326-.05433-1.17052,1.76945,0,1.82365Z"/><path d="M107.45031,55.73151a2.41877,2.41877,0,0,1-.1223,1.70225,9.09536,9.09536,0,0,1-.67174,1.46492,32.88043,32.88043,0,0,1-1.912,2.94718.65426.65426,0,0,0,.23266.8873.662.662,0,0,0,.88729-.23266,29.52731,29.52731,0,0,0,2.07184-3.24509c.58187-1.11687,1.26-2.6087.76494-3.86871a.66807.66807,0,0,0-.79776-.45295.65318.65318,0,0,0-.453.79776Z"/><path d="M105.499,60.83544a2.25333,2.25333,0,0,0-1.02581,1.95585,2.46509,2.46509,0,0,0,1.16523,2.14879,4.80833,4.80833,0,0,0,2.81339.93319,5.141,5.141,0,0,0,1.5268-.337,3.18162,3.18162,0,0,0,1.29528-.74617,1.77973,1.77973,0,0,0,.46322-1.52562.9837.9837,0,0,0-1.02395-.96953.66314.66314,0,0,0-.64852.64852.6544.6544,0,0,0,.64852.64852q.2997.00377-.25653-.20906-.03432-.09693-.01339-.02457c-.01134.1.02056.05364.02824.1445a.42292.42292,0,0,1-.0807.32876,1.712,1.712,0,0,1-.85817.4901,3.6125,3.6125,0,0,1-1.29482.25527,3.18212,3.18212,0,0,1-1.13405-.30637,3.54535,3.54535,0,0,1-.89217-.5173,1.55067,1.55067,0,0,1-.33185-.377q-.03583-.05736-.06594-.118.03891.10152,0-.00832a1.40977,1.40977,0,0,1-.04375-.18445c.01853.11472-.00238-.09323-.00249-.09716-.002-.071,0-.142.00456-.21287a.491.491,0,0,1,.02087-.151c.018-.08255.03754-.16427.06337-.24482a.80453.80453,0,0,1,.13586-.2797c.07706-.1175-.03594.02015.05569-.06288q.085-.0763.00567-.00847a.70054.70054,0,0,1,.10008-.05323.65448.65448,0,0,0,.23265-.8873.66242.66242,0,0,0-.88729-.23266Z"/><path class="p" d="M120.45931,121.13962s6.69434,25.60623,15.62505,23.94877,7.7557-10.43616,7.7557-10.43616"/><path class="p" d="M140.07512,96.25813s3.45754-5.23622,3.63284-5.25875"/><path class="p" d="M139.54957,96.45013s1.02993-5.55512,2.76653-5.91977"/><ellipse class="q" cx="140.28666" cy="104.50907" rx="1.63141" ry="0.87363" transform="translate(-29.69788 145.83397) rotate(-50.34902)"/><ellipse class="q" cx="140.43234" cy="106.77129" rx="1.63141" ry="0.87363" transform="translate(-31.38695 146.76481) rotate(-50.34902)"/><ellipse class="q" cx="140.52301" cy="109.19093" rx="1.63141" ry="0.87363" transform="translate(-33.21713 147.71027) rotate(-50.34902)"/><ellipse class="q" cx="140.60151" cy="111.84508" rx="1.63141" ry="0.87363" transform="translate(-35.23227 148.73123) rotate(-50.34902)"/><ellipse class="q" cx="140.46379" cy="114.44863" rx="1.63141" ry="0.87363" transform="translate(-37.28671 149.56739) rotate(-50.34902)"/><ellipse class="q" cx="140.46963" cy="116.92198" rx="1.63141" ry="0.87363" transform="translate(-39.18894 150.46697) rotate(-50.34902)"/><ellipse class="q" cx="140.73244" cy="119.54182" rx="1.63141" ry="0.87363" transform="translate(-41.11096 151.61741) rotate(-50.34902)"/><ellipse class="q" cx="140.82518" cy="122.19857" rx="1.63141" ry="0.87363" transform="translate(-43.12295 152.65027) rotate(-50.34902)"/><ellipse class="q" cx="141.33358" cy="124.98705" rx="1.63141" ry="0.87363" transform="translate(-45.08594 154.05083) rotate(-50.34902)"/><ellipse class="q" cx="141.70233" cy="127.51999" rx="1.63141" ry="0.87363" transform="translate(-46.90273 155.2514) rotate(-50.34902)"/><ellipse class="q" cx="142.26977" cy="130.20982" rx="1.63141" ry="0.87363" transform="translate(-48.7684 156.66173) rotate(-50.34902)"/><path class="q" d="M144.03232,131.63234c.21852.4692-.13022,1.33317-.77892,1.92974s-1.35171.69983-1.57023.23064.5266-1.63687,1.1753-2.23344S143.81381,131.16315,144.03232,131.63234Z"/><ellipse class="q" cx="143.90417" cy="134.90218" rx="1.63141" ry="0.87363" transform="translate(-51.78979 159.61824) rotate(-50.34902)"/><ellipse class="q" cx="144.96821" cy="137.07976" rx="1.63141" ry="0.87363" transform="translate(-53.08134 161.22554) rotate(-50.34902)"/><ellipse class="q" cx="145.94973" cy="138.86831" rx="1.63141" ry="0.87363" transform="translate(-54.10322 162.62852) rotate(-50.34902)"/><path class="r" d="M139.54957,103.41124l.48987-8.71908.958.10623c.26833.05154.49913.448.49351.84772l-.89221,6.9868Z"/><path d="M139.31128,104.233c.02553.02962.05036.05951.07472.0901l-.11727-.15179a1.62961,1.62961,0,0,1,.20845.35074l-.07561-.17916a1.23345,1.23345,0,0,1,.07573.27892l-.02679-.19938a1.15191,1.15191,0,0,1,.0012.26494l.02679-.19938a1.297,1.297,0,0,1-.08738.32071l.07561-.17916a1.875,1.875,0,0,1-.23492.39323l.11727-.15179a8.47,8.47,0,0,1-.73425.71809.75.75,0,1,0,1.06066,1.06066c.12213-.12313.26313-.22764.38989-.34608a3.40735,3.40735,0,0,0,.59158-.71253,1.968,1.968,0,0,0,.30111-1.08766,2.19071,2.19071,0,0,0-.58613-1.33112.75381.75381,0,0,0-1.06066,0,.7689.7689,0,0,0,0,1.06066Z"/><path d="M139.72774,106.66817c.02553.02962.05035.0595.07471.09009l-.11727-.15179a1.6292,1.6292,0,0,1,.20845.35074l-.0756-.17916a1.2341,1.2341,0,0,1,.07572.27892l-.02679-.19938a1.15143,1.15143,0,0,1,.0012.26495l.0268-.19938a1.29751,1.29751,0,0,1-.08738.3207l.0756-.17916a1.87541,1.87541,0,0,1-.23491.39324l.11727-.15179a8.46858,8.46858,0,0,1-.73426.71808.75.75,0,1,0,1.06066,1.06066c.12213-.12312.26314-.22764.3899-.34608a3.40736,3.40736,0,0,0,.59157-.71253,1.96776,1.96776,0,0,0,.30111-1.08766,2.19065,2.19065,0,0,0-.58612-1.33111.7538.7538,0,0,0-1.06066,0,.76888.76888,0,0,0,0,1.06066Z"/><path d="M139.95884,109.56708c.03933.04285.07683.08678.11263.1326l-.11727-.15179a1.4,1.4,0,0,1,.16755.28463l-.07561-.17916a1.06864,1.06864,0,0,1,.06757.24886l-.02679-.19938a1.00715,1.00715,0,0,1-.00072.23779l.02679-.19938a1.15408,1.15408,0,0,1-.074.26851l.07561-.17916a1.675,1.675,0,0,1-.21735.36264l.11727-.15179a7.20754,7.20754,0,0,1-.78343.73256.75673.75673,0,0,0,0,1.06066.76537.76537,0,0,0,1.06066,0c.22114-.20917.47238-.378.67745-.60625a2.03512,2.03512,0,0,0,.60434-1.62527,2.00932,2.00932,0,0,0-.554-1.09673.75572.75572,0,0,0-1.06067,0,.76647.76647,0,0,0,0,1.06066Z"/><path d="M140.117,112.6214a1.44158,1.44158,0,0,1,.1616.17206l-.11727-.15179a.94683.94683,0,0,1,.11174.18828l-.07561-.17916a.73966.73966,0,0,1,.04648.16583l-.02679-.19938a.7002.7002,0,0,1-.00049.17908l.02679-.19938a.83364.83364,0,0,1-.05387.18924l.07561-.17916a1.23515,1.23515,0,0,1-.15494.25743l.11727-.15179a2.57191,2.57191,0,0,1-.45092.43241l.1518-.11727c-.2009.155-.41488.29087-.61276.45006a.75081.75081,0,0,0-.21967.53033.76321.76321,0,0,0,.21967.53033.75461.75461,0,0,0,.53033.21967l.19938-.02679a.7494.7494,0,0,0,.331-.19288l.01263-.01-.15179.11727a10.45674,10.45674,0,0,0,.84443-.64758,2.25686,2.25686,0,0,0,.43888-.55117,1.46974,1.46974,0,0,0,.19784-.82068,1.53817,1.53817,0,0,0-.18667-.62832,1.781,1.781,0,0,0-.354-.43726.78742.78742,0,0,0-.53033-.21967.76325.76325,0,0,0-.53033.21967.75.75,0,0,0,0,1.06066Z"/><path d="M140.09734,114.97891a1.29659,1.29659,0,0,1,.16709.16943l-.11727-.1518a.83374.83374,0,0,1,.102.16763l-.07561-.17916a.64753.64753,0,0,1,.04244.14838l-.02679-.19938a.61511.61511,0,0,1-.00067.16107l.02679-.19938a.74321.74321,0,0,1-.05.17124l.0756-.17916a1.11152,1.11152,0,0,1-.13366.22083l.11728-.15179a2.30641,2.30641,0,0,1-.41194.3946l.1518-.11728c-.174.13345-.3654.24214-.5395.37477a.824.824,0,0,0-.34467.44822.76645.76645,0,0,0,.07561.57792.757.757,0,0,0,.44822.34467.72556.72556,0,0,0,.57792-.0756c.09206-.07014.19241-.12977.28822-.19457a5.67791,5.67791,0,0,0,.55334-.42036,2.31879,2.31879,0,0,0,.45383-.5319,1.38681,1.38681,0,0,0,.214-.807,1.43132,1.43132,0,0,0-.18039-.61,1.63,1.63,0,0,0-.35288-.42208.79928.79928,0,0,0-.53033-.21967.76325.76325,0,0,0-.53033.21967.75463.75463,0,0,0-.21967.53033.74128.74128,0,0,0,.21967.53033Z"/><path d="M140.26407,117.16813a1.40186,1.40186,0,0,1,.15862.16445l-.11727-.15179a.91223.91223,0,0,1,.11035.18034l-.07561-.17916a.69113.69113,0,0,1,.049.17666l-.02679-.19938a.67431.67431,0,0,1-.00143.15483l.02679-.19938a.79075.79075,0,0,1-.0512.18255l.07561-.17916a1.18035,1.18035,0,0,1-.15.24922l.11727-.15179a2.46132,2.46132,0,0,1-.42832.41074l.15179-.11727c-.21207.16367-.43885.30549-.64949.47128a.74915.74915,0,0,0-.21967.53033.76321.76321,0,0,0,.21967.53033.75461.75461,0,0,0,.53033.21967l.19938-.02679a.74931.74931,0,0,0,.331-.19288l.006-.00476-.15179.11727c.27874-.21442.57974-.39349.8413-.6321a2.30139,2.30139,0,0,0,.44607-.54239,1.437,1.437,0,0,0,.20671-.8197,1.48482,1.48482,0,0,0-.18273-.618,1.70822,1.70822,0,0,0-.35494-.43382.79189.79189,0,0,0-.53033-.21967.76325.76325,0,0,0-.53033.21967.75.75,0,0,0,0,1.06066Z"/><path d="M140.51882,119.93976a1.156,1.156,0,0,1,.18516.18509l-.11727-.15179a.74744.74744,0,0,1,.082.13782l-.07561-.17916a.58389.58389,0,0,1,.03883.13611l-.02679-.19938a.5631.5631,0,0,1,.00066.13364l.0268-.19937a.66516.66516,0,0,1-.04369.15887l.07561-.17916a1.00224,1.00224,0,0,1-.12279.20634l.11728-.15179a2.10156,2.10156,0,0,1-.37768.36384l.15179-.11727c-.19317.14857-.407.265-.60313.40847a.81449.81449,0,0,0-.34467.44822.76645.76645,0,0,0,.07561.57792.757.757,0,0,0,.44822.34467.73284.73284,0,0,0,.57792-.07561c.0927-.06784.19317-.12543.28938-.18807a5.82267,5.82267,0,0,0,.55556-.41,1.64081,1.64081,0,0,0,.675-1.30575,1.346,1.346,0,0,0-.17845-.59838,1.553,1.553,0,0,0-.34907-.406.80971.80971,0,0,0-.53033-.21967.76319.76319,0,0,0-.53033.21967.75461.75461,0,0,0-.21967.53033.73069.73069,0,0,0,.21967.53033Z"/><path d="M140.72857,122.09141a1.95878,1.95878,0,0,1,.129.14957l-.11727-.15179a1.30653,1.30653,0,0,1,.14478.24379l-.0756-.17916a.99361.99361,0,0,1,.06691.2356l-.02679-.19938a.93364.93364,0,0,1,.00051.22586l.02679-.19938a1.07743,1.07743,0,0,1-.0709.256l.07561-.17916a1.57272,1.57272,0,0,1-.19723.32969l.11727-.1518a3.0638,3.0638,0,0,1-.46588.46606c-.11548.09573-.24065.18151-.35143.28271a.75557.75557,0,0,0,0,1.06066.76661.76661,0,0,0,1.06066,0c.22363-.20431.47606-.36856.684-.59217a1.97,1.97,0,0,0,.62065-1.49847,1.8655,1.8655,0,0,0-.19167-.66229,2.09822,2.09822,0,0,0-.36871-.497.75689.75689,0,0,0-1.06066,0,.76519.76519,0,0,0,0,1.06066Z"/><path d="M141.40267,125.30169a1.55869,1.55869,0,0,1,.15073.163l-.11728-.15179a1.03126,1.03126,0,0,1,.12075.2003l-.07561-.17916a.78415.78415,0,0,1,.05425.19527l-.02679-.19938a.75878.75878,0,0,1-.00037.17036l.02679-.19938a.87837.87837,0,0,1-.06087.21748l.07561-.17916a1.31708,1.31708,0,0,1-.16283.26913l.11728-.15179a2.767,2.767,0,0,1-.49268.46956l.15179-.11727c-.18137.1391-.37321.264-.54941.41a.75323.75323,0,0,0-.21967.53033.76325.76325,0,0,0,.21967.53033.75471.75471,0,0,0,.53033.21967.85109.85109,0,0,0,.53033-.21967l.02734-.02188-.15179.11727a8.24785,8.24785,0,0,0,.84493-.66714,1.78186,1.78186,0,0,0,.60015-1.47748,1.6678,1.6678,0,0,0-.532-.98917.75.75,0,1,0-1.06066,1.06066Z"/><path d="M141.6538,127.59049a1.59063,1.59063,0,0,1,.15239.16761l-.11727-.15179a1.05938,1.05938,0,0,1,.12179.20573l-.0756-.17916a.81111.81111,0,0,1,.05434.20028l-.02679-.19938a.786.786,0,0,1-.00091.17448l.02679-.19938a.90762.90762,0,0,1-.06224.22239l.0756-.17916a1.35078,1.35078,0,0,1-.16524.27457l.11728-.15179a2.844,2.844,0,0,1-.511.488l.15179-.11727c-.17293.13284-.35589.25317-.52292.39365a.75457.75457,0,0,0-.21967.53033.76325.76325,0,0,0,.21967.53033.75463.75463,0,0,0,.53033.21967.84447.84447,0,0,0,.53033-.21967l.03536-.02843-.15179.11727a7.60641,7.60641,0,0,0,.8415-.67419,2.21331,2.21331,0,0,0,.42342-.56962,1.67376,1.67376,0,0,0,.14811-.3994,1.63186,1.63186,0,0,0,.00679-.61117,1.67515,1.67515,0,0,0-.52141-.90457.75.75,0,1,0-1.06066,1.06066Z"/><path d="M142.25783,130.46711a1.3096,1.3096,0,0,1,.16844.17253l-.11728-.15179a.84355.84355,0,0,1,.10244.17055l-.07561-.17916a.65824.65824,0,0,1,.04221.15085l-.02679-.19938a.633.633,0,0,1,.00075.14746l.02679-.19937a.73957.73957,0,0,1-.04708.1744l.0756-.17916a1.109,1.109,0,0,1-.14253.23923l.11727-.15179a2.34384,2.34384,0,0,1-.416.39849l.15179-.11727c-.17089.1312-.35866.2387-.52924.36967a.82585.82585,0,0,0-.34467.44822.76645.76645,0,0,0,.07561.57792.757.757,0,0,0,.44822.34467.72422.72422,0,0,0,.57792-.07561c.09278-.07123.19405-.13177.29063-.19763a5.65919,5.65919,0,0,0,.54886-.41936,2.3141,2.3141,0,0,0,.45552-.53747,1.41421,1.41421,0,0,0,.21263-.80583,1.51892,1.51892,0,0,0-.53477-1.04083.79739.79739,0,0,0-.53033-.21967.76321.76321,0,0,0-.53033.21967.75469.75469,0,0,0-.21967.53033.74345.74345,0,0,0,.21967.53033Z"/><path d="M142.73187,132.72463a1.59184,1.59184,0,0,1,.15346.16938l-.11727-.15179a1.06062,1.06062,0,0,1,.12213.20782l-.07561-.17916a.82929.82929,0,0,1,.0512.18229l-.02679-.19938a.77879.77879,0,0,1,.00056.196l.02679-.19938a.91432.91432,0,0,1-.05661.20607l.0756-.17916a1.34364,1.34364,0,0,1-.17613.29467l.11727-.15179a2.862,2.862,0,0,1-.5009.47811l.15179-.11727c-.17394.13414-.3584.25531-.52649.397a.75473.75473,0,0,0-.21967.53033.76321.76321,0,0,0,.21967.53033.75461.75461,0,0,0,.53033.21967.84363.84363,0,0,0,.53033-.21967l.03565-.02873-.1518.11728a7.60843,7.60843,0,0,0,.8399-.67384,1.81078,1.81078,0,0,0,.59031-1.49931,1.69983,1.69983,0,0,0-.53306-.99013.75.75,0,0,0-1.06066,1.06066Z"/><path d="M143.6189,135.11764a1.443,1.443,0,0,1,.16163.17219l-.11727-.15179a.94793.94793,0,0,1,.11177.18841l-.07561-.17916a.74076.74076,0,0,1,.0465.16594l-.02679-.19938a.701.701,0,0,1-.00047.17919l.02679-.19938a.83454.83454,0,0,1-.05384.18936l.0756-.17916a1.23472,1.23472,0,0,1-.15491.25757l.11728-.1518a2.57179,2.57179,0,0,1-.45087.43263l.15179-.11727c-.20087.15507-.41488.291-.61273.45021a.75087.75087,0,0,0-.21967.53033.76325.76325,0,0,0,.21967.53033.75461.75461,0,0,0,.53033.21967l.19938-.02679a.74931.74931,0,0,0,.331-.19288l.01263-.01005-.15179.11728a10.45491,10.45491,0,0,0,.84438-.64783,2.25684,2.25684,0,0,0,.43884-.55138,1.47053,1.47053,0,0,0,.19778-.82094,1.53931,1.53931,0,0,0-.1867-.62849,1.78224,1.78224,0,0,0-.354-.43747.78728.78728,0,0,0-.53033-.21967.76321.76321,0,0,0-.53033.21967.75.75,0,0,0,0,1.06066Z"/><path d="M144.61585,137.23525a1.57134,1.57134,0,0,1,.151.16419l-.11727-.15179a1.043,1.043,0,0,1,.121.20172l-.07561-.17916a.79459.79459,0,0,1,.05452.19658l-.02679-.19938a.76891.76891,0,0,1-.00014.17143l.02679-.19938a.88644.88644,0,0,1-.0606.21876l.07561-.17916a1.32239,1.32239,0,0,1-.16252.27061l.11727-.15179a2.76436,2.76436,0,0,1-.49219.47187l.15179-.11727c-.18111.13964-.37325.26475-.54913.41126a.7537.7537,0,0,0-.21967.53033.76325.76325,0,0,0,.21967.53033.75461.75461,0,0,0,.53033.21967.84863.84863,0,0,0,.53033-.21967l.02731-.022-.15179.11727a8.22677,8.22677,0,0,0,.8444-.66969,1.79081,1.79081,0,0,0,.59914-1.48228,1.68045,1.68045,0,0,0-.53282-.99313.75.75,0,0,0-1.06066,1.06066Z"/><path d="M145.47071,138.8798a1.91545,1.91545,0,0,1,.12658.14409l-.11727-.15179a1.23848,1.23848,0,0,1,.15284.25833l-.07561-.17916a.96585.96585,0,0,1,.05731.20459l-.02679-.19938a.89866.89866,0,0,1,.00257.21877l.02679-.19938a1.0333,1.0333,0,0,1-.06693.24861l.07561-.17916a1.51164,1.51164,0,0,1-.19053.32146l.11728-.15179a3.454,3.454,0,0,1-.63128.59614l.15179-.11727c-.11858.09149-.24278.17762-.35429.27782a.75505.75505,0,0,0,0,1.06066.76724.76724,0,0,0,1.06066,0c.03712-.03335.07684-.06371.11631-.0942l-.1518.11727a3.98544,3.98544,0,0,0,1.10427-1.10642,1.68491,1.68491,0,0,0,.24372-.95909,1.88652,1.88652,0,0,0-.56057-1.17076.75.75,0,1,0-1.06066,1.06066Z"/><polygon class="l" points="140.904 171.387 140.904 175.811 142.489 179.652 143.028 179.652 141.637 174.42 141.507 171.114 140.904 171.387"/><path class="s" d="M118.57568,112.04069l-.4707.04943.13965-.65747.17578-.01855a.98593.98593,0,0,0,.40234-.114.54729.54729,0,0,0,.21387-.23583.89126.89126,0,0,0,.07813-.36976q.00292-.21954-.00391-.6737l-.00586-.04981a.51934.51934,0,0,0-.07031-.23193.32132.32132,0,0,0-.14942-.12512.65605.65605,0,0,0-.30078-.01746l-1.25683.13208-.18848-1.79516.80273-.08423.1211,1.15942.5664-.05957a1.31023,1.31023,0,0,1,.89356.15491.94765.94765,0,0,1,.36328.72253l.00977.14221.01171.68152a1.34842,1.34842,0,0,1-.31933.97864A1.58425,1.58425,0,0,1,118.57568,112.04069Z"/><path class="s" d="M121.22412,108.07645l-.15723,1.13123-.68359.0719.35352-1.152Zm1.0332-.10864-.165,1.13208-.67579.071.35547-1.1521Z"/><path class="s" d="M126.07471,111.25236l-.80176.08435-.17774-1.69117a.82114.82114,0,0,0-.23144-.52929.71014.71014,0,0,0-.58984-.14514,3.91827,3.91827,0,0,0-.45606.0769q-.24024.054-.79394.22009l-.00391-.65747a6.09881,6.09881,0,0,1,1.35937-.30871,1.24477,1.24477,0,0,1,1.51465,1.22924Zm-1.959.20593-.80468.08459-.1836-1.74829.76367-.47449Z"/><path class="s" d="M126.62744,110.53629l1.51953-.15979-1.77051-1.94775.69434-.43946,1.13184,1.24939a1.03245,1.03245,0,0,0,.10351-.29834,1.70054,1.70054,0,0,0-.00488-.41528l-.06152-.58618.79-.083.06835.64575a1.34324,1.34324,0,0,1-.06933.61621,1.90137,1.90137,0,0,1-.41992.60791l.55957.6366-.07129.57239-2.54981.26806Z"/><path class="g" d="M160.58464,147.92a22.49846,22.49846,0,0,0-3.87026,6.77343"/><polygon class="b" points="81.408 94.166 77.268 97.367 70.113 102.609 63.627 149.81 67.2 156.904 74.829 156.707 92.256 117.012 87.029 98.005 81.408 94.166"/><path d="M65.45556,129.18293a18.61941,18.61941,0,0,1,4.941.90219c.61342.19952.87621-.76575.26584-.96428a19.65286,19.65286,0,0,0-5.20681-.93791c-.64342-.02851-.642.97155,0,1Z"/><path d="M72.31669,123.42409a12.83541,12.83541,0,0,1-1.54133-1.60622q-.235-.27387-.462-.55444c-.0793-.09812-.15656-.19782-.23532-.29635-.05868-.07341.04274.05563.04321.05616-.01883-.02135-.03532-.046-.05249-.06869-.04025-.05326-.08058-.10645-.1204-.16a10.47524,10.47524,0,0,1-.73786-1.11062c-.0534-.09513-.10456-.19161-.15141-.29016-.01656-.03484-.08559-.19186-.022-.04357.0625.14578.002.00029-.01071-.036a1.62356,1.62356,0,0,0-.06361-.23131c-.01406-.02508.0195.24629.01572.10227-.00218-.08286.02517-.21411-.0232.1054a.86579.86579,0,0,0-.58888-1.03715.85272.85272,0,0,0-1.03715.58888,3.6397,3.6397,0,0,0,.94918,2.50855,23.13674,23.13674,0,0,0,2.0324,2.47148,8.75925,8.75925,0,0,0,.81349.79417.86313.86313,0,0,0,1.19237,0,.85272.85272,0,0,0,0-1.19236Z"/><path d="M65.95084,131.1145a41.86849,41.86849,0,0,1,3.98814,3.71106,13.97389,13.97389,0,0,1,3.12976,4.30495c.22577.59606,1.19286.33764.96428-.26584a14.736,14.736,0,0,0-3.22277-4.57134,41.67693,41.67693,0,0,0-4.15231-3.88594c-.49488-.403-1.20653.30037-.7071.70711Z"/><path class="g" d="M66.81918,149.12215a22.49846,22.49846,0,0,1,3.87026,6.77343"/><path class="g" d="M149.7887,132.73328s-5.3053-5.52982-9.07917-7.003"/><polyline class="a" points="114.168 106.829 112.231 108.026 106.738 110.929 105.985 111.755 106.305 113.96 107.526 115.013 106.874 116.087 107.529 117.529 107.996 119.128 109.757 120.381 109.867 121.936 111.921 123.885 116.355 123.419 118.386 124.988 120.229 125.093 122.249 124.331 126.711 130.433 130.063 135.467 136.074 135.283 139.59 129.542 139.381 124.274 135.852 120.46 125.729 113.275 120.278 106.742 118.22 105.271"/><path class="f" d="M115.914,113.443c-.89722.34354-1.86212.43191-2.76577.7503a14.25553,14.25553,0,0,0-1.76939.91051c-.55991.28862-1.13212.5537-1.70915.8061-.04142.01812-.17692.07618-.06835.03029q-.11025.0466-.22131.09128c-.13365.05405-.26792.10682-.40351.15585-.109.0394-.21866.07835-.33029.10963-.03581.01-.07511.01567-.10961.0288-.169.06435.18975-.014.07408-.00627a.86054.86054,0,0,0-.84065.84065.84788.84788,0,0,0,.84065.84065,4.84872,4.84872,0,0,0,1.51347-.47136c.647-.27214,1.28635-.56256,1.91366-.87755.48538-.24371.94137-.59657,1.44248-.79551.92789-.36839,1.9466-.43449,2.88065-.79213a.86492.86492,0,0,0,.58714-1.0341.847.847,0,0,0-1.0341-.58714Z"/><path class="f" d="M107.7491,115.2072c1.22878-.46509,2.41633-1.05977,3.59892-1.629,1.39289-.67051,2.78284-1.35235,4.1429-2.08768.95212-.51478.10424-1.96691-.84858-1.45175-1.33015.71916-2.6891,1.38666-4.0509,2.04336-.68132.32854-1.36483.65273-2.05276.96723-.26016.11894-.52095.23657-.78323.35079-.05754.02506-.11525.04975-.17287.07464-.082.03541.17215-.06908-.00628.00238-.09132.03657-.18215.074-.27416.10883a.86445.86445,0,0,0-.58714,1.0341.84719.84719,0,0,0,1.0341.58714Z"/><path class="f" d="M110.7344,120.92347a10.86031,10.86031,0,0,0,2.7645-.781,15.32676,15.32676,0,0,1,1.60626-.58635,8.23765,8.23765,0,0,0,1.99094-.73186.84078.84078,0,1,0-.84858-1.45175,6.8119,6.8119,0,0,1-1.64.57616,7.84872,7.84872,0,0,0-.918.30194c-.15868.06508-.31566.134-.47205.20432-.07776.035-.05892.02378.0081-.00325-.05781.02331-.11556.04676-.17359.06955-.44712.17557-.90277.33088-1.36255.46981-.20433.06174-.40972.12031-.61686.17189-.09151.02278-.18334.04463-.27576.06342-.04322.00879-.08923.01264-.13142.02474-.10238.02934.22048-.02492.069-.00892a.865.865,0,0,0-.84065.84065.84627.84627,0,0,0,.84065.84065Z"/><path class="f" d="M120.22268,109.109c.079.15122.15691.303.2297.4574.00965.02047.11469.248.06372.13577-.05069-.11164.04573.11716.05386.1391a3.653,3.653,0,0,1,.14548.48578.83477.83477,0,0,1,.0339.1831c.0055-.24388-.00534.03014-.00472.0811a.71976.71976,0,0,1-.012.242q.02423-.16955.006-.07353-.00864.04508-.0205.08943-.01563.05985-.03567.11839-.05066.13506.01747-.03423c.007.0451-.0872.16679-.1106.20562-.15211.25237-.34319.47876-.5085.72225a.84588.84588,0,0,0,.30158,1.15017.86124.86124,0,0,0,1.15017-.30159,9.75829,9.75829,0,0,0,.56659-.82359,2.66745,2.66745,0,0,0,.32676-1.2949,5.28394,5.28394,0,0,0-.75149-2.33084.84722.84722,0,0,0-1.15017-.30158.85978.85978,0,0,0-.30158,1.15017Z"/><path class="f" d="M122.06152,113.65008a17.28908,17.28908,0,0,1,.01,1.86233,3.64887,3.64887,0,0,1-.04338.46024c.04312-.21888-.002.00131-.00789.03674q-.02152.12936-.04883.2577a5.01189,5.01189,0,0,1-.27271.87615.84111.84111,0,0,0,.08474.64777.84062.84062,0,0,0,1.15017.30158.99259.99259,0,0,0,.38633-.5024,9.2048,9.2048,0,0,0,.42289-3.94011.84065.84065,0,0,0-1.6813,0Z"/><path class="f" d="M121.91487,118.53377l-2.32008,1.81978-.33508.26283a.83139.83139,0,0,0-.24622.59443.86838.86838,0,0,0,.1805.50936.84264.84264,0,0,0,1.08444.21651c.46259-.26409.92689-.52541,1.38764-.79269a4.51974,4.51974,0,0,0,1.2205-.93876,3.1074,3.1074,0,0,0,.59377-2.97663.84086.84086,0,1,0-1.62124.447,2.31235,2.31235,0,0,1,.07843.275c.00628.02953.03446.19665.01318.05741-.02167-.14173.00043.04239.0013.059a2.26341,2.26341,0,0,1-.00145.25746c-.01112.18016.02547-.00865.00912-.02414.01289.01221-.02246.12526-.0258.14088a2.29767,2.29767,0,0,1-.06779.24857q-.01347.0408-.029.08085-.034.08838.03018-.06858a.50683.50683,0,0,0-.04978.103c-.044.08531-.09646.16368-.14738.24479-.081.129.07938-.082.009-.01165-.03652.03652-.06884.07809-.105.11512-.06675.06828-.14059.12785-.21059.19241-.07383.0681.12426-.084-.006.00435-.044.02984-.08689.06121-.13111.09075-.16858.11261-.344.21445-.5198.31518q-.63784.36543-1.27678.72893l1.01872,1.32031,2.32007-1.81979.33508-.26283a.83939.83939,0,0,0,.24622-.59443.85545.85545,0,0,0-.24622-.59442.86642.86642,0,0,0-1.18885,0Z"/><path class="f" d="M122.5393,124.96475l1.18078,1.91986a.8777.8777,0,0,0,.5024.38633.85915.85915,0,0,0,.64777-.08475.84848.84848,0,0,0,.38632-.5024.86334.86334,0,0,0-.08474-.64777l-1.18078-1.91985a.87766.87766,0,0,0-.5024-.38633.85915.85915,0,0,0-.64777.08475.8485.8485,0,0,0-.38633.50239.86333.86333,0,0,0,.08475.64777Z"/><path class="f" d="M123.63209,123.20052l-1.20293.50484a.9405.9405,0,0,0-.50239.38633.62554.62554,0,0,0-.09976.31255.63677.63677,0,0,0,.015.33522.85036.85036,0,0,0,.38633.5024l.20081.08474a.84657.84657,0,0,0,.447,0l1.20292-.50484a.94057.94057,0,0,0,.5024-.38633.62571.62571,0,0,0,.09976-.31255.63677.63677,0,0,0-.015-.33522.8503.8503,0,0,0-.38632-.50239l-.20082-.08475a.84653.84653,0,0,0-.447,0Z"/><path class="f" d="M117.36679,104.7701a8.183,8.183,0,0,0-3.41723,1.13821.84078.84078,0,1,0,.84858,1.45175,7.31426,7.31426,0,0,1,.65242-.35739q.07187-.03457.14447-.06754.04841-.022.09714-.04323.12452-.0536-.05393.02263c.03514.00514.11685-.04676.14824-.05882q.08687-.03335.17457-.06438a7.24989,7.24989,0,0,1,1.41811-.34449l-.22347.03q.10543-.01394.2111-.02548a.91264.91264,0,0,0,.59443-.24622.84064.84064,0,0,0-.59443-1.43507Z"/><polyline class="a" points="115.312 105.927 117.2 107.094 122.553 109.923 123.288 110.729 122.976 112.878 121.786 113.904 122.421 114.95 121.783 116.356 121.328 117.915 119.611 119.136 119.504 120.651 117.502 122.551 113.181 122.096 111.201 123.625 109.405 123.728 107.436 122.985 103.087 128.932 99.82 133.839 93.962 133.66 90.534 128.064 90.739 122.93 94.178 119.212 104.044 112.21 109.357 105.842 111.363 104.409"/><path class="f" d="M113.17467,113.95372c.91007.34846,1.90486.4098,2.80758.772.48847.196.93219.53757,1.40588.77533.61144.30692,1.23452.5901,1.86511.85528a4.72576,4.72576,0,0,0,1.47508.45941.81933.81933,0,0,0,0-1.63865c-.11637-.00783.20847.07044.09185.01071a.801.801,0,0,0-.12648-.03267c-.10878-.03055-.21572-.06844-.32191-.10685-.12042-.04355-.23972-.09023-.35855-.13793q-.10728-.04307-.21391-.08769c-.07443-.03115.06454.02822-.06506-.02823-.57544-.25061-1.14588-.51455-1.70385-.80218a14.67284,14.67284,0,0,0-1.66853-.867c-.89607-.327-1.8588-.4098-2.75159-.75165a.82578.82578,0,0,0-1.00786.57225.83777.83777,0,0,0,.57224,1.00786Z"/><path class="f" d="M122.0037,112.513c-.08172-.03093-.16267-.06362-.24368-.09635-.10192-.04117-.10819-.046-.00274-.00054-.05536-.02388-.11084-.04748-.16615-.0715-.26549-.11527-.52937-.23429-.7926-.35463-.67048-.30652-1.33663-.62252-2.00068-.94269-1.32729-.64-2.65174-1.29062-3.94814-1.99153-.92774-.5016-1.756.91266-.827,1.41492,1.32555.71668,2.6802,1.38132,4.0378,2.03473,1.15263.55475,2.31,1.13441,3.50762,1.58771a.826.826,0,0,0,1.00787-.57225.83747.83747,0,0,0-.57225-1.00787Z"/><path class="f" d="M118.65852,118.02569c-.1163-.01229.09069.00932.0913.01277-.00062-.00351-.11222-.02027-.12544-.02288-.08824-.01738-.17592-.0377-.26326-.05909-.2001-.049-.39846-.10512-.59577-.16428-.46093-.1382-.91764-.29327-1.36559-.46917-.04544-.01785-.09058-.03644-.136-.0543-.11859-.04663.11465.05088.005.00277-.14663-.06434-.29241-.13025-.44045-.19141a7.6847,7.6847,0,0,0-.8952-.30166,6.93408,6.93408,0,0,1-1.64786-.575.81945.81945,0,1,0-.827,1.41492,7.7826,7.7826,0,0,0,1.89108.70009,15.11063,15.11063,0,0,1,1.61486.58468,10.58456,10.58456,0,0,0,2.69438.76118.82467.82467,0,0,0,.81932-.81932.83793.83793,0,0,0-.81932-.81932Z"/><path class="f" d="M107.996,107.32254a5.14963,5.14963,0,0,0-.73242,2.2717,2.60634,2.60634,0,0,0,.3053,1.23685,8.64924,8.64924,0,0,0,.56538.82791.81946.81946,0,0,0,1.41493-.82706c-.16112-.23731-.34735-.45795-.4956-.70393-.02281-.03784-.11465-.15645-.1078-.2004q.0664.165.017.03336-.01951-.057-.03476-.11539l-.014-.058q-.02545-.13748-.00013.04253a.702.702,0,0,1-.01166-.23584q.00079-.05935.005-.11856.01351-.13867-.00958.03952a1.1076,1.1076,0,0,0,.033-.17845,3.53591,3.53591,0,0,1,.1418-.47346c.02168-.05856.04268-.1187.069-.17544-.09185.19805.02859-.0564.0456-.09246.07094-.15043.14687-.2984.22387-.44579a.81946.81946,0,0,0-1.41492-.82706Z"/><path class="f" d="M105.9801,112.57546a8.971,8.971,0,0,0,.41216,3.84016.9028.9028,0,0,0,.37652.48965.83666.83666,0,0,0,.63134.0826.82737.82737,0,0,0,.57225-1.00787,4.87066,4.87066,0,0,1-.26579-.85392q-.02669-.125-.0476-.25116c-.008-.04791-.04836-.24231-.00769-.03581a3.5656,3.5656,0,0,1-.04228-.44856,16.84858,16.84858,0,0,1,.00973-1.81509.82539.82539,0,0,0-.81932-.81933.83673.83673,0,0,0-.81932.81933Z"/><path class="f" d="M106.603,118.494l2.26121,1.77363.32658.25615.99288-1.28681q-.6087-.34749-1.21738-.695c-.17143-.098-.34278-.19663-.50774-.30534q-.06492-.0428-.12834-.08775c-.08021-.057-.09645-.04709-.0073-.00254a1.0599,1.0599,0,0,1-.22909-.20721c-.02892-.02958-.05578-.061-.08427-.09093-.124-.13033.062.09915.00692.01274-.05029-.07889-.10269-.15375-.1468-.23663a.64962.64962,0,0,0-.06161-.125c.04934.04877.05455.141.01037.01439a2.23766,2.23766,0,0,1-.06942-.24131c-.01034-.04552-.01727-.09138-.02651-.13705-.02039-.10076.00834.178.00613.02382-.00133-.09336-.008-.18526-.00314-.27878a.57319.57319,0,0,0,.00868-.11116q-.02586.17446-.01012.07982.00434-.02752.01013-.0548a2.23142,2.23142,0,0,1,.08187-.29538.82473.82473,0,0,0-.57225-1.00787.83937.83937,0,0,0-1.00786.57225,3.03117,3.03117,0,0,0,.5787,2.90112,4.38,4.38,0,0,0,1.18954.91494c.449.26059.90158.5152,1.35244.77259a.82253.82253,0,0,0,1.05693-.211.80942.80942,0,0,0-.06406-1.07578l-2.26121-1.77363-.32659-.25615a.8933.8933,0,0,0-.57934-.24.81933.81933,0,0,0-.57935,1.39867Z"/><path class="f" d="M105.73816,122.776l-1.15082,1.87116a.81945.81945,0,1,0,1.41492.827l1.15082-1.87115a.81946.81946,0,1,0-1.41492-.82706Z"/><path class="f" d="M105.6524,123.46374l1.17241.492a.62066.62066,0,0,0,.32671.01463.60964.60964,0,0,0,.30462-.09723.81928.81928,0,0,0,.29394-1.121l-.12812-.16582a.81844.81844,0,0,0-.36154-.2107l-1.1724-.492a.62067.62067,0,0,0-.32671-.01463.60981.60981,0,0,0-.30463.09723.81926.81926,0,0,0-.29393,1.121l.12811.16582a.81861.81861,0,0,0,.36154.21071Z"/><path class="f" d="M112.19437,105.55939q.103.01125.20575.02483l-.2178-.02926a7.06594,7.06594,0,0,1,1.38213.33574c.10563.03744.20856.08441.31462.12008-.23364-.07858-.00922-.00323.04212.02007q.07076.03213.1408.06583a7.12842,7.12842,0,0,1,.63587.34832.81946.81946,0,0,0,.82706-1.41492,7.97581,7.97581,0,0,0-3.33055-1.10934.81843.81843,0,0,0-.57935.24.81934.81934,0,0,0,0,1.1587.94191.94191,0,0,0,.57935.24Z"/><polygon class="b" points="109.841 122.225 102.989 128.638 101.77 133.042 82.331 151.24 67.04 156.025 60.77 146.462 61.283 143.068 62.798 139.956 63.974 139.022 90.186 118.198 95.491 118.686 101.374 113.18 106.88 121.358 109.841 122.225"/><polygon class="b" points="117.961 123.477 124.111 129.234 125.205 133.187 142.654 149.521 156.379 153.816 162.006 145.233 161.546 142.186 160.186 139.393 135.603 119.863 130.841 120.302 125.561 115.359 120.618 122.699 117.961 123.477"/><polyline class="t" points="82.07 150.751 101.851 133.398 102.442 128.683"/><polyline class="u" points="63.627 149.81 60.77 146.462 62.798 139.956 85.585 122.184"/></svg>