<svg xmlns="http://www.w3.org/2000/svg" xmlns:xlink="http://www.w3.org/1999/xlink" viewBox="0 0 222.66748 273.8"><defs><style>.a{fill:#cab192;}.b{fill:#747c58;}.c{fill:#ededed;}.d{fill:#cecece;}.e{fill:#fff;}.f,.g,.s,.t,.w{fill:none;}.f,.g,.k,.l,.w{stroke:#000;}.f,.g,.r,.s,.t,.w{stroke-linecap:round;}.f,.g,.k,.l,.t,.w{stroke-miterlimit:10;}.f{stroke-width:1.38334px;}.g{stroke-width:1.10591px;}.h,.k,.l{fill:#c9b092;}.i{fill:#27421d;}.j{fill:#54593e;}.k{stroke-width:0.43302px;}.l{stroke-width:0.66735px;}.m{fill:#080808;}.n{clip-path:url(#a);}.o{fill:#271d1d;}.p{clip-path:url(#b);}.q{fill:#707171;}.r{fill:#284220;}.r,.s,.t{stroke:#27421d;stroke-width:2px;}.r,.s{stroke-linejoin:round;}.u{fill:#525222;}.v{fill:#231f20;}</style><clipPath id="a"><polygon class="a" points="158.771 89.06 156.32 77.8 157.578 75.605 161.717 72.456 163.466 64.633 159.336 62.322 153.271 47.291 139.863 44.712 128.177 50.688 128.184 67.057 126.406 69.395 129.189 76.932 130.564 77.784 131.28 82.125 135.187 85.729 136.78 94.812 132.987 101.63 140.466 117.674 151.411 120.627 162.706 103.795 167.773 92.947 158.771 89.06"/></clipPath><clipPath id="b"><polygon class="b" points="178.732 173.171 171.549 176.051 153.125 174.658 130.472 172.897 129.367 171.184 130.472 167.427 119.503 128.941 111.582 116.282 115.135 104.311 131.484 96.364 136.444 91.008 136.764 94.194 136.411 99.731 145.182 114.639 158.994 95.855 158.846 86.89 163.681 91.066 182.145 98.878 183.53 124.691 181.285 132.662 178.732 173.171"/></clipPath></defs><circle class="c" cx="111.3335" cy="111.33368" r="108.83386"/><path class="d" d="M111.3335,5c58.48339,0,106.334,47.85008,106.334,106.33358v.00023c0,58.48346-47.85059,106.33358-106.334,106.33358S5,169.81727,5,111.33381v-.00023C5,52.85008,52.8501,5,111.3335,5m0-5A111.20485,111.20485,0,0,0,32.7002,189.96739,111.20489,111.20489,0,1,0,189.96729,32.7,110.54262,110.54262,0,0,0,111.3335,0Z"/><path class="e" d="M16.75146,255.96247v7.59961a.557.557,0,0,1-.57519.57519H15.12646a.55553.55553,0,0,1-.57519-.57519v-7.47461q0-4.3-4.27539-4.30029H8.45166q-.25049,1.45019-.36328,2.5249a24.02859,24.02859,0,0,0-.11133,2.45019l.04883,6.79981a.58046.58046,0,0,1-.14942.4126.51687.51687,0,0,1-.39941.16259l-3.47559-.0498a.55555.55555,0,0,1-.57519-.5752v-.75a.55554.55554,0,0,1,.57519-.57519l1.89942.02539v-5.3501q0-1.5996.08789-2.67529a17.38378,17.38378,0,0,1,.38769-2.3999H5.05127a.58253.58253,0,0,1-.41211-.14991.5145.5145,0,0,1-.16211-.3999v-.80029a.55546.55546,0,0,1,.57422-.57471h5.34961Q16.75243,249.86237,16.75146,255.96247Z"/><path class="e" d="M20.48877,258.17487a.55815.55815,0,0,1-.16211-.4126v-7.32519a.55546.55546,0,0,1,.57422-.57471h1.10058a.557.557,0,0,1,.5752.57471v7.32519a.557.557,0,0,1-.5752.5752H20.90088A.55894.55894,0,0,1,20.48877,258.17487Z"/><path class="e" d="M28.25049,253.83747a4.81469,4.81469,0,0,0,.25,1.57471,1.12212,1.12212,0,0,0,.75.72509l.95117.25a.488.488,0,0,1,.3125.2627,1.09143,1.09143,0,0,1,.11133.51221v.57519a.41648.41648,0,0,1-.27442.3999,1.04028,1.04028,0,0,1-.60058.0752l-.94922-.2002q-2.52538-.54932-2.52539-4.25v-3.32519a.66162.66162,0,0,1,.17578-.42481.53769.53769,0,0,1,.39941-.1499h4.625a5.2772,5.2772,0,0,1,4.17481,1.61231,6.94525,6.94525,0,0,1,1.5,4.5625q.0249.25048.02539.95019,0,.7251-.02539.9751a6.9443,6.9443,0,0,1-1.5,4.5625,5.27719,5.27719,0,0,1-4.17481,1.6123h-4.2998a.557.557,0,0,1-.5752-.57519v-.82471a.54738.54738,0,0,1,.16309-.42529.58307.58307,0,0,1,.41211-.1499h4.15039a3.33681,3.33681,0,0,0,2.69922-1.125,5.09068,5.09068,0,0,0,1.02539-3.17481q.0498-.50023.0498-.875,0-.3501-.0498-.8501a4.96807,4.96807,0,0,0-1-3.1875,3.38815,3.38815,0,0,0-2.72461-1.1123H28.25049Z"/><path class="e" d="M40.6626,263.97468a.56122.56122,0,0,1-.16211-.4126v-13.125a.55552.55552,0,0,1,.57519-.57471h1.10059a.55546.55546,0,0,1,.57422.57471v13.125a.55548.55548,0,0,1-.57422.57519H41.07568A.55929.55929,0,0,1,40.6626,263.97468Z"/><path class="e" d="M51.77588,264.38727a.45094.45094,0,0,1-.45117-.47509v-1.1001a.61754.61754,0,0,1,.15039-.38721.95185.95185,0,0,1,.40039-.2876l.97461-.375a5.75852,5.75852,0,0,0,2.65039-1.875,5.91567,5.91567,0,0,0,.9248-3.60009,7.06745,7.06745,0,0,0-.39941-2.63721,2.55979,2.55979,0,0,0-1.3125-1.3877,6.0782,6.0782,0,0,0-2.51367-.4248h-5a.55549.55549,0,0,1-.57422-.5752v-.85009a.51786.51786,0,0,1,.16211-.39991.58422.58422,0,0,1,.41211-.1499h5.32617a8.36028,8.36028,0,0,1,3.61133.6499,3.90146,3.90146,0,0,1,1.9375,2.0752,9.95361,9.95361,0,0,1,.60058,3.7998,7.2863,7.2863,0,0,1-1.57519,4.98731,9.27116,9.27116,0,0,1-4.09961,2.63769l-1.05078.3501A.43652.43652,0,0,1,51.77588,264.38727Zm-4.98828,4.36231a.55856.55856,0,0,1-.16211-.41211V255.16218a.55472.55472,0,0,1,.57422-.57471H48.2251a.55625.55625,0,0,1,.57519.57471v13.17529a.52147.52147,0,0,1-.57519.57471H47.19971A.55894.55894,0,0,1,46.7876,268.74958Z"/><path class="e" d="M63.61279,262.775a6.4659,6.4659,0,0,1-1.53808-4.6377v-7.70019a.557.557,0,0,1,.57617-.57471h6q3.22412,0,4.625,1.44971a6.61572,6.61572,0,0,1,1.52441,4.45019q.0249.2505.02442,1.3501,0,1.1001-.02442,1.3501a6.09216,6.09216,0,0,1-1.625,4.44971Q71.624,264.388,68.2251,264.38727A6.0879,6.0879,0,0,1,63.61279,262.775Zm7.96192-1.3501a4.26915,4.26915,0,0,0,1.07617-3.0874q.02343-.24975.02441-1.2251,0-.97485-.02441-1.2251a4.20245,4.20245,0,0,0-1.13867-3.0498,4.1181,4.1181,0,0,0-2.98633-1.05029H64.17529v6.35009a4.52043,4.52043,0,0,0,1.0127,3.17481,3.891,3.891,0,0,0,3.01172,1.1001A4.76159,4.76159,0,0,0,71.57471,261.42487Z"/><path class="e" d="M85.38721,250.51227a3.90146,3.90146,0,0,1,1.9375,2.0752,9.95361,9.95361,0,0,1,.60058,3.7998,7.2863,7.2863,0,0,1-1.57519,4.98731,9.27116,9.27116,0,0,1-4.09961,2.63769l-1.05078.3501a.43652.43652,0,0,1-.17383.0249.45094.45094,0,0,1-.45117-.47509v-1.1001a.61754.61754,0,0,1,.15039-.38721.95185.95185,0,0,1,.40039-.2876l.97461-.375a5.75852,5.75852,0,0,0,2.65039-1.875,5.91567,5.91567,0,0,0,.9248-3.60009,7.06745,7.06745,0,0,0-.39941-2.63721,2.55979,2.55979,0,0,0-1.3125-1.3877,6.0782,6.0782,0,0,0-2.51367-.4248H80.6001l-2.29981-.02539a.58663.58663,0,0,1-.41308-.1499.52055.52055,0,0,1-.16211-.39991v-4.2998a.55555.55555,0,0,1,.57519-.5752h1a.51571.51571,0,0,1,.39942.1626.58279.58279,0,0,1,.15039.4126v2.8999h1.92578A8.36028,8.36028,0,0,1,85.38721,250.51227Z"/><path class="e" d="M92.61182,262.82477a6.308,6.308,0,0,1-1.51172-4.5625v-7.82519a.55546.55546,0,0,1,.57422-.57471h.97558a.55552.55552,0,0,1,.5752.57471v7.70019a4.455,4.455,0,0,0,1.03711,3.17481A5.04419,5.04419,0,0,0,100.438,261.4a4.3908,4.3908,0,0,0,1.03711-3.0625v-2.5752a4.83563,4.83563,0,0,0-.84961-3.0498,2.79127,2.79127,0,0,0-2.27539-1,3.64221,3.64221,0,0,0-.98828.16211,3.39667,3.39667,0,0,0-.9375.4126.4774.4774,0,0,1-.25.07519.46986.46986,0,0,1-.44922-.45019v-.7251a1.76045,1.76045,0,0,1,.0498-.47461.53223.53223,0,0,1,.25-.30029A3.86188,3.86188,0,0,1,97.13721,249.9a5.69684,5.69684,0,0,1,1.48828-.1626q4.9248,0,5.02441,5.7749.0249.2505.02442,1.4751,0,1.22535-.02442,1.4751a6.39026,6.39026,0,0,1-1.5625,4.4624q-1.46337,1.46265-4.71191,1.4624Q94.12354,264.38727,92.61182,262.82477Z"/><path class="e" d="M123.6001,250.01227a.57617.57617,0,0,1,.14941.42481v6.90039a6.10939,6.10939,0,0,1-1.4375,3.9624,7.67192,7.67192,0,0,1-3.88769,2.48731l-5.44922,1.72509a.6613.6613,0,0,1-.20117.02491.52854.52854,0,0,1-.34961-.125.405.405,0,0,1-.15039-.32471v-.77539q0-.57422.40039-.69971l3.27539-1.07519-3.25-11.67481a3.10618,3.10618,0,0,1-.125-.5.51319.51319,0,0,1,.5-.5h1.15039a.61161.61161,0,0,1,.375.11231.5448.5448,0,0,1,.19922.26269l3.20019,11.6001a5.0851,5.0851,0,0,0,2.7627-1.9751,5.98806,5.98806,0,0,0,.78711-3.20019v-6.2251a.55552.55552,0,0,1,.57519-.57471h1.04981A.57684.57684,0,0,1,123.6001,250.01227Z"/><path class="e" d="M127.66162,263.97468a.5574.5574,0,0,1-.16211-.4126v-13.125a.55552.55552,0,0,1,.5752-.57471h1.09961a.557.557,0,0,1,.57519.57471v13.125a.557.557,0,0,1-.57519.57519h-1.09961A.55778.55778,0,0,1,127.66162,263.97468Z"/><path class="e" d="M141.312,263.97468a.55813.55813,0,0,1-.16308-.4126v-7.47461q0-4.3-4.29981-4.30029h-3.22461a.58494.58494,0,0,1-.41308-.14991.51782.51782,0,0,1-.16211-.3999v-.80029a.55552.55552,0,0,1,.57519-.57471h3.375q6.3501,0,6.34961,6.1001v7.59961a.55553.55553,0,0,1-.57519.57519h-1.04981A.55555.55555,0,0,1,141.312,263.97468Z"/><path class="e" d="M153.48682,250.025a.56241.56241,0,0,1,.16211.41211v.80029a.52124.52124,0,0,1-.16211.3999.58663.58663,0,0,1-.41309.14991h-1.47461a2.75669,2.75669,0,0,0-.5625,1.17529,7.01926,7.01926,0,0,0-.21289,1.7998v8.8252a.5018.5018,0,0,1-.1748.3999.63186.63186,0,0,1-.42481.1499h-1.0498a.51664.51664,0,0,1-.55078-.5498v-8.9751a7.52859,7.52859,0,0,1,.17578-1.75,2.587,2.587,0,0,1,.47461-1.07519h-2.2002a.58255.58255,0,0,1-.41211-.14991.51852.51852,0,0,1-.16308-.3999v-.80029a.557.557,0,0,1,.57519-.57471h6A.56121.56121,0,0,1,153.48682,250.025Z"/><path class="e" d="M175.74854,255.96247v7.59961a.55548.55548,0,0,1-.57422.57519h-1.05078a.55548.55548,0,0,1-.57422-.57519v-7.47461q0-4.3-4.27539-4.30029h-1.8252q-.25048,1.45019-.3623,2.5249a23.70737,23.70737,0,0,0-.11329,2.45019l.05079,6.79981a.58549.58549,0,0,1-.15039.4126.51619.51619,0,0,1-.4004.16259l-3.4746-.0498a.55549.55549,0,0,1-.57422-.5752v-.75a.55549.55549,0,0,1,.57422-.57519l1.90039.02539v-5.3501q0-1.5996.08789-2.67529a17.36874,17.36874,0,0,1,.38672-2.3999h-1.32422a.58334.58334,0,0,1-.41309-.14991.51852.51852,0,0,1-.16309-.3999v-.80029a.55706.55706,0,0,1,.57618-.57471h5.34961Q175.74756,249.86237,175.74854,255.96247Z"/><path class="e" d="M188.686,250.59968a5.04784,5.04784,0,0,1,1.90039,2.11279,7.2043,7.2043,0,0,1,.6875,3.25v7.59961a.55707.55707,0,0,1-.57618.57519h-6.44921a.557.557,0,0,1-.5752-.57519v-.79981a.557.557,0,0,1,.5752-.57519h4.82421v-6.07471a4.749,4.749,0,0,0-.96191-3.0874,3.0065,3.0065,0,0,0-2.4375-1.1875h-2.625l-1.9502,11.69971a.68516.68516,0,0,1-.19921.42529.582.582,0,0,1-.42579.1748h-1.0498a.46436.46436,0,0,1-.3877-.1748.56966.56966,0,0,1-.1123-.42529l2-11.69971h-1.27441a.55709.55709,0,0,1-.57618-.5752v-.82519a.55706.55706,0,0,1,.57618-.57471h6.27441A5.215,5.215,0,0,1,188.686,250.59968Z"/><path class="e" d="M202.71045,263.97468a.55814.55814,0,0,1-.16309-.4126v-7.47461q0-4.3-4.2998-4.30029H195.023a.585.585,0,0,1-.41309-.14991.51782.51782,0,0,1-.16211-.3999v-.80029a.55552.55552,0,0,1,.5752-.57471h3.375q6.3501,0,6.34961,6.1001v7.59961a.55553.55553,0,0,1-.5752.57519h-1.0498A.55555.55555,0,0,1,202.71045,263.97468Z"/><path class="e" d="M218.15967,263.97468a.5574.5574,0,0,1-.16211-.4126v-7.47461q0-4.3-4.27539-4.30029h-4.64942a.585.585,0,0,1-.41308-.14991.51782.51782,0,0,1-.16211-.3999v-.80029a.55552.55552,0,0,1,.57519-.57471h4.77442q6.3501,0,6.35058,6.1499v7.54981a.58544.58544,0,0,1-.15039.4126.51618.51618,0,0,1-.40039.16259h-1.07422A.55777.55777,0,0,1,218.15967,263.97468Zm-9.5,0a.5574.5574,0,0,1-.16211-.4126v-8.3999a.55478.55478,0,0,1,.57519-.57471h1.04981a.55625.55625,0,0,1,.57519.57471v8.3999a.557.557,0,0,1-.57519.57519h-1.04981A.55777.55777,0,0,1,208.65967,263.97468Z"/><path class="f" d="M183.06411,151.20679s2.95875,3.79377,6.6804,2.56623"/><path class="g" d="M182.84523,151.56827s.36425,4.40678,2.93515,4.36391"/><path class="g" d="M183.16537,150.53536s4.33509.87143,5.00646-1.61064"/><path class="h" d="M25.81057,108.25023c-.93528-.59781-4.59532-3.86863-4.52547-4.97644"/><path class="h" d="M23.26362,101.1195l-6.10493,2.56174,1.65405,3.6457,5.48882,3.25616s3.034-.85367,3.11382-1.2005S23.26362,101.1195,23.26362,101.1195Z"/><path class="i" d="M181.95363,143.13428a38.41809,38.41809,0,0,0-5.85447-23.48782c-.47569-.74963-1.67334-.05643-1.19447.6982a37.1667,37.1667,0,0,1,5.6656,22.78962c-.06874.88775,1.31494.8833,1.38334,0Z"/><polygon class="b" points="181.652 172.766 196.252 155.912 198.736 151.1 188.454 148.483 178.981 153.041 162.95 173.697 162.957 176.254 175.263 176.329 175.887 175.666 181.652 172.766"/><polygon class="b" points="183.135 98.407 198.736 151.1 193.209 157.424 186.538 156.299 166.731 126.768 168.391 108.436 171.904 100.213 178.431 96.269 183.135 98.407"/><polygon class="j" points="177.486 155.163 177.728 157.095 179.729 153.793 181.478 153.153 183.948 155.663 184.215 152.978 186.869 153.823 185.198 151.274 187.014 150.268 182.862 149.589 180.602 144.783 175 136.509 175.568 139.945 179.121 146.458 181.229 149.793 182.216 151.313 178.959 152.957 177.486 155.163"/><path class="h" d="M23.1533,99.94011s4.81225,2.268,5.61171,2.20176,1.82575,1.21389,1.82575,1.21389l1.86812,3.59161.63429,2.64616,1.5459.24649,3.06718.19022s4.06593.78931-2.45523,9.33286l-3.80159-.54489-4.15762.54412-4.59521-1.31867s-4.59948,1.15246-6.16406-1.40131"/><path class="k" d="M27.64583,103.41632l-1.07178-.91915A4.2248,4.2248,0,0,1,25.2024,98.3486c.26123-1.1396.44873-2.29585.19666-2.50494-.52185-.43289-2.20514-4.17617-3.47628-1.7338s-1.66353,7.133-1.66353,7.133"/><path class="l" d="M16.58537,116.93062s-3.376.23862-3.64241-2.09251,1.016-1.55654,1.016-1.55654.29244.82317.96058.904,2.31588.47977,2.31588.47977,1.00356.14014.98234.35582,1.02464.82249.39066,1.1895A10.83662,10.83662,0,0,1,16.58537,116.93062Z"/><path class="l" d="M13.65343,113.16533s-.92789-1.67923-.60774-2.228a3.98861,3.98861,0,0,1,1.54422-1.03535l1.62712,1.699s2.57017.49114,3.11034.4983,1.64447.12693,1.57914.35459.47914.21982.42911,1.15a2.30428,2.30428,0,0,1-.81892,1.531l-2.29893-.11368-3.83809-1.1014Z"/><path class="l" d="M14.58991,109.902s-.9325-1.9432-.65471-2.1099.97471-1.83945,1.687-1.48721a10.68118,10.68118,0,0,1,2.07479,2.22172,16.83092,16.83092,0,0,0,2.57994.64179c.08929-.12222,1.49313.84323,1.49313.84323l.23451,1.42673-.73428,1.07063-1.94288-.40969L16.217,111.601Z"/><path class="l" d="M15.87485,106.36905s-1.09224-1.63577-.05614-2.61979,3.25124-2.27038,3.85127-2.0982a4.6162,4.6162,0,0,0,1.31662.13141L18.251,103.75728s-.32016.54881.03052.64944,1.42667.508,1.42667.508l.31148.23723,1.50241,1.36752s1.2051,1.47932.898,1.98259-.45657,1.79262-1.448.98983a4.69467,4.69467,0,0,0-2.78335-.68143Z"/><polygon class="b" points="137.375 107.175 132.036 105.015 123.084 101.119 74.61 121.132 69.846 128.463 74.265 135.607 121.671 130.161 136.843 114.649 137.375 107.175"/><path d="M177.95944,141.69362c-1.69648-3.97183-5.50944-6.15133-9.62559-6.867a.86757.86757,0,0,0-1.03715.58887.85019.85019,0,0,0,.58887,1.03715,13.57848,13.57848,0,0,1,5.24229,1.945,9.26379,9.26379,0,0,1,3.37554,4.147.84831.84831,0,0,0,1.15356.30247.86543.86543,0,0,0,.30248-1.15356Z"/><path class="m" d="M173.03534,138.36741l-3.97781,4.26045a.84313.84313,0,0,0,1.19236,1.19237l3.97781-4.26046a.84313.84313,0,0,0-1.19236-1.19236Z"/><path class="m" d="M177.7485,141.69362a3.8385,3.8385,0,0,0-1.55048-1.45438,5.07823,5.07823,0,0,0-1.89891-.42959,7.857,7.857,0,0,0-1.86433.15189,2.8549,2.8549,0,0,0-1.61762.78166.8647.8647,0,0,0,0,1.19237.85052.85052,0,0,0,1.19236,0c.00787-.00916.08489-.10485.09775-.10136-.01421-.00386-.1798.11239-.02782.02518.06082-.0349.34232-.15381.13171-.08208a5.24216,5.24216,0,0,1,.70645-.19659c.05829-.01118.11683-.02077.17535-.03067.08357-.01414.14541-.01874.025-.005.13042-.01486.26083-.028.3918-.037a7.141,7.141,0,0,1,.72975-.01442c.103.00349.20537.01079.308.01917.028.00228.17372.0246.04694.00448-.14219-.02257.06761.0126.09586.01754a4.3714,4.3714,0,0,1,.73582.1945c-.105-.03791-.07231-.03488.01039.00833.049.0256.09828.05042.14608.07827.05835.034.11346.07221.17.10891.17263.11206-.1014-.10975.0485.04123.0886.08924.18132.17187.2644.2669.0024.00274.15305.19586.0743.08832.05332.07281.10318.148.15266.22343a.86223.86223,0,0,0,1.15357.30247.85189.85189,0,0,0,.30247-1.15356Z"/><path class="m" d="M176.10492,139.70009a2.23559,2.23559,0,0,0-1.20989-.28822,9.53433,9.53433,0,0,1-.99754-.03277l.22414.03011a1.3121,1.3121,0,0,1-.30047-.076l.20141.085a.73038.73038,0,0,1-.12879-.071l-.85108,1.456a1.70207,1.70207,0,0,0,1.4115.35806.836.836,0,0,0,.54638-.48817.87122.87122,0,0,0-.0425-.75039l-.53-1.16664-1.3242,1.02172,1.229,1.14792a.88118.88118,0,0,0,.59618.24695.84314.84314,0,0,0,.59619-1.43932l-1.229-1.14791a.84871.84871,0,0,0-1.107-.06592.80439.80439,0,0,0-.30215.438l-.03012.22413a.83943.83943,0,0,0,.11511.42555l.53,1.16664.50388-1.23855a.348.348,0,0,1-.06053.01534l.22413-.03012a.53441.53441,0,0,1-.1243-.00005l.22413.03011a.82644.82644,0,0,1-.15818-.0454l.20141.085a3.08118,3.08118,0,0,1-.41881-.243.84334.84334,0,0,0-1.23855.95216.94712.94712,0,0,0,.38747.50388,2.23557,2.23557,0,0,0,1.20989.28822,9.53433,9.53433,0,0,1,.99754.03277l-.22414-.03012a1.31212,1.31212,0,0,1,.30047.076l-.20141-.085a.731.731,0,0,1,.12879.07095.84333.84333,0,0,0,1.23855-.95215.94709.94709,0,0,0-.38747-.50388Z"/><polygon class="b" points="33.942 108.488 43.086 110.021 47.274 108.337 73.22 112.686 86.147 121.822 82.4 132.479 79.427 134.112 76.075 134.788 42.568 126.334 39.769 121.876 31.918 120.56 35.036 111.332 33.942 108.488"/><path d="M84.83214,117.36518a20.48555,20.48555,0,0,1,3.23065,4.51049c.30111.56905,1.16457.06432.86347-.50472a21.47749,21.47749,0,0,0-3.387-4.71288c-.44335-.4683-1.14962.2397-.7071.70711Z"/><path d="M48.295,126.25189c-.04252-.00329-.08484-.00818-.12731-.01186-.15018-.013.01814-.00485.07262.01107a2.90574,2.90574,0,0,0-.31755-.04978c-.267-.04579-.53274-.0994-.7975-.15682q-.98364-.21335-1.95-.49959c-.33054-.09809-.65916-.203-.98417-.3181q-.23018-.08154-.45755-.17073-.093-.03672-.18537-.075c.20645.085-.05219-.02461-.09016-.042a6.246,6.246,0,0,1-.67095-.3647c-.13365-.08228-.03013.03307.02678.02645-.02193.00255-.08769-.07684-.10535-.09223-.00894-.00778-.08344-.093-.08541-.092.043-.02049.13261.20892.048.03987a.84326.84326,0,1,0-1.456.85108,2.65194,2.65194,0,0,0,1.282,1.03619,14.67276,14.67276,0,0,0,2.086.7841,17.72649,17.72649,0,0,0,3.71193.81041.85036.85036,0,0,0,.84313-.84313.8598.8598,0,0,0-.84313-.84313Z"/><path d="M25.30138,108.03327a14.06445,14.06445,0,0,1-1.62922-1.799c-.34259-.42324-.60913-.77165-.94121-1.24787a11.40339,11.40339,0,0,1-.77462-1.24724c-.05289-.10162-.101-.20511-.14935-.3089-.0303-.065.01772.0426.01871.04516-.01037-.02693-.02191-.05344-.03164-.08063-.01607-.0449-.03261-.08953-.04693-.135-.01324-.04208-.02437-.08455-.036-.12706-.00751-.02736-.03738-.16852-.01495-.05086.02164.11344.00458-.01046.00033-.03925-.00829-.0561.03053-.19638-.01093.03256a.64246.64246,0,0,0-.43652-.76882.63043.63043,0,0,0-.76882.43652,3.8596,3.8596,0,0,0,.95832,2.56177,24.98934,24.98934,0,0,0,2.103,2.70483,9.69183,9.69183,0,0,0,.876.90768.64048.64048,0,0,0,.88389,0,.63071.63071,0,0,0,0-.88389Z"/><polygon class="a" points="158.771 89.06 156.32 77.8 157.578 75.605 161.717 72.456 163.466 64.633 159.336 62.322 153.271 47.291 139.863 44.712 128.177 50.688 128.184 67.057 126.406 69.395 129.189 76.932 130.564 77.784 131.28 82.125 135.187 85.729 136.78 94.812 132.987 101.63 140.466 117.674 151.411 120.627 162.706 103.795 167.773 92.947 158.771 89.06"/><g class="n"><polygon class="o" points="156.175 68.6 163.178 54.185 115.19 10.048 128.582 68.926 129.268 52.28 137.865 52.842 146.597 50.037 147.809 53.46 152.675 55.831 156.175 68.6"/></g><polygon points="135.003 59.49 134.347 57.416 129.77 59.582 129.299 61.294 135.003 59.49"/><path d="M145.78941,74.2737a12.55884,12.55884,0,0,1-7.39476,2.39583.801.801,0,0,0,0,1.6011,14.02127,14.02127,0,0,0,8.20287-2.61443.82354.82354,0,0,0,.2872-1.09531.80688.80688,0,0,0-1.09531-.28719Z"/><path d="M153.15086,81.52669,146.21524,87.508l-6.11236,1.7979-4.91625-3.577,4.58348,7.6694a4.33,4.33,0,0,0,2.27655,1.88334h0a4.33,4.33,0,0,0,2.10731.203l.21167-.0322a4.33,4.33,0,0,0,2.60426-1.42579l1.38083-1.57455a4.33007,4.33007,0,0,0,.80919-1.36253l2.56032-6.97328Z"/><path d="M152.34667,81.75482c-1.23214,1.37718-2.53316,2.69464-3.79692,4.04266-.25958.27688-.52024.55306-.77332.83593-.46.51411.29762,1.27673.76.76,1.23214-1.37718,2.53316-2.69464,3.79692-4.04266.25958-.27688.52024-.55306.77332-.83593.46-.51411-.29762-1.27673-.76-.76Z"/><path d="M132.76927,61.71881c.06854.12228.13061.247.19061.3736.07.1476-.05223-.13875.02363.05738q.03784.09782.07141.1972a6.128,6.128,0,0,1,.19262.785q.014.09131-.00735-.06446.00754.05948.01361.11913.00906.08946.01488.17921.01359.20931.00865.41935c-.00324.14005-.01475.279-.02822.41839-.01962.203.03371-.17581-.00428.0246-.0149.07858-.02855.15719-.04517.23546l1.338-.35326c-.11545-.09478-.20476-.22546-.31882-.31685.027.02164.09579.13322.03575.04439-.023-.034-.04644-.06752-.06844-.1022q-.05947-.09372-.11055-.19243-.02278-.044-.044-.08884c-.01241-.02614-.07472-.1622-.01981-.04132.051.11228.00355.00358-.00553-.02107q-.02184-.05924-.04156-.11922a4.2627,4.2627,0,0,1-.11839-.44588q-.02151-.10185-.039-.20452c-.00736-.043-.01308-.08629-.02063-.12923-.01894-.10772.01951.16566.00714.05675-.01781-.15691-.03445-.31365-.046-.47117-.01141-.15566-.01963-.31152-.02639-.46744-.00171-.03935.00036-.08112-.00423-.12007-.0123-.10433-.00968.04732-.01856.08.02892-.10656-.02834.05386-.03912.07338q-.96894.51663-1.18861-.08565a.57129.57129,0,0,1-.03463-.42776l.20588-.35325.12951-.10141.404-.1093-.0265.00138a.80055.80055,0,0,0,0,1.6011.8747.8747,0,0,0,.82732-1.13233.92813.92813,0,0,0-1.32378-.566c-.65428.36262-.54815,1.164-.49108,1.79062a4.19683,4.19683,0,0,0,1.24382,2.98037.83356.83356,0,0,0,.77889.20588.79465.79465,0,0,0,.55914-.55913,5.69839,5.69839,0,0,0-.5918-3.9786.80068.80068,0,1,0-1.3825.80811Z"/><path d="M144.79032,59.89018c.06855.12228.13061.247.19062.3736.07.1476-.05223-.13875.02363.05738q.03783.09782.0714.1972a6.12972,6.12972,0,0,1,.19263.785q.014.0913-.00736-.06446.00754.05949.01362.11913.009.08946.01487.17921.01359.20932.00866.41935c-.00325.14-.01476.279-.02823.41839-.01962.203.03372-.17581-.00428.0246-.01489.07858-.02855.15719-.04516.23546l1.338-.35325c-.11545-.09479-.20476-.22547-.31882-.31686.027.02164.0958.13322.03575.04439-.023-.034-.04643-.06752-.06844-.1022q-.05946-.09372-.11055-.19243-.02278-.044-.044-.08884c-.0124-.02614-.07472-.1622-.01981-.04132.051.11228.00355.00358-.00553-.02107q-.02184-.05924-.04155-.11922a4.26023,4.26023,0,0,1-.11839-.44588q-.02153-.10185-.039-.20452c-.00737-.043-.01308-.08629-.02063-.12922-.019-.10773.0195.16565.00713.05674-.01781-.1569-.03445-.31365-.046-.47117-.01141-.15566-.01964-.31152-.0264-.46744-.00171-.03935.00037-.08112-.00423-.12007-.0123-.10433-.00967.04732-.01856.08006.02893-.10657-.02834.05385-.03911.07337q-.969.51663-1.18861-.08565a.57122.57122,0,0,1-.03463-.42775l.20588-.35326.1295-.10141.40405-.10929-.0265.00137a.80055.80055,0,1,0,0,1.6011.87471.87471,0,0,0,.82733-1.13233.92814.92814,0,0,0-1.32379-.566c-.65428.36262-.54815,1.164-.49107,1.79062a4.19675,4.19675,0,0,0,1.24382,2.98037.83354.83354,0,0,0,.77889.20588.79465.79465,0,0,0,.55913-.55913,5.69834,5.69834,0,0,0-.5918-3.9786.80068.80068,0,1,0-1.3825.80811Z"/><path d="M160.2075,67.23368l-1.98217,1.4179a.864.864,0,0,0-.3679.47843.81814.81814,0,0,0,.0807.61687.808.808,0,0,0,.47843.3679.78688.78688,0,0,0,.61687-.0807l1.98218-1.4179a.86406.86406,0,0,0,.3679-.47843.81818.81818,0,0,0-.0807-.61687.808.808,0,0,0-.47844-.3679.78689.78689,0,0,0-.61687.0807Z"/><path d="M158.74982,66.674l-.95651,2.63716a.80092.80092,0,0,0,.55914.98477.82139.82139,0,0,0,.98477-.55913l.95651-2.63717a.80092.80092,0,0,0-.55914-.98477.8214.8214,0,0,0-.98477.55914Z"/><path d="M162.25057,64.68684a6.3591,6.3591,0,0,0-3.40832,1.80767.80055.80055,0,1,0,1.13215,1.13215c.09947-.10134.20194-.19951.30863-.29325q.07527-.06613.15291-.12948c.03866-.03154.14777-.10471-.02447.01646.02726-.01918.05328-.04036.08014-.06013a5.61394,5.61394,0,0,1,.72157-.451c.11767-.0617.24617-.10816.36133-.17336-.06223.03523-.14365.05879-.02943.01311q.04651-.01862.09336-.03638.09369-.03554.1886-.06769a5.63422,5.63422,0,0,1,.84917-.21418.80405.80405,0,0,0,.55913-.98477.823.823,0,0,0-.98477-.55913Z"/><path d="M179.3631,123.84382a14.638,14.638,0,0,0-4.14564-3.76662,7.76265,7.76265,0,0,0-4.90573-.90126.748.748,0,0,0-.51933.91467.76379.76379,0,0,0,.91466.51932c3.23342-.43552,5.74032,1.96008,7.60449,4.28543a.74822.74822,0,0,0,1.05155,0,.76135.76135,0,0,0,0-1.05154Z"/><path class="m" d="M174.60645,120.81142c-.49785,1.82617-.538,3.74274-1.03583,5.56891a.74419.74419,0,0,0,1.434.39534c.49784-1.82617.538-3.74275,1.03583-5.56892a.74419.74419,0,0,0-1.434-.39533Z"/><path class="m" d="M179.3631,123.84382a5.10027,5.10027,0,0,0-3.48659-1.19889,1.44335,1.44335,0,0,0-.86809.31913,2.02812,2.02812,0,0,0-.42253.51814,6.94414,6.94414,0,0,0-.62786,1.47119,13.18816,13.18816,0,0,0-.38741,1.42694.74374.74374,0,0,0,1.434.39534,13.18709,13.18709,0,0,1,.38741-1.427q.06974-.21188.14773-.42092c.02569-.06836.053-.136.0796-.204q.04726-.11464-.013.02979.02071-.04788.04225-.0954c.05379-.11845.1113-.23544.17592-.3484.029-.05072.06157-.09907.09148-.14918.09977-.16715-.07867.07034.0007-.00674.03155-.03064.06665-.06547.09524-.09881.07552-.08806-.17377.10545-.02991.03124q-.20771.07946-.10473.04667a.61608.61608,0,0,1,.06552-.01215q-.18973.024-.06628.01126.0468-.00393.09372-.006a3.27325,3.27325,0,0,1,.41581.00934c.03983.00324.28955.03953.08788.00657.0795.013.15887.02579.23787.04165a5.01642,5.01642,0,0,1,.48821.12389q.12323.03795.24435.0823.06078.02229.12093.04625-.11664-.051.00116.00081a4.3822,4.3822,0,0,1,.45251.23962c.071.04418.13976.09131.20742.14038-.14083-.10212.06078.05638.08518.07854a.74355.74355,0,1,0,1.05155-1.05154Z"/><path class="m" d="M177.33341,122.20443a1.40731,1.40731,0,0,0-.63458-.1587,2.36557,2.36557,0,0,0-.53376.07033c-.24885.05595-.49078.14332-.74418.17822l.19767-.02656a1.02413,1.02413,0,0,1-.23893.00472l.19767.02656a.597.597,0,0,1-.14074-.03651l.17762.075-.03233-.01524-.75058,1.28408a3.301,3.301,0,0,0,.54159.219,1.04437,1.04437,0,0,0,.85281-.11355.79244.79244,0,0,0,.34171-.44437.73582.73582,0,0,0-.075-.573l-.70791-1.0148-1.01733,1.01732,1.227.852a.74374.74374,0,0,0,1.09228-.8397.83383.83383,0,0,0-.34171-.44437l-1.22695-.852-.17762-.075a.56314.56314,0,0,0-.2965-.01328.70659.70659,0,0,0-.42694.2045.885.885,0,0,0-.19122.32811.74454.74454,0,0,0,.075.573l.70791,1.0148.26676-1.01732a.31668.31668,0,0,1-.06078.03615l.17762-.075a.36768.36768,0,0,1-.068.01631l.19767-.02656a.50869.50869,0,0,1-.09906-.00348l.19767.02656a1.1287,1.1287,0,0,1-.23855-.07567l.17762.075c-.05942-.02565-.11815-.0528-.17742-.07879a.81168.81168,0,0,0-.573-.075.75831.75831,0,0,0-.44437.34171.75053.75053,0,0,0-.075.57295.73953.73953,0,0,0,.3417.44437,1.40739,1.40739,0,0,0,.63459.1587,2.36564,2.36564,0,0,0,.53376-.07033c.24884-.05595.49077-.14332.74417-.17822l-.19766.02656a1.02412,1.02412,0,0,1,.23893-.00472l-.19767-.02656a.59709.59709,0,0,1,.14074.03651l-.17762-.075.03233.01524a.7921.7921,0,0,0,.57295.075.75825.75825,0,0,0,.44437-.34171.75049.75049,0,0,0,.075-.573.73954.73954,0,0,0-.34171-.44437Z"/><path d="M145.23705,75.04966a2.55412,2.55412,0,0,1-.30916.91715c-.08994.15956-.18957.31355-.29411.46389q-.09375.13483-.19292.26617c.053-.07017-.01023.01345-.02926.03691a9.44384,9.44384,0,0,1-1.3638,1.36547,8.63338,8.63338,0,0,1-3.58714,1.71548.84334.84334,0,0,0,.44828,1.626,10.31349,10.31349,0,0,0,4.33122-2.14914,9.313,9.313,0,0,0,1.44553-1.46917,5.06909,5.06909,0,0,0,1.17738-2.32451.87132.87132,0,0,0-.58887-1.03715.84924.84924,0,0,0-1.03715.58888Z"/><polygon class="b" points="178.732 173.171 171.549 176.051 153.125 174.658 130.472 172.897 129.367 171.184 130.472 167.427 119.503 128.941 111.582 116.282 115.135 104.311 131.484 96.364 136.444 91.008 136.764 94.194 136.411 99.731 145.182 114.639 158.994 95.855 158.846 86.89 163.681 91.066 182.145 98.878 183.53 124.691 181.285 132.662 178.732 173.171"/><g class="p"><polygon class="j" points="177.23 121.47 183.072 125.694 181.285 132.036 179.498 156.898 169.501 136.956 177.23 121.47"/></g><path d="M129.08706,109.94709a6.59777,6.59777,0,0,1,2.8358-3.67779,13.45527,13.45527,0,0,1,3.72924-1.26184l-.95216-.38747a14.93564,14.93564,0,0,1,1.2765,3.89816c.15184.87761,1.12477,1.4749,1.76044,2.01648,1.13081.96342,2.2769,1.909,3.395,2.88722.49371.43193.98678.86721,1.45312,1.32887.15563.15406.31118.30983.45364.47633.13337.15587.01145.06368.07177.09076a.92588.92588,0,0,1,.04935.08341q-.25614-.47569.28442-.95489c-.88935.61008-.04692,2.072.85109,1.456.944-.64758.23776-1.56838-.33593-2.1609-.782-.80766-1.65252-1.53458-2.50637-2.26392-.95049-.81189-1.91411-1.60839-2.86133-2.42411-.3067-.26412-.612-.52995-.90539-.8089a1.50272,1.50272,0,0,0-.12994-.13025c-.11047-.08075-.01059-.08666-.03225-.02793-.00371.01006.08509.32725.13637.25142.06172-.09127-.05006-.45881-.0683-.56561a15.81008,15.81008,0,0,0-1.43619-4.00326.85649.85649,0,0,0-.95216-.38746,13.59422,13.59422,0,0,0-4.45826,1.6226,8.62434,8.62434,0,0,0-3.28452,4.49477c-.37789,1.01885,1.25131,1.45856,1.626.44828Z"/><path d="M136.24835,106.64815a21.49069,21.49069,0,0,0-4.11881.485,26.461,26.461,0,0,0-3.85247,1.2518.86869.86869,0,0,0-.58887,1.03715.84911.84911,0,0,0,1.03715.58887,26.86229,26.86229,0,0,1,3.73711-1.22529,19.02075,19.02075,0,0,1,3.78589-.45129c1.08276-.03146,1.08727-1.71785,0-1.68626Z"/><path d="M133.27481,94.07165c-2.59424,2.29391-3.91655,5.80312-4.74992,9.07777a34.25779,34.25779,0,0,0-1.00952,5.9714c-.07712,1.08287,1.60948,1.078,1.68626,0a31.38237,31.38237,0,0,1,.90966-5.36582c.76335-3.06126,1.92915-6.34519,4.35589-8.491.81458-.72029-.38168-1.9092-1.19237-1.19236Z"/><path class="m" d="M114.2064,122.75155a13.773,13.773,0,0,1,5.04052,10.1116c.02813.95039,1.50844.9544,1.4802,0a15.21562,15.21562,0,0,0-5.47407-11.15826c-.7245-.60952-1.7768.43239-1.04665,1.04666Z"/><path d="M172.41668,117.7751q-10.44239,1.44594-20.95318,2.27631c-1.07475.08427-1.08384,1.77124,0,1.68626q10.73617-.84181,21.40145-2.33655c1.07024-.1482.61472-1.77321-.44827-1.626Z"/><path d="M150.739,120.77748c-1.06794,2.17594-.87377,4.58019-1.40474,6.88771a.86134.86134,0,0,0,.58888,1.03715.85257.85257,0,0,0,1.03715-.58888c.48909-2.12554.25513-4.48892,1.23475-6.48489a.86488.86488,0,0,0-.30248-1.15356.851.851,0,0,0-1.15356.30247Z"/><path d="M150.41658,129.27728a135.379,135.379,0,0,0,20.08495-.53752c1.069-.10959,1.08028-1.797,0-1.68626a135.37769,135.37769,0,0,1-20.08495.53752c-1.08487-.05024-1.08233,1.63614,0,1.68626Z"/><path d="M172.01232,118.9289a21.66566,21.66566,0,0,1-.1202,8.27817c-.22179,1.0588,1.40331,1.51145,1.626.44827a23.87346,23.87346,0,0,0,.12019-9.17472.85056.85056,0,0,0-1.03715-.58887.86173.86173,0,0,0-.58887,1.03715Z"/><path d="M172.57254,126.73919l-2.07251.44255a.84335.84335,0,0,0,.44828,1.626l2.0725-.44255a.84334.84334,0,0,0-.44827-1.626Z"/><path class="m" d="M144.42923,173.14862a14.70656,14.70656,0,0,1,.97448-4.593,25.31841,25.31841,0,0,0,1.19594-5.70512c.25288-3.16817.24612-6.37095.26932-9.547.0567-7.76142-.08929-15.5239-.23914-23.28356-.06931-3.589-.14791-7.17788-.19787-10.7672a.84364.84364,0,0,0-1.68626,0c.19652,14.11847.935,28.30612.23669,42.41895a24.50237,24.50237,0,0,1-1.15829,6.29113,16.66741,16.66741,0,0,0-1.08113,5.18585.84364.84364,0,0,0,1.68626,0Z"/><path d="M140.50838,122.11445a11.367,11.367,0,0,1-1.60363,7.21923c-.5241.95107.93159,1.80278,1.456.85108a13.2004,13.2004,0,0,0,1.77362-8.51858.8492.8492,0,0,0-1.03715-.58887.86394.86394,0,0,0-.58887,1.03714Z"/><path d="M140.67033,121.23156a65.283,65.283,0,0,0-17.82044,1.79909c-1.05414.25555-.60775,1.882.44828,1.626a63.55044,63.55044,0,0,1,17.37216-1.73887c1.08526.04066,1.08355-1.64566,0-1.68625Z"/><path d="M122.56575,123.79285a13.85144,13.85144,0,0,1-.78351,5.65435.85129.85129,0,0,0,.58887,1.03715.86017.86017,0,0,0,1.03715-.58887,15.21314,15.21314,0,0,0,.84375-6.10263.8631.8631,0,0,0-.84313-.84313.85038.85038,0,0,0-.84313.84313Z"/><path d="M139.74375,128.75762c-.0781.01706-.31778.05224-.10547.02242-.17033.02393-.34224.039-.51336.056-.51.05063-1.02117.09052-1.53217.1298-1.42393.10945-2.84911.203-4.27418.29615-3.13561.205-6.273.38874-9.40651.62529a20.55052,20.55052,0,0,0-2.813.28476c-1.05971.23139-.61126,1.85737.44827,1.626.07852-.01715.31773-.0494.10548-.02242.17077-.02171.34207-.039.51336-.056.51-.05063,1.02117-.09052,1.53216-.1298,1.42394-.10945,2.84911-.203,4.27419-.29615,3.13561-.205,6.273-.38874,9.4065-.62529a20.55051,20.55051,0,0,0,2.813-.28476c1.0597-.23139.61125-1.85737-.44828-1.626Z"/><line class="q" x1="136.74575" y1="107.53232" x2="132.37267" y2="108.32066"/><path d="M135.70478,104.27242a7.91379,7.91379,0,0,0-6.994,3.98413l.07287.8268,6.87717-1.76949.92092.249Z"/><path d="M164.82462,103.19388c-1.48544.06376-2.96419.24146-4.442.39688-.73172.077-1.46379.15205-2.19733.20966-.3424.0269-.68534.05127-1.02853.06566-.04076.0017-.19392-.01669-.224.00678.162-.12661.26682.85555.44664.30551.07313-.22369.15009-.44622.22512-.66928l-1.65614-.22414a1.88785,1.88785,0,0,0,.68392,1.71384,1.38254,1.38254,0,0,0,1.89514-.3699,1.35831,1.35831,0,0,0-.43411-1.8732,1.06251,1.06251,0,0,0-1.56175,1.02979,1.45606,1.45606,0,0,0,1.4494,1.29619,4.20417,4.20417,0,0,0,1.38676-.1545c.49191-.11806.974-.27352,1.46514-.39441.101-.02486.20232-.04871.30418-.06975.03908-.00807.34758-.05516.253-.04582.08711-.0086.17421-.01161.26171-.01277q.08106.00042.16173.0084-.14618-.0187-.00369.01181a.84387.84387,0,0,0,.44827-1.626c-1.24576-.4133-2.6378-.07213-3.91875-.12482-1.08511-.04463-1.08306,1.64171,0,1.68626.6025.02478,1.20684-.03038,1.80884-.04984a4.872,4.872,0,0,1,1.66164.11443l.44827-1.626a4.70611,4.70611,0,0,0-2.39715.24771c-.37894.10535-.75664.21862-1.14158.30062a1.67008,1.67008,0,0,1-.42177.062,1.59147,1.59147,0,0,1-.24177-.00467l.07766.00837q-.49571-.18984-.1333.75647h-.85109a.15923.15923,0,0,0-.04436-.13843q-.16833-.26964.21452-.47625c.0241-.00559.40868.07993.34077.14622.00068-.00067-.02645-.37119-.02535-.41572a.84723.84723,0,0,0-1.65614-.22414,3.03776,3.03776,0,0,0-.3172,1.53453,1.22772,1.22772,0,0,0,1.21611.96031,17.55742,17.55742,0,0,0,2.55138-.18084c1.79655-.17715,3.591-.41721,5.39582-.49468,1.081-.0464,1.08684-1.73291,0-1.68625Z"/><path class="m" d="M110.209,117.95372c2.44721,2.8625,4.91862,5.70423,7.36583,8.56673a.85039.85039,0,0,0,1.19236,0,.86047.86047,0,0,0,0-1.19236c-2.44721-2.8625-4.91861-5.70423-7.36582-8.56673a.8504.8504,0,0,0-1.19237,0,.86047.86047,0,0,0,0,1.19236Z"/><path class="m" d="M119.76072,129.04571c-1.16946-2.43919-2.90564-4.53948-4.166-6.9226a.84326.84326,0,1,0-1.456.85109c1.26035,2.38312,2.99652,4.48341,4.166,6.9226a.85079.85079,0,0,0,1.15356.30247.86132.86132,0,0,0,.30247-1.15356Z"/><path d="M183.16538,124.68051a15.27773,15.27773,0,0,0-4.72465-3.15078,7.62891,7.62891,0,0,0-4.91077-.1982.74419.74419,0,0,0,.39534,1.434c3.15839-.9261,5.94224.90783,8.18853,2.96654.70447.64564,1.75893-.40323,1.05155-1.05155Z"/><path class="m" d="M177.91188,122.4194c-.21383,1.88068.03717,3.781-.17667,5.66167a.748.748,0,0,0,.74356.74355.7611.7611,0,0,0,.74355-.74355c.21384-1.88068-.03716-3.781.17667-5.66167a.748.748,0,0,0-.74355-.74356.76111.76111,0,0,0-.74356.74356Z"/><path class="m" d="M183.01489,124.56425a4.59,4.59,0,0,0-1.98636-.66232,4.45543,4.45543,0,0,0-1.73432.0869c-1.02871.28906-1.23944,1.62135-1.38284,2.52522a15.10282,15.10282,0,0,0-.17616,1.567.74842.74842,0,0,0,.74356.74355.76011.76011,0,0,0,.74355-.74355c.00819-.15532.02061-.31038.03538-.4652q.013-.13644.0286-.27262.009-.07859.0187-.15706c.00287-.023.00625-.04607.00879-.06915.01093-.09928-.02278.15733-.0077.05689a10.01708,10.01708,0,0,1,.26736-1.32965c.02635-.09013.05486-.1797.0872-.26787a.65043.65043,0,0,0,.04365-.11268c-.02086.14243-.06162.13358-.02912.073.01136-.02115.02075-.04346.03179-.0648.01814-.03507.03831-.06878.05806-.1029.06214-.10736.06652-.0056-.03714.03914.02122-.00916.03526-.0462.05566-.0595.07762-.05059-.18108.11638-.05249.04578-.06965.03824-.19642.06668-.06128.03385.048-.01166.09532-.02553.14365-.03612.03828-.00839.13053-.00561.157-.02932-.00158.00142-.16034.01506-.07791.01014.0416-.00248.08352-.00927.125-.01279a4.56918,4.56918,0,0,1,.7463.00087c.02927.00232.05852.00481.08774.00764.00384.00037.191.02138.07817.00738-.09719-.01207.00357.00075.0197.00353.04948.00852.099.01643.14839.02576a4.50765,4.50765,0,0,1,.44072.10578q.11517.034.22824.07486c.02793.01015.05549.02207.08363.03158.10313.03485-.15595-.07563.01274.00579a3.37078,3.37078,0,0,1,.40115.22489.74883.74883,0,0,0,1.01733-.26675.76094.76094,0,0,0-.26676-1.01732Z"/><path class="m" d="M180.74826,123.26974a2.37342,2.37342,0,0,0-1.62228.35066l.17762-.075a1.70652,1.70652,0,0,1-.41251.12614l.19766-.02656a.71826.71826,0,0,1-.15873.002l.19767.02656a.5726.5726,0,0,1-.0927-.021l-.39533,1.434a3.29365,3.29365,0,0,0,.57826.11337,1.02154,1.02154,0,0,0,.79755-.29829.75741.75741,0,0,0,0-1.05154l-.854-.89531-.90106,1.16781,1.34227.65546a.79445.79445,0,0,0,.57295.075.75833.75833,0,0,0,.44437-.34171.75049.75049,0,0,0,.075-.573.73654.73654,0,0,0-.34171-.44437l-1.34227-.65547a.779.779,0,0,0-.57295-.075.77034.77034,0,0,0-.38624.26646.74664.74664,0,0,0,.05813.9763l.854.89531v-1.05154a.22336.22336,0,0,1-.03375.03115l.15049-.11626a.33694.33694,0,0,1-.05891.03185l.17762-.075a.44977.44977,0,0,1-.06713.01636l.19766-.02656a.66752.66752,0,0,1-.15128-.0032l.19767.02656a3.20932,3.20932,0,0,1-.3413-.08247.77279.77279,0,0,0-.57295.07495.74368.74368,0,0,0,.17762,1.359,2.37344,2.37344,0,0,0,1.62228-.35066l-.17762.075a1.7061,1.7061,0,0,1,.41251-.12615l-.19767.02656a.71826.71826,0,0,1,.15873-.002l-.19766-.02656a.57248.57248,0,0,1,.09269.021.75008.75008,0,0,0,.91466-.51932.75982.75982,0,0,0-.51932-.91467Z"/><path d="M136.30828,62.04081c.68468.95894.29291,2.476.02351,3.52092a34.85486,34.85486,0,0,1-1.29188,3.78054.65359.65359,0,0,0,.453.79776.66323.66323,0,0,0,.79776-.453,31.1209,31.1209,0,0,0,1.38556-4.16415c.29757-1.29533.58047-2.9765-.24794-4.13676a.6667.6667,0,0,0-.8873-.23265.65379.65379,0,0,0-.23266.88729Z"/><path d="M135.55771,68.08662a2.41721,2.41721,0,0,0-.55116,2.29708,2.63921,2.63921,0,0,0,1.77747,1.93684,4.62008,4.62008,0,0,0,4.65245-.45626,3.71735,3.71735,0,0,0,1.22569-1.13874,1.85721,1.85721,0,0,0,.13226-1.66545c-.23151-.57046-.65387-.99276-1.31934-.78508-.79419.24785-.45519,1.50036.3448,1.25071q.29365-.068-.27705-.12763-.05916-.08208.00508.0239c-.00953-.083.06426.16222.05742.1402a.52978.52978,0,0,1-.01158.41249,2.17235,2.17235,0,0,1-.905.83021,3.02354,3.02354,0,0,1-2.58244.52974,3.82611,3.82611,0,0,1-1.1256-.33866,2.01168,2.01168,0,0,1-.47146-.34717l-.064-.0706q.05734.07577-.009-.02122a1.39525,1.39525,0,0,1-.09391-.17955c.02508.06093-.03529-.12666-.04252-.15337a2.03975,2.03975,0,0,1-.05573-.2612c-.00534-.04005-.01245-.26274-.00722-.37013a1.05691,1.05691,0,0,1,.08443-.40477c-.03377.085.04744-.082.04979-.08565q.064-.09732.01336-.0175a.77011.77011,0,0,1,.09046-.081.6533.6533,0,0,0,0-.91715.663.663,0,0,0-.91715,0Z"/><path d="M122.72153,130.73468a13.4042,13.4042,0,0,1,.25052,4.52252c-.07478.69322-.16243,1.38465-.20639,2.08083a7.32515,7.32515,0,0,0,.03052,2.40754,2.99057,2.99057,0,0,0,.97158,1.30755,4.0005,4.0005,0,0,0,2.15339.55551c1.84155.26435,3.6809.51292,5.53273.6976a36.07835,36.07835,0,0,0,6.24117.18348,2.57681,2.57681,0,0,0,2.54729-1.79993,46.2984,46.2984,0,0,0,.90258-7.53448,60.99753,60.99753,0,0,1,1.00366-8.57535c.21921-.9391-1.22672-1.33993-1.44642-.39876-1.05792,4.53208-.96943,9.32378-1.54891,13.92905-.09222.7329-.06589,2.02847-.60633,2.57026-.481.48223-1.42691.35165-2.06389.36745-.98327.02439-1.9669-.006-2.94831-.06783-1.8587-.11715-3.72222-.31808-5.56668-.5751-.69333-.09661-1.38454-.20765-2.078-.30351-.61057-.08441-1.42287-.05492-1.6563-.7865a7.494,7.494,0,0,1,.06985-2.48017c.0542-.63362.14037-1.26384.2017-1.89672a14.24312,14.24312,0,0,0-.33737-4.6022c-.21475-.94072-1.66131-.54257-1.44641.39876Z"/><path d="M151.97665,128.59674q.06516,2.73289.14119,5.46551.06054,2.19675.13011,4.39323c.04138,1.27751-.20364,2.95285.63572,3.99874.60416.75284,1.65947-.31449,1.06066-1.06066-.27868-.34724-.13936-1.26263-.15447-1.69276q-.0334-.95074-.06281-1.90163-.06632-2.11614-.12278-4.23256-.06762-2.48483-.12762-4.96987a.75046.75046,0,0,0-1.5,0Z"/><path d="M168.3091,144.4869c1.174-.20048,2.55352-.6854,2.92093-1.9527a32.48168,32.48168,0,0,0,.78809-4.68273,95.02648,95.02648,0,0,1,1.50176-10.09989c.23112-.93718-1.215-1.337-1.44642-.39876a81.65487,81.65487,0,0,0-1.37936,9.15923c-.19626,1.52734-.39557,3.05755-.68581,4.57044-.10958.5712-.11873,1.15019-.62989,1.50125a3.85115,3.85115,0,0,1-1.46806.45674c-.94959.16215-.547,1.60791.39876,1.44642Z"/><polygon points="136.306 106.729 134.006 105.9 131.56 106.292 130.335 107.211 129.095 108.685 130.023 109.375 136.981 106.878 136.981 106.878 136.306 106.729"/><path d="M115.83164,111.24409a30.453,30.453,0,0,0,5.43668-.94359,27.50553,27.50553,0,0,1,8.75434-.1751c.9546.1234.94557-1.37776,0-1.5a28.65477,28.65477,0,0,0-8.84508.171,31.79237,31.79237,0,0,1-5.34594.94765.75045.75045,0,0,0,0,1.5Z"/><path d="M116.31378,110.627c1.00869-2.71346,2.12721-5.38975,3.20107-8.078l-.34922.34922,5.74976-2.0134a2.40709,2.40709,0,0,0,.406-.14217c.00916-.00534.10446-.02673.10635-.03724-.01069.0594-.33434-.07741-.20312.00392a4.551,4.551,0,0,0,1.3272.23859l2.97292.53442c.62926.11311.89924-.85042.26584-.96428-1.37664-.24747-2.75183-.50534-4.13028-.74247a1.62834,1.62834,0,0,0-.93754.11932l-2.235.78263-2.48332.8696a5.36247,5.36247,0,0,0-1.22407.43721c-.30682.21243-.43628.816-.5664,1.14207q-.45381,1.13734-.90676,2.275c-.65705,1.65048-1.33865,3.29442-1.95769,4.95969-.22454.604.74164.86475.96428.26584Z"/><path d="M119.20083,104.14148a1.86893,1.86893,0,0,0-.4822,1.51258,2.71029,2.71029,0,0,0,.60769,1.55388.75.75,0,0,0,1.28033-.53033.83663.83663,0,0,0-.21967-.53033c-.01373-.016-.027-.0322-.04008-.04876l.11728.15179a1.5783,1.5783,0,0,1-.19275-.34169l.07561.17916a2.279,2.279,0,0,1-.14493-.543l.02679.19938a1.9918,1.9918,0,0,1-.00494-.504l-.02679.19938a1.283,1.283,0,0,1,.08156-.31111l-.0756.17916a.87452.87452,0,0,1,.10635-.1824l-.11727.15179a.79671.79671,0,0,1,.06928-.07488.75688.75688,0,0,0,0-1.06066.76521.76521,0,0,0-1.06066,0Z"/><path d="M167.433,101.63233c2.05135.51923,4.15315.84233,6.24266,1.16424,1.48577.22889,3.0281.3542,4.4896.71556.93708.23169,1.33687-1.21447.39876-1.44642-1.46151-.36136-3.00383-.48667-4.4896-.71556-2.08951-.32191-4.19131-.645-6.24266-1.16424a.75065.75065,0,0,0-.39876,1.44642Z"/><path d="M165.34358,94.00986c2.56176.69733,5.09692,1.50657,7.625,2.31581a58.71594,58.71594,0,0,1,7.49594,2.64479c.8664.41509,1.62823-.87784.75708-1.2952a60.34838,60.34838,0,0,0-7.67416-2.7383c-2.58741-.83019-5.18258-1.65966-7.80507-2.37352a.75064.75064,0,0,0-.39876,1.44642Z"/><path d="M167.14146,99.28036h9.69627a.75045.75045,0,0,0,0-1.5h-9.69627a.75045.75045,0,0,0,0,1.5Z"/><ellipse class="r" cx="174.8687" cy="112.28443" rx="1.79569" ry="0.96161" transform="translate(-31.88724 133.23281) rotate(-38.49024)"/><ellipse class="r" cx="174.51393" cy="114.75426" rx="1.79569" ry="0.96161" transform="translate(-33.50151 133.54867) rotate(-38.49024)"/><ellipse class="r" cx="174.06429" cy="117.38123" rx="1.79569" ry="0.96161" transform="translate(-35.23419 133.83962) rotate(-38.49024)"/><ellipse class="r" cx="173.5485" cy="120.25807" rx="1.79569" ry="0.96161" transform="translate(-37.13675 134.1437) rotate(-38.49024)"/><ellipse class="r" cx="172.81124" cy="123.03148" rx="1.79569" ry="0.96161" transform="translate(-39.02307 134.28746) rotate(-38.49024)"/><ellipse class="r" cx="172.25807" cy="125.69712" rx="1.79569" ry="0.96161" transform="translate(-40.8023 134.52239) rotate(-38.49024)"/><ellipse class="r" cx="171.94858" cy="128.57867" rx="1.79569" ry="0.96161" transform="translate(-42.66297 134.95589) rotate(-38.49024)"/><ellipse class="r" cx="171.44754" cy="131.46152" rx="1.79569" ry="0.96161" transform="translate(-44.56608 135.27046) rotate(-38.49024)"/><ellipse class="r" cx="171.36445" cy="134.5803" rx="1.79569" ry="0.96161" transform="translate(-46.5252 135.89641) rotate(-38.49024)"/><ellipse class="r" cx="171.18874" cy="137.39222" rx="1.79569" ry="0.96161" transform="translate(-48.31347 136.39804) rotate(-38.49024)"/><ellipse class="r" cx="171.19157" cy="140.41808" rx="1.79569" ry="0.96161" transform="translate(-50.19609 137.05728) rotate(-38.49024)"/><path class="r" d="M172.76844,142.34911c.12925.55485-.44183,1.40665-1.27556,1.90255s-1.61438.44811-1.74363-.10674.9375-1.64413,1.77123-2.14S172.63918,141.79426,172.76844,142.34911Z"/><ellipse class="r" cx="171.89077" cy="145.84242" rx="1.79569" ry="0.96161" transform="translate(-53.42017 138.67108) rotate(-38.49024)"/><ellipse class="r" cx="172.54441" cy="148.42881" rx="1.79569" ry="0.96161" transform="translate(-54.88786 139.63987) rotate(-38.49024)"/><ellipse class="r" cx="173.19715" cy="150.57747" rx="1.79569" ry="0.96161" transform="translate(-56.08332 140.513) rotate(-38.49024)"/><path class="s" d="M174.323,110.93511l2.4999-9.28147,1.008.33113a.93113.93113,0,0,1,.33986,1.02481l-2.54147,7.32442Z"/><path class="t" d="M149.47594,129.13709s1.692,25.67457,11.6872,25.90922,10.71511-9.48764,10.71511-9.48764"/><path class="t" d="M176.47581,101.5958s4.94023-3.10564,5.13416-3.09025"/><path class="t" d="M176.47581,101.5958s1.78777-3.91032,3.74093-3.91032"/><path d="M173.75988,114.81278a1.752,1.752,0,0,1,.1118.21619l-.07561-.17916a1.16275,1.16275,0,0,1,.07706.27671l-.02679-.19938a.907.907,0,0,1,.00119.21413l.02679-.19938a.86264.86264,0,0,1-.0562.20915l.07561-.17916a1.01625,1.01625,0,0,1-.12578.2134l.11727-.15179a1.49411,1.49411,0,0,1-.25633.252l.15179-.11728a3.20768,3.20768,0,0,1-.71631.39693l.17916-.07561c-.2023.0851-.41215.15623-.60971.252a.75732.75732,0,0,0-.34467.44822.7665.7665,0,0,0,.0756.57792.757.757,0,0,0,.44823.34467.83719.83719,0,0,0,.57792-.07561c.019-.00921.0383-.0177.05773-.026l-.17916.0756a7.69374,7.69374,0,0,0,1.06486-.483,2.35065,2.35065,0,0,0,.58527-.47641,1.818,1.818,0,0,0,.256-.36781,1.73,1.73,0,0,0,.17191-.61784,1.81548,1.81548,0,0,0-.29244-1.08557.78033.78033,0,0,0-.44822-.34467.75019.75019,0,0,0-.847,1.10175Z"/><path d="M174.7543,111.77612q.02925.05946.0558.12l-.0756-.17916a1.77121,1.77121,0,0,1,.121.41669l-.02679-.19938a1.31851,1.31851,0,0,1,.00263.34328l.02679-.19938a1.23575,1.23575,0,0,1-.08452.30179l.07561-.17916a1.42867,1.42867,0,0,1-.16581.28013l.11728-.15179a2.03945,2.03945,0,0,1-.37022.36276l.15179-.11728a3.796,3.796,0,0,1-.57235.35165c-.13333.06821-.27371.126-.40265.20242a.75012.75012,0,1,0,.75708,1.2952c.29255-.17334.60886-.29281.88894-.49076a3.05869,3.05869,0,0,0,.72534-.69512,1.95206,1.95206,0,0,0,.35272-.96046,2.2995,2.2995,0,0,0-.28185-1.25855.75443.75443,0,0,0-1.02614-.26906.769.769,0,0,0-.26907,1.02614Z"/><path d="M173.95492,117.6362c.028.05262.05393.10593.07779.16053l-.0756-.17916a1.50643,1.50643,0,0,1,.10506.36925l-.02679-.19938a1.14429,1.14429,0,0,1,.0004.28456l.02679-.19938a1.08478,1.08478,0,0,1-.06958.25342l.0756-.17916a1.25986,1.25986,0,0,1-.16178.27167l.11727-.15179a1.84124,1.84124,0,0,1-.316.3066l.15179-.11728a3.49869,3.49869,0,0,1-.60821.362c-.14393.06929-.29544.1262-.43547.20323a.75725.75725,0,0,0-.26906,1.02614.76546.76546,0,0,0,1.02614.26906c.29275-.161.60681-.26992.88827-.45494a2.17258,2.17258,0,0,0,1.06086-1.48985,2.123,2.123,0,0,0-.27226-1.29257.75628.75628,0,0,0-1.02614-.26906.76655.76655,0,0,0-.26907,1.02614Z"/><path d="M173.27084,120.93236a1.53876,1.53876,0,0,1,.12437.2291l-.07561-.17916a1.00064,1.00064,0,0,1,.0678.24341l-.02679-.19938a.7838.7838,0,0,1,0,.18908l.02679-.19938a.75615.75615,0,0,1-.052.18545l.07561-.17916a.90389.90389,0,0,1-.10631.1783l.11728-.15179a1.3327,1.3327,0,0,1-.23324.22854l.15179-.11727a2.8243,2.8243,0,0,1-.62148.34486l.17916-.07561c-.2469.10371-.50217.18445-.74662.29439a.75194.75194,0,0,0-.34467.44822.7665.7665,0,0,0,.0756.57792.757.757,0,0,0,.44823.34467l.19938.02679a.74651.74651,0,0,0,.37853-.10239l.01849-.00812-.17916.0756c.35168-.14811.71722-.25832,1.05436-.44155a1.87844,1.87844,0,0,0,1.03145-1.23009,1.59484,1.59484,0,0,0-.01948-.68908,1.88985,1.88985,0,0,0-.24826-.55043.79145.79145,0,0,0-.44822-.34467.76645.76645,0,0,0-.57792.07561.74995.74995,0,0,0-.26906,1.02614Z"/><path d="M172.59183,123.437a1.36856,1.36856,0,0,1,.13511.23745l-.07561-.17916a.86711.86711,0,0,1,.05995.21542l-.02679-.19938a.68229.68229,0,0,1-.00106.16793l.02679-.19938a.66862.66862,0,0,1-.043.1532l.07561-.17916a.79627.79627,0,0,1-.095.161l.11727-.15179a1.19077,1.19077,0,0,1-.21263.20792l.15179-.11728a2.51959,2.51959,0,0,1-.54351.30222l.17916-.07561c-.22345.09426-.45884.15638-.68211.24975a.83906.83906,0,0,0-.44823.34467.75.75,0,0,0,.26907,1.02614.72211.72211,0,0,0,.57792.07561c.11857-.04959.2433-.0852.36444-.12786a6.198,6.198,0,0,0,.677-.27962,1.82155,1.82155,0,0,0,1.05658-1.1771,1.58056,1.58056,0,0,0-.26753-1.212.80425.80425,0,0,0-.44822-.34467.7665.7665,0,0,0-.57792.0756.757.757,0,0,0-.34467.44823.74235.74235,0,0,0,.0756.57792Z"/><path d="M172.1583,125.81441a1.45918,1.45918,0,0,1,.13062.23724l-.0756-.17916a.95727.95727,0,0,1,.06121.21626l-.02679-.19938a.739.739,0,0,1,.00038.19625l.02679-.19938a.72258.72258,0,0,1-.04624.1642l.07561-.17916a.856.856,0,0,1-.10124.172l.11727-.15179a1.26847,1.26847,0,0,1-.22489.22112l.15179-.11728a2.69792,2.69792,0,0,1-.59441.33l.17916-.07561c-.26094.1095-.531.19286-.79047.30623a.75016.75016,0,0,0-.34467.44822.7665.7665,0,0,0,.0756.57792.757.757,0,0,0,.44823.34467l.19938.02679a.74657.74657,0,0,0,.37854-.10239l.01185-.00512-.17916.07561c.34966-.146.71227-.25127,1.05011-.42807a2.47907,2.47907,0,0,0,.61234-.44143,1.503,1.503,0,0,0,.42762-.7672,1.55576,1.55576,0,0,0-.02055-.69228,1.84852,1.84852,0,0,0-.24728-.53539.79628.79628,0,0,0-.44822-.34467.7665.7665,0,0,0-.57792.0756.75.75,0,0,0-.26906,1.02615Z"/><path d="M171.65592,128.83653a1.24845,1.24845,0,0,1,.14466.24678l-.07561-.17916a.78667.78667,0,0,1,.05116.18183l-.02679-.19938a.61874.61874,0,0,1,.00083.15366l.02679-.19938a.60419.60419,0,0,1-.03814.14064l.07561-.17916a.72475.72475,0,0,1-.09423.15834l.11727-.15179a1.10689,1.10689,0,0,1-.1889.1828l.15179-.11727a2.32018,2.32018,0,0,1-.50067.27842l.17916-.07561c-.246.10368-.5052.16716-.75266.26507a.81778.81778,0,0,0-.44823.34467.75.75,0,0,0,.26907,1.02614.72914.72914,0,0,0,.57792.07561c.11626-.046.238-.07883.35663-.11816a6.33151,6.33151,0,0,0,.68808-.27273,1.74737,1.74737,0,0,0,1.052-1.146,1.39792,1.39792,0,0,0-.0197-.66051,1.65511,1.65511,0,0,0-.2508-.51189.81543.81543,0,0,0-.44822-.34467.7665.7665,0,0,0-.57792.0756.757.757,0,0,0-.34467.44823.732.732,0,0,0,.07561.57792Z"/><path d="M171.9041,131.186c.03153.05692.06052.11466.08673.17421l-.07561-.17916a1.38751,1.38751,0,0,1,.09812.34281l-.02679-.19938a1.05615,1.05615,0,0,1,.00013.26493l.02679-.19938a1.00669,1.00669,0,0,1-.06577.23666l.07561-.17916a1.17319,1.17319,0,0,1-.14172.23992l.11727-.15179a1.70345,1.70345,0,0,1-.29748.29233l.15179-.11728a3.33335,3.33335,0,0,1-.62824.36848c-.15032.07-.30851.12648-.45522.20392a.75611.75611,0,0,0-.26906,1.02614.76674.76674,0,0,0,1.02614.26906c.28958-.15284.59915-.2553.8788-.43033a2.10509,2.10509,0,0,0,1.0677-1.45888,2.02,2.02,0,0,0-.274-1.26017.75746.75746,0,0,0-1.02615-.26907.76525.76525,0,0,0-.26906,1.02614Z"/><path d="M171.72578,134.7922a1.63971,1.63971,0,0,1,.11858.22406l-.0756-.17916a1.07781,1.07781,0,0,1,.07213.26014l-.0268-.19938a.84222.84222,0,0,1,.00016.20164l.02679-.19938a.80872.80872,0,0,1-.05467.1973l.07561-.17916a.96013.96013,0,0,1-.1117.18916l.11727-.15179a1.40089,1.40089,0,0,1-.2441.2414l.15179-.11727a2.99193,2.99193,0,0,1-.67038.37267l.17916-.0756c-.22562.09478-.45895.17117-.68088.27484a.75456.75456,0,0,0-.34467.44823.7665.7665,0,0,0,.0756.57792.757.757,0,0,0,.44823.34467.84944.84944,0,0,0,.57792-.07561l.04055-.01792-.17916.07561a8.77369,8.77369,0,0,0,1.06337-.46422,2.387,2.387,0,0,0,.59231-.46211,1.703,1.703,0,0,0,.2636-.3674,1.65614,1.65614,0,0,0,.17336-.61134,1.7408,1.7408,0,0,0-.29327-1.06438.78554.78554,0,0,0-.44822-.34467.75018.75018,0,0,0-.847,1.10175Z"/><path d="M171.35431,137.29923a1.71882,1.71882,0,0,1,.111.21034l-.07561-.17916a1.13588,1.13588,0,0,1,.07759.26947l-.02679-.19938a.87.87,0,0,1,.00077.22524l.02679-.19938a.84112.84112,0,0,1-.05123.18762l.07561-.17916a.98094.98094,0,0,1-.1217.20857l.11728-.15179a1.44742,1.44742,0,0,1-.25016.24681l.15179-.11727a3.09683,3.09683,0,0,1-.69344.38506l.17916-.07561c-.214.09-.43567.16384-.64543.26375a.756.756,0,0,0-.34467.44822.7665.7665,0,0,0,.0756.57792.757.757,0,0,0,.44823.34467.843.843,0,0,0,.57792-.07561c.01612-.00768.03245-.01484.04889-.02181l-.17916.07561a8.255,8.255,0,0,0,1.06055-.47159,2.38236,2.38236,0,0,0,.58991-.46853,1.60821,1.60821,0,0,0,.43512-.98573,1.77653,1.77653,0,0,0-.29278-1.07534.78276.78276,0,0,0-.44823-.34467.75019.75019,0,0,0-.847,1.10175Z"/><path d="M171.19452,140.53063a1.38237,1.38237,0,0,1,.1355.2409l-.07561-.17916a.89671.89671,0,0,1,.05766.20358l-.0268-.19938a.70156.70156,0,0,1,.002.17151l.02679-.19938a.675.675,0,0,1-.04594.16883l.07561-.17916a.81114.81114,0,0,1-.09656.163l.11728-.15179a1.21127,1.21127,0,0,1-.21522.21039l.15179-.11727a2.57356,2.57356,0,0,1-.56148.31111l.17916-.07561c-.276.11575-.56242.2017-.83823.31826a.74834.74834,0,0,0-.34467.44823.76656.76656,0,0,0,.07561.57792.75705.75705,0,0,0,.44822.34467l.19938.02679a.74658.74658,0,0,0,.37854-.1024l.00564-.00238-.17916.0756c.12-.04954.24544-.08635.36763-.13a6.03854,6.03854,0,0,0,.6808-.28494,2.46981,2.46981,0,0,0,.61911-.43456,1.46263,1.46263,0,0,0,.42706-.75435,1.49415,1.49415,0,0,0-.01912-.67548,1.769,1.769,0,0,0-.24977-.532.80235.80235,0,0,0-.44823-.34467.76651.76651,0,0,0-.57792.07561.757.757,0,0,0-.34467.44822.74439.74439,0,0,0,.07561.57792Z"/><path d="M166.94107,110.51808c.75587-.28524,1.53482-.48485,2.30816-.71438a10.37821,10.37821,0,0,0,2.32088-.99017.75012.75012,0,1,0-.75708-1.2952c-.19067.11222-.38408.21925-.58225.31772q-.12936.06428-.26089.124c-.0425.01929-.08534.03775-.12795.05675-.109.04859.09951-.037-.01017.00366-.34526.12795-.68873.25112-1.04234.35483-.75369.221-1.51122.41867-2.24712.69638a.76708.76708,0,0,0-.52383.92259.75862.75862,0,0,0,.92259.52383Z"/><polygon class="u" points="170.691 94.989 177.561 96.621 182.419 98.964 180.491 96.654 173.602 94.186 169.815 94.726 170.691 94.989"/><path class="v" d="M154.13916,119.43354l-.51562.0542.15136-.72351.19434-.02051a1.08208,1.08208,0,0,0,.44238-.12537.61029.61029,0,0,0,.23633-.25964.97565.97565,0,0,0,.085-.40674c.00293-.1615.001-.40869-.00391-.74158l-.00586-.05493a.58527.58527,0,0,0-.07812-.25573.34647.34647,0,0,0-.16406-.13721.72185.72185,0,0,0-.332-.01929l-1.38282.14539-.207-1.97632.88281-.09277.13379,1.27661.62207-.06543a1.44077,1.44077,0,0,1,.98438.17028,1.03817,1.03817,0,0,1,.39941.79529l.01172.15625.0127.75061a1.48306,1.48306,0,0,1-.35157,1.07715A1.741,1.741,0,0,1,154.13916,119.43354Z"/><path class="v" d="M157.05518,115.06989l-.17383,1.24536-.752.079.38965-1.26794Zm1.13671-.11951-.18164,1.24622-.74414.07813.39258-1.26832Z"/><path class="v" d="M162.394,118.56574l-.88281.0929-.19629-1.86133a.9.9,0,0,0-.2539-.583.78476.78476,0,0,0-.64942-.15955,4.33334,4.33334,0,0,0-.50195.08472c-.17676.03943-.46875.12036-.87305.24207l-.00391-.72339a6.67268,6.67268,0,0,1,1.49512-.3396,1.37012,1.37012,0,0,1,1.667,1.3529Zm-2.15625.22669-.88574.09314-.20215-1.92432.83985-.52234Z"/><path class="v" d="M163.00244,117.77766l1.67285-.17579-1.95019-2.144.76465-.48389,1.24707,1.37513a1.1126,1.1126,0,0,0,.11132-.32825,1.77841,1.77841,0,0,0-.00293-.45691l-.06835-.645.86914-.09143.07519.71069a1.486,1.486,0,0,1-.07617.67823,2.11114,2.11114,0,0,1-.46191.66906l.61523.70081-.07813.62988-2.80664.295Z"/><polygon class="u" points="161.98 104.716 164.825 104.544 168.85 106.421 168.11 100.609 174.182 102.024 171.744 108.636 169.53 117.119 165.838 115.805 163.662 114.06 161.722 111.377 161.365 107.805 161.98 104.716"/><path d="M175.66633,102.68947c-2.31718,3.62009-3.88439,6.17631-3.79175,10.47349a16.6764,16.6764,0,0,1-.02707,3.43773c-.22016.73024-2.92987,1.05911-2.98056-.02707-.21232-4.55017,1.55885-11.75177,4.65188-15.09577"/><polygon class="j" points="112.765 126.598 111.74 131.957 76.506 135.221 78.892 128.297 80.146 126.628 79.411 133.282 86.155 118.599 84.773 131.918 93.088 124.608 92.135 131.994 106.338 130.334 112.765 126.598"/><path class="m" d="M117.28928,125.96687c1.11336,3.18069,2.10757,6.4021,3.22093,9.58279l1.541-.64968c-2.583-4.50407-4.64862-9.293-7.23163-13.797a.84376.84376,0,0,0-1.456.85109c2.583,4.50407,4.64861,9.293,7.23162,13.79705.4634.80805,1.8637.27213,1.541-.64968-1.11336-3.1807-2.10757-6.4021-3.22093-9.58279-.35621-1.01764-1.98588-.57979-1.626.44827Z"/><path d="M84.68569,117.01162a46.32648,46.32648,0,0,1,.31406,5.94846,15.58517,15.58517,0,0,1-.81932,5.8609c-.25045.58516.61073,1.09522.86347.50472a16.1891,16.1891,0,0,0,.9506-6.02246,45.83347,45.83347,0,0,0-.30881-6.29162c-.07475-.63131-1.07564-.63885-1,0Z"/><path class="w" d="M93.54944,121.962s-2.21167,8.13982-5.08178,11.55255"/><path class="w" d="M80.04389,126.32452a24.76392,24.76392,0,0,1-2.12383,8.32"/><path d="M167.70145,106.40885a22.73628,22.73628,0,0,0,3.50315-1.84461c1.10674-.66919,2.19093-1.37549,3.30185-2.03769a.75056.75056,0,0,0-.75708-1.29521c-1.083.64558-2.14049,1.3334-3.21854,1.98725-.59346.35993-1.19123.71348-1.80058,1.046-.2598.14175-.52177.2797-.78745.41013-.12547.0616-.2517.12167-.37914.17909-.00846.00381-.22245.09591-.07865.0361-.0604.02512-.12131.049-.18232.07256a.772.772,0,0,0-.52383.92259.75557.75557,0,0,0,.92259.52383Z"/><path d="M163.08526,91.66253c3.13319,3.88043,3.99534,9.6185,4.44822,14.437l1.43931-.59618c-3.247-3.15687-7.96724-2.78809-12.0727-3.8158a.85686.85686,0,0,0-.95215.38747,18.90472,18.90472,0,0,0-1.46839,7.15531l1.06727-.813c-3.86431-.77558-7.268,3.42137-9.965,5.54575-.8519.671.34867,1.85694,1.19237,1.19237,1.34365-1.05838,2.57717-2.2508,3.94489-3.27976,1.16755-.87836,2.82021-2.14528,4.37944-1.83234a.858.858,0,0,0,1.06726-.813,16.76515,16.76515,0,0,1,1.23816-6.30423l-.95215.38747c3.727.933,8.38624.52142,11.32861,3.38214.48392.4705,1.51072.16369,1.43931-.59618-.5007-5.32729-1.48667-11.34985-4.94211-15.6294-.68184-.84445-1.86834.35518-1.19237,1.19237Z"/><polygon points="148.548 58.318 148.229 56.22 142.568 56.213 141.647 57.861 148.548 58.318"/></svg>