<svg xmlns="http://www.w3.org/2000/svg" viewBox="0 0 222.66742 280.96826"><defs><style>.a{fill:#ededed;}.b{fill:#cecece;}.c{fill:#fff100;opacity:0.39;}.d,.g,.i{fill:#c9b092;}.e{fill:#f0ea4e;opacity:0.3;}.f{fill:#050505;}.g,.i{stroke:#000;}.g,.h,.i,.k{stroke-miterlimit:10;}.g{stroke-width:1.78728px;}.h,.k{fill:none;stroke:#231f20;}.h{stroke-width:2.82797px;}.i{stroke-width:1.81905px;}.j{fill:#cab192;}.k{stroke-width:0.98958px;}.l{fill:#fff;}</style></defs><circle class="a" cx="111.33386" cy="111.33368" r="108.83383"/><path class="b" d="M111.3338,5c58.48346,0,106.33362,47.8501,106.33362,106.3335v.00024c0,58.4834-47.85016,106.3335-106.33362,106.3335h-.00021C52.8501,217.66724,5,169.81714,5,111.33374v-.00024C5,52.8501,52.8501,5,111.33359,5h.00021m0-5A111.205,111.205,0,0,0,32.7,189.96729,111.205,111.205,0,1,0,189.96747,32.7,110.54191,110.54191,0,0,0,111.3338,0Z"/><circle class="c" cx="99.67504" cy="78.14148" r="21.85004"/><path class="d" d="M67.4803,138.09773s2.11642,19.13242.9515,21.791,2.01256,7.67342,2.01256,7.67342l10.10125,10.6084,8.3129,5.27594-.97024,5.58046-2.94786,10.72144s-2.06919,14.84286,34.825,2.54722l2.59562-13.65131,6.74081-13.59207.87838-17.27558s9.34145-14.39064,2.43637-22.74232"/><ellipse class="e" cx="102.75072" cy="68.33592" rx="36.43952" ry="26.91881" transform="translate(28.97787 167.25546) rotate(-86.91142)"/><path class="f" d="M113.309,137.99758c.48175-6.227-.24325-5.62756-.24325-5.62756,6.72976-5.92694,8.38694-30.18687,8.38694-30.18687l-19.38386-.94335L82.70215,99.99152s-1.08879,24.29208,4.92977,30.94c0,0-.65279-.67736-.87615,5.56425-.22344,6.2416-2.87683,45.31009-2.87683,45.31009a7.55674,7.55674,0,0,0,5.36626,7.508l9.10643.515,6.52836.36923a7.55685,7.55685,0,0,0,6.1786-6.85511S112.82719,144.22457,113.309,137.99758Z"/><path class="g" d="M88.51859,114.19152s-13.32641-5.69608-17.67069,3.36332,1.93013,7.722,1.93013,7.722,2.33678-2.92106,5.1536-2.312,10.04322,1.3037,10.04322,1.3037,4.25717.83914,4.4735-.06333,5.29858-1.89236,3.24748-4.26577S88.51859,114.19152,88.51859,114.19152Z"/><path class="g" d="M71.37885,125.31911s-6.10759,5.49464-5.58111,8.16391,4.79779,6.35318,4.79779,6.35318l8.9646-4.59487s11.08812,1.614,13.28389,2.34192,6.832,1.79065,6.88665.77788,2.24681-.21809,3.3477-4.05189a9.86733,9.86733,0,0,0-1.16833-7.34272l-9.46169-2.76129L75.37464,123.284Z"/><path class="g" d="M70.59553,139.8362s-6.49611,6.55635-5.60563,7.62012,1.36659,8.8089,4.74221,8.38161,11.50848-6.08275,11.50848-6.08275,11.14866.39842,11.33872,1.0181,7.22335-1.31985,7.22335-1.31985l2.94806-5.44448-1.471-5.36109L92.844,137.58325l-13.28389-2.34192Z"/><path class="g" d="M70.84454,155.93217s-6.71166,5.08851-3.898,10.522,9.97453,13.74252,12.64376,13.88655a19.76752,19.76752,0,0,1,5.51169,1.31311l-8.30217-11.824s-.52648-2.66927,1.03351-2.5851,6.48466-.05638,6.48466-.05638l1.59278-.52349,7.99548-3.4283s6.94915-4.29733,6.41174-6.764.6644-7.89339-4.47225-6.03422-12.21734-1.14272-12.21734-1.14272Z"/><circle class="h" cx="102.039" cy="76.57053" r="23.42099"/><path class="i" d="M117.04119,158.34618l1.09574-12.91146s-15.04186-6.32236-14.819-8.47388-5.09429-14.075,4.44218-11.89065,22.60522,11.21772,22.60522,11.21772"/><polygon class="j" points="199.506 101.081 180.34 87.799 166.979 65.183 143.414 48.769 126.939 64.343 116.337 90.725 127.024 104.359 165.629 110.088 199.506 101.081"/><polyline class="j" points="139.114 47.07 148.323 51.2 133.333 104.736 101.567 103.131 82.969 98.368 84.124 93.494 115.252 90.499 82.393 89.577 72.798 87.786 73.248 82.574 81.734 81.113 115.727 79.427 81.395 79.439 72.572 76.969 73.345 73.258 78.964 70.21 118.793 69.06 101.185 68.821 78.872 67.634 76.97 62.823 81.699 59.649 102.713 59.776 127.917 56.709"/><polygon class="j" points="130.5 66.688 132.205 50.118 128.258 38.499 131.44 28.982 136.13 26.584 139.209 39.955 146.93 51.344 150.441 60.806 130.5 66.688"/><path class="k" d="M84.2369,67.07824q15.83328.98952,31.66667,1.97916"/><path class="k" d="M81.21994,79.40308q15.85023.66468,31.70059,1.32948"/><path class="k" d="M82.21994,89.40308q15.85023.66468,31.70059,1.32948"/><path class="l" d="M88.93445,269.86865a.89259.89259,0,0,1-.25977-.66015v-11.96q0-6.87964-6.87988-6.87989H76.63464a.93429.93429,0,0,1-.66015-.24023.82715.82715,0,0,1-.25977-.64014V248.2085a.88884.88884,0,0,1,.91992-.91993h5.39942q10.16016,0,10.16015,9.75977V269.2085a.88882.88882,0,0,1-.91992.91992H89.5946A.89372.89372,0,0,1,88.93445,269.86865Z"/><path class="l" d="M98.454,269.86865a.89259.89259,0,0,1-.25977-.66015v-21a.87858.87858,0,0,1,.25977-.68018.9361.9361,0,0,1,.66016-.23975h1.75976a.88882.88882,0,0,1,.91992.91993v21a.88882.88882,0,0,1-.91992.91992H99.11414A.89373.89373,0,0,1,98.454,269.86865Z"/><path class="l" d="M122.47351,257.4082a8.26365,8.26365,0,0,1-3.75976,3.36035l4.16015,6a1.91962,1.91962,0,0,1,.48047,1.19971v1.24024a.89036.89036,0,0,1-.9209.91992H108.03406a.88882.88882,0,0,1-.91992-.91992v-1.32032a.82675.82675,0,0,1,.25976-.63964.93428.93428,0,0,1,.66016-.24024h10.87988l-12.52051-18.15967a1.75516,1.75516,0,0,1-.31933-.76025.73941.73941,0,0,1,.25976-.56006.883.883,0,0,1,.62012-.23975h1.75977a1.28643,1.28643,0,0,1,1.08007.63965l7.16016,10.32032q3.3999-1.59962,3.40039-6.56006v-3.48a.87858.87858,0,0,1,.25977-.68018.93445.93445,0,0,1,.66015-.23975h1.55957a.88882.88882,0,0,1,.91992.91993v3.91992A10.31929,10.31929,0,0,1,122.47351,257.4082Z"/><path class="l" d="M146.03308,247.52832a.92042.92042,0,0,1,.24024.68018v11.04a9.71981,9.71981,0,0,1-2.32032,6.33984,12.3873,12.3873,0,0,1-6.20019,3.98l-8.71973,2.76025a1.06564,1.06564,0,0,1-.32031.04.84855.84855,0,0,1-.55957-.20019.646.646,0,0,1-.24024-.52V270.4082q0-.91919.64063-1.11963l5.23926-1.76025-5.19922-18.64014a5.04541,5.04541,0,0,1-.2002-.7998.81843.81843,0,0,1,.79981-.79981h1.83984a.97079.97079,0,0,1,.59961.17969.87456.87456,0,0,1,.32031.41992l5.12012,18.56006a8.12834,8.12834,0,0,0,4.41992-3.15967,9.58816,9.58816,0,0,0,1.25977-5.12011v-9.96a.89031.89031,0,0,1,.91992-.91993h1.68066A.921.921,0,0,1,146.03308,247.52832Z"/></svg>