<svg xmlns="http://www.w3.org/2000/svg" viewBox="0 0 562.34668 115.69971"><defs><style>.a{fill:#f9c521;}.b{fill:#f2f7fa;}</style></defs><circle class="a" cx="516.34668" cy="55.38184" r="46"/><path class="b" d="M5.5,84.19922a2.59117,2.59117,0,0,1-.7998-1.90039V30.59912A2.594,2.594,0,0,1,5.5,28.69922a2.59543,2.59543,0,0,1,1.90039-.80029H32.59961q9.39843,0,15.55078,2.25A17.49,17.49,0,0,1,57.5,37.79883q3.19921,5.40015,3.2002,14.6001V82.19922a2.76369,2.76369,0,0,1-.79981,1.94971,2.63315,2.63315,0,0,1-2,.85009h-50.5A2.59117,2.59117,0,0,1,5.5,84.19922Zm34-16.7002V52.89893q0-7.5-7.40039-7.5H24.40039V67.499Z"/><path class="b" d="M70.39844,84.19922a2.59118,2.59118,0,0,1-.79981-1.90039V30.59912a2.73217,2.73217,0,0,1,2.7002-2.70019H90.19824a2.73217,2.73217,0,0,1,2.7002,2.70019V82.29883a2.7313,2.7313,0,0,1-2.7002,2.70019H72.29883A2.59116,2.59116,0,0,1,70.39844,84.19922Z"/><path class="b" d="M102.89844,60.19922a2.59118,2.59118,0,0,1-.79981-1.90039V30.59912a2.73217,2.73217,0,0,1,2.7002-2.70019h17.89941a2.73217,2.73217,0,0,1,2.7002,2.70019V58.29883a2.7313,2.7313,0,0,1-2.7002,2.70019H104.79883A2.59116,2.59116,0,0,1,102.89844,60.19922Z"/><path class="b" d="M133.79883,84.19922a2.58836,2.58836,0,0,1-.80078-1.90039V70.19922a2.733,2.733,0,0,1,2.70019-2.7002h22.5v-14.5q0-7.5-7.39941-7.5H136.69824a2.733,2.733,0,0,1-2.70019-2.70019V30.59912a2.7339,2.7339,0,0,1,2.70019-2.70019h14.60059q14.79784,0,22.5,5.75,7.69921,5.75171,7.69922,19.55029V67.499h3.30078a2.73134,2.73134,0,0,1,2.69922,2.7002V82.29883a2.73132,2.73132,0,0,1-2.69922,2.70019H135.69824A2.58744,2.58744,0,0,1,133.79883,84.19922Z"/><path class="b" d="M213.89648,84.19922a2.59117,2.59117,0,0,1-.7998-1.90039V30.59912a2.73216,2.73216,0,0,1,2.7002-2.70019h25.19921q9.39844,0,15.55079,2.25a17.48993,17.48993,0,0,1,9.3496,7.6499q3.19923,5.40015,3.2002,14.6001V82.19922a2.76372,2.76372,0,0,1-.7998,1.94971,2.63316,2.63316,0,0,1-2,.85009h-50.5A2.59119,2.59119,0,0,1,213.89648,84.19922Zm34-16.7002V52.89893q0-7.5-7.40039-7.5h-7.69921V67.499Z"/><path class="b" d="M278.5957,60.19922a2.59117,2.59117,0,0,1-.7998-1.90039V30.59912a2.73216,2.73216,0,0,1,2.70019-2.70019h17.89942a2.73216,2.73216,0,0,1,2.70019,2.70019V58.29883a2.73129,2.73129,0,0,1-2.70019,2.70019H280.49609A2.59119,2.59119,0,0,1,278.5957,60.19922Z"/><path class="b" d="M349.99609,82.29883A2.733,2.733,0,0,1,347.2959,84.999H311.49609a2.73129,2.73129,0,0,1-2.70019-2.70019V70.19922a2.7313,2.7313,0,0,1,2.70019-2.7002h14.69922l-.5-15.7998q-.0996-4.09936-1.89941-5.80029-1.8003-1.69923-5.5-1.69971h-5.79981a2.73216,2.73216,0,0,1-2.70019-2.7002V29.59912a2.73216,2.73216,0,0,1,2.70019-2.70019h6.29981q15.09814,0,22.45019,5.80029,7.34913,5.80079,7.75,19.59961Z"/><path class="b" d="M413.69531,33.749q6.69873,5.84986,6.7002,18.54981v30a2.733,2.733,0,0,1-2.7002,2.70019H389.49512a2.7313,2.7313,0,0,1-2.7002-2.70019V70.19922a2.73132,2.73132,0,0,1,2.7002-2.7002h8.59961V53.29883q0-3.59985-1.59961-5.29981a5.75466,5.75466,0,0,0-4.40039-1.70019h-5.89942l-9,36a2.73129,2.73129,0,0,1-2.70019,2.70019H358.19531a3.06079,3.06079,0,0,1-2.10058-.7998,1.76173,1.76173,0,0,1-.59961-1.90039l10.90039-35.8999h-7.5a2.73133,2.73133,0,0,1-2.7002-2.69971V30.59912a2.73217,2.73217,0,0,1,2.7002-2.70019h36.7998Q406.99366,27.89893,413.69531,33.749Z"/><path class="b" d="M429.793,60.19922a2.59118,2.59118,0,0,1-.79981-1.90039V30.59912a2.73217,2.73217,0,0,1,2.7002-2.70019h17.89941a2.73217,2.73217,0,0,1,2.7002,2.70019V58.29883a2.7313,2.7313,0,0,1-2.7002,2.70019H431.69336A2.59116,2.59116,0,0,1,429.793,60.19922Z"/><path class="b" d="M468.14258,79.34912q-7.251-6.64965-7.25-18.55029V30.59912a2.7339,2.7339,0,0,1,2.70019-2.70019h26.60059q15.29883,0,22,6.35009,6.69726,6.35157,7.2998,18.14991.09814,1.00122.09961,4.20019,0,3.29957-.09961,4.29981-.60059,12.2014-7.40039,18.6499Q505.2915,85.99927,489.793,85.999,475.39356,85.999,468.14258,79.34912Zm26.75-12.5a4.19043,4.19043,0,0,0,2.5-2.1001,12.45916,12.45916,0,0,0,.90039-4.35009q.09814-.99829.09961-3.79981,0-2.70043-.09961-3.70019-.20216-3.99829-1.9502-5.75-1.75049-1.74829-6.64941-1.75h-8.60059v15q0,3.90013,2.29981,5.5a10.87255,10.87255,0,0,0,6.30078,1.60009A16.02886,16.02886,0,0,0,494.89258,66.84912Z"/></svg>