<svg xmlns="http://www.w3.org/2000/svg" viewBox="0 0 649.20916 115.69971"><defs><style>.a{fill:#f2f7fa;}</style></defs><path class="a" d="M41.2002,84.249a2.43085,2.43085,0,0,1-.79981-1.85009v-29.5q0-7.5-7.40039-7.5H7.40039A2.59118,2.59118,0,0,1,5.5,44.59912a2.58931,2.58931,0,0,1-.7998-1.8999V30.59912A2.594,2.594,0,0,1,5.5,28.69922a2.59543,2.59543,0,0,1,1.90039-.80029H33.5q14.39941,0,21.7998,6,7.39893,6,7.4004,19.3999v29A2.7313,2.7313,0,0,1,60,84.999H43.09961A2.67867,2.67867,0,0,1,41.2002,84.249ZM5.5,84.19922a2.59117,2.59117,0,0,1-.7998-1.90039V56.09912A2.594,2.594,0,0,1,5.5,54.19922a2.59543,2.59543,0,0,1,1.90039-.80029H24.2998A2.73216,2.73216,0,0,1,27,56.09912V82.29883A2.73129,2.73129,0,0,1,24.2998,84.999H7.40039A2.59117,2.59117,0,0,1,5.5,84.19922Z"/><path class="a" d="M112.001,34.39893q5.79784,6.50171,5.7998,18a29.90145,29.90145,0,0,1-3.95019,15.30029,35.229,35.229,0,0,1-10.5,11.34961,42.67623,42.67623,0,0,1-14.25,6.45019l-4,1a1.95075,1.95075,0,0,1-1.90039-.8999,3.59,3.59,0,0,1-.89942-2.30029V69.39893a3.31418,3.31418,0,0,1,.79981-2.1001,5.15241,5.15241,0,0,1,1.90039-1.5l2.69922-1.09961q6.999-2.89966,7-11.2002,0-3.90014-1.25-5.5-1.251-1.59815-4.84961-1.60009H70.40039a2.73305,2.73305,0,0,1-2.70019-2.69971v-27a2.733,2.733,0,0,1,2.70019-2.7002H85.7002a2.7313,2.7313,0,0,1,2.70019,2.7002V27.89893h5.2002Q106.20118,27.89893,112.001,34.39893Z"/><path class="a" d="M125.90039,60.19922a2.59117,2.59117,0,0,1-.7998-1.90039V30.59912a2.73216,2.73216,0,0,1,2.70019-2.70019H145.7002a2.73216,2.73216,0,0,1,2.70019,2.70019V58.29883A2.73129,2.73129,0,0,1,145.7002,60.999H127.80078A2.59117,2.59117,0,0,1,125.90039,60.19922Z"/><path class="a" d="M198.80078,34.39893q5.79786,6.50171,5.79981,18a29.90145,29.90145,0,0,1-3.9502,15.30029,35.22875,35.22875,0,0,1-10.5,11.34961,42.67623,42.67623,0,0,1-14.25,6.45019l-4,1A1.95077,1.95077,0,0,1,170,85.59912a3.59,3.59,0,0,1-.89941-2.30029V69.39893a3.31417,3.31417,0,0,1,.7998-2.1001,5.15249,5.15249,0,0,1,1.90039-1.5L174.5,64.69922q6.999-2.89966,7-11.2002,0-3.90014-1.25-5.5-1.251-1.59815-4.84961-1.60009H157.2002A2.73305,2.73305,0,0,1,154.5,43.69922v-27a2.733,2.733,0,0,1,2.7002-2.7002H172.5a2.73132,2.73132,0,0,1,2.7002,2.7002V27.89893h5.20019Q193.001,27.89893,198.80078,34.39893Z"/><path class="a" d="M211.30078,84.19922A2.5884,2.5884,0,0,1,210.5,82.29883V70.19922a2.733,2.733,0,0,1,2.7002-2.7002h22.5v-14.5q0-7.5-7.39942-7.5H214.2002A2.733,2.733,0,0,1,211.5,42.79883V30.59912a2.7339,2.7339,0,0,1,2.7002-2.70019h14.60058q14.79786,0,22.5,5.75Q259,39.40064,259,53.19922V67.499h3.30078A2.73132,2.73132,0,0,1,265,70.19922V82.29883a2.73131,2.73131,0,0,1-2.69922,2.70019H213.2002A2.58746,2.58746,0,0,1,211.30078,84.19922Z"/><path class="a" d="M291.39941,84.19922a2.59117,2.59117,0,0,1-.7998-1.90039V30.59912a2.73216,2.73216,0,0,1,2.70019-2.70019H318.499q9.39845,0,15.55078,2.25a17.48991,17.48991,0,0,1,9.34961,7.6499q3.19923,5.40015,3.2002,14.6001V82.19922a2.76369,2.76369,0,0,1-.79981,1.94971,2.63313,2.63313,0,0,1-2,.85009h-50.5A2.59119,2.59119,0,0,1,291.39941,84.19922Zm34-16.7002V52.89893q0-7.5-7.40039-7.5H310.2998V67.499Z"/><path class="a" d="M356.09766,60.19922a2.59118,2.59118,0,0,1-.79981-1.90039V30.59912a2.73217,2.73217,0,0,1,2.7002-2.70019h17.89941a2.73217,2.73217,0,0,1,2.7002,2.70019V58.29883a2.7313,2.7313,0,0,1-2.7002,2.70019H357.99805A2.59116,2.59116,0,0,1,356.09766,60.19922Z"/><path class="a" d="M427.49805,82.29883a2.733,2.733,0,0,1-2.7002,2.70019h-35.7998a2.7313,2.7313,0,0,1-2.7002-2.70019V70.19922a2.73132,2.73132,0,0,1,2.7002-2.7002h14.69922l-.5-15.7998q-.09962-4.09936-1.89942-5.80029-1.80028-1.69923-5.5-1.69971h-5.7998a2.73217,2.73217,0,0,1-2.7002-2.7002V29.59912a2.73217,2.73217,0,0,1,2.7002-2.70019h6.2998q15.09814,0,22.4502,5.80029,7.34912,5.80079,7.75,19.59961Z"/><path class="a" d="M491.19727,33.749q6.69873,5.84986,6.70019,18.54981v30a2.733,2.733,0,0,1-2.70019,2.70019h-28.2002a2.73129,2.73129,0,0,1-2.70019-2.70019V70.19922a2.7313,2.7313,0,0,1,2.70019-2.7002h8.59961V53.29883q0-3.59985-1.59961-5.29981a5.75464,5.75464,0,0,0-4.40039-1.70019h-5.89941l-9,36a2.7313,2.7313,0,0,1-2.7002,2.70019h-16.2998a3.06082,3.06082,0,0,1-2.10059-.7998,1.76174,1.76174,0,0,1-.59961-1.90039l10.90039-35.8999h-7.5a2.73131,2.73131,0,0,1-2.70019-2.69971V30.59912a2.73216,2.73216,0,0,1,2.70019-2.70019h36.79981Q484.4956,27.89893,491.19727,33.749Z"/><path class="a" d="M507.2959,60.19922a2.59118,2.59118,0,0,1-.79981-1.90039V30.59912a2.73217,2.73217,0,0,1,2.7002-2.70019H527.0957a2.73217,2.73217,0,0,1,2.7002,2.70019V58.29883a2.7313,2.7313,0,0,1-2.7002,2.70019H509.19629A2.59116,2.59116,0,0,1,507.2959,60.19922Z"/><path class="a" d="M545.64551,79.34912q-7.251-6.64965-7.25-18.55029V30.59912a2.7339,2.7339,0,0,1,2.70019-2.70019h26.60059q15.29883,0,22,6.35009,6.69726,6.35157,7.2998,18.14991.09815,1.00122.09961,4.20019,0,3.29957-.09961,4.29981-.60059,12.2014-7.40039,18.6499-6.80127,6.45044-22.2998,6.45019Q552.89649,85.999,545.64551,79.34912Zm26.75-12.5a4.19043,4.19043,0,0,0,2.5-2.1001,12.45916,12.45916,0,0,0,.90039-4.35009q.09815-.99829.09961-3.79981,0-2.70043-.09961-3.70019-.20216-3.99829-1.9502-5.75-1.75048-1.74829-6.64941-1.75H558.5957v15q0,3.90013,2.29981,5.5a10.87255,10.87255,0,0,0,6.30078,1.60009A16.02886,16.02886,0,0,0,572.39551,66.84912Z"/><path class="a" d="M615.24588,15.01521s43.85178,63.36663-32.14822,85.36663c10.5,9.5,38.51256,3.38249,46.00628-3.05876S650.59766,82.98822,649.09766,53.935,626.8941,17.14859,615.24588,15.01521Z"/></svg>