<svg xmlns="http://www.w3.org/2000/svg" viewBox="0 0 266.49805 115.69971"><defs><style>.a{fill:#f2f7fa;}</style></defs><path class="a" d="M11.7002,79.34912Q4.09911,72.69947,4.09961,60.89893V30.59912a2.59119,2.59119,0,0,1,.80078-1.8999,2.5917,2.5917,0,0,1,1.89941-.80029H21.59961a2.73216,2.73216,0,0,1,2.70019,2.70019V60.39893q0,3.802,2.60059,5.45019A12.52149,12.52149,0,0,0,33.7002,67.499a8.95989,8.95989,0,0,0,5.89941-1.75,6.56587,6.56587,0,0,0,2.10059-5.35009v-5.6001q0-8.79786-3.60059-8.79981a11.49549,11.49549,0,0,0-4,.7002,3.26248,3.26248,0,0,1-1,.19971,2.15017,2.15017,0,0,1-1.64941-.69971,2.676,2.676,0,0,1-.6504-1.90039V32.999a4.34333,4.34333,0,0,1,2.4004-4.10009q2.3994-1.29859,9.0996-1.29981,7.99952,0,12.60059,2.6499a14.49808,14.49808,0,0,1,6.5,7.79981,38.90258,38.90258,0,0,1,1.89941,13.25v2.40039q0,1.30079.04981,3.7998a31.89446,31.89446,0,0,1-.04981,3.39991q-.59911,11.80077-7.89941,18.45019Q48.09961,86.00024,33.7998,85.999,19.29932,85.999,11.7002,79.34912Z"/><path class="a" d="M71.999,84.19922a2.59117,2.59117,0,0,1-.7998-1.90039V30.59912a2.73216,2.73216,0,0,1,2.70019-2.70019H91.79883A2.73216,2.73216,0,0,1,94.499,30.59912V82.29883A2.73129,2.73129,0,0,1,91.79883,84.999H73.89941A2.59119,2.59119,0,0,1,71.999,84.19922Z"/><path class="a" d="M145.09961,34.39893q5.79784,6.50171,5.7998,18a29.90145,29.90145,0,0,1-3.95019,15.30029,35.229,35.229,0,0,1-10.5,11.34961,42.67623,42.67623,0,0,1-14.25,6.45019l-4,1a1.95076,1.95076,0,0,1-1.90039-.8999,3.59,3.59,0,0,1-.89942-2.30029V69.39893a3.31418,3.31418,0,0,1,.79981-2.1001,5.15241,5.15241,0,0,1,1.90039-1.5l2.69922-1.09961q6.999-2.89966,7-11.2002,0-3.90014-1.25-5.5-1.251-1.59815-4.84961-1.60009H103.499a2.73305,2.73305,0,0,1-2.70019-2.69971v-27A2.733,2.733,0,0,1,103.499,13.999h15.29981a2.7313,2.7313,0,0,1,2.70019,2.7002V27.89893h5.2002Q139.29981,27.89893,145.09961,34.39893Z"/><path class="a" d="M158.99805,60.19922a2.59118,2.59118,0,0,1-.79981-1.90039V30.59912a2.73217,2.73217,0,0,1,2.7002-2.70019h17.89941a2.73217,2.73217,0,0,1,2.7002,2.70019V58.29883a2.7313,2.7313,0,0,1-2.7002,2.70019H160.89844A2.59116,2.59116,0,0,1,158.99805,60.19922Z"/><path class="a" d="M261.59863,28.69922a2.59872,2.59872,0,0,1,.80078,1.8999v25.1001A28.96,28.96,0,0,1,246.34863,82.249a34.79787,34.79787,0,0,1-16.0498,3.75h-11A34.66212,34.66212,0,0,1,203.749,82.79883a23.58955,23.58955,0,0,1-9.75-8.3999,20.34961,20.34961,0,0,1-3.2998-11.1001V30.59912a2.73216,2.73216,0,0,1,2.70019-2.70019h14.89942a2.686,2.686,0,0,1,1.90039.75,2.43987,2.43987,0,0,1,.7998,1.85009v21.1001a5.72518,5.72518,0,0,0,4.2002-3.8999q1.29784-3.3003,1.2998-9.80029v-7.1001a2.83876,2.83876,0,0,1,.79981-2.09961,2.59541,2.59541,0,0,1,1.90039-.80029H233.999a2.46871,2.46871,0,0,1,1.90039.8999,2.94663,2.94663,0,0,1,.79981,2v7.1001q0,12.10107-5.4502,19.05029-5.45214,6.95142-15.25,8.5498a11.48132,11.48132,0,0,0,8,3.1001h1.79981a18.36021,18.36021,0,0,0,8.0498-1.80029,15.75928,15.75928,0,0,0,6-4.84961,11.1084,11.1084,0,0,0,2.25-6.75V30.499a2.43056,2.43056,0,0,1,.80078-1.85009,2.67871,2.67871,0,0,1,1.89942-.75h14.90039A2.598,2.598,0,0,1,261.59863,28.69922Z"/></svg>